G04 #@! TF.GenerationSoftware,KiCad,Pcbnew,9.0.4*
G04 #@! TF.CreationDate,2025-08-24T22:39:55+02:00*
G04 #@! TF.ProjectId,npn-pnp-h-bridge,6e706e2d-706e-4702-9d68-2d6272696467,rev?*
G04 #@! TF.SameCoordinates,Original*
G04 #@! TF.FileFunction,Legend,Bot*
G04 #@! TF.FilePolarity,Positive*
%FSLAX46Y46*%
G04 Gerber Fmt 4.6, Leading zero omitted, Abs format (unit mm)*
G04 Created by KiCad (PCBNEW 9.0.4) date 2025-08-24 22:39:55*
%MOMM*%
%LPD*%
G01*
G04 APERTURE LIST*
G04 Aperture macros list*
%AMRoundRect*
0 Rectangle with rounded corners*
0 $1 Rounding radius*
0 $2 $3 $4 $5 $6 $7 $8 $9 X,Y pos of 4 corners*
0 Add a 4 corners polygon primitive as box body*
4,1,4,$2,$3,$4,$5,$6,$7,$8,$9,$2,$3,0*
0 Add four circle primitives for the rounded corners*
1,1,$1+$1,$2,$3*
1,1,$1+$1,$4,$5*
1,1,$1+$1,$6,$7*
1,1,$1+$1,$8,$9*
0 Add four rect primitives between the rounded corners*
20,1,$1+$1,$2,$3,$4,$5,0*
20,1,$1+$1,$4,$5,$6,$7,0*
20,1,$1+$1,$6,$7,$8,$9,0*
20,1,$1+$1,$8,$9,$2,$3,0*%
G04 Aperture macros list end*
%ADD10C,0.200000*%
%ADD11C,0.100000*%
%ADD12C,0.150000*%
%ADD13C,0.120000*%
%ADD14R,1.500000X1.050000*%
%ADD15O,1.500000X1.050000*%
%ADD16C,2.148000*%
%ADD17R,1.300000X1.300000*%
%ADD18C,1.300000*%
%ADD19C,2.600000*%
%ADD20C,4.400000*%
%ADD21C,1.270000*%
%ADD22RoundRect,0.250000X-0.650000X1.500000X-0.650000X-1.500000X0.650000X-1.500000X0.650000X1.500000X0*%
%ADD23RoundRect,0.250000X0.475000X-0.337500X0.475000X0.337500X-0.475000X0.337500X-0.475000X-0.337500X0*%
%ADD24RoundRect,0.250000X0.650000X-1.500000X0.650000X1.500000X-0.650000X1.500000X-0.650000X-1.500000X0*%
G04 APERTURE END LIST*
D10*
G36*
X112115964Y-51743719D02*
G01*
X112171167Y-51754363D01*
X112220377Y-51773089D01*
X112263336Y-51801727D01*
X112298413Y-51842332D01*
X112314614Y-51874562D01*
X112325190Y-51915777D01*
X112329065Y-51968240D01*
X112326989Y-52020019D01*
X112323509Y-52057755D01*
X111670281Y-52057755D01*
X111668205Y-52041024D01*
X111666801Y-52017943D01*
X111665397Y-51994862D01*
X111664725Y-51976666D01*
X111668496Y-51923193D01*
X111678819Y-51880778D01*
X111694645Y-51847278D01*
X111729544Y-51804904D01*
X111773352Y-51775227D01*
X111824346Y-51755873D01*
X111883383Y-51744452D01*
X112005932Y-51737430D01*
X112115964Y-51743719D01*
G37*
G36*
X112619939Y-54050207D02*
G01*
X111377759Y-54050207D01*
X111377759Y-53491399D01*
X111488870Y-53491399D01*
X111492528Y-53553257D01*
X111503301Y-53611620D01*
X111521049Y-53667010D01*
X111546213Y-53719172D01*
X111578550Y-53766329D01*
X111618441Y-53808976D01*
X111664199Y-53845518D01*
X111717595Y-53877267D01*
X111779580Y-53904108D01*
X111844490Y-53922942D01*
X111918980Y-53934884D01*
X112004467Y-53939096D01*
X112094378Y-53933984D01*
X112170743Y-53919624D01*
X112235582Y-53897147D01*
X112296728Y-53865573D01*
X112348465Y-53829411D01*
X112391836Y-53788704D01*
X112429043Y-53742254D01*
X112458566Y-53692724D01*
X112480801Y-53639715D01*
X112501943Y-53556799D01*
X112508828Y-53476012D01*
X112505176Y-53395575D01*
X112495578Y-53336122D01*
X112480144Y-53281762D01*
X112461445Y-53233967D01*
X112172750Y-53233967D01*
X112172750Y-53387840D01*
X112325829Y-53387840D01*
X112331386Y-53410249D01*
X112336881Y-53471798D01*
X112331881Y-53527584D01*
X112317281Y-53578105D01*
X112292448Y-53623588D01*
X112256525Y-53662796D01*
X112210986Y-53693702D01*
X112151073Y-53718056D01*
X112083423Y-53732337D01*
X111997445Y-53737596D01*
X111920286Y-53732472D01*
X111854929Y-53718056D01*
X111795872Y-53694035D01*
X111748806Y-53663468D01*
X111710565Y-53624934D01*
X111683165Y-53580242D01*
X111666472Y-53530351D01*
X111660817Y-53476012D01*
X111663068Y-53440574D01*
X111669488Y-53409578D01*
X111679054Y-53382125D01*
X111686829Y-53368301D01*
X111887474Y-53368301D01*
X111887474Y-53545926D01*
X112020343Y-53545926D01*
X112020343Y-53211558D01*
X111577225Y-53211558D01*
X111551390Y-53245189D01*
X111529330Y-53286079D01*
X111511279Y-53335389D01*
X111494477Y-53412494D01*
X111488870Y-53491399D01*
X111377759Y-53491399D01*
X111377759Y-52565413D01*
X111508410Y-52565413D01*
X112088547Y-52899782D01*
X112088547Y-52906804D01*
X111972227Y-52898377D01*
X111508410Y-52898377D01*
X111508410Y-53080277D01*
X112489289Y-53080277D01*
X112489289Y-52912360D01*
X111889550Y-52573840D01*
X111889550Y-52566818D01*
X112007276Y-52579396D01*
X112489289Y-52579396D01*
X112489289Y-52397557D01*
X111508410Y-52397557D01*
X111508410Y-52565413D01*
X111377759Y-52565413D01*
X111377759Y-51999014D01*
X111492778Y-51999014D01*
X111494182Y-52056411D01*
X111497724Y-52127730D01*
X111501876Y-52197706D01*
X111506761Y-52249424D01*
X112487030Y-52249424D01*
X112491182Y-52205399D01*
X112496067Y-52134019D01*
X112499608Y-52051526D01*
X112501012Y-51975261D01*
X112496297Y-51888937D01*
X112483259Y-51817956D01*
X112463216Y-51759839D01*
X112434176Y-51705827D01*
X112399497Y-51661197D01*
X112359046Y-51624834D01*
X112312936Y-51595467D01*
X112260999Y-51572325D01*
X112202426Y-51555530D01*
X112109980Y-51541007D01*
X112005993Y-51535930D01*
X111910308Y-51540856D01*
X111817194Y-51555530D01*
X111757235Y-51572337D01*
X111702675Y-51595890D01*
X111652879Y-51626177D01*
X111608786Y-51663749D01*
X111570139Y-51710445D01*
X111536803Y-51767472D01*
X111513480Y-51829235D01*
X111498289Y-51905425D01*
X111494094Y-51976666D01*
X111492778Y-51999014D01*
X111377759Y-51999014D01*
X111377759Y-51424819D01*
X112619939Y-51424819D01*
X112619939Y-54050207D01*
G37*
G36*
X108616031Y-53999832D02*
G01*
X107080760Y-53999832D01*
X107080760Y-53888721D01*
X107508410Y-53888721D01*
X108489289Y-53888721D01*
X108489289Y-53697051D01*
X107680356Y-53697051D01*
X107680356Y-53418615D01*
X107907014Y-53418615D01*
X107907014Y-53245141D01*
X107508410Y-53245141D01*
X107508410Y-53888721D01*
X107080760Y-53888721D01*
X107080760Y-53049503D01*
X107191871Y-53049503D01*
X107344278Y-53049503D01*
X107344278Y-52428332D01*
X107191871Y-52428332D01*
X107191871Y-53049503D01*
X107080760Y-53049503D01*
X107080760Y-52236846D01*
X107508410Y-52236846D01*
X107660817Y-52236846D01*
X107660817Y-51990649D01*
X108055513Y-51990649D01*
X108055513Y-52236846D01*
X108207921Y-52236846D01*
X108207921Y-51902477D01*
X108297802Y-51902477D01*
X108301350Y-51939719D01*
X108311132Y-51968998D01*
X108326501Y-51992053D01*
X108347422Y-52009933D01*
X108371558Y-52020562D01*
X108399957Y-52024232D01*
X108427541Y-52020644D01*
X108451981Y-52010079D01*
X108474146Y-51992053D01*
X108490711Y-51968837D01*
X108501153Y-51939554D01*
X108504920Y-51902477D01*
X108501188Y-51864443D01*
X108490761Y-51833717D01*
X108474146Y-51808749D01*
X108451779Y-51789016D01*
X108427351Y-51777606D01*
X108399957Y-51773761D01*
X108371760Y-51777691D01*
X108347629Y-51789167D01*
X108326501Y-51808749D01*
X108311078Y-51833562D01*
X108301314Y-51864289D01*
X108297802Y-51902477D01*
X108207921Y-51902477D01*
X108207921Y-51808749D01*
X107660817Y-51808749D01*
X107660817Y-51549913D01*
X107508410Y-51549913D01*
X107508410Y-52236846D01*
X107080760Y-52236846D01*
X107080760Y-50892594D01*
X107508410Y-50892594D01*
X107906159Y-50892594D01*
X107961865Y-50897656D01*
X108001571Y-50911011D01*
X108029379Y-50931062D01*
X108050262Y-50958693D01*
X108062859Y-50990665D01*
X108067237Y-51028271D01*
X108059728Y-51077725D01*
X108037134Y-51122732D01*
X108002894Y-51158944D01*
X107962213Y-51180801D01*
X107508410Y-51180801D01*
X107508410Y-51362639D01*
X108055513Y-51362639D01*
X108055513Y-51463390D01*
X108207921Y-51463390D01*
X108207921Y-51218536D01*
X108115536Y-51197592D01*
X108115536Y-51191975D01*
X108156391Y-51154104D01*
X108193877Y-51099651D01*
X108212072Y-51058303D01*
X108223458Y-51010679D01*
X108227460Y-50955548D01*
X108223891Y-50904848D01*
X108213478Y-50858339D01*
X108194819Y-50815963D01*
X108167316Y-50780670D01*
X108130752Y-50752634D01*
X108079877Y-50729623D01*
X108021083Y-50715845D01*
X107943467Y-50710694D01*
X107508410Y-50710694D01*
X107508410Y-50892594D01*
X107080760Y-50892594D01*
X107080760Y-50599583D01*
X108616031Y-50599583D01*
X108616031Y-53999832D01*
G37*
D11*
G36*
X104475457Y-66654900D02*
G01*
X104511601Y-66691045D01*
X104550313Y-66768468D01*
X104550313Y-67030575D01*
X104511601Y-67107998D01*
X104475455Y-67144145D01*
X104398034Y-67182856D01*
X104231165Y-67182856D01*
X104174123Y-67154335D01*
X104174123Y-66644709D01*
X104231165Y-66616189D01*
X104398034Y-66616189D01*
X104475457Y-66654900D01*
G37*
G36*
X114475459Y-66654900D02*
G01*
X114511603Y-66691045D01*
X114550315Y-66768468D01*
X114550315Y-67030575D01*
X114511603Y-67107998D01*
X114475457Y-67144145D01*
X114398036Y-67182856D01*
X114231167Y-67182856D01*
X114174125Y-67154335D01*
X114174125Y-66644709D01*
X114231167Y-66616189D01*
X114398036Y-66616189D01*
X114475459Y-66654900D01*
G37*
G36*
X107958905Y-66896624D02*
G01*
X107961320Y-66897285D01*
X107962132Y-66898097D01*
X107969993Y-66899660D01*
X107977721Y-66901777D01*
X107978809Y-66901414D01*
X107981266Y-66901903D01*
X108207558Y-66901903D01*
X108277331Y-66936789D01*
X108312218Y-67006563D01*
X108312218Y-67078194D01*
X108277331Y-67147969D01*
X108207558Y-67182856D01*
X107993070Y-67182856D01*
X107936028Y-67154335D01*
X107936028Y-66885185D01*
X107958905Y-66896624D01*
G37*
G36*
X111380220Y-66654900D02*
G01*
X111416364Y-66691045D01*
X111455076Y-66768468D01*
X111455076Y-67030575D01*
X111416364Y-67107998D01*
X111380218Y-67144145D01*
X111302797Y-67182856D01*
X111183547Y-67182856D01*
X111106124Y-67144145D01*
X111069978Y-67107998D01*
X111031267Y-67030576D01*
X111031267Y-66768468D01*
X111069978Y-66691044D01*
X111106123Y-66654900D01*
X111183547Y-66616189D01*
X111302797Y-66616189D01*
X111380220Y-66654900D01*
G37*
G36*
X113610666Y-66651075D02*
G01*
X113645553Y-66720849D01*
X113645553Y-66838531D01*
X113269363Y-66763293D01*
X113269363Y-66720849D01*
X113304249Y-66651075D01*
X113374024Y-66616189D01*
X113540893Y-66616189D01*
X113610666Y-66651075D01*
G37*
G36*
X115380221Y-66654900D02*
G01*
X115416365Y-66691045D01*
X115455077Y-66768468D01*
X115455077Y-67030575D01*
X115416365Y-67107998D01*
X115380219Y-67144145D01*
X115302798Y-67182856D01*
X115135929Y-67182856D01*
X115078887Y-67154335D01*
X115078887Y-66644709D01*
X115135929Y-66616189D01*
X115302798Y-66616189D01*
X115380221Y-66654900D01*
G37*
G36*
X117502696Y-67182856D02*
G01*
X117183548Y-67182856D01*
X117106125Y-67144145D01*
X117069979Y-67107998D01*
X117031268Y-67030576D01*
X117031268Y-66911325D01*
X117069979Y-66833901D01*
X117103515Y-66800366D01*
X117227476Y-66759046D01*
X117502696Y-66759046D01*
X117502696Y-67182856D01*
G37*
G36*
X117502696Y-66659046D02*
G01*
X117231167Y-66659046D01*
X117153743Y-66620334D01*
X117117598Y-66584190D01*
X117078887Y-66506767D01*
X117078887Y-66435135D01*
X117117598Y-66357711D01*
X117153743Y-66321567D01*
X117231167Y-66282856D01*
X117502696Y-66282856D01*
X117502696Y-66659046D01*
G37*
G36*
X119999521Y-67727300D02*
G01*
X101629678Y-67727300D01*
X101629678Y-67042379D01*
X101740789Y-67042379D01*
X101740789Y-67089998D01*
X101741277Y-67092454D01*
X101740915Y-67093542D01*
X101743030Y-67101266D01*
X101744595Y-67109132D01*
X101745406Y-67109943D01*
X101746068Y-67112358D01*
X101793686Y-67207597D01*
X101799789Y-67215461D01*
X101800635Y-67217997D01*
X101803458Y-67220188D01*
X101805648Y-67223009D01*
X101808181Y-67223853D01*
X101816047Y-67229958D01*
X101911285Y-67277577D01*
X101913700Y-67278238D01*
X101914512Y-67279050D01*
X101922373Y-67280613D01*
X101930101Y-67282730D01*
X101931189Y-67282367D01*
X101933646Y-67282856D01*
X102124122Y-67282856D01*
X102126578Y-67282367D01*
X102127667Y-67282730D01*
X102135394Y-67280613D01*
X102143256Y-67279050D01*
X102144067Y-67278238D01*
X102146483Y-67277577D01*
X102241720Y-67229959D01*
X102257132Y-67217997D01*
X102269234Y-67181693D01*
X102252120Y-67147465D01*
X102215815Y-67135363D01*
X102196999Y-67140516D01*
X102112319Y-67182856D01*
X101945450Y-67182856D01*
X101875675Y-67147969D01*
X101840789Y-67078196D01*
X101840789Y-67054182D01*
X101875675Y-66984408D01*
X101945450Y-66949522D01*
X102076503Y-66949522D01*
X102078959Y-66949033D01*
X102080048Y-66949396D01*
X102087775Y-66947279D01*
X102095637Y-66945716D01*
X102096448Y-66944904D01*
X102098864Y-66944243D01*
X102194101Y-66896625D01*
X102201965Y-66890521D01*
X102204501Y-66889676D01*
X102206692Y-66886852D01*
X102209513Y-66884663D01*
X102210357Y-66882129D01*
X102216462Y-66874264D01*
X102264081Y-66779026D01*
X102264742Y-66776610D01*
X102265554Y-66775799D01*
X102267117Y-66767937D01*
X102269234Y-66760210D01*
X102268871Y-66759121D01*
X102269360Y-66756665D01*
X102269360Y-66709046D01*
X102268871Y-66706589D01*
X102269234Y-66705501D01*
X102267117Y-66697773D01*
X102265554Y-66689912D01*
X102264742Y-66689100D01*
X102264081Y-66686685D01*
X102216462Y-66591447D01*
X102210357Y-66583581D01*
X102209513Y-66581048D01*
X102206692Y-66578858D01*
X102204501Y-66576035D01*
X102201965Y-66575189D01*
X102194101Y-66569086D01*
X102150039Y-66547055D01*
X102458881Y-66547055D01*
X102458881Y-66585323D01*
X102485941Y-66612383D01*
X102505075Y-66616189D01*
X102693170Y-66616189D01*
X102693170Y-67078194D01*
X102658283Y-67147969D01*
X102588510Y-67182856D01*
X102505075Y-67182856D01*
X102485941Y-67186662D01*
X102458881Y-67213722D01*
X102458881Y-67251990D01*
X102485941Y-67279050D01*
X102505075Y-67282856D01*
X102600313Y-67282856D01*
X102602769Y-67282367D01*
X102603858Y-67282730D01*
X102611585Y-67280613D01*
X102619447Y-67279050D01*
X102620258Y-67278238D01*
X102622674Y-67277577D01*
X102717911Y-67229959D01*
X102725777Y-67223853D01*
X102728311Y-67223009D01*
X102730500Y-67220187D01*
X102733323Y-67217997D01*
X102734168Y-67215462D01*
X102740272Y-67207597D01*
X102787891Y-67112359D01*
X102788552Y-67109943D01*
X102789364Y-67109132D01*
X102790927Y-67101270D01*
X102793044Y-67093543D01*
X102792681Y-67092454D01*
X102793170Y-67089998D01*
X102793170Y-66709046D01*
X103169361Y-66709046D01*
X103169361Y-67232856D01*
X103173167Y-67251990D01*
X103200227Y-67279050D01*
X103238495Y-67279050D01*
X103265555Y-67251990D01*
X103269361Y-67232856D01*
X103269361Y-66720849D01*
X103304247Y-66651075D01*
X103374022Y-66616189D01*
X103493272Y-66616189D01*
X103570695Y-66654900D01*
X103597932Y-66682137D01*
X103597932Y-67232856D01*
X103601738Y-67251990D01*
X103628798Y-67279050D01*
X103667066Y-67279050D01*
X103694126Y-67251990D01*
X103697932Y-67232856D01*
X103697932Y-66566189D01*
X104074123Y-66566189D01*
X104074123Y-67375713D01*
X104074611Y-67378169D01*
X104074249Y-67379258D01*
X104076365Y-67386985D01*
X104077929Y-67394847D01*
X104078740Y-67395658D01*
X104079402Y-67398074D01*
X104127020Y-67493311D01*
X104131935Y-67499644D01*
X104136387Y-67506306D01*
X104184005Y-67553925D01*
X104190671Y-67558379D01*
X104197000Y-67563291D01*
X104292238Y-67610910D01*
X104294653Y-67611571D01*
X104295465Y-67612383D01*
X104303326Y-67613946D01*
X104311054Y-67616063D01*
X104312142Y-67615700D01*
X104314599Y-67616189D01*
X104457456Y-67616189D01*
X104459912Y-67615700D01*
X104461001Y-67616063D01*
X104468728Y-67613946D01*
X104476590Y-67612383D01*
X104477401Y-67611571D01*
X104479817Y-67610910D01*
X104575054Y-67563292D01*
X104590466Y-67551330D01*
X104602568Y-67515026D01*
X104585454Y-67480798D01*
X104549149Y-67468696D01*
X104530333Y-67473849D01*
X104445653Y-67516189D01*
X104326403Y-67516189D01*
X104248979Y-67477477D01*
X104212834Y-67441333D01*
X104174123Y-67363910D01*
X104174123Y-67266138D01*
X104197000Y-67277577D01*
X104199415Y-67278238D01*
X104200227Y-67279050D01*
X104208088Y-67280613D01*
X104215816Y-67282730D01*
X104216904Y-67282367D01*
X104219361Y-67282856D01*
X104409837Y-67282856D01*
X104412293Y-67282367D01*
X104413382Y-67282730D01*
X104421109Y-67280613D01*
X104428971Y-67279050D01*
X104429782Y-67278238D01*
X104432198Y-67277577D01*
X104527435Y-67229959D01*
X104533762Y-67225048D01*
X104540431Y-67220592D01*
X104588050Y-67172972D01*
X104592503Y-67166306D01*
X104597415Y-67159978D01*
X104645034Y-67064740D01*
X104645695Y-67062324D01*
X104646507Y-67061513D01*
X104648070Y-67053651D01*
X104650187Y-67045924D01*
X104649824Y-67044835D01*
X104650313Y-67042379D01*
X104650313Y-66756665D01*
X104649824Y-66754208D01*
X104650187Y-66753120D01*
X104648070Y-66745392D01*
X104646507Y-66737531D01*
X104645695Y-66736719D01*
X104645034Y-66734304D01*
X104597415Y-66639066D01*
X104592503Y-66632737D01*
X104588049Y-66626071D01*
X104540430Y-66578453D01*
X104533768Y-66574001D01*
X104527435Y-66569086D01*
X104521641Y-66566189D01*
X104978884Y-66566189D01*
X104978884Y-67232856D01*
X104982690Y-67251990D01*
X105009750Y-67279050D01*
X105048018Y-67279050D01*
X105075078Y-67251990D01*
X105078179Y-67236401D01*
X105359963Y-67236401D01*
X105377077Y-67270629D01*
X105413382Y-67282730D01*
X105432198Y-67277577D01*
X105527435Y-67229959D01*
X105535301Y-67223853D01*
X105537835Y-67223009D01*
X105540024Y-67220187D01*
X105542847Y-67217997D01*
X105543692Y-67215462D01*
X105549796Y-67207597D01*
X105597415Y-67112359D01*
X105598076Y-67109943D01*
X105598888Y-67109132D01*
X105600451Y-67101270D01*
X105602568Y-67093543D01*
X105602205Y-67092454D01*
X105602694Y-67089998D01*
X105602694Y-66563706D01*
X105883709Y-66563706D01*
X105886560Y-66583006D01*
X106124655Y-67249673D01*
X106125143Y-67250489D01*
X106125318Y-67251426D01*
X106220556Y-67489520D01*
X106220786Y-67489873D01*
X106220786Y-67490085D01*
X106226034Y-67497939D01*
X106231196Y-67505872D01*
X106231390Y-67505955D01*
X106231625Y-67506306D01*
X106279243Y-67553925D01*
X106285909Y-67558379D01*
X106292238Y-67563291D01*
X106387476Y-67610910D01*
X106406292Y-67616063D01*
X106442597Y-67603961D01*
X106459711Y-67569733D01*
X106447609Y-67533429D01*
X106432197Y-67521467D01*
X106344217Y-67477477D01*
X106309593Y-67442854D01*
X106225193Y-67231853D01*
X106456924Y-66583006D01*
X106459775Y-66563707D01*
X106451887Y-66547055D01*
X106601739Y-66547055D01*
X106601739Y-66585323D01*
X106628799Y-66612383D01*
X106647933Y-66616189D01*
X106731368Y-66616189D01*
X106808791Y-66654900D01*
X106844935Y-66691045D01*
X106883647Y-66768468D01*
X106883647Y-67232856D01*
X106887453Y-67251990D01*
X106914513Y-67279050D01*
X106952781Y-67279050D01*
X106979841Y-67251990D01*
X106983647Y-67232856D01*
X106983647Y-66566189D01*
X107359837Y-66566189D01*
X107359837Y-67232856D01*
X107363643Y-67251990D01*
X107390703Y-67279050D01*
X107428971Y-67279050D01*
X107456031Y-67251990D01*
X107459837Y-67232856D01*
X107459837Y-66709046D01*
X107836028Y-66709046D01*
X107836028Y-67232856D01*
X107839834Y-67251990D01*
X107866894Y-67279050D01*
X107905162Y-67279050D01*
X107924058Y-67260153D01*
X107958905Y-67277577D01*
X107961320Y-67278238D01*
X107962132Y-67279050D01*
X107969993Y-67280613D01*
X107977721Y-67282730D01*
X107978809Y-67282367D01*
X107981266Y-67282856D01*
X108219361Y-67282856D01*
X108221817Y-67282367D01*
X108222906Y-67282730D01*
X108230633Y-67280613D01*
X108238495Y-67279050D01*
X108239306Y-67278238D01*
X108241722Y-67277577D01*
X108336959Y-67229959D01*
X108344825Y-67223853D01*
X108347359Y-67223009D01*
X108349548Y-67220187D01*
X108352371Y-67217997D01*
X108353216Y-67215462D01*
X108359320Y-67207597D01*
X108406939Y-67112359D01*
X108407600Y-67109943D01*
X108408412Y-67109132D01*
X108409975Y-67101270D01*
X108412092Y-67093543D01*
X108411729Y-67092454D01*
X108412218Y-67089998D01*
X108412218Y-66994760D01*
X108411729Y-66992303D01*
X108412092Y-66991215D01*
X108409975Y-66983487D01*
X108408412Y-66975626D01*
X108407600Y-66974814D01*
X108406939Y-66972399D01*
X108359320Y-66877161D01*
X108353215Y-66869295D01*
X108352371Y-66866762D01*
X108349550Y-66864572D01*
X108347359Y-66861749D01*
X108344823Y-66860903D01*
X108336959Y-66854800D01*
X108241722Y-66807182D01*
X108239306Y-66806520D01*
X108238495Y-66805709D01*
X108230633Y-66804145D01*
X108222906Y-66802029D01*
X108221817Y-66802391D01*
X108219361Y-66801903D01*
X107993070Y-66801903D01*
X107936028Y-66773382D01*
X107936028Y-66720849D01*
X107970914Y-66651075D01*
X108040689Y-66616189D01*
X108207558Y-66616189D01*
X108292238Y-66658529D01*
X108311054Y-66663682D01*
X108347359Y-66651580D01*
X108364473Y-66617352D01*
X108352371Y-66581048D01*
X108336959Y-66569086D01*
X108241722Y-66521468D01*
X108239306Y-66520806D01*
X108238495Y-66519995D01*
X108230633Y-66518431D01*
X108222906Y-66516315D01*
X108221817Y-66516677D01*
X108219361Y-66516189D01*
X108028885Y-66516189D01*
X108026428Y-66516677D01*
X108025340Y-66516315D01*
X108017612Y-66518431D01*
X108009751Y-66519995D01*
X108008939Y-66520806D01*
X108006524Y-66521468D01*
X107911286Y-66569087D01*
X107903420Y-66575191D01*
X107900887Y-66576036D01*
X107898697Y-66578856D01*
X107895874Y-66581048D01*
X107895028Y-66583583D01*
X107888925Y-66591448D01*
X107841307Y-66686685D01*
X107840645Y-66689100D01*
X107839834Y-66689912D01*
X107838270Y-66697773D01*
X107836154Y-66705501D01*
X107836516Y-66706589D01*
X107836028Y-66709046D01*
X107459837Y-66709046D01*
X107459837Y-66566189D01*
X107456031Y-66547055D01*
X107428971Y-66519995D01*
X107390703Y-66519995D01*
X107363643Y-66547055D01*
X107359837Y-66566189D01*
X106983647Y-66566189D01*
X106979841Y-66547055D01*
X106952781Y-66519995D01*
X106914513Y-66519995D01*
X106887453Y-66547055D01*
X106883647Y-66566189D01*
X106883647Y-66588335D01*
X106873764Y-66578453D01*
X106867102Y-66574001D01*
X106860769Y-66569086D01*
X106765532Y-66521468D01*
X106763116Y-66520806D01*
X106762305Y-66519995D01*
X106754443Y-66518431D01*
X106746716Y-66516315D01*
X106745627Y-66516677D01*
X106743171Y-66516189D01*
X106647933Y-66516189D01*
X106628799Y-66519995D01*
X106601739Y-66547055D01*
X106451887Y-66547055D01*
X106443393Y-66529122D01*
X106407354Y-66516251D01*
X106372770Y-66532633D01*
X106362750Y-66549372D01*
X106171742Y-67084195D01*
X105980734Y-66549372D01*
X105970714Y-66532633D01*
X105936130Y-66516251D01*
X105900091Y-66529122D01*
X105883709Y-66563706D01*
X105602694Y-66563706D01*
X105602694Y-66261341D01*
X107316024Y-66261341D01*
X107316024Y-66299609D01*
X107326863Y-66315830D01*
X107374481Y-66363449D01*
X107390702Y-66374288D01*
X107390703Y-66374288D01*
X107428971Y-66374288D01*
X107445192Y-66363449D01*
X107492811Y-66315831D01*
X107503650Y-66299610D01*
X107503650Y-66261341D01*
X107503650Y-66261340D01*
X107492811Y-66245119D01*
X107461413Y-66213722D01*
X108649358Y-66213722D01*
X108649358Y-66251990D01*
X108676418Y-66279050D01*
X108695552Y-66282856D01*
X109121742Y-66282856D01*
X109121742Y-66659046D01*
X108838409Y-66659046D01*
X108819275Y-66662852D01*
X108792215Y-66689912D01*
X108792215Y-66728180D01*
X108819275Y-66755240D01*
X108838409Y-66759046D01*
X109121742Y-66759046D01*
X109121742Y-67232856D01*
X109125548Y-67251990D01*
X109152608Y-67279050D01*
X109190876Y-67279050D01*
X109217936Y-67251990D01*
X109221742Y-67232856D01*
X109221742Y-66547055D01*
X110220787Y-66547055D01*
X110220787Y-66585323D01*
X110247847Y-66612383D01*
X110266981Y-66616189D01*
X110350416Y-66616189D01*
X110427839Y-66654900D01*
X110463983Y-66691045D01*
X110502695Y-66768468D01*
X110502695Y-67232856D01*
X110506501Y-67251990D01*
X110533561Y-67279050D01*
X110571829Y-67279050D01*
X110598889Y-67251990D01*
X110602695Y-67232856D01*
X110602695Y-66756665D01*
X110931267Y-66756665D01*
X110931267Y-67042379D01*
X110931755Y-67044835D01*
X110931393Y-67045924D01*
X110933509Y-67053651D01*
X110935073Y-67061513D01*
X110935884Y-67062324D01*
X110936546Y-67064740D01*
X110984164Y-67159977D01*
X110989075Y-67166305D01*
X110993530Y-67172972D01*
X111041149Y-67220592D01*
X111047815Y-67225046D01*
X111054144Y-67229958D01*
X111149382Y-67277577D01*
X111151797Y-67278238D01*
X111152609Y-67279050D01*
X111160470Y-67280613D01*
X111168198Y-67282730D01*
X111169286Y-67282367D01*
X111171743Y-67282856D01*
X111314600Y-67282856D01*
X111317056Y-67282367D01*
X111318145Y-67282730D01*
X111325872Y-67280613D01*
X111333734Y-67279050D01*
X111334545Y-67278238D01*
X111336961Y-67277577D01*
X111432198Y-67229959D01*
X111438525Y-67225048D01*
X111445194Y-67220592D01*
X111492813Y-67172972D01*
X111497266Y-67166306D01*
X111502178Y-67159978D01*
X111549797Y-67064740D01*
X111550458Y-67062324D01*
X111551270Y-67061513D01*
X111552833Y-67053651D01*
X111554950Y-67045924D01*
X111554587Y-67044835D01*
X111555076Y-67042379D01*
X111555076Y-66756665D01*
X111554587Y-66754208D01*
X111554950Y-66753120D01*
X111552833Y-66745392D01*
X111551270Y-66737531D01*
X111550458Y-66736719D01*
X111549797Y-66734304D01*
X111502178Y-66639066D01*
X111497266Y-66632737D01*
X111492812Y-66626071D01*
X111445193Y-66578453D01*
X111438531Y-66574001D01*
X111432198Y-66569086D01*
X111336961Y-66521468D01*
X111334545Y-66520806D01*
X111333734Y-66519995D01*
X111325872Y-66518431D01*
X111318145Y-66516315D01*
X111317056Y-66516677D01*
X111314600Y-66516189D01*
X111171743Y-66516189D01*
X111169286Y-66516677D01*
X111168198Y-66516315D01*
X111160470Y-66518431D01*
X111152609Y-66519995D01*
X111151797Y-66520806D01*
X111149382Y-66521468D01*
X111054144Y-66569087D01*
X111047815Y-66573998D01*
X111041149Y-66578453D01*
X110993531Y-66626072D01*
X110989079Y-66632733D01*
X110984164Y-66639067D01*
X110936546Y-66734304D01*
X110935884Y-66736719D01*
X110935073Y-66737531D01*
X110933509Y-66745392D01*
X110931393Y-66753120D01*
X110931755Y-66754208D01*
X110931267Y-66756665D01*
X110602695Y-66756665D01*
X110602695Y-66566189D01*
X110598889Y-66547055D01*
X110571829Y-66519995D01*
X110533561Y-66519995D01*
X110506501Y-66547055D01*
X110502695Y-66566189D01*
X110502695Y-66588335D01*
X110492812Y-66578453D01*
X110486150Y-66574001D01*
X110479817Y-66569086D01*
X110384580Y-66521468D01*
X110382164Y-66520806D01*
X110381353Y-66519995D01*
X110373491Y-66518431D01*
X110365764Y-66516315D01*
X110364675Y-66516677D01*
X110362219Y-66516189D01*
X110266981Y-66516189D01*
X110247847Y-66519995D01*
X110220787Y-66547055D01*
X109221742Y-66547055D01*
X109221742Y-66232856D01*
X109217936Y-66213722D01*
X111744597Y-66213722D01*
X111744597Y-66251990D01*
X111771657Y-66279050D01*
X111790791Y-66282856D01*
X111874226Y-66282856D01*
X111943999Y-66317742D01*
X111978886Y-66387516D01*
X111978886Y-66516189D01*
X111790791Y-66516189D01*
X111771657Y-66519995D01*
X111744597Y-66547055D01*
X111744597Y-66585323D01*
X111771657Y-66612383D01*
X111790791Y-66616189D01*
X111978886Y-66616189D01*
X111978886Y-67232856D01*
X111982692Y-67251990D01*
X112009752Y-67279050D01*
X112048020Y-67279050D01*
X112075080Y-67251990D01*
X112078886Y-67232856D01*
X112078886Y-66709046D01*
X113169363Y-66709046D01*
X113169363Y-66804284D01*
X113170804Y-66811532D01*
X113170314Y-66813987D01*
X113171709Y-66816080D01*
X113173169Y-66823418D01*
X113183465Y-66833714D01*
X113191541Y-66845828D01*
X113198449Y-66848698D01*
X113200229Y-66850478D01*
X113202733Y-66850478D01*
X113209557Y-66853313D01*
X113645553Y-66940512D01*
X113645553Y-67078194D01*
X113610666Y-67147969D01*
X113540893Y-67182856D01*
X113374024Y-67182856D01*
X113289343Y-67140516D01*
X113270527Y-67135363D01*
X113234222Y-67147464D01*
X113217108Y-67181692D01*
X113229209Y-67217997D01*
X113244621Y-67229958D01*
X113339859Y-67277577D01*
X113342274Y-67278238D01*
X113343086Y-67279050D01*
X113350947Y-67280613D01*
X113358675Y-67282730D01*
X113359763Y-67282367D01*
X113362220Y-67282856D01*
X113552696Y-67282856D01*
X113555152Y-67282367D01*
X113556241Y-67282730D01*
X113563968Y-67280613D01*
X113571830Y-67279050D01*
X113572641Y-67278238D01*
X113575057Y-67277577D01*
X113670294Y-67229959D01*
X113678160Y-67223853D01*
X113680694Y-67223009D01*
X113682883Y-67220187D01*
X113685706Y-67217997D01*
X113686551Y-67215462D01*
X113692655Y-67207597D01*
X113740274Y-67112359D01*
X113740935Y-67109943D01*
X113741747Y-67109132D01*
X113743310Y-67101270D01*
X113745427Y-67093543D01*
X113745064Y-67092454D01*
X113745553Y-67089998D01*
X113745553Y-66709046D01*
X113745064Y-66706589D01*
X113745427Y-66705501D01*
X113743310Y-66697773D01*
X113741747Y-66689912D01*
X113740935Y-66689100D01*
X113740274Y-66686685D01*
X113692655Y-66591447D01*
X113686550Y-66583581D01*
X113685706Y-66581048D01*
X113682885Y-66578858D01*
X113680694Y-66576035D01*
X113678158Y-66575189D01*
X113670294Y-66569086D01*
X113664500Y-66566189D01*
X114074125Y-66566189D01*
X114074125Y-67375713D01*
X114074613Y-67378169D01*
X114074251Y-67379258D01*
X114076367Y-67386985D01*
X114077931Y-67394847D01*
X114078742Y-67395658D01*
X114079404Y-67398074D01*
X114127022Y-67493311D01*
X114131937Y-67499644D01*
X114136389Y-67506306D01*
X114184007Y-67553925D01*
X114190673Y-67558379D01*
X114197002Y-67563291D01*
X114292240Y-67610910D01*
X114294655Y-67611571D01*
X114295467Y-67612383D01*
X114303328Y-67613946D01*
X114311056Y-67616063D01*
X114312144Y-67615700D01*
X114314601Y-67616189D01*
X114457458Y-67616189D01*
X114459914Y-67615700D01*
X114461003Y-67616063D01*
X114468730Y-67613946D01*
X114476592Y-67612383D01*
X114477403Y-67611571D01*
X114479819Y-67610910D01*
X114575056Y-67563292D01*
X114590468Y-67551330D01*
X114602570Y-67515026D01*
X114585456Y-67480798D01*
X114549151Y-67468696D01*
X114530335Y-67473849D01*
X114445655Y-67516189D01*
X114326405Y-67516189D01*
X114248981Y-67477477D01*
X114212836Y-67441333D01*
X114174125Y-67363910D01*
X114174125Y-67266138D01*
X114197002Y-67277577D01*
X114199417Y-67278238D01*
X114200229Y-67279050D01*
X114208090Y-67280613D01*
X114215818Y-67282730D01*
X114216906Y-67282367D01*
X114219363Y-67282856D01*
X114409839Y-67282856D01*
X114412295Y-67282367D01*
X114413384Y-67282730D01*
X114421111Y-67280613D01*
X114428973Y-67279050D01*
X114429784Y-67278238D01*
X114432200Y-67277577D01*
X114527437Y-67229959D01*
X114533764Y-67225048D01*
X114540433Y-67220592D01*
X114588052Y-67172972D01*
X114592505Y-67166306D01*
X114597417Y-67159978D01*
X114645036Y-67064740D01*
X114645697Y-67062324D01*
X114646509Y-67061513D01*
X114648072Y-67053651D01*
X114650189Y-67045924D01*
X114649826Y-67044835D01*
X114650315Y-67042379D01*
X114650315Y-66756665D01*
X114649826Y-66754208D01*
X114650189Y-66753120D01*
X114648072Y-66745392D01*
X114646509Y-66737531D01*
X114645697Y-66736719D01*
X114645036Y-66734304D01*
X114597417Y-66639066D01*
X114592505Y-66632737D01*
X114588051Y-66626071D01*
X114540432Y-66578453D01*
X114533770Y-66574001D01*
X114527437Y-66569086D01*
X114432200Y-66521468D01*
X114429784Y-66520806D01*
X114428973Y-66519995D01*
X114421111Y-66518431D01*
X114413384Y-66516315D01*
X114412295Y-66516677D01*
X114409839Y-66516189D01*
X114219363Y-66516189D01*
X114216906Y-66516677D01*
X114215818Y-66516315D01*
X114208090Y-66518431D01*
X114200229Y-66519995D01*
X114199417Y-66520806D01*
X114197002Y-66521468D01*
X114162155Y-66538891D01*
X114143259Y-66519995D01*
X114104991Y-66519995D01*
X114077931Y-66547055D01*
X114074125Y-66566189D01*
X113664500Y-66566189D01*
X113575057Y-66521468D01*
X113572641Y-66520806D01*
X113571830Y-66519995D01*
X113563968Y-66518431D01*
X113556241Y-66516315D01*
X113555152Y-66516677D01*
X113552696Y-66516189D01*
X113362220Y-66516189D01*
X113359763Y-66516677D01*
X113358675Y-66516315D01*
X113350947Y-66518431D01*
X113343086Y-66519995D01*
X113342274Y-66520806D01*
X113339859Y-66521468D01*
X113244621Y-66569087D01*
X113236755Y-66575191D01*
X113234222Y-66576036D01*
X113232032Y-66578856D01*
X113229209Y-66581048D01*
X113228363Y-66583583D01*
X113222260Y-66591448D01*
X113174642Y-66686685D01*
X113173980Y-66689100D01*
X113173169Y-66689912D01*
X113171605Y-66697773D01*
X113169489Y-66705501D01*
X113169851Y-66706589D01*
X113169363Y-66709046D01*
X112078886Y-66709046D01*
X112078886Y-66616189D01*
X112171743Y-66616189D01*
X112190877Y-66612383D01*
X112217937Y-66585323D01*
X112217937Y-66547055D01*
X112190877Y-66519995D01*
X112171743Y-66516189D01*
X112078886Y-66516189D01*
X112078886Y-66375713D01*
X112078397Y-66373256D01*
X112078760Y-66372168D01*
X112076643Y-66364440D01*
X112075080Y-66356579D01*
X112074268Y-66355767D01*
X112073607Y-66353352D01*
X112025988Y-66258114D01*
X112019883Y-66250248D01*
X112019039Y-66247715D01*
X112016218Y-66245525D01*
X112014027Y-66242702D01*
X112011491Y-66241856D01*
X112003627Y-66235753D01*
X111997833Y-66232856D01*
X114978887Y-66232856D01*
X114978887Y-67232856D01*
X114982693Y-67251990D01*
X115009753Y-67279050D01*
X115048021Y-67279050D01*
X115066917Y-67260153D01*
X115101764Y-67277577D01*
X115104179Y-67278238D01*
X115104991Y-67279050D01*
X115112852Y-67280613D01*
X115120580Y-67282730D01*
X115121668Y-67282367D01*
X115124125Y-67282856D01*
X115314601Y-67282856D01*
X115317057Y-67282367D01*
X115318146Y-67282730D01*
X115325873Y-67280613D01*
X115333735Y-67279050D01*
X115334546Y-67278238D01*
X115336962Y-67277577D01*
X115432199Y-67229959D01*
X115438526Y-67225048D01*
X115445195Y-67220592D01*
X115492814Y-67172972D01*
X115497267Y-67166306D01*
X115502179Y-67159978D01*
X115549798Y-67064740D01*
X115550459Y-67062324D01*
X115551271Y-67061513D01*
X115552834Y-67053651D01*
X115554951Y-67045924D01*
X115554588Y-67044835D01*
X115555077Y-67042379D01*
X115555077Y-66756665D01*
X115554588Y-66754208D01*
X115554951Y-66753120D01*
X115552834Y-66745392D01*
X115551271Y-66737531D01*
X115550459Y-66736719D01*
X115549798Y-66734304D01*
X115502179Y-66639066D01*
X115497267Y-66632737D01*
X115492813Y-66626071D01*
X115445194Y-66578453D01*
X115438532Y-66574001D01*
X115432199Y-66569086D01*
X115426405Y-66566189D01*
X115883648Y-66566189D01*
X115883648Y-67232856D01*
X115887454Y-67251990D01*
X115914514Y-67279050D01*
X115952782Y-67279050D01*
X115979842Y-67251990D01*
X115983648Y-67232856D01*
X115983648Y-66566189D01*
X115979842Y-66547055D01*
X116220788Y-66547055D01*
X116220788Y-66585323D01*
X116247848Y-66612383D01*
X116266982Y-66616189D01*
X116350417Y-66616189D01*
X116427840Y-66654900D01*
X116463984Y-66691045D01*
X116502696Y-66768468D01*
X116502696Y-67232856D01*
X116506502Y-67251990D01*
X116533562Y-67279050D01*
X116571830Y-67279050D01*
X116598890Y-67251990D01*
X116602696Y-67232856D01*
X116602696Y-66899522D01*
X116931268Y-66899522D01*
X116931268Y-67042379D01*
X116931756Y-67044835D01*
X116931394Y-67045924D01*
X116933510Y-67053651D01*
X116935074Y-67061513D01*
X116935885Y-67062324D01*
X116936547Y-67064740D01*
X116984165Y-67159977D01*
X116989076Y-67166305D01*
X116993531Y-67172972D01*
X117041150Y-67220592D01*
X117047816Y-67225046D01*
X117054145Y-67229958D01*
X117149383Y-67277577D01*
X117151798Y-67278238D01*
X117152610Y-67279050D01*
X117160471Y-67280613D01*
X117168199Y-67282730D01*
X117169287Y-67282367D01*
X117171744Y-67282856D01*
X117552696Y-67282856D01*
X117571830Y-67279050D01*
X117598890Y-67251990D01*
X117602696Y-67232856D01*
X117602696Y-66832769D01*
X117982693Y-66832769D01*
X117982693Y-66871037D01*
X118009753Y-66898097D01*
X118028887Y-66901903D01*
X118790791Y-66901903D01*
X118809925Y-66898097D01*
X118836985Y-66871037D01*
X118836985Y-66832769D01*
X118809925Y-66805709D01*
X118790791Y-66801903D01*
X118028887Y-66801903D01*
X118009753Y-66805709D01*
X117982693Y-66832769D01*
X117602696Y-66832769D01*
X117602696Y-66232856D01*
X119216982Y-66232856D01*
X119216982Y-67232856D01*
X119220788Y-67251990D01*
X119247848Y-67279050D01*
X119286116Y-67279050D01*
X119313176Y-67251990D01*
X119316982Y-67232856D01*
X119316982Y-66759046D01*
X119788410Y-66759046D01*
X119788410Y-67232856D01*
X119792216Y-67251990D01*
X119819276Y-67279050D01*
X119857544Y-67279050D01*
X119884604Y-67251990D01*
X119888410Y-67232856D01*
X119888410Y-66232856D01*
X119884604Y-66213722D01*
X119857544Y-66186662D01*
X119819276Y-66186662D01*
X119792216Y-66213722D01*
X119788410Y-66232856D01*
X119788410Y-66659046D01*
X119316982Y-66659046D01*
X119316982Y-66232856D01*
X119313176Y-66213722D01*
X119286116Y-66186662D01*
X119247848Y-66186662D01*
X119220788Y-66213722D01*
X119216982Y-66232856D01*
X117602696Y-66232856D01*
X117598890Y-66213722D01*
X117571830Y-66186662D01*
X117552696Y-66182856D01*
X117219363Y-66182856D01*
X117216906Y-66183344D01*
X117215818Y-66182982D01*
X117208090Y-66185098D01*
X117200229Y-66186662D01*
X117199417Y-66187473D01*
X117197002Y-66188135D01*
X117101764Y-66235754D01*
X117095435Y-66240665D01*
X117088769Y-66245120D01*
X117041151Y-66292739D01*
X117036699Y-66299400D01*
X117031784Y-66305734D01*
X116984166Y-66400971D01*
X116983504Y-66403386D01*
X116982693Y-66404198D01*
X116981129Y-66412059D01*
X116979013Y-66419787D01*
X116979375Y-66420875D01*
X116978887Y-66423332D01*
X116978887Y-66518570D01*
X116979375Y-66521026D01*
X116979013Y-66522115D01*
X116981129Y-66529842D01*
X116982693Y-66537704D01*
X116983504Y-66538515D01*
X116984166Y-66540931D01*
X117031784Y-66636168D01*
X117036699Y-66642501D01*
X117041151Y-66649163D01*
X117088769Y-66696782D01*
X117091855Y-66698844D01*
X117060695Y-66709231D01*
X117058520Y-66710471D01*
X117057371Y-66710471D01*
X117050704Y-66714925D01*
X117043746Y-66718892D01*
X117043232Y-66719918D01*
X117041150Y-66721310D01*
X116993532Y-66768929D01*
X116989080Y-66775590D01*
X116984165Y-66781924D01*
X116936547Y-66877161D01*
X116935885Y-66879576D01*
X116935074Y-66880388D01*
X116933510Y-66888249D01*
X116931394Y-66895977D01*
X116931756Y-66897065D01*
X116931268Y-66899522D01*
X116602696Y-66899522D01*
X116602696Y-66566189D01*
X116598890Y-66547055D01*
X116571830Y-66519995D01*
X116533562Y-66519995D01*
X116506502Y-66547055D01*
X116502696Y-66566189D01*
X116502696Y-66588335D01*
X116492813Y-66578453D01*
X116486151Y-66574001D01*
X116479818Y-66569086D01*
X116384581Y-66521468D01*
X116382165Y-66520806D01*
X116381354Y-66519995D01*
X116373492Y-66518431D01*
X116365765Y-66516315D01*
X116364676Y-66516677D01*
X116362220Y-66516189D01*
X116266982Y-66516189D01*
X116247848Y-66519995D01*
X116220788Y-66547055D01*
X115979842Y-66547055D01*
X115952782Y-66519995D01*
X115914514Y-66519995D01*
X115887454Y-66547055D01*
X115883648Y-66566189D01*
X115426405Y-66566189D01*
X115336962Y-66521468D01*
X115334546Y-66520806D01*
X115333735Y-66519995D01*
X115325873Y-66518431D01*
X115318146Y-66516315D01*
X115317057Y-66516677D01*
X115314601Y-66516189D01*
X115124125Y-66516189D01*
X115121668Y-66516677D01*
X115120580Y-66516315D01*
X115112852Y-66518431D01*
X115104991Y-66519995D01*
X115104179Y-66520806D01*
X115101764Y-66521468D01*
X115078887Y-66532906D01*
X115078887Y-66261341D01*
X115839835Y-66261341D01*
X115839835Y-66299609D01*
X115850674Y-66315830D01*
X115898292Y-66363449D01*
X115914513Y-66374288D01*
X115914514Y-66374288D01*
X115952782Y-66374288D01*
X115969003Y-66363449D01*
X116016622Y-66315831D01*
X116027461Y-66299610D01*
X116027461Y-66261341D01*
X116027461Y-66261340D01*
X116016622Y-66245119D01*
X115969003Y-66197501D01*
X115952782Y-66186662D01*
X115914513Y-66186662D01*
X115898292Y-66197501D01*
X115850674Y-66245120D01*
X115839836Y-66261340D01*
X115839835Y-66261341D01*
X115078887Y-66261341D01*
X115078887Y-66232856D01*
X115075081Y-66213722D01*
X115048021Y-66186662D01*
X115009753Y-66186662D01*
X114982693Y-66213722D01*
X114978887Y-66232856D01*
X111997833Y-66232856D01*
X111908390Y-66188135D01*
X111905974Y-66187473D01*
X111905163Y-66186662D01*
X111897301Y-66185098D01*
X111889574Y-66182982D01*
X111888485Y-66183344D01*
X111886029Y-66182856D01*
X111790791Y-66182856D01*
X111771657Y-66186662D01*
X111744597Y-66213722D01*
X109217936Y-66213722D01*
X109190876Y-66186662D01*
X109171742Y-66182856D01*
X108695552Y-66182856D01*
X108676418Y-66186662D01*
X108649358Y-66213722D01*
X107461413Y-66213722D01*
X107445192Y-66197501D01*
X107428971Y-66186662D01*
X107390702Y-66186662D01*
X107374481Y-66197501D01*
X107326863Y-66245120D01*
X107316025Y-66261340D01*
X107316024Y-66261341D01*
X105602694Y-66261341D01*
X105602694Y-66232856D01*
X105598888Y-66213722D01*
X105571828Y-66186662D01*
X105533560Y-66186662D01*
X105506500Y-66213722D01*
X105502694Y-66232856D01*
X105502694Y-67078194D01*
X105467807Y-67147969D01*
X105387476Y-67188135D01*
X105372064Y-67200096D01*
X105359963Y-67236401D01*
X105078179Y-67236401D01*
X105078884Y-67232856D01*
X105078884Y-66566189D01*
X105075078Y-66547055D01*
X105048018Y-66519995D01*
X105009750Y-66519995D01*
X104982690Y-66547055D01*
X104978884Y-66566189D01*
X104521641Y-66566189D01*
X104432198Y-66521468D01*
X104429782Y-66520806D01*
X104428971Y-66519995D01*
X104421109Y-66518431D01*
X104413382Y-66516315D01*
X104412293Y-66516677D01*
X104409837Y-66516189D01*
X104219361Y-66516189D01*
X104216904Y-66516677D01*
X104215816Y-66516315D01*
X104208088Y-66518431D01*
X104200227Y-66519995D01*
X104199415Y-66520806D01*
X104197000Y-66521468D01*
X104162153Y-66538891D01*
X104143257Y-66519995D01*
X104104989Y-66519995D01*
X104077929Y-66547055D01*
X104074123Y-66566189D01*
X103697932Y-66566189D01*
X103697932Y-66261341D01*
X104935071Y-66261341D01*
X104935071Y-66299609D01*
X104945910Y-66315830D01*
X104993528Y-66363449D01*
X105009749Y-66374288D01*
X105009750Y-66374288D01*
X105048018Y-66374288D01*
X105064239Y-66363449D01*
X105111858Y-66315831D01*
X105122697Y-66299610D01*
X105122697Y-66261341D01*
X105122697Y-66261340D01*
X105111858Y-66245119D01*
X105064239Y-66197501D01*
X105048018Y-66186662D01*
X105009749Y-66186662D01*
X104993528Y-66197501D01*
X104945910Y-66245120D01*
X104935072Y-66261340D01*
X104935071Y-66261341D01*
X103697932Y-66261341D01*
X103697932Y-66232856D01*
X103694126Y-66213722D01*
X103667066Y-66186662D01*
X103628798Y-66186662D01*
X103601738Y-66213722D01*
X103597932Y-66232856D01*
X103597932Y-66556715D01*
X103527436Y-66521468D01*
X103525020Y-66520806D01*
X103524209Y-66519995D01*
X103516347Y-66518431D01*
X103508620Y-66516315D01*
X103507531Y-66516677D01*
X103505075Y-66516189D01*
X103362218Y-66516189D01*
X103359761Y-66516677D01*
X103358673Y-66516315D01*
X103350945Y-66518431D01*
X103343084Y-66519995D01*
X103342272Y-66520806D01*
X103339857Y-66521468D01*
X103244619Y-66569087D01*
X103236753Y-66575191D01*
X103234220Y-66576036D01*
X103232030Y-66578856D01*
X103229207Y-66581048D01*
X103228361Y-66583583D01*
X103222258Y-66591448D01*
X103174640Y-66686685D01*
X103173978Y-66689100D01*
X103173167Y-66689912D01*
X103171603Y-66697773D01*
X103169487Y-66705501D01*
X103169849Y-66706589D01*
X103169361Y-66709046D01*
X102793170Y-66709046D01*
X102793170Y-66616189D01*
X102886027Y-66616189D01*
X102905161Y-66612383D01*
X102932221Y-66585323D01*
X102932221Y-66547055D01*
X102905161Y-66519995D01*
X102886027Y-66516189D01*
X102793170Y-66516189D01*
X102793170Y-66232856D01*
X102789364Y-66213722D01*
X102762304Y-66186662D01*
X102724036Y-66186662D01*
X102696976Y-66213722D01*
X102693170Y-66232856D01*
X102693170Y-66516189D01*
X102505075Y-66516189D01*
X102485941Y-66519995D01*
X102458881Y-66547055D01*
X102150039Y-66547055D01*
X102098864Y-66521468D01*
X102096448Y-66520806D01*
X102095637Y-66519995D01*
X102087775Y-66518431D01*
X102080048Y-66516315D01*
X102078959Y-66516677D01*
X102076503Y-66516189D01*
X101933646Y-66516189D01*
X101931189Y-66516677D01*
X101930101Y-66516315D01*
X101922373Y-66518431D01*
X101914512Y-66519995D01*
X101913700Y-66520806D01*
X101911285Y-66521468D01*
X101816047Y-66569087D01*
X101800635Y-66581048D01*
X101788534Y-66617353D01*
X101805648Y-66651581D01*
X101841953Y-66663682D01*
X101860769Y-66658529D01*
X101945450Y-66616189D01*
X102064700Y-66616189D01*
X102134473Y-66651075D01*
X102169360Y-66720849D01*
X102169360Y-66744861D01*
X102134473Y-66814635D01*
X102064700Y-66849522D01*
X101933646Y-66849522D01*
X101931189Y-66850010D01*
X101930101Y-66849648D01*
X101922373Y-66851764D01*
X101914512Y-66853328D01*
X101913700Y-66854139D01*
X101911285Y-66854801D01*
X101816047Y-66902420D01*
X101808181Y-66908524D01*
X101805648Y-66909369D01*
X101803458Y-66912189D01*
X101800635Y-66914381D01*
X101799789Y-66916916D01*
X101793686Y-66924781D01*
X101746068Y-67020018D01*
X101745406Y-67022433D01*
X101744595Y-67023245D01*
X101743031Y-67031106D01*
X101740915Y-67038834D01*
X101741277Y-67039922D01*
X101740789Y-67042379D01*
X101629678Y-67042379D01*
X101629678Y-66071745D01*
X119999521Y-66071745D01*
X119999521Y-67727300D01*
G37*
D10*
G36*
X114115964Y-52582938D02*
G01*
X114171167Y-52593581D01*
X114220377Y-52612308D01*
X114263336Y-52640945D01*
X114298413Y-52681551D01*
X114314614Y-52713780D01*
X114325190Y-52754995D01*
X114329065Y-52807458D01*
X114326989Y-52859237D01*
X114323509Y-52896973D01*
X113670281Y-52896973D01*
X113668205Y-52880242D01*
X113666801Y-52857161D01*
X113665397Y-52834080D01*
X113664725Y-52815884D01*
X113668496Y-52762411D01*
X113678819Y-52719996D01*
X113694645Y-52686497D01*
X113729544Y-52644122D01*
X113773352Y-52614445D01*
X113824346Y-52595091D01*
X113883383Y-52583670D01*
X114005932Y-52576648D01*
X114115964Y-52582938D01*
G37*
G36*
X114115964Y-51743719D02*
G01*
X114171167Y-51754363D01*
X114220377Y-51773089D01*
X114263336Y-51801727D01*
X114298413Y-51842332D01*
X114314614Y-51874562D01*
X114325190Y-51915777D01*
X114329065Y-51968240D01*
X114326989Y-52020019D01*
X114323509Y-52057755D01*
X113670281Y-52057755D01*
X113668205Y-52041024D01*
X113666801Y-52017943D01*
X113665397Y-51994862D01*
X113664725Y-51976666D01*
X113668496Y-51923193D01*
X113678819Y-51880778D01*
X113694645Y-51847278D01*
X113729544Y-51804904D01*
X113773352Y-51775227D01*
X113824346Y-51755873D01*
X113883383Y-51744452D01*
X114005932Y-51737430D01*
X114115964Y-51743719D01*
G37*
G36*
X114612123Y-54096369D02*
G01*
X113381667Y-54096369D01*
X113381667Y-53464838D01*
X113508410Y-53464838D01*
X113508410Y-53683069D01*
X114489289Y-53985258D01*
X114489289Y-53771179D01*
X113770055Y-53569740D01*
X113770055Y-53562718D01*
X114489289Y-53369705D01*
X114489289Y-53171013D01*
X113508410Y-53464838D01*
X113381667Y-53464838D01*
X113381667Y-52838233D01*
X113492778Y-52838233D01*
X113494182Y-52895630D01*
X113497724Y-52966949D01*
X113501876Y-53036924D01*
X113506761Y-53088643D01*
X114487030Y-53088643D01*
X114491182Y-53044618D01*
X114496067Y-52973238D01*
X114499608Y-52890745D01*
X114501012Y-52814480D01*
X114496297Y-52728155D01*
X114483259Y-52657175D01*
X114463216Y-52599058D01*
X114434176Y-52545045D01*
X114399497Y-52500415D01*
X114359046Y-52464052D01*
X114312936Y-52434685D01*
X114260999Y-52411544D01*
X114202426Y-52394749D01*
X114109980Y-52380225D01*
X114005993Y-52375148D01*
X113910308Y-52380074D01*
X113817194Y-52394749D01*
X113757235Y-52411555D01*
X113702675Y-52435108D01*
X113652879Y-52465396D01*
X113608786Y-52502967D01*
X113570139Y-52549663D01*
X113536803Y-52606690D01*
X113513480Y-52668453D01*
X113498289Y-52744644D01*
X113494094Y-52815884D01*
X113492778Y-52838233D01*
X113381667Y-52838233D01*
X113381667Y-51999014D01*
X113492778Y-51999014D01*
X113494182Y-52056411D01*
X113497724Y-52127730D01*
X113501876Y-52197706D01*
X113506761Y-52249424D01*
X114487030Y-52249424D01*
X114491182Y-52205399D01*
X114496067Y-52134019D01*
X114499608Y-52051526D01*
X114501012Y-51975261D01*
X114496297Y-51888937D01*
X114483259Y-51817956D01*
X114463216Y-51759839D01*
X114434176Y-51705827D01*
X114399497Y-51661197D01*
X114359046Y-51624834D01*
X114312936Y-51595467D01*
X114260999Y-51572325D01*
X114202426Y-51555530D01*
X114109980Y-51541007D01*
X114005993Y-51535930D01*
X113910308Y-51540856D01*
X113817194Y-51555530D01*
X113757235Y-51572337D01*
X113702675Y-51595890D01*
X113652879Y-51626177D01*
X113608786Y-51663749D01*
X113570139Y-51710445D01*
X113536803Y-51767472D01*
X113513480Y-51829235D01*
X113498289Y-51905425D01*
X113494094Y-51976666D01*
X113492778Y-51999014D01*
X113381667Y-51999014D01*
X113381667Y-51424819D01*
X114612123Y-51424819D01*
X114612123Y-54096369D01*
G37*
G36*
X110344942Y-53468096D02*
G01*
X110376565Y-53481228D01*
X110402236Y-53502634D01*
X110420749Y-53530783D01*
X110432781Y-53568100D01*
X110437223Y-53617306D01*
X110435819Y-53675375D01*
X110430385Y-53719461D01*
X110151948Y-53719461D01*
X110151948Y-53643868D01*
X110156296Y-53591764D01*
X110168441Y-53549011D01*
X110187607Y-53513808D01*
X110215105Y-53486795D01*
X110253202Y-53469731D01*
X110305577Y-53463433D01*
X110344942Y-53468096D01*
G37*
G36*
X110724189Y-54022180D02*
G01*
X109188918Y-54022180D01*
X109188918Y-53407440D01*
X109616568Y-53407440D01*
X109999540Y-53604728D01*
X109999540Y-53643868D01*
X109999540Y-53719461D01*
X109616568Y-53719461D01*
X109616568Y-53911069D01*
X110585418Y-53911069D01*
X110595859Y-53841826D01*
X110603553Y-53767699D01*
X110607766Y-53695647D01*
X110609170Y-53631289D01*
X110605848Y-53563154D01*
X110595920Y-53496284D01*
X110577684Y-53432643D01*
X110550552Y-53377399D01*
X110513020Y-53330262D01*
X110464090Y-53293440D01*
X110426567Y-53276505D01*
X110381954Y-53265760D01*
X110328780Y-53261933D01*
X110270890Y-53265130D01*
X110224793Y-53273840D01*
X110182812Y-53288308D01*
X110147368Y-53306751D01*
X110116103Y-53330041D01*
X110089483Y-53357798D01*
X110045580Y-53422828D01*
X109616568Y-53186401D01*
X109616568Y-53407440D01*
X109188918Y-53407440D01*
X109188918Y-53049503D01*
X109300029Y-53049503D01*
X109452436Y-53049503D01*
X109452436Y-52428332D01*
X109300029Y-52428332D01*
X109300029Y-53049503D01*
X109188918Y-53049503D01*
X109188918Y-52236846D01*
X109616568Y-52236846D01*
X109768975Y-52236846D01*
X109768975Y-51990649D01*
X110163671Y-51990649D01*
X110163671Y-52236846D01*
X110316079Y-52236846D01*
X110316079Y-51902477D01*
X110405960Y-51902477D01*
X110409508Y-51939719D01*
X110419290Y-51968998D01*
X110434659Y-51992053D01*
X110455580Y-52009933D01*
X110479716Y-52020562D01*
X110508115Y-52024232D01*
X110535699Y-52020644D01*
X110560139Y-52010079D01*
X110582304Y-51992053D01*
X110598869Y-51968837D01*
X110609311Y-51939554D01*
X110613078Y-51902477D01*
X110609346Y-51864443D01*
X110598919Y-51833717D01*
X110582304Y-51808749D01*
X110559937Y-51789016D01*
X110535509Y-51777606D01*
X110508115Y-51773761D01*
X110479918Y-51777691D01*
X110455787Y-51789167D01*
X110434659Y-51808749D01*
X110419236Y-51833562D01*
X110409472Y-51864289D01*
X110405960Y-51902477D01*
X110316079Y-51902477D01*
X110316079Y-51808749D01*
X109768975Y-51808749D01*
X109768975Y-51549913D01*
X109616568Y-51549913D01*
X109616568Y-52236846D01*
X109188918Y-52236846D01*
X109188918Y-50892594D01*
X109616568Y-50892594D01*
X110014317Y-50892594D01*
X110070023Y-50897656D01*
X110109729Y-50911011D01*
X110137537Y-50931062D01*
X110158420Y-50958693D01*
X110171017Y-50990665D01*
X110175395Y-51028271D01*
X110167886Y-51077725D01*
X110145292Y-51122732D01*
X110111052Y-51158944D01*
X110070371Y-51180801D01*
X109616568Y-51180801D01*
X109616568Y-51362639D01*
X110163671Y-51362639D01*
X110163671Y-51463390D01*
X110316079Y-51463390D01*
X110316079Y-51218536D01*
X110223694Y-51197592D01*
X110223694Y-51191975D01*
X110264549Y-51154104D01*
X110302035Y-51099651D01*
X110320230Y-51058303D01*
X110331616Y-51010679D01*
X110335618Y-50955548D01*
X110332049Y-50904848D01*
X110321636Y-50858339D01*
X110302977Y-50815963D01*
X110275474Y-50780670D01*
X110238910Y-50752634D01*
X110188035Y-50729623D01*
X110129241Y-50715845D01*
X110051625Y-50710694D01*
X109616568Y-50710694D01*
X109616568Y-50892594D01*
X109188918Y-50892594D01*
X109188918Y-50599583D01*
X110724189Y-50599583D01*
X110724189Y-54022180D01*
G37*
D12*
X110228885Y-60160132D02*
X110228885Y-59360132D01*
X110228885Y-59360132D02*
X110038409Y-59360132D01*
X110038409Y-59360132D02*
X109924123Y-59398227D01*
X109924123Y-59398227D02*
X109847933Y-59474417D01*
X109847933Y-59474417D02*
X109809838Y-59550608D01*
X109809838Y-59550608D02*
X109771742Y-59702989D01*
X109771742Y-59702989D02*
X109771742Y-59817275D01*
X109771742Y-59817275D02*
X109809838Y-59969656D01*
X109809838Y-59969656D02*
X109847933Y-60045846D01*
X109847933Y-60045846D02*
X109924123Y-60122037D01*
X109924123Y-60122037D02*
X110038409Y-60160132D01*
X110038409Y-60160132D02*
X110228885Y-60160132D01*
X109086028Y-59360132D02*
X109238409Y-59360132D01*
X109238409Y-59360132D02*
X109314600Y-59398227D01*
X109314600Y-59398227D02*
X109352695Y-59436322D01*
X109352695Y-59436322D02*
X109428885Y-59550608D01*
X109428885Y-59550608D02*
X109466981Y-59702989D01*
X109466981Y-59702989D02*
X109466981Y-60007751D01*
X109466981Y-60007751D02*
X109428885Y-60083941D01*
X109428885Y-60083941D02*
X109390790Y-60122037D01*
X109390790Y-60122037D02*
X109314600Y-60160132D01*
X109314600Y-60160132D02*
X109162219Y-60160132D01*
X109162219Y-60160132D02*
X109086028Y-60122037D01*
X109086028Y-60122037D02*
X109047933Y-60083941D01*
X109047933Y-60083941D02*
X109009838Y-60007751D01*
X109009838Y-60007751D02*
X109009838Y-59817275D01*
X109009838Y-59817275D02*
X109047933Y-59741084D01*
X109047933Y-59741084D02*
X109086028Y-59702989D01*
X109086028Y-59702989D02*
X109162219Y-59664894D01*
X109162219Y-59664894D02*
X109314600Y-59664894D01*
X109314600Y-59664894D02*
X109390790Y-59702989D01*
X109390790Y-59702989D02*
X109428885Y-59741084D01*
X109428885Y-59741084D02*
X109466981Y-59817275D01*
X116378149Y-52223048D02*
X116416245Y-52261144D01*
X116416245Y-52261144D02*
X116530530Y-52299239D01*
X116530530Y-52299239D02*
X116606721Y-52299239D01*
X116606721Y-52299239D02*
X116721007Y-52261144D01*
X116721007Y-52261144D02*
X116797197Y-52184953D01*
X116797197Y-52184953D02*
X116835292Y-52108763D01*
X116835292Y-52108763D02*
X116873388Y-51956382D01*
X116873388Y-51956382D02*
X116873388Y-51842096D01*
X116873388Y-51842096D02*
X116835292Y-51689715D01*
X116835292Y-51689715D02*
X116797197Y-51613524D01*
X116797197Y-51613524D02*
X116721007Y-51537334D01*
X116721007Y-51537334D02*
X116606721Y-51499239D01*
X116606721Y-51499239D02*
X116530530Y-51499239D01*
X116530530Y-51499239D02*
X116416245Y-51537334D01*
X116416245Y-51537334D02*
X116378149Y-51575429D01*
X115654340Y-51499239D02*
X116035292Y-51499239D01*
X116035292Y-51499239D02*
X116073388Y-51880191D01*
X116073388Y-51880191D02*
X116035292Y-51842096D01*
X116035292Y-51842096D02*
X115959102Y-51804001D01*
X115959102Y-51804001D02*
X115768626Y-51804001D01*
X115768626Y-51804001D02*
X115692435Y-51842096D01*
X115692435Y-51842096D02*
X115654340Y-51880191D01*
X115654340Y-51880191D02*
X115616245Y-51956382D01*
X115616245Y-51956382D02*
X115616245Y-52146858D01*
X115616245Y-52146858D02*
X115654340Y-52223048D01*
X115654340Y-52223048D02*
X115692435Y-52261144D01*
X115692435Y-52261144D02*
X115768626Y-52299239D01*
X115768626Y-52299239D02*
X115959102Y-52299239D01*
X115959102Y-52299239D02*
X116035292Y-52261144D01*
X116035292Y-52261144D02*
X116073388Y-52223048D01*
X112628885Y-60160132D02*
X112628885Y-59360132D01*
X112628885Y-59360132D02*
X112438409Y-59360132D01*
X112438409Y-59360132D02*
X112324123Y-59398227D01*
X112324123Y-59398227D02*
X112247933Y-59474417D01*
X112247933Y-59474417D02*
X112209838Y-59550608D01*
X112209838Y-59550608D02*
X112171742Y-59702989D01*
X112171742Y-59702989D02*
X112171742Y-59817275D01*
X112171742Y-59817275D02*
X112209838Y-59969656D01*
X112209838Y-59969656D02*
X112247933Y-60045846D01*
X112247933Y-60045846D02*
X112324123Y-60122037D01*
X112324123Y-60122037D02*
X112438409Y-60160132D01*
X112438409Y-60160132D02*
X112628885Y-60160132D01*
X111447933Y-59360132D02*
X111828885Y-59360132D01*
X111828885Y-59360132D02*
X111866981Y-59741084D01*
X111866981Y-59741084D02*
X111828885Y-59702989D01*
X111828885Y-59702989D02*
X111752695Y-59664894D01*
X111752695Y-59664894D02*
X111562219Y-59664894D01*
X111562219Y-59664894D02*
X111486028Y-59702989D01*
X111486028Y-59702989D02*
X111447933Y-59741084D01*
X111447933Y-59741084D02*
X111409838Y-59817275D01*
X111409838Y-59817275D02*
X111409838Y-60007751D01*
X111409838Y-60007751D02*
X111447933Y-60083941D01*
X111447933Y-60083941D02*
X111486028Y-60122037D01*
X111486028Y-60122037D02*
X111562219Y-60160132D01*
X111562219Y-60160132D02*
X111752695Y-60160132D01*
X111752695Y-60160132D02*
X111828885Y-60122037D01*
X111828885Y-60122037D02*
X111866981Y-60083941D01*
X97028885Y-62760132D02*
X97028885Y-61960132D01*
X97028885Y-61960132D02*
X96838409Y-61960132D01*
X96838409Y-61960132D02*
X96724123Y-61998227D01*
X96724123Y-61998227D02*
X96647933Y-62074417D01*
X96647933Y-62074417D02*
X96609838Y-62150608D01*
X96609838Y-62150608D02*
X96571742Y-62302989D01*
X96571742Y-62302989D02*
X96571742Y-62417275D01*
X96571742Y-62417275D02*
X96609838Y-62569656D01*
X96609838Y-62569656D02*
X96647933Y-62645846D01*
X96647933Y-62645846D02*
X96724123Y-62722037D01*
X96724123Y-62722037D02*
X96838409Y-62760132D01*
X96838409Y-62760132D02*
X97028885Y-62760132D01*
X95886028Y-62226798D02*
X95886028Y-62760132D01*
X96076504Y-61922037D02*
X96266981Y-62493465D01*
X96266981Y-62493465D02*
X95771742Y-62493465D01*
X126028885Y-62760132D02*
X126028885Y-61960132D01*
X126028885Y-61960132D02*
X125838409Y-61960132D01*
X125838409Y-61960132D02*
X125724123Y-61998227D01*
X125724123Y-61998227D02*
X125647933Y-62074417D01*
X125647933Y-62074417D02*
X125609838Y-62150608D01*
X125609838Y-62150608D02*
X125571742Y-62302989D01*
X125571742Y-62302989D02*
X125571742Y-62417275D01*
X125571742Y-62417275D02*
X125609838Y-62569656D01*
X125609838Y-62569656D02*
X125647933Y-62645846D01*
X125647933Y-62645846D02*
X125724123Y-62722037D01*
X125724123Y-62722037D02*
X125838409Y-62760132D01*
X125838409Y-62760132D02*
X126028885Y-62760132D01*
X125305076Y-61960132D02*
X124809838Y-61960132D01*
X124809838Y-61960132D02*
X125076504Y-62264894D01*
X125076504Y-62264894D02*
X124962219Y-62264894D01*
X124962219Y-62264894D02*
X124886028Y-62302989D01*
X124886028Y-62302989D02*
X124847933Y-62341084D01*
X124847933Y-62341084D02*
X124809838Y-62417275D01*
X124809838Y-62417275D02*
X124809838Y-62607751D01*
X124809838Y-62607751D02*
X124847933Y-62683941D01*
X124847933Y-62683941D02*
X124886028Y-62722037D01*
X124886028Y-62722037D02*
X124962219Y-62760132D01*
X124962219Y-62760132D02*
X125190790Y-62760132D01*
X125190790Y-62760132D02*
X125266981Y-62722037D01*
X125266981Y-62722037D02*
X125305076Y-62683941D01*
D13*
G04 #@! TO.C,D6*
X105088410Y-56887837D02*
X105088410Y-63897837D01*
X105088410Y-56887837D02*
X108388410Y-56887837D01*
X108388410Y-56887837D02*
X108388410Y-63897837D01*
G04 #@! TO.C,C5*
X115503410Y-54896589D02*
X115503410Y-54374085D01*
X116973410Y-54896589D02*
X116973410Y-54374085D01*
G04 #@! TO.C,D5*
X113338410Y-56887837D02*
X113338410Y-63897837D01*
X113338410Y-56887837D02*
X116638410Y-56887837D01*
X116638410Y-56887837D02*
X116638410Y-63897837D01*
G04 #@! TO.C,D4*
X97680537Y-62840337D02*
X97680537Y-55830337D01*
X100980537Y-62840337D02*
X97680537Y-62840337D01*
X100980537Y-62840337D02*
X100980537Y-55830337D01*
G04 #@! TO.C,D3*
X120883958Y-62840337D02*
X120883958Y-55830337D01*
X124183958Y-62840337D02*
X120883958Y-62840337D01*
X124183958Y-62840337D02*
X124183958Y-55830337D01*
G04 #@! TD*
%LPC*%
D14*
G04 #@! TO.C,Qr1*
X118988410Y-58906368D03*
D15*
X118988410Y-57636368D03*
X118988410Y-56366368D03*
G04 #@! TD*
D16*
G04 #@! TO.C,MH2*
X118838410Y-53197837D03*
G04 #@! TD*
D17*
G04 #@! TO.C,J2*
X109838410Y-62997837D03*
D18*
X111838410Y-62997837D03*
G04 #@! TD*
D14*
G04 #@! TO.C,Ql1*
X103630537Y-58895426D03*
D15*
X103630537Y-57625426D03*
X103630537Y-56355426D03*
G04 #@! TD*
D16*
G04 #@! TO.C,MH1*
X102638410Y-53197837D03*
G04 #@! TD*
D19*
G04 #@! TO.C,H1*
X91900000Y-65100000D03*
D20*
X91900000Y-65100000D03*
G04 #@! TD*
D21*
G04 #@! TO.C,J1*
X113933509Y-55197837D03*
X111933510Y-55197837D03*
X109933509Y-55197837D03*
X107933511Y-55197837D03*
G04 #@! TD*
D14*
G04 #@! TO.C,Qr2*
X118373958Y-62506368D03*
D15*
X118373958Y-63776368D03*
X118373958Y-65046368D03*
G04 #@! TD*
D14*
G04 #@! TO.C,Ql2*
X102900537Y-62425426D03*
D15*
X102900537Y-63695426D03*
X102900537Y-64965426D03*
G04 #@! TD*
D19*
G04 #@! TO.C,H2*
X129900000Y-65100000D03*
D20*
X129900000Y-65100000D03*
G04 #@! TD*
D22*
G04 #@! TO.C,D6*
X106738410Y-58897837D03*
X106738410Y-63897837D03*
G04 #@! TD*
D23*
G04 #@! TO.C,C5*
X116238410Y-55672837D03*
X116238410Y-53597837D03*
G04 #@! TD*
D22*
G04 #@! TO.C,D5*
X114988410Y-58897837D03*
X114988410Y-63897837D03*
G04 #@! TD*
D24*
G04 #@! TO.C,D4*
X99330537Y-60830337D03*
X99330537Y-55830337D03*
G04 #@! TD*
G04 #@! TO.C,D3*
X122533958Y-60830337D03*
X122533958Y-55830337D03*
G04 #@! TD*
%LPD*%
M02*
