M48
; DRILL file {KiCad 9.0.4} date 2025-08-24T22:18:30+0200
; FORMAT={-:-/ absolute / metric / decimal}
; #@! TF.CreationDate,2025-08-24T22:18:30+02:00
; #@! TF.GenerationSoftware,Kicad,Pcbnew,9.0.4
; #@! TF.FileFunction,Plated,1,2,PTH
FMAT,2
METRIC
; #@! TA.AperFunction,Plated,PTH,ViaDrill
T1C0.300
; #@! TA.AperFunction,Plated,PTH,ComponentDrill
T2C0.750
; #@! TA.AperFunction,Plated,PTH,ComponentDrill
T3C0.762
; #@! TA.AperFunction,Plated,PTH,ComponentDrill
T4C0.800
; #@! TA.AperFunction,Plated,PTH,ComponentDrill
T5C2.200
%
G90
G05
T1
X154.665Y-99.4
X157.8Y-104.933
X157.8Y-105.667
X157.8Y-106.4
X159.154Y-102.32
X160.2Y-91.636
X161.2Y-105.613
X161.2Y-106.363
X168.4Y-104.6
X169.65Y-104.6
X171.95Y-104.6
X173.2Y-104.6
X180.45Y-105.613
X180.45Y-106.363
X181.1Y-91.633
X182.2Y-102.4
X182.4Y-104.933
X182.4Y-105.667
X182.4Y-106.4
X187.2Y-99.4
T2
X162.862Y-101.428
X162.862Y-102.698
X162.862Y-103.968
X163.592Y-95.358
X163.592Y-96.628
X163.592Y-97.898
X178.336Y-101.509
X178.336Y-102.779
X178.336Y-104.049
X178.95Y-95.369
X178.95Y-96.639
X178.95Y-97.909
T3
X167.895Y-94.2
X169.895Y-94.2
X171.895Y-94.2
X173.895Y-94.2
T4
X169.8Y-102.0
X171.8Y-102.0
T5
X151.8Y-104.1
X189.8Y-104.2
M30
