%TF.GenerationSoftware,KiCad,Pcbnew,9.0.4*%
%TF.CreationDate,2025-08-26T21:24:31+02:00*%
%TF.ProjectId,npn-pnp-h-bridge,6e706e2d-706e-4702-9d68-2d6272696467,rev?*%
%TF.SameCoordinates,Original*%
%TF.FileFunction,Drillmap*%
%TF.FilePolarity,Positive*%
%FSLAX45Y45*%
G04 Gerber Fmt 4.5, Leading zero omitted, Abs format (unit mm)*
G04 Created by KiCad (PCBNEW 9.0.4) date 2025-08-26 21:24:31*
%MOMM*%
%LPD*%
G01*
G04 APERTURE LIST*
%ADD10C,0.100000*%
%ADD11C,0.200000*%
G04 APERTURE END LIST*
D10*
X13340000Y-5160000D02*
X13340000Y-6660000D01*
X9040000Y-6860000D02*
G75*
G02*
X8840000Y-6660000I0J200000D01*
G01*
X9040000Y-4960000D02*
X13140000Y-4960000D01*
X8840000Y-6660000D02*
X8840000Y-5160000D01*
X8840000Y-5160000D02*
G75*
G02*
X9040000Y-4960000I200000J0D01*
G01*
X13340000Y-6660000D02*
G75*
G02*
X13140000Y-6860000I-200000J0D01*
G01*
X13140000Y-6860000D02*
X9040000Y-6860000D01*
X13140000Y-4960000D02*
G75*
G02*
X13340000Y-5160000I0J-200000D01*
G01*
D11*
X9095777Y-7176484D02*
X9095777Y-6976484D01*
X9095777Y-6976484D02*
X9143396Y-6976484D01*
X9143396Y-6976484D02*
X9171967Y-6986008D01*
X9171967Y-6986008D02*
X9191015Y-7005055D01*
X9191015Y-7005055D02*
X9200539Y-7024103D01*
X9200539Y-7024103D02*
X9210063Y-7062198D01*
X9210063Y-7062198D02*
X9210063Y-7090769D01*
X9210063Y-7090769D02*
X9200539Y-7128865D01*
X9200539Y-7128865D02*
X9191015Y-7147912D01*
X9191015Y-7147912D02*
X9171967Y-7166960D01*
X9171967Y-7166960D02*
X9143396Y-7176484D01*
X9143396Y-7176484D02*
X9095777Y-7176484D01*
X9295777Y-7176484D02*
X9295777Y-7043150D01*
X9295777Y-7081246D02*
X9305301Y-7062198D01*
X9305301Y-7062198D02*
X9314824Y-7052674D01*
X9314824Y-7052674D02*
X9333872Y-7043150D01*
X9333872Y-7043150D02*
X9352920Y-7043150D01*
X9419586Y-7176484D02*
X9419586Y-7043150D01*
X9419586Y-6976484D02*
X9410063Y-6986008D01*
X9410063Y-6986008D02*
X9419586Y-6995531D01*
X9419586Y-6995531D02*
X9429110Y-6986008D01*
X9429110Y-6986008D02*
X9419586Y-6976484D01*
X9419586Y-6976484D02*
X9419586Y-6995531D01*
X9543396Y-7176484D02*
X9524348Y-7166960D01*
X9524348Y-7166960D02*
X9514824Y-7147912D01*
X9514824Y-7147912D02*
X9514824Y-6976484D01*
X9648158Y-7176484D02*
X9629110Y-7166960D01*
X9629110Y-7166960D02*
X9619586Y-7147912D01*
X9619586Y-7147912D02*
X9619586Y-6976484D01*
X9876729Y-7176484D02*
X9876729Y-6976484D01*
X9876729Y-6976484D02*
X9943396Y-7119341D01*
X9943396Y-7119341D02*
X10010063Y-6976484D01*
X10010063Y-6976484D02*
X10010063Y-7176484D01*
X10191015Y-7176484D02*
X10191015Y-7071722D01*
X10191015Y-7071722D02*
X10181491Y-7052674D01*
X10181491Y-7052674D02*
X10162444Y-7043150D01*
X10162444Y-7043150D02*
X10124348Y-7043150D01*
X10124348Y-7043150D02*
X10105301Y-7052674D01*
X10191015Y-7166960D02*
X10171967Y-7176484D01*
X10171967Y-7176484D02*
X10124348Y-7176484D01*
X10124348Y-7176484D02*
X10105301Y-7166960D01*
X10105301Y-7166960D02*
X10095777Y-7147912D01*
X10095777Y-7147912D02*
X10095777Y-7128865D01*
X10095777Y-7128865D02*
X10105301Y-7109817D01*
X10105301Y-7109817D02*
X10124348Y-7100293D01*
X10124348Y-7100293D02*
X10171967Y-7100293D01*
X10171967Y-7100293D02*
X10191015Y-7090769D01*
X10286253Y-7043150D02*
X10286253Y-7243150D01*
X10286253Y-7052674D02*
X10305301Y-7043150D01*
X10305301Y-7043150D02*
X10343396Y-7043150D01*
X10343396Y-7043150D02*
X10362444Y-7052674D01*
X10362444Y-7052674D02*
X10371967Y-7062198D01*
X10371967Y-7062198D02*
X10381491Y-7081246D01*
X10381491Y-7081246D02*
X10381491Y-7138388D01*
X10381491Y-7138388D02*
X10371967Y-7157436D01*
X10371967Y-7157436D02*
X10362444Y-7166960D01*
X10362444Y-7166960D02*
X10343396Y-7176484D01*
X10343396Y-7176484D02*
X10305301Y-7176484D01*
X10305301Y-7176484D02*
X10286253Y-7166960D01*
X10467205Y-7157436D02*
X10476729Y-7166960D01*
X10476729Y-7166960D02*
X10467205Y-7176484D01*
X10467205Y-7176484D02*
X10457682Y-7166960D01*
X10457682Y-7166960D02*
X10467205Y-7157436D01*
X10467205Y-7157436D02*
X10467205Y-7176484D01*
X10467205Y-7052674D02*
X10476729Y-7062198D01*
X10476729Y-7062198D02*
X10467205Y-7071722D01*
X10467205Y-7071722D02*
X10457682Y-7062198D01*
X10457682Y-7062198D02*
X10467205Y-7052674D01*
X10467205Y-7052674D02*
X10467205Y-7071722D01*
M02*
