M48
; DRILL file {KiCad 9.0.4} date 2025-08-24T17:21:23+0200
; FORMAT={-:-/ absolute / metric / decimal}
; #@! TF.CreationDate,2025-08-24T17:21:23+02:00
; #@! TF.GenerationSoftware,Kicad,Pcbnew,9.0.4
; #@! TF.FileFunction,Plated,1,2,PTH
FMAT,2
METRIC
; #@! TA.AperFunction,Plated,PTH,ViaDrill
T1C0.300
; #@! TA.AperFunction,Plated,PTH,ComponentDrill
T2C0.750
; #@! TA.AperFunction,Plated,PTH,ComponentDrill
T3C0.762
; #@! TA.AperFunction,Plated,PTH,ComponentDrill
T4C0.800
%
G90
G05
T1
X150.307Y-95.8
X151.65Y-95.8
X152.4Y-94.4
X152.8Y-98.8
X152.8Y-102.6
X154.8Y-94.4
X156.4Y-105.0
X156.4Y-105.65
X156.4Y-106.4
X158.8Y-106.4
X159.0Y-102.4
X160.2Y-91.636
X161.2Y-105.613
X161.2Y-106.363
X168.15Y-104.6
X169.4Y-104.6
X172.15Y-104.6
X173.4Y-104.6
X180.45Y-105.613
X180.45Y-106.363
X180.8Y-100.0
X181.1Y-91.633
X182.0Y-104.227
X182.4Y-106.4
X186.6Y-94.2
X188.8Y-98.6
X188.8Y-102.4
X189.0Y-94.2
X189.6Y-95.6
X191.2Y-95.6
T2
X162.862Y-101.428
X162.862Y-102.698
X162.862Y-103.968
X163.592Y-95.358
X163.592Y-96.628
X163.592Y-97.898
X178.336Y-101.509
X178.336Y-102.779
X178.336Y-104.049
X178.95Y-95.369
X178.95Y-96.639
X178.95Y-97.909
T3
X167.895Y-95.117
X169.895Y-95.117
X171.895Y-95.117
X173.895Y-95.117
T4
X169.8Y-101.2
X171.8Y-101.2
M30
