G04 #@! TF.GenerationSoftware,KiCad,Pcbnew,9.0.4*
G04 #@! TF.CreationDate,2025-08-24T22:39:55+02:00*
G04 #@! TF.ProjectId,npn-pnp-h-bridge,6e706e2d-706e-4702-9d68-2d6272696467,rev?*
G04 #@! TF.SameCoordinates,Original*
G04 #@! TF.FileFunction,Copper,L1,Top*
G04 #@! TF.FilePolarity,Positive*
%FSLAX46Y46*%
G04 Gerber Fmt 4.6, Leading zero omitted, Abs format (unit mm)*
G04 Created by KiCad (PCBNEW 9.0.4) date 2025-08-24 22:39:55*
%MOMM*%
%LPD*%
G01*
G04 APERTURE LIST*
G04 Aperture macros list*
%AMRoundRect*
0 Rectangle with rounded corners*
0 $1 Rounding radius*
0 $2 $3 $4 $5 $6 $7 $8 $9 X,Y pos of 4 corners*
0 Add a 4 corners polygon primitive as box body*
4,1,4,$2,$3,$4,$5,$6,$7,$8,$9,$2,$3,0*
0 Add four circle primitives for the rounded corners*
1,1,$1+$1,$2,$3*
1,1,$1+$1,$4,$5*
1,1,$1+$1,$6,$7*
1,1,$1+$1,$8,$9*
0 Add four rect primitives between the rounded corners*
20,1,$1+$1,$2,$3,$4,$5,0*
20,1,$1+$1,$4,$5,$6,$7,0*
20,1,$1+$1,$6,$7,$8,$9,0*
20,1,$1+$1,$8,$9,$2,$3,0*%
G04 Aperture macros list end*
G04 #@! TA.AperFunction,SMDPad,CuDef*
%ADD10RoundRect,0.250000X-0.475000X0.337500X-0.475000X-0.337500X0.475000X-0.337500X0.475000X0.337500X0*%
G04 #@! TD*
G04 #@! TA.AperFunction,ComponentPad*
%ADD11R,1.500000X1.050000*%
G04 #@! TD*
G04 #@! TA.AperFunction,ComponentPad*
%ADD12O,1.500000X1.050000*%
G04 #@! TD*
G04 #@! TA.AperFunction,SMDPad,CuDef*
%ADD13RoundRect,0.250000X-0.350000X-0.450000X0.350000X-0.450000X0.350000X0.450000X-0.350000X0.450000X0*%
G04 #@! TD*
G04 #@! TA.AperFunction,SMDPad,CuDef*
%ADD14RoundRect,0.250000X0.450000X-0.350000X0.450000X0.350000X-0.450000X0.350000X-0.450000X-0.350000X0*%
G04 #@! TD*
G04 #@! TA.AperFunction,SMDPad,CuDef*
%ADD15RoundRect,0.250000X0.350000X0.450000X-0.350000X0.450000X-0.350000X-0.450000X0.350000X-0.450000X0*%
G04 #@! TD*
G04 #@! TA.AperFunction,ComponentPad*
%ADD16R,1.300000X1.300000*%
G04 #@! TD*
G04 #@! TA.AperFunction,ComponentPad*
%ADD17C,1.300000*%
G04 #@! TD*
G04 #@! TA.AperFunction,SMDPad,CuDef*
%ADD18RoundRect,0.200000X-0.200000X0.750000X-0.200000X-0.750000X0.200000X-0.750000X0.200000X0.750000X0*%
G04 #@! TD*
G04 #@! TA.AperFunction,SMDPad,CuDef*
%ADD19RoundRect,0.250000X-0.450000X0.350000X-0.450000X-0.350000X0.450000X-0.350000X0.450000X0.350000X0*%
G04 #@! TD*
G04 #@! TA.AperFunction,SMDPad,CuDef*
%ADD20RoundRect,0.100000X-0.650000X-0.100000X0.650000X-0.100000X0.650000X0.100000X-0.650000X0.100000X0*%
G04 #@! TD*
G04 #@! TA.AperFunction,ComponentPad*
%ADD21C,2.600000*%
G04 #@! TD*
G04 #@! TA.AperFunction,ConnectorPad*
%ADD22C,4.400000*%
G04 #@! TD*
G04 #@! TA.AperFunction,ComponentPad*
%ADD23C,1.270000*%
G04 #@! TD*
G04 #@! TA.AperFunction,ViaPad*
%ADD24C,0.600000*%
G04 #@! TD*
G04 #@! TA.AperFunction,Conductor*
%ADD25C,0.300000*%
G04 #@! TD*
G04 #@! TA.AperFunction,Conductor*
%ADD26C,0.200000*%
G04 #@! TD*
G04 APERTURE END LIST*
D10*
G04 #@! TO.P,C3,1,+*
G04 #@! TO.N,/R_IN*
X125579135Y-51463251D03*
G04 #@! TO.P,C3,2,-*
G04 #@! TO.N,/bQ4*
X125579135Y-53538251D03*
G04 #@! TD*
D11*
G04 #@! TO.P,Qr1,1,C*
G04 #@! TO.N,/O2*
X118988410Y-58906368D03*
D12*
G04 #@! TO.P,Qr1,2,B*
G04 #@! TO.N,/H2b*
X118988410Y-57636368D03*
G04 #@! TO.P,Qr1,3,E*
G04 #@! TO.N,VDD*
X118988410Y-56366368D03*
G04 #@! TD*
D13*
G04 #@! TO.P,R13,1,+*
G04 #@! TO.N,Net-(Q1B-C2)*
X98038410Y-64397837D03*
G04 #@! TO.P,R13,2,-*
G04 #@! TO.N,/L1b*
X100038410Y-64397837D03*
G04 #@! TD*
D14*
G04 #@! TO.P,R12,1,+*
G04 #@! TO.N,Net-(Q2B-C2)*
X130838410Y-58597837D03*
G04 #@! TO.P,R12,2,-*
G04 #@! TO.N,VDD*
X130838410Y-56597837D03*
G04 #@! TD*
D15*
G04 #@! TO.P,R7,1,+*
G04 #@! TO.N,Net-(Q1A-C1)*
X94838410Y-56657837D03*
G04 #@! TO.P,R7,2,-*
G04 #@! TO.N,VDD*
X92838410Y-56657837D03*
G04 #@! TD*
D14*
G04 #@! TO.P,R11,1,+*
G04 #@! TO.N,Net-(Q1B-C2)*
X90838410Y-58597837D03*
G04 #@! TO.P,R11,2,-*
G04 #@! TO.N,VDD*
X90838410Y-56597837D03*
G04 #@! TD*
D16*
G04 #@! TO.P,J2,1,1*
G04 #@! TO.N,/O1*
X109838410Y-62997837D03*
D17*
G04 #@! TO.P,J2,2,2*
G04 #@! TO.N,/O2*
X111838410Y-62997837D03*
G04 #@! TD*
D10*
G04 #@! TO.P,C4,1,+*
G04 #@! TO.N,/R_IN*
X130079135Y-51463251D03*
G04 #@! TO.P,C4,2,-*
G04 #@! TO.N,/bQ3*
X130079135Y-53538251D03*
G04 #@! TD*
D18*
G04 #@! TO.P,D1,1,A*
G04 #@! TO.N,/L1b*
X99988410Y-58997837D03*
G04 #@! TO.P,D1,2,K*
G04 #@! TO.N,/H1b*
X98088410Y-58997837D03*
G04 #@! TO.P,D1,3,COM*
G04 #@! TO.N,/O1*
X99038410Y-61997837D03*
G04 #@! TD*
D19*
G04 #@! TO.P,R1,1,+*
G04 #@! TO.N,/L_IN*
X93420832Y-51503435D03*
G04 #@! TO.P,R1,2,-*
G04 #@! TO.N,/bQ2*
X93420832Y-53503435D03*
G04 #@! TD*
D13*
G04 #@! TO.P,R14,1,+*
G04 #@! TO.N,/L2b*
X123238410Y-64397837D03*
G04 #@! TO.P,R14,2,-*
G04 #@! TO.N,Net-(Q2B-C2)*
X125238410Y-64397837D03*
G04 #@! TD*
D11*
G04 #@! TO.P,Ql1,1,C*
G04 #@! TO.N,/O1*
X103630537Y-58895426D03*
D12*
G04 #@! TO.P,Ql1,2,B*
G04 #@! TO.N,/H1b*
X103630537Y-57625426D03*
G04 #@! TO.P,Ql1,3,E*
G04 #@! TO.N,VDD*
X103630537Y-56355426D03*
G04 #@! TD*
D13*
G04 #@! TO.P,R10,1,+*
G04 #@! TO.N,Net-(Q2A-C1)*
X126540506Y-56656460D03*
G04 #@! TO.P,R10,2,-*
G04 #@! TO.N,VDD*
X128540506Y-56656460D03*
G04 #@! TD*
D20*
G04 #@! TO.P,Q2,1,E1*
G04 #@! TO.N,GND*
X125908410Y-59747837D03*
G04 #@! TO.P,Q2,2,B1*
G04 #@! TO.N,/bQ4*
X125908410Y-60397837D03*
G04 #@! TO.P,Q2,3,C2*
G04 #@! TO.N,Net-(Q2B-C2)*
X125908410Y-61047837D03*
G04 #@! TO.P,Q2,4,E2*
G04 #@! TO.N,GND*
X128568410Y-61047837D03*
G04 #@! TO.P,Q2,5,B2*
G04 #@! TO.N,/bQ3*
X128568410Y-60397837D03*
G04 #@! TO.P,Q2,6,C1*
G04 #@! TO.N,Net-(Q2A-C1)*
X128568410Y-59747837D03*
G04 #@! TD*
D19*
G04 #@! TO.P,R5,1,+*
G04 #@! TO.N,/R_IN*
X123379135Y-51530751D03*
G04 #@! TO.P,R5,2,-*
G04 #@! TO.N,/bQ4*
X123379135Y-53530751D03*
G04 #@! TD*
D13*
G04 #@! TO.P,R8,1,+*
G04 #@! TO.N,Net-(Q1A-C1)*
X96838410Y-56657837D03*
G04 #@! TO.P,R8,2,-*
G04 #@! TO.N,/H1b*
X98838410Y-56657837D03*
G04 #@! TD*
D14*
G04 #@! TO.P,R4,1,+*
G04 #@! TO.N,GND*
X121138410Y-53530751D03*
G04 #@! TO.P,R4,2,-*
G04 #@! TO.N,/R_IN*
X121138410Y-51530751D03*
G04 #@! TD*
D21*
G04 #@! TO.P,H1,1,1*
G04 #@! TO.N,GND*
X91900000Y-65100000D03*
D22*
X91900000Y-65100000D03*
G04 #@! TD*
D18*
G04 #@! TO.P,D2,1,A*
G04 #@! TO.N,/L2b*
X123834585Y-59097837D03*
G04 #@! TO.P,D2,2,K*
G04 #@! TO.N,/H2b*
X121934585Y-59097837D03*
G04 #@! TO.P,D2,3,COM*
G04 #@! TO.N,/O2*
X122884585Y-62097837D03*
G04 #@! TD*
D19*
G04 #@! TO.P,R6,1,+*
G04 #@! TO.N,/R_IN*
X127879135Y-51530751D03*
G04 #@! TO.P,R6,2,-*
G04 #@! TO.N,/bQ3*
X127879135Y-53530751D03*
G04 #@! TD*
D10*
G04 #@! TO.P,C1,1,+*
G04 #@! TO.N,/L_IN*
X91220832Y-51495935D03*
G04 #@! TO.P,C1,2,-*
G04 #@! TO.N,/bQ2*
X91220832Y-53570935D03*
G04 #@! TD*
D20*
G04 #@! TO.P,Q1,1,E1*
G04 #@! TO.N,GND*
X93308410Y-59747837D03*
G04 #@! TO.P,Q1,2,B1*
G04 #@! TO.N,/bQ2*
X93308410Y-60397837D03*
G04 #@! TO.P,Q1,3,C2*
G04 #@! TO.N,Net-(Q1B-C2)*
X93308410Y-61047837D03*
G04 #@! TO.P,Q1,4,E2*
G04 #@! TO.N,GND*
X95968410Y-61047837D03*
G04 #@! TO.P,Q1,5,B2*
G04 #@! TO.N,/bQ1*
X95968410Y-60397837D03*
G04 #@! TO.P,Q1,6,C1*
G04 #@! TO.N,Net-(Q1A-C1)*
X95968410Y-59747837D03*
G04 #@! TD*
D23*
G04 #@! TO.P,J1,1,1*
G04 #@! TO.N,VDD*
X113933509Y-55197837D03*
G04 #@! TO.P,J1,2,2*
G04 #@! TO.N,GND*
X111933510Y-55197837D03*
G04 #@! TO.P,J1,3,3*
G04 #@! TO.N,/R_IN*
X109933509Y-55197837D03*
G04 #@! TO.P,J1,4,4*
G04 #@! TO.N,/L_IN*
X107933511Y-55197837D03*
G04 #@! TD*
D10*
G04 #@! TO.P,C2,1,+*
G04 #@! TO.N,/L_IN*
X95687082Y-51495935D03*
G04 #@! TO.P,C2,2,-*
G04 #@! TO.N,/bQ1*
X95687082Y-53570935D03*
G04 #@! TD*
D11*
G04 #@! TO.P,Qr2,1,C*
G04 #@! TO.N,/O2*
X118373958Y-62506368D03*
D12*
G04 #@! TO.P,Qr2,2,B*
G04 #@! TO.N,/L2b*
X118373958Y-63776368D03*
G04 #@! TO.P,Qr2,3,E*
G04 #@! TO.N,GND*
X118373958Y-65046368D03*
G04 #@! TD*
D11*
G04 #@! TO.P,Ql2,1,C*
G04 #@! TO.N,/O1*
X102900537Y-62425426D03*
D12*
G04 #@! TO.P,Ql2,2,B*
G04 #@! TO.N,/L1b*
X102900537Y-63695426D03*
G04 #@! TO.P,Ql2,3,E*
G04 #@! TO.N,GND*
X102900537Y-64965426D03*
G04 #@! TD*
D19*
G04 #@! TO.P,R2,1,+*
G04 #@! TO.N,/L_IN*
X97887082Y-51503435D03*
G04 #@! TO.P,R2,2,-*
G04 #@! TO.N,/bQ1*
X97887082Y-53503435D03*
G04 #@! TD*
D14*
G04 #@! TO.P,R3,1,+*
G04 #@! TO.N,GND*
X100238410Y-53533435D03*
G04 #@! TO.P,R3,2,-*
G04 #@! TO.N,/L_IN*
X100238410Y-51533435D03*
G04 #@! TD*
D21*
G04 #@! TO.P,H2,1,1*
G04 #@! TO.N,GND*
X129900000Y-65100000D03*
D22*
X129900000Y-65100000D03*
G04 #@! TD*
D13*
G04 #@! TO.P,R9,1,+*
G04 #@! TO.N,/H2b*
X122438410Y-56597837D03*
G04 #@! TO.P,R9,2,-*
G04 #@! TO.N,Net-(Q2A-C1)*
X124438410Y-56597837D03*
G04 #@! TD*
D24*
G04 #@! TO.N,GND*
X94702910Y-60397837D03*
X122438410Y-65931170D03*
X100238410Y-52633435D03*
X101238410Y-66610437D03*
X120488410Y-67360437D03*
X97838410Y-66664504D03*
X120488410Y-66610437D03*
X127238410Y-60397837D03*
X113238410Y-65597837D03*
X101238410Y-67360437D03*
X97838410Y-65931170D03*
X122438410Y-66664504D03*
X111988410Y-65597837D03*
X109688410Y-65597837D03*
X121138410Y-52630751D03*
X122438410Y-67397837D03*
X108438410Y-65597837D03*
X97838410Y-67397837D03*
G04 #@! TO.N,/O1*
X99192131Y-63317463D03*
G04 #@! TO.N,/O2*
X122238410Y-63397837D03*
G04 #@! TD*
D25*
G04 #@! TO.N,/L_IN*
X95679582Y-51503435D02*
X95687082Y-51495935D01*
X100238410Y-51533435D02*
X100560608Y-51211237D01*
X93420832Y-51503435D02*
X95679582Y-51503435D01*
X97879582Y-51495935D02*
X97887082Y-51503435D01*
X100560608Y-51211237D02*
X104394956Y-51211237D01*
X107933511Y-53921365D02*
X107933511Y-55197837D01*
X95687082Y-51495935D02*
X97879582Y-51495935D01*
X100200910Y-51495935D02*
X100238410Y-51533435D01*
X107223383Y-52382810D02*
X107347725Y-52507152D01*
X91220832Y-51495935D02*
X93413332Y-51495935D01*
X97887082Y-51503435D02*
X100208410Y-51503435D01*
X100208410Y-51503435D02*
X100238410Y-51533435D01*
X93413332Y-51495935D02*
X93420832Y-51503435D01*
X107347725Y-52507152D02*
G75*
G02*
X107933532Y-53921365I-1414225J-1414248D01*
G01*
X104394956Y-51211237D02*
G75*
G02*
X107223397Y-52382796I44J-3999963D01*
G01*
G04 #@! TO.N,/R_IN*
X127994364Y-51463251D02*
X130079135Y-51463251D01*
X110466837Y-52369410D02*
X110372849Y-52463398D01*
X121138410Y-51530751D02*
X120805496Y-51197837D01*
X109933509Y-53524058D02*
X109933509Y-55197837D01*
X120805496Y-51197837D02*
X113295264Y-51197837D01*
X123494364Y-51463251D02*
X125531405Y-51463251D01*
X123331405Y-51530751D02*
X121138410Y-51530751D01*
X125694364Y-51530751D02*
X127831405Y-51530751D01*
X123412885Y-51497001D02*
G75*
G02*
X123331405Y-51530749I-81485J81501D01*
G01*
X125612885Y-51497001D02*
G75*
G03*
X125694364Y-51530770I81515J81501D01*
G01*
X110372849Y-52463398D02*
G75*
G03*
X109933477Y-53524058I1060651J-1060702D01*
G01*
X127912885Y-51497001D02*
G75*
G02*
X127994364Y-51463232I81515J-81499D01*
G01*
X125612885Y-51497001D02*
G75*
G03*
X125531405Y-51463253I-81485J-81499D01*
G01*
X123412885Y-51497001D02*
G75*
G02*
X123494364Y-51463232I81515J-81499D01*
G01*
X127912885Y-51497001D02*
G75*
G02*
X127831405Y-51530749I-81485J81501D01*
G01*
X113295264Y-51197837D02*
G75*
G03*
X110466863Y-52369436I36J-3999963D01*
G01*
G04 #@! TO.N,/bQ2*
X89918865Y-53717382D02*
X89784856Y-53851391D01*
X89638410Y-54204944D02*
X89638410Y-56990730D01*
X90245517Y-57597837D02*
X91431303Y-57597837D01*
X92038410Y-58204944D02*
X92038410Y-59670729D01*
X92184857Y-60024283D02*
X92411965Y-60251391D01*
X91784857Y-57744284D02*
X91891964Y-57851391D01*
X91220832Y-53570935D02*
X90272419Y-53570935D01*
X89784857Y-57344284D02*
X89891964Y-57451391D01*
X91288332Y-53503435D02*
X91220832Y-53570935D01*
X93420832Y-53503435D02*
X91288332Y-53503435D01*
X92765518Y-60397837D02*
X93308410Y-60397837D01*
X92765518Y-60397837D02*
G75*
G02*
X92411948Y-60251408I-18J500037D01*
G01*
X91431303Y-57597837D02*
G75*
G02*
X91784848Y-57744293I-3J-499963D01*
G01*
X90245517Y-57597837D02*
G75*
G02*
X89891948Y-57451407I-17J500037D01*
G01*
X91891964Y-57851391D02*
G75*
G02*
X92038376Y-58204944I-353564J-353509D01*
G01*
X89638410Y-54204944D02*
G75*
G02*
X89784836Y-53851371I499990J44D01*
G01*
X90272419Y-53570935D02*
G75*
G03*
X89918863Y-53717380I-19J-499965D01*
G01*
X92184857Y-60024283D02*
G75*
G02*
X92038386Y-59670729I353543J353583D01*
G01*
X89638410Y-56990730D02*
G75*
G03*
X89784874Y-57344267I499990J30D01*
G01*
G04 #@! TO.N,/bQ4*
X123379135Y-53530751D02*
X123438410Y-53590026D01*
X124924568Y-60154577D02*
X125050671Y-60280680D01*
X125333513Y-60397837D02*
X125908410Y-60397837D01*
X123438410Y-53590026D02*
X123438410Y-57232152D01*
X124385517Y-57913995D02*
X124690253Y-58218731D01*
X123379135Y-53530751D02*
X125571635Y-53530751D01*
X124807410Y-58501573D02*
X124807410Y-59871734D01*
X123638410Y-57597837D02*
X123638410Y-57605148D01*
X125571635Y-53530751D02*
X125579135Y-53538251D01*
X123995784Y-57796837D02*
X124102674Y-57796837D01*
X123555568Y-57514995D02*
X123638410Y-57597837D01*
X123638410Y-57605148D02*
X123712942Y-57679680D01*
X124102674Y-57796837D02*
G75*
G02*
X124385523Y-57913989I26J-399963D01*
G01*
X123555568Y-57514995D02*
G75*
G02*
X123438371Y-57232152I282832J282895D01*
G01*
X125333513Y-60397837D02*
G75*
G02*
X125050657Y-60280694I-13J400037D01*
G01*
X123712942Y-57679680D02*
G75*
G03*
X123995784Y-57796837I282858J282880D01*
G01*
X124807410Y-58501573D02*
G75*
G03*
X124690242Y-58218742I-400010J-27D01*
G01*
X124807410Y-59871734D02*
G75*
G03*
X124924587Y-60154558I399990J34D01*
G01*
D26*
G04 #@! TO.N,GND*
X100238410Y-52633435D02*
X100238410Y-53533435D01*
D25*
X95227828Y-61047837D02*
X95968410Y-61047837D01*
X127238410Y-60397837D02*
X127238410Y-60467836D01*
X94702910Y-60333337D02*
X94702910Y-60397837D01*
D26*
X121138410Y-52630751D02*
X121138410Y-53530751D01*
D25*
X126658409Y-59747837D02*
X127238410Y-60327838D01*
X94702910Y-60522919D02*
X95227828Y-61047837D01*
X93308410Y-59747837D02*
X94117410Y-59747837D01*
X127818411Y-61047837D02*
X128568410Y-61047837D01*
X125908410Y-59747837D02*
X126658409Y-59747837D01*
X94702910Y-60397837D02*
X94702910Y-60522919D01*
X94117410Y-59747837D02*
X94702910Y-60333337D01*
X127238410Y-60467836D02*
X127818411Y-61047837D01*
X127238410Y-60327838D02*
X127238410Y-60397837D01*
G04 #@! TO.N,VDD*
X128540506Y-56656460D02*
X130579787Y-56656460D01*
X101003106Y-56355426D02*
X103630537Y-56355426D01*
X99184857Y-54744284D02*
X100649553Y-56208980D01*
X126124320Y-52579751D02*
X122838950Y-52579751D01*
X128540506Y-56656460D02*
X126772292Y-54888246D01*
X130579787Y-56656460D02*
X130638410Y-56597837D01*
X122210977Y-54125652D02*
X120087418Y-56249211D01*
X95243319Y-52552435D02*
X98385845Y-52552435D01*
X122328135Y-53090566D02*
X122328135Y-53842809D01*
X126537977Y-52827723D02*
X126407162Y-52696908D01*
X94611082Y-54678058D02*
X94611082Y-53184672D01*
X94757529Y-52831118D02*
X94889766Y-52698881D01*
X126655135Y-54605404D02*
X126655135Y-53110566D01*
X92838410Y-56657837D02*
X90898410Y-56657837D01*
X119804576Y-56366368D02*
X118988410Y-56366368D01*
X92838410Y-56657837D02*
X94464636Y-55031611D01*
X122556107Y-52696909D02*
X122445292Y-52807724D01*
X90898410Y-56657837D02*
X90838410Y-56597837D01*
X130638410Y-56597837D02*
X130838410Y-56597837D01*
X98739399Y-52698882D02*
X98891964Y-52851447D01*
X99038410Y-53205000D02*
X99038410Y-54390730D01*
X126655135Y-53110566D02*
G75*
G03*
X126537967Y-52827733I-400035J-34D01*
G01*
X94889766Y-52698881D02*
G75*
G02*
X95243319Y-52552438I353534J-353519D01*
G01*
X119804576Y-56366368D02*
G75*
G03*
X120087424Y-56249217I24J399968D01*
G01*
X126407162Y-52696908D02*
G75*
G03*
X126124320Y-52579722I-282862J-282792D01*
G01*
X122445292Y-52807724D02*
G75*
G03*
X122328101Y-53090566I282808J-282876D01*
G01*
X101003106Y-56355426D02*
G75*
G02*
X100649545Y-56208988I-6J500026D01*
G01*
X122328135Y-53842809D02*
G75*
G02*
X122210980Y-54125655I-400035J9D01*
G01*
X98891964Y-52851447D02*
G75*
G02*
X99038407Y-53205000I-353564J-353553D01*
G01*
X94611082Y-53184672D02*
G75*
G02*
X94757539Y-52831128I500018J-28D01*
G01*
X99038410Y-54390730D02*
G75*
G03*
X99184874Y-54744267I499990J30D01*
G01*
X94464636Y-55031611D02*
G75*
G03*
X94611058Y-54678058I-353536J353511D01*
G01*
X126655135Y-54605404D02*
G75*
G03*
X126772301Y-54888237I399965J4D01*
G01*
X122556107Y-52696909D02*
G75*
G02*
X122838950Y-52579730I282893J-282891D01*
G01*
X98739399Y-52698882D02*
G75*
G03*
X98385845Y-52552393I-353599J-353518D01*
G01*
G04 #@! TO.N,/bQ1*
X95968410Y-60397837D02*
X96407749Y-60397837D01*
X97337410Y-59468176D02*
X97337410Y-58126367D01*
X97819582Y-53570935D02*
X97887082Y-53503435D01*
X96938079Y-60178167D02*
X97117740Y-59998506D01*
X97887082Y-56955375D02*
X97887082Y-53503435D01*
X95687082Y-53570935D02*
X97819582Y-53570935D01*
X97557080Y-57596037D02*
X97667412Y-57485705D01*
X97117740Y-59998506D02*
G75*
G03*
X97337390Y-59468176I-530340J530306D01*
G01*
X96407749Y-60397837D02*
G75*
G03*
X96938112Y-60178200I51J750037D01*
G01*
X97557080Y-57596037D02*
G75*
G03*
X97337384Y-58126367I530320J-530363D01*
G01*
X97667412Y-57485705D02*
G75*
G03*
X97887069Y-56955375I-530312J530305D01*
G01*
G04 #@! TO.N,/bQ3*
X130079135Y-53538251D02*
X131613139Y-53538251D01*
X129152724Y-60397837D02*
X128568410Y-60397837D01*
X131921252Y-57314995D02*
X131755567Y-57480680D01*
X132038410Y-53963522D02*
X132038410Y-57032152D01*
X129669410Y-57766837D02*
X129669410Y-59881151D01*
X131472725Y-57597837D02*
X130004095Y-57597837D01*
X129552252Y-60163994D02*
X129435566Y-60280680D01*
X130071635Y-53530751D02*
X130079135Y-53538251D01*
X127879135Y-53530751D02*
X130071635Y-53530751D01*
X131895982Y-53655409D02*
X131921253Y-53680680D01*
X129721252Y-57714995D02*
X129669410Y-57766837D01*
X129552252Y-60163994D02*
G75*
G03*
X129669443Y-59881151I-282852J282894D01*
G01*
X131921253Y-53680680D02*
G75*
G02*
X132038391Y-53963522I-282853J-282820D01*
G01*
X129435566Y-60280680D02*
G75*
G02*
X129152724Y-60397843I-282866J282880D01*
G01*
X129721252Y-57714995D02*
G75*
G02*
X130004095Y-57597823I282848J-282805D01*
G01*
X132038410Y-57032152D02*
G75*
G02*
X131921278Y-57315021I-400010J-48D01*
G01*
X131895982Y-53655409D02*
G75*
G03*
X131613139Y-53538238I-282882J-282891D01*
G01*
X131472725Y-57597837D02*
G75*
G03*
X131755562Y-57480675I-25J400037D01*
G01*
G04 #@! TO.N,/O1*
X99038410Y-61997837D02*
X99038410Y-63163742D01*
X99038410Y-63163742D02*
X99192131Y-63317463D01*
G04 #@! TO.N,/O2*
X123038410Y-62597837D02*
X122238410Y-63397837D01*
X123038410Y-61797837D02*
X123038410Y-62597837D01*
G04 #@! TO.N,Net-(Q1A-C1)*
X94838410Y-56657837D02*
X96838410Y-56657837D01*
X95038410Y-59597837D02*
X95041964Y-59601391D01*
X95038410Y-57064944D02*
X95038410Y-59597837D01*
X95395517Y-59747837D02*
X95968410Y-59747837D01*
X94838410Y-56657837D02*
X94891964Y-56711391D01*
X94891964Y-56711391D02*
G75*
G02*
X95038376Y-57064944I-353564J-353509D01*
G01*
X95395517Y-59747837D02*
G75*
G02*
X95041948Y-59601407I-17J500037D01*
G01*
G04 #@! TO.N,Net-(Q1B-C2)*
X93308410Y-61047837D02*
X93777750Y-61047837D01*
X94858080Y-63817507D02*
X95218740Y-64178167D01*
X94308080Y-61267507D02*
X94418740Y-61378167D01*
X91058080Y-60217507D02*
X91668740Y-60828167D01*
X90838410Y-58597837D02*
X90838410Y-59687177D01*
X92199070Y-61047837D02*
X93308410Y-61047837D01*
X95749070Y-64397837D02*
X98038410Y-64397837D01*
X94638410Y-61908497D02*
X94638410Y-63287177D01*
X94638410Y-61908497D02*
G75*
G03*
X94418741Y-61378166I-750010J-3D01*
G01*
X94308080Y-61267507D02*
G75*
G03*
X93777750Y-61047862I-530280J-530293D01*
G01*
X92199070Y-61047837D02*
G75*
G02*
X91668747Y-60828160I30J750037D01*
G01*
X94638410Y-63287177D02*
G75*
G03*
X94858070Y-63817517I749990J-23D01*
G01*
X95749070Y-64397837D02*
G75*
G02*
X95218747Y-64178160I30J750037D01*
G01*
X90838410Y-59687177D02*
G75*
G03*
X91058070Y-60217517I749990J-23D01*
G01*
G04 #@! TO.N,/H1b*
X98088410Y-58147837D02*
X98838410Y-57397837D01*
X101880213Y-57625426D02*
X103630537Y-57625426D01*
X98838410Y-57397837D02*
X98838410Y-56657837D01*
X98838410Y-56657837D02*
X99669983Y-56657837D01*
X98088410Y-58997837D02*
X98088410Y-58147837D01*
X101084197Y-57243624D02*
X101173106Y-57332533D01*
X99669983Y-56657837D02*
G75*
G02*
X101084198Y-57243623I17J-1999963D01*
G01*
X101173106Y-57332533D02*
G75*
G03*
X101880213Y-57625410I707094J707133D01*
G01*
G04 #@! TO.N,/H2b*
X122438410Y-56597837D02*
X122438410Y-57397837D01*
X122438410Y-57397837D02*
X121934585Y-57901662D01*
X118988410Y-57636368D02*
X119985665Y-57636368D01*
X120692772Y-57343475D02*
X121145517Y-56890730D01*
X121934585Y-57901662D02*
X121934585Y-59097837D01*
X121852624Y-56597837D02*
X122438410Y-56597837D01*
X121145517Y-56890730D02*
G75*
G02*
X121852624Y-56597843I707083J-707070D01*
G01*
X120692772Y-57343475D02*
G75*
G02*
X119985665Y-57636353I-707072J707075D01*
G01*
G04 #@! TO.N,/L1b*
X99988410Y-58997837D02*
X99988410Y-64347837D01*
X100038410Y-64397837D02*
X100155035Y-64281212D01*
X99988410Y-64347837D02*
X100038410Y-64397837D01*
X101569248Y-63695426D02*
X102900537Y-63695426D01*
X100155035Y-64281212D02*
G75*
G02*
X101569248Y-63695452I1414165J-1414188D01*
G01*
G04 #@! TO.N,/L2b*
X118373958Y-63776368D02*
X120402727Y-63776368D01*
X121852624Y-64397837D02*
X123238410Y-64397837D01*
X121109834Y-64069261D02*
X121145517Y-64104944D01*
X123630760Y-64397837D02*
X123238410Y-64397837D01*
X123834585Y-64194012D02*
X123630760Y-64397837D01*
X123834585Y-59097837D02*
X123834585Y-64194012D01*
X120402727Y-63776368D02*
G75*
G02*
X121109827Y-64069268I-27J-1000032D01*
G01*
X121145517Y-64104944D02*
G75*
G03*
X121852624Y-64397810I707083J707144D01*
G01*
G04 #@! TO.N,Net-(Q2B-C2)*
X125184857Y-63944284D02*
X125238410Y-63997837D01*
X127653624Y-61598837D02*
X129823196Y-61598837D01*
X126834857Y-61194284D02*
X126946517Y-61305944D01*
X130530303Y-61305944D02*
X130545517Y-61290730D01*
X125908410Y-61047837D02*
X126481303Y-61047837D01*
X130838410Y-60583623D02*
X130838410Y-58597837D01*
X125241963Y-61194284D02*
X125184856Y-61251391D01*
X125038410Y-61604944D02*
X125038410Y-63590730D01*
X125238410Y-63997837D02*
X125238410Y-64397837D01*
X125908410Y-61047837D02*
X125595517Y-61047837D01*
X125038410Y-63590730D02*
G75*
G03*
X125184874Y-63944267I499990J30D01*
G01*
X126834857Y-61194284D02*
G75*
G03*
X126481303Y-61047824I-353557J-353516D01*
G01*
X129823196Y-61598837D02*
G75*
G03*
X130530312Y-61305953I4J1000037D01*
G01*
X125595517Y-61047837D02*
G75*
G03*
X125241962Y-61194283I-17J-499963D01*
G01*
X130838410Y-60583623D02*
G75*
G02*
X130545507Y-61290720I-1000010J23D01*
G01*
X127653624Y-61598837D02*
G75*
G02*
X126946498Y-61305963I-24J1000037D01*
G01*
X125184856Y-61251391D02*
G75*
G03*
X125038438Y-61604944I353544J-353509D01*
G01*
G04 #@! TO.N,Net-(Q2A-C1)*
X127554095Y-59747837D02*
X128568410Y-59747837D01*
X124438410Y-56597837D02*
X126481883Y-56597837D01*
X126657664Y-59017091D02*
X127271253Y-59630680D01*
X126540506Y-56656460D02*
X126540506Y-58734248D01*
X126481883Y-56597837D02*
X126540506Y-56656460D01*
X127271253Y-59630680D02*
G75*
G03*
X127554095Y-59747829I282847J282880D01*
G01*
X126540506Y-58734248D02*
G75*
G03*
X126657639Y-59017116I399994J-52D01*
G01*
G04 #@! TD*
G04 #@! TA.AperFunction,Conductor*
G04 #@! TO.N,GND*
G36*
X111471351Y-56013546D02*
G01*
X111490619Y-56026421D01*
X111490628Y-56026426D01*
X111660776Y-56096903D01*
X111660786Y-56096906D01*
X111841418Y-56132837D01*
X112025601Y-56132837D01*
X112206233Y-56096906D01*
X112206239Y-56096904D01*
X112376398Y-56026422D01*
X112376399Y-56026422D01*
X112395667Y-56013546D01*
X111992558Y-55610437D01*
X112699663Y-55610437D01*
X112746159Y-55656933D01*
X112779643Y-55857837D01*
X112779643Y-55857839D01*
X112988409Y-57110437D01*
X113333535Y-57144796D01*
X116387906Y-57448882D01*
X116452664Y-57475110D01*
X116492963Y-57532187D01*
X116498944Y-57559338D01*
X116999054Y-62328084D01*
X117253988Y-64758979D01*
X117268888Y-64759047D01*
X117335836Y-64779038D01*
X117353398Y-64796368D01*
X118093628Y-64796368D01*
X118073883Y-64816113D01*
X118024514Y-64901623D01*
X117998958Y-64996998D01*
X117998958Y-65095738D01*
X118024514Y-65191113D01*
X118073883Y-65276623D01*
X118093628Y-65296368D01*
X117359537Y-65296368D01*
X117417850Y-65437149D01*
X117508138Y-65572274D01*
X117508141Y-65572278D01*
X117623047Y-65687184D01*
X117623051Y-65687187D01*
X117758176Y-65777475D01*
X117758178Y-65777476D01*
X117908309Y-65839662D01*
X117908321Y-65839665D01*
X118067698Y-65871367D01*
X118067702Y-65871368D01*
X118123958Y-65871368D01*
X118123958Y-65326698D01*
X118143703Y-65346443D01*
X118229213Y-65395812D01*
X118324588Y-65421368D01*
X118423328Y-65421368D01*
X118518703Y-65395812D01*
X118604213Y-65346443D01*
X118623958Y-65326698D01*
X118623958Y-65871368D01*
X118680214Y-65871368D01*
X118680217Y-65871367D01*
X118839594Y-65839665D01*
X118839606Y-65839662D01*
X118989737Y-65777476D01*
X118989739Y-65777475D01*
X119124864Y-65687187D01*
X119124868Y-65687184D01*
X119239774Y-65572278D01*
X119239777Y-65572274D01*
X119330065Y-65437149D01*
X119388379Y-65296368D01*
X118654288Y-65296368D01*
X118674033Y-65276623D01*
X118723402Y-65191113D01*
X118748958Y-65095738D01*
X118748958Y-64996998D01*
X118723402Y-64901623D01*
X118674033Y-64816113D01*
X118654288Y-64796368D01*
X119403116Y-64796368D01*
X119423348Y-64779459D01*
X119473404Y-64769155D01*
X122170346Y-64781522D01*
X122204533Y-64786493D01*
X122210846Y-64788337D01*
X122223096Y-64792624D01*
X122288242Y-64819333D01*
X122300675Y-64825258D01*
X122350293Y-64852382D01*
X122363501Y-64860724D01*
X122401813Y-64888449D01*
X122444582Y-64943697D01*
X122446137Y-64947893D01*
X122485617Y-65060719D01*
X122566260Y-65169987D01*
X122675528Y-65250630D01*
X122718027Y-65265501D01*
X122803709Y-65295483D01*
X122834140Y-65298337D01*
X122834144Y-65298337D01*
X123642680Y-65298337D01*
X123673109Y-65295483D01*
X123673111Y-65295483D01*
X123737200Y-65273056D01*
X123801292Y-65250630D01*
X123910560Y-65169987D01*
X123991203Y-65060719D01*
X124013500Y-64996998D01*
X124036055Y-64932541D01*
X124036055Y-64932538D01*
X124036056Y-64932536D01*
X124038818Y-64903078D01*
X124040096Y-64899870D01*
X124039620Y-64896448D01*
X124052932Y-64867648D01*
X124064674Y-64838173D01*
X124067485Y-64836163D01*
X124068936Y-64833026D01*
X124095704Y-64815995D01*
X124121518Y-64797547D01*
X124125833Y-64796827D01*
X124127887Y-64795521D01*
X124162838Y-64790658D01*
X124315180Y-64791357D01*
X124382125Y-64811348D01*
X124427637Y-64864361D01*
X124438066Y-64903775D01*
X124440763Y-64932537D01*
X124440763Y-64932538D01*
X124485616Y-65060717D01*
X124485617Y-65060719D01*
X124566260Y-65169987D01*
X124675528Y-65250630D01*
X124718027Y-65265501D01*
X124803709Y-65295483D01*
X124834140Y-65298337D01*
X124834144Y-65298337D01*
X125642680Y-65298337D01*
X125673109Y-65295483D01*
X125673111Y-65295483D01*
X125737200Y-65273056D01*
X125801292Y-65250630D01*
X125910560Y-65169987D01*
X125991203Y-65060719D01*
X126013629Y-64996627D01*
X126036056Y-64932538D01*
X126036056Y-64932536D01*
X126037959Y-64912247D01*
X126063816Y-64847338D01*
X126120661Y-64806713D01*
X126161981Y-64799825D01*
X126200000Y-64800000D01*
X127172843Y-61987398D01*
X127213359Y-61930478D01*
X127278219Y-61904498D01*
X127322115Y-61908157D01*
X127389596Y-61926237D01*
X127565116Y-61949339D01*
X127653632Y-61949337D01*
X129767681Y-61949337D01*
X129823195Y-61949337D01*
X129869340Y-61949337D01*
X129877718Y-61949337D01*
X129877916Y-61949323D01*
X129911710Y-61949324D01*
X130087226Y-61926218D01*
X130258224Y-61880401D01*
X130421780Y-61812658D01*
X130421796Y-61812648D01*
X130425413Y-61810866D01*
X130426187Y-61812435D01*
X130480676Y-61797837D01*
X132775500Y-61797837D01*
X132842539Y-61817522D01*
X132888294Y-61870326D01*
X132899500Y-61921837D01*
X132899500Y-66595572D01*
X132899184Y-66604418D01*
X132899184Y-66604419D01*
X132884869Y-66804557D01*
X132882351Y-66822068D01*
X132840646Y-67013787D01*
X132835662Y-67030763D01*
X132767090Y-67214609D01*
X132759740Y-67230701D01*
X132665711Y-67402904D01*
X132656146Y-67417789D01*
X132538558Y-67574867D01*
X132526972Y-67588237D01*
X132388237Y-67726972D01*
X132374867Y-67738558D01*
X132217789Y-67856146D01*
X132202904Y-67865711D01*
X132030701Y-67959740D01*
X132014609Y-67967090D01*
X131830763Y-68035662D01*
X131813787Y-68040646D01*
X131622068Y-68082351D01*
X131604557Y-68084869D01*
X131423779Y-68097799D01*
X131404417Y-68099184D01*
X131395572Y-68099500D01*
X90404428Y-68099500D01*
X90395582Y-68099184D01*
X90373622Y-68097613D01*
X90195442Y-68084869D01*
X90177931Y-68082351D01*
X89986212Y-68040646D01*
X89969236Y-68035662D01*
X89785390Y-67967090D01*
X89769298Y-67959740D01*
X89597095Y-67865711D01*
X89582210Y-67856146D01*
X89425132Y-67738558D01*
X89411762Y-67726972D01*
X89273027Y-67588237D01*
X89261441Y-67574867D01*
X89143849Y-67417784D01*
X89134288Y-67402904D01*
X89040259Y-67230701D01*
X89032909Y-67214609D01*
X88972091Y-67051551D01*
X88964334Y-67030755D01*
X88959355Y-67013797D01*
X88917647Y-66822063D01*
X88915130Y-66804556D01*
X88900816Y-66604418D01*
X88900500Y-66595572D01*
X88900500Y-61921837D01*
X88920185Y-61854798D01*
X88972989Y-61809043D01*
X89024500Y-61797837D01*
X93239048Y-61797837D01*
X93306087Y-61817522D01*
X93336840Y-61845596D01*
X94261703Y-63031925D01*
X94270278Y-63053609D01*
X94282885Y-63073224D01*
X94285656Y-63092497D01*
X94287397Y-63096898D01*
X94287910Y-63108158D01*
X94287910Y-63333321D01*
X94287920Y-63333361D01*
X94287921Y-63341328D01*
X94287921Y-63358152D01*
X94287921Y-63373778D01*
X94291460Y-63396127D01*
X94311206Y-63520819D01*
X94315015Y-63544868D01*
X94354886Y-63667589D01*
X94368542Y-63709619D01*
X94447177Y-63863957D01*
X94548991Y-64004096D01*
X94548996Y-64004103D01*
X94574486Y-64029594D01*
X94574517Y-64029627D01*
X94858435Y-64313543D01*
X94931644Y-64386752D01*
X94931646Y-64386756D01*
X94970901Y-64426010D01*
X94970901Y-64426009D01*
X95003528Y-64458636D01*
X95003552Y-64458650D01*
X95029492Y-64484586D01*
X95029492Y-64484587D01*
X95029498Y-64484592D01*
X95032150Y-64487244D01*
X95172286Y-64589059D01*
X95230020Y-64618477D01*
X95326626Y-64667703D01*
X95448203Y-64707207D01*
X95491362Y-64721231D01*
X95542676Y-64729360D01*
X95605810Y-64759291D01*
X95621068Y-64775593D01*
X95638409Y-64797837D01*
X95638409Y-64797836D01*
X95638410Y-64797837D01*
X96974452Y-64783288D01*
X96975418Y-64783422D01*
X96975902Y-64783281D01*
X97010829Y-64788332D01*
X97010959Y-64788370D01*
X97011107Y-64788414D01*
X97023110Y-64792630D01*
X97088235Y-64819330D01*
X97100675Y-64825258D01*
X97150293Y-64852382D01*
X97163501Y-64860724D01*
X97201813Y-64888449D01*
X97244582Y-64943697D01*
X97246137Y-64947893D01*
X97285617Y-65060719D01*
X97366260Y-65169987D01*
X97475528Y-65250630D01*
X97518027Y-65265501D01*
X97603709Y-65295483D01*
X97634140Y-65298337D01*
X97634144Y-65298337D01*
X98442680Y-65298337D01*
X98473109Y-65295483D01*
X98473111Y-65295483D01*
X98537200Y-65273056D01*
X98601292Y-65250630D01*
X98710560Y-65169987D01*
X98791203Y-65060719D01*
X98813629Y-64996627D01*
X98836056Y-64932538D01*
X98836056Y-64932536D01*
X98838910Y-64902106D01*
X98838910Y-64885643D01*
X98841269Y-64877609D01*
X98839987Y-64869333D01*
X98850967Y-64844579D01*
X98858595Y-64818604D01*
X98864922Y-64813120D01*
X98868319Y-64805465D01*
X98890940Y-64790576D01*
X98911399Y-64772849D01*
X98921200Y-64770660D01*
X98926682Y-64767053D01*
X98961553Y-64761651D01*
X99112562Y-64760006D01*
X99179810Y-64778960D01*
X99226137Y-64831263D01*
X99237910Y-64883999D01*
X99237910Y-64902106D01*
X99240763Y-64932536D01*
X99240763Y-64932538D01*
X99285616Y-65060717D01*
X99285617Y-65060719D01*
X99366260Y-65169987D01*
X99475528Y-65250630D01*
X99518027Y-65265501D01*
X99603709Y-65295483D01*
X99634140Y-65298337D01*
X99634144Y-65298337D01*
X100442680Y-65298337D01*
X100473109Y-65295483D01*
X100473111Y-65295483D01*
X100537200Y-65273056D01*
X100601292Y-65250630D01*
X100710560Y-65169987D01*
X100791203Y-65060719D01*
X100813629Y-64996627D01*
X100836056Y-64932538D01*
X100836056Y-64932536D01*
X100838910Y-64902106D01*
X100838910Y-64863865D01*
X100858595Y-64796826D01*
X100911399Y-64751071D01*
X100961556Y-64739872D01*
X102613751Y-64721881D01*
X102600462Y-64735171D01*
X102551093Y-64820681D01*
X102525537Y-64916056D01*
X102525537Y-65014796D01*
X102551093Y-65110171D01*
X102600462Y-65195681D01*
X102620207Y-65215426D01*
X101886116Y-65215426D01*
X101944429Y-65356207D01*
X102034717Y-65491332D01*
X102034720Y-65491336D01*
X102149626Y-65606242D01*
X102149630Y-65606245D01*
X102284755Y-65696533D01*
X102284757Y-65696534D01*
X102434888Y-65758720D01*
X102434900Y-65758723D01*
X102594277Y-65790425D01*
X102594281Y-65790426D01*
X102650537Y-65790426D01*
X102650537Y-65245756D01*
X102670282Y-65265501D01*
X102755792Y-65314870D01*
X102851167Y-65340426D01*
X102949907Y-65340426D01*
X103045282Y-65314870D01*
X103130792Y-65265501D01*
X103150537Y-65245756D01*
X103150537Y-65790426D01*
X103206793Y-65790426D01*
X103206796Y-65790425D01*
X103366173Y-65758723D01*
X103366185Y-65758720D01*
X103516316Y-65696534D01*
X103516318Y-65696533D01*
X103651443Y-65606245D01*
X103651447Y-65606242D01*
X103766353Y-65491336D01*
X103766356Y-65491332D01*
X103856644Y-65356207D01*
X103906795Y-65235134D01*
X103906795Y-65235132D01*
X103914958Y-65215426D01*
X103180867Y-65215426D01*
X103200612Y-65195681D01*
X103249981Y-65110171D01*
X103275537Y-65014796D01*
X103275537Y-64916056D01*
X103249981Y-64820681D01*
X103200612Y-64735171D01*
X103181144Y-64715703D01*
X103206637Y-64715426D01*
X103945916Y-64715426D01*
X103952586Y-64713999D01*
X103961428Y-64707207D01*
X103961430Y-64707207D01*
X104624735Y-62328084D01*
X108987910Y-62328084D01*
X108987910Y-63667589D01*
X108999541Y-63726066D01*
X108999542Y-63726067D01*
X109043857Y-63792389D01*
X109110179Y-63836704D01*
X109110180Y-63836705D01*
X109168657Y-63848336D01*
X109168660Y-63848337D01*
X109168662Y-63848337D01*
X110508160Y-63848337D01*
X110508161Y-63848336D01*
X110522978Y-63845389D01*
X110566639Y-63836705D01*
X110566639Y-63836704D01*
X110566641Y-63836704D01*
X110632962Y-63792389D01*
X110677277Y-63726068D01*
X110677277Y-63726066D01*
X110677278Y-63726066D01*
X110688909Y-63667589D01*
X110688910Y-63667587D01*
X110688910Y-62914065D01*
X110987910Y-62914065D01*
X110987910Y-63081608D01*
X111020592Y-63245911D01*
X111020594Y-63245919D01*
X111084705Y-63400697D01*
X111177783Y-63539999D01*
X111296247Y-63658463D01*
X111372808Y-63709619D01*
X111435547Y-63751540D01*
X111590328Y-63815653D01*
X111752059Y-63847823D01*
X111754638Y-63848336D01*
X111754642Y-63848337D01*
X111754643Y-63848337D01*
X111922178Y-63848337D01*
X111922179Y-63848336D01*
X112086492Y-63815653D01*
X112241273Y-63751540D01*
X112380572Y-63658463D01*
X112499036Y-63539999D01*
X112592113Y-63400700D01*
X112656226Y-63245919D01*
X112688910Y-63081604D01*
X112688910Y-62914070D01*
X112656226Y-62749755D01*
X112592113Y-62594974D01*
X112517248Y-62482931D01*
X112499036Y-62455674D01*
X112380572Y-62337210D01*
X112241270Y-62244132D01*
X112086492Y-62180021D01*
X112086484Y-62180019D01*
X111922181Y-62147337D01*
X111922177Y-62147337D01*
X111754643Y-62147337D01*
X111754638Y-62147337D01*
X111590335Y-62180019D01*
X111590327Y-62180021D01*
X111435549Y-62244132D01*
X111296247Y-62337210D01*
X111177783Y-62455674D01*
X111084705Y-62594976D01*
X111020594Y-62749754D01*
X111020592Y-62749762D01*
X110987910Y-62914065D01*
X110688910Y-62914065D01*
X110688910Y-62328086D01*
X110688909Y-62328084D01*
X110677278Y-62269607D01*
X110677277Y-62269606D01*
X110632962Y-62203284D01*
X110566640Y-62158969D01*
X110566639Y-62158968D01*
X110508162Y-62147337D01*
X110508158Y-62147337D01*
X109168662Y-62147337D01*
X109168657Y-62147337D01*
X109110180Y-62158968D01*
X109110179Y-62158969D01*
X109043857Y-62203284D01*
X108999542Y-62269606D01*
X108999541Y-62269607D01*
X108987910Y-62328084D01*
X104624735Y-62328084D01*
X105957124Y-57549113D01*
X105994089Y-57489826D01*
X106057241Y-57459933D01*
X106067334Y-57458762D01*
X110738410Y-57110437D01*
X111238410Y-55610437D01*
X111874463Y-55610437D01*
X111471351Y-56013546D01*
G37*
G04 #@! TD.AperFunction*
G04 #@! TD*
G04 #@! TA.AperFunction,Conductor*
G04 #@! TO.N,/L_IN*
G36*
X95124939Y-50936981D02*
G01*
X95128351Y-50939338D01*
X95679739Y-51487639D01*
X95683189Y-51495902D01*
X95679785Y-51504185D01*
X95679739Y-51504231D01*
X95129164Y-52051723D01*
X95120881Y-52055127D01*
X95112618Y-52051677D01*
X95109986Y-52047606D01*
X95094116Y-52006110D01*
X95061510Y-51952443D01*
X95010684Y-51894057D01*
X94949378Y-51842203D01*
X94949376Y-51842202D01*
X94949374Y-51842200D01*
X94863332Y-51787380D01*
X94803095Y-51758333D01*
X94769521Y-51742142D01*
X94657651Y-51701746D01*
X94657641Y-51701743D01*
X94657630Y-51701740D01*
X94548116Y-51673659D01*
X94548104Y-51673657D01*
X94384928Y-51654640D01*
X94377107Y-51650279D01*
X94374582Y-51643019D01*
X94374582Y-51364206D01*
X94378009Y-51355933D01*
X94385316Y-51352546D01*
X94481386Y-51344591D01*
X94481389Y-51344590D01*
X94481391Y-51344590D01*
X94544699Y-51328993D01*
X94679289Y-51295837D01*
X94853121Y-51219536D01*
X94982996Y-51129238D01*
X95069136Y-51031559D01*
X95109448Y-50942795D01*
X95115989Y-50936680D01*
X95124939Y-50936981D01*
G37*
G04 #@! TD.AperFunction*
G04 #@! TD*
G04 #@! TA.AperFunction,Conductor*
G04 #@! TO.N,/L_IN*
G36*
X93969545Y-50936305D02*
G01*
X93972337Y-50940350D01*
X93994899Y-50994836D01*
X94030186Y-51050162D01*
X94030188Y-51050165D01*
X94030190Y-51050167D01*
X94083928Y-51110031D01*
X94147994Y-51163225D01*
X94236201Y-51218935D01*
X94297865Y-51248646D01*
X94331626Y-51264914D01*
X94331630Y-51264915D01*
X94331639Y-51264920D01*
X94331647Y-51264923D01*
X94331652Y-51264925D01*
X94442576Y-51305237D01*
X94442585Y-51305240D01*
X94550781Y-51333333D01*
X94550783Y-51333333D01*
X94550797Y-51333337D01*
X94710505Y-51352214D01*
X94718319Y-51356588D01*
X94720832Y-51363833D01*
X94720832Y-51642711D01*
X94717405Y-51650984D01*
X94710149Y-51654367D01*
X94604986Y-51663545D01*
X94404620Y-51714041D01*
X94404618Y-51714042D01*
X94229759Y-51791506D01*
X94229752Y-51791511D01*
X94099576Y-51882469D01*
X94013512Y-51980402D01*
X93973704Y-52068473D01*
X93967174Y-52074600D01*
X93958224Y-52074315D01*
X93954522Y-52071672D01*
X93618004Y-51714041D01*
X93427375Y-51511451D01*
X93424202Y-51503079D01*
X93427375Y-51495418D01*
X93953007Y-50936807D01*
X93961171Y-50933131D01*
X93969545Y-50936305D01*
G37*
G04 #@! TD.AperFunction*
G04 #@! TD*
G04 #@! TA.AperFunction,Conductor*
G04 #@! TO.N,/L_IN*
G36*
X100697730Y-50940250D02*
G01*
X100747000Y-50976282D01*
X100830676Y-51008359D01*
X100830677Y-51008359D01*
X100830679Y-51008360D01*
X100856000Y-51014021D01*
X100932904Y-51031215D01*
X101047149Y-51046397D01*
X101285548Y-51059928D01*
X101493597Y-51061331D01*
X101526686Y-51061261D01*
X101534966Y-51064670D01*
X101538410Y-51072936D01*
X101538410Y-51349944D01*
X101534983Y-51358217D01*
X101527125Y-51361637D01*
X101515386Y-51362053D01*
X101446194Y-51372779D01*
X101371619Y-51395596D01*
X101221783Y-51472907D01*
X101093545Y-51579625D01*
X100998539Y-51703678D01*
X100939377Y-51838811D01*
X100919368Y-51965393D01*
X100914692Y-51973029D01*
X100905985Y-51975122D01*
X100901350Y-51973320D01*
X100889385Y-51965393D01*
X100247760Y-51540292D01*
X100242757Y-51532866D01*
X100244469Y-51524077D01*
X100244853Y-51523531D01*
X100681473Y-50942663D01*
X100689182Y-50938111D01*
X100697730Y-50940250D01*
G37*
G04 #@! TD.AperFunction*
G04 #@! TD*
G04 #@! TA.AperFunction,Conductor*
G04 #@! TO.N,/L_IN*
G36*
X108080683Y-53943465D02*
G01*
X108084094Y-53951123D01*
X108096083Y-54178919D01*
X108112315Y-54269144D01*
X108112317Y-54269151D01*
X108135640Y-54346521D01*
X108135643Y-54346529D01*
X108157626Y-54389681D01*
X108204937Y-54482552D01*
X108306727Y-54626718D01*
X108409963Y-54772354D01*
X108454547Y-54835250D01*
X108456536Y-54843981D01*
X108451768Y-54851561D01*
X108451515Y-54851736D01*
X107940024Y-55194472D01*
X107931243Y-55196230D01*
X107926998Y-55194472D01*
X107415506Y-54851736D01*
X107410541Y-54844284D01*
X107412299Y-54835503D01*
X107412442Y-54835295D01*
X107560295Y-54626716D01*
X107629166Y-54531672D01*
X107713456Y-54389678D01*
X107741799Y-54316114D01*
X107762537Y-54232202D01*
X107778389Y-54103762D01*
X107783156Y-53951370D01*
X107786840Y-53943210D01*
X107794850Y-53940038D01*
X108072410Y-53940038D01*
X108080683Y-53943465D01*
G37*
G04 #@! TD.AperFunction*
G04 #@! TD*
G04 #@! TA.AperFunction,Conductor*
G04 #@! TO.N,/L_IN*
G36*
X97349678Y-50932506D02*
G01*
X97353321Y-50935123D01*
X97612822Y-51210905D01*
X97880537Y-51495417D01*
X97883711Y-51503791D01*
X97880537Y-51511453D01*
X97355240Y-52069707D01*
X97347075Y-52073384D01*
X97338701Y-52070210D01*
X97335942Y-52066244D01*
X97310908Y-52007011D01*
X97274812Y-51950970D01*
X97274805Y-51950960D01*
X97220276Y-51890435D01*
X97207085Y-51879477D01*
X97155538Y-51836655D01*
X97135284Y-51823812D01*
X97067146Y-51780607D01*
X97067144Y-51780606D01*
X96971768Y-51734343D01*
X96901876Y-51708712D01*
X96861973Y-51694079D01*
X96754984Y-51665992D01*
X96754981Y-51665991D01*
X96754975Y-51665990D01*
X96597394Y-51647166D01*
X96589586Y-51642782D01*
X96587082Y-51635549D01*
X96587082Y-51356695D01*
X96590509Y-51348422D01*
X96597803Y-51345036D01*
X96700019Y-51336476D01*
X96901791Y-51287100D01*
X97077694Y-51210905D01*
X97208307Y-51121348D01*
X97294440Y-51024919D01*
X97334167Y-50938264D01*
X97340729Y-50932174D01*
X97349678Y-50932506D01*
G37*
G04 #@! TD.AperFunction*
G04 #@! TD*
G04 #@! TA.AperFunction,Conductor*
G04 #@! TO.N,/L_IN*
G36*
X96261349Y-50940388D02*
G01*
X96263950Y-50944379D01*
X96281952Y-50990445D01*
X96281954Y-50990449D01*
X96315520Y-51045067D01*
X96315525Y-51045073D01*
X96367195Y-51104125D01*
X96367203Y-51104134D01*
X96429256Y-51156594D01*
X96474241Y-51185349D01*
X96515605Y-51211791D01*
X96515609Y-51211793D01*
X96609443Y-51257331D01*
X96609446Y-51257332D01*
X96609452Y-51257335D01*
X96720168Y-51297682D01*
X96828425Y-51325759D01*
X96828427Y-51325759D01*
X96828433Y-51325761D01*
X96989252Y-51344717D01*
X96997067Y-51349089D01*
X96999582Y-51356337D01*
X96999582Y-51635126D01*
X96996155Y-51643399D01*
X96988807Y-51646789D01*
X96895676Y-51654173D01*
X96895661Y-51654175D01*
X96696393Y-51701807D01*
X96696376Y-51701813D01*
X96521513Y-51776833D01*
X96521508Y-51776835D01*
X96391196Y-51865719D01*
X96391193Y-51865722D01*
X96304985Y-51961882D01*
X96304983Y-51961885D01*
X96264757Y-52049199D01*
X96258183Y-52055279D01*
X96249235Y-52054929D01*
X96245881Y-52052599D01*
X95837785Y-51646789D01*
X95694423Y-51504229D01*
X95690974Y-51495968D01*
X95694378Y-51487685D01*
X96244803Y-50940341D01*
X96253086Y-50936938D01*
X96261349Y-50940388D01*
G37*
G04 #@! TD.AperFunction*
G04 #@! TD*
G04 #@! TA.AperFunction,Conductor*
G04 #@! TO.N,/L_IN*
G36*
X91795099Y-50940388D02*
G01*
X91797700Y-50944379D01*
X91815702Y-50990445D01*
X91815704Y-50990449D01*
X91849270Y-51045067D01*
X91849275Y-51045073D01*
X91900945Y-51104125D01*
X91900953Y-51104134D01*
X91963006Y-51156594D01*
X92007991Y-51185349D01*
X92049355Y-51211791D01*
X92049359Y-51211793D01*
X92143193Y-51257331D01*
X92143196Y-51257332D01*
X92143202Y-51257335D01*
X92253918Y-51297682D01*
X92362175Y-51325759D01*
X92362177Y-51325759D01*
X92362183Y-51325761D01*
X92523002Y-51344717D01*
X92530817Y-51349089D01*
X92533332Y-51356337D01*
X92533332Y-51635126D01*
X92529905Y-51643399D01*
X92522557Y-51646789D01*
X92429426Y-51654173D01*
X92429411Y-51654175D01*
X92230143Y-51701807D01*
X92230126Y-51701813D01*
X92055263Y-51776833D01*
X92055258Y-51776835D01*
X91924946Y-51865719D01*
X91924943Y-51865722D01*
X91838735Y-51961882D01*
X91838733Y-51961885D01*
X91798507Y-52049199D01*
X91791933Y-52055279D01*
X91782985Y-52054929D01*
X91779631Y-52052599D01*
X91371535Y-51646789D01*
X91228173Y-51504229D01*
X91224724Y-51495968D01*
X91228128Y-51487685D01*
X91778553Y-50940341D01*
X91786836Y-50936938D01*
X91795099Y-50940388D01*
G37*
G04 #@! TD.AperFunction*
G04 #@! TD*
G04 #@! TA.AperFunction,Conductor*
G04 #@! TO.N,/L_IN*
G36*
X92883428Y-50932506D02*
G01*
X92887071Y-50935123D01*
X93146572Y-51210905D01*
X93414287Y-51495417D01*
X93417461Y-51503791D01*
X93414287Y-51511453D01*
X92888990Y-52069707D01*
X92880825Y-52073384D01*
X92872451Y-52070210D01*
X92869692Y-52066244D01*
X92844658Y-52007011D01*
X92808562Y-51950970D01*
X92808555Y-51950960D01*
X92754026Y-51890435D01*
X92740835Y-51879477D01*
X92689288Y-51836655D01*
X92669034Y-51823812D01*
X92600896Y-51780607D01*
X92600894Y-51780606D01*
X92505518Y-51734343D01*
X92435626Y-51708712D01*
X92395723Y-51694079D01*
X92288734Y-51665992D01*
X92288731Y-51665991D01*
X92288725Y-51665990D01*
X92131144Y-51647166D01*
X92123336Y-51642782D01*
X92120832Y-51635549D01*
X92120832Y-51356695D01*
X92124259Y-51348422D01*
X92131553Y-51345036D01*
X92233769Y-51336476D01*
X92435541Y-51287100D01*
X92611444Y-51210905D01*
X92742057Y-51121348D01*
X92828190Y-51024919D01*
X92867917Y-50938264D01*
X92874479Y-50932174D01*
X92883428Y-50932506D01*
G37*
G04 #@! TD.AperFunction*
G04 #@! TD*
G04 #@! TA.AperFunction,Conductor*
G04 #@! TO.N,/L_IN*
G36*
X98435795Y-50936305D02*
G01*
X98438587Y-50940350D01*
X98461149Y-50994836D01*
X98496436Y-51050162D01*
X98496438Y-51050165D01*
X98496440Y-51050167D01*
X98550178Y-51110031D01*
X98614244Y-51163225D01*
X98702451Y-51218935D01*
X98764115Y-51248646D01*
X98797876Y-51264914D01*
X98797880Y-51264915D01*
X98797889Y-51264920D01*
X98797897Y-51264923D01*
X98797902Y-51264925D01*
X98908826Y-51305237D01*
X98908835Y-51305240D01*
X99017031Y-51333333D01*
X99017033Y-51333333D01*
X99017047Y-51333337D01*
X99176755Y-51352214D01*
X99184569Y-51356588D01*
X99187082Y-51363833D01*
X99187082Y-51642711D01*
X99183655Y-51650984D01*
X99176399Y-51654367D01*
X99071236Y-51663545D01*
X98870870Y-51714041D01*
X98870868Y-51714042D01*
X98696009Y-51791506D01*
X98696002Y-51791511D01*
X98565826Y-51882469D01*
X98479762Y-51980402D01*
X98439954Y-52068473D01*
X98433424Y-52074600D01*
X98424474Y-52074315D01*
X98420772Y-52071672D01*
X98084254Y-51714041D01*
X97893625Y-51511451D01*
X97890452Y-51503079D01*
X97893625Y-51495418D01*
X98419257Y-50936807D01*
X98427421Y-50933131D01*
X98435795Y-50936305D01*
G37*
G04 #@! TD.AperFunction*
G04 #@! TD*
G04 #@! TA.AperFunction,Conductor*
G04 #@! TO.N,/L_IN*
G36*
X99700970Y-50962364D02*
G01*
X99704438Y-50964898D01*
X100231865Y-51525417D01*
X100235039Y-51533791D01*
X100231865Y-51541453D01*
X99706678Y-52099590D01*
X99698513Y-52103267D01*
X99690139Y-52100093D01*
X99686942Y-52094907D01*
X99683960Y-52084873D01*
X99655818Y-52021709D01*
X99617379Y-51963491D01*
X99617375Y-51963487D01*
X99617375Y-51963486D01*
X99560659Y-51901032D01*
X99560657Y-51901030D01*
X99560655Y-51901028D01*
X99494081Y-51845529D01*
X99494078Y-51845527D01*
X99494077Y-51845526D01*
X99405367Y-51788546D01*
X99405362Y-51788543D01*
X99310378Y-51741517D01*
X99310379Y-51741517D01*
X99310368Y-51741512D01*
X99310362Y-51741509D01*
X99310356Y-51741507D01*
X99203966Y-51701430D01*
X99203956Y-51701427D01*
X99203950Y-51701425D01*
X99100494Y-51673386D01*
X99100490Y-51673385D01*
X99100481Y-51673383D01*
X98948681Y-51654699D01*
X98940888Y-51650287D01*
X98938410Y-51643087D01*
X98938410Y-51364310D01*
X98941837Y-51356037D01*
X98949255Y-51352641D01*
X99042125Y-51345849D01*
X99248273Y-51299927D01*
X99427483Y-51227598D01*
X99559510Y-51142250D01*
X99645887Y-51050301D01*
X99685365Y-50967862D01*
X99692029Y-50961881D01*
X99700970Y-50962364D01*
G37*
G04 #@! TD.AperFunction*
G04 #@! TD*
G04 #@! TA.AperFunction,Conductor*
G04 #@! TO.N,/R_IN*
G36*
X128429707Y-50961645D02*
G01*
X128432216Y-50965060D01*
X128462560Y-51027623D01*
X128462561Y-51027624D01*
X128462562Y-51027626D01*
X128507732Y-51081248D01*
X128564168Y-51128871D01*
X128648359Y-51180896D01*
X128742255Y-51223828D01*
X128863656Y-51264505D01*
X128983882Y-51292576D01*
X129168668Y-51312142D01*
X129176533Y-51316421D01*
X129179135Y-51323777D01*
X129179135Y-51602843D01*
X129175708Y-51611116D01*
X129168799Y-51614463D01*
X129042356Y-51629299D01*
X128854488Y-51688459D01*
X128690062Y-51775515D01*
X128566075Y-51877049D01*
X128566068Y-51877056D01*
X128483338Y-51986435D01*
X128483337Y-51986437D01*
X128445178Y-52085502D01*
X128439006Y-52091990D01*
X128430054Y-52092214D01*
X128425905Y-52089487D01*
X127886002Y-51538775D01*
X127882658Y-51530468D01*
X127885835Y-51522567D01*
X128413169Y-50962147D01*
X128421333Y-50958471D01*
X128429707Y-50961645D01*
G37*
G04 #@! TD.AperFunction*
G04 #@! TD*
G04 #@! TA.AperFunction,Conductor*
G04 #@! TO.N,/R_IN*
G36*
X129516980Y-50904255D02*
G01*
X129520335Y-50906586D01*
X130071792Y-51454955D01*
X130075242Y-51463218D01*
X130071838Y-51471501D01*
X130071792Y-51471547D01*
X129521413Y-52018844D01*
X129513130Y-52022248D01*
X129504867Y-52018798D01*
X129502266Y-52014807D01*
X129484265Y-51968740D01*
X129484263Y-51968737D01*
X129484262Y-51968734D01*
X129450696Y-51914118D01*
X129450691Y-51914112D01*
X129399021Y-51855060D01*
X129399020Y-51855059D01*
X129399014Y-51855052D01*
X129336962Y-51802592D01*
X129333339Y-51800276D01*
X129250612Y-51747394D01*
X129250608Y-51747392D01*
X129156773Y-51701854D01*
X129046047Y-51661503D01*
X128937791Y-51633426D01*
X128937793Y-51633426D01*
X128776965Y-51614468D01*
X128769150Y-51610096D01*
X128766635Y-51602848D01*
X128766635Y-51324059D01*
X128770062Y-51315786D01*
X128777408Y-51312396D01*
X128870549Y-51305012D01*
X129069834Y-51257376D01*
X129244708Y-51182351D01*
X129375023Y-51093466D01*
X129461232Y-50997305D01*
X129501459Y-50909985D01*
X129508032Y-50903906D01*
X129516980Y-50904255D01*
G37*
G04 #@! TD.AperFunction*
G04 #@! TD*
G04 #@! TA.AperFunction,Conductor*
G04 #@! TO.N,/R_IN*
G36*
X110080681Y-53943465D02*
G01*
X110084092Y-53951123D01*
X110096081Y-54178919D01*
X110112313Y-54269144D01*
X110112315Y-54269151D01*
X110135638Y-54346521D01*
X110135641Y-54346529D01*
X110157624Y-54389681D01*
X110204935Y-54482552D01*
X110306725Y-54626718D01*
X110409961Y-54772354D01*
X110454545Y-54835250D01*
X110456534Y-54843981D01*
X110451766Y-54851561D01*
X110451513Y-54851736D01*
X109940022Y-55194472D01*
X109931241Y-55196230D01*
X109926996Y-55194472D01*
X109415504Y-54851736D01*
X109410539Y-54844284D01*
X109412297Y-54835503D01*
X109412440Y-54835295D01*
X109560293Y-54626716D01*
X109629164Y-54531672D01*
X109713454Y-54389678D01*
X109741797Y-54316114D01*
X109762535Y-54232202D01*
X109778387Y-54103762D01*
X109783154Y-53951370D01*
X109786838Y-53943210D01*
X109794848Y-53940038D01*
X110072408Y-53940038D01*
X110080681Y-53943465D01*
G37*
G04 #@! TD.AperFunction*
G04 #@! TD*
G04 #@! TA.AperFunction,Conductor*
G04 #@! TO.N,/R_IN*
G36*
X120695057Y-50939595D02*
G01*
X121131894Y-51520752D01*
X121134125Y-51529424D01*
X121129571Y-51537135D01*
X121128931Y-51537583D01*
X120473556Y-51964903D01*
X120464754Y-51966551D01*
X120457365Y-51961492D01*
X120455513Y-51956155D01*
X120450359Y-51899029D01*
X120434128Y-51826774D01*
X120405406Y-51749517D01*
X120367294Y-51678275D01*
X120367291Y-51678271D01*
X120367289Y-51678267D01*
X120367287Y-51678264D01*
X120315592Y-51606259D01*
X120315589Y-51606256D01*
X120315587Y-51606254D01*
X120315583Y-51606248D01*
X120256161Y-51542337D01*
X120185401Y-51482575D01*
X120110683Y-51433194D01*
X120110680Y-51433192D01*
X120110679Y-51433192D01*
X119960429Y-51367423D01*
X119848256Y-51349417D01*
X119840630Y-51344722D01*
X119838410Y-51337865D01*
X119838410Y-51059587D01*
X119841837Y-51051314D01*
X119850108Y-51047887D01*
X119903177Y-51048117D01*
X120274245Y-51040952D01*
X120491098Y-51014761D01*
X120491100Y-51014760D01*
X120491102Y-51014760D01*
X120555786Y-50995435D01*
X120620474Y-50976110D01*
X120679208Y-50936894D01*
X120687990Y-50935151D01*
X120695057Y-50939595D01*
G37*
G04 #@! TD.AperFunction*
G04 #@! TD*
G04 #@! TA.AperFunction,Conductor*
G04 #@! TO.N,/R_IN*
G36*
X123929707Y-50961645D02*
G01*
X123932216Y-50965060D01*
X123962560Y-51027623D01*
X123962561Y-51027624D01*
X123962562Y-51027626D01*
X124007732Y-51081248D01*
X124064168Y-51128871D01*
X124148359Y-51180896D01*
X124242255Y-51223828D01*
X124363656Y-51264505D01*
X124483882Y-51292576D01*
X124668668Y-51312142D01*
X124676533Y-51316421D01*
X124679135Y-51323777D01*
X124679135Y-51602843D01*
X124675708Y-51611116D01*
X124668799Y-51614463D01*
X124542356Y-51629299D01*
X124354488Y-51688459D01*
X124190062Y-51775515D01*
X124066075Y-51877049D01*
X124066068Y-51877056D01*
X123983338Y-51986435D01*
X123983337Y-51986437D01*
X123945178Y-52085502D01*
X123939006Y-52091990D01*
X123930054Y-52092214D01*
X123925905Y-52089487D01*
X123386002Y-51538775D01*
X123382658Y-51530468D01*
X123385835Y-51522567D01*
X123913169Y-50962147D01*
X123921333Y-50958471D01*
X123929707Y-50961645D01*
G37*
G04 #@! TD.AperFunction*
G04 #@! TD*
G04 #@! TA.AperFunction,Conductor*
G04 #@! TO.N,/R_IN*
G36*
X125016980Y-50904255D02*
G01*
X125020335Y-50906586D01*
X125571792Y-51454955D01*
X125575242Y-51463218D01*
X125571838Y-51471501D01*
X125571792Y-51471547D01*
X125021413Y-52018844D01*
X125013130Y-52022248D01*
X125004867Y-52018798D01*
X125002266Y-52014807D01*
X124984265Y-51968740D01*
X124984263Y-51968737D01*
X124984262Y-51968734D01*
X124950696Y-51914118D01*
X124950691Y-51914112D01*
X124899021Y-51855060D01*
X124899020Y-51855059D01*
X124899014Y-51855052D01*
X124836962Y-51802592D01*
X124833339Y-51800276D01*
X124750612Y-51747394D01*
X124750608Y-51747392D01*
X124656773Y-51701854D01*
X124546047Y-51661503D01*
X124437791Y-51633426D01*
X124437793Y-51633426D01*
X124276965Y-51614468D01*
X124269150Y-51610096D01*
X124266635Y-51602848D01*
X124266635Y-51324059D01*
X124270062Y-51315786D01*
X124277408Y-51312396D01*
X124370549Y-51305012D01*
X124569834Y-51257376D01*
X124744708Y-51182351D01*
X124875023Y-51093466D01*
X124961232Y-50997305D01*
X125001459Y-50909985D01*
X125008032Y-50903906D01*
X125016980Y-50904255D01*
G37*
G04 #@! TD.AperFunction*
G04 #@! TD*
G04 #@! TA.AperFunction,Conductor*
G04 #@! TO.N,/R_IN*
G36*
X121687123Y-50963621D02*
G01*
X121689915Y-50967666D01*
X121712477Y-51022152D01*
X121747764Y-51077478D01*
X121747766Y-51077481D01*
X121747768Y-51077483D01*
X121801506Y-51137347D01*
X121865572Y-51190541D01*
X121953779Y-51246251D01*
X122015443Y-51275962D01*
X122049204Y-51292230D01*
X122049208Y-51292231D01*
X122049217Y-51292236D01*
X122049225Y-51292239D01*
X122049230Y-51292241D01*
X122160154Y-51332553D01*
X122160163Y-51332556D01*
X122268359Y-51360649D01*
X122268361Y-51360649D01*
X122268375Y-51360653D01*
X122428083Y-51379530D01*
X122435897Y-51383904D01*
X122438410Y-51391149D01*
X122438410Y-51670027D01*
X122434983Y-51678300D01*
X122427727Y-51681683D01*
X122322564Y-51690861D01*
X122122198Y-51741357D01*
X122122196Y-51741358D01*
X121947337Y-51818822D01*
X121947330Y-51818827D01*
X121817154Y-51909785D01*
X121731090Y-52007718D01*
X121691282Y-52095789D01*
X121684752Y-52101916D01*
X121675802Y-52101631D01*
X121672100Y-52098988D01*
X121335582Y-51741357D01*
X121144953Y-51538767D01*
X121141780Y-51530395D01*
X121144953Y-51522734D01*
X121670585Y-50964123D01*
X121678749Y-50960447D01*
X121687123Y-50963621D01*
G37*
G04 #@! TD.AperFunction*
G04 #@! TD*
G04 #@! TA.AperFunction,Conductor*
G04 #@! TO.N,/R_IN*
G36*
X122841742Y-50959869D02*
G01*
X122845444Y-50962513D01*
X123372590Y-51522733D01*
X123375764Y-51531107D01*
X123372590Y-51538769D01*
X122846961Y-52097377D01*
X122838796Y-52101054D01*
X122830422Y-52097880D01*
X122827630Y-52093835D01*
X122805067Y-52039348D01*
X122769780Y-51984023D01*
X122769778Y-51984021D01*
X122769777Y-51984019D01*
X122716040Y-51924155D01*
X122651973Y-51870961D01*
X122651970Y-51870959D01*
X122563770Y-51815253D01*
X122563764Y-51815250D01*
X122468341Y-51769271D01*
X122468315Y-51769260D01*
X122357391Y-51728948D01*
X122357382Y-51728946D01*
X122249185Y-51700852D01*
X122249165Y-51700848D01*
X122089462Y-51681971D01*
X122081648Y-51677597D01*
X122079135Y-51670352D01*
X122079135Y-51391474D01*
X122082562Y-51383201D01*
X122089816Y-51379818D01*
X122194975Y-51370641D01*
X122194977Y-51370640D01*
X122194982Y-51370640D01*
X122395347Y-51320143D01*
X122395347Y-51320142D01*
X122395350Y-51320142D01*
X122570214Y-51242676D01*
X122700390Y-51151717D01*
X122786452Y-51053786D01*
X122826264Y-50965708D01*
X122832792Y-50959585D01*
X122841742Y-50959869D01*
G37*
G04 #@! TD.AperFunction*
G04 #@! TD*
G04 #@! TA.AperFunction,Conductor*
G04 #@! TO.N,/R_IN*
G36*
X127341742Y-50959869D02*
G01*
X127345444Y-50962513D01*
X127872590Y-51522733D01*
X127875764Y-51531107D01*
X127872590Y-51538769D01*
X127346961Y-52097377D01*
X127338796Y-52101054D01*
X127330422Y-52097880D01*
X127327630Y-52093835D01*
X127305067Y-52039348D01*
X127269780Y-51984023D01*
X127269778Y-51984021D01*
X127269777Y-51984019D01*
X127216040Y-51924155D01*
X127151973Y-51870961D01*
X127151970Y-51870959D01*
X127063770Y-51815253D01*
X127063764Y-51815250D01*
X126968341Y-51769271D01*
X126968315Y-51769260D01*
X126857391Y-51728948D01*
X126857382Y-51728946D01*
X126749185Y-51700852D01*
X126749165Y-51700848D01*
X126589462Y-51681971D01*
X126581648Y-51677597D01*
X126579135Y-51670352D01*
X126579135Y-51391474D01*
X126582562Y-51383201D01*
X126589816Y-51379818D01*
X126694975Y-51370641D01*
X126694977Y-51370640D01*
X126694982Y-51370640D01*
X126895347Y-51320143D01*
X126895347Y-51320142D01*
X126895350Y-51320142D01*
X127070214Y-51242676D01*
X127200390Y-51151717D01*
X127286452Y-51053786D01*
X127326264Y-50965708D01*
X127332792Y-50959585D01*
X127341742Y-50959869D01*
G37*
G04 #@! TD.AperFunction*
G04 #@! TD*
G04 #@! TA.AperFunction,Conductor*
G04 #@! TO.N,/R_IN*
G36*
X126167707Y-50919028D02*
G01*
X126170507Y-50923984D01*
X126175768Y-50943107D01*
X126203567Y-51008044D01*
X126241507Y-51067883D01*
X126296961Y-51131577D01*
X126361913Y-51188155D01*
X126447292Y-51245582D01*
X126447294Y-51245583D01*
X126447300Y-51245587D01*
X126538563Y-51292995D01*
X126639355Y-51332896D01*
X126737415Y-51360857D01*
X126881433Y-51379435D01*
X126889199Y-51383891D01*
X126891635Y-51391038D01*
X126891635Y-51669593D01*
X126888208Y-51677866D01*
X126880491Y-51681280D01*
X126817924Y-51684254D01*
X126817922Y-51684254D01*
X126604728Y-51721143D01*
X126418883Y-51784250D01*
X126283786Y-51860372D01*
X126196689Y-51943069D01*
X126157193Y-52017752D01*
X126150296Y-52023463D01*
X126141380Y-52022625D01*
X126138600Y-52020578D01*
X125900941Y-51784250D01*
X125796860Y-51680751D01*
X125586668Y-51471736D01*
X125583218Y-51463473D01*
X125586622Y-51455190D01*
X125586818Y-51454998D01*
X126151167Y-50918606D01*
X126159523Y-50915392D01*
X126167707Y-50919028D01*
G37*
G04 #@! TD.AperFunction*
G04 #@! TD*
G04 #@! TA.AperFunction,Conductor*
G04 #@! TO.N,/bQ2*
G36*
X90582011Y-53066856D02*
G01*
X91211177Y-53562076D01*
X91215559Y-53569886D01*
X91213135Y-53578506D01*
X91212198Y-53579559D01*
X90663806Y-54125812D01*
X90655526Y-54129223D01*
X90647260Y-54125780D01*
X90644680Y-54121855D01*
X90620180Y-54060380D01*
X90585421Y-54002236D01*
X90585416Y-54002230D01*
X90537173Y-53944655D01*
X90537168Y-53944650D01*
X90481544Y-53895791D01*
X90481539Y-53895787D01*
X90412074Y-53850641D01*
X90412072Y-53850640D01*
X90412069Y-53850638D01*
X90364431Y-53828250D01*
X90338803Y-53816206D01*
X90338795Y-53816203D01*
X90329965Y-53813368D01*
X90261554Y-53791401D01*
X90261551Y-53791400D01*
X90261550Y-53791400D01*
X90217583Y-53783309D01*
X90186934Y-53777670D01*
X90186933Y-53777670D01*
X90075319Y-53779789D01*
X90066982Y-53776520D01*
X90066692Y-53776229D01*
X89942642Y-53647389D01*
X89876212Y-53578394D01*
X89872942Y-53570057D01*
X89876525Y-53561851D01*
X89881838Y-53558919D01*
X89939432Y-53544724D01*
X90151600Y-53462234D01*
X90151602Y-53462232D01*
X90151604Y-53462232D01*
X90334228Y-53357325D01*
X90334227Y-53357325D01*
X90334230Y-53357324D01*
X90461509Y-53251143D01*
X90536694Y-53151045D01*
X90563707Y-53072254D01*
X90569632Y-53065541D01*
X90578570Y-53064982D01*
X90582011Y-53066856D01*
G37*
G04 #@! TD.AperFunction*
G04 #@! TD*
G04 #@! TA.AperFunction,Conductor*
G04 #@! TO.N,/bQ2*
G36*
X91796318Y-53014176D02*
G01*
X91798593Y-53017412D01*
X91823887Y-53070737D01*
X91823889Y-53070739D01*
X91823890Y-53070740D01*
X91823891Y-53070742D01*
X91866655Y-53123470D01*
X91920671Y-53170268D01*
X92002265Y-53221585D01*
X92093859Y-53263917D01*
X92214766Y-53304580D01*
X92335054Y-53332589D01*
X92522856Y-53352333D01*
X92530725Y-53356606D01*
X92533332Y-53363969D01*
X92533332Y-53642943D01*
X92529905Y-53651216D01*
X92522902Y-53654574D01*
X92408159Y-53667105D01*
X92221644Y-53723374D01*
X92221628Y-53723380D01*
X92057726Y-53807897D01*
X92057718Y-53807902D01*
X91934081Y-53907198D01*
X91934080Y-53907199D01*
X91851596Y-54014627D01*
X91851592Y-54014635D01*
X91813349Y-54112792D01*
X91807152Y-54119257D01*
X91798200Y-54119447D01*
X91794387Y-54117026D01*
X91380221Y-53723378D01*
X91228554Y-53579225D01*
X91224919Y-53571042D01*
X91228134Y-53562685D01*
X91228336Y-53562478D01*
X91779772Y-53014129D01*
X91788055Y-53010726D01*
X91796318Y-53014176D01*
G37*
G04 #@! TD.AperFunction*
G04 #@! TD*
G04 #@! TA.AperFunction,Conductor*
G04 #@! TO.N,/bQ2*
G36*
X92883439Y-52932553D02*
G01*
X92887141Y-52935197D01*
X93414287Y-53495417D01*
X93417461Y-53503791D01*
X93414287Y-53511453D01*
X92888658Y-54070061D01*
X92880493Y-54073738D01*
X92872119Y-54070564D01*
X92869327Y-54066519D01*
X92846764Y-54012032D01*
X92811477Y-53956707D01*
X92811475Y-53956705D01*
X92811474Y-53956703D01*
X92757737Y-53896839D01*
X92693670Y-53843645D01*
X92693667Y-53843643D01*
X92605467Y-53787937D01*
X92605461Y-53787934D01*
X92510038Y-53741955D01*
X92510012Y-53741944D01*
X92399088Y-53701632D01*
X92399079Y-53701630D01*
X92290882Y-53673536D01*
X92290862Y-53673532D01*
X92131159Y-53654655D01*
X92123345Y-53650281D01*
X92120832Y-53643036D01*
X92120832Y-53364158D01*
X92124259Y-53355885D01*
X92131513Y-53352502D01*
X92236672Y-53343325D01*
X92236674Y-53343324D01*
X92236679Y-53343324D01*
X92437044Y-53292827D01*
X92437044Y-53292826D01*
X92437047Y-53292826D01*
X92611911Y-53215360D01*
X92742087Y-53124401D01*
X92828149Y-53026470D01*
X92867961Y-52938392D01*
X92874489Y-52932269D01*
X92883439Y-52932553D01*
G37*
G04 #@! TD.AperFunction*
G04 #@! TD*
G04 #@! TA.AperFunction,Conductor*
G04 #@! TO.N,/bQ2*
G36*
X92510684Y-60134476D02*
G01*
X92614645Y-60190983D01*
X92695440Y-60216733D01*
X92695446Y-60216734D01*
X92695449Y-60216735D01*
X92741774Y-60225454D01*
X92785744Y-60233730D01*
X92785754Y-60233730D01*
X92785756Y-60233731D01*
X92895337Y-60242216D01*
X92895338Y-60242216D01*
X92895342Y-60242215D01*
X92895343Y-60242216D01*
X93016447Y-60240090D01*
X93162591Y-60225455D01*
X93308108Y-60200366D01*
X93316842Y-60202337D01*
X93321625Y-60209908D01*
X93321768Y-60212691D01*
X93309793Y-60388609D01*
X93305812Y-60396630D01*
X93299201Y-60399464D01*
X92566106Y-60467498D01*
X92557552Y-60464850D01*
X92554733Y-60461413D01*
X92553398Y-60458945D01*
X92545571Y-60444470D01*
X92524166Y-60431493D01*
X92511861Y-60424032D01*
X92410743Y-60389000D01*
X92360437Y-60373238D01*
X92359187Y-60372766D01*
X92306453Y-60349350D01*
X92300282Y-60342861D01*
X92300508Y-60333909D01*
X92302925Y-60330387D01*
X92496829Y-60136483D01*
X92505101Y-60133057D01*
X92510684Y-60134476D01*
G37*
G04 #@! TD.AperFunction*
G04 #@! TD*
G04 #@! TA.AperFunction,Conductor*
G04 #@! TO.N,/bQ4*
G36*
X123387282Y-53536611D02*
G01*
X123987521Y-54042042D01*
X123991642Y-54049991D01*
X123988935Y-54058527D01*
X123983145Y-54062256D01*
X123936119Y-54075445D01*
X123936110Y-54075449D01*
X123883622Y-54101806D01*
X123883617Y-54101809D01*
X123826731Y-54144987D01*
X123826726Y-54144991D01*
X123776072Y-54198730D01*
X123776070Y-54198732D01*
X123721953Y-54276361D01*
X123677189Y-54362208D01*
X123677181Y-54362227D01*
X123636730Y-54466598D01*
X123608591Y-54569288D01*
X123589691Y-54720502D01*
X123585264Y-54728286D01*
X123578081Y-54730751D01*
X123298603Y-54730751D01*
X123290330Y-54727324D01*
X123287013Y-54720655D01*
X123286992Y-54720502D01*
X123269205Y-54591953D01*
X123208585Y-54423119D01*
X123208583Y-54423115D01*
X123208582Y-54423113D01*
X123123341Y-54282121D01*
X123117763Y-54276357D01*
X123025542Y-54181052D01*
X123025541Y-54181051D01*
X122920013Y-54118968D01*
X122920009Y-54118967D01*
X122827194Y-54098211D01*
X122819868Y-54093061D01*
X122818329Y-54084240D01*
X122821539Y-54078456D01*
X123371542Y-53537222D01*
X123379841Y-53533862D01*
X123387282Y-53536611D01*
G37*
G04 #@! TD.AperFunction*
G04 #@! TD*
G04 #@! TA.AperFunction,Conductor*
G04 #@! TO.N,/bQ4*
G36*
X123927848Y-52963621D02*
G01*
X123930640Y-52967666D01*
X123953202Y-53022152D01*
X123988489Y-53077478D01*
X123988491Y-53077481D01*
X123988493Y-53077483D01*
X124042231Y-53137347D01*
X124106297Y-53190541D01*
X124194504Y-53246251D01*
X124256168Y-53275962D01*
X124289929Y-53292230D01*
X124289933Y-53292231D01*
X124289942Y-53292236D01*
X124289950Y-53292239D01*
X124289955Y-53292241D01*
X124400879Y-53332553D01*
X124400888Y-53332556D01*
X124509084Y-53360649D01*
X124509086Y-53360649D01*
X124509100Y-53360653D01*
X124668808Y-53379530D01*
X124676622Y-53383904D01*
X124679135Y-53391149D01*
X124679135Y-53670027D01*
X124675708Y-53678300D01*
X124668452Y-53681683D01*
X124563289Y-53690861D01*
X124362923Y-53741357D01*
X124362921Y-53741358D01*
X124188062Y-53818822D01*
X124188055Y-53818827D01*
X124057879Y-53909785D01*
X123971815Y-54007718D01*
X123932007Y-54095789D01*
X123925477Y-54101916D01*
X123916527Y-54101631D01*
X123912825Y-54098988D01*
X123576307Y-53741357D01*
X123385678Y-53538767D01*
X123382505Y-53530395D01*
X123385678Y-53522734D01*
X123911310Y-52964123D01*
X123919474Y-52960447D01*
X123927848Y-52963621D01*
G37*
G04 #@! TD.AperFunction*
G04 #@! TD*
G04 #@! TA.AperFunction,Conductor*
G04 #@! TO.N,/bQ4*
G36*
X125016969Y-52979213D02*
G01*
X125020265Y-52981516D01*
X125571792Y-53529955D01*
X125575242Y-53538218D01*
X125571838Y-53546501D01*
X125571792Y-53546547D01*
X125021673Y-54093585D01*
X125013390Y-54096989D01*
X125005127Y-54093539D01*
X125002561Y-54089637D01*
X124982225Y-54038785D01*
X124947826Y-53983439D01*
X124895317Y-53923698D01*
X124895308Y-53923689D01*
X124832557Y-53870643D01*
X124832555Y-53870641D01*
X124832553Y-53870639D01*
X124832551Y-53870638D01*
X124745953Y-53815083D01*
X124652106Y-53769242D01*
X124652107Y-53769242D01*
X124652105Y-53769241D01*
X124542545Y-53728952D01*
X124542525Y-53728945D01*
X124435522Y-53700880D01*
X124435523Y-53700880D01*
X124435517Y-53700879D01*
X124435516Y-53700879D01*
X124388089Y-53695226D01*
X124276950Y-53681980D01*
X124269141Y-53677598D01*
X124266635Y-53670362D01*
X124266635Y-53391598D01*
X124270062Y-53383325D01*
X124277449Y-53379931D01*
X124367575Y-53373103D01*
X124568273Y-53326600D01*
X124744221Y-53252859D01*
X124874990Y-53165388D01*
X124961274Y-53070741D01*
X124961274Y-53070740D01*
X124961276Y-53070738D01*
X124978239Y-53034443D01*
X125001417Y-52984856D01*
X125008023Y-52978814D01*
X125016969Y-52979213D01*
G37*
G04 #@! TD.AperFunction*
G04 #@! TD*
G04 #@! TA.AperFunction,Conductor*
G04 #@! TO.N,/bQ4*
G36*
X125116619Y-60131227D02*
G01*
X125222651Y-60192717D01*
X125301011Y-60218424D01*
X125388875Y-60235300D01*
X125497031Y-60243697D01*
X125616725Y-60241345D01*
X125763006Y-60226180D01*
X125763016Y-60226178D01*
X125763018Y-60226178D01*
X125806895Y-60218424D01*
X125908620Y-60200447D01*
X125917362Y-60202381D01*
X125922176Y-60209932D01*
X125922326Y-60212798D01*
X125909824Y-60388593D01*
X125905818Y-60396602D01*
X125899178Y-60399418D01*
X125166023Y-60463894D01*
X125157481Y-60461205D01*
X125154737Y-60457860D01*
X125146432Y-60442699D01*
X125114881Y-60423411D01*
X125114878Y-60423409D01*
X125019322Y-60389177D01*
X124962003Y-60370254D01*
X124960586Y-60369682D01*
X124911541Y-60346008D01*
X124905581Y-60339326D01*
X124906091Y-60330386D01*
X124908352Y-60327202D01*
X125102479Y-60133075D01*
X125110751Y-60129649D01*
X125116619Y-60131227D01*
G37*
G04 #@! TD.AperFunction*
G04 #@! TD*
G04 #@! TA.AperFunction,Conductor*
G04 #@! TO.N,GND*
G36*
X100336940Y-52636862D02*
G01*
X100340174Y-52643016D01*
X100350969Y-52701644D01*
X100375008Y-52750836D01*
X100375009Y-52750838D01*
X100375010Y-52750839D01*
X100410805Y-52798599D01*
X100459405Y-52845194D01*
X100519017Y-52887662D01*
X100587753Y-52924184D01*
X100665663Y-52954161D01*
X100815705Y-52984217D01*
X100823143Y-52989202D01*
X100824878Y-52997987D01*
X100821278Y-53004345D01*
X100246282Y-53527275D01*
X100237856Y-53530306D01*
X100230538Y-53527275D01*
X99655758Y-53004543D01*
X99651943Y-52996441D01*
X99654974Y-52988015D01*
X99661445Y-52984393D01*
X99795787Y-52958892D01*
X99876461Y-52929772D01*
X99947809Y-52893684D01*
X100056954Y-52808459D01*
X100119019Y-52718505D01*
X100136336Y-52642535D01*
X100141515Y-52635230D01*
X100147743Y-52633435D01*
X100328667Y-52633435D01*
X100336940Y-52636862D01*
G37*
G04 #@! TD.AperFunction*
G04 #@! TD*
G04 #@! TA.AperFunction,Conductor*
G04 #@! TO.N,GND*
G36*
X100520542Y-52689513D02*
G01*
X100527971Y-52694513D01*
X100529690Y-52703301D01*
X100529548Y-52703916D01*
X100511048Y-52775310D01*
X100510588Y-52776714D01*
X100484945Y-52840930D01*
X100484148Y-52842550D01*
X100426579Y-52939819D01*
X100426324Y-52940230D01*
X100400430Y-52980125D01*
X100356073Y-53078915D01*
X100356072Y-53078916D01*
X100343118Y-53144440D01*
X100343118Y-53144445D01*
X100339034Y-53216632D01*
X100335146Y-53224698D01*
X100327353Y-53227671D01*
X100149304Y-53227671D01*
X100141031Y-53224244D01*
X100137634Y-53216804D01*
X100131210Y-53126861D01*
X100131210Y-53126860D01*
X100111874Y-53051658D01*
X100083793Y-52992551D01*
X100083792Y-52992550D01*
X100083791Y-52992547D01*
X100050487Y-52940222D01*
X100050262Y-52939855D01*
X99990294Y-52837503D01*
X99989489Y-52835839D01*
X99965170Y-52773482D01*
X99964744Y-52772162D01*
X99947234Y-52703892D01*
X99948498Y-52695029D01*
X99955660Y-52689654D01*
X99956228Y-52689523D01*
X100236092Y-52632904D01*
X100240728Y-52632904D01*
X100520542Y-52689513D01*
G37*
G04 #@! TD.AperFunction*
G04 #@! TD*
G04 #@! TA.AperFunction,Conductor*
G04 #@! TO.N,GND*
G36*
X121236940Y-52634178D02*
G01*
X121240174Y-52640332D01*
X121250969Y-52698960D01*
X121275008Y-52748152D01*
X121275009Y-52748154D01*
X121275010Y-52748155D01*
X121310805Y-52795915D01*
X121359405Y-52842510D01*
X121419017Y-52884978D01*
X121487753Y-52921500D01*
X121565663Y-52951477D01*
X121715705Y-52981533D01*
X121723143Y-52986518D01*
X121724878Y-52995303D01*
X121721278Y-53001661D01*
X121146282Y-53524591D01*
X121137856Y-53527622D01*
X121130538Y-53524591D01*
X120555758Y-53001859D01*
X120551943Y-52993757D01*
X120554974Y-52985331D01*
X120561445Y-52981709D01*
X120695787Y-52956208D01*
X120776461Y-52927088D01*
X120847809Y-52891000D01*
X120956954Y-52805775D01*
X121019019Y-52715821D01*
X121036336Y-52639851D01*
X121041515Y-52632546D01*
X121047743Y-52630751D01*
X121228667Y-52630751D01*
X121236940Y-52634178D01*
G37*
G04 #@! TD.AperFunction*
G04 #@! TD*
G04 #@! TA.AperFunction,Conductor*
G04 #@! TO.N,GND*
G36*
X121420542Y-52686829D02*
G01*
X121427971Y-52691829D01*
X121429690Y-52700617D01*
X121429548Y-52701232D01*
X121411048Y-52772626D01*
X121410588Y-52774030D01*
X121384945Y-52838246D01*
X121384148Y-52839866D01*
X121326579Y-52937135D01*
X121326324Y-52937546D01*
X121300430Y-52977441D01*
X121256073Y-53076231D01*
X121256072Y-53076232D01*
X121243118Y-53141756D01*
X121243118Y-53141761D01*
X121239034Y-53213948D01*
X121235146Y-53222014D01*
X121227353Y-53224987D01*
X121049304Y-53224987D01*
X121041031Y-53221560D01*
X121037634Y-53214120D01*
X121031210Y-53124177D01*
X121031210Y-53124176D01*
X121011874Y-53048974D01*
X120983793Y-52989867D01*
X120983792Y-52989866D01*
X120983791Y-52989863D01*
X120950487Y-52937538D01*
X120950262Y-52937171D01*
X120890294Y-52834819D01*
X120889489Y-52833155D01*
X120865170Y-52770798D01*
X120864744Y-52769478D01*
X120847234Y-52701208D01*
X120848498Y-52692345D01*
X120855660Y-52686970D01*
X120856228Y-52686839D01*
X121136092Y-52630220D01*
X121140728Y-52630220D01*
X121420542Y-52686829D01*
G37*
G04 #@! TD.AperFunction*
G04 #@! TD*
G04 #@! TA.AperFunction,Conductor*
G04 #@! TO.N,GND*
G36*
X126659584Y-59667524D02*
G01*
X126662276Y-59670594D01*
X126668119Y-59680247D01*
X126693973Y-59695357D01*
X126774473Y-59724647D01*
X126843120Y-59748943D01*
X126850206Y-59751451D01*
X126852125Y-59752332D01*
X126892638Y-59775583D01*
X126898106Y-59782672D01*
X126896961Y-59791554D01*
X126895086Y-59794003D01*
X126701844Y-59987245D01*
X126693571Y-59990672D01*
X126685496Y-59987438D01*
X126682990Y-59985048D01*
X126682986Y-59985045D01*
X126682984Y-59985043D01*
X126634777Y-59948757D01*
X126634766Y-59948751D01*
X126578761Y-59920312D01*
X126507094Y-59897590D01*
X126426125Y-59884232D01*
X126426126Y-59884232D01*
X126326534Y-59880307D01*
X126322084Y-59880132D01*
X126322083Y-59880132D01*
X126322081Y-59880132D01*
X126206453Y-59887678D01*
X126058637Y-59910476D01*
X125911498Y-59944341D01*
X125902667Y-59942857D01*
X125897472Y-59935563D01*
X125897193Y-59932276D01*
X125898431Y-59910478D01*
X125907142Y-59757008D01*
X125911032Y-59748943D01*
X125917536Y-59746043D01*
X126650984Y-59665026D01*
X126659584Y-59667524D01*
G37*
G04 #@! TD.AperFunction*
G04 #@! TD*
G04 #@! TA.AperFunction,Conductor*
G04 #@! TO.N,GND*
G36*
X126967529Y-59843871D02*
G01*
X127024190Y-59893971D01*
X127106362Y-59966630D01*
X127223713Y-60038682D01*
X127343204Y-60110965D01*
X127394643Y-60142082D01*
X127399948Y-60149296D01*
X127398598Y-60158149D01*
X127398336Y-60158561D01*
X127240425Y-60396571D01*
X127237144Y-60399852D01*
X126999257Y-60557682D01*
X126990469Y-60559401D01*
X126983040Y-60554401D01*
X126982706Y-60553869D01*
X126945312Y-60490348D01*
X126944647Y-60489035D01*
X126917343Y-60425555D01*
X126916761Y-60423853D01*
X126888559Y-60314448D01*
X126888465Y-60314051D01*
X126878563Y-60267817D01*
X126839977Y-60166512D01*
X126802753Y-60110970D01*
X126782745Y-60088566D01*
X126754520Y-60056961D01*
X126751566Y-60048508D01*
X126754973Y-60040896D01*
X126951507Y-59844362D01*
X126959779Y-59840936D01*
X126967529Y-59843871D01*
G37*
G04 #@! TD.AperFunction*
G04 #@! TD*
G04 #@! TA.AperFunction,Conductor*
G04 #@! TO.N,GND*
G36*
X95191321Y-60798831D02*
G01*
X95191518Y-60799019D01*
X95193643Y-60801049D01*
X95225515Y-60825177D01*
X95242324Y-60837903D01*
X95242327Y-60837905D01*
X95298925Y-60867008D01*
X95347878Y-60882928D01*
X95371182Y-60890507D01*
X95452839Y-60904762D01*
X95557248Y-60910006D01*
X95637364Y-60905716D01*
X95673241Y-60903796D01*
X95673249Y-60903795D01*
X95673254Y-60903795D01*
X95820380Y-60882929D01*
X95966678Y-60851128D01*
X95975490Y-60852719D01*
X95980596Y-60860076D01*
X95980840Y-60863300D01*
X95969744Y-61038632D01*
X95965801Y-61046672D01*
X95959235Y-61049535D01*
X95225820Y-61123141D01*
X95217246Y-61120557D01*
X95214600Y-61117486D01*
X95208588Y-61107386D01*
X95182460Y-61091852D01*
X95182447Y-61091846D01*
X95101278Y-61061800D01*
X95026846Y-61035081D01*
X95024957Y-61034206D01*
X95000920Y-61020353D01*
X94984142Y-61010682D01*
X94978686Y-61003584D01*
X94979848Y-60994705D01*
X94981708Y-60992278D01*
X95174968Y-60799018D01*
X95183240Y-60795592D01*
X95191321Y-60798831D01*
G37*
G04 #@! TD.AperFunction*
G04 #@! TD*
G04 #@! TA.AperFunction,Conductor*
G04 #@! TO.N,GND*
G36*
X94993944Y-60343429D02*
G01*
X94998898Y-60350888D01*
X94998984Y-60351377D01*
X95017777Y-60474762D01*
X95017910Y-60476524D01*
X95017910Y-60542701D01*
X95020824Y-60567828D01*
X95066204Y-60670602D01*
X95066205Y-60670604D01*
X95126159Y-60730557D01*
X95126563Y-60730982D01*
X95150430Y-60757486D01*
X95153419Y-60765927D01*
X95150008Y-60773588D01*
X94953767Y-60969829D01*
X94945494Y-60973256D01*
X94937461Y-60970062D01*
X94878417Y-60914299D01*
X94764261Y-60806487D01*
X94579838Y-60676363D01*
X94563569Y-60665510D01*
X94545945Y-60653753D01*
X94540966Y-60646312D01*
X94542689Y-60637555D01*
X94699502Y-60401200D01*
X94706925Y-60396204D01*
X94985167Y-60341658D01*
X94993944Y-60343429D01*
G37*
G04 #@! TD.AperFunction*
G04 #@! TD*
G04 #@! TA.AperFunction,Conductor*
G04 #@! TO.N,GND*
G36*
X94055255Y-59631729D02*
G01*
X94058546Y-59635401D01*
X94068574Y-59652978D01*
X94068575Y-59652979D01*
X94103863Y-59672693D01*
X94207974Y-59703495D01*
X94250621Y-59714531D01*
X94251760Y-59714889D01*
X94306104Y-59735118D01*
X94312662Y-59741216D01*
X94312987Y-59750165D01*
X94310295Y-59754356D01*
X94116933Y-59947718D01*
X94108660Y-59951145D01*
X94103557Y-59949974D01*
X94021183Y-59910051D01*
X93943979Y-59888359D01*
X93926894Y-59885910D01*
X93858199Y-59876067D01*
X93858194Y-59876066D01*
X93858188Y-59876066D01*
X93750571Y-59873340D01*
X93750567Y-59873340D01*
X93631124Y-59882292D01*
X93631111Y-59882294D01*
X93631105Y-59882294D01*
X93631104Y-59882295D01*
X93593516Y-59888359D01*
X93475866Y-59907339D01*
X93317811Y-59944388D01*
X93308974Y-59942940D01*
X93303750Y-59935667D01*
X93303444Y-59932734D01*
X93307479Y-59756883D01*
X93311095Y-59748691D01*
X93317336Y-59745598D01*
X94046548Y-59629644D01*
X94055255Y-59631729D01*
G37*
G04 #@! TD.AperFunction*
G04 #@! TD*
G04 #@! TA.AperFunction,Conductor*
G04 #@! TO.N,GND*
G36*
X94429275Y-59846565D02*
G01*
X94566836Y-59967343D01*
X94683149Y-60037173D01*
X94859040Y-60142107D01*
X94864390Y-60149289D01*
X94863094Y-60158149D01*
X94862795Y-60158623D01*
X94704925Y-60396571D01*
X94701644Y-60399852D01*
X94463739Y-60557693D01*
X94454951Y-60559412D01*
X94447522Y-60554412D01*
X94447198Y-60553896D01*
X94409893Y-60490767D01*
X94409243Y-60489497D01*
X94381699Y-60426411D01*
X94381122Y-60424763D01*
X94373552Y-60396571D01*
X94352005Y-60316323D01*
X94351892Y-60315862D01*
X94342075Y-60272184D01*
X94302749Y-60170259D01*
X94265123Y-60114338D01*
X94265121Y-60114336D01*
X94265120Y-60114334D01*
X94216279Y-60059711D01*
X94213320Y-60051261D01*
X94216728Y-60043642D01*
X94413286Y-59847084D01*
X94421558Y-59843658D01*
X94429275Y-59846565D01*
G37*
G04 #@! TD.AperFunction*
G04 #@! TD*
G04 #@! TA.AperFunction,Conductor*
G04 #@! TO.N,GND*
G36*
X127791323Y-60808236D02*
G01*
X127793827Y-60810625D01*
X127793831Y-60810628D01*
X127842049Y-60846920D01*
X127898062Y-60875363D01*
X127969726Y-60898084D01*
X128050694Y-60911442D01*
X128154740Y-60915543D01*
X128270368Y-60907996D01*
X128418192Y-60885196D01*
X128565323Y-60851332D01*
X128574152Y-60852816D01*
X128579347Y-60860110D01*
X128579626Y-60863397D01*
X128569677Y-61038664D01*
X128565787Y-61046730D01*
X128559281Y-61049630D01*
X127825836Y-61130646D01*
X127817236Y-61128148D01*
X127814542Y-61125076D01*
X127808701Y-61115427D01*
X127808700Y-61115426D01*
X127782846Y-61100316D01*
X127739144Y-61084415D01*
X127702348Y-61071027D01*
X127641892Y-61049630D01*
X127626613Y-61044222D01*
X127624693Y-61043340D01*
X127605205Y-61032156D01*
X127584181Y-61020090D01*
X127578713Y-61013001D01*
X127579858Y-61004119D01*
X127581729Y-61001674D01*
X127774975Y-60808428D01*
X127783247Y-60805002D01*
X127791323Y-60808236D01*
G37*
G04 #@! TD.AperFunction*
G04 #@! TD*
G04 #@! TA.AperFunction,Conductor*
G04 #@! TO.N,GND*
G36*
X127493779Y-60241272D02*
G01*
X127494113Y-60241804D01*
X127531507Y-60305325D01*
X127532172Y-60306638D01*
X127559475Y-60370117D01*
X127560057Y-60371819D01*
X127588250Y-60481187D01*
X127588361Y-60481658D01*
X127598255Y-60527854D01*
X127636842Y-60629160D01*
X127636842Y-60629161D01*
X127674068Y-60684704D01*
X127722299Y-60738712D01*
X127725253Y-60747165D01*
X127721845Y-60754778D01*
X127525313Y-60951310D01*
X127517040Y-60954737D01*
X127509290Y-60951802D01*
X127370459Y-60829045D01*
X127370457Y-60829043D01*
X127253106Y-60756991D01*
X127222889Y-60738712D01*
X127082176Y-60653591D01*
X127076871Y-60646377D01*
X127078221Y-60637524D01*
X127078465Y-60637139D01*
X127236395Y-60399100D01*
X127239673Y-60395822D01*
X127477564Y-60237990D01*
X127486350Y-60236272D01*
X127493779Y-60241272D01*
G37*
G04 #@! TD.AperFunction*
G04 #@! TD*
G04 #@! TA.AperFunction,Conductor*
G04 #@! TO.N,VDD*
G36*
X129084992Y-56074050D02*
G01*
X129088701Y-56081044D01*
X129089869Y-56089188D01*
X129107664Y-56149109D01*
X129107665Y-56149111D01*
X129107666Y-56149113D01*
X129135750Y-56204391D01*
X129180379Y-56263836D01*
X129180382Y-56263839D01*
X129180383Y-56263840D01*
X129235138Y-56316777D01*
X129308286Y-56369712D01*
X129311788Y-56372246D01*
X129311791Y-56372247D01*
X129311793Y-56372249D01*
X129395758Y-56418149D01*
X129493852Y-56458367D01*
X129493854Y-56458367D01*
X129493858Y-56458369D01*
X129539502Y-56471700D01*
X129590032Y-56486459D01*
X129590034Y-56486459D01*
X129590037Y-56486460D01*
X129730349Y-56505110D01*
X129738097Y-56509596D01*
X129740506Y-56516707D01*
X129740506Y-56796061D01*
X129737079Y-56804334D01*
X129730180Y-56807680D01*
X129611011Y-56821767D01*
X129433734Y-56877699D01*
X129433731Y-56877701D01*
X129285500Y-56957906D01*
X129179463Y-57050113D01*
X129179462Y-57050114D01*
X129113838Y-57149418D01*
X129090717Y-57235762D01*
X129085267Y-57242868D01*
X129076389Y-57244038D01*
X129070759Y-57240608D01*
X128546665Y-56664332D01*
X128543634Y-56655906D01*
X128546665Y-56648588D01*
X128694113Y-56486459D01*
X129068465Y-56074833D01*
X129076566Y-56071019D01*
X129084992Y-56074050D01*
G37*
G04 #@! TD.AperFunction*
G04 #@! TD*
G04 #@! TA.AperFunction,Conductor*
G04 #@! TO.N,VDD*
G36*
X130297312Y-56035285D02*
G01*
X130831678Y-56589814D01*
X130834951Y-56598150D01*
X130831774Y-56605951D01*
X130304345Y-57166471D01*
X130296180Y-57170148D01*
X130287806Y-57166974D01*
X130285310Y-57163587D01*
X130251634Y-57094587D01*
X130205180Y-57040118D01*
X130147565Y-56991737D01*
X130147563Y-56991736D01*
X130147556Y-56991730D01*
X130062562Y-56939157D01*
X129968210Y-56895769D01*
X129848144Y-56855120D01*
X129811944Y-56846544D01*
X129729572Y-56827030D01*
X129729566Y-56827029D01*
X129729565Y-56827029D01*
X129548858Y-56807584D01*
X129540999Y-56803292D01*
X129538410Y-56795951D01*
X129538410Y-56516904D01*
X129541837Y-56508631D01*
X129548786Y-56505279D01*
X129673281Y-56491121D01*
X129863032Y-56432804D01*
X130029385Y-56346541D01*
X130154956Y-56245803D01*
X130238942Y-56137284D01*
X130278017Y-56039077D01*
X130284258Y-56032658D01*
X130293212Y-56032533D01*
X130297312Y-56035285D01*
G37*
G04 #@! TD.AperFunction*
G04 #@! TD*
G04 #@! TA.AperFunction,Conductor*
G04 #@! TO.N,VDD*
G36*
X103309362Y-55850753D02*
G01*
X103310829Y-55852608D01*
X103627523Y-56349134D01*
X103629083Y-56357952D01*
X103627523Y-56361718D01*
X103311280Y-56857535D01*
X103303942Y-56862667D01*
X103295124Y-56861107D01*
X103292819Y-56859179D01*
X103249601Y-56812336D01*
X103236697Y-56801665D01*
X103174659Y-56750359D01*
X103089871Y-56695900D01*
X103089857Y-56695891D01*
X103052745Y-56677312D01*
X102978140Y-56639962D01*
X102860045Y-56594264D01*
X102860042Y-56594263D01*
X102860034Y-56594260D01*
X102722253Y-56553955D01*
X102722254Y-56553955D01*
X102588280Y-56526082D01*
X102376244Y-56506411D01*
X102368323Y-56502235D01*
X102365625Y-56494761D01*
X102365625Y-56216597D01*
X102369052Y-56208324D01*
X102376719Y-56204913D01*
X102474878Y-56199818D01*
X102474884Y-56199817D01*
X102474891Y-56199817D01*
X102599202Y-56182897D01*
X102839467Y-56123423D01*
X103042082Y-56040692D01*
X103195772Y-55944659D01*
X103292820Y-55850502D01*
X103301142Y-55847201D01*
X103309362Y-55850753D01*
G37*
G04 #@! TD.AperFunction*
G04 #@! TD*
G04 #@! TA.AperFunction,Conductor*
G04 #@! TO.N,VDD*
G36*
X127663731Y-55566801D02*
G01*
X127718726Y-55616786D01*
X127718725Y-55616786D01*
X127718730Y-55616789D01*
X127718734Y-55616793D01*
X127920027Y-55757626D01*
X127947500Y-55771431D01*
X128143255Y-55869799D01*
X128143262Y-55869802D01*
X128143274Y-55869808D01*
X128352854Y-55938934D01*
X128352858Y-55938934D01*
X128352864Y-55938936D01*
X128471036Y-55956460D01*
X128535320Y-55965993D01*
X128673689Y-55957411D01*
X128682157Y-55960320D01*
X128686090Y-55968365D01*
X128685860Y-55971504D01*
X128542488Y-56651121D01*
X128537427Y-56658509D01*
X128535502Y-56659522D01*
X127955614Y-56898755D01*
X127946659Y-56898742D01*
X127940336Y-56892401D01*
X127939475Y-56888677D01*
X127928787Y-56719544D01*
X127902824Y-56595166D01*
X127864829Y-56470510D01*
X127864822Y-56470494D01*
X127864821Y-56470487D01*
X127809452Y-56330656D01*
X127809447Y-56330646D01*
X127809441Y-56330629D01*
X127744149Y-56196135D01*
X127705059Y-56128091D01*
X127668205Y-56063937D01*
X127596821Y-55957411D01*
X127588251Y-55944622D01*
X127583491Y-55938933D01*
X127450215Y-55779641D01*
X127447534Y-55771097D01*
X127450914Y-55763861D01*
X127647590Y-55567185D01*
X127655862Y-55563759D01*
X127663731Y-55566801D01*
G37*
G04 #@! TD.AperFunction*
G04 #@! TD*
G04 #@! TA.AperFunction,Conductor*
G04 #@! TO.N,VDD*
G36*
X92308156Y-56073688D02*
G01*
X92832250Y-56649965D01*
X92835281Y-56658391D01*
X92832250Y-56665709D01*
X92310451Y-57239462D01*
X92302349Y-57243277D01*
X92293923Y-57240246D01*
X92290213Y-57233252D01*
X92289045Y-57225105D01*
X92271251Y-57165184D01*
X92243166Y-57109905D01*
X92243163Y-57109901D01*
X92243162Y-57109899D01*
X92225223Y-57086006D01*
X92198537Y-57050461D01*
X92143781Y-56997523D01*
X92143777Y-56997519D01*
X92067139Y-56942058D01*
X92067123Y-56942047D01*
X91983158Y-56896147D01*
X91885064Y-56855929D01*
X91885060Y-56855928D01*
X91788883Y-56827837D01*
X91648568Y-56809187D01*
X91640819Y-56804700D01*
X91638410Y-56797589D01*
X91638410Y-56518235D01*
X91641837Y-56509962D01*
X91648736Y-56506616D01*
X91685319Y-56502291D01*
X91767905Y-56492529D01*
X91767907Y-56492528D01*
X91767910Y-56492528D01*
X91945185Y-56436597D01*
X92093416Y-56356389D01*
X92199456Y-56264179D01*
X92265079Y-56164878D01*
X92288199Y-56078531D01*
X92293648Y-56071429D01*
X92302526Y-56070258D01*
X92308156Y-56073688D01*
G37*
G04 #@! TD.AperFunction*
G04 #@! TD*
G04 #@! TA.AperFunction,Conductor*
G04 #@! TO.N,VDD*
G36*
X91395526Y-56037037D02*
G01*
X91398629Y-56042180D01*
X91405991Y-56067461D01*
X91405995Y-56067473D01*
X91435713Y-56132920D01*
X91435717Y-56132926D01*
X91475604Y-56193259D01*
X91475613Y-56193271D01*
X91533384Y-56257544D01*
X91600632Y-56314654D01*
X91600633Y-56314655D01*
X91688278Y-56372416D01*
X91688287Y-56372421D01*
X91781629Y-56420112D01*
X91883755Y-56460003D01*
X91982929Y-56487976D01*
X92128193Y-56506531D01*
X92135965Y-56510979D01*
X92138410Y-56518137D01*
X92138410Y-56796806D01*
X92134983Y-56805079D01*
X92127398Y-56808486D01*
X92048335Y-56813145D01*
X92048330Y-56813145D01*
X92048328Y-56813146D01*
X91986943Y-56825022D01*
X91835877Y-56854248D01*
X91835871Y-56854250D01*
X91651749Y-56921290D01*
X91651738Y-56921295D01*
X91517574Y-57001012D01*
X91517570Y-57001015D01*
X91430787Y-57087051D01*
X91391628Y-57163980D01*
X91384821Y-57169798D01*
X91375893Y-57169099D01*
X91372680Y-57166690D01*
X90845055Y-56605961D01*
X90841881Y-56597587D01*
X90845161Y-56589814D01*
X91378983Y-56037320D01*
X91387195Y-56033753D01*
X91395526Y-56037037D01*
G37*
G04 #@! TD.AperFunction*
G04 #@! TD*
G04 #@! TA.AperFunction,Conductor*
G04 #@! TO.N,VDD*
G36*
X93730937Y-55568174D02*
G01*
X93927522Y-55764759D01*
X93930949Y-55773032D01*
X93927746Y-55781075D01*
X93895861Y-55814762D01*
X93816328Y-55911366D01*
X93736109Y-56025441D01*
X93597664Y-56270943D01*
X93501313Y-56509922D01*
X93501309Y-56509932D01*
X93449744Y-56723410D01*
X93439421Y-56890031D01*
X93435489Y-56898076D01*
X93427019Y-56900985D01*
X93423281Y-56900123D01*
X92843413Y-56660899D01*
X92837072Y-56654576D01*
X92836428Y-56652503D01*
X92693227Y-55973693D01*
X92694872Y-55964893D01*
X92702260Y-55959832D01*
X92705983Y-55959654D01*
X92775478Y-55967497D01*
X92864377Y-55966137D01*
X92948070Y-55955019D01*
X92973361Y-55951660D01*
X92973362Y-55951659D01*
X92973367Y-55951659D01*
X93083460Y-55925050D01*
X93210112Y-55881519D01*
X93210120Y-55881515D01*
X93210124Y-55881514D01*
X93261719Y-55858684D01*
X93332510Y-55827363D01*
X93455093Y-55761250D01*
X93565537Y-55690294D01*
X93715244Y-55567402D01*
X93723809Y-55564803D01*
X93730937Y-55568174D01*
G37*
G04 #@! TD.AperFunction*
G04 #@! TD*
G04 #@! TA.AperFunction,Conductor*
G04 #@! TO.N,/bQ1*
G36*
X97894954Y-53509594D02*
G01*
X98468707Y-54031392D01*
X98472522Y-54039494D01*
X98469491Y-54047920D01*
X98462497Y-54051629D01*
X98454353Y-54052797D01*
X98394432Y-54070592D01*
X98394430Y-54070593D01*
X98339154Y-54098676D01*
X98339152Y-54098677D01*
X98339151Y-54098678D01*
X98280926Y-54142391D01*
X98279701Y-54143311D01*
X98226764Y-54198066D01*
X98171303Y-54274705D01*
X98171292Y-54274721D01*
X98125392Y-54358686D01*
X98085174Y-54456780D01*
X98085173Y-54456784D01*
X98057082Y-54552961D01*
X98038432Y-54693277D01*
X98033945Y-54701026D01*
X98026834Y-54703435D01*
X97747480Y-54703435D01*
X97739207Y-54700008D01*
X97735861Y-54693108D01*
X97721774Y-54573939D01*
X97715157Y-54552966D01*
X97665842Y-54396661D01*
X97615382Y-54303405D01*
X97585635Y-54248428D01*
X97493428Y-54142391D01*
X97493427Y-54142390D01*
X97394123Y-54076766D01*
X97307779Y-54053645D01*
X97300673Y-54048195D01*
X97299503Y-54039317D01*
X97302933Y-54033687D01*
X97879210Y-53509594D01*
X97887636Y-53506563D01*
X97894954Y-53509594D01*
G37*
G04 #@! TD.AperFunction*
G04 #@! TD*
G04 #@! TA.AperFunction,Conductor*
G04 #@! TO.N,/bQ1*
G36*
X97340310Y-52944697D02*
G01*
X97880214Y-53495410D01*
X97883558Y-53503717D01*
X97880380Y-53511619D01*
X97353048Y-54072037D01*
X97344883Y-54075714D01*
X97336509Y-54072540D01*
X97334000Y-54069125D01*
X97303656Y-54006561D01*
X97303655Y-54006560D01*
X97303655Y-54006559D01*
X97258486Y-53952938D01*
X97245669Y-53942123D01*
X97202052Y-53905317D01*
X97202050Y-53905316D01*
X97202049Y-53905315D01*
X97117859Y-53853290D01*
X97023962Y-53810358D01*
X96902561Y-53769681D01*
X96782335Y-53741610D01*
X96782333Y-53741609D01*
X96782330Y-53741609D01*
X96597550Y-53722043D01*
X96589684Y-53717764D01*
X96587082Y-53710408D01*
X96587082Y-53431342D01*
X96590509Y-53423069D01*
X96597419Y-53419722D01*
X96723864Y-53404885D01*
X96911731Y-53345726D01*
X97076151Y-53258673D01*
X97200142Y-53157135D01*
X97200145Y-53157130D01*
X97200148Y-53157128D01*
X97282877Y-53047749D01*
X97282879Y-53047747D01*
X97321037Y-52948682D01*
X97327208Y-52942194D01*
X97336160Y-52941970D01*
X97340310Y-52944697D01*
G37*
G04 #@! TD.AperFunction*
G04 #@! TD*
G04 #@! TA.AperFunction,Conductor*
G04 #@! TO.N,/bQ1*
G36*
X96261349Y-53015388D02*
G01*
X96263950Y-53019379D01*
X96281952Y-53065445D01*
X96281954Y-53065449D01*
X96315520Y-53120067D01*
X96315525Y-53120073D01*
X96367195Y-53179125D01*
X96367203Y-53179134D01*
X96429256Y-53231594D01*
X96474241Y-53260349D01*
X96515605Y-53286791D01*
X96515609Y-53286793D01*
X96609443Y-53332331D01*
X96609446Y-53332332D01*
X96609452Y-53332335D01*
X96720168Y-53372682D01*
X96828425Y-53400759D01*
X96828427Y-53400759D01*
X96828433Y-53400761D01*
X96989252Y-53419717D01*
X96997067Y-53424089D01*
X96999582Y-53431337D01*
X96999582Y-53710126D01*
X96996155Y-53718399D01*
X96988807Y-53721789D01*
X96895676Y-53729173D01*
X96895661Y-53729175D01*
X96696393Y-53776807D01*
X96696376Y-53776813D01*
X96521513Y-53851833D01*
X96521508Y-53851835D01*
X96391196Y-53940719D01*
X96391193Y-53940722D01*
X96304985Y-54036882D01*
X96304983Y-54036885D01*
X96264757Y-54124199D01*
X96258183Y-54130279D01*
X96249235Y-54129929D01*
X96245881Y-54127599D01*
X95837785Y-53721789D01*
X95694423Y-53579229D01*
X95690974Y-53570968D01*
X95694378Y-53562685D01*
X96244803Y-53015341D01*
X96253086Y-53011938D01*
X96261349Y-53015388D01*
G37*
G04 #@! TD.AperFunction*
G04 #@! TD*
G04 #@! TA.AperFunction,Conductor*
G04 #@! TO.N,/bQ1*
G36*
X96791114Y-60123627D02*
G01*
X96980467Y-60320328D01*
X96983736Y-60328665D01*
X96980152Y-60336871D01*
X96975930Y-60339476D01*
X96882996Y-60372254D01*
X96882524Y-60372409D01*
X96801697Y-60397115D01*
X96736402Y-60429580D01*
X96736400Y-60429582D01*
X96722112Y-60454483D01*
X96715022Y-60459953D01*
X96710995Y-60460320D01*
X95977647Y-60399357D01*
X95969686Y-60395256D01*
X95966948Y-60388566D01*
X95962488Y-60328665D01*
X95953800Y-60211971D01*
X95956603Y-60203467D01*
X95964599Y-60199435D01*
X95966819Y-60199481D01*
X96208840Y-60227772D01*
X96446118Y-60222984D01*
X96635379Y-60184458D01*
X96714552Y-60154330D01*
X96777247Y-60121384D01*
X96786162Y-60120570D01*
X96791114Y-60123627D01*
G37*
G04 #@! TD.AperFunction*
G04 #@! TD*
G04 #@! TA.AperFunction,Conductor*
G04 #@! TO.N,/bQ3*
G36*
X130653402Y-52982704D02*
G01*
X130656003Y-52986695D01*
X130674005Y-53032761D01*
X130674007Y-53032765D01*
X130707573Y-53087383D01*
X130707578Y-53087389D01*
X130759248Y-53146441D01*
X130759256Y-53146450D01*
X130821309Y-53198910D01*
X130866294Y-53227665D01*
X130907658Y-53254107D01*
X130907662Y-53254109D01*
X131001496Y-53299647D01*
X131001499Y-53299648D01*
X131001505Y-53299651D01*
X131112221Y-53339998D01*
X131220478Y-53368075D01*
X131220480Y-53368075D01*
X131220486Y-53368077D01*
X131381305Y-53387033D01*
X131389120Y-53391405D01*
X131391635Y-53398653D01*
X131391635Y-53677442D01*
X131388208Y-53685715D01*
X131380860Y-53689105D01*
X131287729Y-53696489D01*
X131287714Y-53696491D01*
X131088446Y-53744123D01*
X131088429Y-53744129D01*
X130913566Y-53819149D01*
X130913561Y-53819151D01*
X130783249Y-53908035D01*
X130783246Y-53908038D01*
X130697038Y-54004198D01*
X130697036Y-54004201D01*
X130656810Y-54091515D01*
X130650236Y-54097595D01*
X130641288Y-54097245D01*
X130637934Y-54094915D01*
X130229838Y-53689105D01*
X130086476Y-53546545D01*
X130083027Y-53538284D01*
X130086431Y-53530001D01*
X130636856Y-52982657D01*
X130645139Y-52979254D01*
X130653402Y-52982704D01*
G37*
G04 #@! TD.AperFunction*
G04 #@! TD*
G04 #@! TA.AperFunction,Conductor*
G04 #@! TO.N,/bQ3*
G36*
X128427848Y-52963621D02*
G01*
X128430640Y-52967666D01*
X128453202Y-53022152D01*
X128488489Y-53077478D01*
X128488491Y-53077481D01*
X128488493Y-53077483D01*
X128542231Y-53137347D01*
X128606297Y-53190541D01*
X128694504Y-53246251D01*
X128756168Y-53275962D01*
X128789929Y-53292230D01*
X128789933Y-53292231D01*
X128789942Y-53292236D01*
X128789950Y-53292239D01*
X128789955Y-53292241D01*
X128900879Y-53332553D01*
X128900888Y-53332556D01*
X129009084Y-53360649D01*
X129009086Y-53360649D01*
X129009100Y-53360653D01*
X129168808Y-53379530D01*
X129176622Y-53383904D01*
X129179135Y-53391149D01*
X129179135Y-53670027D01*
X129175708Y-53678300D01*
X129168452Y-53681683D01*
X129063289Y-53690861D01*
X128862923Y-53741357D01*
X128862921Y-53741358D01*
X128688062Y-53818822D01*
X128688055Y-53818827D01*
X128557879Y-53909785D01*
X128471815Y-54007718D01*
X128432007Y-54095789D01*
X128425477Y-54101916D01*
X128416527Y-54101631D01*
X128412825Y-54098988D01*
X128076307Y-53741357D01*
X127885678Y-53538767D01*
X127882505Y-53530395D01*
X127885678Y-53522734D01*
X128411310Y-52964123D01*
X128419474Y-52960447D01*
X128427848Y-52963621D01*
G37*
G04 #@! TD.AperFunction*
G04 #@! TD*
G04 #@! TA.AperFunction,Conductor*
G04 #@! TO.N,/bQ3*
G36*
X129516969Y-52979213D02*
G01*
X129520265Y-52981516D01*
X130071792Y-53529955D01*
X130075242Y-53538218D01*
X130071838Y-53546501D01*
X130071792Y-53546547D01*
X129521673Y-54093585D01*
X129513390Y-54096989D01*
X129505127Y-54093539D01*
X129502561Y-54089637D01*
X129482225Y-54038785D01*
X129447826Y-53983439D01*
X129395317Y-53923698D01*
X129395308Y-53923689D01*
X129332557Y-53870643D01*
X129332555Y-53870641D01*
X129332553Y-53870639D01*
X129332551Y-53870638D01*
X129245953Y-53815083D01*
X129152106Y-53769242D01*
X129152107Y-53769242D01*
X129152105Y-53769241D01*
X129042545Y-53728952D01*
X129042525Y-53728945D01*
X128935522Y-53700880D01*
X128935523Y-53700880D01*
X128935517Y-53700879D01*
X128935516Y-53700879D01*
X128888089Y-53695226D01*
X128776950Y-53681980D01*
X128769141Y-53677598D01*
X128766635Y-53670362D01*
X128766635Y-53391598D01*
X128770062Y-53383325D01*
X128777449Y-53379931D01*
X128867575Y-53373103D01*
X129068273Y-53326600D01*
X129244221Y-53252859D01*
X129374990Y-53165388D01*
X129461274Y-53070741D01*
X129461274Y-53070740D01*
X129461276Y-53070738D01*
X129478239Y-53034443D01*
X129501417Y-52984856D01*
X129508023Y-52978814D01*
X129516969Y-52979213D01*
G37*
G04 #@! TD.AperFunction*
G04 #@! TD*
G04 #@! TA.AperFunction,Conductor*
G04 #@! TO.N,/bQ3*
G36*
X129376009Y-60140632D02*
G01*
X129570382Y-60335005D01*
X129573809Y-60343278D01*
X129570382Y-60351551D01*
X129567327Y-60353750D01*
X129531015Y-60371843D01*
X129529455Y-60372484D01*
X129459450Y-60395528D01*
X129459350Y-60395561D01*
X129407451Y-60412128D01*
X129407447Y-60412129D01*
X129407446Y-60412130D01*
X129391839Y-60419164D01*
X129336344Y-60444176D01*
X129322300Y-60465062D01*
X129314839Y-60470015D01*
X129311469Y-60470179D01*
X128577602Y-60399497D01*
X128569696Y-60395293D01*
X128567049Y-60388620D01*
X128565986Y-60372484D01*
X128555487Y-60213082D01*
X128558363Y-60204602D01*
X128566393Y-60200639D01*
X128569461Y-60200842D01*
X128635479Y-60214091D01*
X128898703Y-60245885D01*
X129100001Y-60238198D01*
X129253268Y-60199624D01*
X129362019Y-60138697D01*
X129370910Y-60137644D01*
X129376009Y-60140632D01*
G37*
G04 #@! TD.AperFunction*
G04 #@! TD*
G04 #@! TA.AperFunction,Conductor*
G04 #@! TO.N,/O1*
G36*
X99049903Y-62023319D02*
G01*
X99050014Y-62023551D01*
X99418508Y-62814335D01*
X99418896Y-62823282D01*
X99413419Y-62829595D01*
X99339752Y-62868977D01*
X99339750Y-62868979D01*
X99303801Y-62907028D01*
X99303796Y-62907034D01*
X99278796Y-62950325D01*
X99278794Y-62950330D01*
X99260372Y-63010947D01*
X99260370Y-63010957D01*
X99255016Y-63072206D01*
X99260731Y-63135816D01*
X99272905Y-63181328D01*
X99271732Y-63190205D01*
X99269875Y-63192624D01*
X99075271Y-63387228D01*
X99066998Y-63390655D01*
X99058725Y-63387228D01*
X99056071Y-63383137D01*
X99038985Y-63338495D01*
X99038983Y-63338491D01*
X99037093Y-63334268D01*
X98950568Y-63140863D01*
X98866970Y-63008038D01*
X98793706Y-62936503D01*
X98793705Y-62936502D01*
X98738032Y-62913981D01*
X98731648Y-62907702D01*
X98731341Y-62899373D01*
X99028331Y-62024729D01*
X99034235Y-62017999D01*
X99043171Y-62017414D01*
X99049903Y-62023319D01*
G37*
G04 #@! TD.AperFunction*
G04 #@! TD*
G04 #@! TA.AperFunction,Conductor*
G04 #@! TO.N,/O1*
G36*
X99186040Y-62766085D02*
G01*
X99189415Y-62773253D01*
X99197007Y-62853278D01*
X99220985Y-62916178D01*
X99257621Y-62962609D01*
X99304194Y-63003824D01*
X99304224Y-63003850D01*
X99353411Y-63046788D01*
X99354649Y-63048045D01*
X99433131Y-63140815D01*
X99435858Y-63149345D01*
X99431756Y-63157304D01*
X99430726Y-63158082D01*
X99194094Y-63317143D01*
X99189812Y-63318916D01*
X98910100Y-63373603D01*
X98901323Y-63371827D01*
X98896372Y-63364365D01*
X98896257Y-63363661D01*
X98890253Y-63318463D01*
X98869199Y-63159978D01*
X98869111Y-63157912D01*
X98876209Y-63005953D01*
X98880711Y-62916178D01*
X98887853Y-62773772D01*
X98891690Y-62765681D01*
X98899538Y-62762658D01*
X99177767Y-62762658D01*
X99186040Y-62766085D01*
G37*
G04 #@! TD.AperFunction*
G04 #@! TD*
G04 #@! TA.AperFunction,Conductor*
G04 #@! TO.N,/O2*
G36*
X122499555Y-62013859D02*
G01*
X122876070Y-62095139D01*
X122883434Y-62100235D01*
X122885301Y-62106564D01*
X122886240Y-63037495D01*
X122882821Y-63045772D01*
X122875989Y-63049117D01*
X122847027Y-63052732D01*
X122842303Y-63053322D01*
X122842302Y-63053322D01*
X122842298Y-63053323D01*
X122795111Y-63073048D01*
X122695298Y-63144393D01*
X122595422Y-63240194D01*
X122595420Y-63240195D01*
X122504050Y-63338816D01*
X122504027Y-63338840D01*
X122436889Y-63410886D01*
X122428741Y-63414603D01*
X122420353Y-63411470D01*
X122420056Y-63411183D01*
X122224638Y-63215765D01*
X122221211Y-63207492D01*
X122224508Y-63199352D01*
X122228752Y-63194975D01*
X122283527Y-63128018D01*
X122332847Y-63049906D01*
X122379586Y-62954232D01*
X122419275Y-62847829D01*
X122452805Y-62726502D01*
X122477827Y-62596071D01*
X122494025Y-62456622D01*
X122500712Y-62310624D01*
X122485407Y-62025924D01*
X122488385Y-62017480D01*
X122496462Y-62013614D01*
X122499555Y-62013859D01*
G37*
G04 #@! TD.AperFunction*
G04 #@! TD*
G04 #@! TA.AperFunction,Conductor*
G04 #@! TO.N,/O2*
G36*
X122560421Y-62879472D02*
G01*
X122756795Y-63075846D01*
X122760222Y-63084119D01*
X122757199Y-63091967D01*
X122695622Y-63160047D01*
X122695621Y-63160048D01*
X122650921Y-63224539D01*
X122599688Y-63340347D01*
X122599679Y-63340368D01*
X122573096Y-63409046D01*
X122572441Y-63410454D01*
X122493974Y-63553356D01*
X122486988Y-63558959D01*
X122478087Y-63557981D01*
X122477250Y-63557474D01*
X122239675Y-63399852D01*
X122236394Y-63396571D01*
X122079470Y-63160049D01*
X122078651Y-63158815D01*
X122076933Y-63150028D01*
X122081933Y-63142599D01*
X122082563Y-63142209D01*
X122198041Y-63076210D01*
X122199449Y-63075527D01*
X122295893Y-63036561D01*
X122417616Y-62981802D01*
X122479593Y-62937899D01*
X122544277Y-62879087D01*
X122552704Y-62876058D01*
X122560421Y-62879472D01*
G37*
G04 #@! TD.AperFunction*
G04 #@! TD*
G04 #@! TA.AperFunction,Conductor*
G04 #@! TO.N,Net-(Q1A-C1)*
G36*
X96308156Y-56073688D02*
G01*
X96832250Y-56649965D01*
X96835281Y-56658391D01*
X96832250Y-56665709D01*
X96310451Y-57239462D01*
X96302349Y-57243277D01*
X96293923Y-57240246D01*
X96290213Y-57233252D01*
X96289045Y-57225105D01*
X96271251Y-57165184D01*
X96243166Y-57109905D01*
X96243163Y-57109901D01*
X96243162Y-57109899D01*
X96225223Y-57086006D01*
X96198537Y-57050461D01*
X96143781Y-56997523D01*
X96143777Y-56997519D01*
X96067139Y-56942058D01*
X96067123Y-56942047D01*
X95983158Y-56896147D01*
X95885064Y-56855929D01*
X95885060Y-56855928D01*
X95788883Y-56827837D01*
X95648568Y-56809187D01*
X95640819Y-56804700D01*
X95638410Y-56797589D01*
X95638410Y-56518235D01*
X95641837Y-56509962D01*
X95648736Y-56506616D01*
X95685319Y-56502291D01*
X95767905Y-56492529D01*
X95767907Y-56492528D01*
X95767910Y-56492528D01*
X95945185Y-56436597D01*
X96093416Y-56356389D01*
X96199456Y-56264179D01*
X96265079Y-56164878D01*
X96288199Y-56078531D01*
X96293648Y-56071429D01*
X96302526Y-56070258D01*
X96308156Y-56073688D01*
G37*
G04 #@! TD.AperFunction*
G04 #@! TD*
G04 #@! TA.AperFunction,Conductor*
G04 #@! TO.N,Net-(Q1A-C1)*
G36*
X95382896Y-56075427D02*
G01*
X95386605Y-56082421D01*
X95387773Y-56090565D01*
X95405568Y-56150486D01*
X95405569Y-56150488D01*
X95405570Y-56150490D01*
X95433654Y-56205768D01*
X95478283Y-56265213D01*
X95478286Y-56265216D01*
X95478287Y-56265217D01*
X95533042Y-56318154D01*
X95606190Y-56371089D01*
X95609692Y-56373623D01*
X95609695Y-56373624D01*
X95609697Y-56373626D01*
X95693662Y-56419526D01*
X95791756Y-56459744D01*
X95791758Y-56459744D01*
X95791762Y-56459746D01*
X95837406Y-56473077D01*
X95887936Y-56487836D01*
X95887938Y-56487836D01*
X95887941Y-56487837D01*
X96028253Y-56506487D01*
X96036001Y-56510973D01*
X96038410Y-56518084D01*
X96038410Y-56797438D01*
X96034983Y-56805711D01*
X96028084Y-56809057D01*
X95908915Y-56823144D01*
X95731638Y-56879076D01*
X95731635Y-56879078D01*
X95583404Y-56959283D01*
X95477367Y-57051490D01*
X95477366Y-57051491D01*
X95411742Y-57150795D01*
X95388621Y-57237139D01*
X95383171Y-57244245D01*
X95374293Y-57245415D01*
X95368663Y-57241985D01*
X94844569Y-56665709D01*
X94841538Y-56657283D01*
X94844569Y-56649965D01*
X94992017Y-56487836D01*
X95366369Y-56076210D01*
X95374470Y-56072396D01*
X95382896Y-56075427D01*
G37*
G04 #@! TD.AperFunction*
G04 #@! TD*
G04 #@! TA.AperFunction,Conductor*
G04 #@! TO.N,Net-(Q1A-C1)*
G36*
X94846935Y-56664914D02*
G01*
X94847669Y-56665549D01*
X95408917Y-57193663D01*
X95412594Y-57201827D01*
X95409420Y-57210201D01*
X95407620Y-57211760D01*
X95357925Y-57246636D01*
X95357920Y-57246642D01*
X95316389Y-57302055D01*
X95316385Y-57302062D01*
X95281900Y-57371722D01*
X95242772Y-57492229D01*
X95242771Y-57492232D01*
X95215728Y-57623882D01*
X95215726Y-57623894D01*
X95194326Y-57808577D01*
X95194325Y-57808600D01*
X95188855Y-57946600D01*
X95185103Y-57954731D01*
X95177164Y-57957837D01*
X94899411Y-57957837D01*
X94891138Y-57954410D01*
X94887766Y-57947275D01*
X94885806Y-57927224D01*
X94881361Y-57881727D01*
X94862125Y-57801536D01*
X94792435Y-57637958D01*
X94694950Y-57497629D01*
X94582171Y-57393409D01*
X94542451Y-57371722D01*
X94460103Y-57326760D01*
X94352967Y-57302061D01*
X94347795Y-57300868D01*
X94340504Y-57295671D01*
X94339023Y-57286840D01*
X94341263Y-57282190D01*
X94830496Y-56666791D01*
X94838326Y-56662449D01*
X94846935Y-56664914D01*
G37*
G04 #@! TD.AperFunction*
G04 #@! TD*
G04 #@! TA.AperFunction,Conductor*
G04 #@! TO.N,Net-(Q1A-C1)*
G36*
X95162162Y-59505175D02*
G01*
X95263490Y-59554401D01*
X95326712Y-59572611D01*
X95346142Y-59578208D01*
X95346976Y-59578448D01*
X95346977Y-59578448D01*
X95346979Y-59578449D01*
X95439825Y-59593634D01*
X95475728Y-59595660D01*
X95550897Y-59599903D01*
X95550903Y-59599903D01*
X95550921Y-59599904D01*
X95623951Y-59597243D01*
X95673343Y-59595445D01*
X95673347Y-59595444D01*
X95673360Y-59595444D01*
X95819511Y-59578211D01*
X95964941Y-59550614D01*
X95973706Y-59552438D01*
X95978615Y-59559928D01*
X95978804Y-59562717D01*
X95969644Y-59738676D01*
X95965792Y-59746760D01*
X95959336Y-59749687D01*
X95226302Y-59836509D01*
X95217683Y-59834079D01*
X95214635Y-59830454D01*
X95204735Y-59812125D01*
X95204733Y-59812124D01*
X95204733Y-59812123D01*
X95168974Y-59791393D01*
X95168972Y-59791392D01*
X95168970Y-59791391D01*
X95090548Y-59766839D01*
X95062853Y-59758169D01*
X95062536Y-59758064D01*
X94964449Y-59724253D01*
X94957744Y-59718317D01*
X94957201Y-59709379D01*
X94959802Y-59705110D01*
X95148593Y-59507613D01*
X95156785Y-59504002D01*
X95162162Y-59505175D01*
G37*
G04 #@! TD.AperFunction*
G04 #@! TD*
G04 #@! TA.AperFunction,Conductor*
G04 #@! TO.N,Net-(Q1B-C2)*
G36*
X90846092Y-58604008D02*
G01*
X91420100Y-59125086D01*
X91423922Y-59133184D01*
X91420899Y-59141613D01*
X91414291Y-59145092D01*
X91414323Y-59145257D01*
X91413971Y-59145323D01*
X91350369Y-59161427D01*
X91350363Y-59161429D01*
X91291838Y-59187538D01*
X91291833Y-59187541D01*
X91230282Y-59228560D01*
X91175602Y-59279021D01*
X91119745Y-59348041D01*
X91073618Y-59423628D01*
X91073613Y-59423636D01*
X91034091Y-59510177D01*
X91006459Y-59595446D01*
X91006458Y-59595451D01*
X90988008Y-59723466D01*
X90983436Y-59731166D01*
X90978710Y-59733272D01*
X90704983Y-59787713D01*
X90696201Y-59785966D01*
X90691226Y-59778520D01*
X90691085Y-59777633D01*
X90677675Y-59666006D01*
X90655090Y-59595451D01*
X90621558Y-59490696D01*
X90540538Y-59343133D01*
X90447257Y-59237196D01*
X90447256Y-59237195D01*
X90346874Y-59171532D01*
X90346873Y-59171531D01*
X90259647Y-59148352D01*
X90252532Y-59142915D01*
X90251344Y-59134039D01*
X90254772Y-59128396D01*
X90830351Y-58604021D01*
X90838772Y-58600984D01*
X90846092Y-58604008D01*
G37*
G04 #@! TD.AperFunction*
G04 #@! TD*
G04 #@! TA.AperFunction,Conductor*
G04 #@! TO.N,Net-(Q1B-C2)*
G36*
X92665258Y-60849941D02*
G01*
X93273006Y-61036653D01*
X93279908Y-61042358D01*
X93280754Y-61051273D01*
X93275049Y-61058175D01*
X93273006Y-61059021D01*
X92665249Y-61245735D01*
X92656334Y-61244889D01*
X92653423Y-61242706D01*
X92616823Y-61205051D01*
X92556915Y-61187468D01*
X92556913Y-61187467D01*
X92556911Y-61187467D01*
X92552397Y-61187387D01*
X92488451Y-61186259D01*
X92421308Y-61192610D01*
X92421175Y-61192622D01*
X92371079Y-61196784D01*
X92362550Y-61194054D01*
X92358450Y-61186093D01*
X92358410Y-61185124D01*
X92358410Y-60910549D01*
X92361837Y-60902276D01*
X92370110Y-60898849D01*
X92371064Y-60898888D01*
X92421226Y-60903056D01*
X92548146Y-60909115D01*
X92617055Y-60890494D01*
X92653423Y-60852980D01*
X92661641Y-60849426D01*
X92665258Y-60849941D01*
G37*
G04 #@! TD.AperFunction*
G04 #@! TD*
G04 #@! TA.AperFunction,Conductor*
G04 #@! TO.N,Net-(Q1B-C2)*
G36*
X97508156Y-63813688D02*
G01*
X98032250Y-64389965D01*
X98035281Y-64398391D01*
X98032250Y-64405709D01*
X97510451Y-64979462D01*
X97502349Y-64983277D01*
X97493923Y-64980246D01*
X97490213Y-64973252D01*
X97489045Y-64965105D01*
X97471251Y-64905184D01*
X97443166Y-64849905D01*
X97443163Y-64849901D01*
X97443162Y-64849899D01*
X97425223Y-64826006D01*
X97398537Y-64790461D01*
X97343781Y-64737523D01*
X97343777Y-64737519D01*
X97267139Y-64682058D01*
X97267123Y-64682047D01*
X97183158Y-64636147D01*
X97085064Y-64595929D01*
X97085060Y-64595928D01*
X96988883Y-64567837D01*
X96848568Y-64549187D01*
X96840819Y-64544700D01*
X96838410Y-64537589D01*
X96838410Y-64258235D01*
X96841837Y-64249962D01*
X96848736Y-64246616D01*
X96885319Y-64242291D01*
X96967905Y-64232529D01*
X96967907Y-64232528D01*
X96967910Y-64232528D01*
X97145185Y-64176597D01*
X97293416Y-64096389D01*
X97399456Y-64004179D01*
X97465079Y-63904878D01*
X97488199Y-63818531D01*
X97493648Y-63811429D01*
X97502526Y-63810258D01*
X97508156Y-63813688D01*
G37*
G04 #@! TD.AperFunction*
G04 #@! TD*
G04 #@! TA.AperFunction,Conductor*
G04 #@! TO.N,Net-(Q1B-C2)*
G36*
X94058900Y-60972752D02*
G01*
X94062014Y-60976651D01*
X94072251Y-60997365D01*
X94072252Y-60997366D01*
X94108260Y-61018080D01*
X94213588Y-61046550D01*
X94213805Y-61046611D01*
X94300125Y-61071790D01*
X94307107Y-61077397D01*
X94308080Y-61086298D01*
X94306576Y-61089522D01*
X94154211Y-61317562D01*
X94146766Y-61322537D01*
X94139802Y-61321785D01*
X94013281Y-61266557D01*
X93918692Y-61240591D01*
X93918690Y-61240590D01*
X93918684Y-61240589D01*
X93918681Y-61240588D01*
X93814187Y-61222713D01*
X93699352Y-61213668D01*
X93574578Y-61214302D01*
X93574569Y-61214302D01*
X93574566Y-61214303D01*
X93439472Y-61225430D01*
X93439463Y-61225431D01*
X93439455Y-61225432D01*
X93308824Y-61245610D01*
X93300125Y-61243486D01*
X93295475Y-61235833D01*
X93295363Y-61233289D01*
X93306932Y-61057131D01*
X93310894Y-61049101D01*
X93317396Y-61046263D01*
X94050319Y-60970198D01*
X94058900Y-60972752D01*
G37*
G04 #@! TD.AperFunction*
G04 #@! TD*
G04 #@! TA.AperFunction,Conductor*
G04 #@! TO.N,/H1b*
G36*
X98373460Y-57667253D02*
G01*
X98374125Y-57667868D01*
X98569526Y-57863269D01*
X98572953Y-57871542D01*
X98570007Y-57879304D01*
X98542447Y-57910384D01*
X98499539Y-57974334D01*
X98463957Y-58047542D01*
X98433375Y-58137470D01*
X98411558Y-58236616D01*
X98411556Y-58236627D01*
X98397871Y-58352312D01*
X98397870Y-58352322D01*
X98394279Y-58476272D01*
X98401261Y-58612880D01*
X98419165Y-58755718D01*
X98448253Y-58904613D01*
X98483900Y-59039907D01*
X98482694Y-59048780D01*
X98475567Y-59054202D01*
X98470896Y-59054465D01*
X98096475Y-58999824D01*
X98088784Y-58995239D01*
X98086563Y-58989755D01*
X97965813Y-58058598D01*
X97968148Y-58049954D01*
X97975045Y-58045638D01*
X97995996Y-58041304D01*
X98014731Y-58031411D01*
X98030550Y-58023060D01*
X98030552Y-58023058D01*
X98030557Y-58023056D01*
X98105781Y-57959519D01*
X98260678Y-57781018D01*
X98356965Y-57668532D01*
X98364947Y-57664476D01*
X98373460Y-57667253D01*
G37*
G04 #@! TD.AperFunction*
G04 #@! TD*
G04 #@! TA.AperFunction,Conductor*
G04 #@! TO.N,/H1b*
G36*
X103309362Y-57120753D02*
G01*
X103310829Y-57122608D01*
X103627523Y-57619134D01*
X103629083Y-57627952D01*
X103627523Y-57631718D01*
X103311280Y-58127535D01*
X103303942Y-58132667D01*
X103295124Y-58131107D01*
X103292819Y-58129179D01*
X103249601Y-58082336D01*
X103236697Y-58071665D01*
X103174659Y-58020359D01*
X103089871Y-57965900D01*
X103089857Y-57965891D01*
X103052745Y-57947312D01*
X102978140Y-57909962D01*
X102860045Y-57864264D01*
X102860042Y-57864263D01*
X102860034Y-57864260D01*
X102722253Y-57823955D01*
X102722254Y-57823955D01*
X102588280Y-57796082D01*
X102376244Y-57776411D01*
X102368323Y-57772235D01*
X102365625Y-57764761D01*
X102365625Y-57486597D01*
X102369052Y-57478324D01*
X102376719Y-57474913D01*
X102474878Y-57469818D01*
X102474884Y-57469817D01*
X102474891Y-57469817D01*
X102599202Y-57452897D01*
X102839467Y-57393423D01*
X103042082Y-57310692D01*
X103195772Y-57214659D01*
X103292820Y-57120502D01*
X103301142Y-57117201D01*
X103309362Y-57120753D01*
G37*
G04 #@! TD.AperFunction*
G04 #@! TD*
G04 #@! TA.AperFunction,Conductor*
G04 #@! TO.N,/H1b*
G36*
X98844880Y-56667433D02*
G01*
X98845687Y-56668664D01*
X99225321Y-57335143D01*
X99226439Y-57344028D01*
X99220946Y-57351100D01*
X99217681Y-57352358D01*
X99156625Y-57365859D01*
X99156618Y-57365862D01*
X99071267Y-57409297D01*
X99071263Y-57409299D01*
X98980544Y-57473042D01*
X98980536Y-57473048D01*
X98887939Y-57550863D01*
X98887931Y-57550871D01*
X98710825Y-57723947D01*
X98710812Y-57723960D01*
X98567542Y-57878879D01*
X98556749Y-57890781D01*
X98548653Y-57894607D01*
X98540222Y-57891588D01*
X98539809Y-57891194D01*
X98342916Y-57694301D01*
X98339489Y-57686028D01*
X98341240Y-57679872D01*
X98395090Y-57592839D01*
X98395094Y-57592830D01*
X98431848Y-57467193D01*
X98431849Y-57467186D01*
X98432664Y-57409297D01*
X98433496Y-57350219D01*
X98402670Y-57251119D01*
X98402670Y-57251118D01*
X98365898Y-57203865D01*
X98339608Y-57170081D01*
X98339604Y-57170078D01*
X98294234Y-57136314D01*
X98255118Y-57116360D01*
X98249306Y-57109548D01*
X98250013Y-57100621D01*
X98253409Y-57096582D01*
X98828500Y-56665095D01*
X98837173Y-56662872D01*
X98844880Y-56667433D01*
G37*
G04 #@! TD.AperFunction*
G04 #@! TD*
G04 #@! TA.AperFunction,Conductor*
G04 #@! TO.N,/H1b*
G36*
X99385374Y-56075154D02*
G01*
X99388906Y-56081264D01*
X99413268Y-56191284D01*
X99444425Y-56259841D01*
X99483647Y-56320203D01*
X99534483Y-56377557D01*
X99590714Y-56424772D01*
X99653234Y-56463550D01*
X99653237Y-56463551D01*
X99653240Y-56463553D01*
X99675904Y-56473412D01*
X99716310Y-56490990D01*
X99815486Y-56509716D01*
X99822978Y-56514617D01*
X99824914Y-56522739D01*
X99788418Y-56799974D01*
X99783941Y-56807729D01*
X99777986Y-56810088D01*
X99759549Y-56811938D01*
X99734198Y-56814482D01*
X99678321Y-56830892D01*
X99569386Y-56894106D01*
X99569380Y-56894110D01*
X99478439Y-56990382D01*
X99478436Y-56990387D01*
X99414365Y-57113025D01*
X99387001Y-57237130D01*
X99381873Y-57244471D01*
X99373056Y-57246037D01*
X99366903Y-57242464D01*
X98979375Y-56814482D01*
X98844561Y-56665594D01*
X98841548Y-56657161D01*
X98844594Y-56649851D01*
X99368844Y-56075901D01*
X99376954Y-56072105D01*
X99385374Y-56075154D01*
G37*
G04 #@! TD.AperFunction*
G04 #@! TD*
G04 #@! TA.AperFunction,Conductor*
G04 #@! TO.N,/H2b*
G36*
X122445127Y-56607536D02*
G01*
X122446604Y-56609480D01*
X122839111Y-57256912D01*
X122846372Y-57268888D01*
X122847731Y-57277740D01*
X122842433Y-57284959D01*
X122837745Y-57286573D01*
X122823954Y-57288208D01*
X122790972Y-57299222D01*
X122758175Y-57310175D01*
X122758171Y-57310176D01*
X122758171Y-57310177D01*
X122688561Y-57348731D01*
X122688552Y-57348737D01*
X122546630Y-57460414D01*
X122546624Y-57460419D01*
X122408268Y-57598913D01*
X122408257Y-57598924D01*
X122199131Y-57847691D01*
X122191184Y-57851818D01*
X122182646Y-57849118D01*
X122181902Y-57848435D01*
X121985088Y-57651621D01*
X121981661Y-57643348D01*
X121983183Y-57637577D01*
X122019713Y-57573147D01*
X122053257Y-57452742D01*
X122052661Y-57344346D01*
X122021217Y-57256915D01*
X122021215Y-57256913D01*
X122021215Y-57256912D01*
X121958762Y-57189517D01*
X121958761Y-57189516D01*
X121958760Y-57189515D01*
X121913363Y-57163337D01*
X121913360Y-57163336D01*
X121913357Y-57163334D01*
X121875529Y-57149922D01*
X121868877Y-57143928D01*
X121868412Y-57134985D01*
X121871427Y-57130369D01*
X122428590Y-56607017D01*
X122436965Y-56603852D01*
X122445127Y-56607536D01*
G37*
G04 #@! TD.AperFunction*
G04 #@! TD*
G04 #@! TA.AperFunction,Conductor*
G04 #@! TO.N,/H2b*
G36*
X119511189Y-57210003D02*
G01*
X119512207Y-57211410D01*
X119539393Y-57255543D01*
X119580796Y-57304297D01*
X119641723Y-57356901D01*
X119641725Y-57356902D01*
X119641726Y-57356903D01*
X119709235Y-57399495D01*
X119709242Y-57399499D01*
X119709247Y-57399502D01*
X119709250Y-57399503D01*
X119709253Y-57399505D01*
X119797031Y-57439141D01*
X119885494Y-57466110D01*
X119885496Y-57466110D01*
X119885511Y-57466115D01*
X119975855Y-57482521D01*
X120045715Y-57486820D01*
X120053762Y-57490749D01*
X120056471Y-57496216D01*
X120110665Y-57768709D01*
X120108918Y-57777491D01*
X120101472Y-57782466D01*
X120100119Y-57782654D01*
X120011268Y-57789733D01*
X120001037Y-57790549D01*
X120001036Y-57790549D01*
X120001027Y-57790550D01*
X119824677Y-57832368D01*
X119679582Y-57897767D01*
X119573939Y-57978835D01*
X119573937Y-57978837D01*
X119512484Y-58062779D01*
X119504832Y-58067431D01*
X119496133Y-58065308D01*
X119495503Y-58064814D01*
X118998038Y-57645504D01*
X118993921Y-57637552D01*
X118996633Y-57629017D01*
X118998027Y-57627622D01*
X119494703Y-57208603D01*
X119503235Y-57205889D01*
X119511189Y-57210003D01*
G37*
G04 #@! TD.AperFunction*
G04 #@! TD*
G04 #@! TA.AperFunction,Conductor*
G04 #@! TO.N,/H2b*
G36*
X121950365Y-57699902D02*
G01*
X122144934Y-57894471D01*
X122148361Y-57902744D01*
X122148107Y-57905167D01*
X122139425Y-57946186D01*
X122139424Y-57946200D01*
X122141282Y-58056960D01*
X122141283Y-58056964D01*
X122165426Y-58129100D01*
X122173147Y-58152168D01*
X122231629Y-58224047D01*
X122271216Y-58250838D01*
X122271220Y-58250839D01*
X122271222Y-58250841D01*
X122308218Y-58266564D01*
X122314492Y-58272954D01*
X122314410Y-58281908D01*
X122314247Y-58282274D01*
X121945855Y-59072840D01*
X121939255Y-59078891D01*
X121930308Y-59078503D01*
X121924258Y-59071904D01*
X121611988Y-58207150D01*
X121612401Y-58198206D01*
X121618736Y-58192278D01*
X121668065Y-58173021D01*
X121720140Y-58129098D01*
X121767967Y-58069105D01*
X121824861Y-57972280D01*
X121872615Y-57868060D01*
X121931074Y-57704241D01*
X121937081Y-57697603D01*
X121946024Y-57697156D01*
X121950365Y-57699902D01*
G37*
G04 #@! TD.AperFunction*
G04 #@! TD*
G04 #@! TA.AperFunction,Conductor*
G04 #@! TO.N,/H2b*
G36*
X121865958Y-56096790D02*
G01*
X122431532Y-56590552D01*
X122435510Y-56598575D01*
X122433597Y-56605818D01*
X122003244Y-57256759D01*
X121995823Y-57261771D01*
X121987032Y-57260067D01*
X121982370Y-57253961D01*
X121960048Y-57186045D01*
X121925844Y-57123178D01*
X121883953Y-57068573D01*
X121829282Y-57016573D01*
X121829277Y-57016570D01*
X121829272Y-57016565D01*
X121768629Y-56974266D01*
X121768620Y-56974261D01*
X121768621Y-56974261D01*
X121768619Y-56974260D01*
X121695670Y-56937695D01*
X121695666Y-56937693D01*
X121695663Y-56937692D01*
X121620512Y-56912256D01*
X121543280Y-56896976D01*
X121510664Y-56894910D01*
X121469899Y-56892328D01*
X121469897Y-56892328D01*
X121469894Y-56892328D01*
X121364734Y-56907610D01*
X121356054Y-56905409D01*
X121353323Y-56902532D01*
X121198916Y-56671448D01*
X121197169Y-56662665D01*
X121202144Y-56655220D01*
X121204482Y-56654013D01*
X121269097Y-56629449D01*
X121480001Y-56520657D01*
X121652538Y-56397960D01*
X121767147Y-56282112D01*
X121830054Y-56178172D01*
X121846845Y-56103051D01*
X121851994Y-56095725D01*
X121860815Y-56094186D01*
X121865958Y-56096790D01*
G37*
G04 #@! TD.AperFunction*
G04 #@! TD*
G04 #@! TA.AperFunction,Conductor*
G04 #@! TO.N,/L1b*
G36*
X99993343Y-59013977D02*
G01*
X99999019Y-59019653D01*
X100368420Y-59814124D01*
X100368801Y-59823071D01*
X100363107Y-59829490D01*
X100312914Y-59854968D01*
X100312913Y-59854969D01*
X100268331Y-59896054D01*
X100268323Y-59896063D01*
X100231645Y-59947309D01*
X100231636Y-59947324D01*
X100192256Y-60030922D01*
X100192256Y-60030923D01*
X100165121Y-60121593D01*
X100144248Y-60245253D01*
X100139038Y-60336802D01*
X100135147Y-60344867D01*
X100127357Y-60347837D01*
X99849414Y-60347837D01*
X99841141Y-60344410D01*
X99837736Y-60336854D01*
X99837339Y-60330391D01*
X99831557Y-60236177D01*
X99798307Y-60071722D01*
X99746126Y-59948917D01*
X99746123Y-59948912D01*
X99681158Y-59868631D01*
X99612979Y-59829709D01*
X99607494Y-59822631D01*
X99608170Y-59814616D01*
X99977801Y-59019652D01*
X99984396Y-59013596D01*
X99993343Y-59013977D01*
G37*
G04 #@! TD.AperFunction*
G04 #@! TD*
G04 #@! TA.AperFunction,Conductor*
G04 #@! TO.N,/L1b*
G36*
X100136201Y-63101264D02*
G01*
X100139558Y-63108255D01*
X100153064Y-63230771D01*
X100210545Y-63422353D01*
X100210547Y-63422359D01*
X100296025Y-63590597D01*
X100395974Y-63717708D01*
X100395975Y-63717709D01*
X100503642Y-63802902D01*
X100601009Y-63842856D01*
X100607362Y-63849167D01*
X100607391Y-63858122D01*
X100604616Y-63862172D01*
X100046429Y-64391235D01*
X100038067Y-64394439D01*
X100030362Y-64391264D01*
X99924555Y-64291704D01*
X99469746Y-63863746D01*
X99466070Y-63855582D01*
X99469244Y-63847208D01*
X99472610Y-63844723D01*
X99547903Y-63807784D01*
X99603188Y-63760129D01*
X99652299Y-63701424D01*
X99705392Y-63615732D01*
X99749211Y-63521016D01*
X99789825Y-63402276D01*
X99817931Y-63285292D01*
X99837271Y-63108266D01*
X99841576Y-63100414D01*
X99848902Y-63097837D01*
X100127928Y-63097837D01*
X100136201Y-63101264D01*
G37*
G04 #@! TD.AperFunction*
G04 #@! TD*
G04 #@! TA.AperFunction,Conductor*
G04 #@! TO.N,/L1b*
G36*
X102579362Y-63190753D02*
G01*
X102580829Y-63192608D01*
X102897523Y-63689134D01*
X102899083Y-63697952D01*
X102897523Y-63701718D01*
X102581280Y-64197535D01*
X102573942Y-64202667D01*
X102565124Y-64201107D01*
X102562819Y-64199179D01*
X102519601Y-64152336D01*
X102506697Y-64141665D01*
X102444659Y-64090359D01*
X102359871Y-64035900D01*
X102359857Y-64035891D01*
X102322745Y-64017312D01*
X102248140Y-63979962D01*
X102130045Y-63934264D01*
X102130042Y-63934263D01*
X102130034Y-63934260D01*
X101992253Y-63893955D01*
X101992254Y-63893955D01*
X101858280Y-63866082D01*
X101646244Y-63846411D01*
X101638323Y-63842235D01*
X101635625Y-63834761D01*
X101635625Y-63556597D01*
X101639052Y-63548324D01*
X101646719Y-63544913D01*
X101744878Y-63539818D01*
X101744884Y-63539817D01*
X101744891Y-63539817D01*
X101869202Y-63522897D01*
X102109467Y-63463423D01*
X102312082Y-63380692D01*
X102465772Y-63284659D01*
X102562820Y-63190502D01*
X102571142Y-63187201D01*
X102579362Y-63190753D01*
G37*
G04 #@! TD.AperFunction*
G04 #@! TD*
G04 #@! TA.AperFunction,Conductor*
G04 #@! TO.N,/L1b*
G36*
X101175945Y-63584970D02*
G01*
X101181705Y-63591826D01*
X101182149Y-63593824D01*
X101218404Y-63869255D01*
X101216086Y-63877905D01*
X101212150Y-63881189D01*
X101090165Y-63943849D01*
X101090160Y-63943852D01*
X101014243Y-64000525D01*
X100939535Y-64069233D01*
X100939526Y-64069242D01*
X100808744Y-64228602D01*
X100808736Y-64228614D01*
X100712954Y-64401541D01*
X100656399Y-64575338D01*
X100656399Y-64575341D01*
X100640312Y-64726425D01*
X100636029Y-64734289D01*
X100627439Y-64736820D01*
X100622836Y-64735323D01*
X100043408Y-64401418D01*
X100037951Y-64394318D01*
X100037552Y-64391060D01*
X100050686Y-63712383D01*
X100054272Y-63704179D01*
X100062610Y-63700913D01*
X100065110Y-63701233D01*
X100199849Y-63733590D01*
X100325460Y-63741378D01*
X100460267Y-63736415D01*
X100645918Y-63714127D01*
X100828788Y-63679052D01*
X101021973Y-63630030D01*
X101167026Y-63584195D01*
X101175945Y-63584970D01*
G37*
G04 #@! TD.AperFunction*
G04 #@! TD*
G04 #@! TA.AperFunction,Conductor*
G04 #@! TO.N,/L2b*
G36*
X118709370Y-63270686D02*
G01*
X118711674Y-63272614D01*
X118754894Y-63319458D01*
X118775044Y-63336121D01*
X118829835Y-63381434D01*
X118871945Y-63408481D01*
X118914633Y-63435900D01*
X119026355Y-63491832D01*
X119144450Y-63537530D01*
X119144459Y-63537532D01*
X119144460Y-63537533D01*
X119282241Y-63577838D01*
X119282240Y-63577838D01*
X119282251Y-63577840D01*
X119282257Y-63577842D01*
X119416211Y-63605711D01*
X119628252Y-63625383D01*
X119636172Y-63629558D01*
X119638870Y-63637032D01*
X119638870Y-63915196D01*
X119635443Y-63923469D01*
X119627777Y-63926880D01*
X119529614Y-63931975D01*
X119529606Y-63931976D01*
X119405300Y-63948895D01*
X119405282Y-63948899D01*
X119165030Y-64008370D01*
X118962413Y-64091101D01*
X118962411Y-64091102D01*
X118808724Y-64187133D01*
X118808723Y-64187134D01*
X118711676Y-64281290D01*
X118703352Y-64284592D01*
X118695132Y-64281040D01*
X118693667Y-64279188D01*
X118376970Y-63782659D01*
X118375411Y-63773842D01*
X118376971Y-63770076D01*
X118693215Y-63274257D01*
X118700552Y-63269126D01*
X118709370Y-63270686D01*
G37*
G04 #@! TD.AperFunction*
G04 #@! TD*
G04 #@! TA.AperFunction,Conductor*
G04 #@! TO.N,/L2b*
G36*
X122708156Y-63813688D02*
G01*
X123232250Y-64389965D01*
X123235281Y-64398391D01*
X123232250Y-64405709D01*
X122710451Y-64979462D01*
X122702349Y-64983277D01*
X122693923Y-64980246D01*
X122690213Y-64973252D01*
X122689045Y-64965105D01*
X122671251Y-64905184D01*
X122643166Y-64849905D01*
X122643163Y-64849901D01*
X122643162Y-64849899D01*
X122625223Y-64826006D01*
X122598537Y-64790461D01*
X122543781Y-64737523D01*
X122543777Y-64737519D01*
X122467139Y-64682058D01*
X122467123Y-64682047D01*
X122383158Y-64636147D01*
X122285064Y-64595929D01*
X122285060Y-64595928D01*
X122188883Y-64567837D01*
X122048568Y-64549187D01*
X122040819Y-64544700D01*
X122038410Y-64537589D01*
X122038410Y-64258235D01*
X122041837Y-64249962D01*
X122048736Y-64246616D01*
X122085319Y-64242291D01*
X122167905Y-64232529D01*
X122167907Y-64232528D01*
X122167910Y-64232528D01*
X122345185Y-64176597D01*
X122493416Y-64096389D01*
X122599456Y-64004179D01*
X122665079Y-63904878D01*
X122688199Y-63818531D01*
X122693648Y-63811429D01*
X122702526Y-63810258D01*
X122708156Y-63813688D01*
G37*
G04 #@! TD.AperFunction*
G04 #@! TD*
G04 #@! TA.AperFunction,Conductor*
G04 #@! TO.N,/L2b*
G36*
X123839518Y-59113977D02*
G01*
X123845194Y-59119653D01*
X124214595Y-59914124D01*
X124214976Y-59923071D01*
X124209282Y-59929490D01*
X124159089Y-59954968D01*
X124159088Y-59954969D01*
X124114506Y-59996054D01*
X124114498Y-59996063D01*
X124077820Y-60047309D01*
X124077811Y-60047324D01*
X124038431Y-60130922D01*
X124038431Y-60130923D01*
X124011296Y-60221593D01*
X123990423Y-60345253D01*
X123985213Y-60436802D01*
X123981322Y-60444867D01*
X123973532Y-60447837D01*
X123695589Y-60447837D01*
X123687316Y-60444410D01*
X123683911Y-60436854D01*
X123683514Y-60430391D01*
X123677732Y-60336177D01*
X123644482Y-60171722D01*
X123592301Y-60048917D01*
X123592298Y-60048912D01*
X123527333Y-59968631D01*
X123459154Y-59929709D01*
X123453669Y-59922631D01*
X123454345Y-59914616D01*
X123823976Y-59119652D01*
X123830571Y-59113596D01*
X123839518Y-59113977D01*
G37*
G04 #@! TD.AperFunction*
G04 #@! TD*
G04 #@! TA.AperFunction,Conductor*
G04 #@! TO.N,/L2b*
G36*
X123980154Y-63332034D02*
G01*
X123983581Y-63340307D01*
X123983541Y-63341261D01*
X123976629Y-63425067D01*
X123962040Y-63601956D01*
X123961948Y-63602746D01*
X123912191Y-63931239D01*
X123854229Y-64324879D01*
X123854228Y-64324884D01*
X123839378Y-64540613D01*
X123835391Y-64548631D01*
X123826902Y-64551481D01*
X123824765Y-64551133D01*
X123243998Y-64400288D01*
X123236852Y-64394892D01*
X123236162Y-64393519D01*
X122950830Y-63718510D01*
X122950767Y-63709558D01*
X122957053Y-63703180D01*
X122964046Y-63702514D01*
X123018000Y-63714008D01*
X123109676Y-63724020D01*
X123195889Y-63723309D01*
X123280404Y-63712173D01*
X123358068Y-63691639D01*
X123431966Y-63661283D01*
X123497354Y-63623430D01*
X123554977Y-63578476D01*
X123602682Y-63528833D01*
X123665079Y-63425067D01*
X123682688Y-63337988D01*
X123687687Y-63330558D01*
X123694156Y-63328607D01*
X123971881Y-63328607D01*
X123980154Y-63332034D01*
G37*
G04 #@! TD.AperFunction*
G04 #@! TD*
G04 #@! TA.AperFunction,Conductor*
G04 #@! TO.N,Net-(Q2B-C2)*
G36*
X130846282Y-58603996D02*
G01*
X131420035Y-59125794D01*
X131423850Y-59133896D01*
X131420819Y-59142322D01*
X131413825Y-59146031D01*
X131405681Y-59147199D01*
X131345760Y-59164994D01*
X131345758Y-59164995D01*
X131290482Y-59193078D01*
X131290480Y-59193079D01*
X131290479Y-59193080D01*
X131232254Y-59236793D01*
X131231029Y-59237713D01*
X131178092Y-59292468D01*
X131122631Y-59369107D01*
X131122620Y-59369123D01*
X131076720Y-59453088D01*
X131036502Y-59551182D01*
X131036501Y-59551186D01*
X131008410Y-59647363D01*
X130989760Y-59787679D01*
X130985273Y-59795428D01*
X130978162Y-59797837D01*
X130698808Y-59797837D01*
X130690535Y-59794410D01*
X130687189Y-59787510D01*
X130673102Y-59668341D01*
X130666485Y-59647368D01*
X130617170Y-59491063D01*
X130566710Y-59397807D01*
X130536963Y-59342830D01*
X130444756Y-59236793D01*
X130444755Y-59236792D01*
X130345451Y-59171168D01*
X130259107Y-59148047D01*
X130252001Y-59142597D01*
X130250831Y-59133719D01*
X130254261Y-59128089D01*
X130830538Y-58603996D01*
X130838964Y-58600965D01*
X130846282Y-58603996D01*
G37*
G04 #@! TD.AperFunction*
G04 #@! TD*
G04 #@! TA.AperFunction,Conductor*
G04 #@! TO.N,Net-(Q2B-C2)*
G36*
X125906647Y-61050657D02*
G01*
X125910816Y-61057714D01*
X125942091Y-61233883D01*
X125940163Y-61242628D01*
X125932616Y-61247448D01*
X125930398Y-61247627D01*
X125888225Y-61247005D01*
X125888188Y-61247005D01*
X125626172Y-61260522D01*
X125626165Y-61260523D01*
X125445705Y-61299215D01*
X125319724Y-61358431D01*
X125319721Y-61358433D01*
X125237835Y-61433240D01*
X125229416Y-61436290D01*
X125224095Y-61434735D01*
X124986058Y-61297324D01*
X124980606Y-61290220D01*
X124981774Y-61281342D01*
X124984317Y-61278287D01*
X125005667Y-61260107D01*
X125007053Y-61259095D01*
X125056699Y-61228181D01*
X125056701Y-61228185D01*
X125056736Y-61228157D01*
X125088891Y-61208331D01*
X125103057Y-61199597D01*
X125109673Y-61193995D01*
X125152784Y-61157502D01*
X125156832Y-61135441D01*
X125161696Y-61127924D01*
X125167098Y-61125921D01*
X125898060Y-61048125D01*
X125906647Y-61050657D01*
G37*
G04 #@! TD.AperFunction*
G04 #@! TD*
G04 #@! TA.AperFunction,Conductor*
G04 #@! TO.N,Net-(Q2B-C2)*
G36*
X125186153Y-63102005D02*
G01*
X125189514Y-63109050D01*
X125190808Y-63121316D01*
X125195890Y-63169502D01*
X125195892Y-63169510D01*
X125215331Y-63248926D01*
X125215333Y-63248932D01*
X125215334Y-63248934D01*
X125286237Y-63414625D01*
X125286238Y-63414626D01*
X125384597Y-63556718D01*
X125497427Y-63661881D01*
X125497428Y-63661882D01*
X125497430Y-63661883D01*
X125497431Y-63661884D01*
X125618573Y-63728846D01*
X125729055Y-63754722D01*
X125736328Y-63759944D01*
X125737778Y-63768781D01*
X125735545Y-63773393D01*
X125246324Y-64388880D01*
X125238494Y-64393224D01*
X125229885Y-64390759D01*
X125229147Y-64390121D01*
X124669010Y-63863053D01*
X124665333Y-63854888D01*
X124668507Y-63846514D01*
X124671269Y-63844348D01*
X124697490Y-63829526D01*
X124732879Y-63795926D01*
X124774407Y-63734641D01*
X124808285Y-63659501D01*
X124845241Y-63533879D01*
X124869552Y-63399595D01*
X124885591Y-63233038D01*
X124888170Y-63110033D01*
X124891769Y-63101833D01*
X124899867Y-63098578D01*
X125177880Y-63098578D01*
X125186153Y-63102005D01*
G37*
G04 #@! TD.AperFunction*
G04 #@! TD*
G04 #@! TA.AperFunction,Conductor*
G04 #@! TO.N,Net-(Q2B-C2)*
G36*
X126659138Y-60961480D02*
G01*
X126662189Y-60965105D01*
X126672091Y-60983418D01*
X126707874Y-61004179D01*
X126707875Y-61004179D01*
X126707876Y-61004180D01*
X126758317Y-61020021D01*
X126814045Y-61037523D01*
X126814310Y-61037610D01*
X126912609Y-61071598D01*
X126919307Y-61077539D01*
X126919843Y-61086478D01*
X126917213Y-61090770D01*
X126727740Y-61287565D01*
X126719534Y-61291148D01*
X126714191Y-61289970D01*
X126613500Y-61240957D01*
X126595440Y-61235744D01*
X126530213Y-61216916D01*
X126530209Y-61216915D01*
X126530203Y-61216914D01*
X126437595Y-61201751D01*
X126437563Y-61201748D01*
X126326589Y-61195499D01*
X126326556Y-61195499D01*
X126204171Y-61199996D01*
X126057749Y-61217322D01*
X125911927Y-61245052D01*
X125903159Y-61243231D01*
X125898247Y-61235744D01*
X125898057Y-61232957D01*
X125907179Y-61056994D01*
X125911029Y-61048911D01*
X125917483Y-61045982D01*
X126650520Y-60959051D01*
X126659138Y-60961480D01*
G37*
G04 #@! TD.AperFunction*
G04 #@! TD*
G04 #@! TA.AperFunction,Conductor*
G04 #@! TO.N,Net-(Q2A-C1)*
G36*
X127925258Y-59549941D02*
G01*
X128533006Y-59736653D01*
X128539908Y-59742358D01*
X128540754Y-59751273D01*
X128535049Y-59758175D01*
X128533006Y-59759021D01*
X127925249Y-59945735D01*
X127916334Y-59944889D01*
X127913423Y-59942706D01*
X127876823Y-59905051D01*
X127816915Y-59887468D01*
X127816913Y-59887467D01*
X127816911Y-59887467D01*
X127812397Y-59887387D01*
X127748451Y-59886259D01*
X127681308Y-59892610D01*
X127681175Y-59892622D01*
X127631079Y-59896784D01*
X127622550Y-59894054D01*
X127618450Y-59886093D01*
X127618410Y-59885124D01*
X127618410Y-59610549D01*
X127621837Y-59602276D01*
X127630110Y-59598849D01*
X127631064Y-59598888D01*
X127681226Y-59603056D01*
X127808146Y-59609115D01*
X127877055Y-59590494D01*
X127913423Y-59552980D01*
X127921641Y-59549426D01*
X127925258Y-59549941D01*
G37*
G04 #@! TD.AperFunction*
G04 #@! TD*
G04 #@! TA.AperFunction,Conductor*
G04 #@! TO.N,Net-(Q2A-C1)*
G36*
X126027225Y-56046221D02*
G01*
X126534640Y-56648313D01*
X126537351Y-56656848D01*
X126534036Y-56664056D01*
X125994709Y-57212601D01*
X125986465Y-57216098D01*
X125978163Y-57212741D01*
X125974769Y-57205945D01*
X125970881Y-57176792D01*
X125970880Y-57176791D01*
X125970880Y-57176789D01*
X125951636Y-57113932D01*
X125951636Y-57113931D01*
X125922220Y-57055922D01*
X125922217Y-57055916D01*
X125876685Y-56994093D01*
X125821451Y-56939040D01*
X125821446Y-56939036D01*
X125821443Y-56939033D01*
X125746347Y-56882467D01*
X125746348Y-56882467D01*
X125746346Y-56882466D01*
X125664696Y-56835651D01*
X125664691Y-56835649D01*
X125664684Y-56835645D01*
X125572419Y-56795709D01*
X125482061Y-56767707D01*
X125350580Y-56749251D01*
X125342863Y-56744708D01*
X125340506Y-56737665D01*
X125340506Y-56458444D01*
X125343933Y-56450171D01*
X125351061Y-56446800D01*
X125458771Y-56436222D01*
X125645092Y-56385298D01*
X125801196Y-56310282D01*
X125912536Y-56223634D01*
X125981750Y-56130424D01*
X126007123Y-56050231D01*
X126012886Y-56043378D01*
X126021807Y-56042606D01*
X126027225Y-56046221D01*
G37*
G04 #@! TD.AperFunction*
G04 #@! TD*
G04 #@! TA.AperFunction,Conductor*
G04 #@! TO.N,Net-(Q2A-C1)*
G36*
X124982896Y-56015427D02*
G01*
X124986605Y-56022421D01*
X124987773Y-56030565D01*
X125005568Y-56090486D01*
X125005569Y-56090488D01*
X125005570Y-56090490D01*
X125033654Y-56145768D01*
X125078283Y-56205213D01*
X125078286Y-56205216D01*
X125078287Y-56205217D01*
X125133042Y-56258154D01*
X125206190Y-56311089D01*
X125209692Y-56313623D01*
X125209695Y-56313624D01*
X125209697Y-56313626D01*
X125293662Y-56359526D01*
X125391756Y-56399744D01*
X125391758Y-56399744D01*
X125391762Y-56399746D01*
X125437406Y-56413077D01*
X125487936Y-56427836D01*
X125487938Y-56427836D01*
X125487941Y-56427837D01*
X125628253Y-56446487D01*
X125636001Y-56450973D01*
X125638410Y-56458084D01*
X125638410Y-56737438D01*
X125634983Y-56745711D01*
X125628084Y-56749057D01*
X125508915Y-56763144D01*
X125331638Y-56819076D01*
X125331635Y-56819078D01*
X125183404Y-56899283D01*
X125077367Y-56991490D01*
X125077366Y-56991491D01*
X125011742Y-57090795D01*
X124988621Y-57177139D01*
X124983171Y-57184245D01*
X124974293Y-57185415D01*
X124968663Y-57181985D01*
X124444569Y-56605709D01*
X124441538Y-56597283D01*
X124444569Y-56589965D01*
X124592017Y-56427836D01*
X124966369Y-56016210D01*
X124974470Y-56012396D01*
X124982896Y-56015427D01*
G37*
G04 #@! TD.AperFunction*
G04 #@! TD*
G04 #@! TA.AperFunction,Conductor*
G04 #@! TO.N,Net-(Q2A-C1)*
G36*
X126548522Y-56663003D02*
G01*
X126991455Y-57079786D01*
X127107132Y-57188634D01*
X127110809Y-57196799D01*
X127107635Y-57205173D01*
X127103590Y-57207965D01*
X127049104Y-57230527D01*
X126993778Y-57265814D01*
X126993774Y-57265818D01*
X126933910Y-57319556D01*
X126920916Y-57335206D01*
X126880714Y-57383624D01*
X126825008Y-57471824D01*
X126825005Y-57471830D01*
X126779026Y-57567254D01*
X126779015Y-57567280D01*
X126738703Y-57678204D01*
X126738700Y-57678213D01*
X126710607Y-57786409D01*
X126710603Y-57786429D01*
X126691727Y-57946133D01*
X126687353Y-57953947D01*
X126680108Y-57956460D01*
X126401230Y-57956460D01*
X126392957Y-57953033D01*
X126389574Y-57945777D01*
X126380395Y-57840614D01*
X126329899Y-57640248D01*
X126329898Y-57640246D01*
X126252434Y-57465387D01*
X126252431Y-57465384D01*
X126252431Y-57465382D01*
X126161473Y-57335206D01*
X126063541Y-57249143D01*
X126063538Y-57249140D01*
X125975467Y-57209332D01*
X125969340Y-57202802D01*
X125969625Y-57193852D01*
X125972266Y-57190152D01*
X126532489Y-56663003D01*
X126540862Y-56659830D01*
X126548522Y-56663003D01*
G37*
G04 #@! TD.AperFunction*
G04 #@! TD*
M02*
