G04 #@! TF.GenerationSoftware,KiCad,Pcbnew,9.0.4*
G04 #@! TF.CreationDate,2025-08-24T22:18:30+02:00*
G04 #@! TF.ProjectId,npn-pnp-h-bridge,6e706e2d-706e-4702-9d68-2d6272696467,rev?*
G04 #@! TF.SameCoordinates,Original*
G04 #@! TF.FileFunction,Copper,L2,Bot*
G04 #@! TF.FilePolarity,Positive*
%FSLAX46Y46*%
G04 Gerber Fmt 4.6, Leading zero omitted, Abs format (unit mm)*
G04 Created by KiCad (PCBNEW 9.0.4) date 2025-08-24 22:18:30*
%MOMM*%
%LPD*%
G01*
G04 APERTURE LIST*
G04 Aperture macros list*
%AMRoundRect*
0 Rectangle with rounded corners*
0 $1 Rounding radius*
0 $2 $3 $4 $5 $6 $7 $8 $9 X,Y pos of 4 corners*
0 Add a 4 corners polygon primitive as box body*
4,1,4,$2,$3,$4,$5,$6,$7,$8,$9,$2,$3,0*
0 Add four circle primitives for the rounded corners*
1,1,$1+$1,$2,$3*
1,1,$1+$1,$4,$5*
1,1,$1+$1,$6,$7*
1,1,$1+$1,$8,$9*
0 Add four rect primitives between the rounded corners*
20,1,$1+$1,$2,$3,$4,$5,0*
20,1,$1+$1,$4,$5,$6,$7,0*
20,1,$1+$1,$6,$7,$8,$9,0*
20,1,$1+$1,$8,$9,$2,$3,0*%
G04 Aperture macros list end*
G04 #@! TA.AperFunction,ComponentPad*
%ADD10R,1.500000X1.050000*%
G04 #@! TD*
G04 #@! TA.AperFunction,ComponentPad*
%ADD11O,1.500000X1.050000*%
G04 #@! TD*
G04 #@! TA.AperFunction,ComponentPad*
%ADD12R,1.300000X1.300000*%
G04 #@! TD*
G04 #@! TA.AperFunction,ComponentPad*
%ADD13C,1.300000*%
G04 #@! TD*
G04 #@! TA.AperFunction,ComponentPad*
%ADD14C,2.600000*%
G04 #@! TD*
G04 #@! TA.AperFunction,ConnectorPad*
%ADD15C,4.400000*%
G04 #@! TD*
G04 #@! TA.AperFunction,ComponentPad*
%ADD16C,1.270000*%
G04 #@! TD*
G04 #@! TA.AperFunction,SMDPad,CuDef*
%ADD17RoundRect,0.250000X-0.650000X1.500000X-0.650000X-1.500000X0.650000X-1.500000X0.650000X1.500000X0*%
G04 #@! TD*
G04 #@! TA.AperFunction,SMDPad,CuDef*
%ADD18RoundRect,0.250000X0.475000X-0.337500X0.475000X0.337500X-0.475000X0.337500X-0.475000X-0.337500X0*%
G04 #@! TD*
G04 #@! TA.AperFunction,SMDPad,CuDef*
%ADD19RoundRect,0.250000X0.650000X-1.500000X0.650000X1.500000X-0.650000X1.500000X-0.650000X-1.500000X0*%
G04 #@! TD*
G04 #@! TA.AperFunction,ViaPad*
%ADD20C,0.600000*%
G04 #@! TD*
G04 APERTURE END LIST*
D10*
G04 #@! TO.P,Qr1,1,C*
G04 #@! TO.N,/O2*
X178950000Y-97908531D03*
D11*
G04 #@! TO.P,Qr1,2,B*
G04 #@! TO.N,/H2b*
X178950000Y-96638531D03*
G04 #@! TO.P,Qr1,3,E*
G04 #@! TO.N,VDD*
X178950000Y-95368531D03*
G04 #@! TD*
D12*
G04 #@! TO.P,J2,1,1*
G04 #@! TO.N,/O1*
X169800000Y-102000000D03*
D13*
G04 #@! TO.P,J2,2,2*
G04 #@! TO.N,/O2*
X171800000Y-102000000D03*
G04 #@! TD*
D10*
G04 #@! TO.P,Ql1,1,C*
G04 #@! TO.N,/O1*
X163592127Y-97897589D03*
D11*
G04 #@! TO.P,Ql1,2,B*
G04 #@! TO.N,/H1b*
X163592127Y-96627589D03*
G04 #@! TO.P,Ql1,3,E*
G04 #@! TO.N,VDD*
X163592127Y-95357589D03*
G04 #@! TD*
D14*
G04 #@! TO.P,H1,1,1*
G04 #@! TO.N,GND*
X151800000Y-104100000D03*
D15*
X151800000Y-104100000D03*
G04 #@! TD*
D16*
G04 #@! TO.P,J1,1,1*
G04 #@! TO.N,VDD*
X173895099Y-94200000D03*
G04 #@! TO.P,J1,2,2*
G04 #@! TO.N,GND*
X171895100Y-94200000D03*
G04 #@! TO.P,J1,3,3*
G04 #@! TO.N,/R_IN*
X169895099Y-94200000D03*
G04 #@! TO.P,J1,4,4*
G04 #@! TO.N,/L_IN*
X167895101Y-94200000D03*
G04 #@! TD*
D10*
G04 #@! TO.P,Qr2,1,C*
G04 #@! TO.N,/O2*
X178335548Y-101508531D03*
D11*
G04 #@! TO.P,Qr2,2,B*
G04 #@! TO.N,/L2b*
X178335548Y-102778531D03*
G04 #@! TO.P,Qr2,3,E*
G04 #@! TO.N,GND*
X178335548Y-104048531D03*
G04 #@! TD*
D10*
G04 #@! TO.P,Ql2,1,C*
G04 #@! TO.N,/O1*
X162862127Y-101427589D03*
D11*
G04 #@! TO.P,Ql2,2,B*
G04 #@! TO.N,/L1b*
X162862127Y-102697589D03*
G04 #@! TO.P,Ql2,3,E*
G04 #@! TO.N,GND*
X162862127Y-103967589D03*
G04 #@! TD*
D14*
G04 #@! TO.P,H2,1,1*
G04 #@! TO.N,GND*
X189800000Y-104200000D03*
D15*
X189800000Y-104200000D03*
G04 #@! TD*
D17*
G04 #@! TO.P,D6,1,K*
G04 #@! TO.N,VDD*
X166700000Y-97900000D03*
G04 #@! TO.P,D6,2,A*
G04 #@! TO.N,/O1*
X166700000Y-102900000D03*
G04 #@! TD*
D18*
G04 #@! TO.P,C5,1,+*
G04 #@! TO.N,VDD*
X176200000Y-94675000D03*
G04 #@! TO.P,C5,2,-*
G04 #@! TO.N,GND*
X176200000Y-92600000D03*
G04 #@! TD*
D17*
G04 #@! TO.P,D5,1,K*
G04 #@! TO.N,VDD*
X174950000Y-97900000D03*
G04 #@! TO.P,D5,2,A*
G04 #@! TO.N,/O2*
X174950000Y-102900000D03*
G04 #@! TD*
D19*
G04 #@! TO.P,D4,1,K*
G04 #@! TO.N,/O1*
X159292127Y-99832500D03*
G04 #@! TO.P,D4,2,A*
G04 #@! TO.N,GND*
X159292127Y-94832500D03*
G04 #@! TD*
G04 #@! TO.P,D3,1,K*
G04 #@! TO.N,/O2*
X182495548Y-99832500D03*
G04 #@! TO.P,D3,2,A*
G04 #@! TO.N,GND*
X182495548Y-94832500D03*
G04 #@! TD*
D20*
G04 #@! TO.N,GND*
X171950000Y-104600000D03*
X173200000Y-104600000D03*
X154664500Y-99400000D03*
X182400000Y-104933333D03*
X160200000Y-91635598D03*
X161200000Y-105612600D03*
X180450000Y-106362600D03*
X157800000Y-105666667D03*
X180450000Y-105612600D03*
X187200000Y-99400000D03*
X161200000Y-106362600D03*
X157800000Y-104933333D03*
X182400000Y-105666667D03*
X169650000Y-104600000D03*
X181100000Y-91632914D03*
X182400000Y-106400000D03*
X168400000Y-104600000D03*
X157800000Y-106400000D03*
G04 #@! TO.N,/O1*
X159153721Y-102319626D03*
G04 #@! TO.N,/O2*
X182200000Y-102400000D03*
G04 #@! TD*
G04 #@! TA.AperFunction,Conductor*
G04 #@! TO.N,VDD*
G36*
X174617183Y-92818907D02*
G01*
X174628996Y-92828996D01*
X175200000Y-93400000D01*
X177150500Y-93400000D01*
X177208691Y-93418907D01*
X177229700Y-93439600D01*
X177739197Y-94118930D01*
X177800000Y-94200000D01*
X179916414Y-94260100D01*
X179972990Y-94279850D01*
X180360387Y-94570300D01*
X180395603Y-94620335D01*
X180400000Y-94649510D01*
X180400000Y-95900729D01*
X180381093Y-95958920D01*
X180331593Y-95994884D01*
X180301053Y-95999729D01*
X179930600Y-95999929D01*
X179872400Y-95981053D01*
X179836409Y-95931573D01*
X179836376Y-95870387D01*
X179848232Y-95845927D01*
X179906106Y-95759314D01*
X179964421Y-95618531D01*
X179230330Y-95618531D01*
X179250075Y-95598786D01*
X179299444Y-95513276D01*
X179325000Y-95417901D01*
X179325000Y-95319161D01*
X179299444Y-95223786D01*
X179250075Y-95138276D01*
X179230330Y-95118531D01*
X179964420Y-95118531D01*
X179906106Y-94977747D01*
X179815819Y-94842624D01*
X179700906Y-94727711D01*
X179565781Y-94637423D01*
X179415644Y-94575235D01*
X179256257Y-94543531D01*
X179200001Y-94543531D01*
X179200000Y-94543532D01*
X179200000Y-95088201D01*
X179180255Y-95068456D01*
X179094745Y-95019087D01*
X178999370Y-94993531D01*
X178900630Y-94993531D01*
X178805255Y-95019087D01*
X178719745Y-95068456D01*
X178700000Y-95088201D01*
X178700000Y-94543532D01*
X178699999Y-94543531D01*
X178643742Y-94543531D01*
X178484356Y-94575235D01*
X178484354Y-94575235D01*
X178334218Y-94637423D01*
X178334217Y-94637423D01*
X178199093Y-94727711D01*
X178084180Y-94842624D01*
X177993893Y-94977747D01*
X177935579Y-95118531D01*
X178669670Y-95118531D01*
X178649925Y-95138276D01*
X178600556Y-95223786D01*
X178575000Y-95319161D01*
X178575000Y-95417901D01*
X178600556Y-95513276D01*
X178649925Y-95598786D01*
X178669670Y-95618531D01*
X177935579Y-95618531D01*
X177993893Y-95759314D01*
X178084182Y-95894440D01*
X178171003Y-95981260D01*
X178174629Y-95988376D01*
X178181093Y-95993073D01*
X178188257Y-96015122D01*
X178198781Y-96035776D01*
X178200000Y-96051264D01*
X178200000Y-96096512D01*
X178181093Y-96154703D01*
X178171004Y-96166516D01*
X178161471Y-96176048D01*
X178161468Y-96176052D01*
X178082074Y-96294871D01*
X178082068Y-96294882D01*
X178027381Y-96426909D01*
X178027381Y-96426911D01*
X177999500Y-96567073D01*
X177999500Y-96567076D01*
X177999500Y-96709986D01*
X178025204Y-96839209D01*
X178027381Y-96850150D01*
X178027381Y-96850152D01*
X178082068Y-96982179D01*
X178082074Y-96982191D01*
X178124710Y-97045998D01*
X178128450Y-97059258D01*
X178136550Y-97070407D01*
X178136550Y-97087977D01*
X178141319Y-97104886D01*
X178136550Y-97117813D01*
X178136550Y-97131593D01*
X178126222Y-97145807D01*
X178120142Y-97162290D01*
X178108685Y-97169944D01*
X178100586Y-97181093D01*
X178083875Y-97186522D01*
X178069268Y-97196283D01*
X178042395Y-97200000D01*
X178006447Y-97200000D01*
X177954960Y-97185557D01*
X177925004Y-97167317D01*
X177866978Y-97147923D01*
X177866973Y-97147922D01*
X177846012Y-97144421D01*
X177803564Y-97137332D01*
X177803561Y-97137331D01*
X177803548Y-97137331D01*
X176997116Y-97130548D01*
X176997100Y-97130549D01*
X176964088Y-97132937D01*
X176964064Y-97132940D01*
X176932702Y-97137772D01*
X176927264Y-97138685D01*
X176927263Y-97138685D01*
X176927261Y-97138686D01*
X176866175Y-97164795D01*
X176843162Y-97174631D01*
X176793666Y-97210593D01*
X176765920Y-97234835D01*
X176719012Y-97313345D01*
X176719010Y-97313348D01*
X176700104Y-97371537D01*
X176690048Y-97435034D01*
X176690048Y-100220529D01*
X176671141Y-100278720D01*
X176621641Y-100314684D01*
X176591334Y-100319529D01*
X171080766Y-100335455D01*
X170975923Y-100335759D01*
X170975919Y-100335759D01*
X170958616Y-100337158D01*
X170944072Y-100338335D01*
X170944068Y-100338335D01*
X170944063Y-100338336D01*
X170944043Y-100338338D01*
X170913803Y-100343174D01*
X170909522Y-100343905D01*
X170909521Y-100343906D01*
X170825851Y-100379668D01*
X170764912Y-100385152D01*
X170735919Y-100373473D01*
X170713074Y-100359734D01*
X170695800Y-100349345D01*
X170695797Y-100349344D01*
X170695793Y-100349342D01*
X170637673Y-100330271D01*
X170637668Y-100330270D01*
X170637665Y-100330269D01*
X170574190Y-100320027D01*
X165193348Y-100304451D01*
X165135213Y-100285375D01*
X165099392Y-100235771D01*
X165094635Y-100205451D01*
X165094635Y-98150001D01*
X165500000Y-98150001D01*
X165500000Y-99443064D01*
X165510613Y-99531443D01*
X165566080Y-99672095D01*
X165657435Y-99792564D01*
X165777904Y-99883919D01*
X165918556Y-99939386D01*
X166006935Y-99949999D01*
X166006942Y-99950000D01*
X166449999Y-99950000D01*
X166450000Y-99949999D01*
X166450000Y-98150001D01*
X166950000Y-98150001D01*
X166950000Y-99949999D01*
X166950001Y-99950000D01*
X167393058Y-99950000D01*
X167393064Y-99949999D01*
X167481443Y-99939386D01*
X167622095Y-99883919D01*
X167742564Y-99792564D01*
X167833919Y-99672095D01*
X167889386Y-99531443D01*
X167899999Y-99443064D01*
X167900000Y-99443058D01*
X167900000Y-98150001D01*
X173750000Y-98150001D01*
X173750000Y-99443064D01*
X173760613Y-99531443D01*
X173816080Y-99672095D01*
X173907435Y-99792564D01*
X174027904Y-99883919D01*
X174168556Y-99939386D01*
X174256935Y-99949999D01*
X174256942Y-99950000D01*
X174699999Y-99950000D01*
X174700000Y-99949999D01*
X174700000Y-98150001D01*
X175200000Y-98150001D01*
X175200000Y-99949999D01*
X175200001Y-99950000D01*
X175643058Y-99950000D01*
X175643064Y-99949999D01*
X175731443Y-99939386D01*
X175872095Y-99883919D01*
X175992564Y-99792564D01*
X176083919Y-99672095D01*
X176139386Y-99531443D01*
X176149999Y-99443064D01*
X176150000Y-99443058D01*
X176150000Y-98150001D01*
X176149999Y-98150000D01*
X175200001Y-98150000D01*
X175200000Y-98150001D01*
X174700000Y-98150001D01*
X174699999Y-98150000D01*
X173750001Y-98150000D01*
X173750000Y-98150001D01*
X167900000Y-98150001D01*
X167899999Y-98150000D01*
X166950001Y-98150000D01*
X166950000Y-98150001D01*
X166450000Y-98150001D01*
X166449999Y-98150000D01*
X165500001Y-98150000D01*
X165500000Y-98150001D01*
X165094635Y-98150001D01*
X165094635Y-97499006D01*
X165094635Y-97499000D01*
X165092105Y-97466856D01*
X165088880Y-97446498D01*
X165087662Y-97431013D01*
X165087662Y-97177795D01*
X165087661Y-97177794D01*
X165081119Y-97169944D01*
X164550294Y-96532953D01*
X164530547Y-96494539D01*
X164529819Y-96491746D01*
X164514746Y-96415969D01*
X164490293Y-96356935D01*
X165500000Y-96356935D01*
X165500000Y-97649999D01*
X165500001Y-97650000D01*
X166449999Y-97650000D01*
X166450000Y-97649999D01*
X166450000Y-95850001D01*
X166950000Y-95850001D01*
X166950000Y-97649999D01*
X166950001Y-97650000D01*
X167899999Y-97650000D01*
X167900000Y-97649999D01*
X167900000Y-96356941D01*
X167899999Y-96356935D01*
X167889386Y-96268556D01*
X167833919Y-96127904D01*
X167742564Y-96007435D01*
X167622095Y-95916080D01*
X167481443Y-95860613D01*
X167393064Y-95850000D01*
X166950001Y-95850000D01*
X166950000Y-95850001D01*
X166450000Y-95850001D01*
X166449999Y-95850000D01*
X166006935Y-95850000D01*
X165918556Y-95860613D01*
X165777904Y-95916080D01*
X165657435Y-96007435D01*
X165566080Y-96127904D01*
X165510613Y-96268556D01*
X165500000Y-96356935D01*
X164490293Y-96356935D01*
X164464590Y-96294882D01*
X164460058Y-96283940D01*
X164460052Y-96283929D01*
X164427993Y-96235951D01*
X164380659Y-96165110D01*
X164348497Y-96132948D01*
X164320721Y-96078434D01*
X164330292Y-96018002D01*
X164348499Y-95992942D01*
X164457944Y-95883498D01*
X164548233Y-95748372D01*
X164606548Y-95607589D01*
X163872457Y-95607589D01*
X163892202Y-95587844D01*
X163941571Y-95502334D01*
X163967127Y-95406959D01*
X163967127Y-95308219D01*
X163941571Y-95212844D01*
X163892202Y-95127334D01*
X163872457Y-95107589D01*
X164606547Y-95107589D01*
X164548233Y-94966805D01*
X164457946Y-94831682D01*
X164343033Y-94716769D01*
X164207908Y-94626481D01*
X164057771Y-94564293D01*
X163898384Y-94532589D01*
X163842128Y-94532589D01*
X163842127Y-94532590D01*
X163842127Y-95077259D01*
X163822382Y-95057514D01*
X163736872Y-95008145D01*
X163641497Y-94982589D01*
X163542757Y-94982589D01*
X163447382Y-95008145D01*
X163361872Y-95057514D01*
X163342127Y-95077259D01*
X163342127Y-94532590D01*
X163342126Y-94532589D01*
X163285869Y-94532589D01*
X163126483Y-94564293D01*
X163126481Y-94564293D01*
X162976345Y-94626481D01*
X162976344Y-94626481D01*
X162841220Y-94716769D01*
X162726307Y-94831682D01*
X162636020Y-94966805D01*
X162577706Y-95107589D01*
X163311797Y-95107589D01*
X163292052Y-95127334D01*
X163242683Y-95212844D01*
X163217127Y-95308219D01*
X163217127Y-95406959D01*
X163242683Y-95502334D01*
X163292052Y-95587844D01*
X163311797Y-95607589D01*
X162577118Y-95607589D01*
X162530310Y-95644490D01*
X162487680Y-95650255D01*
X162239619Y-95629222D01*
X162183234Y-95605466D01*
X162151580Y-95553105D01*
X162148983Y-95530576D01*
X162148983Y-94726967D01*
X162167890Y-94668776D01*
X162194881Y-94643413D01*
X162221523Y-94626481D01*
X163165932Y-94026272D01*
X163219358Y-94010828D01*
X166095069Y-94020415D01*
X166153194Y-94039516D01*
X166188993Y-94089135D01*
X166193736Y-94118930D01*
X166200627Y-95528235D01*
X168729719Y-95528235D01*
X168787910Y-95547142D01*
X168790734Y-95549273D01*
X169876817Y-96399267D01*
X172838764Y-96400053D01*
X172839589Y-96356935D01*
X173750000Y-96356935D01*
X173750000Y-97649999D01*
X173750001Y-97650000D01*
X174699999Y-97650000D01*
X174700000Y-97649999D01*
X174700000Y-95850001D01*
X175200000Y-95850001D01*
X175200000Y-97649999D01*
X175200001Y-97650000D01*
X176149999Y-97650000D01*
X176150000Y-97649999D01*
X176150000Y-96356941D01*
X176149999Y-96356935D01*
X176139386Y-96268556D01*
X176083919Y-96127904D01*
X175992564Y-96007435D01*
X175872095Y-95916080D01*
X175731443Y-95860613D01*
X175643064Y-95850000D01*
X175200001Y-95850000D01*
X175200000Y-95850001D01*
X174700000Y-95850001D01*
X174699999Y-95850000D01*
X174256935Y-95850000D01*
X174168556Y-95860613D01*
X174027904Y-95916080D01*
X173907435Y-96007435D01*
X173816080Y-96127904D01*
X173760613Y-96268556D01*
X173750000Y-96356935D01*
X172839589Y-96356935D01*
X172839682Y-96352087D01*
X172853969Y-95605466D01*
X172871893Y-94668802D01*
X172891910Y-94610986D01*
X172942089Y-94575975D01*
X173003263Y-94577146D01*
X173052066Y-94614050D01*
X173062338Y-94632811D01*
X173066510Y-94642883D01*
X173079387Y-94662155D01*
X173514099Y-94227443D01*
X173514099Y-94250160D01*
X173540063Y-94347061D01*
X173590223Y-94433940D01*
X173661159Y-94504876D01*
X173748038Y-94555036D01*
X173844939Y-94581000D01*
X173867652Y-94581000D01*
X173432941Y-95015711D01*
X173452212Y-95028587D01*
X173622369Y-95099067D01*
X173803007Y-95134999D01*
X173803011Y-95135000D01*
X173987187Y-95135000D01*
X173987190Y-95134999D01*
X174167827Y-95099067D01*
X174167829Y-95099067D01*
X174337984Y-95028587D01*
X174337987Y-95028586D01*
X174357255Y-95015711D01*
X174266545Y-94925001D01*
X175175000Y-94925001D01*
X175175000Y-95055564D01*
X175185613Y-95143943D01*
X175241080Y-95284595D01*
X175332435Y-95405064D01*
X175452904Y-95496419D01*
X175593556Y-95551886D01*
X175681935Y-95562499D01*
X175681942Y-95562500D01*
X175949999Y-95562500D01*
X175950000Y-95562499D01*
X175950000Y-94925001D01*
X176450000Y-94925001D01*
X176450000Y-95562499D01*
X176450001Y-95562500D01*
X176718058Y-95562500D01*
X176718064Y-95562499D01*
X176806443Y-95551886D01*
X176947095Y-95496419D01*
X177067564Y-95405064D01*
X177158919Y-95284595D01*
X177214386Y-95143943D01*
X177217534Y-95117730D01*
X177224999Y-95055564D01*
X177225000Y-95055558D01*
X177225000Y-94925001D01*
X177224999Y-94925000D01*
X176450001Y-94925000D01*
X176450000Y-94925001D01*
X175950000Y-94925001D01*
X175949999Y-94925000D01*
X175175001Y-94925000D01*
X175175000Y-94925001D01*
X174266545Y-94925001D01*
X173922544Y-94581000D01*
X173945259Y-94581000D01*
X174042160Y-94555036D01*
X174129039Y-94504876D01*
X174199975Y-94433940D01*
X174250135Y-94347061D01*
X174276099Y-94250160D01*
X174276099Y-94227445D01*
X174710810Y-94662156D01*
X174723685Y-94642888D01*
X174723686Y-94642885D01*
X174794166Y-94472730D01*
X174794166Y-94472728D01*
X174829632Y-94294435D01*
X175175000Y-94294435D01*
X175175000Y-94424999D01*
X175175001Y-94425000D01*
X175949999Y-94425000D01*
X175950000Y-94424999D01*
X175950000Y-93787501D01*
X176450000Y-93787501D01*
X176450000Y-94424999D01*
X176450001Y-94425000D01*
X177224999Y-94425000D01*
X177225000Y-94424999D01*
X177225000Y-94294441D01*
X177224999Y-94294435D01*
X177214386Y-94206056D01*
X177158919Y-94065404D01*
X177067564Y-93944935D01*
X176947095Y-93853580D01*
X176806443Y-93798113D01*
X176718064Y-93787500D01*
X176450001Y-93787500D01*
X176450000Y-93787501D01*
X175950000Y-93787501D01*
X175949999Y-93787500D01*
X175681935Y-93787500D01*
X175593556Y-93798113D01*
X175452904Y-93853580D01*
X175332435Y-93944935D01*
X175241080Y-94065404D01*
X175185613Y-94206056D01*
X175175000Y-94294435D01*
X174829632Y-94294435D01*
X174830098Y-94292091D01*
X174830099Y-94292087D01*
X174830099Y-94107912D01*
X174830098Y-94107908D01*
X174794166Y-93927271D01*
X174794166Y-93927269D01*
X174723686Y-93757113D01*
X174710810Y-93737842D01*
X174276099Y-94172553D01*
X174276099Y-94149840D01*
X174250135Y-94052939D01*
X174199975Y-93966060D01*
X174129039Y-93895124D01*
X174042160Y-93844964D01*
X173945259Y-93819000D01*
X173922542Y-93819000D01*
X174357254Y-93384288D01*
X174337983Y-93371412D01*
X174167828Y-93300932D01*
X173987190Y-93265000D01*
X173803007Y-93265000D01*
X173622370Y-93300932D01*
X173622368Y-93300932D01*
X173452210Y-93371413D01*
X173432941Y-93384287D01*
X173867654Y-93819000D01*
X173844939Y-93819000D01*
X173748038Y-93844964D01*
X173661159Y-93895124D01*
X173590223Y-93966060D01*
X173540063Y-94052939D01*
X173514099Y-94149840D01*
X173514099Y-94172555D01*
X173079386Y-93737842D01*
X173071882Y-93749075D01*
X173023834Y-93786956D01*
X172962696Y-93789361D01*
X172911820Y-93755371D01*
X172890640Y-93697968D01*
X172890582Y-93692183D01*
X172905797Y-92897106D01*
X172925814Y-92839287D01*
X172975993Y-92804277D01*
X173004779Y-92800000D01*
X174558992Y-92800000D01*
X174617183Y-92818907D01*
G37*
G04 #@! TD.AperFunction*
G04 #@! TD*
G04 #@! TA.AperFunction,Conductor*
G04 #@! TO.N,/O2*
G36*
X177801836Y-97342825D02*
G01*
X177859862Y-97362219D01*
X177895409Y-97412020D01*
X177900000Y-97441820D01*
X177900000Y-97658530D01*
X177900001Y-97658531D01*
X178669670Y-97658531D01*
X178649925Y-97678276D01*
X178600556Y-97763786D01*
X178575000Y-97859161D01*
X178575000Y-97957901D01*
X178600556Y-98053276D01*
X178649925Y-98138786D01*
X178669670Y-98158531D01*
X177900002Y-98158531D01*
X177900001Y-98158532D01*
X177900001Y-98478322D01*
X177902909Y-98503405D01*
X177948213Y-98606008D01*
X178027522Y-98685317D01*
X178130127Y-98730621D01*
X178155203Y-98733530D01*
X178699998Y-98733530D01*
X178700000Y-98733529D01*
X178700000Y-98188861D01*
X178719745Y-98208606D01*
X178805255Y-98257975D01*
X178900630Y-98283531D01*
X178999370Y-98283531D01*
X179094745Y-98257975D01*
X179180255Y-98208606D01*
X179200000Y-98188861D01*
X179200000Y-98733529D01*
X179200001Y-98733530D01*
X179744790Y-98733530D01*
X179744791Y-98733529D01*
X179769874Y-98730621D01*
X179872477Y-98685317D01*
X179951786Y-98606008D01*
X179997090Y-98503403D01*
X179999999Y-98478328D01*
X180000000Y-98478326D01*
X180000000Y-98289435D01*
X181295548Y-98289435D01*
X181295548Y-99582499D01*
X181295549Y-99582500D01*
X182245547Y-99582500D01*
X182245548Y-99582499D01*
X182245548Y-97782501D01*
X182745548Y-97782501D01*
X182745548Y-99582499D01*
X182745549Y-99582500D01*
X183695547Y-99582500D01*
X183695548Y-99582499D01*
X183695548Y-98289441D01*
X183695547Y-98289435D01*
X183684934Y-98201056D01*
X183629467Y-98060404D01*
X183538112Y-97939935D01*
X183417643Y-97848580D01*
X183276991Y-97793113D01*
X183188612Y-97782500D01*
X182745549Y-97782500D01*
X182745548Y-97782501D01*
X182245548Y-97782501D01*
X182245547Y-97782500D01*
X181802483Y-97782500D01*
X181714104Y-97793113D01*
X181573452Y-97848580D01*
X181452983Y-97939935D01*
X181361628Y-98060404D01*
X181306161Y-98201056D01*
X181295548Y-98289435D01*
X180000000Y-98289435D01*
X180000000Y-98158532D01*
X179999999Y-98158531D01*
X179230330Y-98158531D01*
X179250075Y-98138786D01*
X179299444Y-98053276D01*
X179325000Y-97957901D01*
X179325000Y-97859161D01*
X179299444Y-97763786D01*
X179250075Y-97678276D01*
X179230330Y-97658531D01*
X179999998Y-97658531D01*
X179999999Y-97658530D01*
X179999999Y-97461147D01*
X180018906Y-97402956D01*
X180068406Y-97366992D01*
X180099825Y-97362152D01*
X184501834Y-97399174D01*
X184559862Y-97418570D01*
X184595409Y-97468370D01*
X184600000Y-97498170D01*
X184600000Y-102701083D01*
X184581093Y-102759274D01*
X184531593Y-102795238D01*
X184501083Y-102800083D01*
X180044922Y-102803831D01*
X179986716Y-102784973D01*
X179974835Y-102774835D01*
X179849999Y-102649999D01*
X179406285Y-102206285D01*
X179378510Y-102151771D01*
X179380764Y-102110291D01*
X179382638Y-102103401D01*
X179385547Y-102078328D01*
X179385548Y-102078326D01*
X179385548Y-101758532D01*
X179385547Y-101758531D01*
X178615878Y-101758531D01*
X178635623Y-101738786D01*
X178684992Y-101653276D01*
X178710548Y-101557901D01*
X178710548Y-101459161D01*
X178684992Y-101363786D01*
X178635623Y-101278276D01*
X178615878Y-101258531D01*
X179385546Y-101258531D01*
X179385547Y-101258530D01*
X179385547Y-100938741D01*
X179385546Y-100938739D01*
X179382638Y-100913656D01*
X179337334Y-100811053D01*
X179258025Y-100731744D01*
X179155420Y-100686440D01*
X179130345Y-100683531D01*
X178585549Y-100683531D01*
X178585548Y-100683532D01*
X178585548Y-101228201D01*
X178565803Y-101208456D01*
X178480293Y-101159087D01*
X178384918Y-101133531D01*
X178286178Y-101133531D01*
X178190803Y-101159087D01*
X178105293Y-101208456D01*
X178085548Y-101228201D01*
X178085548Y-100683532D01*
X178085547Y-100683531D01*
X177540758Y-100683531D01*
X177540755Y-100683532D01*
X177515673Y-100686440D01*
X177413070Y-100731744D01*
X177333761Y-100811053D01*
X177288457Y-100913658D01*
X177285548Y-100938733D01*
X177285548Y-101258530D01*
X177285549Y-101258531D01*
X178055218Y-101258531D01*
X178035473Y-101278276D01*
X177986104Y-101363786D01*
X177960548Y-101459161D01*
X177960548Y-101557901D01*
X177986104Y-101653276D01*
X178035473Y-101738786D01*
X178055218Y-101758531D01*
X177285550Y-101758531D01*
X177285549Y-101758532D01*
X177285549Y-102078322D01*
X177288457Y-102103405D01*
X177333761Y-102206008D01*
X177413071Y-102285318D01*
X177424568Y-102290395D01*
X177438991Y-102303302D01*
X177456046Y-102312451D01*
X177461249Y-102323219D01*
X177470163Y-102331196D01*
X177474245Y-102350114D01*
X177482666Y-102367542D01*
X177480259Y-102377988D01*
X177483068Y-102391005D01*
X177471819Y-102427758D01*
X177469549Y-102431989D01*
X177467619Y-102434878D01*
X177466329Y-102437991D01*
X177463988Y-102442356D01*
X177457350Y-102448718D01*
X177442547Y-102469527D01*
X176485173Y-103321146D01*
X176429128Y-103345694D01*
X176419374Y-103346176D01*
X176249000Y-103346176D01*
X176190809Y-103327269D01*
X176154845Y-103277769D01*
X176150000Y-103247176D01*
X176150000Y-103150001D01*
X176149999Y-103150000D01*
X173750001Y-103150000D01*
X173750000Y-103150001D01*
X173750000Y-103247176D01*
X173731093Y-103305367D01*
X173681593Y-103341331D01*
X173651000Y-103346176D01*
X170976808Y-103346176D01*
X170918617Y-103327269D01*
X170882653Y-103277769D01*
X170877808Y-103247176D01*
X170877808Y-103031716D01*
X170877789Y-103031005D01*
X170877543Y-103021279D01*
X170877032Y-103011233D01*
X170877031Y-103011229D01*
X170877031Y-103011226D01*
X170870152Y-102982282D01*
X170859786Y-102938664D01*
X170835071Y-102882692D01*
X170817229Y-102850460D01*
X170750379Y-102788049D01*
X170750373Y-102788045D01*
X170699736Y-102758601D01*
X170658935Y-102713006D01*
X170650500Y-102673018D01*
X170650500Y-101906430D01*
X170850000Y-101906430D01*
X170850000Y-102093569D01*
X170886508Y-102277104D01*
X170886508Y-102277106D01*
X170958119Y-102449991D01*
X170973473Y-102472970D01*
X171400000Y-102046443D01*
X171400000Y-102052661D01*
X171427259Y-102154394D01*
X171479920Y-102245606D01*
X171554394Y-102320080D01*
X171645606Y-102372741D01*
X171747339Y-102400000D01*
X171753552Y-102400000D01*
X171327027Y-102826525D01*
X171350008Y-102841880D01*
X171522894Y-102913491D01*
X171706430Y-102949999D01*
X171706434Y-102950000D01*
X171893566Y-102950000D01*
X171893569Y-102949999D01*
X172077104Y-102913491D01*
X172077106Y-102913491D01*
X172249990Y-102841880D01*
X172249993Y-102841879D01*
X172272971Y-102826525D01*
X171846446Y-102400000D01*
X171852661Y-102400000D01*
X171954394Y-102372741D01*
X172045606Y-102320080D01*
X172120080Y-102245606D01*
X172172741Y-102154394D01*
X172200000Y-102052661D01*
X172200000Y-102046446D01*
X172626525Y-102472971D01*
X172641879Y-102449993D01*
X172641880Y-102449990D01*
X172713491Y-102277106D01*
X172713491Y-102277104D01*
X172749999Y-102093569D01*
X172750000Y-102093565D01*
X172750000Y-101906434D01*
X172749999Y-101906430D01*
X172713491Y-101722895D01*
X172713491Y-101722893D01*
X172641880Y-101550008D01*
X172626525Y-101527027D01*
X172200000Y-101953552D01*
X172200000Y-101947339D01*
X172172741Y-101845606D01*
X172120080Y-101754394D01*
X172045606Y-101679920D01*
X171954394Y-101627259D01*
X171852661Y-101600000D01*
X171846444Y-101600000D01*
X172089510Y-101356935D01*
X173750000Y-101356935D01*
X173750000Y-102649999D01*
X173750001Y-102650000D01*
X174699999Y-102650000D01*
X174700000Y-102649999D01*
X174700000Y-100850001D01*
X175200000Y-100850001D01*
X175200000Y-102649999D01*
X175200001Y-102650000D01*
X176149999Y-102650000D01*
X176150000Y-102649999D01*
X176150000Y-101356941D01*
X176149999Y-101356935D01*
X176139386Y-101268556D01*
X176083919Y-101127904D01*
X175992564Y-101007435D01*
X175872095Y-100916080D01*
X175731443Y-100860613D01*
X175643064Y-100850000D01*
X175200001Y-100850000D01*
X175200000Y-100850001D01*
X174700000Y-100850001D01*
X174699999Y-100850000D01*
X174256935Y-100850000D01*
X174168556Y-100860613D01*
X174027904Y-100916080D01*
X173907435Y-101007435D01*
X173816080Y-101127904D01*
X173760613Y-101268556D01*
X173750000Y-101356935D01*
X172089510Y-101356935D01*
X172162468Y-101283977D01*
X172272971Y-101173473D01*
X172249991Y-101158119D01*
X172077105Y-101086508D01*
X171893569Y-101050000D01*
X171706430Y-101050000D01*
X171522896Y-101086507D01*
X171350004Y-101158122D01*
X171327027Y-101173473D01*
X171753554Y-101600000D01*
X171747339Y-101600000D01*
X171645606Y-101627259D01*
X171554394Y-101679920D01*
X171479920Y-101754394D01*
X171427259Y-101845606D01*
X171400000Y-101947339D01*
X171400000Y-101953554D01*
X170973473Y-101527027D01*
X170958122Y-101550004D01*
X170886507Y-101722896D01*
X170850000Y-101906430D01*
X170650500Y-101906430D01*
X170650500Y-101325749D01*
X170669407Y-101267558D01*
X170710592Y-101234715D01*
X170724691Y-101228690D01*
X170774191Y-101192726D01*
X170801936Y-101168485D01*
X170848844Y-101089975D01*
X170867751Y-101031784D01*
X170871773Y-101006383D01*
X170877808Y-100968285D01*
X170877808Y-100640258D01*
X170896715Y-100582067D01*
X170946215Y-100546103D01*
X170976517Y-100541258D01*
X176895548Y-100524151D01*
X176895548Y-100082501D01*
X181295548Y-100082501D01*
X181295548Y-101375564D01*
X181306161Y-101463943D01*
X181361628Y-101604595D01*
X181452983Y-101725064D01*
X181573452Y-101816419D01*
X181714104Y-101871886D01*
X181802483Y-101882499D01*
X181802490Y-101882500D01*
X182245547Y-101882500D01*
X182245548Y-101882499D01*
X182245548Y-100082501D01*
X182745548Y-100082501D01*
X182745548Y-101882499D01*
X182745549Y-101882500D01*
X183188606Y-101882500D01*
X183188612Y-101882499D01*
X183276991Y-101871886D01*
X183417643Y-101816419D01*
X183538112Y-101725064D01*
X183629467Y-101604595D01*
X183684934Y-101463943D01*
X183695547Y-101375564D01*
X183695548Y-101375558D01*
X183695548Y-100082501D01*
X183695547Y-100082500D01*
X182745549Y-100082500D01*
X182745548Y-100082501D01*
X182245548Y-100082501D01*
X182245547Y-100082500D01*
X181295549Y-100082500D01*
X181295548Y-100082501D01*
X176895548Y-100082501D01*
X176895548Y-97435038D01*
X176914455Y-97376847D01*
X176963955Y-97340883D01*
X176995377Y-97336042D01*
X177801836Y-97342825D01*
G37*
G04 #@! TD.AperFunction*
G04 #@! TD*
G04 #@! TA.AperFunction,Conductor*
G04 #@! TO.N,/O1*
G36*
X162501318Y-97418907D02*
G01*
X162537282Y-97468407D01*
X162542127Y-97499000D01*
X162542127Y-97647588D01*
X162542128Y-97647589D01*
X163311797Y-97647589D01*
X163292052Y-97667334D01*
X163242683Y-97752844D01*
X163217127Y-97848219D01*
X163217127Y-97946959D01*
X163242683Y-98042334D01*
X163292052Y-98127844D01*
X163311797Y-98147589D01*
X162542129Y-98147589D01*
X162542128Y-98147590D01*
X162542128Y-98467380D01*
X162545036Y-98492463D01*
X162590340Y-98595066D01*
X162669649Y-98674375D01*
X162772254Y-98719679D01*
X162797330Y-98722588D01*
X163342125Y-98722588D01*
X163342127Y-98722587D01*
X163342127Y-98177919D01*
X163361872Y-98197664D01*
X163447382Y-98247033D01*
X163542757Y-98272589D01*
X163641497Y-98272589D01*
X163736872Y-98247033D01*
X163822382Y-98197664D01*
X163842127Y-98177919D01*
X163842127Y-98722587D01*
X163842128Y-98722588D01*
X164386917Y-98722588D01*
X164386918Y-98722587D01*
X164412001Y-98719679D01*
X164514604Y-98674375D01*
X164593913Y-98595066D01*
X164639217Y-98492461D01*
X164642126Y-98467386D01*
X164642127Y-98467384D01*
X164642127Y-98147590D01*
X164642126Y-98147589D01*
X163872457Y-98147589D01*
X163892202Y-98127844D01*
X163941571Y-98042334D01*
X163967127Y-97946959D01*
X163967127Y-97848219D01*
X163941571Y-97752844D01*
X163892202Y-97667334D01*
X163872457Y-97647589D01*
X164642125Y-97647589D01*
X164642126Y-97647588D01*
X164642126Y-97499000D01*
X164646971Y-97484088D01*
X164646971Y-97468407D01*
X164656187Y-97455721D01*
X164661033Y-97440809D01*
X164673718Y-97431592D01*
X164682935Y-97418907D01*
X164697847Y-97414061D01*
X164710533Y-97404845D01*
X164741126Y-97400000D01*
X164790135Y-97400000D01*
X164848326Y-97418907D01*
X164884290Y-97468407D01*
X164889135Y-97499000D01*
X164889135Y-100509072D01*
X170573595Y-100525526D01*
X170631730Y-100544602D01*
X170667551Y-100594206D01*
X170672308Y-100624526D01*
X170672308Y-100968282D01*
X170653401Y-101026473D01*
X170603901Y-101062437D01*
X170542715Y-101062437D01*
X170533321Y-101058847D01*
X170519875Y-101052910D01*
X170519872Y-101052909D01*
X170494797Y-101050000D01*
X170050001Y-101050000D01*
X170050000Y-101050001D01*
X170050000Y-101684314D01*
X170045606Y-101679920D01*
X169954394Y-101627259D01*
X169852661Y-101600000D01*
X169747339Y-101600000D01*
X169645606Y-101627259D01*
X169554394Y-101679920D01*
X169550000Y-101684314D01*
X169550000Y-101050001D01*
X169549999Y-101050000D01*
X169105210Y-101050000D01*
X169105207Y-101050001D01*
X169080125Y-101052909D01*
X168977522Y-101098213D01*
X168898213Y-101177522D01*
X168852909Y-101280127D01*
X168850000Y-101305202D01*
X168850000Y-101749999D01*
X168850001Y-101750000D01*
X169484314Y-101750000D01*
X169479920Y-101754394D01*
X169427259Y-101845606D01*
X169400000Y-101947339D01*
X169400000Y-102052661D01*
X169427259Y-102154394D01*
X169479920Y-102245606D01*
X169484314Y-102250000D01*
X168850002Y-102250000D01*
X168850001Y-102250001D01*
X168850001Y-102694791D01*
X168852909Y-102719874D01*
X168898213Y-102822477D01*
X168977522Y-102901786D01*
X169080127Y-102947090D01*
X169105203Y-102949999D01*
X169549998Y-102949999D01*
X169550000Y-102949998D01*
X169550000Y-102315686D01*
X169554394Y-102320080D01*
X169645606Y-102372741D01*
X169747339Y-102400000D01*
X169852661Y-102400000D01*
X169954394Y-102372741D01*
X170045606Y-102320080D01*
X170050000Y-102315686D01*
X170050000Y-102949998D01*
X170050001Y-102949999D01*
X170494790Y-102949999D01*
X170494791Y-102949998D01*
X170519874Y-102947090D01*
X170519876Y-102947089D01*
X170533319Y-102941154D01*
X170594189Y-102934945D01*
X170647082Y-102965700D01*
X170671797Y-103021672D01*
X170672308Y-103031718D01*
X170672308Y-103252880D01*
X170653401Y-103311071D01*
X170603901Y-103347035D01*
X170573308Y-103351880D01*
X167999000Y-103351880D01*
X167940809Y-103332973D01*
X167904845Y-103283473D01*
X167900000Y-103252880D01*
X167900000Y-103150001D01*
X167899999Y-103150000D01*
X165500001Y-103150000D01*
X165496867Y-103153133D01*
X165481093Y-103201683D01*
X165431593Y-103237647D01*
X165370407Y-103237647D01*
X165330996Y-103213496D01*
X164767499Y-102649999D01*
X164200000Y-102082500D01*
X164199999Y-102082500D01*
X164011127Y-102082500D01*
X163952936Y-102063593D01*
X163916972Y-102014093D01*
X163912127Y-101983500D01*
X163912127Y-101677590D01*
X163912126Y-101677589D01*
X163142457Y-101677589D01*
X163162202Y-101657844D01*
X163211571Y-101572334D01*
X163237127Y-101476959D01*
X163237127Y-101378219D01*
X163231424Y-101356935D01*
X165500000Y-101356935D01*
X165500000Y-102649999D01*
X165500001Y-102650000D01*
X166449999Y-102650000D01*
X166450000Y-102649999D01*
X166450000Y-100850001D01*
X166950000Y-100850001D01*
X166950000Y-102649999D01*
X166950001Y-102650000D01*
X167899999Y-102650000D01*
X167900000Y-102649999D01*
X167900000Y-101356941D01*
X167899999Y-101356934D01*
X167894862Y-101314152D01*
X167889385Y-101268556D01*
X167833919Y-101127904D01*
X167742564Y-101007435D01*
X167622095Y-100916080D01*
X167481443Y-100860613D01*
X167393064Y-100850000D01*
X166950001Y-100850000D01*
X166950000Y-100850001D01*
X166450000Y-100850001D01*
X166449999Y-100850000D01*
X166006935Y-100850000D01*
X165918556Y-100860613D01*
X165777904Y-100916080D01*
X165657435Y-101007435D01*
X165566080Y-101127904D01*
X165510613Y-101268556D01*
X165500000Y-101356935D01*
X163231424Y-101356935D01*
X163211571Y-101282844D01*
X163162202Y-101197334D01*
X163142457Y-101177589D01*
X163912125Y-101177589D01*
X163912126Y-101177588D01*
X163912126Y-100857799D01*
X163912125Y-100857797D01*
X163909217Y-100832714D01*
X163863913Y-100730111D01*
X163784604Y-100650802D01*
X163681999Y-100605498D01*
X163656924Y-100602589D01*
X163112128Y-100602589D01*
X163112127Y-100602590D01*
X163112127Y-101147259D01*
X163092382Y-101127514D01*
X163006872Y-101078145D01*
X162911497Y-101052589D01*
X162812757Y-101052589D01*
X162717382Y-101078145D01*
X162631872Y-101127514D01*
X162612127Y-101147259D01*
X162612127Y-100602590D01*
X162612126Y-100602589D01*
X162067337Y-100602589D01*
X162067334Y-100602590D01*
X162042252Y-100605498D01*
X161939649Y-100650802D01*
X161860340Y-100730111D01*
X161815036Y-100832716D01*
X161812127Y-100857791D01*
X161812127Y-101177588D01*
X161812128Y-101177589D01*
X162581797Y-101177589D01*
X162562052Y-101197334D01*
X162512683Y-101282844D01*
X162487127Y-101378219D01*
X162487127Y-101476959D01*
X162512683Y-101572334D01*
X162562052Y-101657844D01*
X162581797Y-101677589D01*
X161812129Y-101677589D01*
X161812128Y-101677590D01*
X161812128Y-101997380D01*
X161815036Y-102022463D01*
X161831541Y-102059842D01*
X161837749Y-102120712D01*
X161806993Y-102173605D01*
X161794757Y-102182948D01*
X161004275Y-102694431D01*
X160951515Y-102710308D01*
X157483803Y-102746068D01*
X157425420Y-102727761D01*
X157388948Y-102678635D01*
X157383783Y-102647532D01*
X157371887Y-100082501D01*
X158092127Y-100082501D01*
X158092127Y-101375564D01*
X158102740Y-101463943D01*
X158158207Y-101604595D01*
X158249562Y-101725064D01*
X158370031Y-101816419D01*
X158510683Y-101871886D01*
X158599062Y-101882499D01*
X158599069Y-101882500D01*
X159042126Y-101882500D01*
X159042127Y-101882499D01*
X159042127Y-100082501D01*
X159542127Y-100082501D01*
X159542127Y-101882499D01*
X159542128Y-101882500D01*
X159985185Y-101882500D01*
X159985191Y-101882499D01*
X160073570Y-101871886D01*
X160214222Y-101816419D01*
X160334691Y-101725064D01*
X160426046Y-101604595D01*
X160481513Y-101463943D01*
X160492126Y-101375564D01*
X160492127Y-101375558D01*
X160492127Y-100082501D01*
X160492126Y-100082500D01*
X159542128Y-100082500D01*
X159542127Y-100082501D01*
X159042127Y-100082501D01*
X159042126Y-100082500D01*
X158092128Y-100082500D01*
X158092127Y-100082501D01*
X157371887Y-100082501D01*
X157363572Y-98289435D01*
X158092127Y-98289435D01*
X158092127Y-99582499D01*
X158092128Y-99582500D01*
X159042126Y-99582500D01*
X159042127Y-99582499D01*
X159042127Y-97782501D01*
X159542127Y-97782501D01*
X159542127Y-99582499D01*
X159542128Y-99582500D01*
X160492126Y-99582500D01*
X160492127Y-99582499D01*
X160492127Y-98289441D01*
X160492126Y-98289435D01*
X160481512Y-98201053D01*
X160458580Y-98142901D01*
X160458579Y-98142900D01*
X160426047Y-98060405D01*
X160334691Y-97939935D01*
X160214222Y-97848580D01*
X160073570Y-97793113D01*
X159985191Y-97782500D01*
X159542128Y-97782500D01*
X159542127Y-97782501D01*
X159042127Y-97782501D01*
X159042126Y-97782500D01*
X158599062Y-97782500D01*
X158510683Y-97793113D01*
X158370031Y-97848580D01*
X158249562Y-97939935D01*
X158158207Y-98060404D01*
X158102740Y-98201056D01*
X158092127Y-98289435D01*
X157363572Y-98289435D01*
X157359908Y-97499458D01*
X157378545Y-97441181D01*
X157427878Y-97404988D01*
X157458907Y-97400000D01*
X162443127Y-97400000D01*
X162501318Y-97418907D01*
G37*
G04 #@! TD.AperFunction*
G04 #@! TD*
G04 #@! TA.AperFunction,Conductor*
G04 #@! TO.N,GND*
G36*
X191827004Y-89363101D02*
G01*
X191887335Y-89363100D01*
X191898417Y-89363721D01*
X191992963Y-89374374D01*
X192014575Y-89379307D01*
X192099094Y-89408881D01*
X192119067Y-89418500D01*
X192194884Y-89466138D01*
X192212218Y-89479960D01*
X192275539Y-89543281D01*
X192289360Y-89560613D01*
X192336997Y-89636426D01*
X192346617Y-89656401D01*
X192376193Y-89740925D01*
X192381125Y-89762537D01*
X192391770Y-89857007D01*
X192392393Y-89868092D01*
X192392393Y-106244436D01*
X192391770Y-106255521D01*
X192381117Y-106350067D01*
X192376184Y-106371680D01*
X192346611Y-106456193D01*
X192336993Y-106476166D01*
X192289355Y-106551981D01*
X192275533Y-106569314D01*
X192212213Y-106632634D01*
X192194880Y-106646456D01*
X192119065Y-106694093D01*
X192099091Y-106703712D01*
X192014573Y-106733285D01*
X191992961Y-106738217D01*
X191898362Y-106748876D01*
X191887277Y-106749499D01*
X191820942Y-106749499D01*
X191820926Y-106749500D01*
X149779073Y-106749500D01*
X149772999Y-106749499D01*
X149772996Y-106749499D01*
X149742947Y-106749499D01*
X149712664Y-106749499D01*
X149712663Y-106749498D01*
X149701581Y-106748877D01*
X149607037Y-106738225D01*
X149585424Y-106733292D01*
X149500905Y-106703718D01*
X149480932Y-106694099D01*
X149405115Y-106646461D01*
X149387781Y-106632639D01*
X149324460Y-106569318D01*
X149310639Y-106551986D01*
X149263002Y-106476173D01*
X149253382Y-106456198D01*
X149253380Y-106456193D01*
X149223805Y-106371670D01*
X149218876Y-106350074D01*
X149208228Y-106255574D01*
X149207607Y-106244506D01*
X149207607Y-97500410D01*
X157154410Y-97500410D01*
X157158074Y-98290386D01*
X157158127Y-98301727D01*
X157158127Y-98301731D01*
X157166389Y-100083454D01*
X157172324Y-101363271D01*
X157178284Y-102648481D01*
X157181058Y-102681199D01*
X157186220Y-102712277D01*
X157186224Y-102712300D01*
X157187140Y-102717412D01*
X157223949Y-102801133D01*
X157260421Y-102850259D01*
X157284944Y-102877751D01*
X157284946Y-102877752D01*
X157363928Y-102923844D01*
X157363929Y-102923844D01*
X157363934Y-102923847D01*
X157422317Y-102942154D01*
X157485922Y-102951557D01*
X160953634Y-102915797D01*
X161010733Y-102907091D01*
X161063493Y-102891214D01*
X161115912Y-102866963D01*
X161777638Y-102438791D01*
X161836763Y-102423054D01*
X161893848Y-102445076D01*
X161927087Y-102496445D01*
X161928516Y-102541223D01*
X161911627Y-102626128D01*
X161911627Y-102769046D01*
X161918010Y-102801133D01*
X161939129Y-102907306D01*
X161939508Y-102909208D01*
X161939508Y-102909210D01*
X161994195Y-103041237D01*
X161994201Y-103041248D01*
X162041966Y-103112732D01*
X162073595Y-103160068D01*
X162105755Y-103192228D01*
X162133532Y-103246743D01*
X162123961Y-103307175D01*
X162105755Y-103332235D01*
X161996307Y-103441682D01*
X161906020Y-103576805D01*
X161847706Y-103717589D01*
X162581797Y-103717589D01*
X162562052Y-103737334D01*
X162512683Y-103822844D01*
X162487127Y-103918219D01*
X162487127Y-104016959D01*
X162512683Y-104112334D01*
X162562052Y-104197844D01*
X162581797Y-104217589D01*
X161847706Y-104217589D01*
X161906020Y-104358372D01*
X161996307Y-104493495D01*
X162111220Y-104608408D01*
X162246345Y-104698696D01*
X162396482Y-104760884D01*
X162555869Y-104792588D01*
X162555873Y-104792589D01*
X162612126Y-104792589D01*
X162612127Y-104792588D01*
X162612127Y-104247919D01*
X162631872Y-104267664D01*
X162717382Y-104317033D01*
X162812757Y-104342589D01*
X162911497Y-104342589D01*
X163006872Y-104317033D01*
X163092382Y-104267664D01*
X163112127Y-104247919D01*
X163112127Y-104792588D01*
X163112128Y-104792589D01*
X163168381Y-104792589D01*
X163168384Y-104792588D01*
X163327770Y-104760884D01*
X163327772Y-104760884D01*
X163477908Y-104698696D01*
X163477909Y-104698696D01*
X163613033Y-104608408D01*
X163727946Y-104493495D01*
X163818233Y-104358372D01*
X163876548Y-104217589D01*
X163142457Y-104217589D01*
X163162202Y-104197844D01*
X163211571Y-104112334D01*
X163237127Y-104016959D01*
X163237127Y-103918219D01*
X163211571Y-103822844D01*
X163162202Y-103737334D01*
X163142457Y-103717589D01*
X163876547Y-103717589D01*
X163818233Y-103576805D01*
X163727946Y-103441682D01*
X163618499Y-103332235D01*
X163590722Y-103277718D01*
X163600293Y-103217286D01*
X163618497Y-103192229D01*
X163650659Y-103160068D01*
X163730056Y-103041242D01*
X163784746Y-102909209D01*
X163812627Y-102769044D01*
X163812627Y-102626134D01*
X163784746Y-102485969D01*
X163739817Y-102377500D01*
X163735016Y-102316504D01*
X163766986Y-102264335D01*
X163823514Y-102240920D01*
X163882059Y-102254629D01*
X163889434Y-102259036D01*
X163947625Y-102277943D01*
X163960325Y-102279954D01*
X164011123Y-102288000D01*
X164011127Y-102288000D01*
X164073872Y-102288000D01*
X164132063Y-102306907D01*
X164143876Y-102316996D01*
X164496818Y-102669938D01*
X165185686Y-103358806D01*
X165223623Y-103388714D01*
X165263034Y-103412865D01*
X165281244Y-103422796D01*
X165370407Y-103443147D01*
X165431591Y-103443147D01*
X165431593Y-103443147D01*
X165431595Y-103443146D01*
X165431610Y-103443146D01*
X165458989Y-103440680D01*
X165468287Y-103439844D01*
X165468289Y-103439842D01*
X165475839Y-103437941D01*
X165476703Y-103441371D01*
X165522361Y-103437182D01*
X165574940Y-103468472D01*
X165599086Y-103524692D01*
X165599500Y-103533738D01*
X165599500Y-104454274D01*
X165602353Y-104484694D01*
X165602355Y-104484703D01*
X165647207Y-104612883D01*
X165727845Y-104722144D01*
X165727847Y-104722146D01*
X165727850Y-104722150D01*
X165727853Y-104722152D01*
X165727855Y-104722154D01*
X165837116Y-104802792D01*
X165837117Y-104802792D01*
X165837118Y-104802793D01*
X165965301Y-104847646D01*
X165995725Y-104850499D01*
X165995727Y-104850500D01*
X165995734Y-104850500D01*
X167404273Y-104850500D01*
X167404273Y-104850499D01*
X167434699Y-104847646D01*
X167562882Y-104802793D01*
X167672150Y-104722150D01*
X167752793Y-104612882D01*
X167797646Y-104484699D01*
X167800499Y-104454273D01*
X167800500Y-104454273D01*
X167800500Y-103639721D01*
X167819407Y-103581530D01*
X167868907Y-103545566D01*
X167930090Y-103545566D01*
X167935498Y-103547323D01*
X167958362Y-103550944D01*
X167998996Y-103557380D01*
X167999000Y-103557380D01*
X170573301Y-103557380D01*
X170573308Y-103557380D01*
X170605452Y-103554850D01*
X170636045Y-103550005D01*
X170636056Y-103550003D01*
X170636101Y-103549996D01*
X170640589Y-103549233D01*
X170640588Y-103549233D01*
X170640595Y-103549232D01*
X170724691Y-103513288D01*
X170729530Y-103510543D01*
X170730312Y-103511922D01*
X170781722Y-103495202D01*
X170832525Y-103509215D01*
X170855115Y-103522712D01*
X170913306Y-103541619D01*
X170926006Y-103543630D01*
X170976804Y-103551676D01*
X170976808Y-103551676D01*
X173650993Y-103551676D01*
X173651000Y-103551676D01*
X173683144Y-103549146D01*
X173713737Y-103544301D01*
X173713748Y-103544299D01*
X173713793Y-103544292D01*
X173718278Y-103543530D01*
X173718281Y-103543528D01*
X173718287Y-103543528D01*
X173718291Y-103543525D01*
X173722551Y-103542273D01*
X173783713Y-103543983D01*
X173832188Y-103581317D01*
X173849500Y-103637246D01*
X173849500Y-104454274D01*
X173852353Y-104484694D01*
X173852355Y-104484703D01*
X173897207Y-104612883D01*
X173977845Y-104722144D01*
X173977847Y-104722146D01*
X173977850Y-104722150D01*
X173977853Y-104722152D01*
X173977855Y-104722154D01*
X174087116Y-104802792D01*
X174087117Y-104802792D01*
X174087118Y-104802793D01*
X174215301Y-104847646D01*
X174245725Y-104850499D01*
X174245727Y-104850500D01*
X174245734Y-104850500D01*
X175654273Y-104850500D01*
X175654273Y-104850499D01*
X175684699Y-104847646D01*
X175812882Y-104802793D01*
X175922150Y-104722150D01*
X176002793Y-104612882D01*
X176047646Y-104484699D01*
X176050499Y-104454273D01*
X176050500Y-104454273D01*
X176050500Y-103634017D01*
X176069407Y-103575826D01*
X176118907Y-103539862D01*
X176180090Y-103539862D01*
X176185498Y-103541619D01*
X176210420Y-103545566D01*
X176248996Y-103551676D01*
X176249000Y-103551676D01*
X176419374Y-103551676D01*
X176429517Y-103551426D01*
X176439271Y-103550944D01*
X176511576Y-103533929D01*
X176567621Y-103509381D01*
X176621755Y-103474689D01*
X177246707Y-102918770D01*
X177302750Y-102894224D01*
X177362520Y-102907306D01*
X177403186Y-102953022D01*
X177409601Y-102973425D01*
X177412927Y-102990145D01*
X177412929Y-102990152D01*
X177467616Y-103122179D01*
X177467622Y-103122190D01*
X177514420Y-103192226D01*
X177547016Y-103241010D01*
X177579176Y-103273170D01*
X177606953Y-103327685D01*
X177597382Y-103388117D01*
X177579176Y-103413177D01*
X177469728Y-103522624D01*
X177379441Y-103657747D01*
X177321127Y-103798531D01*
X178055218Y-103798531D01*
X178035473Y-103818276D01*
X177986104Y-103903786D01*
X177960548Y-103999161D01*
X177960548Y-104097901D01*
X177986104Y-104193276D01*
X178035473Y-104278786D01*
X178055218Y-104298531D01*
X177321127Y-104298531D01*
X177379441Y-104439314D01*
X177469728Y-104574437D01*
X177584641Y-104689350D01*
X177719766Y-104779638D01*
X177869903Y-104841826D01*
X178029290Y-104873530D01*
X178029294Y-104873531D01*
X178085547Y-104873531D01*
X178085548Y-104873530D01*
X178085548Y-104328861D01*
X178105293Y-104348606D01*
X178190803Y-104397975D01*
X178286178Y-104423531D01*
X178384918Y-104423531D01*
X178480293Y-104397975D01*
X178565803Y-104348606D01*
X178585548Y-104328861D01*
X178585548Y-104873530D01*
X178585549Y-104873531D01*
X178641802Y-104873531D01*
X178641805Y-104873530D01*
X178801191Y-104841826D01*
X178801193Y-104841826D01*
X178951329Y-104779638D01*
X178951330Y-104779638D01*
X179086454Y-104689350D01*
X179201367Y-104574437D01*
X179291654Y-104439314D01*
X179349969Y-104298531D01*
X178615878Y-104298531D01*
X178635623Y-104278786D01*
X178684992Y-104193276D01*
X178710548Y-104097901D01*
X178710548Y-103999161D01*
X178684992Y-103903786D01*
X178635623Y-103818276D01*
X178615878Y-103798531D01*
X179349968Y-103798531D01*
X179291654Y-103657747D01*
X179201367Y-103522624D01*
X179091920Y-103413177D01*
X179064143Y-103358660D01*
X179073714Y-103298228D01*
X179091918Y-103273171D01*
X179124080Y-103241010D01*
X179203477Y-103122184D01*
X179258167Y-102990151D01*
X179286048Y-102849986D01*
X179286048Y-102707076D01*
X179267675Y-102614711D01*
X179274866Y-102553954D01*
X179316398Y-102509023D01*
X179376408Y-102497086D01*
X179431973Y-102522701D01*
X179434751Y-102525371D01*
X179829525Y-102920145D01*
X179841444Y-102931159D01*
X179853325Y-102941297D01*
X179923378Y-102980469D01*
X179981584Y-102999327D01*
X180045095Y-103009331D01*
X184501256Y-103005583D01*
X184525019Y-103003697D01*
X184533302Y-103003041D01*
X184533304Y-103003041D01*
X184533307Y-103003040D01*
X184533313Y-103003040D01*
X184563823Y-102998195D01*
X184568287Y-102997435D01*
X184652383Y-102961491D01*
X184701883Y-102925527D01*
X184729628Y-102901286D01*
X184776536Y-102822776D01*
X184795443Y-102764585D01*
X184803724Y-102712300D01*
X184805500Y-102701086D01*
X184805500Y-97498172D01*
X184803105Y-97466895D01*
X184803104Y-97466881D01*
X184798508Y-97437049D01*
X184797907Y-97433376D01*
X184762671Y-97348983D01*
X184762670Y-97348980D01*
X184727123Y-97299180D01*
X184703121Y-97271236D01*
X184694562Y-97266024D01*
X184625011Y-97223670D01*
X184566977Y-97204272D01*
X184528991Y-97197928D01*
X184503562Y-97193681D01*
X184503559Y-97193680D01*
X184503546Y-97193680D01*
X180101563Y-97156658D01*
X180101549Y-97156659D01*
X180068536Y-97159048D01*
X180037067Y-97163895D01*
X180031718Y-97164793D01*
X180031708Y-97164796D01*
X179947617Y-97200738D01*
X179926644Y-97215976D01*
X179899310Y-97224857D01*
X179872338Y-97234807D01*
X179870383Y-97234255D01*
X179868453Y-97234883D01*
X179813450Y-97218197D01*
X179789836Y-97202418D01*
X179751957Y-97154368D01*
X179749556Y-97093230D01*
X179762520Y-97065108D01*
X179817929Y-96982184D01*
X179872619Y-96850151D01*
X179900500Y-96709986D01*
X179900500Y-96567076D01*
X179872619Y-96426911D01*
X179837578Y-96342314D01*
X179832777Y-96281318D01*
X179864747Y-96229149D01*
X179921275Y-96205734D01*
X179928989Y-96205429D01*
X179930705Y-96205428D01*
X179930711Y-96205429D01*
X180301164Y-96205229D01*
X180333252Y-96202691D01*
X180363792Y-96197846D01*
X180368287Y-96197081D01*
X180452383Y-96161137D01*
X180501883Y-96125173D01*
X180529628Y-96100932D01*
X180576536Y-96022422D01*
X180595443Y-95964231D01*
X180602039Y-95922584D01*
X180605500Y-95900732D01*
X180605500Y-95082501D01*
X181295548Y-95082501D01*
X181295548Y-96375564D01*
X181306161Y-96463943D01*
X181361628Y-96604595D01*
X181452983Y-96725064D01*
X181573452Y-96816419D01*
X181714104Y-96871886D01*
X181802483Y-96882499D01*
X181802490Y-96882500D01*
X182245547Y-96882500D01*
X182245548Y-96882499D01*
X182245548Y-95082501D01*
X182745548Y-95082501D01*
X182745548Y-96882499D01*
X182745549Y-96882500D01*
X183188606Y-96882500D01*
X183188612Y-96882499D01*
X183276991Y-96871886D01*
X183417643Y-96816419D01*
X183538112Y-96725064D01*
X183629467Y-96604595D01*
X183684934Y-96463943D01*
X183695547Y-96375564D01*
X183695548Y-96375558D01*
X183695548Y-95082501D01*
X183695547Y-95082500D01*
X182745549Y-95082500D01*
X182745548Y-95082501D01*
X182245548Y-95082501D01*
X182245547Y-95082500D01*
X181295549Y-95082500D01*
X181295548Y-95082501D01*
X180605500Y-95082501D01*
X180605500Y-94649502D01*
X180603206Y-94618896D01*
X180603205Y-94618893D01*
X180603205Y-94618885D01*
X180598808Y-94589710D01*
X180598329Y-94586684D01*
X180563652Y-94502057D01*
X180528436Y-94452022D01*
X180483660Y-94405880D01*
X180096263Y-94115430D01*
X180040719Y-94085832D01*
X180033969Y-94083475D01*
X179984144Y-94066082D01*
X179944716Y-94058821D01*
X179922247Y-94054683D01*
X179922246Y-94054682D01*
X179922244Y-94054682D01*
X177952658Y-93998751D01*
X177895027Y-93978200D01*
X177876268Y-93959191D01*
X177394100Y-93316300D01*
X177373905Y-93293193D01*
X177352896Y-93272500D01*
X177350703Y-93270372D01*
X177272193Y-93223464D01*
X177267065Y-93221798D01*
X177217566Y-93185836D01*
X177198657Y-93127646D01*
X177205561Y-93091321D01*
X177214385Y-93068945D01*
X177224999Y-92980564D01*
X177225000Y-92980558D01*
X177225000Y-92850001D01*
X177224999Y-92850000D01*
X175175001Y-92850000D01*
X175172772Y-92852228D01*
X175156093Y-92903563D01*
X175106593Y-92939527D01*
X175045407Y-92939527D01*
X175005997Y-92915376D01*
X174774299Y-92683679D01*
X174762465Y-92672739D01*
X174760135Y-92670749D01*
X174750643Y-92662642D01*
X174680685Y-92623464D01*
X174622494Y-92604557D01*
X174622491Y-92604556D01*
X174622492Y-92604556D01*
X174558995Y-92594500D01*
X174558992Y-92594500D01*
X173004779Y-92594500D01*
X172983638Y-92596061D01*
X172974575Y-92596731D01*
X172945832Y-92601002D01*
X172945792Y-92601008D01*
X172944772Y-92601166D01*
X172943173Y-92601414D01*
X172858404Y-92635744D01*
X172808233Y-92670749D01*
X172780024Y-92694458D01*
X172780023Y-92694459D01*
X172731621Y-92772059D01*
X172731620Y-92772061D01*
X172711605Y-92829873D01*
X172711605Y-92829875D01*
X172700335Y-92893167D01*
X172700335Y-92893170D01*
X172689244Y-93472735D01*
X172685119Y-93688252D01*
X172685092Y-93694241D01*
X172685150Y-93700023D01*
X172685151Y-93700037D01*
X172685608Y-93702522D01*
X172685481Y-93703469D01*
X172685558Y-93704264D01*
X172685373Y-93704281D01*
X172677525Y-93763171D01*
X172658241Y-93790411D01*
X172276100Y-94172552D01*
X172276100Y-94149840D01*
X172250136Y-94052939D01*
X172199976Y-93966060D01*
X172129040Y-93895124D01*
X172042161Y-93844964D01*
X171945260Y-93819000D01*
X171922543Y-93819000D01*
X172357255Y-93384288D01*
X172337984Y-93371412D01*
X172167829Y-93300932D01*
X171987191Y-93265000D01*
X171803008Y-93265000D01*
X171622371Y-93300932D01*
X171622369Y-93300932D01*
X171452211Y-93371413D01*
X171432942Y-93384287D01*
X171867655Y-93819000D01*
X171844940Y-93819000D01*
X171748039Y-93844964D01*
X171661160Y-93895124D01*
X171590224Y-93966060D01*
X171540064Y-94052939D01*
X171514100Y-94149840D01*
X171514100Y-94172555D01*
X171079387Y-93737842D01*
X171066513Y-93757111D01*
X170996032Y-93927269D01*
X170996032Y-93927271D01*
X170960100Y-94107908D01*
X170960100Y-94292091D01*
X170996032Y-94472728D01*
X170996032Y-94472730D01*
X171066512Y-94642884D01*
X171079388Y-94662155D01*
X171514100Y-94227443D01*
X171514100Y-94250160D01*
X171540064Y-94347061D01*
X171590224Y-94433940D01*
X171661160Y-94504876D01*
X171748039Y-94555036D01*
X171844940Y-94581000D01*
X171867653Y-94581000D01*
X171432942Y-95015711D01*
X171452213Y-95028587D01*
X171622370Y-95099067D01*
X171803008Y-95134999D01*
X171803012Y-95135000D01*
X171987188Y-95135000D01*
X171987191Y-95134999D01*
X172167828Y-95099067D01*
X172167830Y-95099067D01*
X172337985Y-95028587D01*
X172337988Y-95028586D01*
X172357256Y-95015711D01*
X171922545Y-94581000D01*
X171945260Y-94581000D01*
X172042161Y-94555036D01*
X172129040Y-94504876D01*
X172199976Y-94433940D01*
X172250136Y-94347061D01*
X172276100Y-94250160D01*
X172276100Y-94227446D01*
X172637546Y-94588893D01*
X172665323Y-94643409D01*
X172665881Y-94660970D01*
X172666506Y-94660982D01*
X172666431Y-94664866D01*
X172666431Y-94664870D01*
X172665243Y-94726963D01*
X172661410Y-94927263D01*
X172657521Y-95130500D01*
X172639018Y-96097367D01*
X172619001Y-96155186D01*
X172568822Y-96190196D01*
X172540010Y-96194473D01*
X169981814Y-96193794D01*
X169923628Y-96174871D01*
X169920825Y-96172756D01*
X169824496Y-96097367D01*
X169659680Y-95968378D01*
X168917439Y-95387482D01*
X168914496Y-95385220D01*
X168911694Y-95383106D01*
X168911695Y-95383106D01*
X168911693Y-95383105D01*
X168851412Y-95351699D01*
X168851411Y-95351698D01*
X168793225Y-95332792D01*
X168793219Y-95332791D01*
X168729722Y-95322735D01*
X168729719Y-95322735D01*
X166503642Y-95322735D01*
X166445451Y-95303828D01*
X166409487Y-95254328D01*
X166404643Y-95224219D01*
X166403720Y-95035500D01*
X166399234Y-94117925D01*
X166399216Y-94117707D01*
X167059601Y-94117707D01*
X167059601Y-94282292D01*
X167072484Y-94347061D01*
X167089765Y-94433940D01*
X167091708Y-94443705D01*
X167091708Y-94443707D01*
X167154687Y-94595753D01*
X167154693Y-94595765D01*
X167198263Y-94660970D01*
X167246125Y-94732600D01*
X167362501Y-94848976D01*
X167420841Y-94887957D01*
X167499335Y-94940407D01*
X167499347Y-94940413D01*
X167555512Y-94963677D01*
X167651395Y-95003393D01*
X167812811Y-95035500D01*
X167812812Y-95035500D01*
X167977390Y-95035500D01*
X167977391Y-95035500D01*
X168138807Y-95003393D01*
X168290859Y-94940411D01*
X168290861Y-94940409D01*
X168290866Y-94940407D01*
X168330377Y-94914005D01*
X168427701Y-94848976D01*
X168544077Y-94732600D01*
X168629157Y-94605269D01*
X168635508Y-94595765D01*
X168635514Y-94595753D01*
X168638037Y-94589662D01*
X168698494Y-94443706D01*
X168730601Y-94282290D01*
X168730601Y-94117710D01*
X168730600Y-94117707D01*
X169059599Y-94117707D01*
X169059599Y-94282292D01*
X169072482Y-94347061D01*
X169089763Y-94433940D01*
X169091706Y-94443705D01*
X169091706Y-94443707D01*
X169154685Y-94595753D01*
X169154691Y-94595765D01*
X169198261Y-94660970D01*
X169246123Y-94732600D01*
X169362499Y-94848976D01*
X169420839Y-94887957D01*
X169499333Y-94940407D01*
X169499345Y-94940413D01*
X169555510Y-94963677D01*
X169651393Y-95003393D01*
X169812809Y-95035500D01*
X169812810Y-95035500D01*
X169977388Y-95035500D01*
X169977389Y-95035500D01*
X170138805Y-95003393D01*
X170290857Y-94940411D01*
X170290859Y-94940409D01*
X170290864Y-94940407D01*
X170356572Y-94896502D01*
X170383481Y-94878521D01*
X170427699Y-94848976D01*
X170544075Y-94732600D01*
X170629155Y-94605269D01*
X170635506Y-94595765D01*
X170635512Y-94595753D01*
X170638035Y-94589662D01*
X170698492Y-94443706D01*
X170730599Y-94282290D01*
X170730599Y-94117710D01*
X170698492Y-93956294D01*
X170645705Y-93828854D01*
X170635512Y-93804246D01*
X170635506Y-93804234D01*
X170568718Y-93704281D01*
X170544075Y-93667400D01*
X170427699Y-93551024D01*
X170427698Y-93551023D01*
X170356569Y-93503496D01*
X170290864Y-93459592D01*
X170290852Y-93459586D01*
X170138805Y-93396607D01*
X169977391Y-93364500D01*
X169977389Y-93364500D01*
X169812809Y-93364500D01*
X169812806Y-93364500D01*
X169651393Y-93396607D01*
X169651391Y-93396607D01*
X169499345Y-93459586D01*
X169499333Y-93459592D01*
X169362499Y-93551024D01*
X169362495Y-93551027D01*
X169246126Y-93667396D01*
X169246123Y-93667400D01*
X169154691Y-93804234D01*
X169154685Y-93804246D01*
X169091706Y-93956292D01*
X169091706Y-93956294D01*
X169059599Y-94117707D01*
X168730600Y-94117707D01*
X168698494Y-93956294D01*
X168645707Y-93828854D01*
X168635514Y-93804246D01*
X168635508Y-93804234D01*
X168568720Y-93704281D01*
X168544077Y-93667400D01*
X168427701Y-93551024D01*
X168388718Y-93524976D01*
X168290866Y-93459592D01*
X168290854Y-93459586D01*
X168138807Y-93396607D01*
X167977393Y-93364500D01*
X167977391Y-93364500D01*
X167812811Y-93364500D01*
X167812808Y-93364500D01*
X167651395Y-93396607D01*
X167651393Y-93396607D01*
X167499347Y-93459586D01*
X167499335Y-93459592D01*
X167362501Y-93551024D01*
X167362497Y-93551027D01*
X167246128Y-93667396D01*
X167246125Y-93667400D01*
X167154693Y-93804234D01*
X167154687Y-93804246D01*
X167091708Y-93956292D01*
X167091708Y-93956294D01*
X167059601Y-94117707D01*
X166399216Y-94117707D01*
X166396681Y-94086624D01*
X166391938Y-94056829D01*
X166391311Y-94053114D01*
X166355646Y-93968898D01*
X166355645Y-93968896D01*
X166319852Y-93919285D01*
X166319849Y-93919281D01*
X166295702Y-93891456D01*
X166295701Y-93891455D01*
X166217353Y-93844288D01*
X166217352Y-93844287D01*
X166159220Y-93825184D01*
X166095762Y-93814917D01*
X166095756Y-93814916D01*
X166095754Y-93814916D01*
X166095752Y-93814915D01*
X166095744Y-93814915D01*
X163220048Y-93805328D01*
X163162287Y-93813411D01*
X163108866Y-93828854D01*
X163108863Y-93828855D01*
X163055706Y-93852835D01*
X162084654Y-94469976D01*
X162054168Y-94493646D01*
X162054157Y-94493655D01*
X162027159Y-94519025D01*
X162019353Y-94526765D01*
X162019352Y-94526766D01*
X161972449Y-94605269D01*
X161972445Y-94605277D01*
X161953539Y-94663466D01*
X161943483Y-94726963D01*
X161943483Y-95530584D01*
X161944833Y-95554089D01*
X161947432Y-95576639D01*
X161975716Y-95659416D01*
X161975717Y-95659418D01*
X161975718Y-95659420D01*
X162007372Y-95711781D01*
X162029179Y-95741471D01*
X162029182Y-95741473D01*
X162103448Y-95794846D01*
X162159825Y-95818598D01*
X162159828Y-95818598D01*
X162159831Y-95818600D01*
X162222257Y-95833987D01*
X162470318Y-95855020D01*
X162470325Y-95855019D01*
X162470328Y-95855020D01*
X162496730Y-95854361D01*
X162515220Y-95853901D01*
X162557850Y-95848136D01*
X162574915Y-95845091D01*
X162622182Y-95822653D01*
X162664635Y-95813089D01*
X162755609Y-95813089D01*
X162813800Y-95831996D01*
X162825606Y-95842079D01*
X162904648Y-95921121D01*
X162904651Y-95921123D01*
X162906112Y-95922584D01*
X162933889Y-95977101D01*
X162924318Y-96037533D01*
X162906112Y-96062591D01*
X162803603Y-96165100D01*
X162803595Y-96165110D01*
X162724201Y-96283929D01*
X162724195Y-96283940D01*
X162669508Y-96415967D01*
X162669508Y-96415969D01*
X162641627Y-96556131D01*
X162641627Y-96699046D01*
X162669508Y-96839208D01*
X162669508Y-96839210D01*
X162724195Y-96971237D01*
X162724201Y-96971249D01*
X162779602Y-97054160D01*
X162783858Y-97069251D01*
X162792570Y-97082289D01*
X162791954Y-97097956D01*
X162796211Y-97113048D01*
X162790783Y-97127760D01*
X162790168Y-97143427D01*
X162780461Y-97155739D01*
X162775034Y-97170452D01*
X162752289Y-97191477D01*
X162690564Y-97232721D01*
X162631676Y-97249330D01*
X162584786Y-97235393D01*
X162567151Y-97224857D01*
X162564820Y-97223464D01*
X162564818Y-97223463D01*
X162564816Y-97223462D01*
X162506626Y-97204556D01*
X162506627Y-97204556D01*
X162443130Y-97194500D01*
X162443127Y-97194500D01*
X157458907Y-97194500D01*
X157458900Y-97194500D01*
X157426291Y-97197104D01*
X157426285Y-97197105D01*
X157395265Y-97202091D01*
X157390252Y-97202961D01*
X157390248Y-97202962D01*
X157306315Y-97239298D01*
X157257000Y-97275478D01*
X157256982Y-97275492D01*
X157229355Y-97299857D01*
X157229351Y-97299861D01*
X157182813Y-97378578D01*
X157182810Y-97378585D01*
X157164173Y-97436862D01*
X157154410Y-97500410D01*
X149207607Y-97500410D01*
X149207607Y-95082501D01*
X158092127Y-95082501D01*
X158092127Y-96375564D01*
X158102740Y-96463943D01*
X158158207Y-96604595D01*
X158249562Y-96725064D01*
X158370031Y-96816419D01*
X158510683Y-96871886D01*
X158599062Y-96882499D01*
X158599069Y-96882500D01*
X159042126Y-96882500D01*
X159042127Y-96882499D01*
X159042127Y-95082501D01*
X159542127Y-95082501D01*
X159542127Y-96882499D01*
X159542128Y-96882500D01*
X159985185Y-96882500D01*
X159985191Y-96882499D01*
X160073570Y-96871886D01*
X160214222Y-96816419D01*
X160334691Y-96725064D01*
X160426046Y-96604595D01*
X160481513Y-96463943D01*
X160492126Y-96375564D01*
X160492127Y-96375558D01*
X160492127Y-95082501D01*
X160492126Y-95082500D01*
X159542128Y-95082500D01*
X159542127Y-95082501D01*
X159042127Y-95082501D01*
X159042126Y-95082500D01*
X158092128Y-95082500D01*
X158092127Y-95082501D01*
X149207607Y-95082501D01*
X149207607Y-93289435D01*
X158092127Y-93289435D01*
X158092127Y-94582499D01*
X158092128Y-94582500D01*
X159042126Y-94582500D01*
X159042127Y-94582499D01*
X159042127Y-92782501D01*
X159542127Y-92782501D01*
X159542127Y-94582499D01*
X159542128Y-94582500D01*
X160492126Y-94582500D01*
X160492127Y-94582499D01*
X160492127Y-93289441D01*
X160492126Y-93289435D01*
X160481513Y-93201056D01*
X160426046Y-93060404D01*
X160334691Y-92939935D01*
X160214222Y-92848580D01*
X160073570Y-92793113D01*
X159985191Y-92782500D01*
X159542128Y-92782500D01*
X159542127Y-92782501D01*
X159042127Y-92782501D01*
X159042126Y-92782500D01*
X158599062Y-92782500D01*
X158510683Y-92793113D01*
X158370031Y-92848580D01*
X158249562Y-92939935D01*
X158158207Y-93060404D01*
X158102740Y-93201056D01*
X158092127Y-93289435D01*
X149207607Y-93289435D01*
X149207607Y-92101579D01*
X161349500Y-92101579D01*
X161349500Y-92298420D01*
X161380289Y-92492821D01*
X161441116Y-92680025D01*
X161527722Y-92850001D01*
X161530476Y-92855405D01*
X161646172Y-93014646D01*
X161785354Y-93153828D01*
X161944595Y-93269524D01*
X162119975Y-93358884D01*
X162307174Y-93419709D01*
X162307175Y-93419709D01*
X162307178Y-93419710D01*
X162501580Y-93450500D01*
X162501583Y-93450500D01*
X162698420Y-93450500D01*
X162892821Y-93419710D01*
X162892822Y-93419709D01*
X162892826Y-93419709D01*
X163080025Y-93358884D01*
X163255405Y-93269524D01*
X163414646Y-93153828D01*
X163553828Y-93014646D01*
X163669524Y-92855405D01*
X163758884Y-92680025D01*
X163819709Y-92492826D01*
X163819710Y-92492821D01*
X163850500Y-92298420D01*
X163850500Y-92219435D01*
X175175000Y-92219435D01*
X175175000Y-92349999D01*
X175175001Y-92350000D01*
X175949999Y-92350000D01*
X175950000Y-92349999D01*
X175950000Y-91712501D01*
X176450000Y-91712501D01*
X176450000Y-92349999D01*
X176450001Y-92350000D01*
X177224999Y-92350000D01*
X177225000Y-92349999D01*
X177225000Y-92219441D01*
X177224999Y-92219435D01*
X177214386Y-92131056D01*
X177202762Y-92101579D01*
X177549500Y-92101579D01*
X177549500Y-92298420D01*
X177580289Y-92492821D01*
X177641116Y-92680025D01*
X177727722Y-92850001D01*
X177730476Y-92855405D01*
X177846172Y-93014646D01*
X177985354Y-93153828D01*
X178144595Y-93269524D01*
X178319975Y-93358884D01*
X178507174Y-93419709D01*
X178507175Y-93419709D01*
X178507178Y-93419710D01*
X178701580Y-93450500D01*
X178701583Y-93450500D01*
X178898420Y-93450500D01*
X179092821Y-93419710D01*
X179092822Y-93419709D01*
X179092826Y-93419709D01*
X179280025Y-93358884D01*
X179416327Y-93289435D01*
X181295548Y-93289435D01*
X181295548Y-94582499D01*
X181295549Y-94582500D01*
X182245547Y-94582500D01*
X182245548Y-94582499D01*
X182245548Y-92782501D01*
X182745548Y-92782501D01*
X182745548Y-94582499D01*
X182745549Y-94582500D01*
X183695547Y-94582500D01*
X183695548Y-94582499D01*
X183695548Y-93289441D01*
X183695547Y-93289435D01*
X183684934Y-93201056D01*
X183629467Y-93060404D01*
X183538112Y-92939935D01*
X183417643Y-92848580D01*
X183276991Y-92793113D01*
X183188612Y-92782500D01*
X182745549Y-92782500D01*
X182745548Y-92782501D01*
X182245548Y-92782501D01*
X182245547Y-92782500D01*
X181802483Y-92782500D01*
X181714104Y-92793113D01*
X181573452Y-92848580D01*
X181452983Y-92939935D01*
X181361628Y-93060404D01*
X181306161Y-93201056D01*
X181295548Y-93289435D01*
X179416327Y-93289435D01*
X179455405Y-93269524D01*
X179614646Y-93153828D01*
X179753828Y-93014646D01*
X179869524Y-92855405D01*
X179958884Y-92680025D01*
X180019709Y-92492826D01*
X180019710Y-92492821D01*
X180050500Y-92298420D01*
X180050500Y-92101579D01*
X180019710Y-91907178D01*
X180007609Y-91869935D01*
X179958884Y-91719975D01*
X179869524Y-91544595D01*
X179753828Y-91385354D01*
X179614646Y-91246172D01*
X179455405Y-91130476D01*
X179455404Y-91130475D01*
X179455402Y-91130474D01*
X179280025Y-91041116D01*
X179092821Y-90980289D01*
X178898420Y-90949500D01*
X178898417Y-90949500D01*
X178701583Y-90949500D01*
X178701580Y-90949500D01*
X178507178Y-90980289D01*
X178319974Y-91041116D01*
X178144597Y-91130474D01*
X177985355Y-91246171D01*
X177846171Y-91385355D01*
X177730474Y-91544597D01*
X177641116Y-91719974D01*
X177580289Y-91907178D01*
X177549500Y-92101579D01*
X177202762Y-92101579D01*
X177158920Y-91990405D01*
X177067564Y-91869935D01*
X176947095Y-91778580D01*
X176806443Y-91723113D01*
X176718064Y-91712500D01*
X176450001Y-91712500D01*
X176450000Y-91712501D01*
X175950000Y-91712501D01*
X175949999Y-91712500D01*
X175681935Y-91712500D01*
X175593556Y-91723113D01*
X175452904Y-91778580D01*
X175332435Y-91869935D01*
X175241080Y-91990404D01*
X175185613Y-92131056D01*
X175175000Y-92219435D01*
X163850500Y-92219435D01*
X163850500Y-92101579D01*
X163819710Y-91907178D01*
X163807609Y-91869935D01*
X163758884Y-91719975D01*
X163669524Y-91544595D01*
X163553828Y-91385354D01*
X163414646Y-91246172D01*
X163255405Y-91130476D01*
X163255404Y-91130475D01*
X163255402Y-91130474D01*
X163080025Y-91041116D01*
X162892821Y-90980289D01*
X162698420Y-90949500D01*
X162698417Y-90949500D01*
X162501583Y-90949500D01*
X162501580Y-90949500D01*
X162307178Y-90980289D01*
X162119974Y-91041116D01*
X161944597Y-91130474D01*
X161785355Y-91246171D01*
X161646171Y-91385355D01*
X161530474Y-91544597D01*
X161441116Y-91719974D01*
X161380289Y-91907178D01*
X161349500Y-92101579D01*
X149207607Y-92101579D01*
X149207607Y-89868163D01*
X149208229Y-89857079D01*
X149218881Y-89762537D01*
X149218882Y-89762528D01*
X149223813Y-89740924D01*
X149253390Y-89656400D01*
X149263002Y-89636440D01*
X149310650Y-89560609D01*
X149324462Y-89543289D01*
X149387792Y-89479960D01*
X149405114Y-89466146D01*
X149480935Y-89418505D01*
X149500906Y-89408887D01*
X149585427Y-89379313D01*
X149607038Y-89374382D01*
X149701637Y-89363723D01*
X149712721Y-89363100D01*
X149772996Y-89363101D01*
X149773000Y-89363100D01*
X191827000Y-89363100D01*
X191827004Y-89363101D01*
G37*
G04 #@! TD.AperFunction*
G04 #@! TD*
M02*
