G04 #@! TF.GenerationSoftware,KiCad,Pcbnew,9.0.4*
G04 #@! TF.CreationDate,2025-08-26T21:24:31+02:00*
G04 #@! TF.ProjectId,npn-pnp-h-bridge,6e706e2d-706e-4702-9d68-2d6272696467,rev?*
G04 #@! TF.SameCoordinates,Original*
G04 #@! TF.FileFunction,Copper,L2,Bot*
G04 #@! TF.FilePolarity,Positive*
%FSLAX46Y46*%
G04 Gerber Fmt 4.6, Leading zero omitted, Abs format (unit mm)*
G04 Created by KiCad (PCBNEW 9.0.4) date 2025-08-26 21:24:31*
%MOMM*%
%LPD*%
G01*
G04 APERTURE LIST*
G04 Aperture macros list*
%AMRoundRect*
0 Rectangle with rounded corners*
0 $1 Rounding radius*
0 $2 $3 $4 $5 $6 $7 $8 $9 X,Y pos of 4 corners*
0 Add a 4 corners polygon primitive as box body*
4,1,4,$2,$3,$4,$5,$6,$7,$8,$9,$2,$3,0*
0 Add four circle primitives for the rounded corners*
1,1,$1+$1,$2,$3*
1,1,$1+$1,$4,$5*
1,1,$1+$1,$6,$7*
1,1,$1+$1,$8,$9*
0 Add four rect primitives between the rounded corners*
20,1,$1+$1,$2,$3,$4,$5,0*
20,1,$1+$1,$4,$5,$6,$7,0*
20,1,$1+$1,$6,$7,$8,$9,0*
20,1,$1+$1,$8,$9,$2,$3,0*%
G04 Aperture macros list end*
G04 #@! TA.AperFunction,ComponentPad*
%ADD10C,2.600000*%
G04 #@! TD*
G04 #@! TA.AperFunction,ConnectorPad*
%ADD11C,4.400000*%
G04 #@! TD*
G04 #@! TA.AperFunction,ComponentPad*
%ADD12RoundRect,0.250000X-0.350000X-0.625000X0.350000X-0.625000X0.350000X0.625000X-0.350000X0.625000X0*%
G04 #@! TD*
G04 #@! TA.AperFunction,ComponentPad*
%ADD13O,1.200000X1.750000*%
G04 #@! TD*
G04 #@! TA.AperFunction,ComponentPad*
%ADD14RoundRect,0.250000X0.350000X0.625000X-0.350000X0.625000X-0.350000X-0.625000X0.350000X-0.625000X0*%
G04 #@! TD*
G04 #@! TA.AperFunction,ComponentPad*
%ADD15R,1.500000X1.050000*%
G04 #@! TD*
G04 #@! TA.AperFunction,ComponentPad*
%ADD16O,1.500000X1.050000*%
G04 #@! TD*
G04 #@! TA.AperFunction,SMDPad,CuDef*
%ADD17RoundRect,0.250000X-0.650000X1.500000X-0.650000X-1.500000X0.650000X-1.500000X0.650000X1.500000X0*%
G04 #@! TD*
G04 #@! TA.AperFunction,SMDPad,CuDef*
%ADD18RoundRect,0.250000X0.475000X-0.337500X0.475000X0.337500X-0.475000X0.337500X-0.475000X-0.337500X0*%
G04 #@! TD*
G04 #@! TA.AperFunction,SMDPad,CuDef*
%ADD19RoundRect,0.250000X0.650000X-1.500000X0.650000X1.500000X-0.650000X1.500000X-0.650000X-1.500000X0*%
G04 #@! TD*
G04 #@! TA.AperFunction,ViaPad*
%ADD20C,0.600000*%
G04 #@! TD*
G04 APERTURE END LIST*
D10*
G04 #@! TO.P,H2,1,1*
G04 #@! TO.N,GND*
X129900000Y-65100000D03*
D11*
X129900000Y-65100000D03*
G04 #@! TD*
D10*
G04 #@! TO.P,H1,1,1*
G04 #@! TO.N,GND*
X91900000Y-65100000D03*
D11*
X91900000Y-65100000D03*
G04 #@! TD*
D12*
G04 #@! TO.P,J2,1,1*
G04 #@! TO.N,/O1*
X109838410Y-62997837D03*
D13*
G04 #@! TO.P,J2,2,2*
G04 #@! TO.N,/O2*
X111838410Y-62997837D03*
G04 #@! TD*
D14*
G04 #@! TO.P,J1,1,1*
G04 #@! TO.N,VDD*
X113933509Y-55197837D03*
D13*
G04 #@! TO.P,J1,2,2*
G04 #@! TO.N,GND*
X111933509Y-55197837D03*
G04 #@! TO.P,J1,3,3*
G04 #@! TO.N,/R_IN*
X109933509Y-55197837D03*
G04 #@! TO.P,J1,4,4*
G04 #@! TO.N,/L_IN*
X107933509Y-55197837D03*
G04 #@! TD*
D15*
G04 #@! TO.P,Qr1,1,C*
G04 #@! TO.N,/O2*
X119200000Y-58900000D03*
D16*
G04 #@! TO.P,Qr1,2,B*
G04 #@! TO.N,/H2b*
X119200000Y-57630000D03*
G04 #@! TO.P,Qr1,3,E*
G04 #@! TO.N,VDD*
X119200000Y-56360000D03*
G04 #@! TD*
D15*
G04 #@! TO.P,Ql1,1,C*
G04 #@! TO.N,/O1*
X103400000Y-58900000D03*
D16*
G04 #@! TO.P,Ql1,2,B*
G04 #@! TO.N,/H1b*
X103400000Y-57630000D03*
G04 #@! TO.P,Ql1,3,E*
G04 #@! TO.N,VDD*
X103400000Y-56360000D03*
G04 #@! TD*
D15*
G04 #@! TO.P,Qr2,1,C*
G04 #@! TO.N,/O2*
X118373958Y-62506368D03*
D16*
G04 #@! TO.P,Qr2,2,B*
G04 #@! TO.N,/L2b*
X118373958Y-63776368D03*
G04 #@! TO.P,Qr2,3,E*
G04 #@! TO.N,GND*
X118373958Y-65046368D03*
G04 #@! TD*
D15*
G04 #@! TO.P,Ql2,1,C*
G04 #@! TO.N,/O1*
X102900537Y-62425426D03*
D16*
G04 #@! TO.P,Ql2,2,B*
G04 #@! TO.N,/L1b*
X102900537Y-63695426D03*
G04 #@! TO.P,Ql2,3,E*
G04 #@! TO.N,GND*
X102900537Y-64965426D03*
G04 #@! TD*
D17*
G04 #@! TO.P,D6,1,K*
G04 #@! TO.N,VDD*
X106738410Y-58897837D03*
G04 #@! TO.P,D6,2,A*
G04 #@! TO.N,/O1*
X106738410Y-63897837D03*
G04 #@! TD*
D18*
G04 #@! TO.P,C5,1,+*
G04 #@! TO.N,VDD*
X116600000Y-55437500D03*
G04 #@! TO.P,C5,2,-*
G04 #@! TO.N,GND*
X116600000Y-53362500D03*
G04 #@! TD*
D17*
G04 #@! TO.P,D5,1,K*
G04 #@! TO.N,VDD*
X114988410Y-58897837D03*
G04 #@! TO.P,D5,2,A*
G04 #@! TO.N,/O2*
X114988410Y-63897837D03*
G04 #@! TD*
D19*
G04 #@! TO.P,D4,1,K*
G04 #@! TO.N,/O1*
X99330537Y-60830337D03*
G04 #@! TO.P,D4,2,A*
G04 #@! TO.N,GND*
X99330537Y-55830337D03*
G04 #@! TD*
G04 #@! TO.P,D3,1,K*
G04 #@! TO.N,/O2*
X122533958Y-60830337D03*
G04 #@! TO.P,D3,2,A*
G04 #@! TO.N,GND*
X122533958Y-55830337D03*
G04 #@! TD*
D20*
G04 #@! TO.N,GND*
X96900000Y-63300000D03*
X96100000Y-63300000D03*
X96100000Y-62500000D03*
G04 #@! TO.N,/O2*
X123000000Y-63300000D03*
G04 #@! TO.N,GND*
X119800000Y-54400000D03*
X101800000Y-54400000D03*
X94702910Y-60397837D03*
X124100000Y-65931170D03*
X101800000Y-53500000D03*
X101238410Y-66610437D03*
X121000000Y-67360437D03*
X97838410Y-66664504D03*
X121000000Y-66610437D03*
X119800000Y-52600000D03*
X127238410Y-60397837D03*
X102700000Y-52600000D03*
X113238410Y-65597837D03*
X101238410Y-67360437D03*
X97838410Y-65931170D03*
X124100000Y-66664504D03*
X111988410Y-65597837D03*
X118900000Y-52600000D03*
X109688410Y-65597837D03*
X101800000Y-52600000D03*
X119800000Y-53500000D03*
X124100000Y-67397837D03*
X108438410Y-65597837D03*
X97838410Y-67397837D03*
G04 #@! TO.N,/O1*
X99192131Y-63317463D03*
G04 #@! TO.N,GND*
X126500000Y-62400000D03*
X126500000Y-63200000D03*
X125700000Y-63200000D03*
G04 #@! TD*
G04 #@! TA.AperFunction,Conductor*
G04 #@! TO.N,VDD*
G36*
X115054153Y-53516744D02*
G01*
X115073567Y-53535368D01*
X115520792Y-54099999D01*
X115520793Y-54100000D01*
X115887315Y-54100000D01*
X115920012Y-54105556D01*
X116040294Y-54147644D01*
X116040296Y-54147644D01*
X116040301Y-54147646D01*
X116070725Y-54150499D01*
X116070727Y-54150500D01*
X116070734Y-54150500D01*
X117129273Y-54150500D01*
X117129273Y-54150499D01*
X117159699Y-54147646D01*
X117159705Y-54147644D01*
X117279988Y-54105556D01*
X117312685Y-54100000D01*
X117647751Y-54100000D01*
X117686965Y-54108097D01*
X119966583Y-55091516D01*
X120000648Y-55115853D01*
X120592845Y-55767873D01*
X120612695Y-55789728D01*
X120637822Y-55845516D01*
X120638410Y-55856289D01*
X120638410Y-56498512D01*
X120619503Y-56556703D01*
X120570003Y-56592667D01*
X120539464Y-56597512D01*
X120338991Y-56597620D01*
X120338988Y-56597621D01*
X119492250Y-56598079D01*
X119500075Y-56590255D01*
X119549444Y-56504745D01*
X119575000Y-56409370D01*
X119575000Y-56310630D01*
X119549444Y-56215255D01*
X119500075Y-56129745D01*
X119480330Y-56110000D01*
X120214420Y-56110000D01*
X120156106Y-55969216D01*
X120065819Y-55834093D01*
X119950906Y-55719180D01*
X119815781Y-55628892D01*
X119665644Y-55566704D01*
X119506257Y-55535000D01*
X119450001Y-55535000D01*
X119450000Y-55535001D01*
X119450000Y-56079670D01*
X119430255Y-56059925D01*
X119344745Y-56010556D01*
X119249370Y-55985000D01*
X119150630Y-55985000D01*
X119055255Y-56010556D01*
X118969745Y-56059925D01*
X118950000Y-56079670D01*
X118950000Y-55535001D01*
X118949999Y-55535000D01*
X118893742Y-55535000D01*
X118734356Y-55566704D01*
X118734354Y-55566704D01*
X118584218Y-55628892D01*
X118584217Y-55628892D01*
X118449093Y-55719180D01*
X118334180Y-55834093D01*
X118243893Y-55969216D01*
X118185579Y-56110000D01*
X118919670Y-56110000D01*
X118899925Y-56129745D01*
X118850556Y-56215255D01*
X118825000Y-56310630D01*
X118825000Y-56409370D01*
X118850556Y-56504745D01*
X118899925Y-56590255D01*
X118908066Y-56598396D01*
X118738410Y-56598488D01*
X118738410Y-56610000D01*
X118185579Y-56610000D01*
X118243893Y-56750783D01*
X118334180Y-56885906D01*
X118443627Y-56995353D01*
X118471404Y-57049870D01*
X118461833Y-57110302D01*
X118443628Y-57135360D01*
X118411471Y-57167517D01*
X118411468Y-57167521D01*
X118332074Y-57286340D01*
X118332068Y-57286351D01*
X118277381Y-57418378D01*
X118277381Y-57418380D01*
X118249500Y-57558542D01*
X118249500Y-57701457D01*
X118277381Y-57841619D01*
X118277381Y-57841621D01*
X118332068Y-57973648D01*
X118332074Y-57973660D01*
X118378965Y-58043835D01*
X118382705Y-58057095D01*
X118390805Y-58068244D01*
X118390805Y-58085814D01*
X118395574Y-58102723D01*
X118390805Y-58115650D01*
X118390805Y-58129430D01*
X118380477Y-58143644D01*
X118374397Y-58160127D01*
X118362940Y-58167781D01*
X118354841Y-58178930D01*
X118338130Y-58184359D01*
X118323523Y-58194120D01*
X118296650Y-58197837D01*
X118253523Y-58197837D01*
X118202032Y-58183393D01*
X118194703Y-58178930D01*
X118175009Y-58166937D01*
X118175007Y-58166936D01*
X118175005Y-58166935D01*
X118116994Y-58147544D01*
X118116981Y-58147540D01*
X118053569Y-58136949D01*
X118053568Y-58136948D01*
X118053563Y-58136948D01*
X118053558Y-58136947D01*
X118053548Y-58136947D01*
X117035526Y-58128385D01*
X117035510Y-58128386D01*
X117002498Y-58130774D01*
X117002474Y-58130777D01*
X116971112Y-58135609D01*
X116965674Y-58136522D01*
X116965673Y-58136522D01*
X116965671Y-58136523D01*
X116913869Y-58158664D01*
X116881572Y-58172468D01*
X116832076Y-58208430D01*
X116804330Y-58232672D01*
X116757422Y-58311182D01*
X116757420Y-58311185D01*
X116738514Y-58369374D01*
X116728458Y-58432871D01*
X116728458Y-61218366D01*
X116709551Y-61276557D01*
X116660051Y-61312521D01*
X116629744Y-61317366D01*
X111014332Y-61333596D01*
X110982477Y-61336173D01*
X110982469Y-61336174D01*
X110952151Y-61341022D01*
X110947933Y-61341742D01*
X110947924Y-61341744D01*
X110864261Y-61377504D01*
X110803322Y-61382989D01*
X110774329Y-61371310D01*
X110751484Y-61357571D01*
X110734210Y-61347182D01*
X110734207Y-61347181D01*
X110734203Y-61347179D01*
X110676083Y-61328108D01*
X110676078Y-61328107D01*
X110676075Y-61328106D01*
X110612600Y-61317864D01*
X110612601Y-61317864D01*
X105131758Y-61301999D01*
X105073623Y-61282923D01*
X105037802Y-61233319D01*
X105033045Y-61202999D01*
X105033045Y-59147838D01*
X105538410Y-59147838D01*
X105538410Y-60440901D01*
X105549023Y-60529280D01*
X105604490Y-60669932D01*
X105695845Y-60790401D01*
X105816314Y-60881756D01*
X105956966Y-60937223D01*
X106045345Y-60947836D01*
X106045352Y-60947837D01*
X106488409Y-60947837D01*
X106488410Y-60947836D01*
X106488410Y-59147838D01*
X106988410Y-59147838D01*
X106988410Y-60947836D01*
X106988411Y-60947837D01*
X107431468Y-60947837D01*
X107431474Y-60947836D01*
X107519853Y-60937223D01*
X107660505Y-60881756D01*
X107780974Y-60790401D01*
X107872329Y-60669932D01*
X107927796Y-60529280D01*
X107938409Y-60440901D01*
X107938410Y-60440895D01*
X107938410Y-59147838D01*
X113788410Y-59147838D01*
X113788410Y-60440901D01*
X113799023Y-60529280D01*
X113854490Y-60669932D01*
X113945845Y-60790401D01*
X114066314Y-60881756D01*
X114206966Y-60937223D01*
X114295345Y-60947836D01*
X114295352Y-60947837D01*
X114738409Y-60947837D01*
X114738410Y-60947836D01*
X114738410Y-59147838D01*
X115238410Y-59147838D01*
X115238410Y-60947836D01*
X115238411Y-60947837D01*
X115681468Y-60947837D01*
X115681474Y-60947836D01*
X115769853Y-60937223D01*
X115910505Y-60881756D01*
X116030974Y-60790401D01*
X116122329Y-60669932D01*
X116177796Y-60529280D01*
X116188409Y-60440901D01*
X116188410Y-60440895D01*
X116188410Y-59147838D01*
X116188409Y-59147837D01*
X115238411Y-59147837D01*
X115238410Y-59147838D01*
X114738410Y-59147838D01*
X114738409Y-59147837D01*
X113788411Y-59147837D01*
X113788410Y-59147838D01*
X107938410Y-59147838D01*
X107938409Y-59147837D01*
X106988411Y-59147837D01*
X106988410Y-59147838D01*
X106488410Y-59147838D01*
X106488409Y-59147837D01*
X105538411Y-59147837D01*
X105538410Y-59147838D01*
X105033045Y-59147838D01*
X105033045Y-58496843D01*
X105033045Y-58496837D01*
X105030515Y-58464693D01*
X105027290Y-58444335D01*
X105026072Y-58428850D01*
X105026072Y-58055632D01*
X105026071Y-58055631D01*
X104492376Y-57415196D01*
X104442023Y-57354772D01*
X105538410Y-57354772D01*
X105538410Y-58647836D01*
X105538411Y-58647837D01*
X106488409Y-58647837D01*
X106488410Y-58647836D01*
X106488410Y-56847838D01*
X106988410Y-56847838D01*
X106988410Y-58647836D01*
X106988411Y-58647837D01*
X107938409Y-58647837D01*
X107938410Y-58647836D01*
X107938410Y-57354778D01*
X107938409Y-57354772D01*
X107927796Y-57266393D01*
X107872329Y-57125741D01*
X107780974Y-57005272D01*
X107660505Y-56913917D01*
X107519853Y-56858450D01*
X107431474Y-56847837D01*
X106988411Y-56847837D01*
X106988410Y-56847838D01*
X106488410Y-56847838D01*
X106488409Y-56847837D01*
X106045345Y-56847837D01*
X105956966Y-56858450D01*
X105816314Y-56913917D01*
X105695845Y-57005272D01*
X105604490Y-57125741D01*
X105549023Y-57266393D01*
X105538410Y-57354772D01*
X104442023Y-57354772D01*
X104238411Y-57110438D01*
X104227613Y-57102872D01*
X104228318Y-57101864D01*
X104191851Y-57073528D01*
X104174832Y-57014758D01*
X104195607Y-56957207D01*
X104203777Y-56947947D01*
X104265819Y-56885906D01*
X104356106Y-56750783D01*
X104414421Y-56610000D01*
X103680330Y-56610000D01*
X103700075Y-56590255D01*
X103749444Y-56504745D01*
X103775000Y-56409370D01*
X103775000Y-56310630D01*
X103749444Y-56215255D01*
X103700075Y-56129745D01*
X103680330Y-56110000D01*
X104414420Y-56110000D01*
X104356106Y-55969216D01*
X104265819Y-55834093D01*
X104150906Y-55719180D01*
X104015781Y-55628892D01*
X103865644Y-55566704D01*
X103706257Y-55535000D01*
X103650001Y-55535000D01*
X103650000Y-55535001D01*
X103650000Y-56079670D01*
X103630255Y-56059925D01*
X103544745Y-56010556D01*
X103449370Y-55985000D01*
X103350630Y-55985000D01*
X103255255Y-56010556D01*
X103169745Y-56059925D01*
X103150000Y-56079670D01*
X103150000Y-55535001D01*
X103149999Y-55535000D01*
X103093742Y-55535000D01*
X102934356Y-55566704D01*
X102934354Y-55566704D01*
X102784218Y-55628892D01*
X102784217Y-55628892D01*
X102649093Y-55719180D01*
X102534180Y-55834093D01*
X102443893Y-55969216D01*
X102385579Y-56110000D01*
X103119670Y-56110000D01*
X103099925Y-56129745D01*
X103050556Y-56215255D01*
X103025000Y-56310630D01*
X103025000Y-56409370D01*
X103050556Y-56504745D01*
X103099925Y-56590255D01*
X103119670Y-56610000D01*
X102385579Y-56610000D01*
X102356181Y-56653998D01*
X102352917Y-56651817D01*
X102338537Y-56675267D01*
X102282001Y-56698663D01*
X102274639Y-56698965D01*
X102097994Y-56699630D01*
X102039732Y-56680942D01*
X102003582Y-56631578D01*
X101998631Y-56602014D01*
X101998567Y-56597459D01*
X101988165Y-55852809D01*
X102006257Y-55794361D01*
X102034050Y-55767875D01*
X103204342Y-55024109D01*
X103257768Y-55008665D01*
X106133479Y-55018252D01*
X106191604Y-55037353D01*
X106227403Y-55086972D01*
X106232146Y-55116767D01*
X106235709Y-55845516D01*
X106239526Y-56626072D01*
X107583949Y-56626072D01*
X107615230Y-56631144D01*
X109915228Y-57397104D01*
X112600000Y-57399624D01*
X112600000Y-57399623D01*
X112600000Y-57354772D01*
X113788410Y-57354772D01*
X113788410Y-58647836D01*
X113788411Y-58647837D01*
X114738409Y-58647837D01*
X114738410Y-58647836D01*
X114738410Y-56847838D01*
X115238410Y-56847838D01*
X115238410Y-58647836D01*
X115238411Y-58647837D01*
X116188409Y-58647837D01*
X116188410Y-58647836D01*
X116188410Y-57354778D01*
X116188409Y-57354772D01*
X116177796Y-57266393D01*
X116122329Y-57125741D01*
X116030974Y-57005272D01*
X115910505Y-56913917D01*
X115769853Y-56858450D01*
X115681474Y-56847837D01*
X115238411Y-56847837D01*
X115238410Y-56847838D01*
X114738410Y-56847838D01*
X114738409Y-56847837D01*
X114295345Y-56847837D01*
X114206966Y-56858450D01*
X114066314Y-56913917D01*
X113945845Y-57005272D01*
X113854490Y-57125741D01*
X113799023Y-57266393D01*
X113788410Y-57354772D01*
X112600000Y-57354772D01*
X112600000Y-55946255D01*
X112616684Y-55891254D01*
X112642903Y-55852016D01*
X112703246Y-55706334D01*
X112734009Y-55551679D01*
X112734009Y-54843995D01*
X112703246Y-54689340D01*
X112642903Y-54543658D01*
X112633625Y-54529772D01*
X113033509Y-54529772D01*
X113033509Y-54947836D01*
X113033510Y-54947837D01*
X113653179Y-54947837D01*
X113633434Y-54967582D01*
X113584065Y-55053092D01*
X113558509Y-55148467D01*
X113558509Y-55247207D01*
X113584065Y-55342582D01*
X113633434Y-55428092D01*
X113653179Y-55447837D01*
X113033510Y-55447837D01*
X113033509Y-55447838D01*
X113033509Y-55865901D01*
X113044122Y-55954280D01*
X113099589Y-56094932D01*
X113190944Y-56215401D01*
X113311413Y-56306756D01*
X113452065Y-56362223D01*
X113540444Y-56372836D01*
X113540451Y-56372837D01*
X113683508Y-56372837D01*
X113683509Y-56372836D01*
X113683509Y-55478167D01*
X113703254Y-55497912D01*
X113788764Y-55547281D01*
X113884139Y-55572837D01*
X113982879Y-55572837D01*
X114078254Y-55547281D01*
X114163764Y-55497912D01*
X114183509Y-55478167D01*
X114183509Y-56372836D01*
X114183510Y-56372837D01*
X114326567Y-56372837D01*
X114326573Y-56372836D01*
X114414952Y-56362223D01*
X114555604Y-56306756D01*
X114676073Y-56215401D01*
X114767428Y-56094932D01*
X114822895Y-55954280D01*
X114833508Y-55865901D01*
X114833509Y-55865895D01*
X114833509Y-55687501D01*
X115575000Y-55687501D01*
X115575000Y-55818064D01*
X115585613Y-55906443D01*
X115641080Y-56047095D01*
X115732435Y-56167564D01*
X115852904Y-56258919D01*
X115993556Y-56314386D01*
X116081935Y-56324999D01*
X116081942Y-56325000D01*
X116349999Y-56325000D01*
X116350000Y-56324999D01*
X116350000Y-55687501D01*
X116850000Y-55687501D01*
X116850000Y-56324999D01*
X116850001Y-56325000D01*
X117118058Y-56325000D01*
X117118064Y-56324999D01*
X117206443Y-56314386D01*
X117347095Y-56258919D01*
X117467564Y-56167564D01*
X117467568Y-56167560D01*
X117548238Y-56061183D01*
X117558919Y-56047097D01*
X117614386Y-55906443D01*
X117624999Y-55818064D01*
X117625000Y-55818058D01*
X117625000Y-55687501D01*
X117624999Y-55687500D01*
X116850001Y-55687500D01*
X116850000Y-55687501D01*
X116350000Y-55687501D01*
X116349999Y-55687500D01*
X115575001Y-55687500D01*
X115575000Y-55687501D01*
X114833509Y-55687501D01*
X114833509Y-55447838D01*
X114833508Y-55447837D01*
X114213839Y-55447837D01*
X114233584Y-55428092D01*
X114282953Y-55342582D01*
X114308509Y-55247207D01*
X114308509Y-55148467D01*
X114283983Y-55056935D01*
X115575000Y-55056935D01*
X115575000Y-55187499D01*
X115575001Y-55187500D01*
X116349999Y-55187500D01*
X116350000Y-55187499D01*
X116350000Y-54550001D01*
X116850000Y-54550001D01*
X116850000Y-55187499D01*
X116850001Y-55187500D01*
X117624999Y-55187500D01*
X117625000Y-55187499D01*
X117625000Y-55056941D01*
X117624999Y-55056935D01*
X117614386Y-54968556D01*
X117558919Y-54827904D01*
X117467564Y-54707435D01*
X117347095Y-54616080D01*
X117206443Y-54560613D01*
X117118064Y-54550000D01*
X116850001Y-54550000D01*
X116850000Y-54550001D01*
X116350000Y-54550001D01*
X116349999Y-54550000D01*
X116081935Y-54550000D01*
X115993556Y-54560613D01*
X115852904Y-54616080D01*
X115732435Y-54707435D01*
X115641080Y-54827904D01*
X115585613Y-54968556D01*
X115575000Y-55056935D01*
X114283983Y-55056935D01*
X114282953Y-55053092D01*
X114233584Y-54967582D01*
X114213839Y-54947837D01*
X114833508Y-54947837D01*
X114833509Y-54947836D01*
X114833509Y-54529778D01*
X114833508Y-54529772D01*
X114822895Y-54441393D01*
X114767428Y-54300741D01*
X114676073Y-54180272D01*
X114555604Y-54088917D01*
X114414952Y-54033450D01*
X114326573Y-54022837D01*
X114183510Y-54022837D01*
X114183509Y-54022838D01*
X114183509Y-54917507D01*
X114163764Y-54897762D01*
X114078254Y-54848393D01*
X113982879Y-54822837D01*
X113884139Y-54822837D01*
X113788764Y-54848393D01*
X113703254Y-54897762D01*
X113683509Y-54917507D01*
X113683509Y-54022838D01*
X113683508Y-54022837D01*
X113540444Y-54022837D01*
X113452065Y-54033450D01*
X113311413Y-54088917D01*
X113190944Y-54180272D01*
X113099589Y-54300741D01*
X113044122Y-54441393D01*
X113033509Y-54529772D01*
X112633625Y-54529772D01*
X112614729Y-54501493D01*
X112612975Y-54498413D01*
X112608954Y-54478935D01*
X112600000Y-54449417D01*
X112600000Y-53596837D01*
X112618907Y-53538646D01*
X112668407Y-53502682D01*
X112699000Y-53497837D01*
X114995962Y-53497837D01*
X115054153Y-53516744D01*
G37*
G04 #@! TD.AperFunction*
G04 #@! TD*
G04 #@! TA.AperFunction,Conductor*
G04 #@! TO.N,/O2*
G36*
X118051835Y-58342441D02*
G01*
X118109862Y-58361837D01*
X118145409Y-58411637D01*
X118150000Y-58441437D01*
X118150000Y-58649999D01*
X118150001Y-58650000D01*
X118919670Y-58650000D01*
X118899925Y-58669745D01*
X118850556Y-58755255D01*
X118825000Y-58850630D01*
X118825000Y-58949370D01*
X118850556Y-59044745D01*
X118899925Y-59130255D01*
X118919670Y-59150000D01*
X118150002Y-59150000D01*
X118150001Y-59150001D01*
X118150001Y-59469791D01*
X118152909Y-59494874D01*
X118198213Y-59597477D01*
X118277522Y-59676786D01*
X118380127Y-59722090D01*
X118405203Y-59724999D01*
X118949998Y-59724999D01*
X118950000Y-59724998D01*
X118950000Y-59180330D01*
X118969745Y-59200075D01*
X119055255Y-59249444D01*
X119150630Y-59275000D01*
X119249370Y-59275000D01*
X119344745Y-59249444D01*
X119430255Y-59200075D01*
X119450000Y-59180330D01*
X119450000Y-59724998D01*
X119450001Y-59724999D01*
X119994790Y-59724999D01*
X119994791Y-59724998D01*
X120019874Y-59722090D01*
X120122477Y-59676786D01*
X120201786Y-59597477D01*
X120247090Y-59494872D01*
X120249999Y-59469797D01*
X120250000Y-59469795D01*
X120250000Y-59287272D01*
X121333958Y-59287272D01*
X121333958Y-60580336D01*
X121333959Y-60580337D01*
X122283957Y-60580337D01*
X122283958Y-60580336D01*
X122283958Y-58780338D01*
X122783958Y-58780338D01*
X122783958Y-60580336D01*
X122783959Y-60580337D01*
X123733957Y-60580337D01*
X123733958Y-60580336D01*
X123733958Y-59287278D01*
X123733957Y-59287272D01*
X123723344Y-59198893D01*
X123667877Y-59058241D01*
X123576522Y-58937772D01*
X123456053Y-58846417D01*
X123315401Y-58790950D01*
X123227022Y-58780337D01*
X122783959Y-58780337D01*
X122783958Y-58780338D01*
X122283958Y-58780338D01*
X122283957Y-58780337D01*
X121840893Y-58780337D01*
X121752514Y-58790950D01*
X121611862Y-58846417D01*
X121491393Y-58937772D01*
X121400038Y-59058241D01*
X121344571Y-59198893D01*
X121333958Y-59287272D01*
X120250000Y-59287272D01*
X120250000Y-59150001D01*
X120249999Y-59150000D01*
X119480330Y-59150000D01*
X119500075Y-59130255D01*
X119549444Y-59044745D01*
X119575000Y-58949370D01*
X119575000Y-58850630D01*
X119549444Y-58755255D01*
X119500075Y-58669745D01*
X119480330Y-58650000D01*
X120249998Y-58650000D01*
X120249999Y-58649999D01*
X120249999Y-58460764D01*
X120268906Y-58402573D01*
X120318406Y-58366609D01*
X120349828Y-58361768D01*
X124540244Y-58397011D01*
X124598272Y-58416407D01*
X124633819Y-58466207D01*
X124638410Y-58496007D01*
X124638410Y-63698920D01*
X124619503Y-63757111D01*
X124570003Y-63793075D01*
X124539493Y-63797920D01*
X120083332Y-63801668D01*
X120025126Y-63782810D01*
X120013245Y-63772672D01*
X119775929Y-63535356D01*
X119444695Y-63204122D01*
X119416920Y-63149608D01*
X119419174Y-63108128D01*
X119421048Y-63101238D01*
X119423957Y-63076165D01*
X119423958Y-63076163D01*
X119423958Y-62756369D01*
X119423957Y-62756368D01*
X118654288Y-62756368D01*
X118674033Y-62736623D01*
X118723402Y-62651113D01*
X118748958Y-62555738D01*
X118748958Y-62456998D01*
X118723402Y-62361623D01*
X118674033Y-62276113D01*
X118654288Y-62256368D01*
X119423956Y-62256368D01*
X119423957Y-62256367D01*
X119423957Y-61936578D01*
X119423956Y-61936576D01*
X119421048Y-61911493D01*
X119375744Y-61808890D01*
X119296435Y-61729581D01*
X119193830Y-61684277D01*
X119168755Y-61681368D01*
X118623959Y-61681368D01*
X118623958Y-61681369D01*
X118623958Y-62226038D01*
X118604213Y-62206293D01*
X118518703Y-62156924D01*
X118423328Y-62131368D01*
X118324588Y-62131368D01*
X118229213Y-62156924D01*
X118143703Y-62206293D01*
X118123958Y-62226038D01*
X118123958Y-61681369D01*
X118123957Y-61681368D01*
X117579168Y-61681368D01*
X117579165Y-61681369D01*
X117554083Y-61684277D01*
X117451480Y-61729581D01*
X117372171Y-61808890D01*
X117326867Y-61911495D01*
X117323958Y-61936570D01*
X117323958Y-62256367D01*
X117323959Y-62256368D01*
X118093628Y-62256368D01*
X118073883Y-62276113D01*
X118024514Y-62361623D01*
X117998958Y-62456998D01*
X117998958Y-62555738D01*
X118024514Y-62651113D01*
X118073883Y-62736623D01*
X118093628Y-62756368D01*
X117323960Y-62756368D01*
X117323959Y-62756369D01*
X117323959Y-63076159D01*
X117326867Y-63101242D01*
X117372171Y-63203845D01*
X117451481Y-63283155D01*
X117462978Y-63288232D01*
X117508573Y-63329033D01*
X117521478Y-63388842D01*
X117507416Y-63427942D01*
X117508321Y-63428426D01*
X117506028Y-63432714D01*
X117451339Y-63564746D01*
X117451339Y-63564748D01*
X117423458Y-63704910D01*
X117423458Y-63730954D01*
X117407794Y-63784397D01*
X116629216Y-64998456D01*
X116581887Y-65037233D01*
X116545880Y-65044013D01*
X116287410Y-65044013D01*
X116229219Y-65025106D01*
X116193255Y-64975606D01*
X116188410Y-64945013D01*
X116188410Y-64147838D01*
X116188409Y-64147837D01*
X113788411Y-64147837D01*
X113788410Y-64147838D01*
X113788410Y-64945013D01*
X113769503Y-65003204D01*
X113720003Y-65039168D01*
X113689410Y-65044013D01*
X111015218Y-65044013D01*
X110957027Y-65025106D01*
X110921063Y-64975606D01*
X110916218Y-64945013D01*
X110916218Y-64116341D01*
X110916217Y-64116329D01*
X110913348Y-64082110D01*
X110912588Y-64077614D01*
X110912100Y-64074718D01*
X110910718Y-64058236D01*
X110910718Y-63830764D01*
X110929625Y-63772573D01*
X110979125Y-63736609D01*
X111040311Y-63736609D01*
X111089811Y-63772573D01*
X111092034Y-63775763D01*
X111139334Y-63846553D01*
X111264694Y-63971913D01*
X111412099Y-64070406D01*
X111575886Y-64138250D01*
X111588410Y-64140740D01*
X111588410Y-63278167D01*
X111608155Y-63297912D01*
X111693665Y-63347281D01*
X111789040Y-63372837D01*
X111887780Y-63372837D01*
X111983155Y-63347281D01*
X112068665Y-63297912D01*
X112088410Y-63278167D01*
X112088410Y-64140740D01*
X112100933Y-64138250D01*
X112264720Y-64070406D01*
X112412125Y-63971913D01*
X112537486Y-63846552D01*
X112635980Y-63699145D01*
X112703823Y-63535358D01*
X112703823Y-63535356D01*
X112738409Y-63361481D01*
X112738410Y-63361478D01*
X112738410Y-63247838D01*
X112738409Y-63247837D01*
X112118740Y-63247837D01*
X112138485Y-63228092D01*
X112187854Y-63142582D01*
X112213410Y-63047207D01*
X112213410Y-62948467D01*
X112187854Y-62853092D01*
X112138485Y-62767582D01*
X112118740Y-62747837D01*
X112738409Y-62747837D01*
X112738410Y-62747836D01*
X112738410Y-62634195D01*
X112738409Y-62634192D01*
X112703823Y-62460317D01*
X112703823Y-62460315D01*
X112674575Y-62389703D01*
X112660106Y-62354772D01*
X113788410Y-62354772D01*
X113788410Y-63647836D01*
X113788411Y-63647837D01*
X114738409Y-63647837D01*
X114738410Y-63647836D01*
X114738410Y-61847838D01*
X115238410Y-61847838D01*
X115238410Y-63647836D01*
X115238411Y-63647837D01*
X116188409Y-63647837D01*
X116188410Y-63647836D01*
X116188410Y-62354778D01*
X116188409Y-62354772D01*
X116177796Y-62266393D01*
X116122329Y-62125741D01*
X116030974Y-62005272D01*
X115910505Y-61913917D01*
X115769853Y-61858450D01*
X115681474Y-61847837D01*
X115238411Y-61847837D01*
X115238410Y-61847838D01*
X114738410Y-61847838D01*
X114738409Y-61847837D01*
X114295345Y-61847837D01*
X114206966Y-61858450D01*
X114066314Y-61913917D01*
X113945845Y-62005272D01*
X113854490Y-62125741D01*
X113799023Y-62266393D01*
X113788410Y-62354772D01*
X112660106Y-62354772D01*
X112635980Y-62296528D01*
X112537486Y-62149121D01*
X112412125Y-62023760D01*
X112264720Y-61925267D01*
X112100931Y-61857423D01*
X112088410Y-61854932D01*
X112088410Y-62717507D01*
X112068665Y-62697762D01*
X111983155Y-62648393D01*
X111887780Y-62622837D01*
X111789040Y-62622837D01*
X111693665Y-62648393D01*
X111608155Y-62697762D01*
X111588410Y-62717507D01*
X111588410Y-61854932D01*
X111588409Y-61854932D01*
X111575888Y-61857423D01*
X111412099Y-61925267D01*
X111264694Y-62023760D01*
X111139333Y-62149121D01*
X111092033Y-62219911D01*
X111043983Y-62257790D01*
X110982845Y-62260192D01*
X110931971Y-62226199D01*
X110910794Y-62168795D01*
X110910718Y-62164909D01*
X110910718Y-61921855D01*
X110911937Y-61906367D01*
X110916218Y-61879338D01*
X110916218Y-61638095D01*
X110935125Y-61579904D01*
X110984625Y-61543940D01*
X111014926Y-61539095D01*
X116933958Y-61521988D01*
X116933958Y-61080338D01*
X121333958Y-61080338D01*
X121333958Y-62373401D01*
X121344571Y-62461780D01*
X121400038Y-62602432D01*
X121491393Y-62722901D01*
X121611862Y-62814256D01*
X121752514Y-62869723D01*
X121840893Y-62880336D01*
X121840900Y-62880337D01*
X122283957Y-62880337D01*
X122283958Y-62880336D01*
X122283958Y-61080338D01*
X122783958Y-61080338D01*
X122783958Y-62880336D01*
X122783959Y-62880337D01*
X123227016Y-62880337D01*
X123227022Y-62880336D01*
X123315401Y-62869723D01*
X123456053Y-62814256D01*
X123576522Y-62722901D01*
X123667877Y-62602432D01*
X123723344Y-62461780D01*
X123733957Y-62373401D01*
X123733958Y-62373395D01*
X123733958Y-61080338D01*
X123733957Y-61080337D01*
X122783959Y-61080337D01*
X122783958Y-61080338D01*
X122283958Y-61080338D01*
X122283957Y-61080337D01*
X121333959Y-61080337D01*
X121333958Y-61080338D01*
X116933958Y-61080338D01*
X116933958Y-58432875D01*
X116952865Y-58374684D01*
X117002365Y-58338720D01*
X117033787Y-58333879D01*
X118051835Y-58342441D01*
G37*
G04 #@! TD.AperFunction*
G04 #@! TD*
G04 #@! TA.AperFunction,Conductor*
G04 #@! TO.N,/O1*
G36*
X102309191Y-58416744D02*
G01*
X102345155Y-58466244D01*
X102350000Y-58496837D01*
X102350000Y-58649999D01*
X102350001Y-58650000D01*
X103119670Y-58650000D01*
X103099925Y-58669745D01*
X103050556Y-58755255D01*
X103025000Y-58850630D01*
X103025000Y-58949370D01*
X103050556Y-59044745D01*
X103099925Y-59130255D01*
X103119670Y-59150000D01*
X102350002Y-59150000D01*
X102350001Y-59150001D01*
X102350001Y-59469791D01*
X102352909Y-59494874D01*
X102398213Y-59597477D01*
X102477522Y-59676786D01*
X102580127Y-59722090D01*
X102605203Y-59724999D01*
X103149998Y-59724999D01*
X103150000Y-59724998D01*
X103150000Y-59180330D01*
X103169745Y-59200075D01*
X103255255Y-59249444D01*
X103350630Y-59275000D01*
X103449370Y-59275000D01*
X103544745Y-59249444D01*
X103630255Y-59200075D01*
X103650000Y-59180330D01*
X103650000Y-59724998D01*
X103650001Y-59724999D01*
X104194790Y-59724999D01*
X104194791Y-59724998D01*
X104219874Y-59722090D01*
X104322477Y-59676786D01*
X104401786Y-59597477D01*
X104447090Y-59494872D01*
X104449999Y-59469797D01*
X104450000Y-59469795D01*
X104450000Y-59150001D01*
X104449999Y-59150000D01*
X103680330Y-59150000D01*
X103700075Y-59130255D01*
X103749444Y-59044745D01*
X103775000Y-58949370D01*
X103775000Y-58850630D01*
X103749444Y-58755255D01*
X103700075Y-58669745D01*
X103680330Y-58650000D01*
X104449998Y-58650000D01*
X104449999Y-58649999D01*
X104449999Y-58496837D01*
X104454844Y-58481925D01*
X104454844Y-58466244D01*
X104464060Y-58453558D01*
X104468906Y-58438646D01*
X104481591Y-58429429D01*
X104490808Y-58416744D01*
X104505720Y-58411898D01*
X104518406Y-58402682D01*
X104548999Y-58397837D01*
X104728545Y-58397837D01*
X104786736Y-58416744D01*
X104822700Y-58466244D01*
X104827545Y-58496837D01*
X104827545Y-61506620D01*
X110612005Y-61523363D01*
X110670140Y-61542439D01*
X110705961Y-61592043D01*
X110710718Y-61622363D01*
X110710718Y-61879338D01*
X110691811Y-61937529D01*
X110642311Y-61973493D01*
X110581125Y-61973493D01*
X110551899Y-61958222D01*
X110460507Y-61888917D01*
X110319853Y-61833450D01*
X110231474Y-61822837D01*
X110088411Y-61822837D01*
X110088410Y-61822838D01*
X110088410Y-62717507D01*
X110068665Y-62697762D01*
X109983155Y-62648393D01*
X109887780Y-62622837D01*
X109789040Y-62622837D01*
X109693665Y-62648393D01*
X109608155Y-62697762D01*
X109588410Y-62717507D01*
X109588410Y-61822838D01*
X109588409Y-61822837D01*
X109445345Y-61822837D01*
X109356966Y-61833450D01*
X109216314Y-61888917D01*
X109095845Y-61980272D01*
X109004490Y-62100741D01*
X108949023Y-62241393D01*
X108938410Y-62329772D01*
X108938410Y-62747836D01*
X108938411Y-62747837D01*
X109558080Y-62747837D01*
X109538335Y-62767582D01*
X109488966Y-62853092D01*
X109463410Y-62948467D01*
X109463410Y-63047207D01*
X109488966Y-63142582D01*
X109538335Y-63228092D01*
X109558080Y-63247837D01*
X108938411Y-63247837D01*
X108938410Y-63247838D01*
X108938410Y-63665901D01*
X108949023Y-63754280D01*
X109004490Y-63894932D01*
X109095845Y-64015401D01*
X109216314Y-64106756D01*
X109356966Y-64162223D01*
X109445345Y-64172836D01*
X109445352Y-64172837D01*
X109588409Y-64172837D01*
X109588410Y-64172836D01*
X109588410Y-63278167D01*
X109608155Y-63297912D01*
X109693665Y-63347281D01*
X109789040Y-63372837D01*
X109887780Y-63372837D01*
X109983155Y-63347281D01*
X110068665Y-63297912D01*
X110088410Y-63278167D01*
X110088410Y-64172836D01*
X110088411Y-64172837D01*
X110231468Y-64172837D01*
X110231474Y-64172836D01*
X110319853Y-64162223D01*
X110460507Y-64106755D01*
X110551898Y-64037452D01*
X110609689Y-64017356D01*
X110668255Y-64035067D01*
X110705226Y-64083819D01*
X110710718Y-64116335D01*
X110710718Y-64950717D01*
X110691811Y-65008908D01*
X110642311Y-65044872D01*
X110611718Y-65049717D01*
X108037410Y-65049717D01*
X107979219Y-65030810D01*
X107943255Y-64981310D01*
X107938410Y-64950717D01*
X107938410Y-64147838D01*
X107938409Y-64147837D01*
X105538411Y-64147837D01*
X105538410Y-64147838D01*
X105538410Y-64950717D01*
X105519503Y-65008908D01*
X105470003Y-65044872D01*
X105439410Y-65049717D01*
X105067860Y-65049717D01*
X105009669Y-65030810D01*
X104975524Y-64986425D01*
X104238410Y-63080337D01*
X104049537Y-63080337D01*
X103991346Y-63061430D01*
X103955382Y-63011930D01*
X103950537Y-62981337D01*
X103950537Y-62675427D01*
X103950536Y-62675426D01*
X103180867Y-62675426D01*
X103200612Y-62655681D01*
X103249981Y-62570171D01*
X103275537Y-62474796D01*
X103275537Y-62376056D01*
X103269834Y-62354772D01*
X105538410Y-62354772D01*
X105538410Y-63647836D01*
X105538411Y-63647837D01*
X106488409Y-63647837D01*
X106488410Y-63647836D01*
X106488410Y-61847838D01*
X106988410Y-61847838D01*
X106988410Y-63647836D01*
X106988411Y-63647837D01*
X107938409Y-63647837D01*
X107938410Y-63647836D01*
X107938410Y-62354778D01*
X107938409Y-62354774D01*
X107936470Y-62338623D01*
X107936470Y-62338622D01*
X107927796Y-62266393D01*
X107872329Y-62125741D01*
X107780974Y-62005272D01*
X107660505Y-61913917D01*
X107519853Y-61858450D01*
X107431474Y-61847837D01*
X106988411Y-61847837D01*
X106988410Y-61847838D01*
X106488410Y-61847838D01*
X106488409Y-61847837D01*
X106045345Y-61847837D01*
X105956966Y-61858450D01*
X105816314Y-61913917D01*
X105695845Y-62005272D01*
X105604490Y-62125741D01*
X105549023Y-62266393D01*
X105538410Y-62354772D01*
X103269834Y-62354772D01*
X103249981Y-62280681D01*
X103200612Y-62195171D01*
X103180867Y-62175426D01*
X103950535Y-62175426D01*
X103950536Y-62175425D01*
X103950536Y-61855636D01*
X103950535Y-61855634D01*
X103947627Y-61830551D01*
X103902323Y-61727948D01*
X103823014Y-61648639D01*
X103720409Y-61603335D01*
X103695334Y-61600426D01*
X103150538Y-61600426D01*
X103150537Y-61600427D01*
X103150537Y-62145096D01*
X103130792Y-62125351D01*
X103045282Y-62075982D01*
X102949907Y-62050426D01*
X102851167Y-62050426D01*
X102755792Y-62075982D01*
X102670282Y-62125351D01*
X102650537Y-62145096D01*
X102650537Y-61600427D01*
X102650536Y-61600426D01*
X102105747Y-61600426D01*
X102105744Y-61600427D01*
X102080662Y-61603335D01*
X101978059Y-61648639D01*
X101898750Y-61727948D01*
X101853446Y-61830553D01*
X101850537Y-61855628D01*
X101850537Y-62175425D01*
X101850538Y-62175426D01*
X102620207Y-62175426D01*
X102600462Y-62195171D01*
X102551093Y-62280681D01*
X102525537Y-62376056D01*
X102525537Y-62474796D01*
X102551093Y-62570171D01*
X102600462Y-62655681D01*
X102620207Y-62675426D01*
X101850539Y-62675426D01*
X101850538Y-62675427D01*
X101850538Y-62995217D01*
X101853446Y-63020300D01*
X101869951Y-63057679D01*
X101876159Y-63118549D01*
X101845403Y-63171442D01*
X101833167Y-63180785D01*
X101042685Y-63692268D01*
X100989925Y-63708145D01*
X97522213Y-63743905D01*
X97463830Y-63725598D01*
X97427358Y-63676472D01*
X97422193Y-63645369D01*
X97410297Y-61080338D01*
X98130537Y-61080338D01*
X98130537Y-62373401D01*
X98141150Y-62461780D01*
X98196617Y-62602432D01*
X98287972Y-62722901D01*
X98408441Y-62814256D01*
X98549093Y-62869723D01*
X98637472Y-62880336D01*
X98637479Y-62880337D01*
X99080536Y-62880337D01*
X99080537Y-62880336D01*
X99080537Y-61080338D01*
X99580537Y-61080338D01*
X99580537Y-62880336D01*
X99580538Y-62880337D01*
X100023595Y-62880337D01*
X100023601Y-62880336D01*
X100111980Y-62869723D01*
X100252632Y-62814256D01*
X100373101Y-62722901D01*
X100464456Y-62602432D01*
X100519923Y-62461780D01*
X100530536Y-62373401D01*
X100530537Y-62373395D01*
X100530537Y-61080338D01*
X100530536Y-61080337D01*
X99580538Y-61080337D01*
X99580537Y-61080338D01*
X99080537Y-61080338D01*
X99080536Y-61080337D01*
X98130538Y-61080337D01*
X98130537Y-61080338D01*
X97410297Y-61080338D01*
X97401982Y-59287272D01*
X98130537Y-59287272D01*
X98130537Y-60580336D01*
X98130538Y-60580337D01*
X99080536Y-60580337D01*
X99080537Y-60580336D01*
X99080537Y-58780338D01*
X99580537Y-58780338D01*
X99580537Y-60580336D01*
X99580538Y-60580337D01*
X100530536Y-60580337D01*
X100530537Y-60580336D01*
X100530537Y-59287278D01*
X100530536Y-59287272D01*
X100519922Y-59198890D01*
X100498795Y-59145314D01*
X100498793Y-59145312D01*
X100464456Y-59058241D01*
X100373101Y-58937772D01*
X100252632Y-58846417D01*
X100111980Y-58790950D01*
X100023601Y-58780337D01*
X99580538Y-58780337D01*
X99580537Y-58780338D01*
X99080537Y-58780338D01*
X99080536Y-58780337D01*
X98637472Y-58780337D01*
X98549093Y-58790950D01*
X98408441Y-58846417D01*
X98287972Y-58937772D01*
X98196617Y-59058241D01*
X98141150Y-59198893D01*
X98130537Y-59287272D01*
X97401982Y-59287272D01*
X97398318Y-58497295D01*
X97416955Y-58439018D01*
X97466288Y-58402825D01*
X97497317Y-58397837D01*
X102251000Y-58397837D01*
X102309191Y-58416744D01*
G37*
G04 #@! TD.AperFunction*
G04 #@! TD*
G04 #@! TA.AperFunction,Conductor*
G04 #@! TO.N,GND*
G36*
X131403522Y-50100752D02*
G01*
X131428505Y-50102538D01*
X131606345Y-50115258D01*
X131620308Y-50117265D01*
X131815549Y-50159737D01*
X131829088Y-50163713D01*
X132016292Y-50233537D01*
X132029118Y-50239394D01*
X132204476Y-50335146D01*
X132216356Y-50342781D01*
X132376294Y-50462509D01*
X132386966Y-50471756D01*
X132528243Y-50613033D01*
X132537493Y-50623709D01*
X132657218Y-50783643D01*
X132664854Y-50795525D01*
X132760602Y-50970875D01*
X132766466Y-50983715D01*
X132836284Y-51170904D01*
X132840264Y-51184457D01*
X132882732Y-51379681D01*
X132884742Y-51393662D01*
X132899248Y-51596476D01*
X132899500Y-51603539D01*
X132899500Y-66596460D01*
X132899248Y-66603523D01*
X132884742Y-66806337D01*
X132882732Y-66820318D01*
X132840264Y-67015542D01*
X132836284Y-67029095D01*
X132766466Y-67216284D01*
X132760598Y-67229133D01*
X132664854Y-67404474D01*
X132657218Y-67416356D01*
X132537493Y-67576290D01*
X132528243Y-67586966D01*
X132386966Y-67728243D01*
X132376290Y-67737493D01*
X132216356Y-67857218D01*
X132204474Y-67864854D01*
X132029133Y-67960598D01*
X132016284Y-67966466D01*
X131829095Y-68036284D01*
X131815542Y-68040264D01*
X131620318Y-68082732D01*
X131606337Y-68084742D01*
X131403523Y-68099248D01*
X131396460Y-68099500D01*
X90403540Y-68099500D01*
X90396477Y-68099248D01*
X90193662Y-68084742D01*
X90179681Y-68082732D01*
X89984457Y-68040264D01*
X89970904Y-68036284D01*
X89783715Y-67966466D01*
X89770875Y-67960602D01*
X89595525Y-67864854D01*
X89583643Y-67857218D01*
X89423709Y-67737493D01*
X89413033Y-67728243D01*
X89271756Y-67586966D01*
X89262506Y-67576290D01*
X89142781Y-67416356D01*
X89135145Y-67404474D01*
X89102815Y-67345266D01*
X89039394Y-67229118D01*
X89033537Y-67216292D01*
X88963713Y-67029088D01*
X88959737Y-67015549D01*
X88917265Y-66820308D01*
X88915258Y-66806345D01*
X88900752Y-66603522D01*
X88900500Y-66596460D01*
X88900500Y-58498247D01*
X97192820Y-58498247D01*
X97196484Y-59288223D01*
X97196537Y-59299564D01*
X97196537Y-59299568D01*
X97204799Y-61081291D01*
X97210734Y-62361108D01*
X97216694Y-63646318D01*
X97219468Y-63679036D01*
X97224202Y-63707536D01*
X97224634Y-63710137D01*
X97225550Y-63715249D01*
X97262359Y-63798970D01*
X97298831Y-63848096D01*
X97323354Y-63875588D01*
X97323356Y-63875589D01*
X97402338Y-63921681D01*
X97402339Y-63921681D01*
X97402344Y-63921684D01*
X97460727Y-63939991D01*
X97524332Y-63949394D01*
X100992044Y-63913634D01*
X101049143Y-63904928D01*
X101101903Y-63889051D01*
X101154322Y-63864800D01*
X101816048Y-63436628D01*
X101875173Y-63420891D01*
X101932258Y-63442913D01*
X101965497Y-63494282D01*
X101966926Y-63539060D01*
X101950037Y-63623965D01*
X101950037Y-63766883D01*
X101956420Y-63798970D01*
X101977496Y-63904927D01*
X101977918Y-63907045D01*
X101977918Y-63907047D01*
X102032605Y-64039074D01*
X102032611Y-64039085D01*
X102080376Y-64110569D01*
X102112005Y-64157905D01*
X102144165Y-64190065D01*
X102171942Y-64244580D01*
X102162371Y-64305012D01*
X102144165Y-64330072D01*
X102034717Y-64439519D01*
X101944430Y-64574642D01*
X101886116Y-64715426D01*
X102620207Y-64715426D01*
X102600462Y-64735171D01*
X102551093Y-64820681D01*
X102525537Y-64916056D01*
X102525537Y-65014796D01*
X102551093Y-65110171D01*
X102600462Y-65195681D01*
X102620207Y-65215426D01*
X101886116Y-65215426D01*
X101944430Y-65356209D01*
X102034717Y-65491332D01*
X102149630Y-65606245D01*
X102284755Y-65696533D01*
X102434892Y-65758721D01*
X102594279Y-65790425D01*
X102594283Y-65790426D01*
X102650536Y-65790426D01*
X102650537Y-65790425D01*
X102650537Y-65245756D01*
X102670282Y-65265501D01*
X102755792Y-65314870D01*
X102851167Y-65340426D01*
X102949907Y-65340426D01*
X103045282Y-65314870D01*
X103130792Y-65265501D01*
X103150537Y-65245756D01*
X103150537Y-65790425D01*
X103150538Y-65790426D01*
X103206791Y-65790426D01*
X103206794Y-65790425D01*
X103366180Y-65758721D01*
X103366182Y-65758721D01*
X103516318Y-65696533D01*
X103516319Y-65696533D01*
X103651443Y-65606245D01*
X103766356Y-65491332D01*
X103856643Y-65356209D01*
X103914958Y-65215426D01*
X103180867Y-65215426D01*
X103200612Y-65195681D01*
X103249981Y-65110171D01*
X103275537Y-65014796D01*
X103275537Y-64916056D01*
X103249981Y-64820681D01*
X103200612Y-64735171D01*
X103180867Y-64715426D01*
X103914957Y-64715426D01*
X103856643Y-64574642D01*
X103766356Y-64439519D01*
X103656909Y-64330072D01*
X103629132Y-64275555D01*
X103638703Y-64215123D01*
X103656907Y-64190066D01*
X103689069Y-64157905D01*
X103768466Y-64039079D01*
X103823156Y-63907046D01*
X103851037Y-63766881D01*
X103851037Y-63623971D01*
X103823156Y-63483806D01*
X103778227Y-63375337D01*
X103773426Y-63314341D01*
X103805396Y-63262172D01*
X103861924Y-63238757D01*
X103896812Y-63242239D01*
X103909309Y-63245798D01*
X103927844Y-63256873D01*
X103986035Y-63275780D01*
X104049537Y-63285837D01*
X104049869Y-63285837D01*
X104056023Y-63287590D01*
X104076706Y-63301488D01*
X104098905Y-63312799D01*
X104103080Y-63319211D01*
X104106808Y-63321716D01*
X104109497Y-63329065D01*
X104121238Y-63347095D01*
X104239772Y-63653608D01*
X104783852Y-65060535D01*
X104783858Y-65060548D01*
X104812644Y-65111726D01*
X104812644Y-65111727D01*
X104846793Y-65156116D01*
X104846798Y-65156121D01*
X104867658Y-65179346D01*
X104895857Y-65196194D01*
X104946167Y-65226253D01*
X105004358Y-65245160D01*
X105017058Y-65247171D01*
X105067856Y-65255217D01*
X105067860Y-65255217D01*
X105439403Y-65255217D01*
X105439410Y-65255217D01*
X105471554Y-65252687D01*
X105502147Y-65247842D01*
X105502158Y-65247840D01*
X105502203Y-65247833D01*
X105506688Y-65247071D01*
X105506691Y-65247069D01*
X105506697Y-65247069D01*
X105506701Y-65247066D01*
X105510961Y-65245814D01*
X105572123Y-65247524D01*
X105620598Y-65284858D01*
X105637910Y-65340787D01*
X105637910Y-65452111D01*
X105640763Y-65482531D01*
X105640765Y-65482540D01*
X105685617Y-65610720D01*
X105766255Y-65719981D01*
X105766257Y-65719983D01*
X105766260Y-65719987D01*
X105766263Y-65719989D01*
X105766265Y-65719991D01*
X105875526Y-65800629D01*
X105875527Y-65800629D01*
X105875528Y-65800630D01*
X106003711Y-65845483D01*
X106034135Y-65848336D01*
X106034137Y-65848337D01*
X106034144Y-65848337D01*
X107442683Y-65848337D01*
X107442683Y-65848336D01*
X107473109Y-65845483D01*
X107601292Y-65800630D01*
X107710560Y-65719987D01*
X107791203Y-65610719D01*
X107836056Y-65482536D01*
X107838909Y-65452110D01*
X107838910Y-65452110D01*
X107838910Y-65337558D01*
X107857817Y-65279367D01*
X107907317Y-65243403D01*
X107968500Y-65243403D01*
X107973908Y-65245160D01*
X108001123Y-65249470D01*
X108037406Y-65255217D01*
X108037410Y-65255217D01*
X110611711Y-65255217D01*
X110611718Y-65255217D01*
X110643862Y-65252687D01*
X110674455Y-65247842D01*
X110674466Y-65247840D01*
X110674511Y-65247833D01*
X110678999Y-65247070D01*
X110678998Y-65247070D01*
X110679005Y-65247069D01*
X110763101Y-65211125D01*
X110767940Y-65208380D01*
X110768722Y-65209759D01*
X110820132Y-65193039D01*
X110870935Y-65207052D01*
X110893525Y-65220549D01*
X110951716Y-65239456D01*
X110964416Y-65241467D01*
X111015214Y-65249513D01*
X111015218Y-65249513D01*
X113689403Y-65249513D01*
X113689410Y-65249513D01*
X113721554Y-65246983D01*
X113752147Y-65242138D01*
X113752158Y-65242136D01*
X113752203Y-65242129D01*
X113756688Y-65241367D01*
X113756691Y-65241365D01*
X113756697Y-65241365D01*
X113756701Y-65241362D01*
X113760961Y-65240110D01*
X113822123Y-65241820D01*
X113870598Y-65279154D01*
X113887910Y-65335083D01*
X113887910Y-65452111D01*
X113890763Y-65482531D01*
X113890765Y-65482540D01*
X113935617Y-65610720D01*
X114016255Y-65719981D01*
X114016257Y-65719983D01*
X114016260Y-65719987D01*
X114016263Y-65719989D01*
X114016265Y-65719991D01*
X114125526Y-65800629D01*
X114125527Y-65800629D01*
X114125528Y-65800630D01*
X114253711Y-65845483D01*
X114284135Y-65848336D01*
X114284137Y-65848337D01*
X114284144Y-65848337D01*
X115692683Y-65848337D01*
X115692683Y-65848336D01*
X115723109Y-65845483D01*
X115851292Y-65800630D01*
X115960560Y-65719987D01*
X116041203Y-65610719D01*
X116086056Y-65482536D01*
X116088909Y-65452110D01*
X116088910Y-65452110D01*
X116088910Y-65331854D01*
X116107817Y-65273663D01*
X116157317Y-65237699D01*
X116218500Y-65237699D01*
X116223908Y-65239456D01*
X116248830Y-65243403D01*
X116287406Y-65249513D01*
X116287410Y-65249513D01*
X116545880Y-65249513D01*
X116583907Y-65245964D01*
X116619914Y-65239184D01*
X116630257Y-65236959D01*
X116712125Y-65196193D01*
X116759454Y-65157416D01*
X116802200Y-65109391D01*
X117389010Y-64194360D01*
X117389302Y-64194120D01*
X117389401Y-64193756D01*
X117412926Y-64174765D01*
X117436338Y-64155584D01*
X117436715Y-64155562D01*
X117437010Y-64155324D01*
X117467248Y-64153786D01*
X117497420Y-64152032D01*
X117497738Y-64152236D01*
X117498117Y-64152217D01*
X117501542Y-64154675D01*
X117548925Y-64185062D01*
X117549379Y-64185621D01*
X117552180Y-64189091D01*
X117585426Y-64238847D01*
X117621308Y-64274729D01*
X117624616Y-64278827D01*
X117633745Y-64302721D01*
X117645363Y-64325522D01*
X117644511Y-64330898D01*
X117646454Y-64335983D01*
X117639794Y-64360682D01*
X117635792Y-64385954D01*
X117631321Y-64392107D01*
X117630526Y-64395058D01*
X117627266Y-64397689D01*
X117617586Y-64411014D01*
X117508138Y-64520461D01*
X117417851Y-64655584D01*
X117359537Y-64796368D01*
X118093628Y-64796368D01*
X118073883Y-64816113D01*
X118024514Y-64901623D01*
X117998958Y-64996998D01*
X117998958Y-65095738D01*
X118024514Y-65191113D01*
X118073883Y-65276623D01*
X118093628Y-65296368D01*
X117359537Y-65296368D01*
X117417851Y-65437151D01*
X117508138Y-65572274D01*
X117623051Y-65687187D01*
X117758176Y-65777475D01*
X117908313Y-65839663D01*
X118067700Y-65871367D01*
X118067704Y-65871368D01*
X118123957Y-65871368D01*
X118123958Y-65871367D01*
X118123958Y-65326698D01*
X118143703Y-65346443D01*
X118229213Y-65395812D01*
X118324588Y-65421368D01*
X118423328Y-65421368D01*
X118518703Y-65395812D01*
X118604213Y-65346443D01*
X118623958Y-65326698D01*
X118623958Y-65871367D01*
X118623959Y-65871368D01*
X118680212Y-65871368D01*
X118680215Y-65871367D01*
X118839601Y-65839663D01*
X118839603Y-65839663D01*
X118989739Y-65777475D01*
X118989740Y-65777475D01*
X119124864Y-65687187D01*
X119239777Y-65572274D01*
X119330064Y-65437151D01*
X119388379Y-65296368D01*
X118654288Y-65296368D01*
X118674033Y-65276623D01*
X118723402Y-65191113D01*
X118748958Y-65095738D01*
X118748958Y-64996998D01*
X118723402Y-64901623D01*
X118674033Y-64816113D01*
X118654288Y-64796368D01*
X119388378Y-64796368D01*
X119330064Y-64655584D01*
X119239777Y-64520461D01*
X119130330Y-64411014D01*
X119102553Y-64356497D01*
X119112124Y-64296065D01*
X119130328Y-64271008D01*
X119162490Y-64238847D01*
X119241887Y-64120021D01*
X119296577Y-63987988D01*
X119324458Y-63847823D01*
X119324458Y-63704913D01*
X119306085Y-63612548D01*
X119313276Y-63551791D01*
X119354808Y-63506860D01*
X119414818Y-63494923D01*
X119470383Y-63520538D01*
X119473161Y-63523208D01*
X119867935Y-63917982D01*
X119879854Y-63928996D01*
X119891735Y-63939134D01*
X119961788Y-63978306D01*
X120019994Y-63997164D01*
X120083505Y-64007168D01*
X124539666Y-64003420D01*
X124563429Y-64001534D01*
X124571712Y-64000878D01*
X124571714Y-64000878D01*
X124571717Y-64000877D01*
X124571723Y-64000877D01*
X124602233Y-63996032D01*
X124606697Y-63995272D01*
X124690793Y-63959328D01*
X124740293Y-63923364D01*
X124768038Y-63899123D01*
X124814946Y-63820613D01*
X124833853Y-63762422D01*
X124842134Y-63710137D01*
X124843910Y-63698923D01*
X124843910Y-58496009D01*
X124841515Y-58464732D01*
X124841514Y-58464718D01*
X124836918Y-58434886D01*
X124836317Y-58431213D01*
X124801081Y-58346820D01*
X124801080Y-58346817D01*
X124765533Y-58297017D01*
X124741531Y-58269073D01*
X124740112Y-58268209D01*
X124663421Y-58221507D01*
X124605387Y-58202109D01*
X124567401Y-58195765D01*
X124541972Y-58191518D01*
X124541969Y-58191517D01*
X124541956Y-58191517D01*
X120351567Y-58156274D01*
X120351551Y-58156275D01*
X120318539Y-58158663D01*
X120318515Y-58158666D01*
X120287153Y-58163498D01*
X120281715Y-58164411D01*
X120281714Y-58164411D01*
X120281712Y-58164412D01*
X120232952Y-58185253D01*
X120197611Y-58200358D01*
X120182484Y-58211349D01*
X120155152Y-58220228D01*
X120128181Y-58230179D01*
X120126224Y-58229627D01*
X120124293Y-58230255D01*
X120069293Y-58213570D01*
X120039837Y-58193888D01*
X120001958Y-58145838D01*
X119999556Y-58084700D01*
X120012520Y-58056577D01*
X120067929Y-57973653D01*
X120122619Y-57841620D01*
X120150500Y-57701455D01*
X120150500Y-57558545D01*
X120122619Y-57418380D01*
X120067929Y-57286347D01*
X120067928Y-57286345D01*
X120067925Y-57286340D01*
X120035866Y-57238362D01*
X119988532Y-57167521D01*
X119887479Y-57066468D01*
X119886014Y-57065003D01*
X119878895Y-57051031D01*
X119867808Y-57039944D01*
X119865355Y-57024456D01*
X119858237Y-57010486D01*
X119860689Y-56994999D01*
X119858237Y-56979512D01*
X119865355Y-56965541D01*
X119867808Y-56950054D01*
X119886014Y-56924995D01*
X119887472Y-56923536D01*
X119887479Y-56923532D01*
X119978740Y-56832270D01*
X120033253Y-56804496D01*
X120048680Y-56803277D01*
X120236956Y-56803176D01*
X120347053Y-56803117D01*
X120347073Y-56803114D01*
X120539575Y-56803012D01*
X120571664Y-56800474D01*
X120602186Y-56795632D01*
X120602961Y-56795499D01*
X120606697Y-56794864D01*
X120690793Y-56758920D01*
X120740293Y-56722956D01*
X120768038Y-56698715D01*
X120814946Y-56620205D01*
X120833853Y-56562014D01*
X120843910Y-56498512D01*
X120843910Y-56080338D01*
X121333958Y-56080338D01*
X121333958Y-57373401D01*
X121344571Y-57461780D01*
X121400038Y-57602432D01*
X121491393Y-57722901D01*
X121611862Y-57814256D01*
X121752514Y-57869723D01*
X121840893Y-57880336D01*
X121840900Y-57880337D01*
X122283957Y-57880337D01*
X122283958Y-57880336D01*
X122283958Y-56080338D01*
X122783958Y-56080338D01*
X122783958Y-57880336D01*
X122783959Y-57880337D01*
X123227016Y-57880337D01*
X123227022Y-57880336D01*
X123315401Y-57869723D01*
X123456053Y-57814256D01*
X123576522Y-57722901D01*
X123667877Y-57602432D01*
X123723344Y-57461780D01*
X123733957Y-57373401D01*
X123733958Y-57373395D01*
X123733958Y-56080338D01*
X123733957Y-56080337D01*
X122783959Y-56080337D01*
X122783958Y-56080338D01*
X122283958Y-56080338D01*
X122283957Y-56080337D01*
X121333959Y-56080337D01*
X121333958Y-56080338D01*
X120843910Y-56080338D01*
X120843910Y-55856289D01*
X120843893Y-55855679D01*
X120843606Y-55845115D01*
X120843605Y-55845089D01*
X120843017Y-55834316D01*
X120825194Y-55761123D01*
X120800067Y-55705335D01*
X120766699Y-55654437D01*
X120764818Y-55651567D01*
X120764816Y-55651564D01*
X120674095Y-55551679D01*
X120152769Y-54977689D01*
X120152758Y-54977679D01*
X120120116Y-54948648D01*
X120120105Y-54948639D01*
X120086043Y-54924305D01*
X120086039Y-54924303D01*
X120047988Y-54902827D01*
X120047982Y-54902824D01*
X118824968Y-54375220D01*
X118621100Y-54287272D01*
X121333958Y-54287272D01*
X121333958Y-55580336D01*
X121333959Y-55580337D01*
X122283957Y-55580337D01*
X122283958Y-55580336D01*
X122283958Y-53780338D01*
X122783958Y-53780338D01*
X122783958Y-55580336D01*
X122783959Y-55580337D01*
X123733957Y-55580337D01*
X123733958Y-55580336D01*
X123733958Y-54287278D01*
X123733957Y-54287272D01*
X123723344Y-54198893D01*
X123667877Y-54058241D01*
X123576522Y-53937772D01*
X123456053Y-53846417D01*
X123315401Y-53790950D01*
X123227022Y-53780337D01*
X122783959Y-53780337D01*
X122783958Y-53780338D01*
X122283958Y-53780338D01*
X122283957Y-53780337D01*
X121840893Y-53780337D01*
X121752514Y-53790950D01*
X121611862Y-53846417D01*
X121491393Y-53937772D01*
X121400038Y-54058241D01*
X121344571Y-54198893D01*
X121333958Y-54287272D01*
X118621100Y-54287272D01*
X117768368Y-53919406D01*
X117736676Y-53909413D01*
X117728521Y-53906842D01*
X117728518Y-53906841D01*
X117728517Y-53906841D01*
X117709720Y-53902960D01*
X117697436Y-53900423D01*
X117644272Y-53870140D01*
X117619061Y-53814390D01*
X117619163Y-53791665D01*
X117624999Y-53743064D01*
X117625000Y-53743058D01*
X117625000Y-53612501D01*
X117624999Y-53612500D01*
X115574999Y-53612500D01*
X115554164Y-53633335D01*
X115499647Y-53661112D01*
X115439215Y-53651540D01*
X115406556Y-53624800D01*
X115234658Y-53407775D01*
X115224525Y-53396634D01*
X115215829Y-53387072D01*
X115196415Y-53368448D01*
X115196165Y-53368209D01*
X115196163Y-53368207D01*
X115117658Y-53321303D01*
X115117655Y-53321301D01*
X115117653Y-53321300D01*
X115117651Y-53321299D01*
X115059461Y-53302393D01*
X115059462Y-53302393D01*
X114995965Y-53292337D01*
X114995962Y-53292337D01*
X112699000Y-53292337D01*
X112666856Y-53294867D01*
X112636206Y-53299720D01*
X112631718Y-53300483D01*
X112631713Y-53300484D01*
X112547617Y-53336428D01*
X112498118Y-53372392D01*
X112470372Y-53396634D01*
X112423464Y-53475144D01*
X112423462Y-53475147D01*
X112404556Y-53533336D01*
X112394500Y-53596833D01*
X112394500Y-53991468D01*
X112375593Y-54049659D01*
X112326093Y-54085623D01*
X112264907Y-54085623D01*
X112257615Y-54082932D01*
X112196034Y-54057424D01*
X112196030Y-54057423D01*
X112183509Y-54054932D01*
X112183509Y-54917507D01*
X112163764Y-54897762D01*
X112078254Y-54848393D01*
X111982879Y-54822837D01*
X111884139Y-54822837D01*
X111788764Y-54848393D01*
X111703254Y-54897762D01*
X111683509Y-54917507D01*
X111683509Y-54054932D01*
X111683508Y-54054932D01*
X111670987Y-54057423D01*
X111507198Y-54125267D01*
X111359793Y-54223760D01*
X111234432Y-54349121D01*
X111135938Y-54496528D01*
X111068095Y-54660315D01*
X111068095Y-54660317D01*
X111033509Y-54834192D01*
X111033509Y-54947836D01*
X111033510Y-54947837D01*
X111653179Y-54947837D01*
X111633434Y-54967582D01*
X111584065Y-55053092D01*
X111558509Y-55148467D01*
X111558509Y-55247207D01*
X111584065Y-55342582D01*
X111633434Y-55428092D01*
X111653179Y-55447837D01*
X111033510Y-55447837D01*
X111033509Y-55447838D01*
X111033509Y-55561481D01*
X111068095Y-55735356D01*
X111068095Y-55735358D01*
X111135938Y-55899145D01*
X111234432Y-56046552D01*
X111359793Y-56171913D01*
X111507198Y-56270406D01*
X111670985Y-56338250D01*
X111683509Y-56340740D01*
X111683509Y-55478167D01*
X111703254Y-55497912D01*
X111788764Y-55547281D01*
X111884139Y-55572837D01*
X111982879Y-55572837D01*
X112078254Y-55547281D01*
X112163764Y-55497912D01*
X112183509Y-55478167D01*
X112183509Y-56340740D01*
X112196032Y-56338250D01*
X112257614Y-56312742D01*
X112318611Y-56307941D01*
X112370780Y-56339910D01*
X112394195Y-56396438D01*
X112394500Y-56404206D01*
X112394500Y-57094837D01*
X112375593Y-57153028D01*
X112326093Y-57188992D01*
X112295407Y-57193837D01*
X109964642Y-57191650D01*
X109933454Y-57186578D01*
X107709922Y-56446082D01*
X107709906Y-56446078D01*
X107680161Y-56436172D01*
X107648121Y-56428293D01*
X107626964Y-56424862D01*
X107626958Y-56424861D01*
X107620530Y-56423819D01*
X107616840Y-56423221D01*
X107583949Y-56420572D01*
X107583942Y-56420572D01*
X106542541Y-56420572D01*
X106484350Y-56401665D01*
X106448386Y-56352165D01*
X106443542Y-56322056D01*
X106443496Y-56312742D01*
X106437644Y-55115762D01*
X106435091Y-55084461D01*
X106430348Y-55054666D01*
X106429721Y-55050951D01*
X106394056Y-54966735D01*
X106381007Y-54948648D01*
X106358262Y-54917122D01*
X106358259Y-54917118D01*
X106334112Y-54889293D01*
X106334111Y-54889292D01*
X106258864Y-54843992D01*
X107133009Y-54843992D01*
X107133009Y-55551681D01*
X107163772Y-55706333D01*
X107163772Y-55706335D01*
X107224112Y-55852011D01*
X107224118Y-55852022D01*
X107276821Y-55930896D01*
X107311720Y-55983126D01*
X107423220Y-56094626D01*
X107501385Y-56146854D01*
X107554323Y-56182227D01*
X107554334Y-56182233D01*
X107630522Y-56213790D01*
X107700012Y-56242574D01*
X107854667Y-56273337D01*
X107854668Y-56273337D01*
X108012350Y-56273337D01*
X108012351Y-56273337D01*
X108167006Y-56242574D01*
X108312688Y-56182231D01*
X108443798Y-56094626D01*
X108555298Y-55983126D01*
X108642903Y-55852016D01*
X108703246Y-55706334D01*
X108734009Y-55551679D01*
X108734009Y-54843995D01*
X108734008Y-54843992D01*
X109133009Y-54843992D01*
X109133009Y-55551681D01*
X109163772Y-55706333D01*
X109163772Y-55706335D01*
X109224112Y-55852011D01*
X109224118Y-55852022D01*
X109276821Y-55930896D01*
X109311720Y-55983126D01*
X109423220Y-56094626D01*
X109501385Y-56146854D01*
X109554323Y-56182227D01*
X109554334Y-56182233D01*
X109608147Y-56204522D01*
X109700012Y-56242574D01*
X109854667Y-56273337D01*
X109854668Y-56273337D01*
X110012350Y-56273337D01*
X110012351Y-56273337D01*
X110167006Y-56242574D01*
X110312688Y-56182231D01*
X110443798Y-56094626D01*
X110555298Y-55983126D01*
X110642903Y-55852016D01*
X110703246Y-55706334D01*
X110734009Y-55551679D01*
X110734009Y-54843995D01*
X110703246Y-54689340D01*
X110642903Y-54543658D01*
X110642902Y-54543656D01*
X110642899Y-54543651D01*
X110579933Y-54449417D01*
X110555298Y-54412548D01*
X110443798Y-54301048D01*
X110391568Y-54266149D01*
X110312694Y-54213446D01*
X110312683Y-54213440D01*
X110167006Y-54153100D01*
X110012353Y-54122337D01*
X110012351Y-54122337D01*
X109854667Y-54122337D01*
X109854664Y-54122337D01*
X109700012Y-54153100D01*
X109700010Y-54153100D01*
X109554334Y-54213440D01*
X109554323Y-54213446D01*
X109423220Y-54301048D01*
X109423216Y-54301051D01*
X109311723Y-54412544D01*
X109311720Y-54412548D01*
X109224118Y-54543651D01*
X109224112Y-54543662D01*
X109163772Y-54689338D01*
X109163772Y-54689340D01*
X109133009Y-54843992D01*
X108734008Y-54843992D01*
X108703246Y-54689340D01*
X108642903Y-54543658D01*
X108642902Y-54543656D01*
X108642899Y-54543651D01*
X108579933Y-54449417D01*
X108555298Y-54412548D01*
X108443798Y-54301048D01*
X108391568Y-54266149D01*
X108312694Y-54213446D01*
X108312683Y-54213440D01*
X108167006Y-54153100D01*
X108012353Y-54122337D01*
X108012351Y-54122337D01*
X107854667Y-54122337D01*
X107854664Y-54122337D01*
X107700012Y-54153100D01*
X107700010Y-54153100D01*
X107554334Y-54213440D01*
X107554323Y-54213446D01*
X107423220Y-54301048D01*
X107423216Y-54301051D01*
X107311723Y-54412544D01*
X107311720Y-54412548D01*
X107224118Y-54543651D01*
X107224112Y-54543662D01*
X107163772Y-54689338D01*
X107163772Y-54689340D01*
X107133009Y-54843992D01*
X106258864Y-54843992D01*
X106255763Y-54842125D01*
X106255762Y-54842124D01*
X106197630Y-54823021D01*
X106134172Y-54812754D01*
X106134166Y-54812753D01*
X106134164Y-54812753D01*
X106134162Y-54812752D01*
X106134154Y-54812752D01*
X103258458Y-54803165D01*
X103200697Y-54811248D01*
X103147276Y-54826691D01*
X103147273Y-54826692D01*
X103094116Y-54850672D01*
X101923824Y-55594437D01*
X101892275Y-55619113D01*
X101892268Y-55619120D01*
X101864486Y-55645595D01*
X101855757Y-55654432D01*
X101855755Y-55654434D01*
X101855753Y-55654437D01*
X101809947Y-55733595D01*
X101809945Y-55733599D01*
X101791856Y-55792037D01*
X101791855Y-55792044D01*
X101782685Y-55855678D01*
X101782684Y-55855686D01*
X101783367Y-55904499D01*
X101783367Y-55904500D01*
X101793150Y-56604874D01*
X101793151Y-56604888D01*
X101795952Y-56635953D01*
X101795955Y-56635970D01*
X101800896Y-56665476D01*
X101801523Y-56669030D01*
X101801524Y-56669033D01*
X101837785Y-56752993D01*
X101837785Y-56752994D01*
X101842125Y-56758920D01*
X101873935Y-56802357D01*
X101874604Y-56803117D01*
X101891648Y-56822479D01*
X101898279Y-56830011D01*
X101976966Y-56876622D01*
X102035228Y-56895310D01*
X102098768Y-56905129D01*
X102098775Y-56905128D01*
X102098776Y-56905129D01*
X102139144Y-56904977D01*
X102275413Y-56904464D01*
X102283062Y-56904292D01*
X102290424Y-56903990D01*
X102329858Y-56895309D01*
X102360571Y-56888548D01*
X102360571Y-56888547D01*
X102360579Y-56888546D01*
X102417115Y-56865150D01*
X102449762Y-56848065D01*
X102452501Y-56845265D01*
X102455972Y-56843448D01*
X102456015Y-56843417D01*
X102456020Y-56843423D01*
X102460058Y-56841310D01*
X102465074Y-56834407D01*
X102486630Y-56827402D01*
X102506710Y-56816894D01*
X102523265Y-56815500D01*
X102563482Y-56815500D01*
X102621673Y-56834407D01*
X102633479Y-56844490D01*
X102712521Y-56923532D01*
X102712524Y-56923534D01*
X102713985Y-56924995D01*
X102741762Y-56979512D01*
X102732191Y-57039944D01*
X102713985Y-57065002D01*
X102611476Y-57167511D01*
X102611468Y-57167521D01*
X102532074Y-57286340D01*
X102532068Y-57286351D01*
X102477381Y-57418378D01*
X102477381Y-57418380D01*
X102449500Y-57558542D01*
X102449500Y-57701457D01*
X102477381Y-57841619D01*
X102477381Y-57841621D01*
X102532068Y-57973648D01*
X102532074Y-57973660D01*
X102587475Y-58056571D01*
X102591731Y-58071662D01*
X102600443Y-58084700D01*
X102599827Y-58100367D01*
X102604084Y-58115459D01*
X102598656Y-58130171D01*
X102598041Y-58145838D01*
X102588334Y-58158150D01*
X102582907Y-58172863D01*
X102560162Y-58193888D01*
X102502051Y-58232717D01*
X102443163Y-58249326D01*
X102396273Y-58235389D01*
X102382851Y-58227370D01*
X102372693Y-58221301D01*
X102372691Y-58221300D01*
X102372689Y-58221299D01*
X102314499Y-58202393D01*
X102314500Y-58202393D01*
X102251003Y-58192337D01*
X102251000Y-58192337D01*
X97497317Y-58192337D01*
X97497310Y-58192337D01*
X97464701Y-58194941D01*
X97464695Y-58194942D01*
X97433675Y-58199928D01*
X97428662Y-58200798D01*
X97428658Y-58200799D01*
X97344725Y-58237135D01*
X97295410Y-58273315D01*
X97295392Y-58273329D01*
X97267765Y-58297694D01*
X97267761Y-58297698D01*
X97221223Y-58376415D01*
X97221220Y-58376422D01*
X97202583Y-58434699D01*
X97192820Y-58498247D01*
X88900500Y-58498247D01*
X88900500Y-56080338D01*
X98130537Y-56080338D01*
X98130537Y-57373401D01*
X98141150Y-57461780D01*
X98196617Y-57602432D01*
X98287972Y-57722901D01*
X98408441Y-57814256D01*
X98549093Y-57869723D01*
X98637472Y-57880336D01*
X98637479Y-57880337D01*
X99080536Y-57880337D01*
X99080537Y-57880336D01*
X99080537Y-56080338D01*
X99580537Y-56080338D01*
X99580537Y-57880336D01*
X99580538Y-57880337D01*
X100023595Y-57880337D01*
X100023601Y-57880336D01*
X100111980Y-57869723D01*
X100252632Y-57814256D01*
X100373101Y-57722901D01*
X100464456Y-57602432D01*
X100519923Y-57461780D01*
X100530536Y-57373401D01*
X100530537Y-57373395D01*
X100530537Y-56080338D01*
X100530536Y-56080337D01*
X99580538Y-56080337D01*
X99580537Y-56080338D01*
X99080537Y-56080338D01*
X99080536Y-56080337D01*
X98130538Y-56080337D01*
X98130537Y-56080338D01*
X88900500Y-56080338D01*
X88900500Y-54287272D01*
X98130537Y-54287272D01*
X98130537Y-55580336D01*
X98130538Y-55580337D01*
X99080536Y-55580337D01*
X99080537Y-55580336D01*
X99080537Y-53780338D01*
X99580537Y-53780338D01*
X99580537Y-55580336D01*
X99580538Y-55580337D01*
X100530536Y-55580337D01*
X100530537Y-55580336D01*
X100530537Y-54287278D01*
X100530536Y-54287272D01*
X100519923Y-54198893D01*
X100464456Y-54058241D01*
X100373101Y-53937772D01*
X100252632Y-53846417D01*
X100111980Y-53790950D01*
X100023601Y-53780337D01*
X99580538Y-53780337D01*
X99580537Y-53780338D01*
X99080537Y-53780338D01*
X99080536Y-53780337D01*
X98637472Y-53780337D01*
X98549093Y-53790950D01*
X98408441Y-53846417D01*
X98287972Y-53937772D01*
X98196617Y-54058241D01*
X98141150Y-54198893D01*
X98130537Y-54287272D01*
X88900500Y-54287272D01*
X88900500Y-52981935D01*
X115575000Y-52981935D01*
X115575000Y-53112499D01*
X115575001Y-53112500D01*
X116349999Y-53112500D01*
X116350000Y-53112499D01*
X116350000Y-52475001D01*
X116850000Y-52475001D01*
X116850000Y-53112499D01*
X116850001Y-53112500D01*
X117624999Y-53112500D01*
X117625000Y-53112499D01*
X117625000Y-52981941D01*
X117624999Y-52981935D01*
X117614386Y-52893556D01*
X117558919Y-52752904D01*
X117467564Y-52632435D01*
X117347095Y-52541080D01*
X117206443Y-52485613D01*
X117118064Y-52475000D01*
X116850001Y-52475000D01*
X116850000Y-52475001D01*
X116350000Y-52475001D01*
X116349999Y-52475000D01*
X116081935Y-52475000D01*
X115993556Y-52485613D01*
X115852904Y-52541080D01*
X115732435Y-52632435D01*
X115641080Y-52752904D01*
X115585613Y-52893556D01*
X115575000Y-52981935D01*
X88900500Y-52981935D01*
X88900500Y-51603539D01*
X88900752Y-51596477D01*
X88905213Y-51534108D01*
X88915258Y-51393652D01*
X88917265Y-51379693D01*
X88959737Y-51184447D01*
X88963711Y-51170914D01*
X89033539Y-50983701D01*
X89039391Y-50970886D01*
X89135150Y-50795516D01*
X89142777Y-50783648D01*
X89262515Y-50623698D01*
X89271749Y-50613040D01*
X89413040Y-50471749D01*
X89423698Y-50462515D01*
X89583648Y-50342777D01*
X89595516Y-50335150D01*
X89770886Y-50239391D01*
X89783701Y-50233539D01*
X89970914Y-50163711D01*
X89984447Y-50159737D01*
X90179693Y-50117265D01*
X90193652Y-50115258D01*
X90373568Y-50102390D01*
X90396478Y-50100752D01*
X90403540Y-50100500D01*
X90465892Y-50100500D01*
X131334108Y-50100500D01*
X131396460Y-50100500D01*
X131403522Y-50100752D01*
G37*
G04 #@! TD.AperFunction*
G04 #@! TD*
M02*
