G04 #@! TF.GenerationSoftware,KiCad,Pcbnew,9.0.4*
G04 #@! TF.CreationDate,2025-08-24T17:12:50+02:00*
G04 #@! TF.ProjectId,npn-pnp-h-bridge,6e706e2d-706e-4702-9d68-2d6272696467,rev?*
G04 #@! TF.SameCoordinates,Original*
G04 #@! TF.FileFunction,Legend,Bot*
G04 #@! TF.FilePolarity,Positive*
%FSLAX46Y46*%
G04 Gerber Fmt 4.6, Leading zero omitted, Abs format (unit mm)*
G04 Created by KiCad (PCBNEW 9.0.4) date 2025-08-24 17:12:50*
%MOMM*%
%LPD*%
G01*
G04 APERTURE LIST*
G04 Aperture macros list*
%AMRoundRect*
0 Rectangle with rounded corners*
0 $1 Rounding radius*
0 $2 $3 $4 $5 $6 $7 $8 $9 X,Y pos of 4 corners*
0 Add a 4 corners polygon primitive as box body*
4,1,4,$2,$3,$4,$5,$6,$7,$8,$9,$2,$3,0*
0 Add four circle primitives for the rounded corners*
1,1,$1+$1,$2,$3*
1,1,$1+$1,$4,$5*
1,1,$1+$1,$6,$7*
1,1,$1+$1,$8,$9*
0 Add four rect primitives between the rounded corners*
20,1,$1+$1,$2,$3,$4,$5,0*
20,1,$1+$1,$4,$5,$6,$7,0*
20,1,$1+$1,$6,$7,$8,$9,0*
20,1,$1+$1,$8,$9,$2,$3,0*%
G04 Aperture macros list end*
%ADD10C,0.200000*%
%ADD11C,0.100000*%
%ADD12C,0.150000*%
%ADD13C,0.120000*%
%ADD14R,1.500000X1.050000*%
%ADD15O,1.500000X1.050000*%
%ADD16R,1.300000X1.300000*%
%ADD17C,1.300000*%
%ADD18C,1.270000*%
%ADD19RoundRect,0.250000X-0.650000X1.000000X-0.650000X-1.000000X0.650000X-1.000000X0.650000X1.000000X0*%
%ADD20RoundRect,0.250000X0.475000X-0.337500X0.475000X0.337500X-0.475000X0.337500X-0.475000X-0.337500X0*%
%ADD21RoundRect,0.250000X0.650000X-1.000000X0.650000X1.000000X-0.650000X1.000000X-0.650000X-1.000000X0*%
G04 APERTURE END LIST*
D10*
G36*
X172077554Y-91745882D02*
G01*
X172132757Y-91756526D01*
X172181967Y-91775252D01*
X172224926Y-91803890D01*
X172260003Y-91844495D01*
X172276204Y-91876725D01*
X172286780Y-91917940D01*
X172290655Y-91970403D01*
X172288579Y-92022182D01*
X172285099Y-92059918D01*
X171631871Y-92059918D01*
X171629795Y-92043187D01*
X171628391Y-92020106D01*
X171626987Y-91997025D01*
X171626315Y-91978829D01*
X171630086Y-91925356D01*
X171640409Y-91882941D01*
X171656235Y-91849441D01*
X171691134Y-91807067D01*
X171734942Y-91777390D01*
X171785936Y-91758036D01*
X171844973Y-91746615D01*
X171967522Y-91739593D01*
X172077554Y-91745882D01*
G37*
G36*
X172581529Y-94052370D02*
G01*
X171339349Y-94052370D01*
X171339349Y-93493562D01*
X171450460Y-93493562D01*
X171454118Y-93555420D01*
X171464891Y-93613783D01*
X171482639Y-93669173D01*
X171507803Y-93721335D01*
X171540140Y-93768492D01*
X171580031Y-93811139D01*
X171625789Y-93847681D01*
X171679185Y-93879430D01*
X171741170Y-93906271D01*
X171806080Y-93925105D01*
X171880570Y-93937047D01*
X171966057Y-93941259D01*
X172055968Y-93936147D01*
X172132333Y-93921787D01*
X172197172Y-93899310D01*
X172258318Y-93867736D01*
X172310055Y-93831574D01*
X172353426Y-93790867D01*
X172390633Y-93744417D01*
X172420156Y-93694887D01*
X172442391Y-93641878D01*
X172463533Y-93558962D01*
X172470418Y-93478175D01*
X172466766Y-93397738D01*
X172457168Y-93338285D01*
X172441734Y-93283925D01*
X172423035Y-93236130D01*
X172134340Y-93236130D01*
X172134340Y-93390003D01*
X172287419Y-93390003D01*
X172292976Y-93412412D01*
X172298471Y-93473961D01*
X172293471Y-93529747D01*
X172278871Y-93580268D01*
X172254038Y-93625751D01*
X172218115Y-93664959D01*
X172172576Y-93695865D01*
X172112663Y-93720219D01*
X172045013Y-93734500D01*
X171959035Y-93739759D01*
X171881876Y-93734635D01*
X171816519Y-93720219D01*
X171757462Y-93696198D01*
X171710396Y-93665631D01*
X171672155Y-93627097D01*
X171644755Y-93582405D01*
X171628062Y-93532514D01*
X171622407Y-93478175D01*
X171624658Y-93442737D01*
X171631078Y-93411741D01*
X171640644Y-93384288D01*
X171648419Y-93370464D01*
X171849064Y-93370464D01*
X171849064Y-93548089D01*
X171981933Y-93548089D01*
X171981933Y-93213721D01*
X171538815Y-93213721D01*
X171512980Y-93247352D01*
X171490920Y-93288242D01*
X171472869Y-93337552D01*
X171456067Y-93414657D01*
X171450460Y-93493562D01*
X171339349Y-93493562D01*
X171339349Y-92567576D01*
X171470000Y-92567576D01*
X172050137Y-92901945D01*
X172050137Y-92908967D01*
X171933817Y-92900540D01*
X171470000Y-92900540D01*
X171470000Y-93082440D01*
X172450879Y-93082440D01*
X172450879Y-92914523D01*
X171851140Y-92576003D01*
X171851140Y-92568981D01*
X171968866Y-92581559D01*
X172450879Y-92581559D01*
X172450879Y-92399720D01*
X171470000Y-92399720D01*
X171470000Y-92567576D01*
X171339349Y-92567576D01*
X171339349Y-92001177D01*
X171454368Y-92001177D01*
X171455772Y-92058574D01*
X171459314Y-92129893D01*
X171463466Y-92199869D01*
X171468351Y-92251587D01*
X172448620Y-92251587D01*
X172452772Y-92207562D01*
X172457657Y-92136182D01*
X172461198Y-92053689D01*
X172462602Y-91977424D01*
X172457887Y-91891100D01*
X172444849Y-91820119D01*
X172424806Y-91762002D01*
X172395766Y-91707990D01*
X172361087Y-91663360D01*
X172320636Y-91626997D01*
X172274526Y-91597630D01*
X172222589Y-91574488D01*
X172164016Y-91557693D01*
X172071570Y-91543170D01*
X171967583Y-91538093D01*
X171871898Y-91543019D01*
X171778784Y-91557693D01*
X171718825Y-91574500D01*
X171664265Y-91598053D01*
X171614469Y-91628340D01*
X171570376Y-91665912D01*
X171531729Y-91712608D01*
X171498393Y-91769635D01*
X171475070Y-91831398D01*
X171459879Y-91907588D01*
X171455684Y-91978829D01*
X171454368Y-92001177D01*
X171339349Y-92001177D01*
X171339349Y-91426982D01*
X172581529Y-91426982D01*
X172581529Y-94052370D01*
G37*
G36*
X168577621Y-94001995D02*
G01*
X167042350Y-94001995D01*
X167042350Y-93890884D01*
X167470000Y-93890884D01*
X168450879Y-93890884D01*
X168450879Y-93699214D01*
X167641946Y-93699214D01*
X167641946Y-93420778D01*
X167868604Y-93420778D01*
X167868604Y-93247304D01*
X167470000Y-93247304D01*
X167470000Y-93890884D01*
X167042350Y-93890884D01*
X167042350Y-93051666D01*
X167153461Y-93051666D01*
X167305868Y-93051666D01*
X167305868Y-92430495D01*
X167153461Y-92430495D01*
X167153461Y-93051666D01*
X167042350Y-93051666D01*
X167042350Y-92239009D01*
X167470000Y-92239009D01*
X167622407Y-92239009D01*
X167622407Y-91992812D01*
X168017103Y-91992812D01*
X168017103Y-92239009D01*
X168169511Y-92239009D01*
X168169511Y-91904640D01*
X168259392Y-91904640D01*
X168262940Y-91941882D01*
X168272722Y-91971161D01*
X168288091Y-91994216D01*
X168309012Y-92012096D01*
X168333148Y-92022725D01*
X168361547Y-92026395D01*
X168389131Y-92022807D01*
X168413571Y-92012242D01*
X168435736Y-91994216D01*
X168452301Y-91971000D01*
X168462743Y-91941717D01*
X168466510Y-91904640D01*
X168462778Y-91866606D01*
X168452351Y-91835880D01*
X168435736Y-91810912D01*
X168413369Y-91791179D01*
X168388941Y-91779769D01*
X168361547Y-91775924D01*
X168333350Y-91779854D01*
X168309219Y-91791330D01*
X168288091Y-91810912D01*
X168272668Y-91835725D01*
X168262904Y-91866452D01*
X168259392Y-91904640D01*
X168169511Y-91904640D01*
X168169511Y-91810912D01*
X167622407Y-91810912D01*
X167622407Y-91552076D01*
X167470000Y-91552076D01*
X167470000Y-92239009D01*
X167042350Y-92239009D01*
X167042350Y-90894757D01*
X167470000Y-90894757D01*
X167867749Y-90894757D01*
X167923455Y-90899819D01*
X167963161Y-90913174D01*
X167990969Y-90933225D01*
X168011852Y-90960856D01*
X168024449Y-90992828D01*
X168028827Y-91030434D01*
X168021318Y-91079888D01*
X167998724Y-91124895D01*
X167964484Y-91161107D01*
X167923803Y-91182964D01*
X167470000Y-91182964D01*
X167470000Y-91364802D01*
X168017103Y-91364802D01*
X168017103Y-91465553D01*
X168169511Y-91465553D01*
X168169511Y-91220699D01*
X168077126Y-91199755D01*
X168077126Y-91194138D01*
X168117981Y-91156267D01*
X168155467Y-91101814D01*
X168173662Y-91060466D01*
X168185048Y-91012842D01*
X168189050Y-90957711D01*
X168185481Y-90907011D01*
X168175068Y-90860502D01*
X168156409Y-90818126D01*
X168128906Y-90782833D01*
X168092342Y-90754797D01*
X168041467Y-90731786D01*
X167982673Y-90718008D01*
X167905057Y-90712857D01*
X167470000Y-90712857D01*
X167470000Y-90894757D01*
X167042350Y-90894757D01*
X167042350Y-90601746D01*
X168577621Y-90601746D01*
X168577621Y-94001995D01*
G37*
D11*
G36*
X164437047Y-105657063D02*
G01*
X164473191Y-105693208D01*
X164511903Y-105770631D01*
X164511903Y-106032738D01*
X164473191Y-106110161D01*
X164437045Y-106146308D01*
X164359624Y-106185019D01*
X164192755Y-106185019D01*
X164135713Y-106156498D01*
X164135713Y-105646872D01*
X164192755Y-105618352D01*
X164359624Y-105618352D01*
X164437047Y-105657063D01*
G37*
G36*
X174437049Y-105657063D02*
G01*
X174473193Y-105693208D01*
X174511905Y-105770631D01*
X174511905Y-106032738D01*
X174473193Y-106110161D01*
X174437047Y-106146308D01*
X174359626Y-106185019D01*
X174192757Y-106185019D01*
X174135715Y-106156498D01*
X174135715Y-105646872D01*
X174192757Y-105618352D01*
X174359626Y-105618352D01*
X174437049Y-105657063D01*
G37*
G36*
X167920495Y-105898787D02*
G01*
X167922910Y-105899448D01*
X167923722Y-105900260D01*
X167931583Y-105901823D01*
X167939311Y-105903940D01*
X167940399Y-105903577D01*
X167942856Y-105904066D01*
X168169148Y-105904066D01*
X168238921Y-105938952D01*
X168273808Y-106008726D01*
X168273808Y-106080357D01*
X168238921Y-106150132D01*
X168169148Y-106185019D01*
X167954660Y-106185019D01*
X167897618Y-106156498D01*
X167897618Y-105887348D01*
X167920495Y-105898787D01*
G37*
G36*
X171341810Y-105657063D02*
G01*
X171377954Y-105693208D01*
X171416666Y-105770631D01*
X171416666Y-106032738D01*
X171377954Y-106110161D01*
X171341808Y-106146308D01*
X171264387Y-106185019D01*
X171145137Y-106185019D01*
X171067714Y-106146308D01*
X171031568Y-106110161D01*
X170992857Y-106032739D01*
X170992857Y-105770631D01*
X171031568Y-105693207D01*
X171067713Y-105657063D01*
X171145137Y-105618352D01*
X171264387Y-105618352D01*
X171341810Y-105657063D01*
G37*
G36*
X173572256Y-105653238D02*
G01*
X173607143Y-105723012D01*
X173607143Y-105840694D01*
X173230953Y-105765456D01*
X173230953Y-105723012D01*
X173265839Y-105653238D01*
X173335614Y-105618352D01*
X173502483Y-105618352D01*
X173572256Y-105653238D01*
G37*
G36*
X175341811Y-105657063D02*
G01*
X175377955Y-105693208D01*
X175416667Y-105770631D01*
X175416667Y-106032738D01*
X175377955Y-106110161D01*
X175341809Y-106146308D01*
X175264388Y-106185019D01*
X175097519Y-106185019D01*
X175040477Y-106156498D01*
X175040477Y-105646872D01*
X175097519Y-105618352D01*
X175264388Y-105618352D01*
X175341811Y-105657063D01*
G37*
G36*
X177464286Y-106185019D02*
G01*
X177145138Y-106185019D01*
X177067715Y-106146308D01*
X177031569Y-106110161D01*
X176992858Y-106032739D01*
X176992858Y-105913488D01*
X177031569Y-105836064D01*
X177065105Y-105802529D01*
X177189066Y-105761209D01*
X177464286Y-105761209D01*
X177464286Y-106185019D01*
G37*
G36*
X177464286Y-105661209D02*
G01*
X177192757Y-105661209D01*
X177115333Y-105622497D01*
X177079188Y-105586353D01*
X177040477Y-105508930D01*
X177040477Y-105437298D01*
X177079188Y-105359874D01*
X177115333Y-105323730D01*
X177192757Y-105285019D01*
X177464286Y-105285019D01*
X177464286Y-105661209D01*
G37*
G36*
X179961111Y-106729463D02*
G01*
X161591268Y-106729463D01*
X161591268Y-106044542D01*
X161702379Y-106044542D01*
X161702379Y-106092161D01*
X161702867Y-106094617D01*
X161702505Y-106095705D01*
X161704620Y-106103429D01*
X161706185Y-106111295D01*
X161706996Y-106112106D01*
X161707658Y-106114521D01*
X161755276Y-106209760D01*
X161761379Y-106217624D01*
X161762225Y-106220160D01*
X161765048Y-106222351D01*
X161767238Y-106225172D01*
X161769771Y-106226016D01*
X161777637Y-106232121D01*
X161872875Y-106279740D01*
X161875290Y-106280401D01*
X161876102Y-106281213D01*
X161883963Y-106282776D01*
X161891691Y-106284893D01*
X161892779Y-106284530D01*
X161895236Y-106285019D01*
X162085712Y-106285019D01*
X162088168Y-106284530D01*
X162089257Y-106284893D01*
X162096984Y-106282776D01*
X162104846Y-106281213D01*
X162105657Y-106280401D01*
X162108073Y-106279740D01*
X162203310Y-106232122D01*
X162218722Y-106220160D01*
X162230824Y-106183856D01*
X162213710Y-106149628D01*
X162177405Y-106137526D01*
X162158589Y-106142679D01*
X162073909Y-106185019D01*
X161907040Y-106185019D01*
X161837265Y-106150132D01*
X161802379Y-106080359D01*
X161802379Y-106056345D01*
X161837265Y-105986571D01*
X161907040Y-105951685D01*
X162038093Y-105951685D01*
X162040549Y-105951196D01*
X162041638Y-105951559D01*
X162049365Y-105949442D01*
X162057227Y-105947879D01*
X162058038Y-105947067D01*
X162060454Y-105946406D01*
X162155691Y-105898788D01*
X162163555Y-105892684D01*
X162166091Y-105891839D01*
X162168282Y-105889015D01*
X162171103Y-105886826D01*
X162171947Y-105884292D01*
X162178052Y-105876427D01*
X162225671Y-105781189D01*
X162226332Y-105778773D01*
X162227144Y-105777962D01*
X162228707Y-105770100D01*
X162230824Y-105762373D01*
X162230461Y-105761284D01*
X162230950Y-105758828D01*
X162230950Y-105711209D01*
X162230461Y-105708752D01*
X162230824Y-105707664D01*
X162228707Y-105699936D01*
X162227144Y-105692075D01*
X162226332Y-105691263D01*
X162225671Y-105688848D01*
X162178052Y-105593610D01*
X162171947Y-105585744D01*
X162171103Y-105583211D01*
X162168282Y-105581021D01*
X162166091Y-105578198D01*
X162163555Y-105577352D01*
X162155691Y-105571249D01*
X162111629Y-105549218D01*
X162420471Y-105549218D01*
X162420471Y-105587486D01*
X162447531Y-105614546D01*
X162466665Y-105618352D01*
X162654760Y-105618352D01*
X162654760Y-106080357D01*
X162619873Y-106150132D01*
X162550100Y-106185019D01*
X162466665Y-106185019D01*
X162447531Y-106188825D01*
X162420471Y-106215885D01*
X162420471Y-106254153D01*
X162447531Y-106281213D01*
X162466665Y-106285019D01*
X162561903Y-106285019D01*
X162564359Y-106284530D01*
X162565448Y-106284893D01*
X162573175Y-106282776D01*
X162581037Y-106281213D01*
X162581848Y-106280401D01*
X162584264Y-106279740D01*
X162679501Y-106232122D01*
X162687367Y-106226016D01*
X162689901Y-106225172D01*
X162692090Y-106222350D01*
X162694913Y-106220160D01*
X162695758Y-106217625D01*
X162701862Y-106209760D01*
X162749481Y-106114522D01*
X162750142Y-106112106D01*
X162750954Y-106111295D01*
X162752517Y-106103433D01*
X162754634Y-106095706D01*
X162754271Y-106094617D01*
X162754760Y-106092161D01*
X162754760Y-105711209D01*
X163130951Y-105711209D01*
X163130951Y-106235019D01*
X163134757Y-106254153D01*
X163161817Y-106281213D01*
X163200085Y-106281213D01*
X163227145Y-106254153D01*
X163230951Y-106235019D01*
X163230951Y-105723012D01*
X163265837Y-105653238D01*
X163335612Y-105618352D01*
X163454862Y-105618352D01*
X163532285Y-105657063D01*
X163559522Y-105684300D01*
X163559522Y-106235019D01*
X163563328Y-106254153D01*
X163590388Y-106281213D01*
X163628656Y-106281213D01*
X163655716Y-106254153D01*
X163659522Y-106235019D01*
X163659522Y-105568352D01*
X164035713Y-105568352D01*
X164035713Y-106377876D01*
X164036201Y-106380332D01*
X164035839Y-106381421D01*
X164037955Y-106389148D01*
X164039519Y-106397010D01*
X164040330Y-106397821D01*
X164040992Y-106400237D01*
X164088610Y-106495474D01*
X164093525Y-106501807D01*
X164097977Y-106508469D01*
X164145595Y-106556088D01*
X164152261Y-106560542D01*
X164158590Y-106565454D01*
X164253828Y-106613073D01*
X164256243Y-106613734D01*
X164257055Y-106614546D01*
X164264916Y-106616109D01*
X164272644Y-106618226D01*
X164273732Y-106617863D01*
X164276189Y-106618352D01*
X164419046Y-106618352D01*
X164421502Y-106617863D01*
X164422591Y-106618226D01*
X164430318Y-106616109D01*
X164438180Y-106614546D01*
X164438991Y-106613734D01*
X164441407Y-106613073D01*
X164536644Y-106565455D01*
X164552056Y-106553493D01*
X164564158Y-106517189D01*
X164547044Y-106482961D01*
X164510739Y-106470859D01*
X164491923Y-106476012D01*
X164407243Y-106518352D01*
X164287993Y-106518352D01*
X164210569Y-106479640D01*
X164174424Y-106443496D01*
X164135713Y-106366073D01*
X164135713Y-106268301D01*
X164158590Y-106279740D01*
X164161005Y-106280401D01*
X164161817Y-106281213D01*
X164169678Y-106282776D01*
X164177406Y-106284893D01*
X164178494Y-106284530D01*
X164180951Y-106285019D01*
X164371427Y-106285019D01*
X164373883Y-106284530D01*
X164374972Y-106284893D01*
X164382699Y-106282776D01*
X164390561Y-106281213D01*
X164391372Y-106280401D01*
X164393788Y-106279740D01*
X164489025Y-106232122D01*
X164495352Y-106227211D01*
X164502021Y-106222755D01*
X164549640Y-106175135D01*
X164554093Y-106168469D01*
X164559005Y-106162141D01*
X164606624Y-106066903D01*
X164607285Y-106064487D01*
X164608097Y-106063676D01*
X164609660Y-106055814D01*
X164611777Y-106048087D01*
X164611414Y-106046998D01*
X164611903Y-106044542D01*
X164611903Y-105758828D01*
X164611414Y-105756371D01*
X164611777Y-105755283D01*
X164609660Y-105747555D01*
X164608097Y-105739694D01*
X164607285Y-105738882D01*
X164606624Y-105736467D01*
X164559005Y-105641229D01*
X164554093Y-105634900D01*
X164549639Y-105628234D01*
X164502020Y-105580616D01*
X164495358Y-105576164D01*
X164489025Y-105571249D01*
X164483231Y-105568352D01*
X164940474Y-105568352D01*
X164940474Y-106235019D01*
X164944280Y-106254153D01*
X164971340Y-106281213D01*
X165009608Y-106281213D01*
X165036668Y-106254153D01*
X165039769Y-106238564D01*
X165321553Y-106238564D01*
X165338667Y-106272792D01*
X165374972Y-106284893D01*
X165393788Y-106279740D01*
X165489025Y-106232122D01*
X165496891Y-106226016D01*
X165499425Y-106225172D01*
X165501614Y-106222350D01*
X165504437Y-106220160D01*
X165505282Y-106217625D01*
X165511386Y-106209760D01*
X165559005Y-106114522D01*
X165559666Y-106112106D01*
X165560478Y-106111295D01*
X165562041Y-106103433D01*
X165564158Y-106095706D01*
X165563795Y-106094617D01*
X165564284Y-106092161D01*
X165564284Y-105565869D01*
X165845299Y-105565869D01*
X165848150Y-105585169D01*
X166086245Y-106251836D01*
X166086733Y-106252652D01*
X166086908Y-106253589D01*
X166182146Y-106491683D01*
X166182376Y-106492036D01*
X166182376Y-106492248D01*
X166187624Y-106500102D01*
X166192786Y-106508035D01*
X166192980Y-106508118D01*
X166193215Y-106508469D01*
X166240833Y-106556088D01*
X166247499Y-106560542D01*
X166253828Y-106565454D01*
X166349066Y-106613073D01*
X166367882Y-106618226D01*
X166404187Y-106606124D01*
X166421301Y-106571896D01*
X166409199Y-106535592D01*
X166393787Y-106523630D01*
X166305807Y-106479640D01*
X166271183Y-106445017D01*
X166186783Y-106234016D01*
X166418514Y-105585169D01*
X166421365Y-105565870D01*
X166413477Y-105549218D01*
X166563329Y-105549218D01*
X166563329Y-105587486D01*
X166590389Y-105614546D01*
X166609523Y-105618352D01*
X166692958Y-105618352D01*
X166770381Y-105657063D01*
X166806525Y-105693208D01*
X166845237Y-105770631D01*
X166845237Y-106235019D01*
X166849043Y-106254153D01*
X166876103Y-106281213D01*
X166914371Y-106281213D01*
X166941431Y-106254153D01*
X166945237Y-106235019D01*
X166945237Y-105568352D01*
X167321427Y-105568352D01*
X167321427Y-106235019D01*
X167325233Y-106254153D01*
X167352293Y-106281213D01*
X167390561Y-106281213D01*
X167417621Y-106254153D01*
X167421427Y-106235019D01*
X167421427Y-105711209D01*
X167797618Y-105711209D01*
X167797618Y-106235019D01*
X167801424Y-106254153D01*
X167828484Y-106281213D01*
X167866752Y-106281213D01*
X167885648Y-106262316D01*
X167920495Y-106279740D01*
X167922910Y-106280401D01*
X167923722Y-106281213D01*
X167931583Y-106282776D01*
X167939311Y-106284893D01*
X167940399Y-106284530D01*
X167942856Y-106285019D01*
X168180951Y-106285019D01*
X168183407Y-106284530D01*
X168184496Y-106284893D01*
X168192223Y-106282776D01*
X168200085Y-106281213D01*
X168200896Y-106280401D01*
X168203312Y-106279740D01*
X168298549Y-106232122D01*
X168306415Y-106226016D01*
X168308949Y-106225172D01*
X168311138Y-106222350D01*
X168313961Y-106220160D01*
X168314806Y-106217625D01*
X168320910Y-106209760D01*
X168368529Y-106114522D01*
X168369190Y-106112106D01*
X168370002Y-106111295D01*
X168371565Y-106103433D01*
X168373682Y-106095706D01*
X168373319Y-106094617D01*
X168373808Y-106092161D01*
X168373808Y-105996923D01*
X168373319Y-105994466D01*
X168373682Y-105993378D01*
X168371565Y-105985650D01*
X168370002Y-105977789D01*
X168369190Y-105976977D01*
X168368529Y-105974562D01*
X168320910Y-105879324D01*
X168314805Y-105871458D01*
X168313961Y-105868925D01*
X168311140Y-105866735D01*
X168308949Y-105863912D01*
X168306413Y-105863066D01*
X168298549Y-105856963D01*
X168203312Y-105809345D01*
X168200896Y-105808683D01*
X168200085Y-105807872D01*
X168192223Y-105806308D01*
X168184496Y-105804192D01*
X168183407Y-105804554D01*
X168180951Y-105804066D01*
X167954660Y-105804066D01*
X167897618Y-105775545D01*
X167897618Y-105723012D01*
X167932504Y-105653238D01*
X168002279Y-105618352D01*
X168169148Y-105618352D01*
X168253828Y-105660692D01*
X168272644Y-105665845D01*
X168308949Y-105653743D01*
X168326063Y-105619515D01*
X168313961Y-105583211D01*
X168298549Y-105571249D01*
X168203312Y-105523631D01*
X168200896Y-105522969D01*
X168200085Y-105522158D01*
X168192223Y-105520594D01*
X168184496Y-105518478D01*
X168183407Y-105518840D01*
X168180951Y-105518352D01*
X167990475Y-105518352D01*
X167988018Y-105518840D01*
X167986930Y-105518478D01*
X167979202Y-105520594D01*
X167971341Y-105522158D01*
X167970529Y-105522969D01*
X167968114Y-105523631D01*
X167872876Y-105571250D01*
X167865010Y-105577354D01*
X167862477Y-105578199D01*
X167860287Y-105581019D01*
X167857464Y-105583211D01*
X167856618Y-105585746D01*
X167850515Y-105593611D01*
X167802897Y-105688848D01*
X167802235Y-105691263D01*
X167801424Y-105692075D01*
X167799860Y-105699936D01*
X167797744Y-105707664D01*
X167798106Y-105708752D01*
X167797618Y-105711209D01*
X167421427Y-105711209D01*
X167421427Y-105568352D01*
X167417621Y-105549218D01*
X167390561Y-105522158D01*
X167352293Y-105522158D01*
X167325233Y-105549218D01*
X167321427Y-105568352D01*
X166945237Y-105568352D01*
X166941431Y-105549218D01*
X166914371Y-105522158D01*
X166876103Y-105522158D01*
X166849043Y-105549218D01*
X166845237Y-105568352D01*
X166845237Y-105590498D01*
X166835354Y-105580616D01*
X166828692Y-105576164D01*
X166822359Y-105571249D01*
X166727122Y-105523631D01*
X166724706Y-105522969D01*
X166723895Y-105522158D01*
X166716033Y-105520594D01*
X166708306Y-105518478D01*
X166707217Y-105518840D01*
X166704761Y-105518352D01*
X166609523Y-105518352D01*
X166590389Y-105522158D01*
X166563329Y-105549218D01*
X166413477Y-105549218D01*
X166404983Y-105531285D01*
X166368944Y-105518414D01*
X166334360Y-105534796D01*
X166324340Y-105551535D01*
X166133332Y-106086358D01*
X165942324Y-105551535D01*
X165932304Y-105534796D01*
X165897720Y-105518414D01*
X165861681Y-105531285D01*
X165845299Y-105565869D01*
X165564284Y-105565869D01*
X165564284Y-105263504D01*
X167277614Y-105263504D01*
X167277614Y-105301772D01*
X167288453Y-105317993D01*
X167336071Y-105365612D01*
X167352292Y-105376451D01*
X167352293Y-105376451D01*
X167390561Y-105376451D01*
X167406782Y-105365612D01*
X167454401Y-105317994D01*
X167465240Y-105301773D01*
X167465240Y-105263504D01*
X167465240Y-105263503D01*
X167454401Y-105247282D01*
X167423003Y-105215885D01*
X168610948Y-105215885D01*
X168610948Y-105254153D01*
X168638008Y-105281213D01*
X168657142Y-105285019D01*
X169083332Y-105285019D01*
X169083332Y-105661209D01*
X168799999Y-105661209D01*
X168780865Y-105665015D01*
X168753805Y-105692075D01*
X168753805Y-105730343D01*
X168780865Y-105757403D01*
X168799999Y-105761209D01*
X169083332Y-105761209D01*
X169083332Y-106235019D01*
X169087138Y-106254153D01*
X169114198Y-106281213D01*
X169152466Y-106281213D01*
X169179526Y-106254153D01*
X169183332Y-106235019D01*
X169183332Y-105549218D01*
X170182377Y-105549218D01*
X170182377Y-105587486D01*
X170209437Y-105614546D01*
X170228571Y-105618352D01*
X170312006Y-105618352D01*
X170389429Y-105657063D01*
X170425573Y-105693208D01*
X170464285Y-105770631D01*
X170464285Y-106235019D01*
X170468091Y-106254153D01*
X170495151Y-106281213D01*
X170533419Y-106281213D01*
X170560479Y-106254153D01*
X170564285Y-106235019D01*
X170564285Y-105758828D01*
X170892857Y-105758828D01*
X170892857Y-106044542D01*
X170893345Y-106046998D01*
X170892983Y-106048087D01*
X170895099Y-106055814D01*
X170896663Y-106063676D01*
X170897474Y-106064487D01*
X170898136Y-106066903D01*
X170945754Y-106162140D01*
X170950665Y-106168468D01*
X170955120Y-106175135D01*
X171002739Y-106222755D01*
X171009405Y-106227209D01*
X171015734Y-106232121D01*
X171110972Y-106279740D01*
X171113387Y-106280401D01*
X171114199Y-106281213D01*
X171122060Y-106282776D01*
X171129788Y-106284893D01*
X171130876Y-106284530D01*
X171133333Y-106285019D01*
X171276190Y-106285019D01*
X171278646Y-106284530D01*
X171279735Y-106284893D01*
X171287462Y-106282776D01*
X171295324Y-106281213D01*
X171296135Y-106280401D01*
X171298551Y-106279740D01*
X171393788Y-106232122D01*
X171400115Y-106227211D01*
X171406784Y-106222755D01*
X171454403Y-106175135D01*
X171458856Y-106168469D01*
X171463768Y-106162141D01*
X171511387Y-106066903D01*
X171512048Y-106064487D01*
X171512860Y-106063676D01*
X171514423Y-106055814D01*
X171516540Y-106048087D01*
X171516177Y-106046998D01*
X171516666Y-106044542D01*
X171516666Y-105758828D01*
X171516177Y-105756371D01*
X171516540Y-105755283D01*
X171514423Y-105747555D01*
X171512860Y-105739694D01*
X171512048Y-105738882D01*
X171511387Y-105736467D01*
X171463768Y-105641229D01*
X171458856Y-105634900D01*
X171454402Y-105628234D01*
X171406783Y-105580616D01*
X171400121Y-105576164D01*
X171393788Y-105571249D01*
X171298551Y-105523631D01*
X171296135Y-105522969D01*
X171295324Y-105522158D01*
X171287462Y-105520594D01*
X171279735Y-105518478D01*
X171278646Y-105518840D01*
X171276190Y-105518352D01*
X171133333Y-105518352D01*
X171130876Y-105518840D01*
X171129788Y-105518478D01*
X171122060Y-105520594D01*
X171114199Y-105522158D01*
X171113387Y-105522969D01*
X171110972Y-105523631D01*
X171015734Y-105571250D01*
X171009405Y-105576161D01*
X171002739Y-105580616D01*
X170955121Y-105628235D01*
X170950669Y-105634896D01*
X170945754Y-105641230D01*
X170898136Y-105736467D01*
X170897474Y-105738882D01*
X170896663Y-105739694D01*
X170895099Y-105747555D01*
X170892983Y-105755283D01*
X170893345Y-105756371D01*
X170892857Y-105758828D01*
X170564285Y-105758828D01*
X170564285Y-105568352D01*
X170560479Y-105549218D01*
X170533419Y-105522158D01*
X170495151Y-105522158D01*
X170468091Y-105549218D01*
X170464285Y-105568352D01*
X170464285Y-105590498D01*
X170454402Y-105580616D01*
X170447740Y-105576164D01*
X170441407Y-105571249D01*
X170346170Y-105523631D01*
X170343754Y-105522969D01*
X170342943Y-105522158D01*
X170335081Y-105520594D01*
X170327354Y-105518478D01*
X170326265Y-105518840D01*
X170323809Y-105518352D01*
X170228571Y-105518352D01*
X170209437Y-105522158D01*
X170182377Y-105549218D01*
X169183332Y-105549218D01*
X169183332Y-105235019D01*
X169179526Y-105215885D01*
X171706187Y-105215885D01*
X171706187Y-105254153D01*
X171733247Y-105281213D01*
X171752381Y-105285019D01*
X171835816Y-105285019D01*
X171905589Y-105319905D01*
X171940476Y-105389679D01*
X171940476Y-105518352D01*
X171752381Y-105518352D01*
X171733247Y-105522158D01*
X171706187Y-105549218D01*
X171706187Y-105587486D01*
X171733247Y-105614546D01*
X171752381Y-105618352D01*
X171940476Y-105618352D01*
X171940476Y-106235019D01*
X171944282Y-106254153D01*
X171971342Y-106281213D01*
X172009610Y-106281213D01*
X172036670Y-106254153D01*
X172040476Y-106235019D01*
X172040476Y-105711209D01*
X173130953Y-105711209D01*
X173130953Y-105806447D01*
X173132394Y-105813695D01*
X173131904Y-105816150D01*
X173133299Y-105818243D01*
X173134759Y-105825581D01*
X173145055Y-105835877D01*
X173153131Y-105847991D01*
X173160039Y-105850861D01*
X173161819Y-105852641D01*
X173164323Y-105852641D01*
X173171147Y-105855476D01*
X173607143Y-105942675D01*
X173607143Y-106080357D01*
X173572256Y-106150132D01*
X173502483Y-106185019D01*
X173335614Y-106185019D01*
X173250933Y-106142679D01*
X173232117Y-106137526D01*
X173195812Y-106149627D01*
X173178698Y-106183855D01*
X173190799Y-106220160D01*
X173206211Y-106232121D01*
X173301449Y-106279740D01*
X173303864Y-106280401D01*
X173304676Y-106281213D01*
X173312537Y-106282776D01*
X173320265Y-106284893D01*
X173321353Y-106284530D01*
X173323810Y-106285019D01*
X173514286Y-106285019D01*
X173516742Y-106284530D01*
X173517831Y-106284893D01*
X173525558Y-106282776D01*
X173533420Y-106281213D01*
X173534231Y-106280401D01*
X173536647Y-106279740D01*
X173631884Y-106232122D01*
X173639750Y-106226016D01*
X173642284Y-106225172D01*
X173644473Y-106222350D01*
X173647296Y-106220160D01*
X173648141Y-106217625D01*
X173654245Y-106209760D01*
X173701864Y-106114522D01*
X173702525Y-106112106D01*
X173703337Y-106111295D01*
X173704900Y-106103433D01*
X173707017Y-106095706D01*
X173706654Y-106094617D01*
X173707143Y-106092161D01*
X173707143Y-105711209D01*
X173706654Y-105708752D01*
X173707017Y-105707664D01*
X173704900Y-105699936D01*
X173703337Y-105692075D01*
X173702525Y-105691263D01*
X173701864Y-105688848D01*
X173654245Y-105593610D01*
X173648140Y-105585744D01*
X173647296Y-105583211D01*
X173644475Y-105581021D01*
X173642284Y-105578198D01*
X173639748Y-105577352D01*
X173631884Y-105571249D01*
X173626090Y-105568352D01*
X174035715Y-105568352D01*
X174035715Y-106377876D01*
X174036203Y-106380332D01*
X174035841Y-106381421D01*
X174037957Y-106389148D01*
X174039521Y-106397010D01*
X174040332Y-106397821D01*
X174040994Y-106400237D01*
X174088612Y-106495474D01*
X174093527Y-106501807D01*
X174097979Y-106508469D01*
X174145597Y-106556088D01*
X174152263Y-106560542D01*
X174158592Y-106565454D01*
X174253830Y-106613073D01*
X174256245Y-106613734D01*
X174257057Y-106614546D01*
X174264918Y-106616109D01*
X174272646Y-106618226D01*
X174273734Y-106617863D01*
X174276191Y-106618352D01*
X174419048Y-106618352D01*
X174421504Y-106617863D01*
X174422593Y-106618226D01*
X174430320Y-106616109D01*
X174438182Y-106614546D01*
X174438993Y-106613734D01*
X174441409Y-106613073D01*
X174536646Y-106565455D01*
X174552058Y-106553493D01*
X174564160Y-106517189D01*
X174547046Y-106482961D01*
X174510741Y-106470859D01*
X174491925Y-106476012D01*
X174407245Y-106518352D01*
X174287995Y-106518352D01*
X174210571Y-106479640D01*
X174174426Y-106443496D01*
X174135715Y-106366073D01*
X174135715Y-106268301D01*
X174158592Y-106279740D01*
X174161007Y-106280401D01*
X174161819Y-106281213D01*
X174169680Y-106282776D01*
X174177408Y-106284893D01*
X174178496Y-106284530D01*
X174180953Y-106285019D01*
X174371429Y-106285019D01*
X174373885Y-106284530D01*
X174374974Y-106284893D01*
X174382701Y-106282776D01*
X174390563Y-106281213D01*
X174391374Y-106280401D01*
X174393790Y-106279740D01*
X174489027Y-106232122D01*
X174495354Y-106227211D01*
X174502023Y-106222755D01*
X174549642Y-106175135D01*
X174554095Y-106168469D01*
X174559007Y-106162141D01*
X174606626Y-106066903D01*
X174607287Y-106064487D01*
X174608099Y-106063676D01*
X174609662Y-106055814D01*
X174611779Y-106048087D01*
X174611416Y-106046998D01*
X174611905Y-106044542D01*
X174611905Y-105758828D01*
X174611416Y-105756371D01*
X174611779Y-105755283D01*
X174609662Y-105747555D01*
X174608099Y-105739694D01*
X174607287Y-105738882D01*
X174606626Y-105736467D01*
X174559007Y-105641229D01*
X174554095Y-105634900D01*
X174549641Y-105628234D01*
X174502022Y-105580616D01*
X174495360Y-105576164D01*
X174489027Y-105571249D01*
X174393790Y-105523631D01*
X174391374Y-105522969D01*
X174390563Y-105522158D01*
X174382701Y-105520594D01*
X174374974Y-105518478D01*
X174373885Y-105518840D01*
X174371429Y-105518352D01*
X174180953Y-105518352D01*
X174178496Y-105518840D01*
X174177408Y-105518478D01*
X174169680Y-105520594D01*
X174161819Y-105522158D01*
X174161007Y-105522969D01*
X174158592Y-105523631D01*
X174123745Y-105541054D01*
X174104849Y-105522158D01*
X174066581Y-105522158D01*
X174039521Y-105549218D01*
X174035715Y-105568352D01*
X173626090Y-105568352D01*
X173536647Y-105523631D01*
X173534231Y-105522969D01*
X173533420Y-105522158D01*
X173525558Y-105520594D01*
X173517831Y-105518478D01*
X173516742Y-105518840D01*
X173514286Y-105518352D01*
X173323810Y-105518352D01*
X173321353Y-105518840D01*
X173320265Y-105518478D01*
X173312537Y-105520594D01*
X173304676Y-105522158D01*
X173303864Y-105522969D01*
X173301449Y-105523631D01*
X173206211Y-105571250D01*
X173198345Y-105577354D01*
X173195812Y-105578199D01*
X173193622Y-105581019D01*
X173190799Y-105583211D01*
X173189953Y-105585746D01*
X173183850Y-105593611D01*
X173136232Y-105688848D01*
X173135570Y-105691263D01*
X173134759Y-105692075D01*
X173133195Y-105699936D01*
X173131079Y-105707664D01*
X173131441Y-105708752D01*
X173130953Y-105711209D01*
X172040476Y-105711209D01*
X172040476Y-105618352D01*
X172133333Y-105618352D01*
X172152467Y-105614546D01*
X172179527Y-105587486D01*
X172179527Y-105549218D01*
X172152467Y-105522158D01*
X172133333Y-105518352D01*
X172040476Y-105518352D01*
X172040476Y-105377876D01*
X172039987Y-105375419D01*
X172040350Y-105374331D01*
X172038233Y-105366603D01*
X172036670Y-105358742D01*
X172035858Y-105357930D01*
X172035197Y-105355515D01*
X171987578Y-105260277D01*
X171981473Y-105252411D01*
X171980629Y-105249878D01*
X171977808Y-105247688D01*
X171975617Y-105244865D01*
X171973081Y-105244019D01*
X171965217Y-105237916D01*
X171959423Y-105235019D01*
X174940477Y-105235019D01*
X174940477Y-106235019D01*
X174944283Y-106254153D01*
X174971343Y-106281213D01*
X175009611Y-106281213D01*
X175028507Y-106262316D01*
X175063354Y-106279740D01*
X175065769Y-106280401D01*
X175066581Y-106281213D01*
X175074442Y-106282776D01*
X175082170Y-106284893D01*
X175083258Y-106284530D01*
X175085715Y-106285019D01*
X175276191Y-106285019D01*
X175278647Y-106284530D01*
X175279736Y-106284893D01*
X175287463Y-106282776D01*
X175295325Y-106281213D01*
X175296136Y-106280401D01*
X175298552Y-106279740D01*
X175393789Y-106232122D01*
X175400116Y-106227211D01*
X175406785Y-106222755D01*
X175454404Y-106175135D01*
X175458857Y-106168469D01*
X175463769Y-106162141D01*
X175511388Y-106066903D01*
X175512049Y-106064487D01*
X175512861Y-106063676D01*
X175514424Y-106055814D01*
X175516541Y-106048087D01*
X175516178Y-106046998D01*
X175516667Y-106044542D01*
X175516667Y-105758828D01*
X175516178Y-105756371D01*
X175516541Y-105755283D01*
X175514424Y-105747555D01*
X175512861Y-105739694D01*
X175512049Y-105738882D01*
X175511388Y-105736467D01*
X175463769Y-105641229D01*
X175458857Y-105634900D01*
X175454403Y-105628234D01*
X175406784Y-105580616D01*
X175400122Y-105576164D01*
X175393789Y-105571249D01*
X175387995Y-105568352D01*
X175845238Y-105568352D01*
X175845238Y-106235019D01*
X175849044Y-106254153D01*
X175876104Y-106281213D01*
X175914372Y-106281213D01*
X175941432Y-106254153D01*
X175945238Y-106235019D01*
X175945238Y-105568352D01*
X175941432Y-105549218D01*
X176182378Y-105549218D01*
X176182378Y-105587486D01*
X176209438Y-105614546D01*
X176228572Y-105618352D01*
X176312007Y-105618352D01*
X176389430Y-105657063D01*
X176425574Y-105693208D01*
X176464286Y-105770631D01*
X176464286Y-106235019D01*
X176468092Y-106254153D01*
X176495152Y-106281213D01*
X176533420Y-106281213D01*
X176560480Y-106254153D01*
X176564286Y-106235019D01*
X176564286Y-105901685D01*
X176892858Y-105901685D01*
X176892858Y-106044542D01*
X176893346Y-106046998D01*
X176892984Y-106048087D01*
X176895100Y-106055814D01*
X176896664Y-106063676D01*
X176897475Y-106064487D01*
X176898137Y-106066903D01*
X176945755Y-106162140D01*
X176950666Y-106168468D01*
X176955121Y-106175135D01*
X177002740Y-106222755D01*
X177009406Y-106227209D01*
X177015735Y-106232121D01*
X177110973Y-106279740D01*
X177113388Y-106280401D01*
X177114200Y-106281213D01*
X177122061Y-106282776D01*
X177129789Y-106284893D01*
X177130877Y-106284530D01*
X177133334Y-106285019D01*
X177514286Y-106285019D01*
X177533420Y-106281213D01*
X177560480Y-106254153D01*
X177564286Y-106235019D01*
X177564286Y-105834932D01*
X177944283Y-105834932D01*
X177944283Y-105873200D01*
X177971343Y-105900260D01*
X177990477Y-105904066D01*
X178752381Y-105904066D01*
X178771515Y-105900260D01*
X178798575Y-105873200D01*
X178798575Y-105834932D01*
X178771515Y-105807872D01*
X178752381Y-105804066D01*
X177990477Y-105804066D01*
X177971343Y-105807872D01*
X177944283Y-105834932D01*
X177564286Y-105834932D01*
X177564286Y-105235019D01*
X179178572Y-105235019D01*
X179178572Y-106235019D01*
X179182378Y-106254153D01*
X179209438Y-106281213D01*
X179247706Y-106281213D01*
X179274766Y-106254153D01*
X179278572Y-106235019D01*
X179278572Y-105761209D01*
X179750000Y-105761209D01*
X179750000Y-106235019D01*
X179753806Y-106254153D01*
X179780866Y-106281213D01*
X179819134Y-106281213D01*
X179846194Y-106254153D01*
X179850000Y-106235019D01*
X179850000Y-105235019D01*
X179846194Y-105215885D01*
X179819134Y-105188825D01*
X179780866Y-105188825D01*
X179753806Y-105215885D01*
X179750000Y-105235019D01*
X179750000Y-105661209D01*
X179278572Y-105661209D01*
X179278572Y-105235019D01*
X179274766Y-105215885D01*
X179247706Y-105188825D01*
X179209438Y-105188825D01*
X179182378Y-105215885D01*
X179178572Y-105235019D01*
X177564286Y-105235019D01*
X177560480Y-105215885D01*
X177533420Y-105188825D01*
X177514286Y-105185019D01*
X177180953Y-105185019D01*
X177178496Y-105185507D01*
X177177408Y-105185145D01*
X177169680Y-105187261D01*
X177161819Y-105188825D01*
X177161007Y-105189636D01*
X177158592Y-105190298D01*
X177063354Y-105237917D01*
X177057025Y-105242828D01*
X177050359Y-105247283D01*
X177002741Y-105294902D01*
X176998289Y-105301563D01*
X176993374Y-105307897D01*
X176945756Y-105403134D01*
X176945094Y-105405549D01*
X176944283Y-105406361D01*
X176942719Y-105414222D01*
X176940603Y-105421950D01*
X176940965Y-105423038D01*
X176940477Y-105425495D01*
X176940477Y-105520733D01*
X176940965Y-105523189D01*
X176940603Y-105524278D01*
X176942719Y-105532005D01*
X176944283Y-105539867D01*
X176945094Y-105540678D01*
X176945756Y-105543094D01*
X176993374Y-105638331D01*
X176998289Y-105644664D01*
X177002741Y-105651326D01*
X177050359Y-105698945D01*
X177053445Y-105701007D01*
X177022285Y-105711394D01*
X177020110Y-105712634D01*
X177018961Y-105712634D01*
X177012294Y-105717088D01*
X177005336Y-105721055D01*
X177004822Y-105722081D01*
X177002740Y-105723473D01*
X176955122Y-105771092D01*
X176950670Y-105777753D01*
X176945755Y-105784087D01*
X176898137Y-105879324D01*
X176897475Y-105881739D01*
X176896664Y-105882551D01*
X176895100Y-105890412D01*
X176892984Y-105898140D01*
X176893346Y-105899228D01*
X176892858Y-105901685D01*
X176564286Y-105901685D01*
X176564286Y-105568352D01*
X176560480Y-105549218D01*
X176533420Y-105522158D01*
X176495152Y-105522158D01*
X176468092Y-105549218D01*
X176464286Y-105568352D01*
X176464286Y-105590498D01*
X176454403Y-105580616D01*
X176447741Y-105576164D01*
X176441408Y-105571249D01*
X176346171Y-105523631D01*
X176343755Y-105522969D01*
X176342944Y-105522158D01*
X176335082Y-105520594D01*
X176327355Y-105518478D01*
X176326266Y-105518840D01*
X176323810Y-105518352D01*
X176228572Y-105518352D01*
X176209438Y-105522158D01*
X176182378Y-105549218D01*
X175941432Y-105549218D01*
X175914372Y-105522158D01*
X175876104Y-105522158D01*
X175849044Y-105549218D01*
X175845238Y-105568352D01*
X175387995Y-105568352D01*
X175298552Y-105523631D01*
X175296136Y-105522969D01*
X175295325Y-105522158D01*
X175287463Y-105520594D01*
X175279736Y-105518478D01*
X175278647Y-105518840D01*
X175276191Y-105518352D01*
X175085715Y-105518352D01*
X175083258Y-105518840D01*
X175082170Y-105518478D01*
X175074442Y-105520594D01*
X175066581Y-105522158D01*
X175065769Y-105522969D01*
X175063354Y-105523631D01*
X175040477Y-105535069D01*
X175040477Y-105263504D01*
X175801425Y-105263504D01*
X175801425Y-105301772D01*
X175812264Y-105317993D01*
X175859882Y-105365612D01*
X175876103Y-105376451D01*
X175876104Y-105376451D01*
X175914372Y-105376451D01*
X175930593Y-105365612D01*
X175978212Y-105317994D01*
X175989051Y-105301773D01*
X175989051Y-105263504D01*
X175989051Y-105263503D01*
X175978212Y-105247282D01*
X175930593Y-105199664D01*
X175914372Y-105188825D01*
X175876103Y-105188825D01*
X175859882Y-105199664D01*
X175812264Y-105247283D01*
X175801426Y-105263503D01*
X175801425Y-105263504D01*
X175040477Y-105263504D01*
X175040477Y-105235019D01*
X175036671Y-105215885D01*
X175009611Y-105188825D01*
X174971343Y-105188825D01*
X174944283Y-105215885D01*
X174940477Y-105235019D01*
X171959423Y-105235019D01*
X171869980Y-105190298D01*
X171867564Y-105189636D01*
X171866753Y-105188825D01*
X171858891Y-105187261D01*
X171851164Y-105185145D01*
X171850075Y-105185507D01*
X171847619Y-105185019D01*
X171752381Y-105185019D01*
X171733247Y-105188825D01*
X171706187Y-105215885D01*
X169179526Y-105215885D01*
X169152466Y-105188825D01*
X169133332Y-105185019D01*
X168657142Y-105185019D01*
X168638008Y-105188825D01*
X168610948Y-105215885D01*
X167423003Y-105215885D01*
X167406782Y-105199664D01*
X167390561Y-105188825D01*
X167352292Y-105188825D01*
X167336071Y-105199664D01*
X167288453Y-105247283D01*
X167277615Y-105263503D01*
X167277614Y-105263504D01*
X165564284Y-105263504D01*
X165564284Y-105235019D01*
X165560478Y-105215885D01*
X165533418Y-105188825D01*
X165495150Y-105188825D01*
X165468090Y-105215885D01*
X165464284Y-105235019D01*
X165464284Y-106080357D01*
X165429397Y-106150132D01*
X165349066Y-106190298D01*
X165333654Y-106202259D01*
X165321553Y-106238564D01*
X165039769Y-106238564D01*
X165040474Y-106235019D01*
X165040474Y-105568352D01*
X165036668Y-105549218D01*
X165009608Y-105522158D01*
X164971340Y-105522158D01*
X164944280Y-105549218D01*
X164940474Y-105568352D01*
X164483231Y-105568352D01*
X164393788Y-105523631D01*
X164391372Y-105522969D01*
X164390561Y-105522158D01*
X164382699Y-105520594D01*
X164374972Y-105518478D01*
X164373883Y-105518840D01*
X164371427Y-105518352D01*
X164180951Y-105518352D01*
X164178494Y-105518840D01*
X164177406Y-105518478D01*
X164169678Y-105520594D01*
X164161817Y-105522158D01*
X164161005Y-105522969D01*
X164158590Y-105523631D01*
X164123743Y-105541054D01*
X164104847Y-105522158D01*
X164066579Y-105522158D01*
X164039519Y-105549218D01*
X164035713Y-105568352D01*
X163659522Y-105568352D01*
X163659522Y-105263504D01*
X164896661Y-105263504D01*
X164896661Y-105301772D01*
X164907500Y-105317993D01*
X164955118Y-105365612D01*
X164971339Y-105376451D01*
X164971340Y-105376451D01*
X165009608Y-105376451D01*
X165025829Y-105365612D01*
X165073448Y-105317994D01*
X165084287Y-105301773D01*
X165084287Y-105263504D01*
X165084287Y-105263503D01*
X165073448Y-105247282D01*
X165025829Y-105199664D01*
X165009608Y-105188825D01*
X164971339Y-105188825D01*
X164955118Y-105199664D01*
X164907500Y-105247283D01*
X164896662Y-105263503D01*
X164896661Y-105263504D01*
X163659522Y-105263504D01*
X163659522Y-105235019D01*
X163655716Y-105215885D01*
X163628656Y-105188825D01*
X163590388Y-105188825D01*
X163563328Y-105215885D01*
X163559522Y-105235019D01*
X163559522Y-105558878D01*
X163489026Y-105523631D01*
X163486610Y-105522969D01*
X163485799Y-105522158D01*
X163477937Y-105520594D01*
X163470210Y-105518478D01*
X163469121Y-105518840D01*
X163466665Y-105518352D01*
X163323808Y-105518352D01*
X163321351Y-105518840D01*
X163320263Y-105518478D01*
X163312535Y-105520594D01*
X163304674Y-105522158D01*
X163303862Y-105522969D01*
X163301447Y-105523631D01*
X163206209Y-105571250D01*
X163198343Y-105577354D01*
X163195810Y-105578199D01*
X163193620Y-105581019D01*
X163190797Y-105583211D01*
X163189951Y-105585746D01*
X163183848Y-105593611D01*
X163136230Y-105688848D01*
X163135568Y-105691263D01*
X163134757Y-105692075D01*
X163133193Y-105699936D01*
X163131077Y-105707664D01*
X163131439Y-105708752D01*
X163130951Y-105711209D01*
X162754760Y-105711209D01*
X162754760Y-105618352D01*
X162847617Y-105618352D01*
X162866751Y-105614546D01*
X162893811Y-105587486D01*
X162893811Y-105549218D01*
X162866751Y-105522158D01*
X162847617Y-105518352D01*
X162754760Y-105518352D01*
X162754760Y-105235019D01*
X162750954Y-105215885D01*
X162723894Y-105188825D01*
X162685626Y-105188825D01*
X162658566Y-105215885D01*
X162654760Y-105235019D01*
X162654760Y-105518352D01*
X162466665Y-105518352D01*
X162447531Y-105522158D01*
X162420471Y-105549218D01*
X162111629Y-105549218D01*
X162060454Y-105523631D01*
X162058038Y-105522969D01*
X162057227Y-105522158D01*
X162049365Y-105520594D01*
X162041638Y-105518478D01*
X162040549Y-105518840D01*
X162038093Y-105518352D01*
X161895236Y-105518352D01*
X161892779Y-105518840D01*
X161891691Y-105518478D01*
X161883963Y-105520594D01*
X161876102Y-105522158D01*
X161875290Y-105522969D01*
X161872875Y-105523631D01*
X161777637Y-105571250D01*
X161762225Y-105583211D01*
X161750124Y-105619516D01*
X161767238Y-105653744D01*
X161803543Y-105665845D01*
X161822359Y-105660692D01*
X161907040Y-105618352D01*
X162026290Y-105618352D01*
X162096063Y-105653238D01*
X162130950Y-105723012D01*
X162130950Y-105747024D01*
X162096063Y-105816798D01*
X162026290Y-105851685D01*
X161895236Y-105851685D01*
X161892779Y-105852173D01*
X161891691Y-105851811D01*
X161883963Y-105853927D01*
X161876102Y-105855491D01*
X161875290Y-105856302D01*
X161872875Y-105856964D01*
X161777637Y-105904583D01*
X161769771Y-105910687D01*
X161767238Y-105911532D01*
X161765048Y-105914352D01*
X161762225Y-105916544D01*
X161761379Y-105919079D01*
X161755276Y-105926944D01*
X161707658Y-106022181D01*
X161706996Y-106024596D01*
X161706185Y-106025408D01*
X161704621Y-106033269D01*
X161702505Y-106040997D01*
X161702867Y-106042085D01*
X161702379Y-106044542D01*
X161591268Y-106044542D01*
X161591268Y-105073908D01*
X179961111Y-105073908D01*
X179961111Y-106729463D01*
G37*
D10*
G36*
X174077554Y-92585101D02*
G01*
X174132757Y-92595744D01*
X174181967Y-92614471D01*
X174224926Y-92643108D01*
X174260003Y-92683714D01*
X174276204Y-92715943D01*
X174286780Y-92757158D01*
X174290655Y-92809621D01*
X174288579Y-92861400D01*
X174285099Y-92899136D01*
X173631871Y-92899136D01*
X173629795Y-92882405D01*
X173628391Y-92859324D01*
X173626987Y-92836243D01*
X173626315Y-92818047D01*
X173630086Y-92764574D01*
X173640409Y-92722159D01*
X173656235Y-92688660D01*
X173691134Y-92646285D01*
X173734942Y-92616608D01*
X173785936Y-92597254D01*
X173844973Y-92585833D01*
X173967522Y-92578811D01*
X174077554Y-92585101D01*
G37*
G36*
X174077554Y-91745882D02*
G01*
X174132757Y-91756526D01*
X174181967Y-91775252D01*
X174224926Y-91803890D01*
X174260003Y-91844495D01*
X174276204Y-91876725D01*
X174286780Y-91917940D01*
X174290655Y-91970403D01*
X174288579Y-92022182D01*
X174285099Y-92059918D01*
X173631871Y-92059918D01*
X173629795Y-92043187D01*
X173628391Y-92020106D01*
X173626987Y-91997025D01*
X173626315Y-91978829D01*
X173630086Y-91925356D01*
X173640409Y-91882941D01*
X173656235Y-91849441D01*
X173691134Y-91807067D01*
X173734942Y-91777390D01*
X173785936Y-91758036D01*
X173844973Y-91746615D01*
X173967522Y-91739593D01*
X174077554Y-91745882D01*
G37*
G36*
X174573713Y-94098532D02*
G01*
X173343257Y-94098532D01*
X173343257Y-93467001D01*
X173470000Y-93467001D01*
X173470000Y-93685232D01*
X174450879Y-93987421D01*
X174450879Y-93773342D01*
X173731645Y-93571903D01*
X173731645Y-93564881D01*
X174450879Y-93371868D01*
X174450879Y-93173176D01*
X173470000Y-93467001D01*
X173343257Y-93467001D01*
X173343257Y-92840396D01*
X173454368Y-92840396D01*
X173455772Y-92897793D01*
X173459314Y-92969112D01*
X173463466Y-93039087D01*
X173468351Y-93090806D01*
X174448620Y-93090806D01*
X174452772Y-93046781D01*
X174457657Y-92975401D01*
X174461198Y-92892908D01*
X174462602Y-92816643D01*
X174457887Y-92730318D01*
X174444849Y-92659338D01*
X174424806Y-92601221D01*
X174395766Y-92547208D01*
X174361087Y-92502578D01*
X174320636Y-92466215D01*
X174274526Y-92436848D01*
X174222589Y-92413707D01*
X174164016Y-92396912D01*
X174071570Y-92382388D01*
X173967583Y-92377311D01*
X173871898Y-92382237D01*
X173778784Y-92396912D01*
X173718825Y-92413718D01*
X173664265Y-92437271D01*
X173614469Y-92467559D01*
X173570376Y-92505130D01*
X173531729Y-92551826D01*
X173498393Y-92608853D01*
X173475070Y-92670616D01*
X173459879Y-92746807D01*
X173455684Y-92818047D01*
X173454368Y-92840396D01*
X173343257Y-92840396D01*
X173343257Y-92001177D01*
X173454368Y-92001177D01*
X173455772Y-92058574D01*
X173459314Y-92129893D01*
X173463466Y-92199869D01*
X173468351Y-92251587D01*
X174448620Y-92251587D01*
X174452772Y-92207562D01*
X174457657Y-92136182D01*
X174461198Y-92053689D01*
X174462602Y-91977424D01*
X174457887Y-91891100D01*
X174444849Y-91820119D01*
X174424806Y-91762002D01*
X174395766Y-91707990D01*
X174361087Y-91663360D01*
X174320636Y-91626997D01*
X174274526Y-91597630D01*
X174222589Y-91574488D01*
X174164016Y-91557693D01*
X174071570Y-91543170D01*
X173967583Y-91538093D01*
X173871898Y-91543019D01*
X173778784Y-91557693D01*
X173718825Y-91574500D01*
X173664265Y-91598053D01*
X173614469Y-91628340D01*
X173570376Y-91665912D01*
X173531729Y-91712608D01*
X173498393Y-91769635D01*
X173475070Y-91831398D01*
X173459879Y-91907588D01*
X173455684Y-91978829D01*
X173454368Y-92001177D01*
X173343257Y-92001177D01*
X173343257Y-91426982D01*
X174573713Y-91426982D01*
X174573713Y-94098532D01*
G37*
G36*
X170306532Y-93515386D02*
G01*
X170338155Y-93528518D01*
X170363826Y-93549924D01*
X170382339Y-93578073D01*
X170394371Y-93615390D01*
X170398813Y-93664596D01*
X170397409Y-93722665D01*
X170391975Y-93766751D01*
X170113538Y-93766751D01*
X170113538Y-93691158D01*
X170117886Y-93639054D01*
X170130031Y-93596301D01*
X170149197Y-93561098D01*
X170176695Y-93534085D01*
X170214792Y-93517021D01*
X170267167Y-93510723D01*
X170306532Y-93515386D01*
G37*
G36*
X170685779Y-94069470D02*
G01*
X169150508Y-94069470D01*
X169150508Y-93454730D01*
X169578158Y-93454730D01*
X169961130Y-93652018D01*
X169961130Y-93691158D01*
X169961130Y-93766751D01*
X169578158Y-93766751D01*
X169578158Y-93958359D01*
X170547008Y-93958359D01*
X170557449Y-93889116D01*
X170565143Y-93814989D01*
X170569356Y-93742937D01*
X170570760Y-93678579D01*
X170567438Y-93610444D01*
X170557510Y-93543574D01*
X170539274Y-93479933D01*
X170512142Y-93424689D01*
X170474610Y-93377552D01*
X170425680Y-93340730D01*
X170388157Y-93323795D01*
X170343544Y-93313050D01*
X170290370Y-93309223D01*
X170232480Y-93312420D01*
X170186383Y-93321130D01*
X170144402Y-93335598D01*
X170108958Y-93354041D01*
X170077693Y-93377331D01*
X170051073Y-93405088D01*
X170007170Y-93470118D01*
X169578158Y-93233691D01*
X169578158Y-93454730D01*
X169150508Y-93454730D01*
X169150508Y-93096793D01*
X169261619Y-93096793D01*
X169414026Y-93096793D01*
X169414026Y-92475622D01*
X169261619Y-92475622D01*
X169261619Y-93096793D01*
X169150508Y-93096793D01*
X169150508Y-92284136D01*
X169578158Y-92284136D01*
X169730565Y-92284136D01*
X169730565Y-92037939D01*
X170125261Y-92037939D01*
X170125261Y-92284136D01*
X170277669Y-92284136D01*
X170277669Y-91949767D01*
X170367550Y-91949767D01*
X170371098Y-91987009D01*
X170380880Y-92016288D01*
X170396249Y-92039343D01*
X170417170Y-92057223D01*
X170441306Y-92067852D01*
X170469705Y-92071522D01*
X170497289Y-92067934D01*
X170521729Y-92057369D01*
X170543894Y-92039343D01*
X170560459Y-92016127D01*
X170570901Y-91986844D01*
X170574668Y-91949767D01*
X170570936Y-91911733D01*
X170560509Y-91881007D01*
X170543894Y-91856039D01*
X170521527Y-91836306D01*
X170497099Y-91824896D01*
X170469705Y-91821051D01*
X170441508Y-91824981D01*
X170417377Y-91836457D01*
X170396249Y-91856039D01*
X170380826Y-91880852D01*
X170371062Y-91911579D01*
X170367550Y-91949767D01*
X170277669Y-91949767D01*
X170277669Y-91856039D01*
X169730565Y-91856039D01*
X169730565Y-91597203D01*
X169578158Y-91597203D01*
X169578158Y-92284136D01*
X169150508Y-92284136D01*
X169150508Y-90939884D01*
X169578158Y-90939884D01*
X169975907Y-90939884D01*
X170031613Y-90944946D01*
X170071319Y-90958301D01*
X170099127Y-90978352D01*
X170120010Y-91005983D01*
X170132607Y-91037955D01*
X170136985Y-91075561D01*
X170129476Y-91125015D01*
X170106882Y-91170022D01*
X170072642Y-91206234D01*
X170031961Y-91228091D01*
X169578158Y-91228091D01*
X169578158Y-91409929D01*
X170125261Y-91409929D01*
X170125261Y-91510680D01*
X170277669Y-91510680D01*
X170277669Y-91265826D01*
X170185284Y-91244882D01*
X170185284Y-91239265D01*
X170226139Y-91201394D01*
X170263625Y-91146941D01*
X170281820Y-91105593D01*
X170293206Y-91057969D01*
X170297208Y-91002838D01*
X170293639Y-90952138D01*
X170283226Y-90905629D01*
X170264567Y-90863253D01*
X170237064Y-90827960D01*
X170200500Y-90799924D01*
X170149625Y-90776913D01*
X170090831Y-90763135D01*
X170013215Y-90757984D01*
X169578158Y-90757984D01*
X169578158Y-90939884D01*
X169150508Y-90939884D01*
X169150508Y-90646873D01*
X170685779Y-90646873D01*
X170685779Y-94069470D01*
G37*
D12*
X169990475Y-97562295D02*
X169990475Y-96762295D01*
X169990475Y-96762295D02*
X169799999Y-96762295D01*
X169799999Y-96762295D02*
X169685713Y-96800390D01*
X169685713Y-96800390D02*
X169609523Y-96876580D01*
X169609523Y-96876580D02*
X169571428Y-96952771D01*
X169571428Y-96952771D02*
X169533332Y-97105152D01*
X169533332Y-97105152D02*
X169533332Y-97219438D01*
X169533332Y-97219438D02*
X169571428Y-97371819D01*
X169571428Y-97371819D02*
X169609523Y-97448009D01*
X169609523Y-97448009D02*
X169685713Y-97524200D01*
X169685713Y-97524200D02*
X169799999Y-97562295D01*
X169799999Y-97562295D02*
X169990475Y-97562295D01*
X168771428Y-97562295D02*
X169228571Y-97562295D01*
X168999999Y-97562295D02*
X168999999Y-96762295D01*
X168999999Y-96762295D02*
X169076190Y-96876580D01*
X169076190Y-96876580D02*
X169152380Y-96952771D01*
X169152380Y-96952771D02*
X169228571Y-96990866D01*
X176133332Y-91486104D02*
X176171428Y-91524200D01*
X176171428Y-91524200D02*
X176285713Y-91562295D01*
X176285713Y-91562295D02*
X176361904Y-91562295D01*
X176361904Y-91562295D02*
X176476190Y-91524200D01*
X176476190Y-91524200D02*
X176552380Y-91448009D01*
X176552380Y-91448009D02*
X176590475Y-91371819D01*
X176590475Y-91371819D02*
X176628571Y-91219438D01*
X176628571Y-91219438D02*
X176628571Y-91105152D01*
X176628571Y-91105152D02*
X176590475Y-90952771D01*
X176590475Y-90952771D02*
X176552380Y-90876580D01*
X176552380Y-90876580D02*
X176476190Y-90800390D01*
X176476190Y-90800390D02*
X176361904Y-90762295D01*
X176361904Y-90762295D02*
X176285713Y-90762295D01*
X176285713Y-90762295D02*
X176171428Y-90800390D01*
X176171428Y-90800390D02*
X176133332Y-90838485D01*
X175409523Y-90762295D02*
X175790475Y-90762295D01*
X175790475Y-90762295D02*
X175828571Y-91143247D01*
X175828571Y-91143247D02*
X175790475Y-91105152D01*
X175790475Y-91105152D02*
X175714285Y-91067057D01*
X175714285Y-91067057D02*
X175523809Y-91067057D01*
X175523809Y-91067057D02*
X175447618Y-91105152D01*
X175447618Y-91105152D02*
X175409523Y-91143247D01*
X175409523Y-91143247D02*
X175371428Y-91219438D01*
X175371428Y-91219438D02*
X175371428Y-91409914D01*
X175371428Y-91409914D02*
X175409523Y-91486104D01*
X175409523Y-91486104D02*
X175447618Y-91524200D01*
X175447618Y-91524200D02*
X175523809Y-91562295D01*
X175523809Y-91562295D02*
X175714285Y-91562295D01*
X175714285Y-91562295D02*
X175790475Y-91524200D01*
X175790475Y-91524200D02*
X175828571Y-91486104D01*
X172790475Y-97562295D02*
X172790475Y-96762295D01*
X172790475Y-96762295D02*
X172599999Y-96762295D01*
X172599999Y-96762295D02*
X172485713Y-96800390D01*
X172485713Y-96800390D02*
X172409523Y-96876580D01*
X172409523Y-96876580D02*
X172371428Y-96952771D01*
X172371428Y-96952771D02*
X172333332Y-97105152D01*
X172333332Y-97105152D02*
X172333332Y-97219438D01*
X172333332Y-97219438D02*
X172371428Y-97371819D01*
X172371428Y-97371819D02*
X172409523Y-97448009D01*
X172409523Y-97448009D02*
X172485713Y-97524200D01*
X172485713Y-97524200D02*
X172599999Y-97562295D01*
X172599999Y-97562295D02*
X172790475Y-97562295D01*
X172028571Y-96838485D02*
X171990475Y-96800390D01*
X171990475Y-96800390D02*
X171914285Y-96762295D01*
X171914285Y-96762295D02*
X171723809Y-96762295D01*
X171723809Y-96762295D02*
X171647618Y-96800390D01*
X171647618Y-96800390D02*
X171609523Y-96838485D01*
X171609523Y-96838485D02*
X171571428Y-96914676D01*
X171571428Y-96914676D02*
X171571428Y-96990866D01*
X171571428Y-96990866D02*
X171609523Y-97105152D01*
X171609523Y-97105152D02*
X172066666Y-97562295D01*
X172066666Y-97562295D02*
X171571428Y-97562295D01*
X162590475Y-99962295D02*
X162590475Y-99162295D01*
X162590475Y-99162295D02*
X162399999Y-99162295D01*
X162399999Y-99162295D02*
X162285713Y-99200390D01*
X162285713Y-99200390D02*
X162209523Y-99276580D01*
X162209523Y-99276580D02*
X162171428Y-99352771D01*
X162171428Y-99352771D02*
X162133332Y-99505152D01*
X162133332Y-99505152D02*
X162133332Y-99619438D01*
X162133332Y-99619438D02*
X162171428Y-99771819D01*
X162171428Y-99771819D02*
X162209523Y-99848009D01*
X162209523Y-99848009D02*
X162285713Y-99924200D01*
X162285713Y-99924200D02*
X162399999Y-99962295D01*
X162399999Y-99962295D02*
X162590475Y-99962295D01*
X161866666Y-99162295D02*
X161371428Y-99162295D01*
X161371428Y-99162295D02*
X161638094Y-99467057D01*
X161638094Y-99467057D02*
X161523809Y-99467057D01*
X161523809Y-99467057D02*
X161447618Y-99505152D01*
X161447618Y-99505152D02*
X161409523Y-99543247D01*
X161409523Y-99543247D02*
X161371428Y-99619438D01*
X161371428Y-99619438D02*
X161371428Y-99809914D01*
X161371428Y-99809914D02*
X161409523Y-99886104D01*
X161409523Y-99886104D02*
X161447618Y-99924200D01*
X161447618Y-99924200D02*
X161523809Y-99962295D01*
X161523809Y-99962295D02*
X161752380Y-99962295D01*
X161752380Y-99962295D02*
X161828571Y-99924200D01*
X161828571Y-99924200D02*
X161866666Y-99886104D01*
X180390475Y-99962295D02*
X180390475Y-99162295D01*
X180390475Y-99162295D02*
X180199999Y-99162295D01*
X180199999Y-99162295D02*
X180085713Y-99200390D01*
X180085713Y-99200390D02*
X180009523Y-99276580D01*
X180009523Y-99276580D02*
X179971428Y-99352771D01*
X179971428Y-99352771D02*
X179933332Y-99505152D01*
X179933332Y-99505152D02*
X179933332Y-99619438D01*
X179933332Y-99619438D02*
X179971428Y-99771819D01*
X179971428Y-99771819D02*
X180009523Y-99848009D01*
X180009523Y-99848009D02*
X180085713Y-99924200D01*
X180085713Y-99924200D02*
X180199999Y-99962295D01*
X180199999Y-99962295D02*
X180390475Y-99962295D01*
X179247618Y-99428961D02*
X179247618Y-99962295D01*
X179438094Y-99124200D02*
X179628571Y-99695628D01*
X179628571Y-99695628D02*
X179133332Y-99695628D01*
D13*
G04 #@! TO.C,D1*
X165050000Y-96102600D02*
X165050000Y-101612600D01*
X165050000Y-96102600D02*
X168350000Y-96102600D01*
X168350000Y-96102600D02*
X168350000Y-101612600D01*
G04 #@! TO.C,C5*
X175258593Y-94159645D02*
X175258593Y-93637141D01*
X176728593Y-94159645D02*
X176728593Y-93637141D01*
G04 #@! TO.C,D2*
X173300000Y-96102600D02*
X173300000Y-101612600D01*
X173300000Y-96102600D02*
X176600000Y-96102600D01*
X176600000Y-96102600D02*
X176600000Y-101612600D01*
G04 #@! TO.C,D3*
X157642127Y-100842500D02*
X157642127Y-95332500D01*
X160942127Y-100842500D02*
X157642127Y-100842500D01*
X160942127Y-100842500D02*
X160942127Y-95332500D01*
G04 #@! TO.C,D4*
X180845548Y-100842500D02*
X180845548Y-95332500D01*
X184145548Y-100842500D02*
X180845548Y-100842500D01*
X184145548Y-100842500D02*
X184145548Y-95332500D01*
G04 #@! TD*
%LPC*%
D14*
G04 #@! TO.C,Qr1*
X178950000Y-97908531D03*
D15*
X178950000Y-96638531D03*
X178950000Y-95368531D03*
G04 #@! TD*
D16*
G04 #@! TO.C,J2*
X169800000Y-101200000D03*
D17*
X171800000Y-101200000D03*
G04 #@! TD*
D14*
G04 #@! TO.C,Ql1*
X163592127Y-97897589D03*
D15*
X163592127Y-96627589D03*
X163592127Y-95357589D03*
G04 #@! TD*
D18*
G04 #@! TO.C,J1*
X173895099Y-95117400D03*
X171895100Y-95117400D03*
X169895099Y-95117400D03*
X167895101Y-95117400D03*
G04 #@! TD*
D14*
G04 #@! TO.C,Qr2*
X178335548Y-101508531D03*
D15*
X178335548Y-102778531D03*
X178335548Y-104048531D03*
G04 #@! TD*
D14*
G04 #@! TO.C,Ql2*
X162862127Y-101427589D03*
D15*
X162862127Y-102697589D03*
X162862127Y-103967589D03*
G04 #@! TD*
D19*
G04 #@! TO.C,D1*
X166700000Y-97612600D03*
X166700000Y-101612600D03*
G04 #@! TD*
D20*
G04 #@! TO.C,C5*
X175993593Y-94935893D03*
X175993593Y-92860893D03*
G04 #@! TD*
D19*
G04 #@! TO.C,D2*
X174950000Y-97612600D03*
X174950000Y-101612600D03*
G04 #@! TD*
D21*
G04 #@! TO.C,D3*
X159292127Y-99332500D03*
X159292127Y-95332500D03*
G04 #@! TD*
G04 #@! TO.C,D4*
X182495548Y-99332500D03*
X182495548Y-95332500D03*
G04 #@! TD*
%LPD*%
M02*
