G04 #@! TF.GenerationSoftware,KiCad,Pcbnew,9.0.3*
G04 #@! TF.CreationDate,2025-07-12T20:29:23+02:00*
G04 #@! TF.ProjectId,npn-pnp-h-bridge,6e706e2d-706e-4702-9d68-2d6272696467,rev?*
G04 #@! TF.SameCoordinates,Original*
G04 #@! TF.FileFunction,Legend,Top*
G04 #@! TF.FilePolarity,Positive*
%FSLAX46Y46*%
G04 Gerber Fmt 4.6, Leading zero omitted, Abs format (unit mm)*
G04 Created by KiCad (PCBNEW 9.0.3) date 2025-07-12 20:29:23*
%MOMM*%
%LPD*%
G01*
G04 APERTURE LIST*
G04 Aperture macros list*
%AMRoundRect*
0 Rectangle with rounded corners*
0 $1 Rounding radius*
0 $2 $3 $4 $5 $6 $7 $8 $9 X,Y pos of 4 corners*
0 Add a 4 corners polygon primitive as box body*
4,1,4,$2,$3,$4,$5,$6,$7,$8,$9,$2,$3,0*
0 Add four circle primitives for the rounded corners*
1,1,$1+$1,$2,$3*
1,1,$1+$1,$4,$5*
1,1,$1+$1,$6,$7*
1,1,$1+$1,$8,$9*
0 Add four rect primitives between the rounded corners*
20,1,$1+$1,$2,$3,$4,$5,0*
20,1,$1+$1,$4,$5,$6,$7,0*
20,1,$1+$1,$6,$7,$8,$9,0*
20,1,$1+$1,$8,$9,$2,$3,0*%
G04 Aperture macros list end*
%ADD10C,0.150000*%
%ADD11C,0.120000*%
%ADD12C,0.100000*%
%ADD13C,0.152400*%
%ADD14RoundRect,0.250000X-0.475000X0.337500X-0.475000X-0.337500X0.475000X-0.337500X0.475000X0.337500X0*%
%ADD15R,1.500000X1.050000*%
%ADD16O,1.500000X1.050000*%
%ADD17RoundRect,0.250000X0.450000X-0.350000X0.450000X0.350000X-0.450000X0.350000X-0.450000X-0.350000X0*%
%ADD18RoundRect,0.250000X-0.350000X-0.450000X0.350000X-0.450000X0.350000X0.450000X-0.350000X0.450000X0*%
%ADD19RoundRect,0.250000X0.350000X0.450000X-0.350000X0.450000X-0.350000X-0.450000X0.350000X-0.450000X0*%
%ADD20R,1.300000X1.300000*%
%ADD21C,1.300000*%
%ADD22RoundRect,0.250000X-0.450000X0.350000X-0.450000X-0.350000X0.450000X-0.350000X0.450000X0.350000X0*%
%ADD23RoundRect,0.200000X-0.750000X-0.200000X0.750000X-0.200000X0.750000X0.200000X-0.750000X0.200000X0*%
%ADD24RoundRect,0.200000X0.750000X0.200000X-0.750000X0.200000X-0.750000X-0.200000X0.750000X-0.200000X0*%
%ADD25C,1.270000*%
G04 APERTURE END LIST*
D10*
X185366667Y-94186104D02*
X185328571Y-94224200D01*
X185328571Y-94224200D02*
X185214286Y-94262295D01*
X185214286Y-94262295D02*
X185138095Y-94262295D01*
X185138095Y-94262295D02*
X185023809Y-94224200D01*
X185023809Y-94224200D02*
X184947619Y-94148009D01*
X184947619Y-94148009D02*
X184909524Y-94071819D01*
X184909524Y-94071819D02*
X184871428Y-93919438D01*
X184871428Y-93919438D02*
X184871428Y-93805152D01*
X184871428Y-93805152D02*
X184909524Y-93652771D01*
X184909524Y-93652771D02*
X184947619Y-93576580D01*
X184947619Y-93576580D02*
X185023809Y-93500390D01*
X185023809Y-93500390D02*
X185138095Y-93462295D01*
X185138095Y-93462295D02*
X185214286Y-93462295D01*
X185214286Y-93462295D02*
X185328571Y-93500390D01*
X185328571Y-93500390D02*
X185366667Y-93538485D01*
X185633333Y-93462295D02*
X186128571Y-93462295D01*
X186128571Y-93462295D02*
X185861905Y-93767057D01*
X185861905Y-93767057D02*
X185976190Y-93767057D01*
X185976190Y-93767057D02*
X186052381Y-93805152D01*
X186052381Y-93805152D02*
X186090476Y-93843247D01*
X186090476Y-93843247D02*
X186128571Y-93919438D01*
X186128571Y-93919438D02*
X186128571Y-94109914D01*
X186128571Y-94109914D02*
X186090476Y-94186104D01*
X186090476Y-94186104D02*
X186052381Y-94224200D01*
X186052381Y-94224200D02*
X185976190Y-94262295D01*
X185976190Y-94262295D02*
X185747619Y-94262295D01*
X185747619Y-94262295D02*
X185671428Y-94224200D01*
X185671428Y-94224200D02*
X185633333Y-94186104D01*
X175902380Y-99662657D02*
X175807142Y-99615038D01*
X175807142Y-99615038D02*
X175711904Y-99519800D01*
X175711904Y-99519800D02*
X175569047Y-99376942D01*
X175569047Y-99376942D02*
X175473809Y-99329323D01*
X175473809Y-99329323D02*
X175378571Y-99329323D01*
X175426190Y-99567419D02*
X175330952Y-99519800D01*
X175330952Y-99519800D02*
X175235714Y-99424561D01*
X175235714Y-99424561D02*
X175188095Y-99234085D01*
X175188095Y-99234085D02*
X175188095Y-98900752D01*
X175188095Y-98900752D02*
X175235714Y-98710276D01*
X175235714Y-98710276D02*
X175330952Y-98615038D01*
X175330952Y-98615038D02*
X175426190Y-98567419D01*
X175426190Y-98567419D02*
X175616666Y-98567419D01*
X175616666Y-98567419D02*
X175711904Y-98615038D01*
X175711904Y-98615038D02*
X175807142Y-98710276D01*
X175807142Y-98710276D02*
X175854761Y-98900752D01*
X175854761Y-98900752D02*
X175854761Y-99234085D01*
X175854761Y-99234085D02*
X175807142Y-99424561D01*
X175807142Y-99424561D02*
X175711904Y-99519800D01*
X175711904Y-99519800D02*
X175616666Y-99567419D01*
X175616666Y-99567419D02*
X175426190Y-99567419D01*
X176283333Y-99567419D02*
X176283333Y-98567419D01*
X176711904Y-99567419D02*
X176711904Y-99043609D01*
X176711904Y-99043609D02*
X176664285Y-98948371D01*
X176664285Y-98948371D02*
X176569047Y-98900752D01*
X176569047Y-98900752D02*
X176426190Y-98900752D01*
X176426190Y-98900752D02*
X176330952Y-98948371D01*
X176330952Y-98948371D02*
X176283333Y-98995990D01*
X177140476Y-98662657D02*
X177188095Y-98615038D01*
X177188095Y-98615038D02*
X177283333Y-98567419D01*
X177283333Y-98567419D02*
X177521428Y-98567419D01*
X177521428Y-98567419D02*
X177616666Y-98615038D01*
X177616666Y-98615038D02*
X177664285Y-98662657D01*
X177664285Y-98662657D02*
X177711904Y-98757895D01*
X177711904Y-98757895D02*
X177711904Y-98853133D01*
X177711904Y-98853133D02*
X177664285Y-98995990D01*
X177664285Y-98995990D02*
X177092857Y-99567419D01*
X177092857Y-99567419D02*
X177711904Y-99567419D01*
X159185714Y-106262295D02*
X158919047Y-105881342D01*
X158728571Y-106262295D02*
X158728571Y-105462295D01*
X158728571Y-105462295D02*
X159033333Y-105462295D01*
X159033333Y-105462295D02*
X159109523Y-105500390D01*
X159109523Y-105500390D02*
X159147618Y-105538485D01*
X159147618Y-105538485D02*
X159185714Y-105614676D01*
X159185714Y-105614676D02*
X159185714Y-105728961D01*
X159185714Y-105728961D02*
X159147618Y-105805152D01*
X159147618Y-105805152D02*
X159109523Y-105843247D01*
X159109523Y-105843247D02*
X159033333Y-105881342D01*
X159033333Y-105881342D02*
X158728571Y-105881342D01*
X159947618Y-106262295D02*
X159490475Y-106262295D01*
X159719047Y-106262295D02*
X159719047Y-105462295D01*
X159719047Y-105462295D02*
X159642856Y-105576580D01*
X159642856Y-105576580D02*
X159566666Y-105652771D01*
X159566666Y-105652771D02*
X159490475Y-105690866D01*
X160214285Y-105462295D02*
X160709523Y-105462295D01*
X160709523Y-105462295D02*
X160442857Y-105767057D01*
X160442857Y-105767057D02*
X160557142Y-105767057D01*
X160557142Y-105767057D02*
X160633333Y-105805152D01*
X160633333Y-105805152D02*
X160671428Y-105843247D01*
X160671428Y-105843247D02*
X160709523Y-105919438D01*
X160709523Y-105919438D02*
X160709523Y-106109914D01*
X160709523Y-106109914D02*
X160671428Y-106186104D01*
X160671428Y-106186104D02*
X160633333Y-106224200D01*
X160633333Y-106224200D02*
X160557142Y-106262295D01*
X160557142Y-106262295D02*
X160328571Y-106262295D01*
X160328571Y-106262295D02*
X160252380Y-106224200D01*
X160252380Y-106224200D02*
X160214285Y-106186104D01*
X188085714Y-102162295D02*
X187819047Y-101781342D01*
X187628571Y-102162295D02*
X187628571Y-101362295D01*
X187628571Y-101362295D02*
X187933333Y-101362295D01*
X187933333Y-101362295D02*
X188009523Y-101400390D01*
X188009523Y-101400390D02*
X188047618Y-101438485D01*
X188047618Y-101438485D02*
X188085714Y-101514676D01*
X188085714Y-101514676D02*
X188085714Y-101628961D01*
X188085714Y-101628961D02*
X188047618Y-101705152D01*
X188047618Y-101705152D02*
X188009523Y-101743247D01*
X188009523Y-101743247D02*
X187933333Y-101781342D01*
X187933333Y-101781342D02*
X187628571Y-101781342D01*
X188847618Y-102162295D02*
X188390475Y-102162295D01*
X188619047Y-102162295D02*
X188619047Y-101362295D01*
X188619047Y-101362295D02*
X188542856Y-101476580D01*
X188542856Y-101476580D02*
X188466666Y-101552771D01*
X188466666Y-101552771D02*
X188390475Y-101590866D01*
X189152380Y-101438485D02*
X189190476Y-101400390D01*
X189190476Y-101400390D02*
X189266666Y-101362295D01*
X189266666Y-101362295D02*
X189457142Y-101362295D01*
X189457142Y-101362295D02*
X189533333Y-101400390D01*
X189533333Y-101400390D02*
X189571428Y-101438485D01*
X189571428Y-101438485D02*
X189609523Y-101514676D01*
X189609523Y-101514676D02*
X189609523Y-101590866D01*
X189609523Y-101590866D02*
X189571428Y-101705152D01*
X189571428Y-101705152D02*
X189114285Y-102162295D01*
X189114285Y-102162295D02*
X189609523Y-102162295D01*
X152966667Y-96062295D02*
X152700000Y-95681342D01*
X152509524Y-96062295D02*
X152509524Y-95262295D01*
X152509524Y-95262295D02*
X152814286Y-95262295D01*
X152814286Y-95262295D02*
X152890476Y-95300390D01*
X152890476Y-95300390D02*
X152928571Y-95338485D01*
X152928571Y-95338485D02*
X152966667Y-95414676D01*
X152966667Y-95414676D02*
X152966667Y-95528961D01*
X152966667Y-95528961D02*
X152928571Y-95605152D01*
X152928571Y-95605152D02*
X152890476Y-95643247D01*
X152890476Y-95643247D02*
X152814286Y-95681342D01*
X152814286Y-95681342D02*
X152509524Y-95681342D01*
X153233333Y-95262295D02*
X153766667Y-95262295D01*
X153766667Y-95262295D02*
X153423809Y-96062295D01*
X152985714Y-101862295D02*
X152719047Y-101481342D01*
X152528571Y-101862295D02*
X152528571Y-101062295D01*
X152528571Y-101062295D02*
X152833333Y-101062295D01*
X152833333Y-101062295D02*
X152909523Y-101100390D01*
X152909523Y-101100390D02*
X152947618Y-101138485D01*
X152947618Y-101138485D02*
X152985714Y-101214676D01*
X152985714Y-101214676D02*
X152985714Y-101328961D01*
X152985714Y-101328961D02*
X152947618Y-101405152D01*
X152947618Y-101405152D02*
X152909523Y-101443247D01*
X152909523Y-101443247D02*
X152833333Y-101481342D01*
X152833333Y-101481342D02*
X152528571Y-101481342D01*
X153747618Y-101862295D02*
X153290475Y-101862295D01*
X153519047Y-101862295D02*
X153519047Y-101062295D01*
X153519047Y-101062295D02*
X153442856Y-101176580D01*
X153442856Y-101176580D02*
X153366666Y-101252771D01*
X153366666Y-101252771D02*
X153290475Y-101290866D01*
X154509523Y-101862295D02*
X154052380Y-101862295D01*
X154280952Y-101862295D02*
X154280952Y-101062295D01*
X154280952Y-101062295D02*
X154204761Y-101176580D01*
X154204761Y-101176580D02*
X154128571Y-101252771D01*
X154128571Y-101252771D02*
X154052380Y-101290866D01*
X172933333Y-98562295D02*
X172933333Y-99133723D01*
X172933333Y-99133723D02*
X172895238Y-99248009D01*
X172895238Y-99248009D02*
X172819047Y-99324200D01*
X172819047Y-99324200D02*
X172704762Y-99362295D01*
X172704762Y-99362295D02*
X172628571Y-99362295D01*
X173276190Y-98638485D02*
X173314286Y-98600390D01*
X173314286Y-98600390D02*
X173390476Y-98562295D01*
X173390476Y-98562295D02*
X173580952Y-98562295D01*
X173580952Y-98562295D02*
X173657143Y-98600390D01*
X173657143Y-98600390D02*
X173695238Y-98638485D01*
X173695238Y-98638485D02*
X173733333Y-98714676D01*
X173733333Y-98714676D02*
X173733333Y-98790866D01*
X173733333Y-98790866D02*
X173695238Y-98905152D01*
X173695238Y-98905152D02*
X173238095Y-99362295D01*
X173238095Y-99362295D02*
X173733333Y-99362295D01*
X189966667Y-94186104D02*
X189928571Y-94224200D01*
X189928571Y-94224200D02*
X189814286Y-94262295D01*
X189814286Y-94262295D02*
X189738095Y-94262295D01*
X189738095Y-94262295D02*
X189623809Y-94224200D01*
X189623809Y-94224200D02*
X189547619Y-94148009D01*
X189547619Y-94148009D02*
X189509524Y-94071819D01*
X189509524Y-94071819D02*
X189471428Y-93919438D01*
X189471428Y-93919438D02*
X189471428Y-93805152D01*
X189471428Y-93805152D02*
X189509524Y-93652771D01*
X189509524Y-93652771D02*
X189547619Y-93576580D01*
X189547619Y-93576580D02*
X189623809Y-93500390D01*
X189623809Y-93500390D02*
X189738095Y-93462295D01*
X189738095Y-93462295D02*
X189814286Y-93462295D01*
X189814286Y-93462295D02*
X189928571Y-93500390D01*
X189928571Y-93500390D02*
X189966667Y-93538485D01*
X190652381Y-93728961D02*
X190652381Y-94262295D01*
X190461905Y-93424200D02*
X190271428Y-93995628D01*
X190271428Y-93995628D02*
X190766667Y-93995628D01*
X158666667Y-94232295D02*
X158400000Y-93851342D01*
X158209524Y-94232295D02*
X158209524Y-93432295D01*
X158209524Y-93432295D02*
X158514286Y-93432295D01*
X158514286Y-93432295D02*
X158590476Y-93470390D01*
X158590476Y-93470390D02*
X158628571Y-93508485D01*
X158628571Y-93508485D02*
X158666667Y-93584676D01*
X158666667Y-93584676D02*
X158666667Y-93698961D01*
X158666667Y-93698961D02*
X158628571Y-93775152D01*
X158628571Y-93775152D02*
X158590476Y-93813247D01*
X158590476Y-93813247D02*
X158514286Y-93851342D01*
X158514286Y-93851342D02*
X158209524Y-93851342D01*
X158971428Y-93508485D02*
X159009524Y-93470390D01*
X159009524Y-93470390D02*
X159085714Y-93432295D01*
X159085714Y-93432295D02*
X159276190Y-93432295D01*
X159276190Y-93432295D02*
X159352381Y-93470390D01*
X159352381Y-93470390D02*
X159390476Y-93508485D01*
X159390476Y-93508485D02*
X159428571Y-93584676D01*
X159428571Y-93584676D02*
X159428571Y-93660866D01*
X159428571Y-93660866D02*
X159390476Y-93775152D01*
X159390476Y-93775152D02*
X158933333Y-94232295D01*
X158933333Y-94232295D02*
X159428571Y-94232295D01*
X181885714Y-106262295D02*
X181619047Y-105881342D01*
X181428571Y-106262295D02*
X181428571Y-105462295D01*
X181428571Y-105462295D02*
X181733333Y-105462295D01*
X181733333Y-105462295D02*
X181809523Y-105500390D01*
X181809523Y-105500390D02*
X181847618Y-105538485D01*
X181847618Y-105538485D02*
X181885714Y-105614676D01*
X181885714Y-105614676D02*
X181885714Y-105728961D01*
X181885714Y-105728961D02*
X181847618Y-105805152D01*
X181847618Y-105805152D02*
X181809523Y-105843247D01*
X181809523Y-105843247D02*
X181733333Y-105881342D01*
X181733333Y-105881342D02*
X181428571Y-105881342D01*
X182647618Y-106262295D02*
X182190475Y-106262295D01*
X182419047Y-106262295D02*
X182419047Y-105462295D01*
X182419047Y-105462295D02*
X182342856Y-105576580D01*
X182342856Y-105576580D02*
X182266666Y-105652771D01*
X182266666Y-105652771D02*
X182190475Y-105690866D01*
X183333333Y-105728961D02*
X183333333Y-106262295D01*
X183142857Y-105424200D02*
X182952380Y-105995628D01*
X182952380Y-105995628D02*
X183447619Y-105995628D01*
X165690557Y-100205223D02*
X165595319Y-100157604D01*
X165595319Y-100157604D02*
X165500081Y-100062366D01*
X165500081Y-100062366D02*
X165357224Y-99919508D01*
X165357224Y-99919508D02*
X165261986Y-99871889D01*
X165261986Y-99871889D02*
X165166748Y-99871889D01*
X165214367Y-100109985D02*
X165119129Y-100062366D01*
X165119129Y-100062366D02*
X165023891Y-99967127D01*
X165023891Y-99967127D02*
X164976272Y-99776651D01*
X164976272Y-99776651D02*
X164976272Y-99443318D01*
X164976272Y-99443318D02*
X165023891Y-99252842D01*
X165023891Y-99252842D02*
X165119129Y-99157604D01*
X165119129Y-99157604D02*
X165214367Y-99109985D01*
X165214367Y-99109985D02*
X165404843Y-99109985D01*
X165404843Y-99109985D02*
X165500081Y-99157604D01*
X165500081Y-99157604D02*
X165595319Y-99252842D01*
X165595319Y-99252842D02*
X165642938Y-99443318D01*
X165642938Y-99443318D02*
X165642938Y-99776651D01*
X165642938Y-99776651D02*
X165595319Y-99967127D01*
X165595319Y-99967127D02*
X165500081Y-100062366D01*
X165500081Y-100062366D02*
X165404843Y-100109985D01*
X165404843Y-100109985D02*
X165214367Y-100109985D01*
X166071510Y-100109985D02*
X166071510Y-99109985D01*
X166500081Y-100109985D02*
X166500081Y-99586175D01*
X166500081Y-99586175D02*
X166452462Y-99490937D01*
X166452462Y-99490937D02*
X166357224Y-99443318D01*
X166357224Y-99443318D02*
X166214367Y-99443318D01*
X166214367Y-99443318D02*
X166119129Y-99490937D01*
X166119129Y-99490937D02*
X166071510Y-99538556D01*
X167500081Y-100109985D02*
X166928653Y-100109985D01*
X167214367Y-100109985D02*
X167214367Y-99109985D01*
X167214367Y-99109985D02*
X167119129Y-99252842D01*
X167119129Y-99252842D02*
X167023891Y-99348080D01*
X167023891Y-99348080D02*
X166928653Y-99395699D01*
X188085714Y-96162295D02*
X187819047Y-95781342D01*
X187628571Y-96162295D02*
X187628571Y-95362295D01*
X187628571Y-95362295D02*
X187933333Y-95362295D01*
X187933333Y-95362295D02*
X188009523Y-95400390D01*
X188009523Y-95400390D02*
X188047618Y-95438485D01*
X188047618Y-95438485D02*
X188085714Y-95514676D01*
X188085714Y-95514676D02*
X188085714Y-95628961D01*
X188085714Y-95628961D02*
X188047618Y-95705152D01*
X188047618Y-95705152D02*
X188009523Y-95743247D01*
X188009523Y-95743247D02*
X187933333Y-95781342D01*
X187933333Y-95781342D02*
X187628571Y-95781342D01*
X188847618Y-96162295D02*
X188390475Y-96162295D01*
X188619047Y-96162295D02*
X188619047Y-95362295D01*
X188619047Y-95362295D02*
X188542856Y-95476580D01*
X188542856Y-95476580D02*
X188466666Y-95552771D01*
X188466666Y-95552771D02*
X188390475Y-95590866D01*
X189342857Y-95362295D02*
X189419047Y-95362295D01*
X189419047Y-95362295D02*
X189495238Y-95400390D01*
X189495238Y-95400390D02*
X189533333Y-95438485D01*
X189533333Y-95438485D02*
X189571428Y-95514676D01*
X189571428Y-95514676D02*
X189609523Y-95667057D01*
X189609523Y-95667057D02*
X189609523Y-95857533D01*
X189609523Y-95857533D02*
X189571428Y-96009914D01*
X189571428Y-96009914D02*
X189533333Y-96086104D01*
X189533333Y-96086104D02*
X189495238Y-96124200D01*
X189495238Y-96124200D02*
X189419047Y-96162295D01*
X189419047Y-96162295D02*
X189342857Y-96162295D01*
X189342857Y-96162295D02*
X189266666Y-96124200D01*
X189266666Y-96124200D02*
X189228571Y-96086104D01*
X189228571Y-96086104D02*
X189190476Y-96009914D01*
X189190476Y-96009914D02*
X189152380Y-95857533D01*
X189152380Y-95857533D02*
X189152380Y-95667057D01*
X189152380Y-95667057D02*
X189190476Y-95514676D01*
X189190476Y-95514676D02*
X189228571Y-95438485D01*
X189228571Y-95438485D02*
X189266666Y-95400390D01*
X189266666Y-95400390D02*
X189342857Y-95362295D01*
X183266667Y-94262295D02*
X183000000Y-93881342D01*
X182809524Y-94262295D02*
X182809524Y-93462295D01*
X182809524Y-93462295D02*
X183114286Y-93462295D01*
X183114286Y-93462295D02*
X183190476Y-93500390D01*
X183190476Y-93500390D02*
X183228571Y-93538485D01*
X183228571Y-93538485D02*
X183266667Y-93614676D01*
X183266667Y-93614676D02*
X183266667Y-93728961D01*
X183266667Y-93728961D02*
X183228571Y-93805152D01*
X183228571Y-93805152D02*
X183190476Y-93843247D01*
X183190476Y-93843247D02*
X183114286Y-93881342D01*
X183114286Y-93881342D02*
X182809524Y-93881342D01*
X183990476Y-93462295D02*
X183609524Y-93462295D01*
X183609524Y-93462295D02*
X183571428Y-93843247D01*
X183571428Y-93843247D02*
X183609524Y-93805152D01*
X183609524Y-93805152D02*
X183685714Y-93767057D01*
X183685714Y-93767057D02*
X183876190Y-93767057D01*
X183876190Y-93767057D02*
X183952381Y-93805152D01*
X183952381Y-93805152D02*
X183990476Y-93843247D01*
X183990476Y-93843247D02*
X184028571Y-93919438D01*
X184028571Y-93919438D02*
X184028571Y-94109914D01*
X184028571Y-94109914D02*
X183990476Y-94186104D01*
X183990476Y-94186104D02*
X183952381Y-94224200D01*
X183952381Y-94224200D02*
X183876190Y-94262295D01*
X183876190Y-94262295D02*
X183685714Y-94262295D01*
X183685714Y-94262295D02*
X183609524Y-94224200D01*
X183609524Y-94224200D02*
X183571428Y-94186104D01*
X159158794Y-100162295D02*
X158892127Y-99781342D01*
X158701651Y-100162295D02*
X158701651Y-99362295D01*
X158701651Y-99362295D02*
X159006413Y-99362295D01*
X159006413Y-99362295D02*
X159082603Y-99400390D01*
X159082603Y-99400390D02*
X159120698Y-99438485D01*
X159120698Y-99438485D02*
X159158794Y-99514676D01*
X159158794Y-99514676D02*
X159158794Y-99628961D01*
X159158794Y-99628961D02*
X159120698Y-99705152D01*
X159120698Y-99705152D02*
X159082603Y-99743247D01*
X159082603Y-99743247D02*
X159006413Y-99781342D01*
X159006413Y-99781342D02*
X158701651Y-99781342D01*
X159615936Y-99705152D02*
X159539746Y-99667057D01*
X159539746Y-99667057D02*
X159501651Y-99628961D01*
X159501651Y-99628961D02*
X159463555Y-99552771D01*
X159463555Y-99552771D02*
X159463555Y-99514676D01*
X159463555Y-99514676D02*
X159501651Y-99438485D01*
X159501651Y-99438485D02*
X159539746Y-99400390D01*
X159539746Y-99400390D02*
X159615936Y-99362295D01*
X159615936Y-99362295D02*
X159768317Y-99362295D01*
X159768317Y-99362295D02*
X159844508Y-99400390D01*
X159844508Y-99400390D02*
X159882603Y-99438485D01*
X159882603Y-99438485D02*
X159920698Y-99514676D01*
X159920698Y-99514676D02*
X159920698Y-99552771D01*
X159920698Y-99552771D02*
X159882603Y-99628961D01*
X159882603Y-99628961D02*
X159844508Y-99667057D01*
X159844508Y-99667057D02*
X159768317Y-99705152D01*
X159768317Y-99705152D02*
X159615936Y-99705152D01*
X159615936Y-99705152D02*
X159539746Y-99743247D01*
X159539746Y-99743247D02*
X159501651Y-99781342D01*
X159501651Y-99781342D02*
X159463555Y-99857533D01*
X159463555Y-99857533D02*
X159463555Y-100009914D01*
X159463555Y-100009914D02*
X159501651Y-100086104D01*
X159501651Y-100086104D02*
X159539746Y-100124200D01*
X159539746Y-100124200D02*
X159615936Y-100162295D01*
X159615936Y-100162295D02*
X159768317Y-100162295D01*
X159768317Y-100162295D02*
X159844508Y-100124200D01*
X159844508Y-100124200D02*
X159882603Y-100086104D01*
X159882603Y-100086104D02*
X159920698Y-100009914D01*
X159920698Y-100009914D02*
X159920698Y-99857533D01*
X159920698Y-99857533D02*
X159882603Y-99781342D01*
X159882603Y-99781342D02*
X159844508Y-99743247D01*
X159844508Y-99743247D02*
X159768317Y-99705152D01*
X157023809Y-100238485D02*
X156947619Y-100200390D01*
X156947619Y-100200390D02*
X156871428Y-100124200D01*
X156871428Y-100124200D02*
X156757142Y-100009914D01*
X156757142Y-100009914D02*
X156680952Y-99971819D01*
X156680952Y-99971819D02*
X156604761Y-99971819D01*
X156642857Y-100162295D02*
X156566666Y-100124200D01*
X156566666Y-100124200D02*
X156490476Y-100048009D01*
X156490476Y-100048009D02*
X156452380Y-99895628D01*
X156452380Y-99895628D02*
X156452380Y-99628961D01*
X156452380Y-99628961D02*
X156490476Y-99476580D01*
X156490476Y-99476580D02*
X156566666Y-99400390D01*
X156566666Y-99400390D02*
X156642857Y-99362295D01*
X156642857Y-99362295D02*
X156795238Y-99362295D01*
X156795238Y-99362295D02*
X156871428Y-99400390D01*
X156871428Y-99400390D02*
X156947619Y-99476580D01*
X156947619Y-99476580D02*
X156985714Y-99628961D01*
X156985714Y-99628961D02*
X156985714Y-99895628D01*
X156985714Y-99895628D02*
X156947619Y-100048009D01*
X156947619Y-100048009D02*
X156871428Y-100124200D01*
X156871428Y-100124200D02*
X156795238Y-100162295D01*
X156795238Y-100162295D02*
X156642857Y-100162295D01*
X157290475Y-99438485D02*
X157328571Y-99400390D01*
X157328571Y-99400390D02*
X157404761Y-99362295D01*
X157404761Y-99362295D02*
X157595237Y-99362295D01*
X157595237Y-99362295D02*
X157671428Y-99400390D01*
X157671428Y-99400390D02*
X157709523Y-99438485D01*
X157709523Y-99438485D02*
X157747618Y-99514676D01*
X157747618Y-99514676D02*
X157747618Y-99590866D01*
X157747618Y-99590866D02*
X157709523Y-99705152D01*
X157709523Y-99705152D02*
X157252380Y-100162295D01*
X157252380Y-100162295D02*
X157747618Y-100162295D01*
X179166667Y-93162295D02*
X178900000Y-92781342D01*
X178709524Y-93162295D02*
X178709524Y-92362295D01*
X178709524Y-92362295D02*
X179014286Y-92362295D01*
X179014286Y-92362295D02*
X179090476Y-92400390D01*
X179090476Y-92400390D02*
X179128571Y-92438485D01*
X179128571Y-92438485D02*
X179166667Y-92514676D01*
X179166667Y-92514676D02*
X179166667Y-92628961D01*
X179166667Y-92628961D02*
X179128571Y-92705152D01*
X179128571Y-92705152D02*
X179090476Y-92743247D01*
X179090476Y-92743247D02*
X179014286Y-92781342D01*
X179014286Y-92781342D02*
X178709524Y-92781342D01*
X179852381Y-92628961D02*
X179852381Y-93162295D01*
X179661905Y-92324200D02*
X179471428Y-92895628D01*
X179471428Y-92895628D02*
X179966667Y-92895628D01*
X187766667Y-94262295D02*
X187500000Y-93881342D01*
X187309524Y-94262295D02*
X187309524Y-93462295D01*
X187309524Y-93462295D02*
X187614286Y-93462295D01*
X187614286Y-93462295D02*
X187690476Y-93500390D01*
X187690476Y-93500390D02*
X187728571Y-93538485D01*
X187728571Y-93538485D02*
X187766667Y-93614676D01*
X187766667Y-93614676D02*
X187766667Y-93728961D01*
X187766667Y-93728961D02*
X187728571Y-93805152D01*
X187728571Y-93805152D02*
X187690476Y-93843247D01*
X187690476Y-93843247D02*
X187614286Y-93881342D01*
X187614286Y-93881342D02*
X187309524Y-93881342D01*
X188452381Y-93462295D02*
X188300000Y-93462295D01*
X188300000Y-93462295D02*
X188223809Y-93500390D01*
X188223809Y-93500390D02*
X188185714Y-93538485D01*
X188185714Y-93538485D02*
X188109524Y-93652771D01*
X188109524Y-93652771D02*
X188071428Y-93805152D01*
X188071428Y-93805152D02*
X188071428Y-94109914D01*
X188071428Y-94109914D02*
X188109524Y-94186104D01*
X188109524Y-94186104D02*
X188147619Y-94224200D01*
X188147619Y-94224200D02*
X188223809Y-94262295D01*
X188223809Y-94262295D02*
X188376190Y-94262295D01*
X188376190Y-94262295D02*
X188452381Y-94224200D01*
X188452381Y-94224200D02*
X188490476Y-94186104D01*
X188490476Y-94186104D02*
X188528571Y-94109914D01*
X188528571Y-94109914D02*
X188528571Y-93919438D01*
X188528571Y-93919438D02*
X188490476Y-93843247D01*
X188490476Y-93843247D02*
X188452381Y-93805152D01*
X188452381Y-93805152D02*
X188376190Y-93767057D01*
X188376190Y-93767057D02*
X188223809Y-93767057D01*
X188223809Y-93767057D02*
X188147619Y-93805152D01*
X188147619Y-93805152D02*
X188109524Y-93843247D01*
X188109524Y-93843247D02*
X188071428Y-93919438D01*
X156566667Y-94156104D02*
X156528571Y-94194200D01*
X156528571Y-94194200D02*
X156414286Y-94232295D01*
X156414286Y-94232295D02*
X156338095Y-94232295D01*
X156338095Y-94232295D02*
X156223809Y-94194200D01*
X156223809Y-94194200D02*
X156147619Y-94118009D01*
X156147619Y-94118009D02*
X156109524Y-94041819D01*
X156109524Y-94041819D02*
X156071428Y-93889438D01*
X156071428Y-93889438D02*
X156071428Y-93775152D01*
X156071428Y-93775152D02*
X156109524Y-93622771D01*
X156109524Y-93622771D02*
X156147619Y-93546580D01*
X156147619Y-93546580D02*
X156223809Y-93470390D01*
X156223809Y-93470390D02*
X156338095Y-93432295D01*
X156338095Y-93432295D02*
X156414286Y-93432295D01*
X156414286Y-93432295D02*
X156528571Y-93470390D01*
X156528571Y-93470390D02*
X156566667Y-93508485D01*
X156871428Y-93508485D02*
X156909524Y-93470390D01*
X156909524Y-93470390D02*
X156985714Y-93432295D01*
X156985714Y-93432295D02*
X157176190Y-93432295D01*
X157176190Y-93432295D02*
X157252381Y-93470390D01*
X157252381Y-93470390D02*
X157290476Y-93508485D01*
X157290476Y-93508485D02*
X157328571Y-93584676D01*
X157328571Y-93584676D02*
X157328571Y-93660866D01*
X157328571Y-93660866D02*
X157290476Y-93775152D01*
X157290476Y-93775152D02*
X156833333Y-94232295D01*
X156833333Y-94232295D02*
X157328571Y-94232295D01*
X184723809Y-106138485D02*
X184647619Y-106100390D01*
X184647619Y-106100390D02*
X184571428Y-106024200D01*
X184571428Y-106024200D02*
X184457142Y-105909914D01*
X184457142Y-105909914D02*
X184380952Y-105871819D01*
X184380952Y-105871819D02*
X184304761Y-105871819D01*
X184342857Y-106062295D02*
X184266666Y-106024200D01*
X184266666Y-106024200D02*
X184190476Y-105948009D01*
X184190476Y-105948009D02*
X184152380Y-105795628D01*
X184152380Y-105795628D02*
X184152380Y-105528961D01*
X184152380Y-105528961D02*
X184190476Y-105376580D01*
X184190476Y-105376580D02*
X184266666Y-105300390D01*
X184266666Y-105300390D02*
X184342857Y-105262295D01*
X184342857Y-105262295D02*
X184495238Y-105262295D01*
X184495238Y-105262295D02*
X184571428Y-105300390D01*
X184571428Y-105300390D02*
X184647619Y-105376580D01*
X184647619Y-105376580D02*
X184685714Y-105528961D01*
X184685714Y-105528961D02*
X184685714Y-105795628D01*
X184685714Y-105795628D02*
X184647619Y-105948009D01*
X184647619Y-105948009D02*
X184571428Y-106024200D01*
X184571428Y-106024200D02*
X184495238Y-106062295D01*
X184495238Y-106062295D02*
X184342857Y-106062295D01*
X184952380Y-105262295D02*
X185447618Y-105262295D01*
X185447618Y-105262295D02*
X185180952Y-105567057D01*
X185180952Y-105567057D02*
X185295237Y-105567057D01*
X185295237Y-105567057D02*
X185371428Y-105605152D01*
X185371428Y-105605152D02*
X185409523Y-105643247D01*
X185409523Y-105643247D02*
X185447618Y-105719438D01*
X185447618Y-105719438D02*
X185447618Y-105909914D01*
X185447618Y-105909914D02*
X185409523Y-105986104D01*
X185409523Y-105986104D02*
X185371428Y-106024200D01*
X185371428Y-106024200D02*
X185295237Y-106062295D01*
X185295237Y-106062295D02*
X185066666Y-106062295D01*
X185066666Y-106062295D02*
X184990475Y-106024200D01*
X184990475Y-106024200D02*
X184952380Y-105986104D01*
X166433333Y-96962295D02*
X166433333Y-97533723D01*
X166433333Y-97533723D02*
X166395238Y-97648009D01*
X166395238Y-97648009D02*
X166319047Y-97724200D01*
X166319047Y-97724200D02*
X166204762Y-97762295D01*
X166204762Y-97762295D02*
X166128571Y-97762295D01*
X167233333Y-97762295D02*
X166776190Y-97762295D01*
X167004762Y-97762295D02*
X167004762Y-96962295D01*
X167004762Y-96962295D02*
X166928571Y-97076580D01*
X166928571Y-97076580D02*
X166852381Y-97152771D01*
X166852381Y-97152771D02*
X166776190Y-97190866D01*
X152066667Y-94156104D02*
X152028571Y-94194200D01*
X152028571Y-94194200D02*
X151914286Y-94232295D01*
X151914286Y-94232295D02*
X151838095Y-94232295D01*
X151838095Y-94232295D02*
X151723809Y-94194200D01*
X151723809Y-94194200D02*
X151647619Y-94118009D01*
X151647619Y-94118009D02*
X151609524Y-94041819D01*
X151609524Y-94041819D02*
X151571428Y-93889438D01*
X151571428Y-93889438D02*
X151571428Y-93775152D01*
X151571428Y-93775152D02*
X151609524Y-93622771D01*
X151609524Y-93622771D02*
X151647619Y-93546580D01*
X151647619Y-93546580D02*
X151723809Y-93470390D01*
X151723809Y-93470390D02*
X151838095Y-93432295D01*
X151838095Y-93432295D02*
X151914286Y-93432295D01*
X151914286Y-93432295D02*
X152028571Y-93470390D01*
X152028571Y-93470390D02*
X152066667Y-93508485D01*
X152828571Y-94232295D02*
X152371428Y-94232295D01*
X152600000Y-94232295D02*
X152600000Y-93432295D01*
X152600000Y-93432295D02*
X152523809Y-93546580D01*
X152523809Y-93546580D02*
X152447619Y-93622771D01*
X152447619Y-93622771D02*
X152371428Y-93660866D01*
X175902380Y-106412657D02*
X175807142Y-106365038D01*
X175807142Y-106365038D02*
X175711904Y-106269800D01*
X175711904Y-106269800D02*
X175569047Y-106126942D01*
X175569047Y-106126942D02*
X175473809Y-106079323D01*
X175473809Y-106079323D02*
X175378571Y-106079323D01*
X175426190Y-106317419D02*
X175330952Y-106269800D01*
X175330952Y-106269800D02*
X175235714Y-106174561D01*
X175235714Y-106174561D02*
X175188095Y-105984085D01*
X175188095Y-105984085D02*
X175188095Y-105650752D01*
X175188095Y-105650752D02*
X175235714Y-105460276D01*
X175235714Y-105460276D02*
X175330952Y-105365038D01*
X175330952Y-105365038D02*
X175426190Y-105317419D01*
X175426190Y-105317419D02*
X175616666Y-105317419D01*
X175616666Y-105317419D02*
X175711904Y-105365038D01*
X175711904Y-105365038D02*
X175807142Y-105460276D01*
X175807142Y-105460276D02*
X175854761Y-105650752D01*
X175854761Y-105650752D02*
X175854761Y-105984085D01*
X175854761Y-105984085D02*
X175807142Y-106174561D01*
X175807142Y-106174561D02*
X175711904Y-106269800D01*
X175711904Y-106269800D02*
X175616666Y-106317419D01*
X175616666Y-106317419D02*
X175426190Y-106317419D01*
X176426190Y-106317419D02*
X176330952Y-106269800D01*
X176330952Y-106269800D02*
X176283333Y-106174561D01*
X176283333Y-106174561D02*
X176283333Y-105317419D01*
X176759524Y-105412657D02*
X176807143Y-105365038D01*
X176807143Y-105365038D02*
X176902381Y-105317419D01*
X176902381Y-105317419D02*
X177140476Y-105317419D01*
X177140476Y-105317419D02*
X177235714Y-105365038D01*
X177235714Y-105365038D02*
X177283333Y-105412657D01*
X177283333Y-105412657D02*
X177330952Y-105507895D01*
X177330952Y-105507895D02*
X177330952Y-105603133D01*
X177330952Y-105603133D02*
X177283333Y-105745990D01*
X177283333Y-105745990D02*
X176711905Y-106317419D01*
X176711905Y-106317419D02*
X177330952Y-106317419D01*
X165690557Y-106072623D02*
X165595319Y-106025004D01*
X165595319Y-106025004D02*
X165500081Y-105929766D01*
X165500081Y-105929766D02*
X165357224Y-105786908D01*
X165357224Y-105786908D02*
X165261986Y-105739289D01*
X165261986Y-105739289D02*
X165166748Y-105739289D01*
X165214367Y-105977385D02*
X165119129Y-105929766D01*
X165119129Y-105929766D02*
X165023891Y-105834527D01*
X165023891Y-105834527D02*
X164976272Y-105644051D01*
X164976272Y-105644051D02*
X164976272Y-105310718D01*
X164976272Y-105310718D02*
X165023891Y-105120242D01*
X165023891Y-105120242D02*
X165119129Y-105025004D01*
X165119129Y-105025004D02*
X165214367Y-104977385D01*
X165214367Y-104977385D02*
X165404843Y-104977385D01*
X165404843Y-104977385D02*
X165500081Y-105025004D01*
X165500081Y-105025004D02*
X165595319Y-105120242D01*
X165595319Y-105120242D02*
X165642938Y-105310718D01*
X165642938Y-105310718D02*
X165642938Y-105644051D01*
X165642938Y-105644051D02*
X165595319Y-105834527D01*
X165595319Y-105834527D02*
X165500081Y-105929766D01*
X165500081Y-105929766D02*
X165404843Y-105977385D01*
X165404843Y-105977385D02*
X165214367Y-105977385D01*
X166214367Y-105977385D02*
X166119129Y-105929766D01*
X166119129Y-105929766D02*
X166071510Y-105834527D01*
X166071510Y-105834527D02*
X166071510Y-104977385D01*
X167119129Y-105977385D02*
X166547701Y-105977385D01*
X166833415Y-105977385D02*
X166833415Y-104977385D01*
X166833415Y-104977385D02*
X166738177Y-105120242D01*
X166738177Y-105120242D02*
X166642939Y-105215480D01*
X166642939Y-105215480D02*
X166547701Y-105263099D01*
X154366667Y-94232295D02*
X154100000Y-93851342D01*
X153909524Y-94232295D02*
X153909524Y-93432295D01*
X153909524Y-93432295D02*
X154214286Y-93432295D01*
X154214286Y-93432295D02*
X154290476Y-93470390D01*
X154290476Y-93470390D02*
X154328571Y-93508485D01*
X154328571Y-93508485D02*
X154366667Y-93584676D01*
X154366667Y-93584676D02*
X154366667Y-93698961D01*
X154366667Y-93698961D02*
X154328571Y-93775152D01*
X154328571Y-93775152D02*
X154290476Y-93813247D01*
X154290476Y-93813247D02*
X154214286Y-93851342D01*
X154214286Y-93851342D02*
X153909524Y-93851342D01*
X155128571Y-94232295D02*
X154671428Y-94232295D01*
X154900000Y-94232295D02*
X154900000Y-93432295D01*
X154900000Y-93432295D02*
X154823809Y-93546580D01*
X154823809Y-93546580D02*
X154747619Y-93622771D01*
X154747619Y-93622771D02*
X154671428Y-93660866D01*
X184623809Y-100038485D02*
X184547619Y-100000390D01*
X184547619Y-100000390D02*
X184471428Y-99924200D01*
X184471428Y-99924200D02*
X184357142Y-99809914D01*
X184357142Y-99809914D02*
X184280952Y-99771819D01*
X184280952Y-99771819D02*
X184204761Y-99771819D01*
X184242857Y-99962295D02*
X184166666Y-99924200D01*
X184166666Y-99924200D02*
X184090476Y-99848009D01*
X184090476Y-99848009D02*
X184052380Y-99695628D01*
X184052380Y-99695628D02*
X184052380Y-99428961D01*
X184052380Y-99428961D02*
X184090476Y-99276580D01*
X184090476Y-99276580D02*
X184166666Y-99200390D01*
X184166666Y-99200390D02*
X184242857Y-99162295D01*
X184242857Y-99162295D02*
X184395238Y-99162295D01*
X184395238Y-99162295D02*
X184471428Y-99200390D01*
X184471428Y-99200390D02*
X184547619Y-99276580D01*
X184547619Y-99276580D02*
X184585714Y-99428961D01*
X184585714Y-99428961D02*
X184585714Y-99695628D01*
X184585714Y-99695628D02*
X184547619Y-99848009D01*
X184547619Y-99848009D02*
X184471428Y-99924200D01*
X184471428Y-99924200D02*
X184395238Y-99962295D01*
X184395238Y-99962295D02*
X184242857Y-99962295D01*
X185271428Y-99428961D02*
X185271428Y-99962295D01*
X185080952Y-99124200D02*
X184890475Y-99695628D01*
X184890475Y-99695628D02*
X185385714Y-99695628D01*
X157123809Y-106138485D02*
X157047619Y-106100390D01*
X157047619Y-106100390D02*
X156971428Y-106024200D01*
X156971428Y-106024200D02*
X156857142Y-105909914D01*
X156857142Y-105909914D02*
X156780952Y-105871819D01*
X156780952Y-105871819D02*
X156704761Y-105871819D01*
X156742857Y-106062295D02*
X156666666Y-106024200D01*
X156666666Y-106024200D02*
X156590476Y-105948009D01*
X156590476Y-105948009D02*
X156552380Y-105795628D01*
X156552380Y-105795628D02*
X156552380Y-105528961D01*
X156552380Y-105528961D02*
X156590476Y-105376580D01*
X156590476Y-105376580D02*
X156666666Y-105300390D01*
X156666666Y-105300390D02*
X156742857Y-105262295D01*
X156742857Y-105262295D02*
X156895238Y-105262295D01*
X156895238Y-105262295D02*
X156971428Y-105300390D01*
X156971428Y-105300390D02*
X157047619Y-105376580D01*
X157047619Y-105376580D02*
X157085714Y-105528961D01*
X157085714Y-105528961D02*
X157085714Y-105795628D01*
X157085714Y-105795628D02*
X157047619Y-105948009D01*
X157047619Y-105948009D02*
X156971428Y-106024200D01*
X156971428Y-106024200D02*
X156895238Y-106062295D01*
X156895238Y-106062295D02*
X156742857Y-106062295D01*
X157847618Y-106062295D02*
X157390475Y-106062295D01*
X157619047Y-106062295D02*
X157619047Y-105262295D01*
X157619047Y-105262295D02*
X157542856Y-105376580D01*
X157542856Y-105376580D02*
X157466666Y-105452771D01*
X157466666Y-105452771D02*
X157390475Y-105490866D01*
X162766667Y-93162295D02*
X162500000Y-92781342D01*
X162309524Y-93162295D02*
X162309524Y-92362295D01*
X162309524Y-92362295D02*
X162614286Y-92362295D01*
X162614286Y-92362295D02*
X162690476Y-92400390D01*
X162690476Y-92400390D02*
X162728571Y-92438485D01*
X162728571Y-92438485D02*
X162766667Y-92514676D01*
X162766667Y-92514676D02*
X162766667Y-92628961D01*
X162766667Y-92628961D02*
X162728571Y-92705152D01*
X162728571Y-92705152D02*
X162690476Y-92743247D01*
X162690476Y-92743247D02*
X162614286Y-92781342D01*
X162614286Y-92781342D02*
X162309524Y-92781342D01*
X163033333Y-92362295D02*
X163528571Y-92362295D01*
X163528571Y-92362295D02*
X163261905Y-92667057D01*
X163261905Y-92667057D02*
X163376190Y-92667057D01*
X163376190Y-92667057D02*
X163452381Y-92705152D01*
X163452381Y-92705152D02*
X163490476Y-92743247D01*
X163490476Y-92743247D02*
X163528571Y-92819438D01*
X163528571Y-92819438D02*
X163528571Y-93009914D01*
X163528571Y-93009914D02*
X163490476Y-93086104D01*
X163490476Y-93086104D02*
X163452381Y-93124200D01*
X163452381Y-93124200D02*
X163376190Y-93162295D01*
X163376190Y-93162295D02*
X163147619Y-93162295D01*
X163147619Y-93162295D02*
X163071428Y-93124200D01*
X163071428Y-93124200D02*
X163033333Y-93086104D01*
X182366667Y-100062295D02*
X182100000Y-99681342D01*
X181909524Y-100062295D02*
X181909524Y-99262295D01*
X181909524Y-99262295D02*
X182214286Y-99262295D01*
X182214286Y-99262295D02*
X182290476Y-99300390D01*
X182290476Y-99300390D02*
X182328571Y-99338485D01*
X182328571Y-99338485D02*
X182366667Y-99414676D01*
X182366667Y-99414676D02*
X182366667Y-99528961D01*
X182366667Y-99528961D02*
X182328571Y-99605152D01*
X182328571Y-99605152D02*
X182290476Y-99643247D01*
X182290476Y-99643247D02*
X182214286Y-99681342D01*
X182214286Y-99681342D02*
X181909524Y-99681342D01*
X182747619Y-100062295D02*
X182900000Y-100062295D01*
X182900000Y-100062295D02*
X182976190Y-100024200D01*
X182976190Y-100024200D02*
X183014286Y-99986104D01*
X183014286Y-99986104D02*
X183090476Y-99871819D01*
X183090476Y-99871819D02*
X183128571Y-99719438D01*
X183128571Y-99719438D02*
X183128571Y-99414676D01*
X183128571Y-99414676D02*
X183090476Y-99338485D01*
X183090476Y-99338485D02*
X183052381Y-99300390D01*
X183052381Y-99300390D02*
X182976190Y-99262295D01*
X182976190Y-99262295D02*
X182823809Y-99262295D01*
X182823809Y-99262295D02*
X182747619Y-99300390D01*
X182747619Y-99300390D02*
X182709524Y-99338485D01*
X182709524Y-99338485D02*
X182671428Y-99414676D01*
X182671428Y-99414676D02*
X182671428Y-99605152D01*
X182671428Y-99605152D02*
X182709524Y-99681342D01*
X182709524Y-99681342D02*
X182747619Y-99719438D01*
X182747619Y-99719438D02*
X182823809Y-99757533D01*
X182823809Y-99757533D02*
X182976190Y-99757533D01*
X182976190Y-99757533D02*
X183052381Y-99719438D01*
X183052381Y-99719438D02*
X183090476Y-99681342D01*
X183090476Y-99681342D02*
X183128571Y-99605152D01*
D11*
G04 #@! TO.C,C3*
X184805725Y-91241662D02*
X184805725Y-91764166D01*
X186275725Y-91241662D02*
X186275725Y-91764166D01*
G04 #@! TO.C,Qh2*
X181085548Y-98102500D02*
X181085548Y-94502500D01*
X176635548Y-96302500D02*
G75*
G02*
X181074026Y-94464022I2600000J0D01*
G01*
X181074026Y-98140978D02*
G75*
G02*
X176635547Y-96302500I-1838478J1838478D01*
G01*
G04 #@! TO.C,R13*
X158557127Y-103687064D02*
X158557127Y-103232936D01*
X160027127Y-103687064D02*
X160027127Y-103232936D01*
G04 #@! TO.C,R12*
X185368484Y-100797500D02*
X185822612Y-100797500D01*
X185368484Y-102267500D02*
X185822612Y-102267500D01*
G04 #@! TO.C,R7*
X156519191Y-94925000D02*
X156065063Y-94925000D01*
X156519191Y-96395000D02*
X156065063Y-96395000D01*
G04 #@! TO.C,R11*
X156519191Y-100725000D02*
X156065063Y-100725000D01*
X156519191Y-102195000D02*
X156065063Y-102195000D01*
D12*
G04 #@! TO.C,J2*
X167850000Y-99850000D02*
X167850000Y-107450000D01*
X167850000Y-107450000D02*
X173750000Y-107450000D01*
X173750000Y-99850000D02*
X167850000Y-99850000D01*
X173750000Y-107450000D02*
X173750000Y-99850000D01*
D11*
G04 #@! TO.C,C4*
X189305725Y-91241662D02*
X189305725Y-91764166D01*
X190775725Y-91241662D02*
X190775725Y-91764166D01*
G04 #@! TO.C,R2*
X158113672Y-91278534D02*
X158113672Y-91732662D01*
X159583672Y-91278534D02*
X159583672Y-91732662D01*
G04 #@! TO.C,R14*
X181860548Y-103205436D02*
X181860548Y-103659564D01*
X183330548Y-103205436D02*
X183330548Y-103659564D01*
G04 #@! TO.C,Qh1*
X165442127Y-98230000D02*
X165442127Y-94630000D01*
X160992127Y-96430000D02*
G75*
G02*
X165430605Y-94591522I2600000J0D01*
G01*
X165430605Y-98268478D02*
G75*
G02*
X160992126Y-96430000I-1838478J1838478D01*
G01*
G04 #@! TO.C,R10*
X185368484Y-94797500D02*
X185822612Y-94797500D01*
X185368484Y-96267500D02*
X185822612Y-96267500D01*
G04 #@! TO.C,R5*
X182605725Y-91305850D02*
X182605725Y-91759978D01*
X184075725Y-91305850D02*
X184075725Y-91759978D01*
G04 #@! TO.C,R8*
X158557127Y-97687064D02*
X158557127Y-97232936D01*
X160027127Y-97687064D02*
X160027127Y-97232936D01*
G04 #@! TO.C,Q2*
X155252127Y-96880000D02*
X154452127Y-96880000D01*
X155252127Y-96880000D02*
X156052127Y-96880000D01*
X156052127Y-96880000D02*
X156052127Y-97810000D01*
X156052127Y-100040000D02*
X154592127Y-100040000D01*
X156052127Y-100040000D02*
X156052127Y-99110000D01*
X153952127Y-96850000D02*
X153712127Y-96520000D01*
X154192127Y-96520000D01*
X153952127Y-96850000D01*
G36*
X153952127Y-96850000D02*
G01*
X153712127Y-96520000D01*
X154192127Y-96520000D01*
X153952127Y-96850000D01*
G37*
G04 #@! TO.C,R4*
X180365000Y-91759978D02*
X180365000Y-91305850D01*
X181835000Y-91759978D02*
X181835000Y-91305850D01*
G04 #@! TO.C,R6*
X187105725Y-91305850D02*
X187105725Y-91759978D01*
X188575725Y-91305850D02*
X188575725Y-91759978D01*
G04 #@! TO.C,C2*
X155913672Y-91274346D02*
X155913672Y-91796850D01*
X157383672Y-91274346D02*
X157383672Y-91796850D01*
G04 #@! TO.C,Q3*
X185735548Y-102852500D02*
X185735548Y-103782500D01*
X185735548Y-102852500D02*
X187195548Y-102852500D01*
X185735548Y-106012500D02*
X185735548Y-105082500D01*
X186535548Y-106012500D02*
X185735548Y-106012500D01*
X186535548Y-106012500D02*
X187335548Y-106012500D01*
X188075548Y-106372500D02*
X187595548Y-106372500D01*
X187835548Y-106042500D01*
X188075548Y-106372500D01*
G36*
X188075548Y-106372500D02*
G01*
X187595548Y-106372500D01*
X187835548Y-106042500D01*
X188075548Y-106372500D01*
G37*
D13*
G04 #@! TO.C,J1*
X165815100Y-88745800D02*
X165815100Y-96594400D01*
X165815100Y-96594400D02*
X175975100Y-96594400D01*
X175975100Y-88745800D02*
X165815100Y-88745800D01*
X175975100Y-96594400D02*
X175975100Y-88745800D01*
D11*
G04 #@! TO.C,C1*
X151447422Y-91274346D02*
X151447422Y-91796850D01*
X152917422Y-91274346D02*
X152917422Y-91796850D01*
G04 #@! TO.C,Ql2*
X176485548Y-100642500D02*
X176485548Y-104242500D01*
X176497070Y-100604022D02*
G75*
G02*
X180935549Y-102442500I1838478J-1838478D01*
G01*
X180935548Y-102442500D02*
G75*
G02*
X176497070Y-104280978I-2600000J0D01*
G01*
G04 #@! TO.C,Ql1*
X161012127Y-100700000D02*
X161012127Y-104300000D01*
X161023649Y-100661522D02*
G75*
G02*
X165462128Y-102500000I1838478J-1838478D01*
G01*
X165462127Y-102500000D02*
G75*
G02*
X161023649Y-104338478I-2600000J0D01*
G01*
G04 #@! TO.C,R1*
X153647422Y-91278534D02*
X153647422Y-91732662D01*
X155117422Y-91278534D02*
X155117422Y-91732662D01*
G04 #@! TO.C,Q4*
X185735548Y-96752500D02*
X185735548Y-97682500D01*
X185735548Y-96752500D02*
X187195548Y-96752500D01*
X185735548Y-99912500D02*
X185735548Y-98982500D01*
X186535548Y-99912500D02*
X185735548Y-99912500D01*
X186535548Y-99912500D02*
X187335548Y-99912500D01*
X188075548Y-100272500D02*
X187595548Y-100272500D01*
X187835548Y-99942500D01*
X188075548Y-100272500D01*
G36*
X188075548Y-100272500D02*
G01*
X187595548Y-100272500D01*
X187835548Y-99942500D01*
X188075548Y-100272500D01*
G37*
G04 #@! TO.C,Q1*
X155352127Y-102880000D02*
X154552127Y-102880000D01*
X155352127Y-102880000D02*
X156152127Y-102880000D01*
X156152127Y-102880000D02*
X156152127Y-103810000D01*
X156152127Y-106040000D02*
X154692127Y-106040000D01*
X156152127Y-106040000D02*
X156152127Y-105110000D01*
X154052127Y-102850000D02*
X153812127Y-102520000D01*
X154292127Y-102520000D01*
X154052127Y-102850000D01*
G36*
X154052127Y-102850000D02*
G01*
X153812127Y-102520000D01*
X154292127Y-102520000D01*
X154052127Y-102850000D01*
G37*
G04 #@! TO.C,R3*
X160465000Y-91762662D02*
X160465000Y-91308534D01*
X161935000Y-91762662D02*
X161935000Y-91308534D01*
G04 #@! TO.C,R9*
X181760548Y-97105436D02*
X181760548Y-97559564D01*
X183230548Y-97105436D02*
X183230548Y-97559564D01*
G04 #@! TD*
%LPC*%
D14*
G04 #@! TO.C,C3*
X185540725Y-90465414D03*
X185540725Y-92540414D03*
G04 #@! TD*
D15*
G04 #@! TO.C,Qh2*
X179235548Y-97572500D03*
D16*
X179235548Y-96302500D03*
X179235548Y-95032500D03*
G04 #@! TD*
D17*
G04 #@! TO.C,R13*
X159292127Y-104460000D03*
X159292127Y-102460000D03*
G04 #@! TD*
D18*
G04 #@! TO.C,R12*
X184595548Y-101532500D03*
X186595548Y-101532500D03*
G04 #@! TD*
D19*
G04 #@! TO.C,R7*
X157292127Y-95660000D03*
X155292127Y-95660000D03*
G04 #@! TD*
G04 #@! TO.C,R11*
X157292127Y-101460000D03*
X155292127Y-101460000D03*
G04 #@! TD*
D20*
G04 #@! TO.C,J2*
X169800000Y-101200000D03*
D21*
X171800000Y-101200000D03*
G04 #@! TD*
D14*
G04 #@! TO.C,C4*
X190040725Y-90465414D03*
X190040725Y-92540414D03*
G04 #@! TD*
D22*
G04 #@! TO.C,R2*
X158848672Y-90505598D03*
X158848672Y-92505598D03*
G04 #@! TD*
G04 #@! TO.C,R14*
X182595548Y-102432500D03*
X182595548Y-104432500D03*
G04 #@! TD*
D15*
G04 #@! TO.C,Qh1*
X163592127Y-97700000D03*
D16*
X163592127Y-96430000D03*
X163592127Y-95160000D03*
G04 #@! TD*
D18*
G04 #@! TO.C,R10*
X184595548Y-95532500D03*
X186595548Y-95532500D03*
G04 #@! TD*
D22*
G04 #@! TO.C,R5*
X183340725Y-90532914D03*
X183340725Y-92532914D03*
G04 #@! TD*
D17*
G04 #@! TO.C,R8*
X159292127Y-98460000D03*
X159292127Y-96460000D03*
G04 #@! TD*
D23*
G04 #@! TO.C,Q2*
X153792127Y-97510000D03*
X153792127Y-99410000D03*
X156792127Y-98460000D03*
G04 #@! TD*
D17*
G04 #@! TO.C,R4*
X181100000Y-92532914D03*
X181100000Y-90532914D03*
G04 #@! TD*
D22*
G04 #@! TO.C,R6*
X187840725Y-90532914D03*
X187840725Y-92532914D03*
G04 #@! TD*
D14*
G04 #@! TO.C,C2*
X156648672Y-90498098D03*
X156648672Y-92573098D03*
G04 #@! TD*
D24*
G04 #@! TO.C,Q3*
X187995548Y-105382500D03*
X187995548Y-103482500D03*
X184995548Y-104432500D03*
G04 #@! TD*
D25*
G04 #@! TO.C,J1*
X173895099Y-95117400D03*
X171895100Y-95117400D03*
X169895099Y-95117400D03*
X167895101Y-95117400D03*
G04 #@! TD*
D14*
G04 #@! TO.C,C1*
X152182422Y-90498098D03*
X152182422Y-92573098D03*
G04 #@! TD*
D15*
G04 #@! TO.C,Ql2*
X178335548Y-101172500D03*
D16*
X178335548Y-102442500D03*
X178335548Y-103712500D03*
G04 #@! TD*
D15*
G04 #@! TO.C,Ql1*
X162862127Y-101230000D03*
D16*
X162862127Y-102500000D03*
X162862127Y-103770000D03*
G04 #@! TD*
D22*
G04 #@! TO.C,R1*
X154382422Y-90505598D03*
X154382422Y-92505598D03*
G04 #@! TD*
D24*
G04 #@! TO.C,Q4*
X187995548Y-99282500D03*
X187995548Y-97382500D03*
X184995548Y-98332500D03*
G04 #@! TD*
D23*
G04 #@! TO.C,Q1*
X153892127Y-103510000D03*
X153892127Y-105410000D03*
X156892127Y-104460000D03*
G04 #@! TD*
D17*
G04 #@! TO.C,R3*
X161200000Y-92535598D03*
X161200000Y-90535598D03*
G04 #@! TD*
D22*
G04 #@! TO.C,R9*
X182495548Y-96332500D03*
X182495548Y-98332500D03*
G04 #@! TD*
%LPD*%
M02*
