M48
; DRILL file {KiCad 9.0.4} date 2025-08-24T22:39:55+0200
; FORMAT={-:-/ absolute / metric / decimal}
; #@! TF.CreationDate,2025-08-24T22:39:55+02:00
; #@! TF.GenerationSoftware,Kicad,Pcbnew,9.0.4
; #@! TF.FileFunction,Plated,1,2,PTH
FMAT,2
METRIC
; #@! TA.AperFunction,Plated,PTH,ViaDrill
T1C0.300
; #@! TA.AperFunction,Plated,PTH,ComponentDrill
T2C0.750
; #@! TA.AperFunction,Plated,PTH,ComponentDrill
T3C0.762
; #@! TA.AperFunction,Plated,PTH,ComponentDrill
T4C0.800
; #@! TA.AperFunction,Plated,PTH,ComponentDrill
T5C2.200
%
G90
G05
T1
X94.703Y-60.398
X97.838Y-65.931
X97.838Y-66.665
X97.838Y-67.398
X99.192Y-63.317
X100.238Y-52.633
X101.238Y-66.61
X101.238Y-67.36
X108.438Y-65.598
X109.688Y-65.598
X111.988Y-65.598
X113.238Y-65.598
X120.488Y-66.61
X120.488Y-67.36
X121.138Y-52.631
X122.238Y-63.398
X122.438Y-65.931
X122.438Y-66.665
X122.438Y-67.398
X127.238Y-60.398
T2
X102.901Y-62.425
X102.901Y-63.695
X102.901Y-64.965
X103.631Y-56.355
X103.631Y-57.625
X103.631Y-58.895
X118.374Y-62.506
X118.374Y-63.776
X118.374Y-65.046
X118.988Y-56.366
X118.988Y-57.636
X118.988Y-58.906
T3
X107.934Y-55.198
X109.934Y-55.198
X111.934Y-55.198
X113.934Y-55.198
T4
X109.838Y-62.998
X111.838Y-62.998
T5
X91.9Y-65.1
X129.9Y-65.1
M30
