M48
; DRILL file {KiCad 9.0.4} date 2025-08-22T17:22:00+0200
; FORMAT={-:-/ absolute / metric / decimal}
; #@! TF.CreationDate,2025-08-22T17:22:00+02:00
; #@! TF.GenerationSoftware,Kicad,Pcbnew,9.0.4
; #@! TF.FileFunction,Plated,1,2,PTH
FMAT,2
METRIC
; #@! TA.AperFunction,Plated,PTH,ViaDrill
T1C0.300
; #@! TA.AperFunction,Plated,PTH,ComponentDrill
T2C0.750
; #@! TA.AperFunction,Plated,PTH,ComponentDrill
T3C0.762
; #@! TA.AperFunction,Plated,PTH,ComponentDrill
T4C0.800
%
G90
G05
T1
X153.8Y-98.5
X153.9Y-104.5
X161.2Y-91.636
X161.2Y-105.613
X161.2Y-106.363
X165.95Y-104.113
X167.2Y-104.113
X174.45Y-104.113
X175.7Y-104.113
X180.45Y-105.613
X180.45Y-106.363
X181.1Y-91.633
X188.0Y-98.332
X188.0Y-104.4
T2
X162.862Y-101.428
X162.862Y-102.698
X162.862Y-103.968
X163.592Y-95.358
X163.592Y-96.628
X163.592Y-97.898
X178.336Y-101.509
X178.336Y-102.779
X178.336Y-104.049
X178.95Y-95.369
X178.95Y-96.639
X178.95Y-97.909
T3
X167.895Y-95.117
X169.895Y-95.117
X171.895Y-95.117
X173.895Y-95.117
T4
X169.8Y-101.2
X171.8Y-101.2
M30
