G04 #@! TF.GenerationSoftware,KiCad,Pcbnew,9.0.4*
G04 #@! TF.CreationDate,2025-08-22T17:22:00+02:00*
G04 #@! TF.ProjectId,npn-pnp-h-bridge,6e706e2d-706e-4702-9d68-2d6272696467,rev?*
G04 #@! TF.SameCoordinates,Original*
G04 #@! TF.FileFunction,Copper,L2,Bot*
G04 #@! TF.FilePolarity,Positive*
%FSLAX46Y46*%
G04 Gerber Fmt 4.6, Leading zero omitted, Abs format (unit mm)*
G04 Created by KiCad (PCBNEW 9.0.4) date 2025-08-22 17:22:00*
%MOMM*%
%LPD*%
G01*
G04 APERTURE LIST*
G04 Aperture macros list*
%AMRoundRect*
0 Rectangle with rounded corners*
0 $1 Rounding radius*
0 $2 $3 $4 $5 $6 $7 $8 $9 X,Y pos of 4 corners*
0 Add a 4 corners polygon primitive as box body*
4,1,4,$2,$3,$4,$5,$6,$7,$8,$9,$2,$3,0*
0 Add four circle primitives for the rounded corners*
1,1,$1+$1,$2,$3*
1,1,$1+$1,$4,$5*
1,1,$1+$1,$6,$7*
1,1,$1+$1,$8,$9*
0 Add four rect primitives between the rounded corners*
20,1,$1+$1,$2,$3,$4,$5,0*
20,1,$1+$1,$4,$5,$6,$7,0*
20,1,$1+$1,$6,$7,$8,$9,0*
20,1,$1+$1,$8,$9,$2,$3,0*%
G04 Aperture macros list end*
G04 #@! TA.AperFunction,ComponentPad*
%ADD10R,1.500000X1.050000*%
G04 #@! TD*
G04 #@! TA.AperFunction,ComponentPad*
%ADD11O,1.500000X1.050000*%
G04 #@! TD*
G04 #@! TA.AperFunction,ComponentPad*
%ADD12R,1.300000X1.300000*%
G04 #@! TD*
G04 #@! TA.AperFunction,ComponentPad*
%ADD13C,1.300000*%
G04 #@! TD*
G04 #@! TA.AperFunction,ComponentPad*
%ADD14C,1.270000*%
G04 #@! TD*
G04 #@! TA.AperFunction,SMDPad,CuDef*
%ADD15RoundRect,0.250000X-0.650000X1.000000X-0.650000X-1.000000X0.650000X-1.000000X0.650000X1.000000X0*%
G04 #@! TD*
G04 #@! TA.AperFunction,SMDPad,CuDef*
%ADD16RoundRect,0.250000X0.650000X-1.000000X0.650000X1.000000X-0.650000X1.000000X-0.650000X-1.000000X0*%
G04 #@! TD*
G04 #@! TA.AperFunction,ViaPad*
%ADD17C,0.600000*%
G04 #@! TD*
G04 APERTURE END LIST*
D10*
G04 #@! TO.P,Qr1,1,C*
G04 #@! TO.N,/O2*
X178950000Y-97908531D03*
D11*
G04 #@! TO.P,Qr1,2,B*
G04 #@! TO.N,/H2b*
X178950000Y-96638531D03*
G04 #@! TO.P,Qr1,3,E*
G04 #@! TO.N,+5V*
X178950000Y-95368531D03*
G04 #@! TD*
D12*
G04 #@! TO.P,J2,1,1*
G04 #@! TO.N,/O1*
X169800000Y-101200000D03*
D13*
G04 #@! TO.P,J2,2,2*
G04 #@! TO.N,/O2*
X171800000Y-101200000D03*
G04 #@! TD*
D10*
G04 #@! TO.P,Ql1,1,C*
G04 #@! TO.N,/O1*
X163592127Y-97897589D03*
D11*
G04 #@! TO.P,Ql1,2,B*
G04 #@! TO.N,/H1b*
X163592127Y-96627589D03*
G04 #@! TO.P,Ql1,3,E*
G04 #@! TO.N,+5V*
X163592127Y-95357589D03*
G04 #@! TD*
D14*
G04 #@! TO.P,J1,1,1*
G04 #@! TO.N,+5V*
X173895099Y-95117400D03*
G04 #@! TO.P,J1,2,2*
G04 #@! TO.N,GND*
X171895100Y-95117400D03*
G04 #@! TO.P,J1,3,3*
G04 #@! TO.N,/R_IN*
X169895099Y-95117400D03*
G04 #@! TO.P,J1,4,4*
G04 #@! TO.N,/L_IN*
X167895101Y-95117400D03*
G04 #@! TD*
D10*
G04 #@! TO.P,Qr2,1,C*
G04 #@! TO.N,/O2*
X178335548Y-101508531D03*
D11*
G04 #@! TO.P,Qr2,2,B*
G04 #@! TO.N,/L2b*
X178335548Y-102778531D03*
G04 #@! TO.P,Qr2,3,E*
G04 #@! TO.N,GND*
X178335548Y-104048531D03*
G04 #@! TD*
D10*
G04 #@! TO.P,Ql2,1,C*
G04 #@! TO.N,/O1*
X162862127Y-101427589D03*
D11*
G04 #@! TO.P,Ql2,2,B*
G04 #@! TO.N,/L1b*
X162862127Y-102697589D03*
G04 #@! TO.P,Ql2,3,E*
G04 #@! TO.N,GND*
X162862127Y-103967589D03*
G04 #@! TD*
D15*
G04 #@! TO.P,D1,1,K*
G04 #@! TO.N,+5V*
X166700000Y-97612600D03*
G04 #@! TO.P,D1,2,A*
G04 #@! TO.N,/O1*
X166700000Y-101612600D03*
G04 #@! TD*
G04 #@! TO.P,D2,1,K*
G04 #@! TO.N,+5V*
X174950000Y-97612600D03*
G04 #@! TO.P,D2,2,A*
G04 #@! TO.N,/O2*
X174950000Y-101612600D03*
G04 #@! TD*
D16*
G04 #@! TO.P,D3,1,K*
G04 #@! TO.N,/O1*
X159292127Y-99332500D03*
G04 #@! TO.P,D3,2,A*
G04 #@! TO.N,GND*
X159292127Y-95332500D03*
G04 #@! TD*
G04 #@! TO.P,D4,1,K*
G04 #@! TO.N,/O2*
X182495548Y-99332500D03*
G04 #@! TO.P,D4,2,A*
G04 #@! TO.N,GND*
X182495548Y-95332500D03*
G04 #@! TD*
D17*
G04 #@! TO.N,GND*
X188000000Y-98332500D03*
X161200000Y-91635598D03*
X161200000Y-105612600D03*
X180450000Y-106362600D03*
X174450000Y-104112600D03*
X153900000Y-104500000D03*
X188000000Y-104400000D03*
X180450000Y-105612600D03*
X175700000Y-104112600D03*
X161200000Y-106362600D03*
X153800000Y-98500000D03*
X167200000Y-104112600D03*
X181100000Y-91632914D03*
X165950000Y-104112600D03*
G04 #@! TD*
G04 #@! TA.AperFunction,Conductor*
G04 #@! TO.N,+5V*
G36*
X179772058Y-94382285D02*
G01*
X179817813Y-94435089D01*
X179821444Y-94443925D01*
X180084590Y-95161834D01*
X180092165Y-95204509D01*
X180092165Y-95598670D01*
X180089074Y-95626183D01*
X179998199Y-96025538D01*
X179964130Y-96086539D01*
X179902490Y-96119437D01*
X179832849Y-96113788D01*
X179789609Y-96085706D01*
X179701228Y-95997325D01*
X179701220Y-95997319D01*
X179566023Y-95906983D01*
X179566019Y-95906981D01*
X179415793Y-95844756D01*
X179415783Y-95844753D01*
X179256307Y-95813031D01*
X179256305Y-95813031D01*
X178643695Y-95813031D01*
X178643693Y-95813031D01*
X178484216Y-95844753D01*
X178484206Y-95844756D01*
X178333980Y-95906981D01*
X178333976Y-95906983D01*
X178198779Y-95997319D01*
X178198776Y-95997321D01*
X178090687Y-96105410D01*
X178029364Y-96138894D01*
X178000232Y-96141697D01*
X176700000Y-96112600D01*
X176700000Y-99488600D01*
X176680315Y-99555639D01*
X176627511Y-99601394D01*
X176576000Y-99612600D01*
X165211662Y-99612600D01*
X165144623Y-99592915D01*
X165098868Y-99540111D01*
X165087662Y-99488600D01*
X165087662Y-97177796D01*
X165087662Y-97177795D01*
X164845434Y-96887121D01*
X164671367Y-96678240D01*
X164643572Y-96614137D01*
X164642627Y-96598857D01*
X164642627Y-96546281D01*
X164610904Y-96386805D01*
X164610903Y-96386804D01*
X164610903Y-96386800D01*
X164610901Y-96386795D01*
X164548676Y-96236569D01*
X164548674Y-96236565D01*
X164458338Y-96101368D01*
X164458332Y-96101360D01*
X164343355Y-95986383D01*
X164343347Y-95986377D01*
X164208150Y-95896041D01*
X164208146Y-95896039D01*
X164057920Y-95833814D01*
X164057910Y-95833811D01*
X163898434Y-95802089D01*
X163898432Y-95802089D01*
X163285822Y-95802089D01*
X163285820Y-95802089D01*
X163126343Y-95833811D01*
X163126333Y-95833814D01*
X162976109Y-95896039D01*
X162839453Y-95987348D01*
X162827675Y-95991035D01*
X162818068Y-95998785D01*
X162794954Y-96001280D01*
X162772775Y-96008225D01*
X162759178Y-96005143D01*
X162748602Y-96006285D01*
X162715109Y-95995154D01*
X162518546Y-95896873D01*
X162467387Y-95849286D01*
X162450000Y-95785964D01*
X162450000Y-94930716D01*
X162469685Y-94863677D01*
X162507487Y-94826064D01*
X162834166Y-94618446D01*
X162901083Y-94599102D01*
X166866348Y-94612321D01*
X166886022Y-94618169D01*
X166906525Y-94619152D01*
X166918834Y-94627922D01*
X166933322Y-94632229D01*
X166946710Y-94647784D01*
X166963428Y-94659696D01*
X166976576Y-94682484D01*
X166978900Y-94685185D01*
X166981066Y-94690267D01*
X167000825Y-94739664D01*
X167007446Y-94809219D01*
X167000257Y-94833164D01*
X166995553Y-94844520D01*
X166995550Y-94844531D01*
X166959601Y-95025258D01*
X166959601Y-95025261D01*
X166959601Y-95209539D01*
X166959601Y-95209541D01*
X166959600Y-95209541D01*
X166995550Y-95390269D01*
X166995552Y-95390275D01*
X167066070Y-95560522D01*
X167066075Y-95560531D01*
X167168450Y-95713745D01*
X167168453Y-95713749D01*
X167298751Y-95844047D01*
X167298755Y-95844050D01*
X167451969Y-95946425D01*
X167451975Y-95946428D01*
X167451976Y-95946429D01*
X167622226Y-96016949D01*
X167622230Y-96016949D01*
X167622231Y-96016950D01*
X167802959Y-96052900D01*
X167802962Y-96052900D01*
X167987240Y-96052900D01*
X168059988Y-96038429D01*
X168116123Y-96040232D01*
X168350000Y-96102600D01*
X172450000Y-96112600D01*
X172695722Y-95603037D01*
X172724129Y-95560525D01*
X172772277Y-95444284D01*
X173260069Y-94432738D01*
X173306919Y-94380904D01*
X173371761Y-94362600D01*
X179705019Y-94362600D01*
X179772058Y-94382285D01*
G37*
G04 #@! TD.AperFunction*
G04 #@! TD*
G04 #@! TA.AperFunction,Conductor*
G04 #@! TO.N,/O2*
G36*
X178258792Y-97344414D02*
G01*
X178325692Y-97364550D01*
X178326728Y-97365234D01*
X178333979Y-97370079D01*
X178333981Y-97370080D01*
X178333983Y-97370081D01*
X178385276Y-97391327D01*
X178484211Y-97432307D01*
X178484215Y-97432307D01*
X178484216Y-97432308D01*
X178643692Y-97464031D01*
X178643695Y-97464031D01*
X179256307Y-97464031D01*
X179363598Y-97442688D01*
X179415789Y-97432307D01*
X179566021Y-97370079D01*
X179566026Y-97370075D01*
X179569324Y-97368313D01*
X179628618Y-97353671D01*
X180905323Y-97362298D01*
X180972228Y-97382435D01*
X180984216Y-97391327D01*
X181070814Y-97464031D01*
X181545548Y-97862600D01*
X183320863Y-97862600D01*
X183387902Y-97882285D01*
X183433657Y-97935089D01*
X183444861Y-97987283D01*
X183429905Y-100702967D01*
X183409852Y-100769897D01*
X183356797Y-100815360D01*
X183304790Y-100826279D01*
X180653421Y-100802399D01*
X180030145Y-102015180D01*
X179981994Y-102065808D01*
X179919857Y-102082500D01*
X179042339Y-102082500D01*
X178975300Y-102062815D01*
X178973447Y-102061601D01*
X178951576Y-102046987D01*
X178951562Y-102046979D01*
X178801341Y-101984756D01*
X178801331Y-101984753D01*
X178641855Y-101953031D01*
X178641853Y-101953031D01*
X178029243Y-101953031D01*
X178029241Y-101953031D01*
X177869764Y-101984753D01*
X177869754Y-101984756D01*
X177719528Y-102046981D01*
X177719524Y-102046983D01*
X177584327Y-102137319D01*
X177584319Y-102137325D01*
X177469342Y-102252302D01*
X177469339Y-102252306D01*
X177379003Y-102387503D01*
X177379000Y-102387510D01*
X177344924Y-102469775D01*
X177318044Y-102510002D01*
X176781867Y-103046181D01*
X176720544Y-103079666D01*
X176694186Y-103082500D01*
X171101808Y-103082500D01*
X171034769Y-103062815D01*
X170989014Y-103010011D01*
X170977808Y-102958500D01*
X170977808Y-100042100D01*
X170997493Y-99975061D01*
X171050297Y-99929306D01*
X171101808Y-99918100D01*
X176575990Y-99918100D01*
X176576000Y-99918100D01*
X176640941Y-99911118D01*
X176692452Y-99899912D01*
X176730658Y-99888954D01*
X176805642Y-99845100D01*
X176895548Y-99845100D01*
X176895548Y-99770427D01*
X176922553Y-99741787D01*
X176973439Y-99641711D01*
X176993124Y-99574672D01*
X177005500Y-99488600D01*
X177005500Y-97460785D01*
X177025185Y-97393746D01*
X177077989Y-97347991D01*
X177130331Y-97336789D01*
X178258792Y-97344414D01*
G37*
G04 #@! TD.AperFunction*
G04 #@! TD*
G04 #@! TA.AperFunction,Conductor*
G04 #@! TO.N,/O1*
G36*
X164681089Y-97357630D02*
G01*
X164727217Y-97410109D01*
X164738790Y-97462418D01*
X164738790Y-99582500D01*
X164752984Y-99596694D01*
X164771684Y-99602185D01*
X164811683Y-99643899D01*
X164867985Y-99740168D01*
X164867987Y-99740171D01*
X164913743Y-99792976D01*
X164913753Y-99792987D01*
X164958469Y-99835148D01*
X164958471Y-99835149D01*
X164958475Y-99835153D01*
X165058551Y-99886039D01*
X165125590Y-99905724D01*
X165211662Y-99918100D01*
X165211665Y-99918100D01*
X170548308Y-99918100D01*
X170615347Y-99937785D01*
X170661102Y-99990589D01*
X170672308Y-100042100D01*
X170672308Y-102958500D01*
X170652623Y-103025539D01*
X170599819Y-103071294D01*
X170548308Y-103082500D01*
X165251362Y-103082500D01*
X165184323Y-103062815D01*
X165163681Y-103046181D01*
X164200000Y-102082500D01*
X163689546Y-102082500D01*
X163622507Y-102062815D01*
X163617182Y-102058939D01*
X163478150Y-101966041D01*
X163478146Y-101966039D01*
X163327920Y-101903814D01*
X163327910Y-101903811D01*
X163168434Y-101872089D01*
X163168432Y-101872089D01*
X162555822Y-101872089D01*
X162555820Y-101872089D01*
X162396343Y-101903811D01*
X162396333Y-101903814D01*
X162246107Y-101966039D01*
X162246103Y-101966041D01*
X162105836Y-102059765D01*
X162104684Y-102058041D01*
X162090528Y-102064054D01*
X162069643Y-102077477D01*
X162053451Y-102079805D01*
X162049073Y-102081665D01*
X162034708Y-102082500D01*
X162025691Y-102082500D01*
X161958652Y-102062815D01*
X161915403Y-102015180D01*
X161305586Y-100828589D01*
X161292127Y-100802400D01*
X161292126Y-100802399D01*
X158509316Y-100827462D01*
X158442102Y-100808382D01*
X158395873Y-100755992D01*
X158384199Y-100703467D01*
X158384199Y-97986600D01*
X158403884Y-97919561D01*
X158456688Y-97873806D01*
X158508199Y-97862600D01*
X160242127Y-97862600D01*
X161173451Y-97376458D01*
X161229946Y-97362387D01*
X162929350Y-97350352D01*
X162977674Y-97359786D01*
X163126338Y-97421365D01*
X163126342Y-97421365D01*
X163126343Y-97421366D01*
X163285819Y-97453089D01*
X163285822Y-97453089D01*
X163898434Y-97453089D01*
X164005725Y-97431746D01*
X164057916Y-97421365D01*
X164208148Y-97359137D01*
X164208153Y-97359133D01*
X164213515Y-97356268D01*
X164214694Y-97358475D01*
X164270894Y-97340858D01*
X164272257Y-97340841D01*
X164613913Y-97338421D01*
X164681089Y-97357630D01*
G37*
G04 #@! TD.AperFunction*
G04 #@! TD*
G04 #@! TA.AperFunction,Conductor*
G04 #@! TO.N,GND*
G36*
X190506922Y-89363880D02*
G01*
X190597266Y-89374059D01*
X190624331Y-89380236D01*
X190703540Y-89407952D01*
X190728553Y-89419998D01*
X190799606Y-89464643D01*
X190821313Y-89481955D01*
X190880644Y-89541286D01*
X190897957Y-89562995D01*
X190942600Y-89634044D01*
X190954648Y-89659062D01*
X190982362Y-89738266D01*
X190988540Y-89765335D01*
X190998720Y-89855676D01*
X190999500Y-89869561D01*
X190999500Y-106243038D01*
X190998720Y-106256922D01*
X190998720Y-106256923D01*
X190988540Y-106347264D01*
X190982362Y-106374333D01*
X190954648Y-106453537D01*
X190942600Y-106478555D01*
X190897957Y-106549604D01*
X190880644Y-106571313D01*
X190821313Y-106630644D01*
X190799604Y-106647957D01*
X190728555Y-106692600D01*
X190703537Y-106704648D01*
X190624333Y-106732362D01*
X190597264Y-106738540D01*
X190517075Y-106747576D01*
X190506921Y-106748720D01*
X190493038Y-106749500D01*
X151706962Y-106749500D01*
X151693078Y-106748720D01*
X151680553Y-106747308D01*
X151602735Y-106738540D01*
X151575666Y-106732362D01*
X151496462Y-106704648D01*
X151471444Y-106692600D01*
X151400395Y-106647957D01*
X151378686Y-106630644D01*
X151319355Y-106571313D01*
X151302042Y-106549604D01*
X151257399Y-106478555D01*
X151245351Y-106453537D01*
X151217637Y-106374333D01*
X151211459Y-106347263D01*
X151201280Y-106256922D01*
X151200500Y-106243038D01*
X151200500Y-97986602D01*
X158078699Y-97986602D01*
X158078699Y-100703467D01*
X158085975Y-100769748D01*
X158097651Y-100822279D01*
X158097654Y-100822292D01*
X158109250Y-100861717D01*
X158109252Y-100861723D01*
X158109253Y-100861725D01*
X158166803Y-100958124D01*
X158205402Y-101001867D01*
X158213035Y-101010517D01*
X158258145Y-101052288D01*
X158358676Y-101102270D01*
X158425890Y-101121350D01*
X158512067Y-101132950D01*
X161030058Y-101110271D01*
X161097270Y-101129351D01*
X161141461Y-101177586D01*
X161643685Y-102154820D01*
X161643687Y-102154823D01*
X161689213Y-102220528D01*
X161689216Y-102220532D01*
X161689220Y-102220537D01*
X161732469Y-102268172D01*
X161772504Y-102305053D01*
X161781144Y-102309446D01*
X161831980Y-102357378D01*
X161848832Y-102425185D01*
X161844478Y-102450813D01*
X161844539Y-102450826D01*
X161844108Y-102452988D01*
X161843602Y-102455972D01*
X161843350Y-102456801D01*
X161811627Y-102616281D01*
X161811627Y-102616284D01*
X161811627Y-102778894D01*
X161811627Y-102778896D01*
X161811626Y-102778896D01*
X161843349Y-102938372D01*
X161843352Y-102938382D01*
X161905576Y-103088606D01*
X161970158Y-103185260D01*
X161991035Y-103251937D01*
X161972550Y-103319317D01*
X161954737Y-103341830D01*
X161918633Y-103377934D01*
X161918629Y-103377939D01*
X161817405Y-103529430D01*
X161817398Y-103529443D01*
X161747675Y-103697771D01*
X161747672Y-103697783D01*
X161743733Y-103717589D01*
X162581797Y-103717589D01*
X162562052Y-103737334D01*
X162512683Y-103822844D01*
X162487127Y-103918219D01*
X162487127Y-104016959D01*
X162512683Y-104112334D01*
X162562052Y-104197844D01*
X162581797Y-104217589D01*
X161743733Y-104217589D01*
X161747672Y-104237394D01*
X161747675Y-104237406D01*
X161817398Y-104405734D01*
X161817405Y-104405747D01*
X161918631Y-104557241D01*
X161918634Y-104557245D01*
X162047470Y-104686081D01*
X162047474Y-104686084D01*
X162198968Y-104787310D01*
X162198981Y-104787317D01*
X162367309Y-104857040D01*
X162367321Y-104857043D01*
X162546017Y-104892588D01*
X162546021Y-104892589D01*
X162612127Y-104892589D01*
X162612127Y-104247919D01*
X162631872Y-104267664D01*
X162717382Y-104317033D01*
X162812757Y-104342589D01*
X162911497Y-104342589D01*
X163006872Y-104317033D01*
X163092382Y-104267664D01*
X163112127Y-104247919D01*
X163112127Y-104892589D01*
X163178233Y-104892589D01*
X163178236Y-104892588D01*
X163356932Y-104857043D01*
X163356944Y-104857040D01*
X163525272Y-104787317D01*
X163525285Y-104787310D01*
X163676779Y-104686084D01*
X163676783Y-104686081D01*
X163805619Y-104557245D01*
X163805622Y-104557241D01*
X163906848Y-104405747D01*
X163906855Y-104405734D01*
X163976578Y-104237406D01*
X163976582Y-104237393D01*
X163980521Y-104217589D01*
X163142457Y-104217589D01*
X163162202Y-104197844D01*
X163211571Y-104112334D01*
X163237127Y-104016959D01*
X163237127Y-103918219D01*
X163211571Y-103822844D01*
X163162202Y-103737334D01*
X163142457Y-103717589D01*
X163980521Y-103717589D01*
X163976581Y-103697783D01*
X163976578Y-103697771D01*
X163906855Y-103529443D01*
X163906848Y-103529430D01*
X163805622Y-103377936D01*
X163805619Y-103377932D01*
X163769518Y-103341832D01*
X163736032Y-103280510D01*
X163741016Y-103210818D01*
X163754094Y-103185262D01*
X163818675Y-103088610D01*
X163880903Y-102938378D01*
X163912627Y-102778894D01*
X163912627Y-102616284D01*
X163912627Y-102616281D01*
X163912626Y-102616279D01*
X163896696Y-102536191D01*
X163898573Y-102515207D01*
X163895575Y-102494353D01*
X163901625Y-102481105D01*
X163902923Y-102466600D01*
X163915847Y-102449962D01*
X163924600Y-102430797D01*
X163936852Y-102422922D01*
X163945786Y-102411423D01*
X163965652Y-102404414D01*
X163983378Y-102393023D01*
X164007961Y-102389488D01*
X164011676Y-102388178D01*
X164018313Y-102388000D01*
X164022096Y-102388000D01*
X164089135Y-102407685D01*
X164109777Y-102424319D01*
X164947660Y-103262202D01*
X164958280Y-103271741D01*
X164971993Y-103284059D01*
X164992674Y-103300724D01*
X164998172Y-103305051D01*
X164998175Y-103305053D01*
X165098251Y-103355939D01*
X165165290Y-103375624D01*
X165251362Y-103388000D01*
X165251365Y-103388000D01*
X170548298Y-103388000D01*
X170548308Y-103388000D01*
X170613249Y-103381018D01*
X170664760Y-103369812D01*
X170702966Y-103358854D01*
X170761467Y-103324639D01*
X170829273Y-103307786D01*
X170880266Y-103321143D01*
X170948697Y-103355939D01*
X170948699Y-103355939D01*
X170948700Y-103355940D01*
X171015729Y-103375622D01*
X171015736Y-103375624D01*
X171101808Y-103388000D01*
X171101811Y-103388000D01*
X176694187Y-103388000D01*
X176696107Y-103387897D01*
X176726845Y-103386249D01*
X176753203Y-103383415D01*
X176760208Y-103382580D01*
X176866955Y-103347797D01*
X176928278Y-103314312D01*
X176997889Y-103262202D01*
X177163288Y-103096801D01*
X177224609Y-103063318D01*
X177294301Y-103068302D01*
X177350235Y-103110173D01*
X177357564Y-103121133D01*
X177362118Y-103128796D01*
X177379000Y-103169552D01*
X177445396Y-103268922D01*
X177447072Y-103271741D01*
X177454956Y-103302538D01*
X177464456Y-103332879D01*
X177463559Y-103336145D01*
X177464400Y-103339428D01*
X177454379Y-103369607D01*
X177445971Y-103400259D01*
X177442924Y-103404108D01*
X177442384Y-103405738D01*
X177440314Y-103407408D01*
X177428158Y-103422772D01*
X177392054Y-103458876D01*
X177392050Y-103458881D01*
X177290826Y-103610372D01*
X177290819Y-103610385D01*
X177221096Y-103778713D01*
X177221093Y-103778725D01*
X177217154Y-103798531D01*
X178055218Y-103798531D01*
X178035473Y-103818276D01*
X177986104Y-103903786D01*
X177960548Y-103999161D01*
X177960548Y-104097901D01*
X177986104Y-104193276D01*
X178035473Y-104278786D01*
X178055218Y-104298531D01*
X177217154Y-104298531D01*
X177221093Y-104318336D01*
X177221096Y-104318348D01*
X177290819Y-104486676D01*
X177290826Y-104486689D01*
X177392052Y-104638183D01*
X177392055Y-104638187D01*
X177520891Y-104767023D01*
X177520895Y-104767026D01*
X177672389Y-104868252D01*
X177672402Y-104868259D01*
X177840730Y-104937982D01*
X177840742Y-104937985D01*
X178019438Y-104973530D01*
X178019442Y-104973531D01*
X178085548Y-104973531D01*
X178085548Y-104328861D01*
X178105293Y-104348606D01*
X178190803Y-104397975D01*
X178286178Y-104423531D01*
X178384918Y-104423531D01*
X178480293Y-104397975D01*
X178565803Y-104348606D01*
X178585548Y-104328861D01*
X178585548Y-104973531D01*
X178651654Y-104973531D01*
X178651657Y-104973530D01*
X178830353Y-104937985D01*
X178830365Y-104937982D01*
X178998693Y-104868259D01*
X178998706Y-104868252D01*
X179150200Y-104767026D01*
X179150204Y-104767023D01*
X179279040Y-104638187D01*
X179279043Y-104638183D01*
X179380269Y-104486689D01*
X179380276Y-104486676D01*
X179449999Y-104318348D01*
X179450002Y-104318336D01*
X179453942Y-104298531D01*
X178615878Y-104298531D01*
X178635623Y-104278786D01*
X178684992Y-104193276D01*
X178710548Y-104097901D01*
X178710548Y-103999161D01*
X178684992Y-103903786D01*
X178635623Y-103818276D01*
X178615878Y-103798531D01*
X179453942Y-103798531D01*
X179450002Y-103778725D01*
X179449999Y-103778713D01*
X179380276Y-103610385D01*
X179380269Y-103610372D01*
X179279043Y-103458878D01*
X179279040Y-103458874D01*
X179242939Y-103422774D01*
X179209453Y-103361452D01*
X179214437Y-103291760D01*
X179227515Y-103266204D01*
X179292096Y-103169552D01*
X179354324Y-103019320D01*
X179386048Y-102859836D01*
X179386048Y-102697226D01*
X179386048Y-102697223D01*
X179354016Y-102536192D01*
X179360243Y-102466600D01*
X179403106Y-102411423D01*
X179468995Y-102388178D01*
X179475633Y-102388000D01*
X179919850Y-102388000D01*
X179919857Y-102388000D01*
X179999114Y-102377540D01*
X180061223Y-102360856D01*
X180061232Y-102360852D01*
X180061251Y-102360848D01*
X180112359Y-102342096D01*
X180203363Y-102276346D01*
X180251514Y-102225718D01*
X180301863Y-102154822D01*
X180804087Y-101177584D01*
X180852236Y-101126958D01*
X180915487Y-101110271D01*
X183302039Y-101131767D01*
X183367562Y-101125260D01*
X183419569Y-101114341D01*
X183458357Y-101103485D01*
X183555582Y-101047340D01*
X183608637Y-101001877D01*
X183651064Y-100957373D01*
X183702499Y-100857577D01*
X183722552Y-100790647D01*
X183735400Y-100704649D01*
X183750356Y-97988965D01*
X183750112Y-97986600D01*
X183743559Y-97923179D01*
X183743557Y-97923174D01*
X183743557Y-97923165D01*
X183732353Y-97870971D01*
X183721217Y-97831942D01*
X183664538Y-97735029D01*
X183618783Y-97682225D01*
X183618781Y-97682223D01*
X183618771Y-97682212D01*
X183574055Y-97640051D01*
X183574052Y-97640049D01*
X183574050Y-97640047D01*
X183473974Y-97589161D01*
X183473973Y-97589160D01*
X183473972Y-97589160D01*
X183406941Y-97569477D01*
X183406935Y-97569476D01*
X183320863Y-97557100D01*
X183320860Y-97557100D01*
X181701938Y-97557100D01*
X181634899Y-97537415D01*
X181622207Y-97528068D01*
X181180646Y-97157349D01*
X181166220Y-97145959D01*
X181154233Y-97137068D01*
X181152758Y-97136327D01*
X181060275Y-97089898D01*
X181060272Y-97089897D01*
X181060270Y-97089896D01*
X180993370Y-97069761D01*
X180907388Y-97056805D01*
X180082308Y-97051228D01*
X180015403Y-97031091D01*
X179970006Y-96977979D01*
X179960530Y-96908755D01*
X179967087Y-96885171D01*
X179967008Y-96885147D01*
X179968043Y-96881734D01*
X179968589Y-96879770D01*
X179968776Y-96879320D01*
X179987741Y-96783976D01*
X180000500Y-96719838D01*
X180000500Y-96557227D01*
X179998323Y-96546284D01*
X179992592Y-96517473D01*
X179998818Y-96447885D01*
X180037451Y-96398149D01*
X181195548Y-96398149D01*
X181198447Y-96434989D01*
X181198448Y-96434995D01*
X181244264Y-96592693D01*
X181244265Y-96592696D01*
X181327862Y-96734052D01*
X181327869Y-96734061D01*
X181443986Y-96850178D01*
X181443995Y-96850185D01*
X181585351Y-96933782D01*
X181585354Y-96933783D01*
X181743052Y-96979599D01*
X181743058Y-96979600D01*
X181779898Y-96982499D01*
X181779914Y-96982500D01*
X182245548Y-96982500D01*
X182745548Y-96982500D01*
X183211182Y-96982500D01*
X183211197Y-96982499D01*
X183248037Y-96979600D01*
X183248043Y-96979599D01*
X183405741Y-96933783D01*
X183405744Y-96933782D01*
X183547100Y-96850185D01*
X183547109Y-96850178D01*
X183663226Y-96734061D01*
X183663233Y-96734052D01*
X183746830Y-96592696D01*
X183746831Y-96592693D01*
X183792647Y-96434995D01*
X183792648Y-96434989D01*
X183795547Y-96398149D01*
X183795548Y-96398134D01*
X183795548Y-95582500D01*
X182745548Y-95582500D01*
X182745548Y-96982500D01*
X182245548Y-96982500D01*
X182245548Y-95582500D01*
X181195548Y-95582500D01*
X181195548Y-96398149D01*
X180037451Y-96398149D01*
X180041679Y-96392706D01*
X180055818Y-96383890D01*
X180107974Y-96356055D01*
X180159028Y-96321794D01*
X180230851Y-96235502D01*
X180264920Y-96174501D01*
X180296084Y-96093323D01*
X180386959Y-95693968D01*
X180392664Y-95660290D01*
X180395755Y-95632777D01*
X180397665Y-95598670D01*
X180397665Y-95204509D01*
X180392963Y-95151116D01*
X180385388Y-95108441D01*
X180371428Y-95056695D01*
X180108282Y-94338786D01*
X180104016Y-94327807D01*
X180100385Y-94318971D01*
X180097761Y-94314710D01*
X180068289Y-94266850D01*
X181195548Y-94266850D01*
X181195548Y-95082500D01*
X182245548Y-95082500D01*
X182745548Y-95082500D01*
X183795548Y-95082500D01*
X183795548Y-94266865D01*
X183795547Y-94266850D01*
X183792648Y-94230010D01*
X183792647Y-94230004D01*
X183746831Y-94072306D01*
X183746830Y-94072303D01*
X183663233Y-93930947D01*
X183663226Y-93930938D01*
X183547109Y-93814821D01*
X183547100Y-93814814D01*
X183405744Y-93731217D01*
X183405741Y-93731216D01*
X183248043Y-93685400D01*
X183248037Y-93685399D01*
X183211197Y-93682500D01*
X182745548Y-93682500D01*
X182745548Y-95082500D01*
X182245548Y-95082500D01*
X182245548Y-93682500D01*
X181779898Y-93682500D01*
X181743058Y-93685399D01*
X181743052Y-93685400D01*
X181585354Y-93731216D01*
X181585351Y-93731217D01*
X181443995Y-93814814D01*
X181443986Y-93814821D01*
X181327869Y-93930938D01*
X181327862Y-93930947D01*
X181244265Y-94072303D01*
X181244264Y-94072306D01*
X181198448Y-94230004D01*
X181198447Y-94230010D01*
X181195548Y-94266850D01*
X180068289Y-94266850D01*
X180048701Y-94235040D01*
X180048699Y-94235037D01*
X180048694Y-94235029D01*
X180002939Y-94182225D01*
X180002937Y-94182223D01*
X180002927Y-94182212D01*
X179958211Y-94140051D01*
X179958208Y-94140049D01*
X179958206Y-94140047D01*
X179858130Y-94089161D01*
X179858129Y-94089160D01*
X179858128Y-94089160D01*
X179791097Y-94069477D01*
X179791091Y-94069476D01*
X179705019Y-94057100D01*
X173371761Y-94057100D01*
X173371756Y-94057100D01*
X173288776Y-94068588D01*
X173288769Y-94068589D01*
X173288766Y-94068590D01*
X173285624Y-94069477D01*
X173223934Y-94086890D01*
X173223915Y-94086897D01*
X173169581Y-94108014D01*
X173169580Y-94108014D01*
X173080275Y-94176055D01*
X173033433Y-94227880D01*
X173033425Y-94227890D01*
X172984896Y-94300036D01*
X172984892Y-94300042D01*
X172883034Y-94511268D01*
X172836184Y-94563103D01*
X172790592Y-94575459D01*
X172276100Y-95089951D01*
X172276100Y-95067240D01*
X172250136Y-94970339D01*
X172199976Y-94883460D01*
X172129040Y-94812524D01*
X172042161Y-94762364D01*
X171945260Y-94736400D01*
X171922547Y-94736400D01*
X172429353Y-94229593D01*
X172385353Y-94200193D01*
X172196998Y-94122174D01*
X172196990Y-94122172D01*
X171997043Y-94082400D01*
X171793156Y-94082400D01*
X171593209Y-94122172D01*
X171593201Y-94122174D01*
X171404845Y-94200194D01*
X171360846Y-94229593D01*
X171360845Y-94229593D01*
X171867654Y-94736400D01*
X171844940Y-94736400D01*
X171748039Y-94762364D01*
X171661160Y-94812524D01*
X171590224Y-94883460D01*
X171540064Y-94970339D01*
X171514100Y-95067240D01*
X171514100Y-95089952D01*
X171007293Y-94583145D01*
X171007293Y-94583146D01*
X170977893Y-94627146D01*
X170955811Y-94680458D01*
X170911969Y-94734862D01*
X170845675Y-94756926D01*
X170777976Y-94739646D01*
X170730366Y-94688509D01*
X170726688Y-94680455D01*
X170724129Y-94674278D01*
X170724129Y-94674277D01*
X170724128Y-94674275D01*
X170724126Y-94674272D01*
X170724124Y-94674268D01*
X170621749Y-94521054D01*
X170621746Y-94521050D01*
X170491448Y-94390752D01*
X170491444Y-94390749D01*
X170473720Y-94378906D01*
X170338230Y-94288374D01*
X170338221Y-94288369D01*
X170167974Y-94217851D01*
X170167968Y-94217849D01*
X169987240Y-94181900D01*
X169987238Y-94181900D01*
X169802960Y-94181900D01*
X169802958Y-94181900D01*
X169622229Y-94217849D01*
X169622223Y-94217851D01*
X169451976Y-94288369D01*
X169451967Y-94288374D01*
X169298753Y-94390749D01*
X169298749Y-94390752D01*
X169168451Y-94521050D01*
X169168448Y-94521054D01*
X169066073Y-94674268D01*
X169066068Y-94674277D01*
X169009661Y-94810458D01*
X168965820Y-94864861D01*
X168899526Y-94886926D01*
X168831827Y-94869647D01*
X168784216Y-94818510D01*
X168780539Y-94810458D01*
X168724131Y-94674277D01*
X168724126Y-94674268D01*
X168621751Y-94521054D01*
X168621748Y-94521050D01*
X168491450Y-94390752D01*
X168491446Y-94390749D01*
X168338232Y-94288374D01*
X168338223Y-94288369D01*
X168167976Y-94217851D01*
X168167970Y-94217849D01*
X167987242Y-94181900D01*
X167987240Y-94181900D01*
X167802962Y-94181900D01*
X167802960Y-94181900D01*
X167622231Y-94217849D01*
X167622225Y-94217851D01*
X167451978Y-94288369D01*
X167451969Y-94288374D01*
X167298758Y-94390747D01*
X167298755Y-94390749D01*
X167297330Y-94392175D01*
X167296401Y-94392682D01*
X167294051Y-94394611D01*
X167293684Y-94394164D01*
X167236004Y-94425655D01*
X167166312Y-94420664D01*
X167141995Y-94408399D01*
X167132505Y-94402219D01*
X167120281Y-94390617D01*
X167093959Y-94377121D01*
X167088583Y-94373621D01*
X167088019Y-94372963D01*
X167086460Y-94372014D01*
X167086446Y-94372038D01*
X167085396Y-94371367D01*
X167084281Y-94370689D01*
X167083817Y-94370358D01*
X167083804Y-94370350D01*
X167083797Y-94370345D01*
X167030400Y-94339894D01*
X166992621Y-94330939D01*
X166992621Y-94330940D01*
X166972795Y-94326241D01*
X166973066Y-94325332D01*
X166953392Y-94319484D01*
X166929354Y-94315946D01*
X166924139Y-94314710D01*
X166924136Y-94314709D01*
X166921155Y-94314003D01*
X166921154Y-94314002D01*
X166921150Y-94314002D01*
X166919814Y-94313938D01*
X166907708Y-94312760D01*
X166892717Y-94310554D01*
X166867366Y-94306823D01*
X166867362Y-94306822D01*
X166867358Y-94306822D01*
X162902108Y-94293603D01*
X162816245Y-94305617D01*
X162749332Y-94324960D01*
X162749328Y-94324961D01*
X162749327Y-94324962D01*
X162716226Y-94339894D01*
X162670299Y-94360612D01*
X162343627Y-94568225D01*
X162343620Y-94568230D01*
X162292003Y-94609505D01*
X162254215Y-94647104D01*
X162227446Y-94677530D01*
X162176560Y-94777606D01*
X162156877Y-94844637D01*
X162156876Y-94844644D01*
X162150797Y-94886926D01*
X162144500Y-94930718D01*
X162144500Y-95785969D01*
X162155403Y-95866848D01*
X162155405Y-95866860D01*
X162172788Y-95930167D01*
X162172794Y-95930187D01*
X162192560Y-95982704D01*
X162192561Y-95982706D01*
X162259316Y-96072975D01*
X162310475Y-96120562D01*
X162381923Y-96170121D01*
X162381926Y-96170123D01*
X162511635Y-96234977D01*
X162562794Y-96282564D01*
X162580104Y-96350256D01*
X162574846Y-96381867D01*
X162573351Y-96386795D01*
X162541627Y-96546281D01*
X162541627Y-96546284D01*
X162541627Y-96708894D01*
X162541627Y-96708896D01*
X162541626Y-96708896D01*
X162573349Y-96868372D01*
X162573351Y-96868377D01*
X162576797Y-96876697D01*
X162584265Y-96946166D01*
X162552989Y-97008645D01*
X162492899Y-97044297D01*
X162463113Y-97048145D01*
X161227778Y-97056895D01*
X161156114Y-97065942D01*
X161099614Y-97080014D01*
X161032083Y-97105634D01*
X160194154Y-97543025D01*
X160136774Y-97557100D01*
X158508199Y-97557100D01*
X158508190Y-97557100D01*
X158508189Y-97557101D01*
X158443263Y-97564081D01*
X158443251Y-97564083D01*
X158391745Y-97575288D01*
X158353544Y-97586244D01*
X158353540Y-97586246D01*
X158256630Y-97642923D01*
X158256627Y-97642925D01*
X158203822Y-97688681D01*
X158203811Y-97688691D01*
X158161650Y-97733407D01*
X158161644Y-97733416D01*
X158110759Y-97833490D01*
X158091076Y-97900521D01*
X158078699Y-97986602D01*
X151200500Y-97986602D01*
X151200500Y-96398149D01*
X157992127Y-96398149D01*
X157995026Y-96434989D01*
X157995027Y-96434995D01*
X158040843Y-96592693D01*
X158040844Y-96592696D01*
X158124441Y-96734052D01*
X158124448Y-96734061D01*
X158240565Y-96850178D01*
X158240574Y-96850185D01*
X158381930Y-96933782D01*
X158381933Y-96933783D01*
X158539631Y-96979599D01*
X158539637Y-96979600D01*
X158576477Y-96982499D01*
X158576493Y-96982500D01*
X159042127Y-96982500D01*
X159542127Y-96982500D01*
X160007761Y-96982500D01*
X160007776Y-96982499D01*
X160044616Y-96979600D01*
X160044622Y-96979599D01*
X160202320Y-96933783D01*
X160202323Y-96933782D01*
X160343679Y-96850185D01*
X160343688Y-96850178D01*
X160459805Y-96734061D01*
X160459812Y-96734052D01*
X160543409Y-96592696D01*
X160543410Y-96592693D01*
X160589226Y-96434995D01*
X160589227Y-96434989D01*
X160592126Y-96398149D01*
X160592127Y-96398134D01*
X160592127Y-95582500D01*
X159542127Y-95582500D01*
X159542127Y-96982500D01*
X159042127Y-96982500D01*
X159042127Y-95582500D01*
X157992127Y-95582500D01*
X157992127Y-96398149D01*
X151200500Y-96398149D01*
X151200500Y-94266850D01*
X157992127Y-94266850D01*
X157992127Y-95082500D01*
X159042127Y-95082500D01*
X159542127Y-95082500D01*
X160592127Y-95082500D01*
X160592127Y-94266865D01*
X160592126Y-94266850D01*
X160589227Y-94230010D01*
X160589226Y-94230004D01*
X160543410Y-94072306D01*
X160543409Y-94072303D01*
X160459812Y-93930947D01*
X160459805Y-93930938D01*
X160343688Y-93814821D01*
X160343679Y-93814814D01*
X160202323Y-93731217D01*
X160202320Y-93731216D01*
X160044622Y-93685400D01*
X160044616Y-93685399D01*
X160007776Y-93682500D01*
X159542127Y-93682500D01*
X159542127Y-95082500D01*
X159042127Y-95082500D01*
X159042127Y-93682500D01*
X158576477Y-93682500D01*
X158539637Y-93685399D01*
X158539631Y-93685400D01*
X158381933Y-93731216D01*
X158381930Y-93731217D01*
X158240574Y-93814814D01*
X158240565Y-93814821D01*
X158124448Y-93930938D01*
X158124441Y-93930947D01*
X158040844Y-94072303D01*
X158040843Y-94072306D01*
X157995027Y-94230004D01*
X157995026Y-94230010D01*
X157992127Y-94266850D01*
X151200500Y-94266850D01*
X151200500Y-89869561D01*
X151201280Y-89855677D01*
X151201280Y-89855676D01*
X151211460Y-89765329D01*
X151217635Y-89738270D01*
X151245353Y-89659056D01*
X151257396Y-89634050D01*
X151302046Y-89562989D01*
X151319351Y-89541290D01*
X151378690Y-89481951D01*
X151400389Y-89464646D01*
X151471450Y-89419996D01*
X151496456Y-89407953D01*
X151575670Y-89380235D01*
X151602733Y-89374059D01*
X151665419Y-89366996D01*
X151693079Y-89363880D01*
X151706962Y-89363100D01*
X151765892Y-89363100D01*
X190434108Y-89363100D01*
X190493038Y-89363100D01*
X190506922Y-89363880D01*
G37*
G04 #@! TD.AperFunction*
G04 #@! TD*
M02*
