%TF.GenerationSoftware,KiCad,Pcbnew,9.0.4*%
%TF.CreationDate,2025-08-24T17:12:50+02:00*%
%TF.ProjectId,npn-pnp-h-bridge,6e706e2d-706e-4702-9d68-2d6272696467,rev?*%
%TF.SameCoordinates,Original*%
%TF.FileFunction,Drillmap*%
%TF.FilePolarity,Positive*%
%FSLAX45Y45*%
G04 Gerber Fmt 4.5, Leading zero omitted, Abs format (unit mm)*
G04 Created by KiCad (PCBNEW 9.0.4) date 2025-08-24 17:12:50*
%MOMM*%
%LPD*%
G01*
G04 APERTURE LIST*
%ADD10C,0.050000*%
%ADD11C,0.200000*%
%ADD12C,0.100000*%
G04 APERTURE END LIST*
D10*
X19189289Y-10725000D02*
X14970711Y-10725000D01*
X14970711Y-8886260D02*
X19189290Y-8886260D01*
X19189289Y-8886260D02*
G75*
G02*
X19289290Y-8986260I1J-100000D01*
G01*
X14870711Y-8986260D02*
G75*
G02*
X14970711Y-8886261I99999J0D01*
G01*
X14970711Y-10725000D02*
G75*
G02*
X14870710Y-10625000I-1J100000D01*
G01*
X14870711Y-10625000D02*
X14870711Y-8986260D01*
X19289289Y-10625000D02*
G75*
G02*
X19189289Y-10724999I-99999J0D01*
G01*
X19289289Y-8986260D02*
X19289289Y-10625000D01*
D11*
D12*
X15015711Y-9565000D02*
X15045711Y-9595000D01*
X15045711Y-9565000D02*
X15015711Y-9595000D01*
X15150000Y-9565000D02*
X15180000Y-9595000D01*
X15180000Y-9565000D02*
X15150000Y-9595000D01*
X15225000Y-9425000D02*
X15255000Y-9455000D01*
X15255000Y-9425000D02*
X15225000Y-9455000D01*
X15265000Y-9865000D02*
X15295000Y-9895000D01*
X15295000Y-9865000D02*
X15265000Y-9895000D01*
X15265000Y-10245000D02*
X15295000Y-10275000D01*
X15295000Y-10245000D02*
X15265000Y-10275000D01*
X15465000Y-9425000D02*
X15495000Y-9455000D01*
X15495000Y-9425000D02*
X15465000Y-9455000D01*
X15625000Y-10485000D02*
X15655000Y-10515000D01*
X15655000Y-10485000D02*
X15625000Y-10515000D01*
X15625000Y-10550000D02*
X15655000Y-10580000D01*
X15655000Y-10550000D02*
X15625000Y-10580000D01*
X15625000Y-10625000D02*
X15655000Y-10655000D01*
X15655000Y-10625000D02*
X15625000Y-10655000D01*
X15865000Y-10625000D02*
X15895000Y-10655000D01*
X15895000Y-10625000D02*
X15865000Y-10655000D01*
X15885000Y-10225000D02*
X15915000Y-10255000D01*
X15915000Y-10225000D02*
X15885000Y-10255000D01*
X16005000Y-9148560D02*
X16035000Y-9178560D01*
X16035000Y-9148560D02*
X16005000Y-9178560D01*
X16105000Y-10546260D02*
X16135000Y-10576260D01*
X16135000Y-10546260D02*
X16105000Y-10576260D01*
X16105000Y-10621260D02*
X16135000Y-10651260D01*
X16135000Y-10621260D02*
X16105000Y-10651260D01*
X16580000Y-10396260D02*
X16610000Y-10426260D01*
X16610000Y-10396260D02*
X16580000Y-10426260D01*
X16705000Y-10396260D02*
X16735000Y-10426260D01*
X16735000Y-10396260D02*
X16705000Y-10426260D01*
X17430000Y-10396260D02*
X17460000Y-10426260D01*
X17460000Y-10396260D02*
X17430000Y-10426260D01*
X17555000Y-10396260D02*
X17585000Y-10426260D01*
X17585000Y-10396260D02*
X17555000Y-10426260D01*
X18030000Y-10546260D02*
X18060000Y-10576260D01*
X18060000Y-10546260D02*
X18030000Y-10576260D01*
X18030000Y-10621260D02*
X18060000Y-10651260D01*
X18060000Y-10621260D02*
X18030000Y-10651260D01*
X18095000Y-9148291D02*
X18125000Y-9178291D01*
X18125000Y-9148291D02*
X18095000Y-9178291D01*
X18185000Y-10165000D02*
X18215000Y-10195000D01*
X18215000Y-10165000D02*
X18185000Y-10195000D01*
X18185000Y-10407706D02*
X18215000Y-10437706D01*
X18215000Y-10407706D02*
X18185000Y-10437706D01*
X18225000Y-10625000D02*
X18255000Y-10655000D01*
X18255000Y-10625000D02*
X18225000Y-10655000D01*
X18645000Y-9405000D02*
X18675000Y-9435000D01*
X18675000Y-9405000D02*
X18645000Y-9435000D01*
X18865000Y-9845000D02*
X18895000Y-9875000D01*
X18895000Y-9845000D02*
X18865000Y-9875000D01*
X18865000Y-10225000D02*
X18895000Y-10255000D01*
X18895000Y-10225000D02*
X18865000Y-10255000D01*
X18885000Y-9405000D02*
X18915000Y-9435000D01*
X18915000Y-9405000D02*
X18885000Y-9435000D01*
X18945000Y-9545000D02*
X18975000Y-9575000D01*
X18975000Y-9545000D02*
X18945000Y-9575000D01*
X19105000Y-9545000D02*
X19135000Y-9575000D01*
X19135000Y-9545000D02*
X19105000Y-9575000D01*
X16323713Y-10142759D02*
G75*
G02*
X16248713Y-10142759I-37500J0D01*
G01*
X16248713Y-10142759D02*
G75*
G02*
X16323713Y-10142759I37500J0D01*
G01*
X16323713Y-10269759D02*
G75*
G02*
X16248713Y-10269759I-37500J0D01*
G01*
X16248713Y-10269759D02*
G75*
G02*
X16323713Y-10269759I37500J0D01*
G01*
X16323713Y-10396759D02*
G75*
G02*
X16248713Y-10396759I-37500J0D01*
G01*
X16248713Y-10396759D02*
G75*
G02*
X16323713Y-10396759I37500J0D01*
G01*
X16396713Y-9535759D02*
G75*
G02*
X16321713Y-9535759I-37500J0D01*
G01*
X16321713Y-9535759D02*
G75*
G02*
X16396713Y-9535759I37500J0D01*
G01*
X16396713Y-9662759D02*
G75*
G02*
X16321713Y-9662759I-37500J0D01*
G01*
X16321713Y-9662759D02*
G75*
G02*
X16396713Y-9662759I37500J0D01*
G01*
X16396713Y-9789759D02*
G75*
G02*
X16321713Y-9789759I-37500J0D01*
G01*
X16321713Y-9789759D02*
G75*
G02*
X16396713Y-9789759I37500J0D01*
G01*
X17871055Y-10150853D02*
G75*
G02*
X17796055Y-10150853I-37500J0D01*
G01*
X17796055Y-10150853D02*
G75*
G02*
X17871055Y-10150853I37500J0D01*
G01*
X17871055Y-10277853D02*
G75*
G02*
X17796055Y-10277853I-37500J0D01*
G01*
X17796055Y-10277853D02*
G75*
G02*
X17871055Y-10277853I37500J0D01*
G01*
X17871055Y-10404853D02*
G75*
G02*
X17796055Y-10404853I-37500J0D01*
G01*
X17796055Y-10404853D02*
G75*
G02*
X17871055Y-10404853I37500J0D01*
G01*
X17932500Y-9536853D02*
G75*
G02*
X17857500Y-9536853I-37500J0D01*
G01*
X17857500Y-9536853D02*
G75*
G02*
X17932500Y-9536853I37500J0D01*
G01*
X17932500Y-9663853D02*
G75*
G02*
X17857500Y-9663853I-37500J0D01*
G01*
X17857500Y-9663853D02*
G75*
G02*
X17932500Y-9663853I37500J0D01*
G01*
X17932500Y-9790853D02*
G75*
G02*
X17857500Y-9790853I-37500J0D01*
G01*
X17857500Y-9790853D02*
G75*
G02*
X17932500Y-9790853I37500J0D01*
G01*
X16789510Y-9473640D02*
X16789510Y-9549840D01*
X16751410Y-9511740D02*
X16827610Y-9511740D01*
X16989510Y-9473640D02*
X16989510Y-9549840D01*
X16951410Y-9511740D02*
X17027610Y-9511740D01*
X17189510Y-9473640D02*
X17189510Y-9549840D01*
X17151410Y-9511740D02*
X17227610Y-9511740D01*
X17389510Y-9473640D02*
X17389510Y-9549840D01*
X17351410Y-9511740D02*
X17427610Y-9511740D01*
X17008285Y-10148285D02*
X17008285Y-10091716D01*
X16951716Y-10091716D01*
X16951716Y-10148285D01*
X17008285Y-10148285D01*
X17208285Y-10148285D02*
X17208285Y-10091716D01*
X17151716Y-10091716D01*
X17151716Y-10148285D01*
X17208285Y-10148285D01*
D11*
X15128987Y-11038984D02*
X15128987Y-10838984D01*
X15128987Y-10838984D02*
X15176606Y-10838984D01*
X15176606Y-10838984D02*
X15205178Y-10848508D01*
X15205178Y-10848508D02*
X15224226Y-10867555D01*
X15224226Y-10867555D02*
X15233749Y-10886603D01*
X15233749Y-10886603D02*
X15243273Y-10924698D01*
X15243273Y-10924698D02*
X15243273Y-10953270D01*
X15243273Y-10953270D02*
X15233749Y-10991365D01*
X15233749Y-10991365D02*
X15224226Y-11010412D01*
X15224226Y-11010412D02*
X15205178Y-11029460D01*
X15205178Y-11029460D02*
X15176606Y-11038984D01*
X15176606Y-11038984D02*
X15128987Y-11038984D01*
X15328987Y-11038984D02*
X15328987Y-10905650D01*
X15328987Y-10943746D02*
X15338511Y-10924698D01*
X15338511Y-10924698D02*
X15348035Y-10915174D01*
X15348035Y-10915174D02*
X15367083Y-10905650D01*
X15367083Y-10905650D02*
X15386130Y-10905650D01*
X15452797Y-11038984D02*
X15452797Y-10905650D01*
X15452797Y-10838984D02*
X15443273Y-10848508D01*
X15443273Y-10848508D02*
X15452797Y-10858031D01*
X15452797Y-10858031D02*
X15462321Y-10848508D01*
X15462321Y-10848508D02*
X15452797Y-10838984D01*
X15452797Y-10838984D02*
X15452797Y-10858031D01*
X15576606Y-11038984D02*
X15557559Y-11029460D01*
X15557559Y-11029460D02*
X15548035Y-11010412D01*
X15548035Y-11010412D02*
X15548035Y-10838984D01*
X15681368Y-11038984D02*
X15662321Y-11029460D01*
X15662321Y-11029460D02*
X15652797Y-11010412D01*
X15652797Y-11010412D02*
X15652797Y-10838984D01*
X15909940Y-11038984D02*
X15909940Y-10838984D01*
X15909940Y-10838984D02*
X15976607Y-10981841D01*
X15976607Y-10981841D02*
X16043273Y-10838984D01*
X16043273Y-10838984D02*
X16043273Y-11038984D01*
X16224226Y-11038984D02*
X16224226Y-10934222D01*
X16224226Y-10934222D02*
X16214702Y-10915174D01*
X16214702Y-10915174D02*
X16195654Y-10905650D01*
X16195654Y-10905650D02*
X16157559Y-10905650D01*
X16157559Y-10905650D02*
X16138511Y-10915174D01*
X16224226Y-11029460D02*
X16205178Y-11038984D01*
X16205178Y-11038984D02*
X16157559Y-11038984D01*
X16157559Y-11038984D02*
X16138511Y-11029460D01*
X16138511Y-11029460D02*
X16128987Y-11010412D01*
X16128987Y-11010412D02*
X16128987Y-10991365D01*
X16128987Y-10991365D02*
X16138511Y-10972317D01*
X16138511Y-10972317D02*
X16157559Y-10962793D01*
X16157559Y-10962793D02*
X16205178Y-10962793D01*
X16205178Y-10962793D02*
X16224226Y-10953270D01*
X16319464Y-10905650D02*
X16319464Y-11105650D01*
X16319464Y-10915174D02*
X16338511Y-10905650D01*
X16338511Y-10905650D02*
X16376607Y-10905650D01*
X16376607Y-10905650D02*
X16395654Y-10915174D01*
X16395654Y-10915174D02*
X16405178Y-10924698D01*
X16405178Y-10924698D02*
X16414702Y-10943746D01*
X16414702Y-10943746D02*
X16414702Y-11000889D01*
X16414702Y-11000889D02*
X16405178Y-11019936D01*
X16405178Y-11019936D02*
X16395654Y-11029460D01*
X16395654Y-11029460D02*
X16376607Y-11038984D01*
X16376607Y-11038984D02*
X16338511Y-11038984D01*
X16338511Y-11038984D02*
X16319464Y-11029460D01*
X16500416Y-11019936D02*
X16509940Y-11029460D01*
X16509940Y-11029460D02*
X16500416Y-11038984D01*
X16500416Y-11038984D02*
X16490892Y-11029460D01*
X16490892Y-11029460D02*
X16500416Y-11019936D01*
X16500416Y-11019936D02*
X16500416Y-11038984D01*
X16500416Y-10915174D02*
X16509940Y-10924698D01*
X16509940Y-10924698D02*
X16500416Y-10934222D01*
X16500416Y-10934222D02*
X16490892Y-10924698D01*
X16490892Y-10924698D02*
X16500416Y-10915174D01*
X16500416Y-10915174D02*
X16500416Y-10934222D01*
D12*
X14838211Y-11352500D02*
X14868211Y-11382500D01*
X14868211Y-11352500D02*
X14838211Y-11382500D01*
D11*
X15167083Y-11258984D02*
X15186130Y-11258984D01*
X15186130Y-11258984D02*
X15205178Y-11268508D01*
X15205178Y-11268508D02*
X15214702Y-11278031D01*
X15214702Y-11278031D02*
X15224226Y-11297079D01*
X15224226Y-11297079D02*
X15233749Y-11335174D01*
X15233749Y-11335174D02*
X15233749Y-11382793D01*
X15233749Y-11382793D02*
X15224226Y-11420888D01*
X15224226Y-11420888D02*
X15214702Y-11439936D01*
X15214702Y-11439936D02*
X15205178Y-11449460D01*
X15205178Y-11449460D02*
X15186130Y-11458984D01*
X15186130Y-11458984D02*
X15167083Y-11458984D01*
X15167083Y-11458984D02*
X15148035Y-11449460D01*
X15148035Y-11449460D02*
X15138511Y-11439936D01*
X15138511Y-11439936D02*
X15128987Y-11420888D01*
X15128987Y-11420888D02*
X15119464Y-11382793D01*
X15119464Y-11382793D02*
X15119464Y-11335174D01*
X15119464Y-11335174D02*
X15128987Y-11297079D01*
X15128987Y-11297079D02*
X15138511Y-11278031D01*
X15138511Y-11278031D02*
X15148035Y-11268508D01*
X15148035Y-11268508D02*
X15167083Y-11258984D01*
X15319464Y-11439936D02*
X15328987Y-11449460D01*
X15328987Y-11449460D02*
X15319464Y-11458984D01*
X15319464Y-11458984D02*
X15309940Y-11449460D01*
X15309940Y-11449460D02*
X15319464Y-11439936D01*
X15319464Y-11439936D02*
X15319464Y-11458984D01*
X15395654Y-11258984D02*
X15519464Y-11258984D01*
X15519464Y-11258984D02*
X15452797Y-11335174D01*
X15452797Y-11335174D02*
X15481368Y-11335174D01*
X15481368Y-11335174D02*
X15500416Y-11344698D01*
X15500416Y-11344698D02*
X15509940Y-11354222D01*
X15509940Y-11354222D02*
X15519464Y-11373269D01*
X15519464Y-11373269D02*
X15519464Y-11420888D01*
X15519464Y-11420888D02*
X15509940Y-11439936D01*
X15509940Y-11439936D02*
X15500416Y-11449460D01*
X15500416Y-11449460D02*
X15481368Y-11458984D01*
X15481368Y-11458984D02*
X15424226Y-11458984D01*
X15424226Y-11458984D02*
X15405178Y-11449460D01*
X15405178Y-11449460D02*
X15395654Y-11439936D01*
X15643273Y-11258984D02*
X15662321Y-11258984D01*
X15662321Y-11258984D02*
X15681368Y-11268508D01*
X15681368Y-11268508D02*
X15690892Y-11278031D01*
X15690892Y-11278031D02*
X15700416Y-11297079D01*
X15700416Y-11297079D02*
X15709940Y-11335174D01*
X15709940Y-11335174D02*
X15709940Y-11382793D01*
X15709940Y-11382793D02*
X15700416Y-11420888D01*
X15700416Y-11420888D02*
X15690892Y-11439936D01*
X15690892Y-11439936D02*
X15681368Y-11449460D01*
X15681368Y-11449460D02*
X15662321Y-11458984D01*
X15662321Y-11458984D02*
X15643273Y-11458984D01*
X15643273Y-11458984D02*
X15624226Y-11449460D01*
X15624226Y-11449460D02*
X15614702Y-11439936D01*
X15614702Y-11439936D02*
X15605178Y-11420888D01*
X15605178Y-11420888D02*
X15595654Y-11382793D01*
X15595654Y-11382793D02*
X15595654Y-11335174D01*
X15595654Y-11335174D02*
X15605178Y-11297079D01*
X15605178Y-11297079D02*
X15614702Y-11278031D01*
X15614702Y-11278031D02*
X15624226Y-11268508D01*
X15624226Y-11268508D02*
X15643273Y-11258984D01*
X15833749Y-11258984D02*
X15852797Y-11258984D01*
X15852797Y-11258984D02*
X15871845Y-11268508D01*
X15871845Y-11268508D02*
X15881368Y-11278031D01*
X15881368Y-11278031D02*
X15890892Y-11297079D01*
X15890892Y-11297079D02*
X15900416Y-11335174D01*
X15900416Y-11335174D02*
X15900416Y-11382793D01*
X15900416Y-11382793D02*
X15890892Y-11420888D01*
X15890892Y-11420888D02*
X15881368Y-11439936D01*
X15881368Y-11439936D02*
X15871845Y-11449460D01*
X15871845Y-11449460D02*
X15852797Y-11458984D01*
X15852797Y-11458984D02*
X15833749Y-11458984D01*
X15833749Y-11458984D02*
X15814702Y-11449460D01*
X15814702Y-11449460D02*
X15805178Y-11439936D01*
X15805178Y-11439936D02*
X15795654Y-11420888D01*
X15795654Y-11420888D02*
X15786130Y-11382793D01*
X15786130Y-11382793D02*
X15786130Y-11335174D01*
X15786130Y-11335174D02*
X15795654Y-11297079D01*
X15795654Y-11297079D02*
X15805178Y-11278031D01*
X15805178Y-11278031D02*
X15814702Y-11268508D01*
X15814702Y-11268508D02*
X15833749Y-11258984D01*
X15986130Y-11458984D02*
X15986130Y-11325650D01*
X15986130Y-11344698D02*
X15995654Y-11335174D01*
X15995654Y-11335174D02*
X16014702Y-11325650D01*
X16014702Y-11325650D02*
X16043273Y-11325650D01*
X16043273Y-11325650D02*
X16062321Y-11335174D01*
X16062321Y-11335174D02*
X16071845Y-11354222D01*
X16071845Y-11354222D02*
X16071845Y-11458984D01*
X16071845Y-11354222D02*
X16081368Y-11335174D01*
X16081368Y-11335174D02*
X16100416Y-11325650D01*
X16100416Y-11325650D02*
X16128987Y-11325650D01*
X16128987Y-11325650D02*
X16148035Y-11335174D01*
X16148035Y-11335174D02*
X16157559Y-11354222D01*
X16157559Y-11354222D02*
X16157559Y-11458984D01*
X16252797Y-11458984D02*
X16252797Y-11325650D01*
X16252797Y-11344698D02*
X16262321Y-11335174D01*
X16262321Y-11335174D02*
X16281368Y-11325650D01*
X16281368Y-11325650D02*
X16309940Y-11325650D01*
X16309940Y-11325650D02*
X16328988Y-11335174D01*
X16328988Y-11335174D02*
X16338511Y-11354222D01*
X16338511Y-11354222D02*
X16338511Y-11458984D01*
X16338511Y-11354222D02*
X16348035Y-11335174D01*
X16348035Y-11335174D02*
X16367083Y-11325650D01*
X16367083Y-11325650D02*
X16395654Y-11325650D01*
X16395654Y-11325650D02*
X16414702Y-11335174D01*
X16414702Y-11335174D02*
X16424226Y-11354222D01*
X16424226Y-11354222D02*
X16424226Y-11458984D01*
X16814702Y-11249460D02*
X16643273Y-11506603D01*
X17071845Y-11258984D02*
X17090893Y-11258984D01*
X17090893Y-11258984D02*
X17109940Y-11268508D01*
X17109940Y-11268508D02*
X17119464Y-11278031D01*
X17119464Y-11278031D02*
X17128988Y-11297079D01*
X17128988Y-11297079D02*
X17138512Y-11335174D01*
X17138512Y-11335174D02*
X17138512Y-11382793D01*
X17138512Y-11382793D02*
X17128988Y-11420888D01*
X17128988Y-11420888D02*
X17119464Y-11439936D01*
X17119464Y-11439936D02*
X17109940Y-11449460D01*
X17109940Y-11449460D02*
X17090893Y-11458984D01*
X17090893Y-11458984D02*
X17071845Y-11458984D01*
X17071845Y-11458984D02*
X17052797Y-11449460D01*
X17052797Y-11449460D02*
X17043273Y-11439936D01*
X17043273Y-11439936D02*
X17033750Y-11420888D01*
X17033750Y-11420888D02*
X17024226Y-11382793D01*
X17024226Y-11382793D02*
X17024226Y-11335174D01*
X17024226Y-11335174D02*
X17033750Y-11297079D01*
X17033750Y-11297079D02*
X17043273Y-11278031D01*
X17043273Y-11278031D02*
X17052797Y-11268508D01*
X17052797Y-11268508D02*
X17071845Y-11258984D01*
X17224226Y-11439936D02*
X17233750Y-11449460D01*
X17233750Y-11449460D02*
X17224226Y-11458984D01*
X17224226Y-11458984D02*
X17214702Y-11449460D01*
X17214702Y-11449460D02*
X17224226Y-11439936D01*
X17224226Y-11439936D02*
X17224226Y-11458984D01*
X17357559Y-11258984D02*
X17376607Y-11258984D01*
X17376607Y-11258984D02*
X17395654Y-11268508D01*
X17395654Y-11268508D02*
X17405178Y-11278031D01*
X17405178Y-11278031D02*
X17414702Y-11297079D01*
X17414702Y-11297079D02*
X17424226Y-11335174D01*
X17424226Y-11335174D02*
X17424226Y-11382793D01*
X17424226Y-11382793D02*
X17414702Y-11420888D01*
X17414702Y-11420888D02*
X17405178Y-11439936D01*
X17405178Y-11439936D02*
X17395654Y-11449460D01*
X17395654Y-11449460D02*
X17376607Y-11458984D01*
X17376607Y-11458984D02*
X17357559Y-11458984D01*
X17357559Y-11458984D02*
X17338512Y-11449460D01*
X17338512Y-11449460D02*
X17328988Y-11439936D01*
X17328988Y-11439936D02*
X17319464Y-11420888D01*
X17319464Y-11420888D02*
X17309940Y-11382793D01*
X17309940Y-11382793D02*
X17309940Y-11335174D01*
X17309940Y-11335174D02*
X17319464Y-11297079D01*
X17319464Y-11297079D02*
X17328988Y-11278031D01*
X17328988Y-11278031D02*
X17338512Y-11268508D01*
X17338512Y-11268508D02*
X17357559Y-11258984D01*
X17614702Y-11458984D02*
X17500416Y-11458984D01*
X17557559Y-11458984D02*
X17557559Y-11258984D01*
X17557559Y-11258984D02*
X17538512Y-11287555D01*
X17538512Y-11287555D02*
X17519464Y-11306603D01*
X17519464Y-11306603D02*
X17500416Y-11316127D01*
X17805178Y-11458984D02*
X17690893Y-11458984D01*
X17748035Y-11458984D02*
X17748035Y-11258984D01*
X17748035Y-11258984D02*
X17728988Y-11287555D01*
X17728988Y-11287555D02*
X17709940Y-11306603D01*
X17709940Y-11306603D02*
X17690893Y-11316127D01*
X17919464Y-11344698D02*
X17900416Y-11335174D01*
X17900416Y-11335174D02*
X17890893Y-11325650D01*
X17890893Y-11325650D02*
X17881369Y-11306603D01*
X17881369Y-11306603D02*
X17881369Y-11297079D01*
X17881369Y-11297079D02*
X17890893Y-11278031D01*
X17890893Y-11278031D02*
X17900416Y-11268508D01*
X17900416Y-11268508D02*
X17919464Y-11258984D01*
X17919464Y-11258984D02*
X17957559Y-11258984D01*
X17957559Y-11258984D02*
X17976607Y-11268508D01*
X17976607Y-11268508D02*
X17986131Y-11278031D01*
X17986131Y-11278031D02*
X17995654Y-11297079D01*
X17995654Y-11297079D02*
X17995654Y-11306603D01*
X17995654Y-11306603D02*
X17986131Y-11325650D01*
X17986131Y-11325650D02*
X17976607Y-11335174D01*
X17976607Y-11335174D02*
X17957559Y-11344698D01*
X17957559Y-11344698D02*
X17919464Y-11344698D01*
X17919464Y-11344698D02*
X17900416Y-11354222D01*
X17900416Y-11354222D02*
X17890893Y-11363746D01*
X17890893Y-11363746D02*
X17881369Y-11382793D01*
X17881369Y-11382793D02*
X17881369Y-11420888D01*
X17881369Y-11420888D02*
X17890893Y-11439936D01*
X17890893Y-11439936D02*
X17900416Y-11449460D01*
X17900416Y-11449460D02*
X17919464Y-11458984D01*
X17919464Y-11458984D02*
X17957559Y-11458984D01*
X17957559Y-11458984D02*
X17976607Y-11449460D01*
X17976607Y-11449460D02*
X17986131Y-11439936D01*
X17986131Y-11439936D02*
X17995654Y-11420888D01*
X17995654Y-11420888D02*
X17995654Y-11382793D01*
X17995654Y-11382793D02*
X17986131Y-11363746D01*
X17986131Y-11363746D02*
X17976607Y-11354222D01*
X17976607Y-11354222D02*
X17957559Y-11344698D01*
X18071845Y-11258984D02*
X18071845Y-11297079D01*
X18148035Y-11258984D02*
X18148035Y-11297079D01*
X18443274Y-11535174D02*
X18433750Y-11525650D01*
X18433750Y-11525650D02*
X18414702Y-11497079D01*
X18414702Y-11497079D02*
X18405178Y-11478031D01*
X18405178Y-11478031D02*
X18395655Y-11449460D01*
X18395655Y-11449460D02*
X18386131Y-11401841D01*
X18386131Y-11401841D02*
X18386131Y-11363746D01*
X18386131Y-11363746D02*
X18395655Y-11316127D01*
X18395655Y-11316127D02*
X18405178Y-11287555D01*
X18405178Y-11287555D02*
X18414702Y-11268508D01*
X18414702Y-11268508D02*
X18433750Y-11239936D01*
X18433750Y-11239936D02*
X18443274Y-11230412D01*
X18500416Y-11258984D02*
X18624226Y-11258984D01*
X18624226Y-11258984D02*
X18557559Y-11335174D01*
X18557559Y-11335174D02*
X18586131Y-11335174D01*
X18586131Y-11335174D02*
X18605178Y-11344698D01*
X18605178Y-11344698D02*
X18614702Y-11354222D01*
X18614702Y-11354222D02*
X18624226Y-11373269D01*
X18624226Y-11373269D02*
X18624226Y-11420888D01*
X18624226Y-11420888D02*
X18614702Y-11439936D01*
X18614702Y-11439936D02*
X18605178Y-11449460D01*
X18605178Y-11449460D02*
X18586131Y-11458984D01*
X18586131Y-11458984D02*
X18528988Y-11458984D01*
X18528988Y-11458984D02*
X18509940Y-11449460D01*
X18509940Y-11449460D02*
X18500416Y-11439936D01*
X18748035Y-11258984D02*
X18767083Y-11258984D01*
X18767083Y-11258984D02*
X18786131Y-11268508D01*
X18786131Y-11268508D02*
X18795655Y-11278031D01*
X18795655Y-11278031D02*
X18805178Y-11297079D01*
X18805178Y-11297079D02*
X18814702Y-11335174D01*
X18814702Y-11335174D02*
X18814702Y-11382793D01*
X18814702Y-11382793D02*
X18805178Y-11420888D01*
X18805178Y-11420888D02*
X18795655Y-11439936D01*
X18795655Y-11439936D02*
X18786131Y-11449460D01*
X18786131Y-11449460D02*
X18767083Y-11458984D01*
X18767083Y-11458984D02*
X18748035Y-11458984D01*
X18748035Y-11458984D02*
X18728988Y-11449460D01*
X18728988Y-11449460D02*
X18719464Y-11439936D01*
X18719464Y-11439936D02*
X18709940Y-11420888D01*
X18709940Y-11420888D02*
X18700416Y-11382793D01*
X18700416Y-11382793D02*
X18700416Y-11335174D01*
X18700416Y-11335174D02*
X18709940Y-11297079D01*
X18709940Y-11297079D02*
X18719464Y-11278031D01*
X18719464Y-11278031D02*
X18728988Y-11268508D01*
X18728988Y-11268508D02*
X18748035Y-11258984D01*
X19052797Y-11458984D02*
X19052797Y-11258984D01*
X19138512Y-11458984D02*
X19138512Y-11354222D01*
X19138512Y-11354222D02*
X19128988Y-11335174D01*
X19128988Y-11335174D02*
X19109940Y-11325650D01*
X19109940Y-11325650D02*
X19081369Y-11325650D01*
X19081369Y-11325650D02*
X19062321Y-11335174D01*
X19062321Y-11335174D02*
X19052797Y-11344698D01*
X19262321Y-11458984D02*
X19243274Y-11449460D01*
X19243274Y-11449460D02*
X19233750Y-11439936D01*
X19233750Y-11439936D02*
X19224226Y-11420888D01*
X19224226Y-11420888D02*
X19224226Y-11363746D01*
X19224226Y-11363746D02*
X19233750Y-11344698D01*
X19233750Y-11344698D02*
X19243274Y-11335174D01*
X19243274Y-11335174D02*
X19262321Y-11325650D01*
X19262321Y-11325650D02*
X19290893Y-11325650D01*
X19290893Y-11325650D02*
X19309940Y-11335174D01*
X19309940Y-11335174D02*
X19319464Y-11344698D01*
X19319464Y-11344698D02*
X19328988Y-11363746D01*
X19328988Y-11363746D02*
X19328988Y-11420888D01*
X19328988Y-11420888D02*
X19319464Y-11439936D01*
X19319464Y-11439936D02*
X19309940Y-11449460D01*
X19309940Y-11449460D02*
X19290893Y-11458984D01*
X19290893Y-11458984D02*
X19262321Y-11458984D01*
X19443274Y-11458984D02*
X19424226Y-11449460D01*
X19424226Y-11449460D02*
X19414702Y-11430412D01*
X19414702Y-11430412D02*
X19414702Y-11258984D01*
X19595655Y-11449460D02*
X19576607Y-11458984D01*
X19576607Y-11458984D02*
X19538512Y-11458984D01*
X19538512Y-11458984D02*
X19519464Y-11449460D01*
X19519464Y-11449460D02*
X19509940Y-11430412D01*
X19509940Y-11430412D02*
X19509940Y-11354222D01*
X19509940Y-11354222D02*
X19519464Y-11335174D01*
X19519464Y-11335174D02*
X19538512Y-11325650D01*
X19538512Y-11325650D02*
X19576607Y-11325650D01*
X19576607Y-11325650D02*
X19595655Y-11335174D01*
X19595655Y-11335174D02*
X19605178Y-11354222D01*
X19605178Y-11354222D02*
X19605178Y-11373269D01*
X19605178Y-11373269D02*
X19509940Y-11392317D01*
X19681369Y-11449460D02*
X19700417Y-11458984D01*
X19700417Y-11458984D02*
X19738512Y-11458984D01*
X19738512Y-11458984D02*
X19757559Y-11449460D01*
X19757559Y-11449460D02*
X19767083Y-11430412D01*
X19767083Y-11430412D02*
X19767083Y-11420888D01*
X19767083Y-11420888D02*
X19757559Y-11401841D01*
X19757559Y-11401841D02*
X19738512Y-11392317D01*
X19738512Y-11392317D02*
X19709940Y-11392317D01*
X19709940Y-11392317D02*
X19690893Y-11382793D01*
X19690893Y-11382793D02*
X19681369Y-11363746D01*
X19681369Y-11363746D02*
X19681369Y-11354222D01*
X19681369Y-11354222D02*
X19690893Y-11335174D01*
X19690893Y-11335174D02*
X19709940Y-11325650D01*
X19709940Y-11325650D02*
X19738512Y-11325650D01*
X19738512Y-11325650D02*
X19757559Y-11335174D01*
X19833750Y-11535174D02*
X19843274Y-11525650D01*
X19843274Y-11525650D02*
X19862321Y-11497079D01*
X19862321Y-11497079D02*
X19871845Y-11478031D01*
X19871845Y-11478031D02*
X19881369Y-11449460D01*
X19881369Y-11449460D02*
X19890893Y-11401841D01*
X19890893Y-11401841D02*
X19890893Y-11363746D01*
X19890893Y-11363746D02*
X19881369Y-11316127D01*
X19881369Y-11316127D02*
X19871845Y-11287555D01*
X19871845Y-11287555D02*
X19862321Y-11268508D01*
X19862321Y-11268508D02*
X19843274Y-11239936D01*
X19843274Y-11239936D02*
X19833750Y-11230412D01*
D12*
X14868211Y-11631500D02*
G75*
G02*
X14793211Y-11631500I-37500J0D01*
G01*
X14793211Y-11631500D02*
G75*
G02*
X14868211Y-11631500I37500J0D01*
G01*
D11*
X15167083Y-11522984D02*
X15186130Y-11522984D01*
X15186130Y-11522984D02*
X15205178Y-11532508D01*
X15205178Y-11532508D02*
X15214702Y-11542031D01*
X15214702Y-11542031D02*
X15224226Y-11561079D01*
X15224226Y-11561079D02*
X15233749Y-11599174D01*
X15233749Y-11599174D02*
X15233749Y-11646793D01*
X15233749Y-11646793D02*
X15224226Y-11684888D01*
X15224226Y-11684888D02*
X15214702Y-11703936D01*
X15214702Y-11703936D02*
X15205178Y-11713460D01*
X15205178Y-11713460D02*
X15186130Y-11722984D01*
X15186130Y-11722984D02*
X15167083Y-11722984D01*
X15167083Y-11722984D02*
X15148035Y-11713460D01*
X15148035Y-11713460D02*
X15138511Y-11703936D01*
X15138511Y-11703936D02*
X15128987Y-11684888D01*
X15128987Y-11684888D02*
X15119464Y-11646793D01*
X15119464Y-11646793D02*
X15119464Y-11599174D01*
X15119464Y-11599174D02*
X15128987Y-11561079D01*
X15128987Y-11561079D02*
X15138511Y-11542031D01*
X15138511Y-11542031D02*
X15148035Y-11532508D01*
X15148035Y-11532508D02*
X15167083Y-11522984D01*
X15319464Y-11703936D02*
X15328987Y-11713460D01*
X15328987Y-11713460D02*
X15319464Y-11722984D01*
X15319464Y-11722984D02*
X15309940Y-11713460D01*
X15309940Y-11713460D02*
X15319464Y-11703936D01*
X15319464Y-11703936D02*
X15319464Y-11722984D01*
X15395654Y-11522984D02*
X15528987Y-11522984D01*
X15528987Y-11522984D02*
X15443273Y-11722984D01*
X15700416Y-11522984D02*
X15605178Y-11522984D01*
X15605178Y-11522984D02*
X15595654Y-11618222D01*
X15595654Y-11618222D02*
X15605178Y-11608698D01*
X15605178Y-11608698D02*
X15624226Y-11599174D01*
X15624226Y-11599174D02*
X15671845Y-11599174D01*
X15671845Y-11599174D02*
X15690892Y-11608698D01*
X15690892Y-11608698D02*
X15700416Y-11618222D01*
X15700416Y-11618222D02*
X15709940Y-11637269D01*
X15709940Y-11637269D02*
X15709940Y-11684888D01*
X15709940Y-11684888D02*
X15700416Y-11703936D01*
X15700416Y-11703936D02*
X15690892Y-11713460D01*
X15690892Y-11713460D02*
X15671845Y-11722984D01*
X15671845Y-11722984D02*
X15624226Y-11722984D01*
X15624226Y-11722984D02*
X15605178Y-11713460D01*
X15605178Y-11713460D02*
X15595654Y-11703936D01*
X15833749Y-11522984D02*
X15852797Y-11522984D01*
X15852797Y-11522984D02*
X15871845Y-11532508D01*
X15871845Y-11532508D02*
X15881368Y-11542031D01*
X15881368Y-11542031D02*
X15890892Y-11561079D01*
X15890892Y-11561079D02*
X15900416Y-11599174D01*
X15900416Y-11599174D02*
X15900416Y-11646793D01*
X15900416Y-11646793D02*
X15890892Y-11684888D01*
X15890892Y-11684888D02*
X15881368Y-11703936D01*
X15881368Y-11703936D02*
X15871845Y-11713460D01*
X15871845Y-11713460D02*
X15852797Y-11722984D01*
X15852797Y-11722984D02*
X15833749Y-11722984D01*
X15833749Y-11722984D02*
X15814702Y-11713460D01*
X15814702Y-11713460D02*
X15805178Y-11703936D01*
X15805178Y-11703936D02*
X15795654Y-11684888D01*
X15795654Y-11684888D02*
X15786130Y-11646793D01*
X15786130Y-11646793D02*
X15786130Y-11599174D01*
X15786130Y-11599174D02*
X15795654Y-11561079D01*
X15795654Y-11561079D02*
X15805178Y-11542031D01*
X15805178Y-11542031D02*
X15814702Y-11532508D01*
X15814702Y-11532508D02*
X15833749Y-11522984D01*
X15986130Y-11722984D02*
X15986130Y-11589650D01*
X15986130Y-11608698D02*
X15995654Y-11599174D01*
X15995654Y-11599174D02*
X16014702Y-11589650D01*
X16014702Y-11589650D02*
X16043273Y-11589650D01*
X16043273Y-11589650D02*
X16062321Y-11599174D01*
X16062321Y-11599174D02*
X16071845Y-11618222D01*
X16071845Y-11618222D02*
X16071845Y-11722984D01*
X16071845Y-11618222D02*
X16081368Y-11599174D01*
X16081368Y-11599174D02*
X16100416Y-11589650D01*
X16100416Y-11589650D02*
X16128987Y-11589650D01*
X16128987Y-11589650D02*
X16148035Y-11599174D01*
X16148035Y-11599174D02*
X16157559Y-11618222D01*
X16157559Y-11618222D02*
X16157559Y-11722984D01*
X16252797Y-11722984D02*
X16252797Y-11589650D01*
X16252797Y-11608698D02*
X16262321Y-11599174D01*
X16262321Y-11599174D02*
X16281368Y-11589650D01*
X16281368Y-11589650D02*
X16309940Y-11589650D01*
X16309940Y-11589650D02*
X16328988Y-11599174D01*
X16328988Y-11599174D02*
X16338511Y-11618222D01*
X16338511Y-11618222D02*
X16338511Y-11722984D01*
X16338511Y-11618222D02*
X16348035Y-11599174D01*
X16348035Y-11599174D02*
X16367083Y-11589650D01*
X16367083Y-11589650D02*
X16395654Y-11589650D01*
X16395654Y-11589650D02*
X16414702Y-11599174D01*
X16414702Y-11599174D02*
X16424226Y-11618222D01*
X16424226Y-11618222D02*
X16424226Y-11722984D01*
X16814702Y-11513460D02*
X16643273Y-11770603D01*
X17071845Y-11522984D02*
X17090893Y-11522984D01*
X17090893Y-11522984D02*
X17109940Y-11532508D01*
X17109940Y-11532508D02*
X17119464Y-11542031D01*
X17119464Y-11542031D02*
X17128988Y-11561079D01*
X17128988Y-11561079D02*
X17138512Y-11599174D01*
X17138512Y-11599174D02*
X17138512Y-11646793D01*
X17138512Y-11646793D02*
X17128988Y-11684888D01*
X17128988Y-11684888D02*
X17119464Y-11703936D01*
X17119464Y-11703936D02*
X17109940Y-11713460D01*
X17109940Y-11713460D02*
X17090893Y-11722984D01*
X17090893Y-11722984D02*
X17071845Y-11722984D01*
X17071845Y-11722984D02*
X17052797Y-11713460D01*
X17052797Y-11713460D02*
X17043273Y-11703936D01*
X17043273Y-11703936D02*
X17033750Y-11684888D01*
X17033750Y-11684888D02*
X17024226Y-11646793D01*
X17024226Y-11646793D02*
X17024226Y-11599174D01*
X17024226Y-11599174D02*
X17033750Y-11561079D01*
X17033750Y-11561079D02*
X17043273Y-11542031D01*
X17043273Y-11542031D02*
X17052797Y-11532508D01*
X17052797Y-11532508D02*
X17071845Y-11522984D01*
X17224226Y-11703936D02*
X17233750Y-11713460D01*
X17233750Y-11713460D02*
X17224226Y-11722984D01*
X17224226Y-11722984D02*
X17214702Y-11713460D01*
X17214702Y-11713460D02*
X17224226Y-11703936D01*
X17224226Y-11703936D02*
X17224226Y-11722984D01*
X17357559Y-11522984D02*
X17376607Y-11522984D01*
X17376607Y-11522984D02*
X17395654Y-11532508D01*
X17395654Y-11532508D02*
X17405178Y-11542031D01*
X17405178Y-11542031D02*
X17414702Y-11561079D01*
X17414702Y-11561079D02*
X17424226Y-11599174D01*
X17424226Y-11599174D02*
X17424226Y-11646793D01*
X17424226Y-11646793D02*
X17414702Y-11684888D01*
X17414702Y-11684888D02*
X17405178Y-11703936D01*
X17405178Y-11703936D02*
X17395654Y-11713460D01*
X17395654Y-11713460D02*
X17376607Y-11722984D01*
X17376607Y-11722984D02*
X17357559Y-11722984D01*
X17357559Y-11722984D02*
X17338512Y-11713460D01*
X17338512Y-11713460D02*
X17328988Y-11703936D01*
X17328988Y-11703936D02*
X17319464Y-11684888D01*
X17319464Y-11684888D02*
X17309940Y-11646793D01*
X17309940Y-11646793D02*
X17309940Y-11599174D01*
X17309940Y-11599174D02*
X17319464Y-11561079D01*
X17319464Y-11561079D02*
X17328988Y-11542031D01*
X17328988Y-11542031D02*
X17338512Y-11532508D01*
X17338512Y-11532508D02*
X17357559Y-11522984D01*
X17500416Y-11542031D02*
X17509940Y-11532508D01*
X17509940Y-11532508D02*
X17528988Y-11522984D01*
X17528988Y-11522984D02*
X17576607Y-11522984D01*
X17576607Y-11522984D02*
X17595654Y-11532508D01*
X17595654Y-11532508D02*
X17605178Y-11542031D01*
X17605178Y-11542031D02*
X17614702Y-11561079D01*
X17614702Y-11561079D02*
X17614702Y-11580127D01*
X17614702Y-11580127D02*
X17605178Y-11608698D01*
X17605178Y-11608698D02*
X17490893Y-11722984D01*
X17490893Y-11722984D02*
X17614702Y-11722984D01*
X17709940Y-11722984D02*
X17748035Y-11722984D01*
X17748035Y-11722984D02*
X17767083Y-11713460D01*
X17767083Y-11713460D02*
X17776607Y-11703936D01*
X17776607Y-11703936D02*
X17795654Y-11675365D01*
X17795654Y-11675365D02*
X17805178Y-11637269D01*
X17805178Y-11637269D02*
X17805178Y-11561079D01*
X17805178Y-11561079D02*
X17795654Y-11542031D01*
X17795654Y-11542031D02*
X17786131Y-11532508D01*
X17786131Y-11532508D02*
X17767083Y-11522984D01*
X17767083Y-11522984D02*
X17728988Y-11522984D01*
X17728988Y-11522984D02*
X17709940Y-11532508D01*
X17709940Y-11532508D02*
X17700416Y-11542031D01*
X17700416Y-11542031D02*
X17690893Y-11561079D01*
X17690893Y-11561079D02*
X17690893Y-11608698D01*
X17690893Y-11608698D02*
X17700416Y-11627746D01*
X17700416Y-11627746D02*
X17709940Y-11637269D01*
X17709940Y-11637269D02*
X17728988Y-11646793D01*
X17728988Y-11646793D02*
X17767083Y-11646793D01*
X17767083Y-11646793D02*
X17786131Y-11637269D01*
X17786131Y-11637269D02*
X17795654Y-11627746D01*
X17795654Y-11627746D02*
X17805178Y-11608698D01*
X17986131Y-11522984D02*
X17890893Y-11522984D01*
X17890893Y-11522984D02*
X17881369Y-11618222D01*
X17881369Y-11618222D02*
X17890893Y-11608698D01*
X17890893Y-11608698D02*
X17909940Y-11599174D01*
X17909940Y-11599174D02*
X17957559Y-11599174D01*
X17957559Y-11599174D02*
X17976607Y-11608698D01*
X17976607Y-11608698D02*
X17986131Y-11618222D01*
X17986131Y-11618222D02*
X17995654Y-11637269D01*
X17995654Y-11637269D02*
X17995654Y-11684888D01*
X17995654Y-11684888D02*
X17986131Y-11703936D01*
X17986131Y-11703936D02*
X17976607Y-11713460D01*
X17976607Y-11713460D02*
X17957559Y-11722984D01*
X17957559Y-11722984D02*
X17909940Y-11722984D01*
X17909940Y-11722984D02*
X17890893Y-11713460D01*
X17890893Y-11713460D02*
X17881369Y-11703936D01*
X18071845Y-11522984D02*
X18071845Y-11561079D01*
X18148035Y-11522984D02*
X18148035Y-11561079D01*
X18443274Y-11799174D02*
X18433750Y-11789650D01*
X18433750Y-11789650D02*
X18414702Y-11761079D01*
X18414702Y-11761079D02*
X18405178Y-11742031D01*
X18405178Y-11742031D02*
X18395655Y-11713460D01*
X18395655Y-11713460D02*
X18386131Y-11665841D01*
X18386131Y-11665841D02*
X18386131Y-11627746D01*
X18386131Y-11627746D02*
X18395655Y-11580127D01*
X18395655Y-11580127D02*
X18405178Y-11551555D01*
X18405178Y-11551555D02*
X18414702Y-11532508D01*
X18414702Y-11532508D02*
X18433750Y-11503936D01*
X18433750Y-11503936D02*
X18443274Y-11494412D01*
X18624226Y-11722984D02*
X18509940Y-11722984D01*
X18567083Y-11722984D02*
X18567083Y-11522984D01*
X18567083Y-11522984D02*
X18548035Y-11551555D01*
X18548035Y-11551555D02*
X18528988Y-11570603D01*
X18528988Y-11570603D02*
X18509940Y-11580127D01*
X18700416Y-11542031D02*
X18709940Y-11532508D01*
X18709940Y-11532508D02*
X18728988Y-11522984D01*
X18728988Y-11522984D02*
X18776607Y-11522984D01*
X18776607Y-11522984D02*
X18795655Y-11532508D01*
X18795655Y-11532508D02*
X18805178Y-11542031D01*
X18805178Y-11542031D02*
X18814702Y-11561079D01*
X18814702Y-11561079D02*
X18814702Y-11580127D01*
X18814702Y-11580127D02*
X18805178Y-11608698D01*
X18805178Y-11608698D02*
X18690893Y-11722984D01*
X18690893Y-11722984D02*
X18814702Y-11722984D01*
X19052797Y-11722984D02*
X19052797Y-11522984D01*
X19138512Y-11722984D02*
X19138512Y-11618222D01*
X19138512Y-11618222D02*
X19128988Y-11599174D01*
X19128988Y-11599174D02*
X19109940Y-11589650D01*
X19109940Y-11589650D02*
X19081369Y-11589650D01*
X19081369Y-11589650D02*
X19062321Y-11599174D01*
X19062321Y-11599174D02*
X19052797Y-11608698D01*
X19262321Y-11722984D02*
X19243274Y-11713460D01*
X19243274Y-11713460D02*
X19233750Y-11703936D01*
X19233750Y-11703936D02*
X19224226Y-11684888D01*
X19224226Y-11684888D02*
X19224226Y-11627746D01*
X19224226Y-11627746D02*
X19233750Y-11608698D01*
X19233750Y-11608698D02*
X19243274Y-11599174D01*
X19243274Y-11599174D02*
X19262321Y-11589650D01*
X19262321Y-11589650D02*
X19290893Y-11589650D01*
X19290893Y-11589650D02*
X19309940Y-11599174D01*
X19309940Y-11599174D02*
X19319464Y-11608698D01*
X19319464Y-11608698D02*
X19328988Y-11627746D01*
X19328988Y-11627746D02*
X19328988Y-11684888D01*
X19328988Y-11684888D02*
X19319464Y-11703936D01*
X19319464Y-11703936D02*
X19309940Y-11713460D01*
X19309940Y-11713460D02*
X19290893Y-11722984D01*
X19290893Y-11722984D02*
X19262321Y-11722984D01*
X19443274Y-11722984D02*
X19424226Y-11713460D01*
X19424226Y-11713460D02*
X19414702Y-11694412D01*
X19414702Y-11694412D02*
X19414702Y-11522984D01*
X19595655Y-11713460D02*
X19576607Y-11722984D01*
X19576607Y-11722984D02*
X19538512Y-11722984D01*
X19538512Y-11722984D02*
X19519464Y-11713460D01*
X19519464Y-11713460D02*
X19509940Y-11694412D01*
X19509940Y-11694412D02*
X19509940Y-11618222D01*
X19509940Y-11618222D02*
X19519464Y-11599174D01*
X19519464Y-11599174D02*
X19538512Y-11589650D01*
X19538512Y-11589650D02*
X19576607Y-11589650D01*
X19576607Y-11589650D02*
X19595655Y-11599174D01*
X19595655Y-11599174D02*
X19605178Y-11618222D01*
X19605178Y-11618222D02*
X19605178Y-11637269D01*
X19605178Y-11637269D02*
X19509940Y-11656317D01*
X19681369Y-11713460D02*
X19700417Y-11722984D01*
X19700417Y-11722984D02*
X19738512Y-11722984D01*
X19738512Y-11722984D02*
X19757559Y-11713460D01*
X19757559Y-11713460D02*
X19767083Y-11694412D01*
X19767083Y-11694412D02*
X19767083Y-11684888D01*
X19767083Y-11684888D02*
X19757559Y-11665841D01*
X19757559Y-11665841D02*
X19738512Y-11656317D01*
X19738512Y-11656317D02*
X19709940Y-11656317D01*
X19709940Y-11656317D02*
X19690893Y-11646793D01*
X19690893Y-11646793D02*
X19681369Y-11627746D01*
X19681369Y-11627746D02*
X19681369Y-11618222D01*
X19681369Y-11618222D02*
X19690893Y-11599174D01*
X19690893Y-11599174D02*
X19709940Y-11589650D01*
X19709940Y-11589650D02*
X19738512Y-11589650D01*
X19738512Y-11589650D02*
X19757559Y-11599174D01*
X19833750Y-11799174D02*
X19843274Y-11789650D01*
X19843274Y-11789650D02*
X19862321Y-11761079D01*
X19862321Y-11761079D02*
X19871845Y-11742031D01*
X19871845Y-11742031D02*
X19881369Y-11713460D01*
X19881369Y-11713460D02*
X19890893Y-11665841D01*
X19890893Y-11665841D02*
X19890893Y-11627746D01*
X19890893Y-11627746D02*
X19881369Y-11580127D01*
X19881369Y-11580127D02*
X19871845Y-11551555D01*
X19871845Y-11551555D02*
X19862321Y-11532508D01*
X19862321Y-11532508D02*
X19843274Y-11503936D01*
X19843274Y-11503936D02*
X19833750Y-11494412D01*
D12*
X14830111Y-11857400D02*
X14830111Y-11933600D01*
X14792011Y-11895500D02*
X14868211Y-11895500D01*
D11*
X15167083Y-11786984D02*
X15186130Y-11786984D01*
X15186130Y-11786984D02*
X15205178Y-11796508D01*
X15205178Y-11796508D02*
X15214702Y-11806031D01*
X15214702Y-11806031D02*
X15224226Y-11825079D01*
X15224226Y-11825079D02*
X15233749Y-11863174D01*
X15233749Y-11863174D02*
X15233749Y-11910793D01*
X15233749Y-11910793D02*
X15224226Y-11948888D01*
X15224226Y-11948888D02*
X15214702Y-11967936D01*
X15214702Y-11967936D02*
X15205178Y-11977460D01*
X15205178Y-11977460D02*
X15186130Y-11986984D01*
X15186130Y-11986984D02*
X15167083Y-11986984D01*
X15167083Y-11986984D02*
X15148035Y-11977460D01*
X15148035Y-11977460D02*
X15138511Y-11967936D01*
X15138511Y-11967936D02*
X15128987Y-11948888D01*
X15128987Y-11948888D02*
X15119464Y-11910793D01*
X15119464Y-11910793D02*
X15119464Y-11863174D01*
X15119464Y-11863174D02*
X15128987Y-11825079D01*
X15128987Y-11825079D02*
X15138511Y-11806031D01*
X15138511Y-11806031D02*
X15148035Y-11796508D01*
X15148035Y-11796508D02*
X15167083Y-11786984D01*
X15319464Y-11967936D02*
X15328987Y-11977460D01*
X15328987Y-11977460D02*
X15319464Y-11986984D01*
X15319464Y-11986984D02*
X15309940Y-11977460D01*
X15309940Y-11977460D02*
X15319464Y-11967936D01*
X15319464Y-11967936D02*
X15319464Y-11986984D01*
X15395654Y-11786984D02*
X15528987Y-11786984D01*
X15528987Y-11786984D02*
X15443273Y-11986984D01*
X15690892Y-11786984D02*
X15652797Y-11786984D01*
X15652797Y-11786984D02*
X15633749Y-11796508D01*
X15633749Y-11796508D02*
X15624226Y-11806031D01*
X15624226Y-11806031D02*
X15605178Y-11834603D01*
X15605178Y-11834603D02*
X15595654Y-11872698D01*
X15595654Y-11872698D02*
X15595654Y-11948888D01*
X15595654Y-11948888D02*
X15605178Y-11967936D01*
X15605178Y-11967936D02*
X15614702Y-11977460D01*
X15614702Y-11977460D02*
X15633749Y-11986984D01*
X15633749Y-11986984D02*
X15671845Y-11986984D01*
X15671845Y-11986984D02*
X15690892Y-11977460D01*
X15690892Y-11977460D02*
X15700416Y-11967936D01*
X15700416Y-11967936D02*
X15709940Y-11948888D01*
X15709940Y-11948888D02*
X15709940Y-11901269D01*
X15709940Y-11901269D02*
X15700416Y-11882222D01*
X15700416Y-11882222D02*
X15690892Y-11872698D01*
X15690892Y-11872698D02*
X15671845Y-11863174D01*
X15671845Y-11863174D02*
X15633749Y-11863174D01*
X15633749Y-11863174D02*
X15614702Y-11872698D01*
X15614702Y-11872698D02*
X15605178Y-11882222D01*
X15605178Y-11882222D02*
X15595654Y-11901269D01*
X15786130Y-11806031D02*
X15795654Y-11796508D01*
X15795654Y-11796508D02*
X15814702Y-11786984D01*
X15814702Y-11786984D02*
X15862321Y-11786984D01*
X15862321Y-11786984D02*
X15881368Y-11796508D01*
X15881368Y-11796508D02*
X15890892Y-11806031D01*
X15890892Y-11806031D02*
X15900416Y-11825079D01*
X15900416Y-11825079D02*
X15900416Y-11844127D01*
X15900416Y-11844127D02*
X15890892Y-11872698D01*
X15890892Y-11872698D02*
X15776607Y-11986984D01*
X15776607Y-11986984D02*
X15900416Y-11986984D01*
X15986130Y-11986984D02*
X15986130Y-11853650D01*
X15986130Y-11872698D02*
X15995654Y-11863174D01*
X15995654Y-11863174D02*
X16014702Y-11853650D01*
X16014702Y-11853650D02*
X16043273Y-11853650D01*
X16043273Y-11853650D02*
X16062321Y-11863174D01*
X16062321Y-11863174D02*
X16071845Y-11882222D01*
X16071845Y-11882222D02*
X16071845Y-11986984D01*
X16071845Y-11882222D02*
X16081368Y-11863174D01*
X16081368Y-11863174D02*
X16100416Y-11853650D01*
X16100416Y-11853650D02*
X16128987Y-11853650D01*
X16128987Y-11853650D02*
X16148035Y-11863174D01*
X16148035Y-11863174D02*
X16157559Y-11882222D01*
X16157559Y-11882222D02*
X16157559Y-11986984D01*
X16252797Y-11986984D02*
X16252797Y-11853650D01*
X16252797Y-11872698D02*
X16262321Y-11863174D01*
X16262321Y-11863174D02*
X16281368Y-11853650D01*
X16281368Y-11853650D02*
X16309940Y-11853650D01*
X16309940Y-11853650D02*
X16328988Y-11863174D01*
X16328988Y-11863174D02*
X16338511Y-11882222D01*
X16338511Y-11882222D02*
X16338511Y-11986984D01*
X16338511Y-11882222D02*
X16348035Y-11863174D01*
X16348035Y-11863174D02*
X16367083Y-11853650D01*
X16367083Y-11853650D02*
X16395654Y-11853650D01*
X16395654Y-11853650D02*
X16414702Y-11863174D01*
X16414702Y-11863174D02*
X16424226Y-11882222D01*
X16424226Y-11882222D02*
X16424226Y-11986984D01*
X16814702Y-11777460D02*
X16643273Y-12034603D01*
X17071845Y-11786984D02*
X17090893Y-11786984D01*
X17090893Y-11786984D02*
X17109940Y-11796508D01*
X17109940Y-11796508D02*
X17119464Y-11806031D01*
X17119464Y-11806031D02*
X17128988Y-11825079D01*
X17128988Y-11825079D02*
X17138512Y-11863174D01*
X17138512Y-11863174D02*
X17138512Y-11910793D01*
X17138512Y-11910793D02*
X17128988Y-11948888D01*
X17128988Y-11948888D02*
X17119464Y-11967936D01*
X17119464Y-11967936D02*
X17109940Y-11977460D01*
X17109940Y-11977460D02*
X17090893Y-11986984D01*
X17090893Y-11986984D02*
X17071845Y-11986984D01*
X17071845Y-11986984D02*
X17052797Y-11977460D01*
X17052797Y-11977460D02*
X17043273Y-11967936D01*
X17043273Y-11967936D02*
X17033750Y-11948888D01*
X17033750Y-11948888D02*
X17024226Y-11910793D01*
X17024226Y-11910793D02*
X17024226Y-11863174D01*
X17024226Y-11863174D02*
X17033750Y-11825079D01*
X17033750Y-11825079D02*
X17043273Y-11806031D01*
X17043273Y-11806031D02*
X17052797Y-11796508D01*
X17052797Y-11796508D02*
X17071845Y-11786984D01*
X17224226Y-11967936D02*
X17233750Y-11977460D01*
X17233750Y-11977460D02*
X17224226Y-11986984D01*
X17224226Y-11986984D02*
X17214702Y-11977460D01*
X17214702Y-11977460D02*
X17224226Y-11967936D01*
X17224226Y-11967936D02*
X17224226Y-11986984D01*
X17357559Y-11786984D02*
X17376607Y-11786984D01*
X17376607Y-11786984D02*
X17395654Y-11796508D01*
X17395654Y-11796508D02*
X17405178Y-11806031D01*
X17405178Y-11806031D02*
X17414702Y-11825079D01*
X17414702Y-11825079D02*
X17424226Y-11863174D01*
X17424226Y-11863174D02*
X17424226Y-11910793D01*
X17424226Y-11910793D02*
X17414702Y-11948888D01*
X17414702Y-11948888D02*
X17405178Y-11967936D01*
X17405178Y-11967936D02*
X17395654Y-11977460D01*
X17395654Y-11977460D02*
X17376607Y-11986984D01*
X17376607Y-11986984D02*
X17357559Y-11986984D01*
X17357559Y-11986984D02*
X17338512Y-11977460D01*
X17338512Y-11977460D02*
X17328988Y-11967936D01*
X17328988Y-11967936D02*
X17319464Y-11948888D01*
X17319464Y-11948888D02*
X17309940Y-11910793D01*
X17309940Y-11910793D02*
X17309940Y-11863174D01*
X17309940Y-11863174D02*
X17319464Y-11825079D01*
X17319464Y-11825079D02*
X17328988Y-11806031D01*
X17328988Y-11806031D02*
X17338512Y-11796508D01*
X17338512Y-11796508D02*
X17357559Y-11786984D01*
X17490893Y-11786984D02*
X17614702Y-11786984D01*
X17614702Y-11786984D02*
X17548035Y-11863174D01*
X17548035Y-11863174D02*
X17576607Y-11863174D01*
X17576607Y-11863174D02*
X17595654Y-11872698D01*
X17595654Y-11872698D02*
X17605178Y-11882222D01*
X17605178Y-11882222D02*
X17614702Y-11901269D01*
X17614702Y-11901269D02*
X17614702Y-11948888D01*
X17614702Y-11948888D02*
X17605178Y-11967936D01*
X17605178Y-11967936D02*
X17595654Y-11977460D01*
X17595654Y-11977460D02*
X17576607Y-11986984D01*
X17576607Y-11986984D02*
X17519464Y-11986984D01*
X17519464Y-11986984D02*
X17500416Y-11977460D01*
X17500416Y-11977460D02*
X17490893Y-11967936D01*
X17738512Y-11786984D02*
X17757559Y-11786984D01*
X17757559Y-11786984D02*
X17776607Y-11796508D01*
X17776607Y-11796508D02*
X17786131Y-11806031D01*
X17786131Y-11806031D02*
X17795654Y-11825079D01*
X17795654Y-11825079D02*
X17805178Y-11863174D01*
X17805178Y-11863174D02*
X17805178Y-11910793D01*
X17805178Y-11910793D02*
X17795654Y-11948888D01*
X17795654Y-11948888D02*
X17786131Y-11967936D01*
X17786131Y-11967936D02*
X17776607Y-11977460D01*
X17776607Y-11977460D02*
X17757559Y-11986984D01*
X17757559Y-11986984D02*
X17738512Y-11986984D01*
X17738512Y-11986984D02*
X17719464Y-11977460D01*
X17719464Y-11977460D02*
X17709940Y-11967936D01*
X17709940Y-11967936D02*
X17700416Y-11948888D01*
X17700416Y-11948888D02*
X17690893Y-11910793D01*
X17690893Y-11910793D02*
X17690893Y-11863174D01*
X17690893Y-11863174D02*
X17700416Y-11825079D01*
X17700416Y-11825079D02*
X17709940Y-11806031D01*
X17709940Y-11806031D02*
X17719464Y-11796508D01*
X17719464Y-11796508D02*
X17738512Y-11786984D01*
X17928988Y-11786984D02*
X17948035Y-11786984D01*
X17948035Y-11786984D02*
X17967083Y-11796508D01*
X17967083Y-11796508D02*
X17976607Y-11806031D01*
X17976607Y-11806031D02*
X17986131Y-11825079D01*
X17986131Y-11825079D02*
X17995654Y-11863174D01*
X17995654Y-11863174D02*
X17995654Y-11910793D01*
X17995654Y-11910793D02*
X17986131Y-11948888D01*
X17986131Y-11948888D02*
X17976607Y-11967936D01*
X17976607Y-11967936D02*
X17967083Y-11977460D01*
X17967083Y-11977460D02*
X17948035Y-11986984D01*
X17948035Y-11986984D02*
X17928988Y-11986984D01*
X17928988Y-11986984D02*
X17909940Y-11977460D01*
X17909940Y-11977460D02*
X17900416Y-11967936D01*
X17900416Y-11967936D02*
X17890893Y-11948888D01*
X17890893Y-11948888D02*
X17881369Y-11910793D01*
X17881369Y-11910793D02*
X17881369Y-11863174D01*
X17881369Y-11863174D02*
X17890893Y-11825079D01*
X17890893Y-11825079D02*
X17900416Y-11806031D01*
X17900416Y-11806031D02*
X17909940Y-11796508D01*
X17909940Y-11796508D02*
X17928988Y-11786984D01*
X18071845Y-11786984D02*
X18071845Y-11825079D01*
X18148035Y-11786984D02*
X18148035Y-11825079D01*
X18443274Y-12063174D02*
X18433750Y-12053650D01*
X18433750Y-12053650D02*
X18414702Y-12025079D01*
X18414702Y-12025079D02*
X18405178Y-12006031D01*
X18405178Y-12006031D02*
X18395655Y-11977460D01*
X18395655Y-11977460D02*
X18386131Y-11929841D01*
X18386131Y-11929841D02*
X18386131Y-11891746D01*
X18386131Y-11891746D02*
X18395655Y-11844127D01*
X18395655Y-11844127D02*
X18405178Y-11815555D01*
X18405178Y-11815555D02*
X18414702Y-11796508D01*
X18414702Y-11796508D02*
X18433750Y-11767936D01*
X18433750Y-11767936D02*
X18443274Y-11758412D01*
X18605178Y-11853650D02*
X18605178Y-11986984D01*
X18557559Y-11777460D02*
X18509940Y-11920317D01*
X18509940Y-11920317D02*
X18633750Y-11920317D01*
X18862321Y-11986984D02*
X18862321Y-11786984D01*
X18948036Y-11986984D02*
X18948036Y-11882222D01*
X18948036Y-11882222D02*
X18938512Y-11863174D01*
X18938512Y-11863174D02*
X18919464Y-11853650D01*
X18919464Y-11853650D02*
X18890893Y-11853650D01*
X18890893Y-11853650D02*
X18871845Y-11863174D01*
X18871845Y-11863174D02*
X18862321Y-11872698D01*
X19071845Y-11986984D02*
X19052797Y-11977460D01*
X19052797Y-11977460D02*
X19043274Y-11967936D01*
X19043274Y-11967936D02*
X19033750Y-11948888D01*
X19033750Y-11948888D02*
X19033750Y-11891746D01*
X19033750Y-11891746D02*
X19043274Y-11872698D01*
X19043274Y-11872698D02*
X19052797Y-11863174D01*
X19052797Y-11863174D02*
X19071845Y-11853650D01*
X19071845Y-11853650D02*
X19100417Y-11853650D01*
X19100417Y-11853650D02*
X19119464Y-11863174D01*
X19119464Y-11863174D02*
X19128988Y-11872698D01*
X19128988Y-11872698D02*
X19138512Y-11891746D01*
X19138512Y-11891746D02*
X19138512Y-11948888D01*
X19138512Y-11948888D02*
X19128988Y-11967936D01*
X19128988Y-11967936D02*
X19119464Y-11977460D01*
X19119464Y-11977460D02*
X19100417Y-11986984D01*
X19100417Y-11986984D02*
X19071845Y-11986984D01*
X19252797Y-11986984D02*
X19233750Y-11977460D01*
X19233750Y-11977460D02*
X19224226Y-11958412D01*
X19224226Y-11958412D02*
X19224226Y-11786984D01*
X19405178Y-11977460D02*
X19386131Y-11986984D01*
X19386131Y-11986984D02*
X19348036Y-11986984D01*
X19348036Y-11986984D02*
X19328988Y-11977460D01*
X19328988Y-11977460D02*
X19319464Y-11958412D01*
X19319464Y-11958412D02*
X19319464Y-11882222D01*
X19319464Y-11882222D02*
X19328988Y-11863174D01*
X19328988Y-11863174D02*
X19348036Y-11853650D01*
X19348036Y-11853650D02*
X19386131Y-11853650D01*
X19386131Y-11853650D02*
X19405178Y-11863174D01*
X19405178Y-11863174D02*
X19414702Y-11882222D01*
X19414702Y-11882222D02*
X19414702Y-11901269D01*
X19414702Y-11901269D02*
X19319464Y-11920317D01*
X19490893Y-11977460D02*
X19509940Y-11986984D01*
X19509940Y-11986984D02*
X19548036Y-11986984D01*
X19548036Y-11986984D02*
X19567083Y-11977460D01*
X19567083Y-11977460D02*
X19576607Y-11958412D01*
X19576607Y-11958412D02*
X19576607Y-11948888D01*
X19576607Y-11948888D02*
X19567083Y-11929841D01*
X19567083Y-11929841D02*
X19548036Y-11920317D01*
X19548036Y-11920317D02*
X19519464Y-11920317D01*
X19519464Y-11920317D02*
X19500417Y-11910793D01*
X19500417Y-11910793D02*
X19490893Y-11891746D01*
X19490893Y-11891746D02*
X19490893Y-11882222D01*
X19490893Y-11882222D02*
X19500417Y-11863174D01*
X19500417Y-11863174D02*
X19519464Y-11853650D01*
X19519464Y-11853650D02*
X19548036Y-11853650D01*
X19548036Y-11853650D02*
X19567083Y-11863174D01*
X19643274Y-12063174D02*
X19652798Y-12053650D01*
X19652798Y-12053650D02*
X19671845Y-12025079D01*
X19671845Y-12025079D02*
X19681369Y-12006031D01*
X19681369Y-12006031D02*
X19690893Y-11977460D01*
X19690893Y-11977460D02*
X19700417Y-11929841D01*
X19700417Y-11929841D02*
X19700417Y-11891746D01*
X19700417Y-11891746D02*
X19690893Y-11844127D01*
X19690893Y-11844127D02*
X19681369Y-11815555D01*
X19681369Y-11815555D02*
X19671845Y-11796508D01*
X19671845Y-11796508D02*
X19652798Y-11767936D01*
X19652798Y-11767936D02*
X19643274Y-11758412D01*
D12*
X14856495Y-12187784D02*
X14856495Y-12131215D01*
X14799926Y-12131215D01*
X14799926Y-12187784D01*
X14856495Y-12187784D01*
D11*
X15167083Y-12050984D02*
X15186130Y-12050984D01*
X15186130Y-12050984D02*
X15205178Y-12060508D01*
X15205178Y-12060508D02*
X15214702Y-12070031D01*
X15214702Y-12070031D02*
X15224226Y-12089079D01*
X15224226Y-12089079D02*
X15233749Y-12127174D01*
X15233749Y-12127174D02*
X15233749Y-12174793D01*
X15233749Y-12174793D02*
X15224226Y-12212888D01*
X15224226Y-12212888D02*
X15214702Y-12231936D01*
X15214702Y-12231936D02*
X15205178Y-12241460D01*
X15205178Y-12241460D02*
X15186130Y-12250984D01*
X15186130Y-12250984D02*
X15167083Y-12250984D01*
X15167083Y-12250984D02*
X15148035Y-12241460D01*
X15148035Y-12241460D02*
X15138511Y-12231936D01*
X15138511Y-12231936D02*
X15128987Y-12212888D01*
X15128987Y-12212888D02*
X15119464Y-12174793D01*
X15119464Y-12174793D02*
X15119464Y-12127174D01*
X15119464Y-12127174D02*
X15128987Y-12089079D01*
X15128987Y-12089079D02*
X15138511Y-12070031D01*
X15138511Y-12070031D02*
X15148035Y-12060508D01*
X15148035Y-12060508D02*
X15167083Y-12050984D01*
X15319464Y-12231936D02*
X15328987Y-12241460D01*
X15328987Y-12241460D02*
X15319464Y-12250984D01*
X15319464Y-12250984D02*
X15309940Y-12241460D01*
X15309940Y-12241460D02*
X15319464Y-12231936D01*
X15319464Y-12231936D02*
X15319464Y-12250984D01*
X15443273Y-12136698D02*
X15424226Y-12127174D01*
X15424226Y-12127174D02*
X15414702Y-12117650D01*
X15414702Y-12117650D02*
X15405178Y-12098603D01*
X15405178Y-12098603D02*
X15405178Y-12089079D01*
X15405178Y-12089079D02*
X15414702Y-12070031D01*
X15414702Y-12070031D02*
X15424226Y-12060508D01*
X15424226Y-12060508D02*
X15443273Y-12050984D01*
X15443273Y-12050984D02*
X15481368Y-12050984D01*
X15481368Y-12050984D02*
X15500416Y-12060508D01*
X15500416Y-12060508D02*
X15509940Y-12070031D01*
X15509940Y-12070031D02*
X15519464Y-12089079D01*
X15519464Y-12089079D02*
X15519464Y-12098603D01*
X15519464Y-12098603D02*
X15509940Y-12117650D01*
X15509940Y-12117650D02*
X15500416Y-12127174D01*
X15500416Y-12127174D02*
X15481368Y-12136698D01*
X15481368Y-12136698D02*
X15443273Y-12136698D01*
X15443273Y-12136698D02*
X15424226Y-12146222D01*
X15424226Y-12146222D02*
X15414702Y-12155746D01*
X15414702Y-12155746D02*
X15405178Y-12174793D01*
X15405178Y-12174793D02*
X15405178Y-12212888D01*
X15405178Y-12212888D02*
X15414702Y-12231936D01*
X15414702Y-12231936D02*
X15424226Y-12241460D01*
X15424226Y-12241460D02*
X15443273Y-12250984D01*
X15443273Y-12250984D02*
X15481368Y-12250984D01*
X15481368Y-12250984D02*
X15500416Y-12241460D01*
X15500416Y-12241460D02*
X15509940Y-12231936D01*
X15509940Y-12231936D02*
X15519464Y-12212888D01*
X15519464Y-12212888D02*
X15519464Y-12174793D01*
X15519464Y-12174793D02*
X15509940Y-12155746D01*
X15509940Y-12155746D02*
X15500416Y-12146222D01*
X15500416Y-12146222D02*
X15481368Y-12136698D01*
X15643273Y-12050984D02*
X15662321Y-12050984D01*
X15662321Y-12050984D02*
X15681368Y-12060508D01*
X15681368Y-12060508D02*
X15690892Y-12070031D01*
X15690892Y-12070031D02*
X15700416Y-12089079D01*
X15700416Y-12089079D02*
X15709940Y-12127174D01*
X15709940Y-12127174D02*
X15709940Y-12174793D01*
X15709940Y-12174793D02*
X15700416Y-12212888D01*
X15700416Y-12212888D02*
X15690892Y-12231936D01*
X15690892Y-12231936D02*
X15681368Y-12241460D01*
X15681368Y-12241460D02*
X15662321Y-12250984D01*
X15662321Y-12250984D02*
X15643273Y-12250984D01*
X15643273Y-12250984D02*
X15624226Y-12241460D01*
X15624226Y-12241460D02*
X15614702Y-12231936D01*
X15614702Y-12231936D02*
X15605178Y-12212888D01*
X15605178Y-12212888D02*
X15595654Y-12174793D01*
X15595654Y-12174793D02*
X15595654Y-12127174D01*
X15595654Y-12127174D02*
X15605178Y-12089079D01*
X15605178Y-12089079D02*
X15614702Y-12070031D01*
X15614702Y-12070031D02*
X15624226Y-12060508D01*
X15624226Y-12060508D02*
X15643273Y-12050984D01*
X15833749Y-12050984D02*
X15852797Y-12050984D01*
X15852797Y-12050984D02*
X15871845Y-12060508D01*
X15871845Y-12060508D02*
X15881368Y-12070031D01*
X15881368Y-12070031D02*
X15890892Y-12089079D01*
X15890892Y-12089079D02*
X15900416Y-12127174D01*
X15900416Y-12127174D02*
X15900416Y-12174793D01*
X15900416Y-12174793D02*
X15890892Y-12212888D01*
X15890892Y-12212888D02*
X15881368Y-12231936D01*
X15881368Y-12231936D02*
X15871845Y-12241460D01*
X15871845Y-12241460D02*
X15852797Y-12250984D01*
X15852797Y-12250984D02*
X15833749Y-12250984D01*
X15833749Y-12250984D02*
X15814702Y-12241460D01*
X15814702Y-12241460D02*
X15805178Y-12231936D01*
X15805178Y-12231936D02*
X15795654Y-12212888D01*
X15795654Y-12212888D02*
X15786130Y-12174793D01*
X15786130Y-12174793D02*
X15786130Y-12127174D01*
X15786130Y-12127174D02*
X15795654Y-12089079D01*
X15795654Y-12089079D02*
X15805178Y-12070031D01*
X15805178Y-12070031D02*
X15814702Y-12060508D01*
X15814702Y-12060508D02*
X15833749Y-12050984D01*
X15986130Y-12250984D02*
X15986130Y-12117650D01*
X15986130Y-12136698D02*
X15995654Y-12127174D01*
X15995654Y-12127174D02*
X16014702Y-12117650D01*
X16014702Y-12117650D02*
X16043273Y-12117650D01*
X16043273Y-12117650D02*
X16062321Y-12127174D01*
X16062321Y-12127174D02*
X16071845Y-12146222D01*
X16071845Y-12146222D02*
X16071845Y-12250984D01*
X16071845Y-12146222D02*
X16081368Y-12127174D01*
X16081368Y-12127174D02*
X16100416Y-12117650D01*
X16100416Y-12117650D02*
X16128987Y-12117650D01*
X16128987Y-12117650D02*
X16148035Y-12127174D01*
X16148035Y-12127174D02*
X16157559Y-12146222D01*
X16157559Y-12146222D02*
X16157559Y-12250984D01*
X16252797Y-12250984D02*
X16252797Y-12117650D01*
X16252797Y-12136698D02*
X16262321Y-12127174D01*
X16262321Y-12127174D02*
X16281368Y-12117650D01*
X16281368Y-12117650D02*
X16309940Y-12117650D01*
X16309940Y-12117650D02*
X16328988Y-12127174D01*
X16328988Y-12127174D02*
X16338511Y-12146222D01*
X16338511Y-12146222D02*
X16338511Y-12250984D01*
X16338511Y-12146222D02*
X16348035Y-12127174D01*
X16348035Y-12127174D02*
X16367083Y-12117650D01*
X16367083Y-12117650D02*
X16395654Y-12117650D01*
X16395654Y-12117650D02*
X16414702Y-12127174D01*
X16414702Y-12127174D02*
X16424226Y-12146222D01*
X16424226Y-12146222D02*
X16424226Y-12250984D01*
X16814702Y-12041460D02*
X16643273Y-12298603D01*
X17071845Y-12050984D02*
X17090893Y-12050984D01*
X17090893Y-12050984D02*
X17109940Y-12060508D01*
X17109940Y-12060508D02*
X17119464Y-12070031D01*
X17119464Y-12070031D02*
X17128988Y-12089079D01*
X17128988Y-12089079D02*
X17138512Y-12127174D01*
X17138512Y-12127174D02*
X17138512Y-12174793D01*
X17138512Y-12174793D02*
X17128988Y-12212888D01*
X17128988Y-12212888D02*
X17119464Y-12231936D01*
X17119464Y-12231936D02*
X17109940Y-12241460D01*
X17109940Y-12241460D02*
X17090893Y-12250984D01*
X17090893Y-12250984D02*
X17071845Y-12250984D01*
X17071845Y-12250984D02*
X17052797Y-12241460D01*
X17052797Y-12241460D02*
X17043273Y-12231936D01*
X17043273Y-12231936D02*
X17033750Y-12212888D01*
X17033750Y-12212888D02*
X17024226Y-12174793D01*
X17024226Y-12174793D02*
X17024226Y-12127174D01*
X17024226Y-12127174D02*
X17033750Y-12089079D01*
X17033750Y-12089079D02*
X17043273Y-12070031D01*
X17043273Y-12070031D02*
X17052797Y-12060508D01*
X17052797Y-12060508D02*
X17071845Y-12050984D01*
X17224226Y-12231936D02*
X17233750Y-12241460D01*
X17233750Y-12241460D02*
X17224226Y-12250984D01*
X17224226Y-12250984D02*
X17214702Y-12241460D01*
X17214702Y-12241460D02*
X17224226Y-12231936D01*
X17224226Y-12231936D02*
X17224226Y-12250984D01*
X17357559Y-12050984D02*
X17376607Y-12050984D01*
X17376607Y-12050984D02*
X17395654Y-12060508D01*
X17395654Y-12060508D02*
X17405178Y-12070031D01*
X17405178Y-12070031D02*
X17414702Y-12089079D01*
X17414702Y-12089079D02*
X17424226Y-12127174D01*
X17424226Y-12127174D02*
X17424226Y-12174793D01*
X17424226Y-12174793D02*
X17414702Y-12212888D01*
X17414702Y-12212888D02*
X17405178Y-12231936D01*
X17405178Y-12231936D02*
X17395654Y-12241460D01*
X17395654Y-12241460D02*
X17376607Y-12250984D01*
X17376607Y-12250984D02*
X17357559Y-12250984D01*
X17357559Y-12250984D02*
X17338512Y-12241460D01*
X17338512Y-12241460D02*
X17328988Y-12231936D01*
X17328988Y-12231936D02*
X17319464Y-12212888D01*
X17319464Y-12212888D02*
X17309940Y-12174793D01*
X17309940Y-12174793D02*
X17309940Y-12127174D01*
X17309940Y-12127174D02*
X17319464Y-12089079D01*
X17319464Y-12089079D02*
X17328988Y-12070031D01*
X17328988Y-12070031D02*
X17338512Y-12060508D01*
X17338512Y-12060508D02*
X17357559Y-12050984D01*
X17490893Y-12050984D02*
X17614702Y-12050984D01*
X17614702Y-12050984D02*
X17548035Y-12127174D01*
X17548035Y-12127174D02*
X17576607Y-12127174D01*
X17576607Y-12127174D02*
X17595654Y-12136698D01*
X17595654Y-12136698D02*
X17605178Y-12146222D01*
X17605178Y-12146222D02*
X17614702Y-12165269D01*
X17614702Y-12165269D02*
X17614702Y-12212888D01*
X17614702Y-12212888D02*
X17605178Y-12231936D01*
X17605178Y-12231936D02*
X17595654Y-12241460D01*
X17595654Y-12241460D02*
X17576607Y-12250984D01*
X17576607Y-12250984D02*
X17519464Y-12250984D01*
X17519464Y-12250984D02*
X17500416Y-12241460D01*
X17500416Y-12241460D02*
X17490893Y-12231936D01*
X17805178Y-12250984D02*
X17690893Y-12250984D01*
X17748035Y-12250984D02*
X17748035Y-12050984D01*
X17748035Y-12050984D02*
X17728988Y-12079555D01*
X17728988Y-12079555D02*
X17709940Y-12098603D01*
X17709940Y-12098603D02*
X17690893Y-12108127D01*
X17986131Y-12050984D02*
X17890893Y-12050984D01*
X17890893Y-12050984D02*
X17881369Y-12146222D01*
X17881369Y-12146222D02*
X17890893Y-12136698D01*
X17890893Y-12136698D02*
X17909940Y-12127174D01*
X17909940Y-12127174D02*
X17957559Y-12127174D01*
X17957559Y-12127174D02*
X17976607Y-12136698D01*
X17976607Y-12136698D02*
X17986131Y-12146222D01*
X17986131Y-12146222D02*
X17995654Y-12165269D01*
X17995654Y-12165269D02*
X17995654Y-12212888D01*
X17995654Y-12212888D02*
X17986131Y-12231936D01*
X17986131Y-12231936D02*
X17976607Y-12241460D01*
X17976607Y-12241460D02*
X17957559Y-12250984D01*
X17957559Y-12250984D02*
X17909940Y-12250984D01*
X17909940Y-12250984D02*
X17890893Y-12241460D01*
X17890893Y-12241460D02*
X17881369Y-12231936D01*
X18071845Y-12050984D02*
X18071845Y-12089079D01*
X18148035Y-12050984D02*
X18148035Y-12089079D01*
X18443274Y-12327174D02*
X18433750Y-12317650D01*
X18433750Y-12317650D02*
X18414702Y-12289079D01*
X18414702Y-12289079D02*
X18405178Y-12270031D01*
X18405178Y-12270031D02*
X18395655Y-12241460D01*
X18395655Y-12241460D02*
X18386131Y-12193841D01*
X18386131Y-12193841D02*
X18386131Y-12155746D01*
X18386131Y-12155746D02*
X18395655Y-12108127D01*
X18395655Y-12108127D02*
X18405178Y-12079555D01*
X18405178Y-12079555D02*
X18414702Y-12060508D01*
X18414702Y-12060508D02*
X18433750Y-12031936D01*
X18433750Y-12031936D02*
X18443274Y-12022412D01*
X18509940Y-12070031D02*
X18519464Y-12060508D01*
X18519464Y-12060508D02*
X18538512Y-12050984D01*
X18538512Y-12050984D02*
X18586131Y-12050984D01*
X18586131Y-12050984D02*
X18605178Y-12060508D01*
X18605178Y-12060508D02*
X18614702Y-12070031D01*
X18614702Y-12070031D02*
X18624226Y-12089079D01*
X18624226Y-12089079D02*
X18624226Y-12108127D01*
X18624226Y-12108127D02*
X18614702Y-12136698D01*
X18614702Y-12136698D02*
X18500416Y-12250984D01*
X18500416Y-12250984D02*
X18624226Y-12250984D01*
X18862321Y-12250984D02*
X18862321Y-12050984D01*
X18948036Y-12250984D02*
X18948036Y-12146222D01*
X18948036Y-12146222D02*
X18938512Y-12127174D01*
X18938512Y-12127174D02*
X18919464Y-12117650D01*
X18919464Y-12117650D02*
X18890893Y-12117650D01*
X18890893Y-12117650D02*
X18871845Y-12127174D01*
X18871845Y-12127174D02*
X18862321Y-12136698D01*
X19071845Y-12250984D02*
X19052797Y-12241460D01*
X19052797Y-12241460D02*
X19043274Y-12231936D01*
X19043274Y-12231936D02*
X19033750Y-12212888D01*
X19033750Y-12212888D02*
X19033750Y-12155746D01*
X19033750Y-12155746D02*
X19043274Y-12136698D01*
X19043274Y-12136698D02*
X19052797Y-12127174D01*
X19052797Y-12127174D02*
X19071845Y-12117650D01*
X19071845Y-12117650D02*
X19100417Y-12117650D01*
X19100417Y-12117650D02*
X19119464Y-12127174D01*
X19119464Y-12127174D02*
X19128988Y-12136698D01*
X19128988Y-12136698D02*
X19138512Y-12155746D01*
X19138512Y-12155746D02*
X19138512Y-12212888D01*
X19138512Y-12212888D02*
X19128988Y-12231936D01*
X19128988Y-12231936D02*
X19119464Y-12241460D01*
X19119464Y-12241460D02*
X19100417Y-12250984D01*
X19100417Y-12250984D02*
X19071845Y-12250984D01*
X19252797Y-12250984D02*
X19233750Y-12241460D01*
X19233750Y-12241460D02*
X19224226Y-12222412D01*
X19224226Y-12222412D02*
X19224226Y-12050984D01*
X19405178Y-12241460D02*
X19386131Y-12250984D01*
X19386131Y-12250984D02*
X19348036Y-12250984D01*
X19348036Y-12250984D02*
X19328988Y-12241460D01*
X19328988Y-12241460D02*
X19319464Y-12222412D01*
X19319464Y-12222412D02*
X19319464Y-12146222D01*
X19319464Y-12146222D02*
X19328988Y-12127174D01*
X19328988Y-12127174D02*
X19348036Y-12117650D01*
X19348036Y-12117650D02*
X19386131Y-12117650D01*
X19386131Y-12117650D02*
X19405178Y-12127174D01*
X19405178Y-12127174D02*
X19414702Y-12146222D01*
X19414702Y-12146222D02*
X19414702Y-12165269D01*
X19414702Y-12165269D02*
X19319464Y-12184317D01*
X19490893Y-12241460D02*
X19509940Y-12250984D01*
X19509940Y-12250984D02*
X19548036Y-12250984D01*
X19548036Y-12250984D02*
X19567083Y-12241460D01*
X19567083Y-12241460D02*
X19576607Y-12222412D01*
X19576607Y-12222412D02*
X19576607Y-12212888D01*
X19576607Y-12212888D02*
X19567083Y-12193841D01*
X19567083Y-12193841D02*
X19548036Y-12184317D01*
X19548036Y-12184317D02*
X19519464Y-12184317D01*
X19519464Y-12184317D02*
X19500417Y-12174793D01*
X19500417Y-12174793D02*
X19490893Y-12155746D01*
X19490893Y-12155746D02*
X19490893Y-12146222D01*
X19490893Y-12146222D02*
X19500417Y-12127174D01*
X19500417Y-12127174D02*
X19519464Y-12117650D01*
X19519464Y-12117650D02*
X19548036Y-12117650D01*
X19548036Y-12117650D02*
X19567083Y-12127174D01*
X19643274Y-12327174D02*
X19652798Y-12317650D01*
X19652798Y-12317650D02*
X19671845Y-12289079D01*
X19671845Y-12289079D02*
X19681369Y-12270031D01*
X19681369Y-12270031D02*
X19690893Y-12241460D01*
X19690893Y-12241460D02*
X19700417Y-12193841D01*
X19700417Y-12193841D02*
X19700417Y-12155746D01*
X19700417Y-12155746D02*
X19690893Y-12108127D01*
X19690893Y-12108127D02*
X19681369Y-12079555D01*
X19681369Y-12079555D02*
X19671845Y-12060508D01*
X19671845Y-12060508D02*
X19652798Y-12031936D01*
X19652798Y-12031936D02*
X19643274Y-12022412D01*
M02*
