G04 #@! TF.GenerationSoftware,KiCad,Pcbnew,9.0.3*
G04 #@! TF.CreationDate,2025-08-08T21:26:55+02:00*
G04 #@! TF.ProjectId,npn-pnp-h-bridge,6e706e2d-706e-4702-9d68-2d6272696467,rev?*
G04 #@! TF.SameCoordinates,Original*
G04 #@! TF.FileFunction,Copper,L1,Top*
G04 #@! TF.FilePolarity,Positive*
%FSLAX46Y46*%
G04 Gerber Fmt 4.6, Leading zero omitted, Abs format (unit mm)*
G04 Created by KiCad (PCBNEW 9.0.3) date 2025-08-08 21:26:55*
%MOMM*%
%LPD*%
G01*
G04 APERTURE LIST*
G04 Aperture macros list*
%AMRoundRect*
0 Rectangle with rounded corners*
0 $1 Rounding radius*
0 $2 $3 $4 $5 $6 $7 $8 $9 X,Y pos of 4 corners*
0 Add a 4 corners polygon primitive as box body*
4,1,4,$2,$3,$4,$5,$6,$7,$8,$9,$2,$3,0*
0 Add four circle primitives for the rounded corners*
1,1,$1+$1,$2,$3*
1,1,$1+$1,$4,$5*
1,1,$1+$1,$6,$7*
1,1,$1+$1,$8,$9*
0 Add four rect primitives between the rounded corners*
20,1,$1+$1,$2,$3,$4,$5,0*
20,1,$1+$1,$4,$5,$6,$7,0*
20,1,$1+$1,$6,$7,$8,$9,0*
20,1,$1+$1,$8,$9,$2,$3,0*%
G04 Aperture macros list end*
G04 #@! TA.AperFunction,SMDPad,CuDef*
%ADD10RoundRect,0.250000X-0.475000X0.337500X-0.475000X-0.337500X0.475000X-0.337500X0.475000X0.337500X0*%
G04 #@! TD*
G04 #@! TA.AperFunction,ComponentPad*
%ADD11R,1.500000X1.050000*%
G04 #@! TD*
G04 #@! TA.AperFunction,ComponentPad*
%ADD12O,1.500000X1.050000*%
G04 #@! TD*
G04 #@! TA.AperFunction,SMDPad,CuDef*
%ADD13RoundRect,0.250000X0.450000X-0.350000X0.450000X0.350000X-0.450000X0.350000X-0.450000X-0.350000X0*%
G04 #@! TD*
G04 #@! TA.AperFunction,SMDPad,CuDef*
%ADD14RoundRect,0.250000X-0.350000X-0.450000X0.350000X-0.450000X0.350000X0.450000X-0.350000X0.450000X0*%
G04 #@! TD*
G04 #@! TA.AperFunction,SMDPad,CuDef*
%ADD15RoundRect,0.250000X0.350000X0.450000X-0.350000X0.450000X-0.350000X-0.450000X0.350000X-0.450000X0*%
G04 #@! TD*
G04 #@! TA.AperFunction,ComponentPad*
%ADD16R,1.300000X1.300000*%
G04 #@! TD*
G04 #@! TA.AperFunction,ComponentPad*
%ADD17C,1.300000*%
G04 #@! TD*
G04 #@! TA.AperFunction,SMDPad,CuDef*
%ADD18RoundRect,0.250000X-0.450000X0.350000X-0.450000X-0.350000X0.450000X-0.350000X0.450000X0.350000X0*%
G04 #@! TD*
G04 #@! TA.AperFunction,SMDPad,CuDef*
%ADD19RoundRect,0.200000X-0.750000X-0.200000X0.750000X-0.200000X0.750000X0.200000X-0.750000X0.200000X0*%
G04 #@! TD*
G04 #@! TA.AperFunction,SMDPad,CuDef*
%ADD20RoundRect,0.200000X0.750000X0.200000X-0.750000X0.200000X-0.750000X-0.200000X0.750000X-0.200000X0*%
G04 #@! TD*
G04 #@! TA.AperFunction,ComponentPad*
%ADD21C,1.270000*%
G04 #@! TD*
G04 #@! TA.AperFunction,ViaPad*
%ADD22C,0.600000*%
G04 #@! TD*
G04 #@! TA.AperFunction,Conductor*
%ADD23C,0.300000*%
G04 #@! TD*
G04 #@! TA.AperFunction,Conductor*
%ADD24C,0.200000*%
G04 #@! TD*
G04 APERTURE END LIST*
D10*
G04 #@! TO.P,C3,1,+*
G04 #@! TO.N,/R_IN*
X185540725Y-90465414D03*
G04 #@! TO.P,C3,2,-*
G04 #@! TO.N,/bQ4*
X185540725Y-92540414D03*
G04 #@! TD*
D11*
G04 #@! TO.P,Qr1,1,C*
G04 #@! TO.N,/O2*
X178950000Y-97908531D03*
D12*
G04 #@! TO.P,Qr1,2,B*
G04 #@! TO.N,/H2b*
X178950000Y-96638531D03*
G04 #@! TO.P,Qr1,3,E*
G04 #@! TO.N,+5V*
X178950000Y-95368531D03*
G04 #@! TD*
D13*
G04 #@! TO.P,R13,1,+*
G04 #@! TO.N,Net-(Q1-C)*
X159292127Y-104460000D03*
G04 #@! TO.P,R13,2,-*
G04 #@! TO.N,/L1b*
X159292127Y-102460000D03*
G04 #@! TD*
D14*
G04 #@! TO.P,R12,1,+*
G04 #@! TO.N,Net-(Q3-C)*
X184595548Y-101532500D03*
G04 #@! TO.P,R12,2,-*
G04 #@! TO.N,+5V*
X186595548Y-101532500D03*
G04 #@! TD*
D15*
G04 #@! TO.P,R7,1,+*
G04 #@! TO.N,Net-(Q2-C)*
X157292127Y-95660000D03*
G04 #@! TO.P,R7,2,-*
G04 #@! TO.N,+5V*
X155292127Y-95660000D03*
G04 #@! TD*
G04 #@! TO.P,R11,1,+*
G04 #@! TO.N,Net-(Q1-C)*
X157292127Y-101460000D03*
G04 #@! TO.P,R11,2,-*
G04 #@! TO.N,+5V*
X155292127Y-101460000D03*
G04 #@! TD*
D16*
G04 #@! TO.P,J2,1,1*
G04 #@! TO.N,/O1*
X169800000Y-101200000D03*
D17*
G04 #@! TO.P,J2,2,2*
G04 #@! TO.N,/O2*
X171800000Y-101200000D03*
G04 #@! TD*
D10*
G04 #@! TO.P,C4,1,+*
G04 #@! TO.N,/R_IN*
X190040725Y-90465414D03*
G04 #@! TO.P,C4,2,-*
G04 #@! TO.N,/bQ3*
X190040725Y-92540414D03*
G04 #@! TD*
D18*
G04 #@! TO.P,R2,1,+*
G04 #@! TO.N,/L_IN*
X158848672Y-90505598D03*
G04 #@! TO.P,R2,2,-*
G04 #@! TO.N,/bQ2*
X158848672Y-92505598D03*
G04 #@! TD*
G04 #@! TO.P,R14,1,+*
G04 #@! TO.N,/L2b*
X182595548Y-102432500D03*
G04 #@! TO.P,R14,2,-*
G04 #@! TO.N,Net-(Q3-C)*
X182595548Y-104432500D03*
G04 #@! TD*
D11*
G04 #@! TO.P,Ql1,1,C*
G04 #@! TO.N,/O1*
X163592127Y-97897589D03*
D12*
G04 #@! TO.P,Ql1,2,B*
G04 #@! TO.N,/H1b*
X163592127Y-96627589D03*
G04 #@! TO.P,Ql1,3,E*
G04 #@! TO.N,+5V*
X163592127Y-95357589D03*
G04 #@! TD*
D14*
G04 #@! TO.P,R10,1,+*
G04 #@! TO.N,Net-(Q4-C)*
X184595548Y-95532500D03*
G04 #@! TO.P,R10,2,-*
G04 #@! TO.N,+5V*
X186595548Y-95532500D03*
G04 #@! TD*
D18*
G04 #@! TO.P,R5,1,+*
G04 #@! TO.N,/R_IN*
X183340725Y-90532914D03*
G04 #@! TO.P,R5,2,-*
G04 #@! TO.N,/bQ4*
X183340725Y-92532914D03*
G04 #@! TD*
D13*
G04 #@! TO.P,R8,1,+*
G04 #@! TO.N,Net-(Q2-C)*
X159292127Y-98460000D03*
G04 #@! TO.P,R8,2,-*
G04 #@! TO.N,/H1b*
X159292127Y-96460000D03*
G04 #@! TD*
D19*
G04 #@! TO.P,Q2,1,B*
G04 #@! TO.N,/bQ2*
X153792127Y-97510000D03*
G04 #@! TO.P,Q2,2,E*
G04 #@! TO.N,GND*
X153792127Y-99410000D03*
G04 #@! TO.P,Q2,3,C*
G04 #@! TO.N,Net-(Q2-C)*
X156792127Y-98460000D03*
G04 #@! TD*
D13*
G04 #@! TO.P,R4,1,+*
G04 #@! TO.N,GND*
X181100000Y-92532914D03*
G04 #@! TO.P,R4,2,-*
G04 #@! TO.N,/R_IN*
X181100000Y-90532914D03*
G04 #@! TD*
D18*
G04 #@! TO.P,R6,1,+*
G04 #@! TO.N,/R_IN*
X187840725Y-90532914D03*
G04 #@! TO.P,R6,2,-*
G04 #@! TO.N,/bQ3*
X187840725Y-92532914D03*
G04 #@! TD*
D10*
G04 #@! TO.P,C2,1,+*
G04 #@! TO.N,/L_IN*
X156648672Y-90498098D03*
G04 #@! TO.P,C2,2,-*
G04 #@! TO.N,/bQ2*
X156648672Y-92573098D03*
G04 #@! TD*
D20*
G04 #@! TO.P,Q3,1,B*
G04 #@! TO.N,/bQ3*
X187995548Y-105382500D03*
G04 #@! TO.P,Q3,2,E*
G04 #@! TO.N,GND*
X187995548Y-103482500D03*
G04 #@! TO.P,Q3,3,C*
G04 #@! TO.N,Net-(Q3-C)*
X184995548Y-104432500D03*
G04 #@! TD*
D21*
G04 #@! TO.P,J1,1,1*
G04 #@! TO.N,+5V*
X173895099Y-95117400D03*
G04 #@! TO.P,J1,2,2*
G04 #@! TO.N,GND*
X171895100Y-95117400D03*
G04 #@! TO.P,J1,3,3*
G04 #@! TO.N,/R_IN*
X169895099Y-95117400D03*
G04 #@! TO.P,J1,4,4*
G04 #@! TO.N,/L_IN*
X167895101Y-95117400D03*
G04 #@! TD*
D10*
G04 #@! TO.P,C1,1,+*
G04 #@! TO.N,/L_IN*
X152182422Y-90498098D03*
G04 #@! TO.P,C1,2,-*
G04 #@! TO.N,/bQ1*
X152182422Y-92573098D03*
G04 #@! TD*
D11*
G04 #@! TO.P,Qr2,1,C*
G04 #@! TO.N,/O2*
X178335548Y-101508531D03*
D12*
G04 #@! TO.P,Qr2,2,B*
G04 #@! TO.N,/L2b*
X178335548Y-102778531D03*
G04 #@! TO.P,Qr2,3,E*
G04 #@! TO.N,GND*
X178335548Y-104048531D03*
G04 #@! TD*
D11*
G04 #@! TO.P,Ql2,1,C*
G04 #@! TO.N,/O1*
X162862127Y-101427589D03*
D12*
G04 #@! TO.P,Ql2,2,B*
G04 #@! TO.N,/L1b*
X162862127Y-102697589D03*
G04 #@! TO.P,Ql2,3,E*
G04 #@! TO.N,GND*
X162862127Y-103967589D03*
G04 #@! TD*
D18*
G04 #@! TO.P,R1,1,+*
G04 #@! TO.N,/L_IN*
X154382422Y-90505598D03*
G04 #@! TO.P,R1,2,-*
G04 #@! TO.N,/bQ1*
X154382422Y-92505598D03*
G04 #@! TD*
D20*
G04 #@! TO.P,Q4,1,B*
G04 #@! TO.N,/bQ4*
X187995548Y-99282500D03*
G04 #@! TO.P,Q4,2,E*
G04 #@! TO.N,GND*
X187995548Y-97382500D03*
G04 #@! TO.P,Q4,3,C*
G04 #@! TO.N,Net-(Q4-C)*
X184995548Y-98332500D03*
G04 #@! TD*
D19*
G04 #@! TO.P,Q1,1,B*
G04 #@! TO.N,/bQ1*
X153892127Y-103510000D03*
G04 #@! TO.P,Q1,2,E*
G04 #@! TO.N,GND*
X153892127Y-105410000D03*
G04 #@! TO.P,Q1,3,C*
G04 #@! TO.N,Net-(Q1-C)*
X156892127Y-104460000D03*
G04 #@! TD*
D13*
G04 #@! TO.P,R3,1,+*
G04 #@! TO.N,GND*
X161200000Y-92535598D03*
G04 #@! TO.P,R3,2,-*
G04 #@! TO.N,/L_IN*
X161200000Y-90535598D03*
G04 #@! TD*
D18*
G04 #@! TO.P,R9,1,+*
G04 #@! TO.N,/H2b*
X182495548Y-96332500D03*
G04 #@! TO.P,R9,2,-*
G04 #@! TO.N,Net-(Q4-C)*
X182495548Y-98332500D03*
G04 #@! TD*
D22*
G04 #@! TO.N,GND*
X188000000Y-98332500D03*
X161200000Y-91635598D03*
X161200000Y-105612600D03*
X180450000Y-106362600D03*
X174450000Y-104112600D03*
X153900000Y-104500000D03*
X188000000Y-104400000D03*
X180450000Y-105612600D03*
X175700000Y-104112600D03*
X161200000Y-106362600D03*
X153800000Y-98500000D03*
X167200000Y-104112600D03*
X181100000Y-91632914D03*
X165950000Y-104112600D03*
G04 #@! TD*
D23*
G04 #@! TO.N,/L_IN*
X156696401Y-90535598D02*
X158733442Y-90535598D01*
X167895101Y-94006250D02*
X167895101Y-95117400D01*
X166715349Y-91715349D02*
X167109399Y-92109399D01*
X161247729Y-90535598D02*
X163867177Y-90535598D01*
X158896401Y-90468098D02*
X161084770Y-90468098D01*
X154267192Y-90535598D02*
X152182422Y-90535598D01*
X154430151Y-90468098D02*
X156533442Y-90468098D01*
X158882422Y-90434348D02*
X159156770Y-90160000D01*
X158814922Y-90501848D02*
X158882422Y-90434348D01*
X154267192Y-90535598D02*
G75*
G03*
X154348669Y-90501845I8J115198D01*
G01*
X161166250Y-90501848D02*
G75*
G03*
X161247729Y-90535586I81450J81448D01*
G01*
X158814922Y-90501848D02*
G75*
G02*
X158896401Y-90468091I81478J-81452D01*
G01*
X167109399Y-92109399D02*
G75*
G02*
X167895122Y-94006250I-1896899J-1896901D01*
G01*
X156533442Y-90468098D02*
G75*
G02*
X156614895Y-90501875I-42J-115202D01*
G01*
X166715349Y-91715349D02*
G75*
G03*
X163867177Y-90535608I-2848149J-2848151D01*
G01*
X158814922Y-90501848D02*
G75*
G02*
X158733442Y-90535637I-81522J81448D01*
G01*
X161084770Y-90468098D02*
G75*
G02*
X161166259Y-90501839I30J-115202D01*
G01*
X158896401Y-90468098D02*
G75*
G02*
X158882388Y-90434314I-1J19798D01*
G01*
X156696401Y-90535598D02*
G75*
G02*
X156614928Y-90501842I-1J115198D01*
G01*
X154430151Y-90468098D02*
G75*
G03*
X154348652Y-90501828I-51J-115202D01*
G01*
G04 #@! TO.N,/R_IN*
X187955954Y-90465414D02*
X190040725Y-90465414D01*
X181100000Y-90532914D02*
X173602912Y-90532914D01*
X170981092Y-91618907D02*
X170748045Y-91851953D01*
X183455954Y-90465414D02*
X185492995Y-90465414D01*
X183292995Y-90532914D02*
X181100000Y-90532914D01*
X169895099Y-93911150D02*
X169895099Y-95117400D01*
X185655954Y-90532914D02*
X187792995Y-90532914D01*
X183374475Y-90499164D02*
G75*
G02*
X183292995Y-90532915I-81475J81464D01*
G01*
X185574475Y-90499164D02*
G75*
G03*
X185655954Y-90532951I81525J81464D01*
G01*
X170981092Y-91618907D02*
G75*
G02*
X173602912Y-90532914I2621808J-2621793D01*
G01*
X187874475Y-90499164D02*
G75*
G02*
X187955954Y-90465369I81525J-81436D01*
G01*
X185574475Y-90499164D02*
G75*
G03*
X185492995Y-90465405I-81475J-81436D01*
G01*
X169895099Y-93911150D02*
G75*
G02*
X170748030Y-91851938I2912101J50D01*
G01*
X183374475Y-90499164D02*
G75*
G02*
X183455954Y-90465369I81525J-81436D01*
G01*
X187874475Y-90499164D02*
G75*
G02*
X187792995Y-90532915I-81475J81464D01*
G01*
G04 #@! TO.N,/bQ2*
X158848672Y-92505598D02*
X156716172Y-92505598D01*
X156716172Y-92505598D02*
X156648672Y-92573098D01*
X153700000Y-97417873D02*
X153792127Y-97510000D01*
X156648672Y-92573098D02*
X156239502Y-92573098D01*
X156239502Y-92573098D02*
X154578679Y-94233921D01*
X153700000Y-96355241D02*
X153700000Y-97417873D01*
X153700000Y-96355241D02*
G75*
G02*
X154578659Y-94233901I3000000J41D01*
G01*
G04 #@! TO.N,/bQ4*
X187881524Y-94000000D02*
X188003670Y-94000000D01*
X185527921Y-92532914D02*
X183340725Y-92532914D01*
X188998060Y-99282500D02*
X187995548Y-99282500D01*
X185546028Y-92540414D02*
X185590569Y-92540414D01*
X185675659Y-92575659D02*
X186547379Y-93447379D01*
X189595548Y-98685012D02*
X189595548Y-95591877D01*
X185675659Y-92575659D02*
G75*
G03*
X185590569Y-92540421I-85059J-85041D01*
G01*
X187881524Y-94000000D02*
G75*
G02*
X186547360Y-93447398I-24J1886800D01*
G01*
X189595548Y-98685012D02*
G75*
G02*
X189420554Y-99107506I-597548J12D01*
G01*
X185527921Y-92532914D02*
G75*
G02*
X185536961Y-92536678I-21J-12786D01*
G01*
X188998060Y-99282500D02*
G75*
G03*
X189420570Y-99107522I40J597500D01*
G01*
X185546028Y-92540414D02*
G75*
G02*
X185536959Y-92536680I-28J12814D01*
G01*
X189595548Y-95591877D02*
G75*
G03*
X189129281Y-94466267I-1591848J-23D01*
G01*
X188003670Y-94000000D02*
G75*
G02*
X189129317Y-94466231I30J-1591900D01*
G01*
G04 #@! TO.N,GND*
X153792127Y-98513440D02*
X153792127Y-99410000D01*
D24*
X161200000Y-91635598D02*
X161200000Y-92535598D01*
D23*
X153892127Y-104513440D02*
X153892127Y-105410000D01*
X188000000Y-104400000D02*
X187997774Y-104397774D01*
X153796063Y-98503936D02*
X153800000Y-98500000D01*
D24*
X181100000Y-91632914D02*
X181100000Y-92532914D01*
D23*
X153900000Y-104500000D02*
X153896063Y-104503936D01*
X187995548Y-98324899D02*
X187995548Y-97382500D01*
X187997774Y-98330274D02*
X188000000Y-98332500D01*
X187995548Y-104392399D02*
X187995548Y-103482500D01*
X153796063Y-98503936D02*
G75*
G03*
X153792164Y-98513440I9537J-9464D01*
G01*
X153892127Y-104513440D02*
G75*
G02*
X153896037Y-104503910I13473J40D01*
G01*
X187997774Y-98330274D02*
G75*
G02*
X187995534Y-98324899I5326J5374D01*
G01*
X187995548Y-104392399D02*
G75*
G03*
X187997784Y-104397764I7552J-1D01*
G01*
G04 #@! TO.N,+5V*
X181778833Y-95032500D02*
X179286031Y-95032500D01*
X185578883Y-94200000D02*
X183788666Y-94200000D01*
X186595548Y-95532500D02*
X186595548Y-101532500D01*
X155292127Y-95660000D02*
X155292127Y-101460000D01*
X160586458Y-94112600D02*
X156303553Y-94112600D01*
X155292127Y-95347293D02*
X155292127Y-95660000D01*
X186334996Y-94534996D02*
X186297774Y-94497774D01*
X186595548Y-95532500D02*
X186595548Y-95164024D01*
X179286031Y-95032500D02*
X178950000Y-95368531D01*
X156303553Y-94112600D02*
G75*
G03*
X155700014Y-94362614I47J-853600D01*
G01*
X186297774Y-94497774D02*
G75*
G03*
X185578883Y-94200022I-718874J-718926D01*
G01*
X155700000Y-94362600D02*
G75*
G03*
X155292124Y-95347293I984700J-984700D01*
G01*
X183788666Y-94200000D02*
G75*
G03*
X182783760Y-94616260I34J-1421200D01*
G01*
X163592127Y-95357589D02*
G75*
G03*
X160586458Y-94112642I-3005627J-3005711D01*
G01*
X182783750Y-94616250D02*
G75*
G02*
X181778833Y-95032514I-1004950J1004950D01*
G01*
X186595548Y-95164024D02*
G75*
G03*
X186335001Y-94534991I-889548J24D01*
G01*
G04 #@! TO.N,/bQ1*
X152382124Y-92535598D02*
X154369618Y-92535598D01*
X151900000Y-102243109D02*
X151900000Y-93017722D01*
X153166890Y-103510000D02*
X153892127Y-103510000D01*
X154378672Y-92539348D02*
X154382422Y-92543098D01*
X152041211Y-92676809D02*
G75*
G02*
X152382124Y-92535609I340889J-340891D01*
G01*
X152271063Y-103138936D02*
G75*
G02*
X151899996Y-102243109I895837J895836D01*
G01*
X152041211Y-92676809D02*
G75*
G03*
X151900009Y-93017722I340889J-340891D01*
G01*
X152271063Y-103138936D02*
G75*
G03*
X153166890Y-103510004I895837J895836D01*
G01*
X154378672Y-92539348D02*
G75*
G03*
X154369618Y-92535584I-9072J-9052D01*
G01*
G04 #@! TO.N,/bQ3*
X190495548Y-94517156D02*
X190495548Y-103590037D01*
X190027921Y-92532914D02*
X187840725Y-92532914D01*
X190040725Y-92545717D02*
X190040725Y-93419116D01*
X188720548Y-105382500D02*
X187995548Y-105382500D01*
X189958200Y-104869847D02*
X189970547Y-104857499D01*
X189958200Y-104869847D02*
G75*
G02*
X188720548Y-105382535I-1237700J1237647D01*
G01*
X190495548Y-94517156D02*
G75*
G03*
X190268118Y-93968154I-776448J-44D01*
G01*
X190040725Y-93419116D02*
G75*
G03*
X190268135Y-93968137I776475J16D01*
G01*
X190495548Y-103590037D02*
G75*
G02*
X189970526Y-104857478I-1792448J37D01*
G01*
X190040725Y-92545717D02*
G75*
G03*
X190036988Y-92536651I-12825J17D01*
G01*
X190036975Y-92536664D02*
G75*
G03*
X190027921Y-92532894I-9075J-9036D01*
G01*
G04 #@! TO.N,Net-(Q1-C)*
X157092127Y-101660000D02*
X157292127Y-101460000D01*
X156892127Y-104460000D02*
X159292127Y-104460000D01*
X156892127Y-102142842D02*
X156892127Y-104460000D01*
X156892127Y-102142842D02*
G75*
G02*
X157092099Y-101659972I682873J42D01*
G01*
G04 #@! TO.N,Net-(Q2-C)*
X156792127Y-96342842D02*
X156792127Y-98460000D01*
X156992127Y-95860000D02*
X157156771Y-95695355D01*
X156792127Y-98460000D02*
X159292127Y-98460000D01*
X157242127Y-95660000D02*
X157292127Y-95660000D01*
X157242127Y-95660000D02*
G75*
G03*
X157156760Y-95695344I-27J-120700D01*
G01*
X156992127Y-95860000D02*
G75*
G03*
X156792166Y-96342842I482873J-482800D01*
G01*
G04 #@! TO.N,Net-(Q3-C)*
X184795548Y-101732500D02*
X184595548Y-101532500D01*
X184995548Y-104432500D02*
X182595548Y-104432500D01*
X184995548Y-102215342D02*
X184995548Y-104432500D01*
X184995548Y-102215342D02*
G75*
G03*
X184795570Y-101732478I-682848J42D01*
G01*
G04 #@! TO.N,Net-(Q4-C)*
X184645548Y-95532500D02*
X184595548Y-95532500D01*
X184845548Y-95682500D02*
X184730903Y-95567855D01*
X184995548Y-98332500D02*
X184995548Y-96044632D01*
X184995548Y-98332500D02*
X182495548Y-98332500D01*
X184645548Y-95532500D02*
G75*
G02*
X184730877Y-95567881I-48J-120700D01*
G01*
X184845548Y-95682500D02*
G75*
G02*
X184995521Y-96044632I-362148J-362100D01*
G01*
G04 #@! TO.N,/H1b*
X163592127Y-96627589D02*
X159696723Y-96627589D01*
X159696723Y-96627589D02*
G75*
G02*
X159292115Y-96460012I-23J572189D01*
G01*
G04 #@! TO.N,/H2b*
X179265548Y-96332500D02*
X178959517Y-96638531D01*
X182495548Y-96332500D02*
X179265548Y-96332500D01*
X178959517Y-96638531D02*
X178950000Y-96638531D01*
G04 #@! TO.N,/L1b*
X159292127Y-102460000D02*
X162822127Y-102460000D01*
X162822127Y-102460000D02*
X162862127Y-102500000D01*
X162862127Y-102500000D02*
X162862127Y-102697589D01*
G04 #@! TO.N,/L2b*
X178345548Y-102432500D02*
X178335548Y-102442500D01*
X182595548Y-102432500D02*
X178345548Y-102432500D01*
X178335548Y-102442500D02*
X178335548Y-102778531D01*
G04 #@! TD*
G04 #@! TA.AperFunction,Conductor*
G04 #@! TO.N,GND*
G36*
X171514100Y-95167560D02*
G01*
X171540064Y-95264461D01*
X171590224Y-95351340D01*
X171661160Y-95422276D01*
X171748039Y-95472436D01*
X171844940Y-95498400D01*
X171867653Y-95498400D01*
X171360845Y-96005206D01*
X171404846Y-96034606D01*
X171593201Y-96112625D01*
X171593209Y-96112627D01*
X171793156Y-96152399D01*
X171793160Y-96152400D01*
X171997040Y-96152400D01*
X171997043Y-96152399D01*
X172196990Y-96112627D01*
X172196998Y-96112625D01*
X172385354Y-96034605D01*
X172385360Y-96034602D01*
X172429352Y-96005206D01*
X172429353Y-96005205D01*
X171922548Y-95498400D01*
X171945260Y-95498400D01*
X172042161Y-95472436D01*
X172129040Y-95422276D01*
X172199976Y-95351340D01*
X172250136Y-95264461D01*
X172276100Y-95167560D01*
X172276100Y-95144847D01*
X172792359Y-95661107D01*
X172824957Y-95667289D01*
X172875668Y-95715353D01*
X172890780Y-95757288D01*
X172932101Y-96005206D01*
X172950000Y-96112600D01*
X176349496Y-96451045D01*
X176414254Y-96477273D01*
X176454553Y-96534350D01*
X176460534Y-96561501D01*
X177216729Y-103772119D01*
X177215602Y-103796640D01*
X177217153Y-103798531D01*
X178055218Y-103798531D01*
X178035473Y-103818276D01*
X177986104Y-103903786D01*
X177960548Y-103999161D01*
X177960548Y-104097901D01*
X177986104Y-104193276D01*
X178035473Y-104278786D01*
X178055218Y-104298531D01*
X177217154Y-104298531D01*
X177221093Y-104318336D01*
X177221096Y-104318348D01*
X177290819Y-104486676D01*
X177290826Y-104486689D01*
X177392052Y-104638183D01*
X177392055Y-104638187D01*
X177520891Y-104767023D01*
X177520895Y-104767026D01*
X177672389Y-104868252D01*
X177672402Y-104868259D01*
X177840730Y-104937982D01*
X177840742Y-104937985D01*
X178019438Y-104973530D01*
X178019442Y-104973531D01*
X178085548Y-104973531D01*
X178085548Y-104328861D01*
X178105293Y-104348606D01*
X178190803Y-104397975D01*
X178286178Y-104423531D01*
X178384918Y-104423531D01*
X178480293Y-104397975D01*
X178565803Y-104348606D01*
X178585548Y-104328861D01*
X178585548Y-104973531D01*
X178651654Y-104973531D01*
X178651657Y-104973530D01*
X178830353Y-104937985D01*
X178830365Y-104937982D01*
X178998693Y-104868259D01*
X178998706Y-104868252D01*
X179150200Y-104767026D01*
X179150204Y-104767023D01*
X179279040Y-104638187D01*
X179279043Y-104638183D01*
X179380269Y-104486689D01*
X179380276Y-104486676D01*
X179449999Y-104318348D01*
X179450002Y-104318336D01*
X179453942Y-104298531D01*
X178615878Y-104298531D01*
X178635623Y-104278786D01*
X178684992Y-104193276D01*
X178710548Y-104097901D01*
X178710548Y-103999161D01*
X178684992Y-103903786D01*
X178635623Y-103818276D01*
X178615878Y-103798531D01*
X179459087Y-103798531D01*
X179505166Y-103767143D01*
X179543274Y-103761142D01*
X180559933Y-103761142D01*
X180626972Y-103780827D01*
X180672727Y-103833631D01*
X180683933Y-103885142D01*
X180683933Y-106625500D01*
X180664248Y-106692539D01*
X180611444Y-106738294D01*
X180559933Y-106749500D01*
X176308380Y-106749500D01*
X176241807Y-106730114D01*
X176158359Y-106677011D01*
X175542669Y-106285208D01*
X173807427Y-105180962D01*
X173761437Y-105128363D01*
X173750000Y-105076348D01*
X173750000Y-99850000D01*
X167850000Y-99850000D01*
X167850000Y-104988600D01*
X167830315Y-105055639D01*
X167777511Y-105101394D01*
X167726000Y-105112600D01*
X167699999Y-105112600D01*
X164452382Y-106736409D01*
X164396928Y-106749500D01*
X161074000Y-106749500D01*
X161006961Y-106729815D01*
X160961206Y-106677011D01*
X160950000Y-106625500D01*
X160950000Y-103833370D01*
X160969685Y-103766331D01*
X161022489Y-103720576D01*
X161074000Y-103709370D01*
X161678340Y-103709370D01*
X161706331Y-103717589D01*
X162581797Y-103717589D01*
X162562052Y-103737334D01*
X162512683Y-103822844D01*
X162487127Y-103918219D01*
X162487127Y-104016959D01*
X162512683Y-104112334D01*
X162562052Y-104197844D01*
X162581797Y-104217589D01*
X161743733Y-104217589D01*
X161747672Y-104237394D01*
X161747675Y-104237406D01*
X161817398Y-104405734D01*
X161817405Y-104405747D01*
X161918631Y-104557241D01*
X161918634Y-104557245D01*
X162047470Y-104686081D01*
X162047474Y-104686084D01*
X162198968Y-104787310D01*
X162198981Y-104787317D01*
X162367309Y-104857040D01*
X162367321Y-104857043D01*
X162546017Y-104892588D01*
X162546021Y-104892589D01*
X162612127Y-104892589D01*
X162612127Y-104247919D01*
X162631872Y-104267664D01*
X162717382Y-104317033D01*
X162812757Y-104342589D01*
X162911497Y-104342589D01*
X163006872Y-104317033D01*
X163092382Y-104267664D01*
X163112127Y-104247919D01*
X163112127Y-104892589D01*
X163178233Y-104892589D01*
X163178236Y-104892588D01*
X163356932Y-104857043D01*
X163356944Y-104857040D01*
X163525272Y-104787317D01*
X163525285Y-104787310D01*
X163676779Y-104686084D01*
X163676783Y-104686081D01*
X163805619Y-104557245D01*
X163805622Y-104557241D01*
X163906848Y-104405747D01*
X163906855Y-104405734D01*
X163976578Y-104237406D01*
X163976581Y-104237394D01*
X163980521Y-104217589D01*
X163142457Y-104217589D01*
X163162202Y-104197844D01*
X163211571Y-104112334D01*
X163237127Y-104016959D01*
X163237127Y-103918219D01*
X163211571Y-103822844D01*
X163162202Y-103737334D01*
X163142457Y-103717589D01*
X163980521Y-103717589D01*
X163976581Y-103697783D01*
X163976579Y-103697774D01*
X163962875Y-103664691D01*
X163955405Y-103595221D01*
X163957982Y-103583967D01*
X165918714Y-96551276D01*
X165955679Y-96491989D01*
X166018831Y-96462096D01*
X166028924Y-96460925D01*
X170700000Y-96112600D01*
X170827237Y-95730888D01*
X170867108Y-95673518D01*
X170931671Y-95646810D01*
X170957025Y-95646702D01*
X171007293Y-95651652D01*
X171514100Y-95144845D01*
X171514100Y-95167560D01*
G37*
G04 #@! TD.AperFunction*
G04 #@! TD*
G04 #@! TA.AperFunction,Conductor*
G04 #@! TO.N,/L_IN*
G36*
X158311330Y-89934904D02*
G01*
X158315248Y-89937643D01*
X158842127Y-90497580D01*
X158845301Y-90505954D01*
X158842127Y-90513616D01*
X158315725Y-91073044D01*
X158307560Y-91076721D01*
X158299186Y-91073547D01*
X158296294Y-91069251D01*
X158281829Y-91031900D01*
X158281828Y-91031899D01*
X158281827Y-91031895D01*
X158250944Y-90981425D01*
X158200682Y-90924275D01*
X158139642Y-90873498D01*
X158139640Y-90873497D01*
X158139638Y-90873495D01*
X158052653Y-90819280D01*
X157957391Y-90774530D01*
X157841776Y-90734018D01*
X157728407Y-90705898D01*
X157559059Y-90686771D01*
X157551223Y-90682437D01*
X157548672Y-90675145D01*
X157548672Y-90396172D01*
X157552099Y-90387899D01*
X157559192Y-90384532D01*
X157675345Y-90372773D01*
X157870427Y-90317923D01*
X158041423Y-90235449D01*
X158169993Y-90138881D01*
X158255818Y-90034893D01*
X158295970Y-89941057D01*
X158302376Y-89934800D01*
X158311330Y-89934904D01*
G37*
G04 #@! TD.AperFunction*
G04 #@! TD*
G04 #@! TA.AperFunction,Conductor*
G04 #@! TO.N,/L_IN*
G36*
X157221928Y-89943556D02*
G01*
X157224862Y-89948524D01*
X157226622Y-89954548D01*
X157253929Y-90017780D01*
X157253931Y-90017783D01*
X157253934Y-90017789D01*
X157291483Y-90076042D01*
X157346998Y-90138407D01*
X157412298Y-90193794D01*
X157499465Y-90250643D01*
X157592946Y-90297554D01*
X157698033Y-90337614D01*
X157800318Y-90365625D01*
X157950914Y-90384324D01*
X157958702Y-90388744D01*
X157961172Y-90395935D01*
X157961172Y-90674596D01*
X157957745Y-90682869D01*
X157950192Y-90686274D01*
X157878467Y-90690695D01*
X157873032Y-90691031D01*
X157804142Y-90704971D01*
X157666362Y-90732852D01*
X157485781Y-90801360D01*
X157353009Y-90883170D01*
X157266375Y-90971802D01*
X157266371Y-90971808D01*
X157226560Y-91052025D01*
X157219813Y-91057913D01*
X157210879Y-91057304D01*
X157207831Y-91055121D01*
X156656013Y-90506392D01*
X156652564Y-90498131D01*
X156655968Y-90489848D01*
X157205383Y-89943509D01*
X157213665Y-89940106D01*
X157221928Y-89943556D01*
G37*
G04 #@! TD.AperFunction*
G04 #@! TD*
G04 #@! TA.AperFunction,Conductor*
G04 #@! TO.N,/L_IN*
G36*
X168042455Y-94007745D02*
G01*
X168045954Y-94015200D01*
X168059933Y-94191268D01*
X168097936Y-94323018D01*
X168158063Y-94425800D01*
X168158064Y-94425801D01*
X168239275Y-94525887D01*
X168274741Y-94567835D01*
X168275149Y-94568347D01*
X168415639Y-94754736D01*
X168417882Y-94763404D01*
X168413338Y-94771120D01*
X168412809Y-94771497D01*
X167901626Y-95114034D01*
X167892846Y-95115792D01*
X167888600Y-95114034D01*
X167377261Y-94771409D01*
X167372296Y-94763957D01*
X167374054Y-94755176D01*
X167374341Y-94754768D01*
X167374366Y-94754735D01*
X167468027Y-94627081D01*
X167468517Y-94626459D01*
X167555954Y-94523177D01*
X167604234Y-94467061D01*
X167682608Y-94354909D01*
X167709037Y-94295176D01*
X167728505Y-94225354D01*
X167737167Y-94162224D01*
X167741761Y-94128750D01*
X167741763Y-94128725D01*
X167743095Y-94080778D01*
X167744801Y-94019440D01*
X167748456Y-94011267D01*
X167756340Y-94008068D01*
X168034139Y-94004427D01*
X168042455Y-94007745D01*
G37*
G04 #@! TD.AperFunction*
G04 #@! TD*
G04 #@! TA.AperFunction,Conductor*
G04 #@! TO.N,/L_IN*
G36*
X161748713Y-89968468D02*
G01*
X161751505Y-89972513D01*
X161774067Y-90026999D01*
X161809354Y-90082325D01*
X161809356Y-90082328D01*
X161809358Y-90082330D01*
X161863096Y-90142194D01*
X161927162Y-90195388D01*
X162015369Y-90251098D01*
X162077033Y-90280809D01*
X162110794Y-90297077D01*
X162110798Y-90297078D01*
X162110807Y-90297083D01*
X162110815Y-90297086D01*
X162110820Y-90297088D01*
X162221744Y-90337400D01*
X162221753Y-90337403D01*
X162329949Y-90365496D01*
X162329951Y-90365496D01*
X162329965Y-90365500D01*
X162489673Y-90384377D01*
X162497487Y-90388751D01*
X162500000Y-90395996D01*
X162500000Y-90674874D01*
X162496573Y-90683147D01*
X162489317Y-90686530D01*
X162384154Y-90695708D01*
X162183788Y-90746204D01*
X162183786Y-90746205D01*
X162008927Y-90823669D01*
X162008920Y-90823674D01*
X161878744Y-90914632D01*
X161792680Y-91012565D01*
X161752872Y-91100636D01*
X161746342Y-91106763D01*
X161737392Y-91106478D01*
X161733690Y-91103835D01*
X161397172Y-90746204D01*
X161206543Y-90543614D01*
X161203370Y-90535242D01*
X161206543Y-90527581D01*
X161732175Y-89968970D01*
X161740339Y-89965294D01*
X161748713Y-89968468D01*
G37*
G04 #@! TD.AperFunction*
G04 #@! TD*
G04 #@! TA.AperFunction,Conductor*
G04 #@! TO.N,/L_IN*
G36*
X160662505Y-89964286D02*
G01*
X160665650Y-89966659D01*
X160954330Y-90273452D01*
X161193298Y-90527413D01*
X161196472Y-90535787D01*
X161193132Y-90543622D01*
X160654580Y-91092955D01*
X160646341Y-91096463D01*
X160638034Y-91093119D01*
X160634975Y-91087975D01*
X160626902Y-91059669D01*
X160626900Y-91059664D01*
X160626899Y-91059661D01*
X160597253Y-90993895D01*
X160583984Y-90973676D01*
X160557449Y-90933242D01*
X160557444Y-90933236D01*
X160499908Y-90868732D01*
X160499905Y-90868729D01*
X160499903Y-90868727D01*
X160432943Y-90811402D01*
X160345886Y-90753537D01*
X160345881Y-90753534D01*
X160345879Y-90753533D01*
X160253225Y-90705765D01*
X160253207Y-90705757D01*
X160152142Y-90665908D01*
X160152133Y-90665905D01*
X160152132Y-90665905D01*
X160102000Y-90651627D01*
X160053957Y-90637944D01*
X159910204Y-90619413D01*
X159902437Y-90614956D01*
X159900000Y-90607809D01*
X159900000Y-90329167D01*
X159903427Y-90320894D01*
X159911051Y-90317485D01*
X159986412Y-90313311D01*
X160132029Y-90286203D01*
X160200520Y-90273454D01*
X160200522Y-90273453D01*
X160200535Y-90273451D01*
X160385991Y-90207758D01*
X160520754Y-90129445D01*
X160607658Y-90044875D01*
X160646739Y-89969303D01*
X160653583Y-89963530D01*
X160662505Y-89964286D01*
G37*
G04 #@! TD.AperFunction*
G04 #@! TD*
G04 #@! TA.AperFunction,Conductor*
G04 #@! TO.N,/L_IN*
G36*
X159398171Y-89937633D02*
G01*
X159401059Y-89941917D01*
X159414439Y-89976359D01*
X159414442Y-89976366D01*
X159443507Y-90024226D01*
X159443509Y-90024228D01*
X159443512Y-90024233D01*
X159477421Y-90063053D01*
X159492821Y-90080684D01*
X159492822Y-90080685D01*
X159492825Y-90080688D01*
X159553020Y-90130845D01*
X159553022Y-90130846D01*
X159553023Y-90130847D01*
X159639557Y-90184645D01*
X159639568Y-90184651D01*
X159639571Y-90184653D01*
X159734674Y-90229064D01*
X159851467Y-90269618D01*
X159966175Y-90297736D01*
X160138269Y-90316937D01*
X160146111Y-90321260D01*
X160148672Y-90328565D01*
X160148672Y-90607559D01*
X160145245Y-90615832D01*
X160138190Y-90619195D01*
X160019477Y-90631624D01*
X159825647Y-90687528D01*
X159825644Y-90687530D01*
X159655548Y-90771239D01*
X159655547Y-90771239D01*
X159527349Y-90869207D01*
X159441571Y-90974722D01*
X159441569Y-90974725D01*
X159401331Y-91070017D01*
X159394956Y-91076306D01*
X159386002Y-91076244D01*
X159382032Y-91073484D01*
X159018861Y-90687528D01*
X158855215Y-90513614D01*
X158852042Y-90505242D01*
X158855215Y-90497581D01*
X159381632Y-89938135D01*
X159389797Y-89934459D01*
X159398171Y-89937633D01*
G37*
G04 #@! TD.AperFunction*
G04 #@! TD*
G04 #@! TA.AperFunction,Conductor*
G04 #@! TO.N,/L_IN*
G36*
X152755678Y-89943556D02*
G01*
X152758612Y-89948524D01*
X152760372Y-89954548D01*
X152787679Y-90017780D01*
X152787681Y-90017783D01*
X152787684Y-90017789D01*
X152825233Y-90076042D01*
X152880748Y-90138407D01*
X152946048Y-90193794D01*
X153033215Y-90250643D01*
X153126696Y-90297554D01*
X153231783Y-90337614D01*
X153334068Y-90365625D01*
X153484664Y-90384324D01*
X153492452Y-90388744D01*
X153494922Y-90395935D01*
X153494922Y-90674596D01*
X153491495Y-90682869D01*
X153483942Y-90686274D01*
X153412217Y-90690695D01*
X153406782Y-90691031D01*
X153337892Y-90704971D01*
X153200112Y-90732852D01*
X153019531Y-90801360D01*
X152886759Y-90883170D01*
X152800125Y-90971802D01*
X152800121Y-90971808D01*
X152760310Y-91052025D01*
X152753563Y-91057913D01*
X152744629Y-91057304D01*
X152741581Y-91055121D01*
X152189763Y-90506392D01*
X152186314Y-90498131D01*
X152189718Y-90489848D01*
X152739133Y-89943509D01*
X152747415Y-89940106D01*
X152755678Y-89943556D01*
G37*
G04 #@! TD.AperFunction*
G04 #@! TD*
G04 #@! TA.AperFunction,Conductor*
G04 #@! TO.N,/L_IN*
G36*
X153845080Y-89934904D02*
G01*
X153848998Y-89937643D01*
X154375877Y-90497580D01*
X154379051Y-90505954D01*
X154375877Y-90513616D01*
X153849475Y-91073044D01*
X153841310Y-91076721D01*
X153832936Y-91073547D01*
X153830044Y-91069251D01*
X153815579Y-91031900D01*
X153815578Y-91031899D01*
X153815577Y-91031895D01*
X153784694Y-90981425D01*
X153734432Y-90924275D01*
X153673392Y-90873498D01*
X153673390Y-90873497D01*
X153673388Y-90873495D01*
X153586403Y-90819280D01*
X153491141Y-90774530D01*
X153375526Y-90734018D01*
X153262157Y-90705898D01*
X153092809Y-90686771D01*
X153084973Y-90682437D01*
X153082422Y-90675145D01*
X153082422Y-90396172D01*
X153085849Y-90387899D01*
X153092942Y-90384532D01*
X153209095Y-90372773D01*
X153404177Y-90317923D01*
X153575173Y-90235449D01*
X153703743Y-90138881D01*
X153789568Y-90034893D01*
X153829720Y-89941057D01*
X153836126Y-89934800D01*
X153845080Y-89934904D01*
G37*
G04 #@! TD.AperFunction*
G04 #@! TD*
G04 #@! TA.AperFunction,Conductor*
G04 #@! TO.N,/L_IN*
G36*
X154931921Y-89937633D02*
G01*
X154934809Y-89941917D01*
X154948189Y-89976359D01*
X154948192Y-89976366D01*
X154977257Y-90024226D01*
X154977259Y-90024228D01*
X154977262Y-90024233D01*
X155011171Y-90063053D01*
X155026571Y-90080684D01*
X155026572Y-90080685D01*
X155026575Y-90080688D01*
X155086770Y-90130845D01*
X155086772Y-90130846D01*
X155086773Y-90130847D01*
X155173307Y-90184645D01*
X155173318Y-90184651D01*
X155173321Y-90184653D01*
X155268424Y-90229064D01*
X155385217Y-90269618D01*
X155499925Y-90297736D01*
X155672019Y-90316937D01*
X155679861Y-90321260D01*
X155682422Y-90328565D01*
X155682422Y-90607559D01*
X155678995Y-90615832D01*
X155671940Y-90619195D01*
X155553227Y-90631624D01*
X155359397Y-90687528D01*
X155359394Y-90687530D01*
X155189298Y-90771239D01*
X155189297Y-90771239D01*
X155061099Y-90869207D01*
X154975321Y-90974722D01*
X154975319Y-90974725D01*
X154935081Y-91070017D01*
X154928706Y-91076306D01*
X154919752Y-91076244D01*
X154915782Y-91073484D01*
X154552611Y-90687528D01*
X154388965Y-90513614D01*
X154385792Y-90505242D01*
X154388965Y-90497581D01*
X154915382Y-89938135D01*
X154923547Y-89934459D01*
X154931921Y-89937633D01*
G37*
G04 #@! TD.AperFunction*
G04 #@! TD*
G04 #@! TA.AperFunction,Conductor*
G04 #@! TO.N,/L_IN*
G36*
X156086475Y-89938934D02*
G01*
X156089587Y-89941150D01*
X156641329Y-90489802D01*
X156644779Y-90498065D01*
X156641375Y-90506348D01*
X156641329Y-90506394D01*
X156091998Y-91052649D01*
X156083715Y-91056053D01*
X156075452Y-91052603D01*
X156072510Y-91047609D01*
X156072039Y-91045982D01*
X156045523Y-90983524D01*
X156008736Y-90925998D01*
X155953929Y-90864278D01*
X155953923Y-90864273D01*
X155953924Y-90864273D01*
X155889226Y-90809468D01*
X155889220Y-90809463D01*
X155802137Y-90752919D01*
X155802135Y-90752918D01*
X155802132Y-90752916D01*
X155708510Y-90706255D01*
X155659615Y-90687781D01*
X155602323Y-90666134D01*
X155498891Y-90638105D01*
X155346444Y-90619361D01*
X155338651Y-90614950D01*
X155336172Y-90607748D01*
X155336172Y-90329060D01*
X155339599Y-90320787D01*
X155347110Y-90317385D01*
X155427656Y-90312136D01*
X155632782Y-90269121D01*
X155812152Y-90199289D01*
X155944392Y-90116064D01*
X156030932Y-90025931D01*
X156070826Y-89944306D01*
X156077537Y-89938380D01*
X156086475Y-89938934D01*
G37*
G04 #@! TD.AperFunction*
G04 #@! TD*
G04 #@! TA.AperFunction,Conductor*
G04 #@! TO.N,/R_IN*
G36*
X189478570Y-89906418D02*
G01*
X189481925Y-89908749D01*
X190033382Y-90457118D01*
X190036832Y-90465381D01*
X190033428Y-90473664D01*
X190033382Y-90473710D01*
X189483003Y-91021007D01*
X189474720Y-91024411D01*
X189466457Y-91020961D01*
X189463856Y-91016970D01*
X189445855Y-90970903D01*
X189445853Y-90970900D01*
X189445852Y-90970897D01*
X189412286Y-90916281D01*
X189412281Y-90916275D01*
X189360611Y-90857223D01*
X189360610Y-90857222D01*
X189360604Y-90857215D01*
X189298552Y-90804755D01*
X189294929Y-90802439D01*
X189212202Y-90749557D01*
X189212198Y-90749555D01*
X189118363Y-90704017D01*
X189007637Y-90663666D01*
X188899381Y-90635589D01*
X188899383Y-90635589D01*
X188738555Y-90616631D01*
X188730740Y-90612259D01*
X188728225Y-90605011D01*
X188728225Y-90326222D01*
X188731652Y-90317949D01*
X188738998Y-90314559D01*
X188832139Y-90307175D01*
X189031424Y-90259539D01*
X189206298Y-90184514D01*
X189336613Y-90095629D01*
X189422822Y-89999468D01*
X189463049Y-89912148D01*
X189469622Y-89906069D01*
X189478570Y-89906418D01*
G37*
G04 #@! TD.AperFunction*
G04 #@! TD*
G04 #@! TA.AperFunction,Conductor*
G04 #@! TO.N,/R_IN*
G36*
X188391297Y-89963808D02*
G01*
X188393806Y-89967223D01*
X188424150Y-90029786D01*
X188424151Y-90029787D01*
X188424152Y-90029789D01*
X188469322Y-90083411D01*
X188525758Y-90131034D01*
X188609949Y-90183059D01*
X188703845Y-90225991D01*
X188825246Y-90266668D01*
X188945472Y-90294739D01*
X189130258Y-90314305D01*
X189138123Y-90318584D01*
X189140725Y-90325940D01*
X189140725Y-90605006D01*
X189137298Y-90613279D01*
X189130389Y-90616626D01*
X189003946Y-90631462D01*
X188816078Y-90690622D01*
X188651652Y-90777678D01*
X188527665Y-90879212D01*
X188527658Y-90879219D01*
X188444928Y-90988598D01*
X188444927Y-90988600D01*
X188406768Y-91087665D01*
X188400596Y-91094153D01*
X188391644Y-91094377D01*
X188387495Y-91091650D01*
X187847592Y-90540938D01*
X187844248Y-90532631D01*
X187847425Y-90524730D01*
X188374759Y-89964310D01*
X188382923Y-89960634D01*
X188391297Y-89963808D01*
G37*
G04 #@! TD.AperFunction*
G04 #@! TD*
G04 #@! TA.AperFunction,Conductor*
G04 #@! TO.N,/R_IN*
G36*
X180562607Y-89962032D02*
G01*
X180566309Y-89964676D01*
X181093455Y-90524896D01*
X181096629Y-90533270D01*
X181093455Y-90540932D01*
X180567826Y-91099540D01*
X180559661Y-91103217D01*
X180551287Y-91100043D01*
X180548495Y-91095998D01*
X180525932Y-91041511D01*
X180490645Y-90986186D01*
X180490643Y-90986184D01*
X180490642Y-90986182D01*
X180436905Y-90926318D01*
X180372838Y-90873124D01*
X180372835Y-90873122D01*
X180284635Y-90817416D01*
X180284629Y-90817413D01*
X180189206Y-90771434D01*
X180189180Y-90771423D01*
X180078256Y-90731111D01*
X180078247Y-90731109D01*
X179970050Y-90703015D01*
X179970030Y-90703011D01*
X179810327Y-90684134D01*
X179802513Y-90679760D01*
X179800000Y-90672515D01*
X179800000Y-90393637D01*
X179803427Y-90385364D01*
X179810681Y-90381981D01*
X179915840Y-90372804D01*
X179915842Y-90372803D01*
X179915847Y-90372803D01*
X180116212Y-90322306D01*
X180116212Y-90322305D01*
X180116215Y-90322305D01*
X180291079Y-90244839D01*
X180421255Y-90153880D01*
X180507317Y-90055949D01*
X180547129Y-89967871D01*
X180553657Y-89961748D01*
X180562607Y-89962032D01*
G37*
G04 #@! TD.AperFunction*
G04 #@! TD*
G04 #@! TA.AperFunction,Conductor*
G04 #@! TO.N,/R_IN*
G36*
X184978570Y-89906418D02*
G01*
X184981925Y-89908749D01*
X185533382Y-90457118D01*
X185536832Y-90465381D01*
X185533428Y-90473664D01*
X185533382Y-90473710D01*
X184983003Y-91021007D01*
X184974720Y-91024411D01*
X184966457Y-91020961D01*
X184963856Y-91016970D01*
X184945855Y-90970903D01*
X184945853Y-90970900D01*
X184945852Y-90970897D01*
X184912286Y-90916281D01*
X184912281Y-90916275D01*
X184860611Y-90857223D01*
X184860610Y-90857222D01*
X184860604Y-90857215D01*
X184798552Y-90804755D01*
X184794929Y-90802439D01*
X184712202Y-90749557D01*
X184712198Y-90749555D01*
X184618363Y-90704017D01*
X184507637Y-90663666D01*
X184399381Y-90635589D01*
X184399383Y-90635589D01*
X184238555Y-90616631D01*
X184230740Y-90612259D01*
X184228225Y-90605011D01*
X184228225Y-90326222D01*
X184231652Y-90317949D01*
X184238998Y-90314559D01*
X184332139Y-90307175D01*
X184531424Y-90259539D01*
X184706298Y-90184514D01*
X184836613Y-90095629D01*
X184922822Y-89999468D01*
X184963049Y-89912148D01*
X184969622Y-89906069D01*
X184978570Y-89906418D01*
G37*
G04 #@! TD.AperFunction*
G04 #@! TD*
G04 #@! TA.AperFunction,Conductor*
G04 #@! TO.N,/R_IN*
G36*
X183891297Y-89963808D02*
G01*
X183893806Y-89967223D01*
X183924150Y-90029786D01*
X183924151Y-90029787D01*
X183924152Y-90029789D01*
X183969322Y-90083411D01*
X184025758Y-90131034D01*
X184109949Y-90183059D01*
X184203845Y-90225991D01*
X184325246Y-90266668D01*
X184445472Y-90294739D01*
X184630258Y-90314305D01*
X184638123Y-90318584D01*
X184640725Y-90325940D01*
X184640725Y-90605006D01*
X184637298Y-90613279D01*
X184630389Y-90616626D01*
X184503946Y-90631462D01*
X184316078Y-90690622D01*
X184151652Y-90777678D01*
X184027665Y-90879212D01*
X184027658Y-90879219D01*
X183944928Y-90988598D01*
X183944927Y-90988600D01*
X183906768Y-91087665D01*
X183900596Y-91094153D01*
X183891644Y-91094377D01*
X183887495Y-91091650D01*
X183347592Y-90540938D01*
X183344248Y-90532631D01*
X183347425Y-90524730D01*
X183874759Y-89964310D01*
X183882923Y-89960634D01*
X183891297Y-89963808D01*
G37*
G04 #@! TD.AperFunction*
G04 #@! TD*
G04 #@! TA.AperFunction,Conductor*
G04 #@! TO.N,/R_IN*
G36*
X181648713Y-89965784D02*
G01*
X181651505Y-89969829D01*
X181674067Y-90024315D01*
X181709354Y-90079641D01*
X181709356Y-90079644D01*
X181709358Y-90079646D01*
X181763096Y-90139510D01*
X181827162Y-90192704D01*
X181915369Y-90248414D01*
X181977033Y-90278125D01*
X182010794Y-90294393D01*
X182010798Y-90294394D01*
X182010807Y-90294399D01*
X182010815Y-90294402D01*
X182010820Y-90294404D01*
X182121744Y-90334716D01*
X182121753Y-90334719D01*
X182229949Y-90362812D01*
X182229951Y-90362812D01*
X182229965Y-90362816D01*
X182389673Y-90381693D01*
X182397487Y-90386067D01*
X182400000Y-90393312D01*
X182400000Y-90672190D01*
X182396573Y-90680463D01*
X182389317Y-90683846D01*
X182284154Y-90693024D01*
X182083788Y-90743520D01*
X182083786Y-90743521D01*
X181908927Y-90820985D01*
X181908920Y-90820990D01*
X181778744Y-90911948D01*
X181692680Y-91009881D01*
X181652872Y-91097952D01*
X181646342Y-91104079D01*
X181637392Y-91103794D01*
X181633690Y-91101151D01*
X181297172Y-90743520D01*
X181106543Y-90540930D01*
X181103370Y-90532558D01*
X181106543Y-90524897D01*
X181632175Y-89966286D01*
X181640339Y-89962610D01*
X181648713Y-89965784D01*
G37*
G04 #@! TD.AperFunction*
G04 #@! TD*
G04 #@! TA.AperFunction,Conductor*
G04 #@! TO.N,/R_IN*
G36*
X182803332Y-89962032D02*
G01*
X182807034Y-89964676D01*
X183334180Y-90524896D01*
X183337354Y-90533270D01*
X183334180Y-90540932D01*
X182808551Y-91099540D01*
X182800386Y-91103217D01*
X182792012Y-91100043D01*
X182789220Y-91095998D01*
X182766657Y-91041511D01*
X182731370Y-90986186D01*
X182731368Y-90986184D01*
X182731367Y-90986182D01*
X182677630Y-90926318D01*
X182613563Y-90873124D01*
X182613560Y-90873122D01*
X182525360Y-90817416D01*
X182525354Y-90817413D01*
X182429931Y-90771434D01*
X182429905Y-90771423D01*
X182318981Y-90731111D01*
X182318972Y-90731109D01*
X182210775Y-90703015D01*
X182210755Y-90703011D01*
X182051052Y-90684134D01*
X182043238Y-90679760D01*
X182040725Y-90672515D01*
X182040725Y-90393637D01*
X182044152Y-90385364D01*
X182051406Y-90381981D01*
X182156565Y-90372804D01*
X182156567Y-90372803D01*
X182156572Y-90372803D01*
X182356937Y-90322306D01*
X182356937Y-90322305D01*
X182356940Y-90322305D01*
X182531804Y-90244839D01*
X182661980Y-90153880D01*
X182748042Y-90055949D01*
X182787854Y-89967871D01*
X182794382Y-89961748D01*
X182803332Y-89962032D01*
G37*
G04 #@! TD.AperFunction*
G04 #@! TD*
G04 #@! TA.AperFunction,Conductor*
G04 #@! TO.N,/R_IN*
G36*
X170034072Y-93912919D02*
G01*
X170042300Y-93916451D01*
X170045609Y-93924062D01*
X170055425Y-94130223D01*
X170093145Y-94283294D01*
X170093149Y-94283306D01*
X170158348Y-94405484D01*
X170158351Y-94405489D01*
X170251137Y-94529983D01*
X170251193Y-94530059D01*
X170415868Y-94754769D01*
X170417994Y-94763468D01*
X170413347Y-94771122D01*
X170412944Y-94771405D01*
X169901600Y-95114034D01*
X169892819Y-95115792D01*
X169888574Y-95114034D01*
X169377187Y-94771361D01*
X169372222Y-94763908D01*
X169373980Y-94755128D01*
X169374202Y-94754808D01*
X169531424Y-94537300D01*
X169531510Y-94537184D01*
X169585397Y-94465609D01*
X169670793Y-94329867D01*
X169699623Y-94260141D01*
X169721223Y-94180000D01*
X169738125Y-94060828D01*
X169744591Y-93920541D01*
X169748395Y-93912438D01*
X169756426Y-93909384D01*
X170034072Y-93912919D01*
G37*
G04 #@! TD.AperFunction*
G04 #@! TD*
G04 #@! TA.AperFunction,Conductor*
G04 #@! TO.N,/R_IN*
G36*
X186129297Y-89921191D02*
G01*
X186132097Y-89926147D01*
X186137358Y-89945270D01*
X186165157Y-90010207D01*
X186203097Y-90070046D01*
X186258551Y-90133740D01*
X186323503Y-90190318D01*
X186408882Y-90247745D01*
X186408884Y-90247746D01*
X186408890Y-90247750D01*
X186500153Y-90295158D01*
X186600945Y-90335059D01*
X186699005Y-90363020D01*
X186843023Y-90381598D01*
X186850789Y-90386054D01*
X186853225Y-90393201D01*
X186853225Y-90671756D01*
X186849798Y-90680029D01*
X186842081Y-90683443D01*
X186779514Y-90686417D01*
X186779512Y-90686417D01*
X186566318Y-90723306D01*
X186380473Y-90786413D01*
X186245376Y-90862535D01*
X186158279Y-90945232D01*
X186118783Y-91019915D01*
X186111886Y-91025626D01*
X186102970Y-91024788D01*
X186100190Y-91022741D01*
X185862531Y-90786413D01*
X185758450Y-90682914D01*
X185548258Y-90473899D01*
X185544808Y-90465636D01*
X185548212Y-90457353D01*
X185548408Y-90457161D01*
X186112757Y-89920769D01*
X186121113Y-89917555D01*
X186129297Y-89921191D01*
G37*
G04 #@! TD.AperFunction*
G04 #@! TD*
G04 #@! TA.AperFunction,Conductor*
G04 #@! TO.N,/R_IN*
G36*
X187303332Y-89962032D02*
G01*
X187307034Y-89964676D01*
X187834180Y-90524896D01*
X187837354Y-90533270D01*
X187834180Y-90540932D01*
X187308551Y-91099540D01*
X187300386Y-91103217D01*
X187292012Y-91100043D01*
X187289220Y-91095998D01*
X187266657Y-91041511D01*
X187231370Y-90986186D01*
X187231368Y-90986184D01*
X187231367Y-90986182D01*
X187177630Y-90926318D01*
X187113563Y-90873124D01*
X187113560Y-90873122D01*
X187025360Y-90817416D01*
X187025354Y-90817413D01*
X186929931Y-90771434D01*
X186929905Y-90771423D01*
X186818981Y-90731111D01*
X186818972Y-90731109D01*
X186710775Y-90703015D01*
X186710755Y-90703011D01*
X186551052Y-90684134D01*
X186543238Y-90679760D01*
X186540725Y-90672515D01*
X186540725Y-90393637D01*
X186544152Y-90385364D01*
X186551406Y-90381981D01*
X186656565Y-90372804D01*
X186656567Y-90372803D01*
X186656572Y-90372803D01*
X186856937Y-90322306D01*
X186856937Y-90322305D01*
X186856940Y-90322305D01*
X187031804Y-90244839D01*
X187161980Y-90153880D01*
X187248042Y-90055949D01*
X187287854Y-89967871D01*
X187294382Y-89961748D01*
X187303332Y-89962032D01*
G37*
G04 #@! TD.AperFunction*
G04 #@! TD*
G04 #@! TA.AperFunction,Conductor*
G04 #@! TO.N,/bQ2*
G36*
X157224158Y-92016339D02*
G01*
X157226433Y-92019575D01*
X157251727Y-92072900D01*
X157251729Y-92072902D01*
X157251730Y-92072903D01*
X157251731Y-92072905D01*
X157294495Y-92125633D01*
X157348511Y-92172431D01*
X157430105Y-92223748D01*
X157521699Y-92266080D01*
X157642606Y-92306743D01*
X157762894Y-92334752D01*
X157950696Y-92354496D01*
X157958565Y-92358769D01*
X157961172Y-92366132D01*
X157961172Y-92645106D01*
X157957745Y-92653379D01*
X157950742Y-92656737D01*
X157835999Y-92669268D01*
X157649484Y-92725537D01*
X157649468Y-92725543D01*
X157485566Y-92810060D01*
X157485558Y-92810065D01*
X157361921Y-92909361D01*
X157361920Y-92909362D01*
X157279436Y-93016790D01*
X157279432Y-93016798D01*
X157241189Y-93114955D01*
X157234992Y-93121420D01*
X157226040Y-93121610D01*
X157222227Y-93119189D01*
X156808061Y-92725541D01*
X156656394Y-92581388D01*
X156652759Y-92573205D01*
X156655974Y-92564848D01*
X156656176Y-92564641D01*
X157207612Y-92016292D01*
X157215895Y-92012889D01*
X157224158Y-92016339D01*
G37*
G04 #@! TD.AperFunction*
G04 #@! TD*
G04 #@! TA.AperFunction,Conductor*
G04 #@! TO.N,/bQ2*
G36*
X158311279Y-91934716D02*
G01*
X158314981Y-91937360D01*
X158842127Y-92497580D01*
X158845301Y-92505954D01*
X158842127Y-92513616D01*
X158316498Y-93072224D01*
X158308333Y-93075901D01*
X158299959Y-93072727D01*
X158297167Y-93068682D01*
X158274604Y-93014195D01*
X158239317Y-92958870D01*
X158239315Y-92958868D01*
X158239314Y-92958866D01*
X158185577Y-92899002D01*
X158121510Y-92845808D01*
X158121507Y-92845806D01*
X158033307Y-92790100D01*
X158033301Y-92790097D01*
X157937878Y-92744118D01*
X157937852Y-92744107D01*
X157826928Y-92703795D01*
X157826919Y-92703793D01*
X157718722Y-92675699D01*
X157718702Y-92675695D01*
X157558999Y-92656818D01*
X157551185Y-92652444D01*
X157548672Y-92645199D01*
X157548672Y-92366321D01*
X157552099Y-92358048D01*
X157559353Y-92354665D01*
X157664512Y-92345488D01*
X157664514Y-92345487D01*
X157664519Y-92345487D01*
X157864884Y-92294990D01*
X157864884Y-92294989D01*
X157864887Y-92294989D01*
X158039751Y-92217523D01*
X158169927Y-92126564D01*
X158255989Y-92028633D01*
X158295801Y-91940555D01*
X158302329Y-91934432D01*
X158311279Y-91934716D01*
G37*
G04 #@! TD.AperFunction*
G04 #@! TD*
G04 #@! TA.AperFunction,Conductor*
G04 #@! TO.N,/bQ2*
G36*
X155936727Y-92344093D02*
G01*
X156643452Y-92570492D01*
X156650286Y-92576279D01*
X156651117Y-92578366D01*
X156815020Y-93141746D01*
X156814041Y-93150647D01*
X156807054Y-93156248D01*
X156801314Y-93156450D01*
X156647637Y-93123234D01*
X156607834Y-93119754D01*
X156528231Y-93112795D01*
X156528229Y-93112795D01*
X156408642Y-93113245D01*
X156408637Y-93113245D01*
X156282268Y-93124710D01*
X156282260Y-93124711D01*
X156159315Y-93146406D01*
X156159312Y-93146406D01*
X156159310Y-93146407D01*
X156159306Y-93146408D01*
X156159293Y-93146411D01*
X156039573Y-93177814D01*
X156039570Y-93177815D01*
X155927296Y-93217423D01*
X155741120Y-93311250D01*
X155622471Y-93404039D01*
X155613843Y-93406436D01*
X155606990Y-93403096D01*
X155410136Y-93206242D01*
X155406709Y-93197969D01*
X155409818Y-93190027D01*
X155543693Y-93045246D01*
X155722217Y-92816046D01*
X155841810Y-92618346D01*
X155905049Y-92461257D01*
X155921592Y-92353458D01*
X155926235Y-92345803D01*
X155934932Y-92343670D01*
X155936727Y-92344093D01*
G37*
G04 #@! TD.AperFunction*
G04 #@! TD*
G04 #@! TA.AperFunction,Conductor*
G04 #@! TO.N,/bQ2*
G36*
X153848065Y-96713427D02*
G01*
X153851383Y-96720112D01*
X153857476Y-96764650D01*
X153866540Y-96830910D01*
X153912743Y-96952285D01*
X153976811Y-97039323D01*
X154054513Y-97091603D01*
X154054515Y-97091604D01*
X154054517Y-97091605D01*
X154082713Y-97100230D01*
X154098958Y-97105200D01*
X154098959Y-97105200D01*
X154098962Y-97105201D01*
X154125726Y-97107786D01*
X154133631Y-97111993D01*
X154136247Y-97120557D01*
X154133345Y-97127206D01*
X153799920Y-97502234D01*
X153791862Y-97506140D01*
X153783402Y-97503204D01*
X153362660Y-97127238D01*
X153358774Y-97119171D01*
X153361732Y-97110718D01*
X153369052Y-97106898D01*
X153380189Y-97105554D01*
X153419466Y-97088888D01*
X153452341Y-97061800D01*
X153489467Y-97008753D01*
X153516098Y-96944556D01*
X153543262Y-96816202D01*
X153549305Y-96720959D01*
X153553249Y-96712920D01*
X153560982Y-96710000D01*
X153839792Y-96710000D01*
X153848065Y-96713427D01*
G37*
G04 #@! TD.AperFunction*
G04 #@! TD*
G04 #@! TA.AperFunction,Conductor*
G04 #@! TO.N,/bQ4*
G36*
X184978559Y-91981376D02*
G01*
X184981855Y-91983679D01*
X185533382Y-92532118D01*
X185536832Y-92540381D01*
X185533428Y-92548664D01*
X185533382Y-92548710D01*
X184983263Y-93095748D01*
X184974980Y-93099152D01*
X184966717Y-93095702D01*
X184964151Y-93091800D01*
X184943815Y-93040948D01*
X184909416Y-92985602D01*
X184856907Y-92925861D01*
X184856898Y-92925852D01*
X184794147Y-92872806D01*
X184794145Y-92872804D01*
X184794143Y-92872802D01*
X184794141Y-92872801D01*
X184707543Y-92817246D01*
X184613696Y-92771405D01*
X184613697Y-92771405D01*
X184613695Y-92771404D01*
X184504135Y-92731115D01*
X184504115Y-92731108D01*
X184397112Y-92703043D01*
X184397113Y-92703043D01*
X184397107Y-92703042D01*
X184397106Y-92703042D01*
X184349679Y-92697389D01*
X184238540Y-92684143D01*
X184230731Y-92679761D01*
X184228225Y-92672525D01*
X184228225Y-92393761D01*
X184231652Y-92385488D01*
X184239039Y-92382094D01*
X184329165Y-92375266D01*
X184529863Y-92328763D01*
X184705811Y-92255022D01*
X184836580Y-92167551D01*
X184922864Y-92072904D01*
X184922864Y-92072903D01*
X184922866Y-92072901D01*
X184939829Y-92036606D01*
X184963007Y-91987019D01*
X184969613Y-91980977D01*
X184978559Y-91981376D01*
G37*
G04 #@! TD.AperFunction*
G04 #@! TD*
G04 #@! TA.AperFunction,Conductor*
G04 #@! TO.N,/bQ4*
G36*
X183889438Y-91965784D02*
G01*
X183892230Y-91969829D01*
X183914792Y-92024315D01*
X183950079Y-92079641D01*
X183950081Y-92079644D01*
X183950083Y-92079646D01*
X184003821Y-92139510D01*
X184067887Y-92192704D01*
X184156094Y-92248414D01*
X184217758Y-92278125D01*
X184251519Y-92294393D01*
X184251523Y-92294394D01*
X184251532Y-92294399D01*
X184251540Y-92294402D01*
X184251545Y-92294404D01*
X184362469Y-92334716D01*
X184362478Y-92334719D01*
X184470674Y-92362812D01*
X184470676Y-92362812D01*
X184470690Y-92362816D01*
X184630398Y-92381693D01*
X184638212Y-92386067D01*
X184640725Y-92393312D01*
X184640725Y-92672190D01*
X184637298Y-92680463D01*
X184630042Y-92683846D01*
X184524879Y-92693024D01*
X184324513Y-92743520D01*
X184324511Y-92743521D01*
X184149652Y-92820985D01*
X184149645Y-92820990D01*
X184019469Y-92911948D01*
X183933405Y-93009881D01*
X183893597Y-93097952D01*
X183887067Y-93104079D01*
X183878117Y-93103794D01*
X183874415Y-93101151D01*
X183537897Y-92743520D01*
X183347268Y-92540930D01*
X183344095Y-92532558D01*
X183347268Y-92524897D01*
X183872900Y-91966286D01*
X183881064Y-91962610D01*
X183889438Y-91965784D01*
G37*
G04 #@! TD.AperFunction*
G04 #@! TD*
G04 #@! TA.AperFunction,Conductor*
G04 #@! TO.N,/bQ4*
G36*
X188827193Y-98907840D02*
G01*
X188860668Y-98974132D01*
X188898805Y-99015029D01*
X188943175Y-99045560D01*
X188943178Y-99045561D01*
X188943181Y-99045563D01*
X189006684Y-99071718D01*
X189006685Y-99071718D01*
X189006687Y-99071719D01*
X189072205Y-99084886D01*
X189145336Y-99087258D01*
X189198906Y-99080438D01*
X189207544Y-99082792D01*
X189210515Y-99086195D01*
X189348808Y-99325760D01*
X189349976Y-99334638D01*
X189344524Y-99341742D01*
X189341452Y-99342975D01*
X189281508Y-99357622D01*
X189106611Y-99417986D01*
X188981709Y-99487249D01*
X188907042Y-99558864D01*
X188907041Y-99558866D01*
X188877408Y-99623312D01*
X188870838Y-99629397D01*
X188862441Y-99629291D01*
X188332940Y-99417986D01*
X188019837Y-99293037D01*
X188013425Y-99286789D01*
X188013308Y-99277834D01*
X188019235Y-99271566D01*
X188811811Y-98902507D01*
X188820757Y-98902122D01*
X188827193Y-98907840D01*
G37*
G04 #@! TD.AperFunction*
G04 #@! TD*
G04 #@! TA.AperFunction,Conductor*
G04 #@! TO.N,/bQ4*
G36*
X186259834Y-92407398D02*
G01*
X186264735Y-92414893D01*
X186264921Y-92417692D01*
X186260099Y-92507093D01*
X186260099Y-92507107D01*
X186269566Y-92606696D01*
X186269567Y-92606702D01*
X186291186Y-92707638D01*
X186330088Y-92827065D01*
X186380293Y-92943129D01*
X186380304Y-92943152D01*
X186445971Y-93065601D01*
X186445979Y-93065615D01*
X186517364Y-93176409D01*
X186517368Y-93176415D01*
X186517373Y-93176421D01*
X186645206Y-93331672D01*
X186647820Y-93340237D01*
X186644569Y-93347258D01*
X186450942Y-93546722D01*
X186442721Y-93550272D01*
X186434509Y-93547074D01*
X186419215Y-93532613D01*
X186408453Y-93522436D01*
X186408450Y-93522434D01*
X186408448Y-93522432D01*
X186321257Y-93451898D01*
X186218344Y-93382674D01*
X186094007Y-93318120D01*
X185984718Y-93261379D01*
X185743911Y-93176671D01*
X185743910Y-93176670D01*
X185517697Y-93132975D01*
X185517687Y-93132974D01*
X185331693Y-93128327D01*
X185323508Y-93124695D01*
X185320289Y-93116339D01*
X185321055Y-93112456D01*
X185537674Y-92545822D01*
X185543829Y-92539320D01*
X185546426Y-92538507D01*
X186251071Y-92405565D01*
X186259834Y-92407398D01*
G37*
G04 #@! TD.AperFunction*
G04 #@! TD*
G04 #@! TA.AperFunction,Conductor*
G04 #@! TO.N,GND*
G36*
X153939779Y-98613427D02*
G01*
X153943151Y-98620572D01*
X153952927Y-98721497D01*
X153990254Y-98849903D01*
X154044048Y-98939279D01*
X154044047Y-98939279D01*
X154074718Y-98963562D01*
X154110158Y-98991621D01*
X154148620Y-99005203D01*
X154167942Y-99007333D01*
X154175790Y-99011646D01*
X154178290Y-99020245D01*
X154174943Y-99027226D01*
X153800410Y-99402696D01*
X153792142Y-99406133D01*
X153783864Y-99402716D01*
X153783844Y-99402696D01*
X153407177Y-99025087D01*
X153403760Y-99016809D01*
X153407197Y-99008541D01*
X153412932Y-99005401D01*
X153473101Y-98992102D01*
X153516164Y-98963565D01*
X153538489Y-98939279D01*
X153551744Y-98924861D01*
X153551745Y-98924858D01*
X153551749Y-98924855D01*
X153590570Y-98857722D01*
X153617258Y-98783115D01*
X153636518Y-98688289D01*
X153641349Y-98620864D01*
X153645358Y-98612857D01*
X153653019Y-98610000D01*
X153931506Y-98610000D01*
X153939779Y-98613427D01*
G37*
G04 #@! TD.AperFunction*
G04 #@! TD*
G04 #@! TA.AperFunction,Conductor*
G04 #@! TO.N,GND*
G36*
X154081892Y-98556029D02*
G01*
X154089320Y-98561029D01*
X154091039Y-98569817D01*
X154090837Y-98570654D01*
X154054436Y-98700545D01*
X154053840Y-98702189D01*
X154010625Y-98798227D01*
X154010447Y-98798604D01*
X154003077Y-98813537D01*
X153959613Y-98925929D01*
X153946813Y-98998929D01*
X153942674Y-99083111D01*
X153938845Y-99091205D01*
X153930988Y-99094236D01*
X153653293Y-99094236D01*
X153645020Y-99090809D01*
X153641606Y-99083082D01*
X153637294Y-98990711D01*
X153637293Y-98990705D01*
X153637293Y-98990699D01*
X153624131Y-98912949D01*
X153580873Y-98793393D01*
X153556173Y-98734362D01*
X153555718Y-98733065D01*
X153546653Y-98701392D01*
X153509248Y-98570700D01*
X153510266Y-98561806D01*
X153517277Y-98556235D01*
X153518154Y-98556020D01*
X153797682Y-98499469D01*
X153802318Y-98499469D01*
X154081892Y-98556029D01*
G37*
G04 #@! TD.AperFunction*
G04 #@! TD*
G04 #@! TA.AperFunction,Conductor*
G04 #@! TO.N,GND*
G36*
X161298530Y-91639025D02*
G01*
X161301764Y-91645179D01*
X161312559Y-91703807D01*
X161336598Y-91752999D01*
X161336599Y-91753001D01*
X161336600Y-91753002D01*
X161372395Y-91800762D01*
X161420995Y-91847357D01*
X161480607Y-91889825D01*
X161549343Y-91926347D01*
X161627253Y-91956324D01*
X161777295Y-91986380D01*
X161784733Y-91991365D01*
X161786468Y-92000150D01*
X161782868Y-92006508D01*
X161207872Y-92529438D01*
X161199446Y-92532469D01*
X161192128Y-92529438D01*
X160617348Y-92006706D01*
X160613533Y-91998604D01*
X160616564Y-91990178D01*
X160623035Y-91986556D01*
X160757377Y-91961055D01*
X160838051Y-91931935D01*
X160909399Y-91895847D01*
X161018544Y-91810622D01*
X161080609Y-91720668D01*
X161097926Y-91644698D01*
X161103105Y-91637393D01*
X161109333Y-91635598D01*
X161290257Y-91635598D01*
X161298530Y-91639025D01*
G37*
G04 #@! TD.AperFunction*
G04 #@! TD*
G04 #@! TA.AperFunction,Conductor*
G04 #@! TO.N,GND*
G36*
X161482132Y-91691676D02*
G01*
X161489561Y-91696676D01*
X161491280Y-91705464D01*
X161491138Y-91706079D01*
X161472638Y-91777473D01*
X161472178Y-91778877D01*
X161446535Y-91843093D01*
X161445738Y-91844713D01*
X161388169Y-91941982D01*
X161387914Y-91942393D01*
X161362020Y-91982288D01*
X161317663Y-92081078D01*
X161317662Y-92081079D01*
X161304708Y-92146603D01*
X161304708Y-92146608D01*
X161300624Y-92218795D01*
X161296736Y-92226861D01*
X161288943Y-92229834D01*
X161110894Y-92229834D01*
X161102621Y-92226407D01*
X161099224Y-92218967D01*
X161092800Y-92129024D01*
X161092800Y-92129023D01*
X161073464Y-92053821D01*
X161045383Y-91994714D01*
X161045382Y-91994713D01*
X161045381Y-91994710D01*
X161012077Y-91942385D01*
X161011852Y-91942018D01*
X160951884Y-91839666D01*
X160951079Y-91838002D01*
X160926760Y-91775645D01*
X160926334Y-91774325D01*
X160908824Y-91706055D01*
X160910088Y-91697192D01*
X160917250Y-91691817D01*
X160917818Y-91691686D01*
X161197682Y-91635067D01*
X161202318Y-91635067D01*
X161482132Y-91691676D01*
G37*
G04 #@! TD.AperFunction*
G04 #@! TD*
G04 #@! TA.AperFunction,Conductor*
G04 #@! TO.N,GND*
G36*
X154039779Y-104613427D02*
G01*
X154043151Y-104620572D01*
X154052927Y-104721497D01*
X154090254Y-104849903D01*
X154144048Y-104939279D01*
X154144047Y-104939279D01*
X154174718Y-104963562D01*
X154210158Y-104991621D01*
X154248620Y-105005203D01*
X154267942Y-105007333D01*
X154275790Y-105011646D01*
X154278290Y-105020245D01*
X154274943Y-105027226D01*
X153900410Y-105402696D01*
X153892142Y-105406133D01*
X153883864Y-105402716D01*
X153883844Y-105402696D01*
X153507177Y-105025087D01*
X153503760Y-105016809D01*
X153507197Y-105008541D01*
X153512932Y-105005401D01*
X153573101Y-104992102D01*
X153616164Y-104963565D01*
X153638489Y-104939279D01*
X153651744Y-104924861D01*
X153651745Y-104924858D01*
X153651749Y-104924855D01*
X153690570Y-104857722D01*
X153717258Y-104783115D01*
X153736518Y-104688289D01*
X153741349Y-104620864D01*
X153745358Y-104612857D01*
X153753019Y-104610000D01*
X154031506Y-104610000D01*
X154039779Y-104613427D01*
G37*
G04 #@! TD.AperFunction*
G04 #@! TD*
G04 #@! TA.AperFunction,Conductor*
G04 #@! TO.N,GND*
G36*
X154181892Y-104556029D02*
G01*
X154189320Y-104561029D01*
X154191039Y-104569817D01*
X154190837Y-104570654D01*
X154154436Y-104700545D01*
X154153840Y-104702189D01*
X154110625Y-104798227D01*
X154110447Y-104798604D01*
X154103077Y-104813537D01*
X154059613Y-104925929D01*
X154046813Y-104998929D01*
X154042674Y-105083111D01*
X154038845Y-105091205D01*
X154030988Y-105094236D01*
X153753293Y-105094236D01*
X153745020Y-105090809D01*
X153741606Y-105083082D01*
X153737294Y-104990711D01*
X153737293Y-104990705D01*
X153737293Y-104990699D01*
X153724131Y-104912949D01*
X153680873Y-104793393D01*
X153656173Y-104734362D01*
X153655718Y-104733065D01*
X153646653Y-104701392D01*
X153609248Y-104570700D01*
X153610266Y-104561806D01*
X153617277Y-104556235D01*
X153618154Y-104556020D01*
X153897682Y-104499469D01*
X153902318Y-104499469D01*
X154181892Y-104556029D01*
G37*
G04 #@! TD.AperFunction*
G04 #@! TD*
G04 #@! TA.AperFunction,Conductor*
G04 #@! TO.N,GND*
G36*
X181198530Y-91636341D02*
G01*
X181201764Y-91642495D01*
X181212559Y-91701123D01*
X181236598Y-91750315D01*
X181236599Y-91750317D01*
X181236600Y-91750318D01*
X181272395Y-91798078D01*
X181320995Y-91844673D01*
X181380607Y-91887141D01*
X181449343Y-91923663D01*
X181527253Y-91953640D01*
X181677295Y-91983696D01*
X181684733Y-91988681D01*
X181686468Y-91997466D01*
X181682868Y-92003824D01*
X181107872Y-92526754D01*
X181099446Y-92529785D01*
X181092128Y-92526754D01*
X180517348Y-92004022D01*
X180513533Y-91995920D01*
X180516564Y-91987494D01*
X180523035Y-91983872D01*
X180657377Y-91958371D01*
X180738051Y-91929251D01*
X180809399Y-91893163D01*
X180918544Y-91807938D01*
X180980609Y-91717984D01*
X180997926Y-91642014D01*
X181003105Y-91634709D01*
X181009333Y-91632914D01*
X181190257Y-91632914D01*
X181198530Y-91636341D01*
G37*
G04 #@! TD.AperFunction*
G04 #@! TD*
G04 #@! TA.AperFunction,Conductor*
G04 #@! TO.N,GND*
G36*
X181382132Y-91688992D02*
G01*
X181389561Y-91693992D01*
X181391280Y-91702780D01*
X181391138Y-91703395D01*
X181372638Y-91774789D01*
X181372178Y-91776193D01*
X181346535Y-91840409D01*
X181345738Y-91842029D01*
X181288169Y-91939298D01*
X181287914Y-91939709D01*
X181262020Y-91979604D01*
X181217663Y-92078394D01*
X181217662Y-92078395D01*
X181204708Y-92143919D01*
X181204708Y-92143924D01*
X181200624Y-92216111D01*
X181196736Y-92224177D01*
X181188943Y-92227150D01*
X181010894Y-92227150D01*
X181002621Y-92223723D01*
X180999224Y-92216283D01*
X180992800Y-92126340D01*
X180992800Y-92126339D01*
X180973464Y-92051137D01*
X180945383Y-91992030D01*
X180945382Y-91992029D01*
X180945381Y-91992026D01*
X180912077Y-91939701D01*
X180911852Y-91939334D01*
X180851884Y-91836982D01*
X180851079Y-91835318D01*
X180826760Y-91772961D01*
X180826334Y-91771641D01*
X180808824Y-91703371D01*
X180810088Y-91694508D01*
X180817250Y-91689133D01*
X180817818Y-91689002D01*
X181097682Y-91632383D01*
X181102318Y-91632383D01*
X181382132Y-91688992D01*
G37*
G04 #@! TD.AperFunction*
G04 #@! TD*
G04 #@! TA.AperFunction,Conductor*
G04 #@! TO.N,GND*
G36*
X188003809Y-97389782D02*
G01*
X188203449Y-97589921D01*
X188380497Y-97767412D01*
X188383914Y-97775690D01*
X188380477Y-97783958D01*
X188374739Y-97787099D01*
X188314574Y-97800398D01*
X188314571Y-97800399D01*
X188271512Y-97828934D01*
X188271508Y-97828937D01*
X188235930Y-97867638D01*
X188235925Y-97867645D01*
X188197107Y-97934772D01*
X188197102Y-97934783D01*
X188170418Y-98009382D01*
X188170414Y-98009395D01*
X188151157Y-98104211D01*
X188146326Y-98171636D01*
X188142317Y-98179643D01*
X188134656Y-98182500D01*
X187856169Y-98182500D01*
X187847896Y-98179073D01*
X187844524Y-98171928D01*
X187834747Y-98071002D01*
X187834746Y-98070998D01*
X187797422Y-97942599D01*
X187743626Y-97853220D01*
X187743627Y-97853220D01*
X187677516Y-97800878D01*
X187639054Y-97787296D01*
X187639050Y-97787295D01*
X187619731Y-97785165D01*
X187611884Y-97780852D01*
X187609385Y-97772253D01*
X187612730Y-97765275D01*
X187987266Y-97389802D01*
X187995533Y-97386366D01*
X188003809Y-97389782D01*
G37*
G04 #@! TD.AperFunction*
G04 #@! TD*
G04 #@! TA.AperFunction,Conductor*
G04 #@! TO.N,GND*
G36*
X188142715Y-97741691D02*
G01*
X188146126Y-97749355D01*
X188150885Y-97840707D01*
X188165353Y-97917660D01*
X188212380Y-98035013D01*
X188212398Y-98035055D01*
X188244979Y-98106659D01*
X188245556Y-98108208D01*
X188290642Y-98261736D01*
X188289685Y-98270640D01*
X188282713Y-98276259D01*
X188281736Y-98276501D01*
X188002320Y-98333030D01*
X187997680Y-98333030D01*
X187717972Y-98276442D01*
X187710543Y-98271442D01*
X187708824Y-98262654D01*
X187708985Y-98261969D01*
X187743146Y-98134673D01*
X187743614Y-98133288D01*
X187782753Y-98037870D01*
X187828095Y-97914725D01*
X187840866Y-97838706D01*
X187845028Y-97749418D01*
X187848836Y-97741315D01*
X187856715Y-97738264D01*
X188134442Y-97738264D01*
X188142715Y-97741691D01*
G37*
G04 #@! TD.AperFunction*
G04 #@! TD*
G04 #@! TA.AperFunction,Conductor*
G04 #@! TO.N,GND*
G36*
X188003809Y-103489782D02*
G01*
X188203449Y-103689921D01*
X188380497Y-103867412D01*
X188383914Y-103875690D01*
X188380477Y-103883958D01*
X188374739Y-103887099D01*
X188314574Y-103900398D01*
X188314571Y-103900399D01*
X188271512Y-103928934D01*
X188271508Y-103928937D01*
X188235930Y-103967638D01*
X188235925Y-103967645D01*
X188197107Y-104034772D01*
X188197102Y-104034783D01*
X188170418Y-104109382D01*
X188170414Y-104109395D01*
X188151157Y-104204211D01*
X188146326Y-104271636D01*
X188142317Y-104279643D01*
X188134656Y-104282500D01*
X187856169Y-104282500D01*
X187847896Y-104279073D01*
X187844524Y-104271928D01*
X187834747Y-104171002D01*
X187834746Y-104170998D01*
X187797422Y-104042599D01*
X187743626Y-103953220D01*
X187743627Y-103953220D01*
X187677516Y-103900878D01*
X187639054Y-103887296D01*
X187639050Y-103887295D01*
X187619731Y-103885165D01*
X187611884Y-103880852D01*
X187609385Y-103872253D01*
X187612730Y-103865275D01*
X187987266Y-103489802D01*
X187995533Y-103486366D01*
X188003809Y-103489782D01*
G37*
G04 #@! TD.AperFunction*
G04 #@! TD*
G04 #@! TA.AperFunction,Conductor*
G04 #@! TO.N,GND*
G36*
X188142715Y-103809191D02*
G01*
X188146126Y-103816855D01*
X188150885Y-103908207D01*
X188165353Y-103985160D01*
X188212380Y-104102513D01*
X188212398Y-104102555D01*
X188244979Y-104174159D01*
X188245556Y-104175708D01*
X188290642Y-104329236D01*
X188289685Y-104338140D01*
X188282713Y-104343759D01*
X188281736Y-104344001D01*
X188002320Y-104400530D01*
X187997680Y-104400530D01*
X187717972Y-104343942D01*
X187710543Y-104338942D01*
X187708824Y-104330154D01*
X187708985Y-104329469D01*
X187743146Y-104202173D01*
X187743614Y-104200788D01*
X187782753Y-104105370D01*
X187828095Y-103982225D01*
X187840866Y-103906206D01*
X187845028Y-103816918D01*
X187848836Y-103808815D01*
X187856715Y-103805764D01*
X188134442Y-103805764D01*
X188142715Y-103809191D01*
G37*
G04 #@! TD.AperFunction*
G04 #@! TD*
G04 #@! TA.AperFunction,Conductor*
G04 #@! TO.N,+5V*
G36*
X179189617Y-94848846D02*
G01*
X179238245Y-94866530D01*
X179238248Y-94866530D01*
X179238252Y-94866532D01*
X179314564Y-94882492D01*
X179314569Y-94882493D01*
X179495060Y-94897514D01*
X179887654Y-94889330D01*
X180080075Y-94882903D01*
X180088457Y-94886051D01*
X180092158Y-94894205D01*
X180092165Y-94894596D01*
X180092165Y-95172473D01*
X180088738Y-95180746D01*
X180082256Y-95184035D01*
X179981850Y-95199589D01*
X179981846Y-95199590D01*
X179839058Y-95261703D01*
X179839056Y-95261704D01*
X179711925Y-95357207D01*
X179615011Y-95473645D01*
X179552452Y-95604047D01*
X179528689Y-95729107D01*
X179523778Y-95736595D01*
X179515011Y-95738417D01*
X179510782Y-95736709D01*
X178957219Y-95373917D01*
X178952178Y-95366516D01*
X178952885Y-95359505D01*
X178953875Y-95357207D01*
X179170633Y-94853674D01*
X179177052Y-94847431D01*
X179185378Y-94847305D01*
X179189617Y-94848846D01*
G37*
G04 #@! TD.AperFunction*
G04 #@! TD*
G04 #@! TA.AperFunction,Conductor*
G04 #@! TO.N,+5V*
G36*
X186743097Y-100235927D02*
G01*
X186746480Y-100243183D01*
X186755658Y-100348347D01*
X186806155Y-100548712D01*
X186806156Y-100548714D01*
X186883620Y-100723573D01*
X186883624Y-100723580D01*
X186974583Y-100853756D01*
X187072515Y-100939819D01*
X187134174Y-100967688D01*
X187160586Y-100979627D01*
X187166713Y-100986157D01*
X187166428Y-100995107D01*
X187163785Y-100998809D01*
X186603566Y-101525955D01*
X186595192Y-101529129D01*
X186587530Y-101525955D01*
X186409443Y-101358383D01*
X186028920Y-101000324D01*
X186025244Y-100992161D01*
X186028418Y-100983787D01*
X186032461Y-100980996D01*
X186086953Y-100958431D01*
X186142280Y-100923142D01*
X186202144Y-100869405D01*
X186255338Y-100805338D01*
X186311048Y-100717131D01*
X186357033Y-100621694D01*
X186397351Y-100510753D01*
X186425450Y-100402535D01*
X186444327Y-100242826D01*
X186448701Y-100235013D01*
X186455946Y-100232500D01*
X186734824Y-100232500D01*
X186743097Y-100235927D01*
G37*
G04 #@! TD.AperFunction*
G04 #@! TD*
G04 #@! TA.AperFunction,Conductor*
G04 #@! TO.N,+5V*
G36*
X186603564Y-95539043D02*
G01*
X187046497Y-95955826D01*
X187162174Y-96064674D01*
X187165851Y-96072839D01*
X187162677Y-96081213D01*
X187158632Y-96084005D01*
X187104146Y-96106567D01*
X187048820Y-96141854D01*
X187048816Y-96141858D01*
X186988952Y-96195596D01*
X186975958Y-96211246D01*
X186935756Y-96259664D01*
X186880050Y-96347864D01*
X186880047Y-96347870D01*
X186834068Y-96443294D01*
X186834057Y-96443320D01*
X186793745Y-96554244D01*
X186793742Y-96554253D01*
X186765649Y-96662449D01*
X186765645Y-96662469D01*
X186746769Y-96822173D01*
X186742395Y-96829987D01*
X186735150Y-96832500D01*
X186456272Y-96832500D01*
X186447999Y-96829073D01*
X186444616Y-96821817D01*
X186435437Y-96716654D01*
X186384941Y-96516288D01*
X186384940Y-96516286D01*
X186307476Y-96341427D01*
X186307473Y-96341424D01*
X186307473Y-96341422D01*
X186216515Y-96211246D01*
X186118583Y-96125183D01*
X186118580Y-96125180D01*
X186030509Y-96085372D01*
X186024382Y-96078842D01*
X186024667Y-96069892D01*
X186027308Y-96066192D01*
X186587531Y-95539043D01*
X186595904Y-95535870D01*
X186603564Y-95539043D01*
G37*
G04 #@! TD.AperFunction*
G04 #@! TD*
G04 #@! TA.AperFunction,Conductor*
G04 #@! TO.N,+5V*
G36*
X155300143Y-95666543D02*
G01*
X155743076Y-96083326D01*
X155858753Y-96192174D01*
X155862430Y-96200339D01*
X155859256Y-96208713D01*
X155855211Y-96211505D01*
X155800725Y-96234067D01*
X155745399Y-96269354D01*
X155745395Y-96269358D01*
X155685531Y-96323096D01*
X155672537Y-96338746D01*
X155632335Y-96387164D01*
X155576629Y-96475364D01*
X155576626Y-96475370D01*
X155530647Y-96570794D01*
X155530636Y-96570820D01*
X155490324Y-96681744D01*
X155490321Y-96681753D01*
X155462228Y-96789949D01*
X155462224Y-96789969D01*
X155443348Y-96949673D01*
X155438974Y-96957487D01*
X155431729Y-96960000D01*
X155152851Y-96960000D01*
X155144578Y-96956573D01*
X155141195Y-96949317D01*
X155132016Y-96844154D01*
X155081520Y-96643788D01*
X155081519Y-96643786D01*
X155004055Y-96468927D01*
X155004052Y-96468924D01*
X155004052Y-96468922D01*
X154913094Y-96338746D01*
X154815162Y-96252683D01*
X154815159Y-96252680D01*
X154727088Y-96212872D01*
X154720961Y-96206342D01*
X154721246Y-96197392D01*
X154723887Y-96193692D01*
X155284110Y-95666543D01*
X155292483Y-95663370D01*
X155300143Y-95666543D01*
G37*
G04 #@! TD.AperFunction*
G04 #@! TD*
G04 #@! TA.AperFunction,Conductor*
G04 #@! TO.N,+5V*
G36*
X155439676Y-100163427D02*
G01*
X155443059Y-100170683D01*
X155452237Y-100275847D01*
X155502734Y-100476212D01*
X155502735Y-100476214D01*
X155580199Y-100651073D01*
X155580203Y-100651080D01*
X155671162Y-100781256D01*
X155769094Y-100867319D01*
X155830753Y-100895188D01*
X155857165Y-100907127D01*
X155863292Y-100913657D01*
X155863007Y-100922607D01*
X155860364Y-100926309D01*
X155300145Y-101453455D01*
X155291771Y-101456629D01*
X155284109Y-101453455D01*
X155106022Y-101285883D01*
X154725499Y-100927824D01*
X154721823Y-100919661D01*
X154724997Y-100911287D01*
X154729040Y-100908496D01*
X154783532Y-100885931D01*
X154838859Y-100850642D01*
X154898723Y-100796905D01*
X154951917Y-100732838D01*
X155007627Y-100644631D01*
X155053612Y-100549194D01*
X155093930Y-100438253D01*
X155122029Y-100330035D01*
X155140906Y-100170326D01*
X155145280Y-100162513D01*
X155152525Y-100160000D01*
X155431403Y-100160000D01*
X155439676Y-100163427D01*
G37*
G04 #@! TD.AperFunction*
G04 #@! TD*
G04 #@! TA.AperFunction,Conductor*
G04 #@! TO.N,+5V*
G36*
X155533326Y-94336684D02*
G01*
X155535480Y-94338327D01*
X155640178Y-94439423D01*
X155735014Y-94530997D01*
X155738585Y-94539209D01*
X155737763Y-94543728D01*
X155707813Y-94619234D01*
X155707812Y-94619238D01*
X155681728Y-94766847D01*
X155688921Y-94896885D01*
X155688922Y-94896891D01*
X155724132Y-94996925D01*
X155724136Y-94996933D01*
X155784285Y-95068862D01*
X155784287Y-95068863D01*
X155824644Y-95095056D01*
X155855999Y-95107527D01*
X155862419Y-95113769D01*
X155862546Y-95122723D01*
X155859685Y-95126927D01*
X155301759Y-95651018D01*
X155293382Y-95654184D01*
X155285220Y-95650501D01*
X155283859Y-95648743D01*
X154869104Y-94992894D01*
X154867579Y-94984071D01*
X154872740Y-94976752D01*
X154876302Y-94975255D01*
X154936616Y-94961000D01*
X154998583Y-94932906D01*
X155081678Y-94877800D01*
X155164024Y-94806695D01*
X155271454Y-94692706D01*
X155369111Y-94569747D01*
X155458800Y-94439417D01*
X155517296Y-94340777D01*
X155524462Y-94335412D01*
X155533326Y-94336684D01*
G37*
G04 #@! TD.AperFunction*
G04 #@! TD*
G04 #@! TA.AperFunction,Conductor*
G04 #@! TO.N,+5V*
G36*
X162715558Y-94514571D02*
G01*
X162715759Y-94514682D01*
X162864794Y-94598982D01*
X163137858Y-94721155D01*
X163137869Y-94721158D01*
X163137873Y-94721160D01*
X163230005Y-94750152D01*
X163388977Y-94800180D01*
X163508800Y-94820112D01*
X163598922Y-94835104D01*
X163598924Y-94835103D01*
X163598925Y-94835104D01*
X163750573Y-94832835D01*
X163758896Y-94836138D01*
X163762447Y-94844359D01*
X163761855Y-94848212D01*
X163595301Y-95351135D01*
X163589447Y-95357912D01*
X163585781Y-95359049D01*
X162870755Y-95456971D01*
X162862094Y-95454698D01*
X162857576Y-95446966D01*
X162857987Y-95441936D01*
X162872828Y-95393837D01*
X162880901Y-95330559D01*
X162877790Y-95256759D01*
X162862995Y-95183790D01*
X162832589Y-95099273D01*
X162791285Y-95019396D01*
X162735886Y-94937662D01*
X162675158Y-94866783D01*
X162653047Y-94848212D01*
X162595860Y-94800180D01*
X162571224Y-94779488D01*
X162567094Y-94771544D01*
X162568430Y-94765017D01*
X162699724Y-94519374D01*
X162706647Y-94513694D01*
X162715558Y-94514571D01*
G37*
G04 #@! TD.AperFunction*
G04 #@! TD*
G04 #@! TA.AperFunction,Conductor*
G04 #@! TO.N,+5V*
G36*
X186410937Y-94401157D02*
G01*
X186411957Y-94402322D01*
X186479247Y-94490298D01*
X186631512Y-94649490D01*
X186778395Y-94762039D01*
X186849652Y-94796892D01*
X186908834Y-94825839D01*
X186991953Y-94841905D01*
X187006436Y-94844705D01*
X187013909Y-94849639D01*
X187015703Y-94858412D01*
X187014147Y-94862378D01*
X186603798Y-95521098D01*
X186596515Y-95526308D01*
X186587681Y-95524843D01*
X186585857Y-95523440D01*
X186027897Y-94999340D01*
X186024213Y-94991178D01*
X186027379Y-94982802D01*
X186031513Y-94979968D01*
X186091604Y-94955626D01*
X186139859Y-94923960D01*
X186176558Y-94887969D01*
X186205608Y-94843473D01*
X186222795Y-94796892D01*
X186230020Y-94741425D01*
X186225484Y-94688741D01*
X186194554Y-94610991D01*
X186194680Y-94602040D01*
X186197149Y-94598399D01*
X186394392Y-94401156D01*
X186402664Y-94397730D01*
X186410937Y-94401157D01*
G37*
G04 #@! TD.AperFunction*
G04 #@! TD*
G04 #@! TA.AperFunction,Conductor*
G04 #@! TO.N,/bQ1*
G36*
X153845080Y-91934904D02*
G01*
X153848998Y-91937643D01*
X154375877Y-92497580D01*
X154379051Y-92505954D01*
X154375877Y-92513616D01*
X153849475Y-93073044D01*
X153841310Y-93076721D01*
X153832936Y-93073547D01*
X153830044Y-93069251D01*
X153815579Y-93031900D01*
X153815578Y-93031899D01*
X153815577Y-93031895D01*
X153784694Y-92981425D01*
X153734432Y-92924275D01*
X153673392Y-92873498D01*
X153673390Y-92873497D01*
X153673388Y-92873495D01*
X153586403Y-92819280D01*
X153491141Y-92774530D01*
X153375526Y-92734018D01*
X153262157Y-92705898D01*
X153092809Y-92686771D01*
X153084973Y-92682437D01*
X153082422Y-92675145D01*
X153082422Y-92396172D01*
X153085849Y-92387899D01*
X153092942Y-92384532D01*
X153209095Y-92372773D01*
X153404177Y-92317923D01*
X153575173Y-92235449D01*
X153703743Y-92138881D01*
X153789568Y-92034893D01*
X153829720Y-91941057D01*
X153836126Y-91934800D01*
X153845080Y-91934904D01*
G37*
G04 #@! TD.AperFunction*
G04 #@! TD*
G04 #@! TA.AperFunction,Conductor*
G04 #@! TO.N,/bQ1*
G36*
X152758011Y-92016236D02*
G01*
X152760244Y-92019384D01*
X152796616Y-92094436D01*
X152843688Y-92150036D01*
X152901656Y-92199403D01*
X152985978Y-92252592D01*
X153079144Y-92296474D01*
X153195635Y-92337041D01*
X153310444Y-92365119D01*
X153484514Y-92384442D01*
X153492357Y-92388761D01*
X153494922Y-92396071D01*
X153494922Y-92674974D01*
X153491495Y-92683247D01*
X153484349Y-92686620D01*
X153377332Y-92696973D01*
X153184675Y-92750058D01*
X153014724Y-92831381D01*
X152886454Y-92927334D01*
X152800550Y-93031129D01*
X152800547Y-93031134D01*
X152759888Y-93125754D01*
X152753473Y-93132002D01*
X152744519Y-93131885D01*
X152740888Y-93129431D01*
X152359378Y-92750058D01*
X152189763Y-92581392D01*
X152186314Y-92573131D01*
X152189718Y-92564848D01*
X152741466Y-92016189D01*
X152749748Y-92012786D01*
X152758011Y-92016236D01*
G37*
G04 #@! TD.AperFunction*
G04 #@! TD*
G04 #@! TA.AperFunction,Conductor*
G04 #@! TO.N,/bQ1*
G36*
X152188866Y-92580292D02*
G01*
X152523911Y-93006269D01*
X152560553Y-93052857D01*
X152632415Y-93144222D01*
X152634836Y-93152843D01*
X152630452Y-93160651D01*
X152624609Y-93163072D01*
X152518894Y-93175716D01*
X152444451Y-93199905D01*
X152444445Y-93199907D01*
X152375800Y-93233661D01*
X152375792Y-93233666D01*
X152305812Y-93281169D01*
X152305808Y-93281172D01*
X152243671Y-93336782D01*
X152243657Y-93336795D01*
X152184546Y-93405013D01*
X152184537Y-93405025D01*
X152135671Y-93477735D01*
X152097005Y-93553068D01*
X152069624Y-93627178D01*
X152057219Y-93703611D01*
X152054385Y-93721083D01*
X152051595Y-93738272D01*
X152046887Y-93745890D01*
X152040046Y-93748098D01*
X151761549Y-93748098D01*
X151753276Y-93744671D01*
X151749850Y-93736551D01*
X151749648Y-93721096D01*
X151749648Y-93721083D01*
X151726686Y-93488336D01*
X151724176Y-93477735D01*
X151678551Y-93284997D01*
X151678550Y-93284996D01*
X151678550Y-93284993D01*
X151617356Y-93141817D01*
X151549716Y-93052857D01*
X151492238Y-93016307D01*
X151487095Y-93008976D01*
X151488643Y-93000156D01*
X151492384Y-92996470D01*
X152173542Y-92577558D01*
X152182383Y-92576144D01*
X152188866Y-92580292D01*
G37*
G04 #@! TD.AperFunction*
G04 #@! TD*
G04 #@! TA.AperFunction,Conductor*
G04 #@! TO.N,/bQ1*
G36*
X153076157Y-103130143D02*
G01*
X153738502Y-103438514D01*
X153865920Y-103497837D01*
X153871974Y-103504436D01*
X153871589Y-103513382D01*
X153864990Y-103519436D01*
X153864557Y-103519585D01*
X152981736Y-103802859D01*
X152972811Y-103802123D01*
X152967034Y-103795334D01*
X152952396Y-103750285D01*
X152952395Y-103750284D01*
X152952395Y-103750282D01*
X152911802Y-103698706D01*
X152911796Y-103698700D01*
X152854357Y-103651848D01*
X152854353Y-103651845D01*
X152785560Y-103609859D01*
X152785559Y-103609858D01*
X152785555Y-103609856D01*
X152728300Y-103583553D01*
X152635890Y-103541099D01*
X152635872Y-103541092D01*
X152510528Y-103495033D01*
X152503944Y-103488963D01*
X152503581Y-103480016D01*
X152504133Y-103478748D01*
X152630018Y-103231689D01*
X152636826Y-103225876D01*
X152643378Y-103225678D01*
X152724473Y-103246731D01*
X152853885Y-103256777D01*
X152953190Y-103238152D01*
X153022442Y-103195216D01*
X153047296Y-103164159D01*
X153060632Y-103135775D01*
X153067251Y-103129745D01*
X153076157Y-103130143D01*
G37*
G04 #@! TD.AperFunction*
G04 #@! TD*
G04 #@! TA.AperFunction,Conductor*
G04 #@! TO.N,/bQ3*
G36*
X189478559Y-91981376D02*
G01*
X189481855Y-91983679D01*
X190033382Y-92532118D01*
X190036832Y-92540381D01*
X190033428Y-92548664D01*
X190033382Y-92548710D01*
X189483263Y-93095748D01*
X189474980Y-93099152D01*
X189466717Y-93095702D01*
X189464151Y-93091800D01*
X189443815Y-93040948D01*
X189409416Y-92985602D01*
X189356907Y-92925861D01*
X189356898Y-92925852D01*
X189294147Y-92872806D01*
X189294145Y-92872804D01*
X189294143Y-92872802D01*
X189294141Y-92872801D01*
X189207543Y-92817246D01*
X189113696Y-92771405D01*
X189113697Y-92771405D01*
X189113695Y-92771404D01*
X189004135Y-92731115D01*
X189004115Y-92731108D01*
X188897112Y-92703043D01*
X188897113Y-92703043D01*
X188897107Y-92703042D01*
X188897106Y-92703042D01*
X188849679Y-92697389D01*
X188738540Y-92684143D01*
X188730731Y-92679761D01*
X188728225Y-92672525D01*
X188728225Y-92393761D01*
X188731652Y-92385488D01*
X188739039Y-92382094D01*
X188829165Y-92375266D01*
X189029863Y-92328763D01*
X189205811Y-92255022D01*
X189336580Y-92167551D01*
X189422864Y-92072904D01*
X189422864Y-92072903D01*
X189422866Y-92072901D01*
X189439829Y-92036606D01*
X189463007Y-91987019D01*
X189469613Y-91980977D01*
X189478559Y-91981376D01*
G37*
G04 #@! TD.AperFunction*
G04 #@! TD*
G04 #@! TA.AperFunction,Conductor*
G04 #@! TO.N,/bQ3*
G36*
X188389438Y-91965784D02*
G01*
X188392230Y-91969829D01*
X188414792Y-92024315D01*
X188450079Y-92079641D01*
X188450081Y-92079644D01*
X188450083Y-92079646D01*
X188503821Y-92139510D01*
X188567887Y-92192704D01*
X188656094Y-92248414D01*
X188717758Y-92278125D01*
X188751519Y-92294393D01*
X188751523Y-92294394D01*
X188751532Y-92294399D01*
X188751540Y-92294402D01*
X188751545Y-92294404D01*
X188862469Y-92334716D01*
X188862478Y-92334719D01*
X188970674Y-92362812D01*
X188970676Y-92362812D01*
X188970690Y-92362816D01*
X189130398Y-92381693D01*
X189138212Y-92386067D01*
X189140725Y-92393312D01*
X189140725Y-92672190D01*
X189137298Y-92680463D01*
X189130042Y-92683846D01*
X189024879Y-92693024D01*
X188824513Y-92743520D01*
X188824511Y-92743521D01*
X188649652Y-92820985D01*
X188649645Y-92820990D01*
X188519469Y-92911948D01*
X188433405Y-93009881D01*
X188393597Y-93097952D01*
X188387067Y-93104079D01*
X188378117Y-93103794D01*
X188374415Y-93101151D01*
X188037897Y-92743520D01*
X187847268Y-92540930D01*
X187844095Y-92532558D01*
X187847268Y-92524897D01*
X188372900Y-91966286D01*
X188381064Y-91962610D01*
X188389438Y-91965784D01*
G37*
G04 #@! TD.AperFunction*
G04 #@! TD*
G04 #@! TA.AperFunction,Conductor*
G04 #@! TO.N,/bQ3*
G36*
X190048576Y-92546964D02*
G01*
X190434496Y-92897279D01*
X190624473Y-93069728D01*
X190628295Y-93077826D01*
X190625272Y-93086255D01*
X190618909Y-93089863D01*
X190554349Y-93102805D01*
X190492962Y-93125893D01*
X190430996Y-93161715D01*
X190376764Y-93205990D01*
X190323969Y-93264718D01*
X190306784Y-93290596D01*
X190281266Y-93329021D01*
X190281264Y-93329024D01*
X190281262Y-93329028D01*
X190281261Y-93329029D01*
X190246622Y-93400774D01*
X190246620Y-93400779D01*
X190223462Y-93471818D01*
X190211360Y-93580878D01*
X190207041Y-93588723D01*
X190204208Y-93590397D01*
X189947084Y-93696898D01*
X189938129Y-93696898D01*
X189931798Y-93690566D01*
X189931059Y-93687969D01*
X189917202Y-93602876D01*
X189917202Y-93602875D01*
X189917202Y-93602873D01*
X189856322Y-93433263D01*
X189770947Y-93290597D01*
X189675308Y-93190143D01*
X189574835Y-93130464D01*
X189553180Y-93125894D01*
X189490074Y-93112576D01*
X189482687Y-93107514D01*
X189481042Y-93098712D01*
X189484235Y-93092836D01*
X190032461Y-92547333D01*
X190040742Y-92543928D01*
X190048576Y-92546964D01*
G37*
G04 #@! TD.AperFunction*
G04 #@! TD*
G04 #@! TA.AperFunction,Conductor*
G04 #@! TO.N,/bQ3*
G36*
X188827379Y-105007226D02*
G01*
X188856133Y-105058827D01*
X188856133Y-105058828D01*
X188894675Y-105093659D01*
X188941236Y-105118799D01*
X188941239Y-105118799D01*
X188941242Y-105118801D01*
X189016436Y-105140224D01*
X189016440Y-105140225D01*
X189096405Y-105148108D01*
X189201880Y-105143238D01*
X189276440Y-105130163D01*
X189285179Y-105132109D01*
X189289585Y-105138070D01*
X189360712Y-105356956D01*
X189375344Y-105401982D01*
X189374642Y-105410909D01*
X189367833Y-105416725D01*
X189367232Y-105416903D01*
X189292295Y-105436891D01*
X189115750Y-105500381D01*
X188994776Y-105569168D01*
X188925694Y-105638089D01*
X188901269Y-105698406D01*
X188894987Y-105704788D01*
X188886449Y-105705017D01*
X188457621Y-105550090D01*
X188021281Y-105392449D01*
X188014665Y-105386415D01*
X188014253Y-105377469D01*
X188020285Y-105370854D01*
X188812224Y-105002312D01*
X188821169Y-105001930D01*
X188827379Y-105007226D01*
G37*
G04 #@! TD.AperFunction*
G04 #@! TD*
G04 #@! TA.AperFunction,Conductor*
G04 #@! TO.N,Net-(Q1-C)*
G36*
X158754734Y-103889118D02*
G01*
X158758436Y-103891762D01*
X159285582Y-104451982D01*
X159288756Y-104460356D01*
X159285582Y-104468018D01*
X158759953Y-105026626D01*
X158751788Y-105030303D01*
X158743414Y-105027129D01*
X158740622Y-105023084D01*
X158718059Y-104968597D01*
X158682772Y-104913272D01*
X158682770Y-104913270D01*
X158682769Y-104913268D01*
X158629032Y-104853404D01*
X158564965Y-104800210D01*
X158564962Y-104800208D01*
X158476762Y-104744502D01*
X158476756Y-104744499D01*
X158381333Y-104698520D01*
X158381307Y-104698509D01*
X158270383Y-104658197D01*
X158270374Y-104658195D01*
X158162177Y-104630101D01*
X158162157Y-104630097D01*
X158002454Y-104611220D01*
X157994640Y-104606846D01*
X157992127Y-104599601D01*
X157992127Y-104320723D01*
X157995554Y-104312450D01*
X158002808Y-104309067D01*
X158107967Y-104299890D01*
X158107969Y-104299889D01*
X158107974Y-104299889D01*
X158308339Y-104249392D01*
X158308339Y-104249391D01*
X158308342Y-104249391D01*
X158483206Y-104171925D01*
X158613382Y-104080966D01*
X158699444Y-103983035D01*
X158739256Y-103894957D01*
X158745784Y-103888834D01*
X158754734Y-103889118D01*
G37*
G04 #@! TD.AperFunction*
G04 #@! TD*
G04 #@! TA.AperFunction,Conductor*
G04 #@! TO.N,Net-(Q1-C)*
G36*
X157723779Y-104085301D02*
G01*
X157749257Y-104135494D01*
X157790344Y-104180079D01*
X157790349Y-104180083D01*
X157790353Y-104180086D01*
X157841599Y-104216764D01*
X157841605Y-104216768D01*
X157841608Y-104216769D01*
X157841614Y-104216773D01*
X157925212Y-104256153D01*
X157925213Y-104256153D01*
X157925219Y-104256156D01*
X157979794Y-104272487D01*
X158015883Y-104283288D01*
X158077714Y-104293724D01*
X158139543Y-104304161D01*
X158139540Y-104304161D01*
X158154187Y-104304994D01*
X158231094Y-104309372D01*
X158239157Y-104313262D01*
X158242127Y-104321052D01*
X158242127Y-104598996D01*
X158238700Y-104607269D01*
X158231144Y-104610674D01*
X158130467Y-104616853D01*
X157966013Y-104650102D01*
X157843207Y-104702283D01*
X157843202Y-104702286D01*
X157762921Y-104767251D01*
X157723999Y-104835430D01*
X157716921Y-104840915D01*
X157708905Y-104840238D01*
X157190065Y-104598996D01*
X156913942Y-104470608D01*
X156907886Y-104464014D01*
X156908267Y-104455067D01*
X156913942Y-104449391D01*
X157708416Y-104079988D01*
X157717361Y-104079608D01*
X157723779Y-104085301D01*
G37*
G04 #@! TD.AperFunction*
G04 #@! TD*
G04 #@! TA.AperFunction,Conductor*
G04 #@! TO.N,Net-(Q1-C)*
G36*
X157298152Y-101469108D02*
G01*
X157298818Y-101470096D01*
X157696824Y-102130073D01*
X157698162Y-102138927D01*
X157692847Y-102146134D01*
X157687851Y-102147768D01*
X157609491Y-102154798D01*
X157609471Y-102154801D01*
X157530402Y-102172410D01*
X157449855Y-102201803D01*
X157375673Y-102240345D01*
X157375655Y-102240356D01*
X157301796Y-102291504D01*
X157301784Y-102291513D01*
X157236326Y-102349959D01*
X157236323Y-102349962D01*
X157176367Y-102417930D01*
X157126830Y-102489575D01*
X157061679Y-102632063D01*
X157043749Y-102740267D01*
X157039015Y-102747868D01*
X157032206Y-102750054D01*
X156754176Y-102750054D01*
X156745903Y-102746627D01*
X156742476Y-102738354D01*
X156742481Y-102738011D01*
X156747279Y-102574554D01*
X156747280Y-102574516D01*
X156750045Y-102489573D01*
X156753884Y-102371642D01*
X156753409Y-102349962D01*
X156748364Y-102119488D01*
X156748363Y-102119479D01*
X156724959Y-101978356D01*
X156696282Y-101918651D01*
X156695790Y-101909709D01*
X156699797Y-101904234D01*
X157281770Y-101466784D01*
X157290441Y-101464554D01*
X157298152Y-101469108D01*
G37*
G04 #@! TD.AperFunction*
G04 #@! TD*
G04 #@! TA.AperFunction,Conductor*
G04 #@! TO.N,Net-(Q1-C)*
G36*
X157039779Y-103663427D02*
G01*
X157043151Y-103670572D01*
X157052927Y-103771497D01*
X157090254Y-103899903D01*
X157144048Y-103989279D01*
X157144047Y-103989279D01*
X157174718Y-104013562D01*
X157210158Y-104041621D01*
X157248620Y-104055203D01*
X157267942Y-104057333D01*
X157275790Y-104061646D01*
X157278290Y-104070245D01*
X157274943Y-104077226D01*
X156900410Y-104452696D01*
X156892142Y-104456133D01*
X156883864Y-104452716D01*
X156883844Y-104452696D01*
X156507177Y-104075087D01*
X156503760Y-104066809D01*
X156507197Y-104058541D01*
X156512932Y-104055401D01*
X156573101Y-104042102D01*
X156616164Y-104013565D01*
X156638489Y-103989279D01*
X156651744Y-103974861D01*
X156651745Y-103974858D01*
X156651749Y-103974855D01*
X156690570Y-103907722D01*
X156717258Y-103833115D01*
X156736518Y-103738289D01*
X156741349Y-103670864D01*
X156745358Y-103662857D01*
X156753019Y-103660000D01*
X157031506Y-103660000D01*
X157039779Y-103663427D01*
G37*
G04 #@! TD.AperFunction*
G04 #@! TD*
G04 #@! TA.AperFunction,Conductor*
G04 #@! TO.N,Net-(Q2-C)*
G36*
X156939779Y-97663427D02*
G01*
X156943151Y-97670572D01*
X156952927Y-97771497D01*
X156990254Y-97899903D01*
X157044048Y-97989279D01*
X157044047Y-97989279D01*
X157074718Y-98013562D01*
X157110158Y-98041621D01*
X157148620Y-98055203D01*
X157167942Y-98057333D01*
X157175790Y-98061646D01*
X157178290Y-98070245D01*
X157174943Y-98077226D01*
X156800410Y-98452696D01*
X156792142Y-98456133D01*
X156783864Y-98452716D01*
X156783844Y-98452696D01*
X156407177Y-98075087D01*
X156403760Y-98066809D01*
X156407197Y-98058541D01*
X156412932Y-98055401D01*
X156473101Y-98042102D01*
X156516164Y-98013565D01*
X156538489Y-97989279D01*
X156551744Y-97974861D01*
X156551745Y-97974858D01*
X156551749Y-97974855D01*
X156590570Y-97907722D01*
X156617258Y-97833115D01*
X156636518Y-97738289D01*
X156641349Y-97670864D01*
X156645358Y-97662857D01*
X156653019Y-97660000D01*
X156931506Y-97660000D01*
X156939779Y-97663427D01*
G37*
G04 #@! TD.AperFunction*
G04 #@! TD*
G04 #@! TA.AperFunction,Conductor*
G04 #@! TO.N,Net-(Q2-C)*
G36*
X158754734Y-97889118D02*
G01*
X158758436Y-97891762D01*
X159285582Y-98451982D01*
X159288756Y-98460356D01*
X159285582Y-98468018D01*
X158759953Y-99026626D01*
X158751788Y-99030303D01*
X158743414Y-99027129D01*
X158740622Y-99023084D01*
X158718059Y-98968597D01*
X158682772Y-98913272D01*
X158682770Y-98913270D01*
X158682769Y-98913268D01*
X158629032Y-98853404D01*
X158564965Y-98800210D01*
X158564962Y-98800208D01*
X158476762Y-98744502D01*
X158476756Y-98744499D01*
X158381333Y-98698520D01*
X158381307Y-98698509D01*
X158270383Y-98658197D01*
X158270374Y-98658195D01*
X158162177Y-98630101D01*
X158162157Y-98630097D01*
X158002454Y-98611220D01*
X157994640Y-98606846D01*
X157992127Y-98599601D01*
X157992127Y-98320723D01*
X157995554Y-98312450D01*
X158002808Y-98309067D01*
X158107967Y-98299890D01*
X158107969Y-98299889D01*
X158107974Y-98299889D01*
X158308339Y-98249392D01*
X158308339Y-98249391D01*
X158308342Y-98249391D01*
X158483206Y-98171925D01*
X158613382Y-98080966D01*
X158699444Y-97983035D01*
X158739256Y-97894957D01*
X158745784Y-97888834D01*
X158754734Y-97889118D01*
G37*
G04 #@! TD.AperFunction*
G04 #@! TD*
G04 #@! TA.AperFunction,Conductor*
G04 #@! TO.N,Net-(Q2-C)*
G36*
X157623779Y-98085301D02*
G01*
X157649257Y-98135494D01*
X157690344Y-98180079D01*
X157690349Y-98180083D01*
X157690353Y-98180086D01*
X157741599Y-98216764D01*
X157741605Y-98216768D01*
X157741608Y-98216769D01*
X157741614Y-98216773D01*
X157825212Y-98256153D01*
X157825213Y-98256153D01*
X157825219Y-98256156D01*
X157879794Y-98272487D01*
X157915883Y-98283288D01*
X157977714Y-98293724D01*
X158039543Y-98304161D01*
X158039540Y-98304161D01*
X158054187Y-98304994D01*
X158131094Y-98309372D01*
X158139157Y-98313262D01*
X158142127Y-98321052D01*
X158142127Y-98598996D01*
X158138700Y-98607269D01*
X158131144Y-98610674D01*
X158030467Y-98616853D01*
X157866013Y-98650102D01*
X157743207Y-98702283D01*
X157743202Y-98702286D01*
X157662921Y-98767251D01*
X157623999Y-98835430D01*
X157616921Y-98840915D01*
X157608905Y-98840238D01*
X157090065Y-98598996D01*
X156813942Y-98470608D01*
X156807886Y-98464014D01*
X156808267Y-98455067D01*
X156813942Y-98449391D01*
X157608416Y-98079988D01*
X157617361Y-98079608D01*
X157623779Y-98085301D01*
G37*
G04 #@! TD.AperFunction*
G04 #@! TD*
G04 #@! TA.AperFunction,Conductor*
G04 #@! TO.N,Net-(Q2-C)*
G36*
X156706897Y-95545970D02*
G01*
X157286603Y-95657933D01*
X157294076Y-95662867D01*
X157294742Y-95663979D01*
X157649364Y-96338978D01*
X157650178Y-96347896D01*
X157644448Y-96354778D01*
X157638661Y-96356115D01*
X157612959Y-96355355D01*
X157523778Y-96360836D01*
X157439771Y-96376393D01*
X157439758Y-96376396D01*
X157355403Y-96403122D01*
X157277749Y-96438812D01*
X157277740Y-96438816D01*
X157223562Y-96472333D01*
X157202172Y-96485567D01*
X157202169Y-96485569D01*
X157202168Y-96485570D01*
X157202166Y-96485571D01*
X157135267Y-96539288D01*
X157135254Y-96539299D01*
X157075496Y-96600530D01*
X157075491Y-96600536D01*
X157026090Y-96665424D01*
X157026083Y-96665434D01*
X156961784Y-96794368D01*
X156961783Y-96794373D01*
X156943840Y-96895500D01*
X156939021Y-96903047D01*
X156932320Y-96905156D01*
X156654314Y-96905156D01*
X156646041Y-96901729D01*
X156642614Y-96893456D01*
X156642624Y-96892979D01*
X156643924Y-96861104D01*
X156650878Y-96690683D01*
X156650900Y-96690324D01*
X156670287Y-96438816D01*
X156670505Y-96435992D01*
X156670505Y-96435990D01*
X156675107Y-96376395D01*
X156692099Y-96156373D01*
X156706278Y-95785739D01*
X156693003Y-95558139D01*
X156695942Y-95549682D01*
X156704002Y-95545779D01*
X156706897Y-95545970D01*
G37*
G04 #@! TD.AperFunction*
G04 #@! TD*
G04 #@! TA.AperFunction,Conductor*
G04 #@! TO.N,Net-(Q3-C)*
G36*
X184178768Y-104052260D02*
G01*
X184335742Y-104125248D01*
X184973731Y-104421891D01*
X184979788Y-104428486D01*
X184979407Y-104437433D01*
X184973731Y-104443109D01*
X184179261Y-104812510D01*
X184170314Y-104812891D01*
X184163895Y-104807197D01*
X184138419Y-104757006D01*
X184097332Y-104712421D01*
X184097326Y-104712417D01*
X184097322Y-104712413D01*
X184046076Y-104675735D01*
X184046072Y-104675733D01*
X184046071Y-104675732D01*
X184046065Y-104675729D01*
X184046061Y-104675727D01*
X183962462Y-104636346D01*
X183962457Y-104636344D01*
X183962456Y-104636344D01*
X183950133Y-104632656D01*
X183871792Y-104609211D01*
X183748129Y-104588338D01*
X183748134Y-104588338D01*
X183656583Y-104583128D01*
X183648518Y-104579237D01*
X183645548Y-104571447D01*
X183645548Y-104293503D01*
X183648975Y-104285230D01*
X183656528Y-104281826D01*
X183757210Y-104275647D01*
X183921665Y-104242396D01*
X184044469Y-104190215D01*
X184124755Y-104125248D01*
X184163676Y-104057069D01*
X184170753Y-104051584D01*
X184178768Y-104052260D01*
G37*
G04 #@! TD.AperFunction*
G04 #@! TD*
G04 #@! TA.AperFunction,Conductor*
G04 #@! TO.N,Net-(Q3-C)*
G36*
X183144261Y-103865370D02*
G01*
X183147053Y-103869415D01*
X183169615Y-103923901D01*
X183204902Y-103979227D01*
X183204904Y-103979230D01*
X183204906Y-103979232D01*
X183258644Y-104039096D01*
X183322710Y-104092290D01*
X183410917Y-104148000D01*
X183472581Y-104177711D01*
X183506342Y-104193979D01*
X183506346Y-104193980D01*
X183506355Y-104193985D01*
X183506363Y-104193988D01*
X183506368Y-104193990D01*
X183617292Y-104234302D01*
X183617301Y-104234305D01*
X183725497Y-104262398D01*
X183725499Y-104262398D01*
X183725513Y-104262402D01*
X183885221Y-104281279D01*
X183893035Y-104285653D01*
X183895548Y-104292898D01*
X183895548Y-104571776D01*
X183892121Y-104580049D01*
X183884865Y-104583432D01*
X183779702Y-104592610D01*
X183579336Y-104643106D01*
X183579334Y-104643107D01*
X183404475Y-104720571D01*
X183404468Y-104720576D01*
X183274292Y-104811534D01*
X183188228Y-104909467D01*
X183148420Y-104997538D01*
X183141890Y-105003665D01*
X183132940Y-105003380D01*
X183129238Y-105000737D01*
X182792720Y-104643106D01*
X182602091Y-104440516D01*
X182598918Y-104432144D01*
X182602091Y-104424483D01*
X183127723Y-103865872D01*
X183135887Y-103862196D01*
X183144261Y-103865370D01*
G37*
G04 #@! TD.AperFunction*
G04 #@! TD*
G04 #@! TA.AperFunction,Conductor*
G04 #@! TO.N,Net-(Q3-C)*
G36*
X184604917Y-101538619D02*
G01*
X184605905Y-101539285D01*
X185187421Y-101976391D01*
X185191975Y-101984102D01*
X185190634Y-101991399D01*
X185170408Y-102028034D01*
X185170405Y-102028042D01*
X185152699Y-102091938D01*
X185152697Y-102091946D01*
X185135142Y-102259552D01*
X185135142Y-102259556D01*
X185133999Y-102454766D01*
X185140395Y-102647016D01*
X185140396Y-102647062D01*
X185145194Y-102810511D01*
X185142011Y-102818881D01*
X185133842Y-102822549D01*
X185133499Y-102822554D01*
X184856645Y-102822554D01*
X184848372Y-102819127D01*
X184844961Y-102811472D01*
X184844910Y-102810511D01*
X184843789Y-102789326D01*
X184830985Y-102721812D01*
X184806188Y-102650371D01*
X184724321Y-102507589D01*
X184724319Y-102507586D01*
X184724318Y-102507585D01*
X184724314Y-102507580D01*
X184611471Y-102385206D01*
X184611468Y-102385204D01*
X184611465Y-102385200D01*
X184479505Y-102294508D01*
X184335110Y-102238898D01*
X184198459Y-102221812D01*
X184190675Y-102217385D01*
X184188301Y-102208750D01*
X184189891Y-102204162D01*
X184588856Y-101542595D01*
X184596063Y-101537281D01*
X184604917Y-101538619D01*
G37*
G04 #@! TD.AperFunction*
G04 #@! TD*
G04 #@! TA.AperFunction,Conductor*
G04 #@! TO.N,Net-(Q3-C)*
G36*
X185143200Y-103635927D02*
G01*
X185146572Y-103643072D01*
X185156348Y-103743997D01*
X185193675Y-103872403D01*
X185247469Y-103961779D01*
X185247468Y-103961779D01*
X185278139Y-103986062D01*
X185313579Y-104014121D01*
X185352041Y-104027703D01*
X185371363Y-104029833D01*
X185379211Y-104034146D01*
X185381711Y-104042745D01*
X185378364Y-104049726D01*
X185003831Y-104425196D01*
X184995563Y-104428633D01*
X184987285Y-104425216D01*
X184987265Y-104425196D01*
X184610598Y-104047587D01*
X184607181Y-104039309D01*
X184610618Y-104031041D01*
X184616353Y-104027901D01*
X184676522Y-104014602D01*
X184719585Y-103986065D01*
X184741910Y-103961779D01*
X184755165Y-103947361D01*
X184755166Y-103947358D01*
X184755170Y-103947355D01*
X184793991Y-103880222D01*
X184820679Y-103805615D01*
X184839939Y-103710789D01*
X184844770Y-103643364D01*
X184848779Y-103635357D01*
X184856440Y-103632500D01*
X185134927Y-103632500D01*
X185143200Y-103635927D01*
G37*
G04 #@! TD.AperFunction*
G04 #@! TD*
G04 #@! TA.AperFunction,Conductor*
G04 #@! TO.N,Net-(Q4-C)*
G36*
X185143200Y-97535927D02*
G01*
X185146572Y-97543072D01*
X185156348Y-97643997D01*
X185193675Y-97772403D01*
X185247469Y-97861779D01*
X185247468Y-97861779D01*
X185278139Y-97886062D01*
X185313579Y-97914121D01*
X185352041Y-97927703D01*
X185371363Y-97929833D01*
X185379211Y-97934146D01*
X185381711Y-97942745D01*
X185378364Y-97949726D01*
X185003831Y-98325196D01*
X184995563Y-98328633D01*
X184987285Y-98325216D01*
X184987265Y-98325196D01*
X184610598Y-97947587D01*
X184607181Y-97939309D01*
X184610618Y-97931041D01*
X184616353Y-97927901D01*
X184676522Y-97914602D01*
X184719585Y-97886065D01*
X184741910Y-97861779D01*
X184755165Y-97847361D01*
X184755166Y-97847358D01*
X184755170Y-97847355D01*
X184793991Y-97780222D01*
X184820679Y-97705615D01*
X184839939Y-97610789D01*
X184844770Y-97543364D01*
X184848779Y-97535357D01*
X184856440Y-97532500D01*
X185134927Y-97532500D01*
X185143200Y-97535927D01*
G37*
G04 #@! TD.AperFunction*
G04 #@! TD*
G04 #@! TA.AperFunction,Conductor*
G04 #@! TO.N,Net-(Q4-C)*
G36*
X184604917Y-95538619D02*
G01*
X184605905Y-95539285D01*
X185187421Y-95976391D01*
X185191975Y-95984102D01*
X185190634Y-95991399D01*
X185170408Y-96028034D01*
X185170405Y-96028042D01*
X185152699Y-96091938D01*
X185152697Y-96091946D01*
X185135142Y-96259552D01*
X185135142Y-96259556D01*
X185133999Y-96454766D01*
X185140395Y-96647016D01*
X185140396Y-96647062D01*
X185145194Y-96810511D01*
X185142011Y-96818881D01*
X185133842Y-96822549D01*
X185133499Y-96822554D01*
X184856645Y-96822554D01*
X184848372Y-96819127D01*
X184844961Y-96811472D01*
X184844910Y-96810511D01*
X184843789Y-96789326D01*
X184830985Y-96721812D01*
X184806188Y-96650371D01*
X184724321Y-96507589D01*
X184724319Y-96507586D01*
X184724318Y-96507585D01*
X184724314Y-96507580D01*
X184611471Y-96385206D01*
X184611468Y-96385204D01*
X184611465Y-96385200D01*
X184479505Y-96294508D01*
X184335110Y-96238898D01*
X184198459Y-96221812D01*
X184190675Y-96217385D01*
X184188301Y-96208750D01*
X184189891Y-96204162D01*
X184588856Y-95542595D01*
X184596063Y-95537281D01*
X184604917Y-95538619D01*
G37*
G04 #@! TD.AperFunction*
G04 #@! TD*
G04 #@! TA.AperFunction,Conductor*
G04 #@! TO.N,Net-(Q4-C)*
G36*
X183044261Y-97765370D02*
G01*
X183047053Y-97769415D01*
X183069615Y-97823901D01*
X183104902Y-97879227D01*
X183104904Y-97879230D01*
X183104906Y-97879232D01*
X183158644Y-97939096D01*
X183222710Y-97992290D01*
X183310917Y-98048000D01*
X183372581Y-98077711D01*
X183406342Y-98093979D01*
X183406346Y-98093980D01*
X183406355Y-98093985D01*
X183406363Y-98093988D01*
X183406368Y-98093990D01*
X183517292Y-98134302D01*
X183517301Y-98134305D01*
X183625497Y-98162398D01*
X183625499Y-98162398D01*
X183625513Y-98162402D01*
X183785221Y-98181279D01*
X183793035Y-98185653D01*
X183795548Y-98192898D01*
X183795548Y-98471776D01*
X183792121Y-98480049D01*
X183784865Y-98483432D01*
X183679702Y-98492610D01*
X183479336Y-98543106D01*
X183479334Y-98543107D01*
X183304475Y-98620571D01*
X183304468Y-98620576D01*
X183174292Y-98711534D01*
X183088228Y-98809467D01*
X183048420Y-98897538D01*
X183041890Y-98903665D01*
X183032940Y-98903380D01*
X183029238Y-98900737D01*
X182692720Y-98543106D01*
X182502091Y-98340516D01*
X182498918Y-98332144D01*
X182502091Y-98324483D01*
X183027723Y-97765872D01*
X183035887Y-97762196D01*
X183044261Y-97765370D01*
G37*
G04 #@! TD.AperFunction*
G04 #@! TD*
G04 #@! TA.AperFunction,Conductor*
G04 #@! TO.N,Net-(Q4-C)*
G36*
X184178768Y-97952260D02*
G01*
X184335742Y-98025248D01*
X184973731Y-98321891D01*
X184979788Y-98328486D01*
X184979407Y-98337433D01*
X184973731Y-98343109D01*
X184179261Y-98712510D01*
X184170314Y-98712891D01*
X184163895Y-98707197D01*
X184138419Y-98657006D01*
X184097332Y-98612421D01*
X184097326Y-98612417D01*
X184097322Y-98612413D01*
X184046076Y-98575735D01*
X184046072Y-98575733D01*
X184046071Y-98575732D01*
X184046065Y-98575729D01*
X184046061Y-98575727D01*
X183962462Y-98536346D01*
X183962457Y-98536344D01*
X183962456Y-98536344D01*
X183950133Y-98532656D01*
X183871792Y-98509211D01*
X183748129Y-98488338D01*
X183748134Y-98488338D01*
X183656583Y-98483128D01*
X183648518Y-98479237D01*
X183645548Y-98471447D01*
X183645548Y-98193503D01*
X183648975Y-98185230D01*
X183656528Y-98181826D01*
X183757210Y-98175647D01*
X183921665Y-98142396D01*
X184044469Y-98090215D01*
X184124755Y-98025248D01*
X184163676Y-97957069D01*
X184170753Y-97951584D01*
X184178768Y-97952260D01*
G37*
G04 #@! TD.AperFunction*
G04 #@! TD*
G04 #@! TA.AperFunction,Conductor*
G04 #@! TO.N,/H1b*
G36*
X159922288Y-95950199D02*
G01*
X159924759Y-95955355D01*
X159938400Y-96022609D01*
X159965988Y-96092261D01*
X159965994Y-96092275D01*
X160003448Y-96156538D01*
X160056851Y-96223752D01*
X160119006Y-96283483D01*
X160197533Y-96342201D01*
X160197540Y-96342206D01*
X160281011Y-96390735D01*
X160369405Y-96430118D01*
X160369411Y-96430119D01*
X160369416Y-96430122D01*
X160395791Y-96438619D01*
X160455563Y-96457876D01*
X160582100Y-96476141D01*
X160589797Y-96480715D01*
X160592127Y-96487721D01*
X160592127Y-96766014D01*
X160588700Y-96774287D01*
X160580553Y-96777713D01*
X160567565Y-96777852D01*
X160567554Y-96777852D01*
X160567548Y-96777853D01*
X160424097Y-96790818D01*
X160327421Y-96799556D01*
X160118943Y-96845899D01*
X159973518Y-96905049D01*
X159884116Y-96970366D01*
X159845935Y-97028565D01*
X159838531Y-97033603D01*
X159829734Y-97031930D01*
X159827631Y-97030165D01*
X159310619Y-96480715D01*
X159299649Y-96469057D01*
X159296476Y-96460684D01*
X159300153Y-96452519D01*
X159300669Y-96452062D01*
X159905812Y-95948685D01*
X159914363Y-95946030D01*
X159922288Y-95950199D01*
G37*
G04 #@! TD.AperFunction*
G04 #@! TD*
G04 #@! TA.AperFunction,Conductor*
G04 #@! TO.N,/H1b*
G36*
X163270952Y-96122916D02*
G01*
X163272419Y-96124771D01*
X163589113Y-96621297D01*
X163590673Y-96630115D01*
X163589113Y-96633881D01*
X163272870Y-97129698D01*
X163265532Y-97134830D01*
X163256714Y-97133270D01*
X163254409Y-97131342D01*
X163211191Y-97084499D01*
X163198287Y-97073828D01*
X163136249Y-97022522D01*
X163051461Y-96968063D01*
X163051447Y-96968054D01*
X163014335Y-96949475D01*
X162939730Y-96912125D01*
X162821635Y-96866427D01*
X162821632Y-96866426D01*
X162821624Y-96866423D01*
X162683843Y-96826118D01*
X162683844Y-96826118D01*
X162549870Y-96798245D01*
X162337834Y-96778574D01*
X162329913Y-96774398D01*
X162327215Y-96766924D01*
X162327215Y-96488760D01*
X162330642Y-96480487D01*
X162338309Y-96477076D01*
X162436468Y-96471981D01*
X162436474Y-96471980D01*
X162436481Y-96471980D01*
X162560792Y-96455060D01*
X162801057Y-96395586D01*
X163003672Y-96312855D01*
X163157362Y-96216822D01*
X163254410Y-96122665D01*
X163262732Y-96119364D01*
X163270952Y-96122916D01*
G37*
G04 #@! TD.AperFunction*
G04 #@! TD*
G04 #@! TA.AperFunction,Conductor*
G04 #@! TO.N,/H2b*
G36*
X179247336Y-96142355D02*
G01*
X179333926Y-96163149D01*
X179468790Y-96177971D01*
X179536220Y-96185383D01*
X179544702Y-96185550D01*
X179754602Y-96189708D01*
X179961778Y-96185595D01*
X179961778Y-96185596D01*
X179961780Y-96185594D01*
X180110239Y-96182730D01*
X180118577Y-96185997D01*
X180122163Y-96194202D01*
X180122165Y-96194428D01*
X180122165Y-96472309D01*
X180118738Y-96480582D01*
X180112071Y-96483898D01*
X180013643Y-96497534D01*
X180013638Y-96497535D01*
X179861388Y-96557661D01*
X179861384Y-96557663D01*
X179723234Y-96651879D01*
X179615562Y-96767188D01*
X179615562Y-96767189D01*
X179542893Y-96896025D01*
X179510229Y-97019465D01*
X179504799Y-97026586D01*
X179495925Y-97027783D01*
X179492123Y-97025997D01*
X178956683Y-96644012D01*
X178951938Y-96636417D01*
X178952730Y-96629864D01*
X179170498Y-96123987D01*
X179176917Y-96117744D01*
X179185575Y-96117744D01*
X179247336Y-96142355D01*
G37*
G04 #@! TD.AperFunction*
G04 #@! TD*
G04 #@! TA.AperFunction,Conductor*
G04 #@! TO.N,/H2b*
G36*
X181958155Y-95761618D02*
G01*
X181961857Y-95764262D01*
X182489003Y-96324482D01*
X182492177Y-96332856D01*
X182489003Y-96340518D01*
X181963374Y-96899126D01*
X181955209Y-96902803D01*
X181946835Y-96899629D01*
X181944043Y-96895584D01*
X181921480Y-96841097D01*
X181886193Y-96785772D01*
X181886191Y-96785770D01*
X181886190Y-96785768D01*
X181832453Y-96725904D01*
X181768386Y-96672710D01*
X181768383Y-96672708D01*
X181680183Y-96617002D01*
X181680177Y-96616999D01*
X181584754Y-96571020D01*
X181584728Y-96571009D01*
X181473804Y-96530697D01*
X181473795Y-96530695D01*
X181365598Y-96502601D01*
X181365578Y-96502597D01*
X181205875Y-96483720D01*
X181198061Y-96479346D01*
X181195548Y-96472101D01*
X181195548Y-96193223D01*
X181198975Y-96184950D01*
X181206229Y-96181567D01*
X181311388Y-96172390D01*
X181311390Y-96172389D01*
X181311395Y-96172389D01*
X181511760Y-96121892D01*
X181511760Y-96121891D01*
X181511763Y-96121891D01*
X181686627Y-96044425D01*
X181816803Y-95953466D01*
X181902865Y-95855535D01*
X181942677Y-95767457D01*
X181949205Y-95761334D01*
X181958155Y-95761618D01*
G37*
G04 #@! TD.AperFunction*
G04 #@! TD*
G04 #@! TA.AperFunction,Conductor*
G04 #@! TO.N,/L1b*
G36*
X159840840Y-101892870D02*
G01*
X159843632Y-101896915D01*
X159866194Y-101951401D01*
X159901481Y-102006727D01*
X159901483Y-102006730D01*
X159901485Y-102006732D01*
X159955223Y-102066596D01*
X160019289Y-102119790D01*
X160107496Y-102175500D01*
X160169160Y-102205211D01*
X160202921Y-102221479D01*
X160202925Y-102221480D01*
X160202934Y-102221485D01*
X160202942Y-102221488D01*
X160202947Y-102221490D01*
X160313871Y-102261802D01*
X160313880Y-102261805D01*
X160422076Y-102289898D01*
X160422078Y-102289898D01*
X160422092Y-102289902D01*
X160581800Y-102308779D01*
X160589614Y-102313153D01*
X160592127Y-102320398D01*
X160592127Y-102599276D01*
X160588700Y-102607549D01*
X160581444Y-102610932D01*
X160476281Y-102620110D01*
X160275915Y-102670606D01*
X160275913Y-102670607D01*
X160101054Y-102748071D01*
X160101047Y-102748076D01*
X159970871Y-102839034D01*
X159884807Y-102936967D01*
X159844999Y-103025038D01*
X159838469Y-103031165D01*
X159829519Y-103030880D01*
X159825817Y-103028237D01*
X159489299Y-102670606D01*
X159298670Y-102468016D01*
X159295497Y-102459644D01*
X159298670Y-102451983D01*
X159824302Y-101893372D01*
X159832466Y-101889696D01*
X159840840Y-101892870D01*
G37*
G04 #@! TD.AperFunction*
G04 #@! TD*
G04 #@! TA.AperFunction,Conductor*
G04 #@! TO.N,/L1b*
G36*
X162540542Y-102191829D02*
G01*
X162857574Y-102688883D01*
X162859134Y-102697700D01*
X162855179Y-102704180D01*
X162355139Y-103118907D01*
X162346584Y-103121550D01*
X162338664Y-103117370D01*
X162336462Y-103113258D01*
X162325647Y-103077146D01*
X162293040Y-103003328D01*
X162293037Y-103003323D01*
X162251003Y-102935514D01*
X162251000Y-102935510D01*
X162250994Y-102935500D01*
X162250985Y-102935489D01*
X162193742Y-102865906D01*
X162193727Y-102865890D01*
X162128456Y-102804308D01*
X162128453Y-102804305D01*
X162048676Y-102745120D01*
X162048668Y-102745115D01*
X162048657Y-102745108D01*
X161964706Y-102696370D01*
X161964684Y-102696359D01*
X161927792Y-102679908D01*
X161877090Y-102657299D01*
X161832041Y-102642781D01*
X161791638Y-102629761D01*
X161791636Y-102629760D01*
X161791634Y-102629760D01*
X161692122Y-102615555D01*
X161663249Y-102611434D01*
X161655543Y-102606872D01*
X161653202Y-102599851D01*
X161653202Y-102321725D01*
X161656629Y-102313452D01*
X161664901Y-102310025D01*
X161700502Y-102310102D01*
X162036025Y-102303634D01*
X162240697Y-102281174D01*
X162277287Y-102277160D01*
X162277288Y-102277159D01*
X162277295Y-102277159D01*
X162399866Y-102244841D01*
X162437447Y-102234933D01*
X162437447Y-102234932D01*
X162437450Y-102234932D01*
X162517670Y-102191830D01*
X162525141Y-102187816D01*
X162534051Y-102186918D01*
X162540542Y-102191829D01*
G37*
G04 #@! TD.AperFunction*
G04 #@! TD*
G04 #@! TA.AperFunction,Conductor*
G04 #@! TO.N,/L2b*
G36*
X178620972Y-102274728D02*
G01*
X178620975Y-102274730D01*
X178620977Y-102274730D01*
X178620979Y-102274731D01*
X178694119Y-102289194D01*
X178867788Y-102301941D01*
X178867800Y-102301940D01*
X178867802Y-102301941D01*
X178989916Y-102298427D01*
X179249512Y-102290960D01*
X179455560Y-102282971D01*
X179463959Y-102286075D01*
X179467704Y-102294209D01*
X179467713Y-102294662D01*
X179467713Y-102572371D01*
X179464286Y-102580644D01*
X179457688Y-102583950D01*
X179373417Y-102596140D01*
X179373409Y-102596142D01*
X179239793Y-102651246D01*
X179127812Y-102734214D01*
X179049088Y-102833667D01*
X179005097Y-102945396D01*
X178998144Y-103053505D01*
X178994193Y-103061541D01*
X178985717Y-103064430D01*
X178981754Y-103063462D01*
X178345169Y-102783206D01*
X178338978Y-102776736D01*
X178339136Y-102767872D01*
X178353625Y-102734214D01*
X178556232Y-102263557D01*
X178562649Y-102257315D01*
X178570850Y-102257145D01*
X178620972Y-102274728D01*
G37*
G04 #@! TD.AperFunction*
G04 #@! TD*
G04 #@! TA.AperFunction,Conductor*
G04 #@! TO.N,/L2b*
G36*
X182058155Y-101861618D02*
G01*
X182061857Y-101864262D01*
X182589003Y-102424482D01*
X182592177Y-102432856D01*
X182589003Y-102440518D01*
X182063374Y-102999126D01*
X182055209Y-103002803D01*
X182046835Y-102999629D01*
X182044043Y-102995584D01*
X182021480Y-102941097D01*
X181986193Y-102885772D01*
X181986191Y-102885770D01*
X181986190Y-102885768D01*
X181932453Y-102825904D01*
X181868386Y-102772710D01*
X181868383Y-102772708D01*
X181780183Y-102717002D01*
X181780177Y-102716999D01*
X181684754Y-102671020D01*
X181684728Y-102671009D01*
X181573804Y-102630697D01*
X181573795Y-102630695D01*
X181465598Y-102602601D01*
X181465578Y-102602597D01*
X181305875Y-102583720D01*
X181298061Y-102579346D01*
X181295548Y-102572101D01*
X181295548Y-102293223D01*
X181298975Y-102284950D01*
X181306229Y-102281567D01*
X181411388Y-102272390D01*
X181411390Y-102272389D01*
X181411395Y-102272389D01*
X181611760Y-102221892D01*
X181611760Y-102221891D01*
X181611763Y-102221891D01*
X181786627Y-102144425D01*
X181916803Y-102053466D01*
X182002865Y-101955535D01*
X182042677Y-101867457D01*
X182049205Y-101861334D01*
X182058155Y-101861618D01*
G37*
G04 #@! TD.AperFunction*
G04 #@! TD*
M02*
