%TF.GenerationSoftware,KiCad,Pcbnew,9.0.4*%
%TF.CreationDate,2025-09-07T15:09:32+02:00*%
%TF.ProjectId,npn-pnp-h-bridge,6e706e2d-706e-4702-9d68-2d6272696467,1.0*%
%TF.SameCoordinates,Original*%
%TF.FileFunction,Drillmap*%
%TF.FilePolarity,Positive*%
%FSLAX45Y45*%
G04 Gerber Fmt 4.5, Leading zero omitted, Abs format (unit mm)*
G04 Created by KiCad (PCBNEW 9.0.4) date 2025-09-07 15:09:32*
%MOMM*%
%LPD*%
G01*
G04 APERTURE LIST*
%ADD10C,0.100000*%
%ADD11C,0.200000*%
%ADD12C,0.220000*%
G04 APERTURE END LIST*
D10*
X13340000Y-5160000D02*
X13340000Y-6660000D01*
X9040000Y-6860000D02*
G75*
G02*
X8840000Y-6660000I0J200000D01*
G01*
X9040000Y-4960000D02*
X13140000Y-4960000D01*
X8840000Y-6660000D02*
X8840000Y-5160000D01*
X8840000Y-5160000D02*
G75*
G02*
X9040000Y-4960000I200000J0D01*
G01*
X13340000Y-6660000D02*
G75*
G02*
X13140000Y-6860000I-200000J0D01*
G01*
X13140000Y-6860000D02*
X9040000Y-6860000D01*
X13140000Y-4960000D02*
G75*
G02*
X13340000Y-5160000I0J-200000D01*
G01*
D11*
D10*
X9455291Y-6024784D02*
X9485291Y-6054784D01*
X9485291Y-6024784D02*
X9455291Y-6054784D01*
X9595000Y-6235000D02*
X9625000Y-6265000D01*
X9625000Y-6235000D02*
X9595000Y-6265000D01*
X9595000Y-6315000D02*
X9625000Y-6345000D01*
X9625000Y-6315000D02*
X9595000Y-6345000D01*
X9675000Y-6315000D02*
X9705000Y-6345000D01*
X9705000Y-6315000D02*
X9675000Y-6345000D01*
X9768841Y-6578117D02*
X9798841Y-6608117D01*
X9798841Y-6578117D02*
X9768841Y-6608117D01*
X9768841Y-6651450D02*
X9798841Y-6681450D01*
X9798841Y-6651450D02*
X9768841Y-6681450D01*
X9768841Y-6724784D02*
X9798841Y-6754784D01*
X9798841Y-6724784D02*
X9768841Y-6754784D01*
X9904213Y-6316746D02*
X9934213Y-6346746D01*
X9934213Y-6316746D02*
X9904213Y-6346746D01*
X10108841Y-6650000D02*
X10138841Y-6680000D01*
X10138841Y-6650000D02*
X10108841Y-6680000D01*
X10108841Y-6725000D02*
X10138841Y-6755000D01*
X10138841Y-6725000D02*
X10108841Y-6755000D01*
X10165000Y-5200000D02*
X10195000Y-5230000D01*
X10195000Y-5200000D02*
X10165000Y-5230000D01*
X10165000Y-5290000D02*
X10195000Y-5320000D01*
X10195000Y-5290000D02*
X10165000Y-5320000D01*
X10165000Y-5380000D02*
X10195000Y-5410000D01*
X10195000Y-5380000D02*
X10165000Y-5410000D01*
X10255000Y-5200000D02*
X10285000Y-5230000D01*
X10285000Y-5200000D02*
X10255000Y-5230000D01*
X11875000Y-5200000D02*
X11905000Y-5230000D01*
X11905000Y-5200000D02*
X11875000Y-5230000D01*
X11965000Y-5200000D02*
X11995000Y-5230000D01*
X11995000Y-5200000D02*
X11965000Y-5230000D01*
X11965000Y-5290000D02*
X11995000Y-5320000D01*
X11995000Y-5290000D02*
X11965000Y-5320000D01*
X11965000Y-5380000D02*
X11995000Y-5410000D01*
X11995000Y-5380000D02*
X11965000Y-5410000D01*
X12045000Y-6650000D02*
X12075000Y-6680000D01*
X12075000Y-6650000D02*
X12045000Y-6680000D01*
X12045000Y-6725000D02*
X12075000Y-6755000D01*
X12075000Y-6725000D02*
X12045000Y-6755000D01*
X12285000Y-6315000D02*
X12315000Y-6345000D01*
X12315000Y-6315000D02*
X12285000Y-6345000D01*
X12395000Y-6578117D02*
X12425000Y-6608117D01*
X12425000Y-6578117D02*
X12395000Y-6608117D01*
X12395000Y-6651450D02*
X12425000Y-6681450D01*
X12425000Y-6651450D02*
X12395000Y-6681450D01*
X12395000Y-6724784D02*
X12425000Y-6754784D01*
X12425000Y-6724784D02*
X12395000Y-6754784D01*
X12555000Y-6305000D02*
X12585000Y-6335000D01*
X12585000Y-6305000D02*
X12555000Y-6335000D01*
X12635000Y-6225000D02*
X12665000Y-6255000D01*
X12665000Y-6225000D02*
X12635000Y-6255000D01*
X12635000Y-6305000D02*
X12665000Y-6335000D01*
X12665000Y-6305000D02*
X12635000Y-6335000D01*
X12708841Y-6024784D02*
X12738841Y-6054784D01*
X12738841Y-6024784D02*
X12708841Y-6054784D01*
X10327554Y-6242543D02*
G75*
G02*
X10252554Y-6242543I-37500J0D01*
G01*
X10252554Y-6242543D02*
G75*
G02*
X10327554Y-6242543I37500J0D01*
G01*
X10327554Y-6369543D02*
G75*
G02*
X10252554Y-6369543I-37500J0D01*
G01*
X10252554Y-6369543D02*
G75*
G02*
X10327554Y-6369543I37500J0D01*
G01*
X10327554Y-6496543D02*
G75*
G02*
X10252554Y-6496543I-37500J0D01*
G01*
X10252554Y-6496543D02*
G75*
G02*
X10327554Y-6496543I37500J0D01*
G01*
X10377500Y-5636000D02*
G75*
G02*
X10302500Y-5636000I-37500J0D01*
G01*
X10302500Y-5636000D02*
G75*
G02*
X10377500Y-5636000I37500J0D01*
G01*
X10377500Y-5763000D02*
G75*
G02*
X10302500Y-5763000I-37500J0D01*
G01*
X10302500Y-5763000D02*
G75*
G02*
X10377500Y-5763000I37500J0D01*
G01*
X10377500Y-5890000D02*
G75*
G02*
X10302500Y-5890000I-37500J0D01*
G01*
X10302500Y-5890000D02*
G75*
G02*
X10377500Y-5890000I37500J0D01*
G01*
X10830851Y-5350000D02*
G75*
G02*
X10755851Y-5350000I-37500J0D01*
G01*
X10755851Y-5350000D02*
G75*
G02*
X10830851Y-5350000I37500J0D01*
G01*
X11021341Y-6460000D02*
G75*
G02*
X10946341Y-6460000I-37500J0D01*
G01*
X10946341Y-6460000D02*
G75*
G02*
X11021341Y-6460000I37500J0D01*
G01*
X11030851Y-5350000D02*
G75*
G02*
X10955851Y-5350000I-37500J0D01*
G01*
X10955851Y-5350000D02*
G75*
G02*
X11030851Y-5350000I37500J0D01*
G01*
X11221341Y-6460000D02*
G75*
G02*
X11146341Y-6460000I-37500J0D01*
G01*
X11146341Y-6460000D02*
G75*
G02*
X11221341Y-6460000I37500J0D01*
G01*
X11230851Y-5350000D02*
G75*
G02*
X11155851Y-5350000I-37500J0D01*
G01*
X11155851Y-5350000D02*
G75*
G02*
X11230851Y-5350000I37500J0D01*
G01*
X11430851Y-5350000D02*
G75*
G02*
X11355851Y-5350000I-37500J0D01*
G01*
X11355851Y-5350000D02*
G75*
G02*
X11430851Y-5350000I37500J0D01*
G01*
X11874896Y-6250637D02*
G75*
G02*
X11799896Y-6250637I-37500J0D01*
G01*
X11799896Y-6250637D02*
G75*
G02*
X11874896Y-6250637I37500J0D01*
G01*
X11874896Y-6377637D02*
G75*
G02*
X11799896Y-6377637I-37500J0D01*
G01*
X11799896Y-6377637D02*
G75*
G02*
X11874896Y-6377637I37500J0D01*
G01*
X11874896Y-6504637D02*
G75*
G02*
X11799896Y-6504637I-37500J0D01*
G01*
X11799896Y-6504637D02*
G75*
G02*
X11874896Y-6504637I37500J0D01*
G01*
X11957500Y-5636000D02*
G75*
G02*
X11882500Y-5636000I-37500J0D01*
G01*
X11882500Y-5636000D02*
G75*
G02*
X11957500Y-5636000I37500J0D01*
G01*
X11957500Y-5763000D02*
G75*
G02*
X11882500Y-5763000I-37500J0D01*
G01*
X11882500Y-5763000D02*
G75*
G02*
X11957500Y-5763000I37500J0D01*
G01*
X11957500Y-5890000D02*
G75*
G02*
X11882500Y-5890000I-37500J0D01*
G01*
X11882500Y-5890000D02*
G75*
G02*
X11957500Y-5890000I37500J0D01*
G01*
D12*
X9190000Y-6400000D02*
X9190000Y-6620000D01*
X9080000Y-6510000D02*
X9300000Y-6510000D01*
X12990000Y-6400000D02*
X12990000Y-6620000D01*
X12880000Y-6510000D02*
X13100000Y-6510000D01*
D11*
X9095777Y-7176484D02*
X9095777Y-6976484D01*
X9095777Y-6976484D02*
X9143396Y-6976484D01*
X9143396Y-6976484D02*
X9171967Y-6986008D01*
X9171967Y-6986008D02*
X9191015Y-7005055D01*
X9191015Y-7005055D02*
X9200539Y-7024103D01*
X9200539Y-7024103D02*
X9210063Y-7062198D01*
X9210063Y-7062198D02*
X9210063Y-7090769D01*
X9210063Y-7090769D02*
X9200539Y-7128865D01*
X9200539Y-7128865D02*
X9191015Y-7147912D01*
X9191015Y-7147912D02*
X9171967Y-7166960D01*
X9171967Y-7166960D02*
X9143396Y-7176484D01*
X9143396Y-7176484D02*
X9095777Y-7176484D01*
X9295777Y-7176484D02*
X9295777Y-7043150D01*
X9295777Y-7081246D02*
X9305301Y-7062198D01*
X9305301Y-7062198D02*
X9314824Y-7052674D01*
X9314824Y-7052674D02*
X9333872Y-7043150D01*
X9333872Y-7043150D02*
X9352920Y-7043150D01*
X9419586Y-7176484D02*
X9419586Y-7043150D01*
X9419586Y-6976484D02*
X9410063Y-6986008D01*
X9410063Y-6986008D02*
X9419586Y-6995531D01*
X9419586Y-6995531D02*
X9429110Y-6986008D01*
X9429110Y-6986008D02*
X9419586Y-6976484D01*
X9419586Y-6976484D02*
X9419586Y-6995531D01*
X9543396Y-7176484D02*
X9524348Y-7166960D01*
X9524348Y-7166960D02*
X9514824Y-7147912D01*
X9514824Y-7147912D02*
X9514824Y-6976484D01*
X9648158Y-7176484D02*
X9629110Y-7166960D01*
X9629110Y-7166960D02*
X9619586Y-7147912D01*
X9619586Y-7147912D02*
X9619586Y-6976484D01*
X9876729Y-7176484D02*
X9876729Y-6976484D01*
X9876729Y-6976484D02*
X9943396Y-7119341D01*
X9943396Y-7119341D02*
X10010063Y-6976484D01*
X10010063Y-6976484D02*
X10010063Y-7176484D01*
X10191015Y-7176484D02*
X10191015Y-7071722D01*
X10191015Y-7071722D02*
X10181491Y-7052674D01*
X10181491Y-7052674D02*
X10162444Y-7043150D01*
X10162444Y-7043150D02*
X10124348Y-7043150D01*
X10124348Y-7043150D02*
X10105301Y-7052674D01*
X10191015Y-7166960D02*
X10171967Y-7176484D01*
X10171967Y-7176484D02*
X10124348Y-7176484D01*
X10124348Y-7176484D02*
X10105301Y-7166960D01*
X10105301Y-7166960D02*
X10095777Y-7147912D01*
X10095777Y-7147912D02*
X10095777Y-7128865D01*
X10095777Y-7128865D02*
X10105301Y-7109817D01*
X10105301Y-7109817D02*
X10124348Y-7100293D01*
X10124348Y-7100293D02*
X10171967Y-7100293D01*
X10171967Y-7100293D02*
X10191015Y-7090769D01*
X10286253Y-7043150D02*
X10286253Y-7243150D01*
X10286253Y-7052674D02*
X10305301Y-7043150D01*
X10305301Y-7043150D02*
X10343396Y-7043150D01*
X10343396Y-7043150D02*
X10362444Y-7052674D01*
X10362444Y-7052674D02*
X10371967Y-7062198D01*
X10371967Y-7062198D02*
X10381491Y-7081246D01*
X10381491Y-7081246D02*
X10381491Y-7138388D01*
X10381491Y-7138388D02*
X10371967Y-7157436D01*
X10371967Y-7157436D02*
X10362444Y-7166960D01*
X10362444Y-7166960D02*
X10343396Y-7176484D01*
X10343396Y-7176484D02*
X10305301Y-7176484D01*
X10305301Y-7176484D02*
X10286253Y-7166960D01*
X10467205Y-7157436D02*
X10476729Y-7166960D01*
X10476729Y-7166960D02*
X10467205Y-7176484D01*
X10467205Y-7176484D02*
X10457682Y-7166960D01*
X10457682Y-7166960D02*
X10467205Y-7157436D01*
X10467205Y-7157436D02*
X10467205Y-7176484D01*
X10467205Y-7052674D02*
X10476729Y-7062198D01*
X10476729Y-7062198D02*
X10467205Y-7071722D01*
X10467205Y-7071722D02*
X10457682Y-7062198D01*
X10457682Y-7062198D02*
X10467205Y-7052674D01*
X10467205Y-7052674D02*
X10467205Y-7071722D01*
D10*
X8805000Y-7490000D02*
X8835000Y-7520000D01*
X8835000Y-7490000D02*
X8805000Y-7520000D01*
D11*
X9133872Y-7396484D02*
X9152920Y-7396484D01*
X9152920Y-7396484D02*
X9171967Y-7406008D01*
X9171967Y-7406008D02*
X9181491Y-7415531D01*
X9181491Y-7415531D02*
X9191015Y-7434579D01*
X9191015Y-7434579D02*
X9200539Y-7472674D01*
X9200539Y-7472674D02*
X9200539Y-7520293D01*
X9200539Y-7520293D02*
X9191015Y-7558388D01*
X9191015Y-7558388D02*
X9181491Y-7577436D01*
X9181491Y-7577436D02*
X9171967Y-7586960D01*
X9171967Y-7586960D02*
X9152920Y-7596484D01*
X9152920Y-7596484D02*
X9133872Y-7596484D01*
X9133872Y-7596484D02*
X9114824Y-7586960D01*
X9114824Y-7586960D02*
X9105301Y-7577436D01*
X9105301Y-7577436D02*
X9095777Y-7558388D01*
X9095777Y-7558388D02*
X9086253Y-7520293D01*
X9086253Y-7520293D02*
X9086253Y-7472674D01*
X9086253Y-7472674D02*
X9095777Y-7434579D01*
X9095777Y-7434579D02*
X9105301Y-7415531D01*
X9105301Y-7415531D02*
X9114824Y-7406008D01*
X9114824Y-7406008D02*
X9133872Y-7396484D01*
X9286253Y-7577436D02*
X9295777Y-7586960D01*
X9295777Y-7586960D02*
X9286253Y-7596484D01*
X9286253Y-7596484D02*
X9276729Y-7586960D01*
X9276729Y-7586960D02*
X9286253Y-7577436D01*
X9286253Y-7577436D02*
X9286253Y-7596484D01*
X9362444Y-7396484D02*
X9486253Y-7396484D01*
X9486253Y-7396484D02*
X9419586Y-7472674D01*
X9419586Y-7472674D02*
X9448158Y-7472674D01*
X9448158Y-7472674D02*
X9467205Y-7482198D01*
X9467205Y-7482198D02*
X9476729Y-7491722D01*
X9476729Y-7491722D02*
X9486253Y-7510769D01*
X9486253Y-7510769D02*
X9486253Y-7558388D01*
X9486253Y-7558388D02*
X9476729Y-7577436D01*
X9476729Y-7577436D02*
X9467205Y-7586960D01*
X9467205Y-7586960D02*
X9448158Y-7596484D01*
X9448158Y-7596484D02*
X9391015Y-7596484D01*
X9391015Y-7596484D02*
X9371967Y-7586960D01*
X9371967Y-7586960D02*
X9362444Y-7577436D01*
X9610063Y-7396484D02*
X9629110Y-7396484D01*
X9629110Y-7396484D02*
X9648158Y-7406008D01*
X9648158Y-7406008D02*
X9657682Y-7415531D01*
X9657682Y-7415531D02*
X9667205Y-7434579D01*
X9667205Y-7434579D02*
X9676729Y-7472674D01*
X9676729Y-7472674D02*
X9676729Y-7520293D01*
X9676729Y-7520293D02*
X9667205Y-7558388D01*
X9667205Y-7558388D02*
X9657682Y-7577436D01*
X9657682Y-7577436D02*
X9648158Y-7586960D01*
X9648158Y-7586960D02*
X9629110Y-7596484D01*
X9629110Y-7596484D02*
X9610063Y-7596484D01*
X9610063Y-7596484D02*
X9591015Y-7586960D01*
X9591015Y-7586960D02*
X9581491Y-7577436D01*
X9581491Y-7577436D02*
X9571967Y-7558388D01*
X9571967Y-7558388D02*
X9562444Y-7520293D01*
X9562444Y-7520293D02*
X9562444Y-7472674D01*
X9562444Y-7472674D02*
X9571967Y-7434579D01*
X9571967Y-7434579D02*
X9581491Y-7415531D01*
X9581491Y-7415531D02*
X9591015Y-7406008D01*
X9591015Y-7406008D02*
X9610063Y-7396484D01*
X9800539Y-7396484D02*
X9819586Y-7396484D01*
X9819586Y-7396484D02*
X9838634Y-7406008D01*
X9838634Y-7406008D02*
X9848158Y-7415531D01*
X9848158Y-7415531D02*
X9857682Y-7434579D01*
X9857682Y-7434579D02*
X9867205Y-7472674D01*
X9867205Y-7472674D02*
X9867205Y-7520293D01*
X9867205Y-7520293D02*
X9857682Y-7558388D01*
X9857682Y-7558388D02*
X9848158Y-7577436D01*
X9848158Y-7577436D02*
X9838634Y-7586960D01*
X9838634Y-7586960D02*
X9819586Y-7596484D01*
X9819586Y-7596484D02*
X9800539Y-7596484D01*
X9800539Y-7596484D02*
X9781491Y-7586960D01*
X9781491Y-7586960D02*
X9771967Y-7577436D01*
X9771967Y-7577436D02*
X9762444Y-7558388D01*
X9762444Y-7558388D02*
X9752920Y-7520293D01*
X9752920Y-7520293D02*
X9752920Y-7472674D01*
X9752920Y-7472674D02*
X9762444Y-7434579D01*
X9762444Y-7434579D02*
X9771967Y-7415531D01*
X9771967Y-7415531D02*
X9781491Y-7406008D01*
X9781491Y-7406008D02*
X9800539Y-7396484D01*
X9952920Y-7596484D02*
X9952920Y-7463150D01*
X9952920Y-7482198D02*
X9962444Y-7472674D01*
X9962444Y-7472674D02*
X9981491Y-7463150D01*
X9981491Y-7463150D02*
X10010063Y-7463150D01*
X10010063Y-7463150D02*
X10029110Y-7472674D01*
X10029110Y-7472674D02*
X10038634Y-7491722D01*
X10038634Y-7491722D02*
X10038634Y-7596484D01*
X10038634Y-7491722D02*
X10048158Y-7472674D01*
X10048158Y-7472674D02*
X10067205Y-7463150D01*
X10067205Y-7463150D02*
X10095777Y-7463150D01*
X10095777Y-7463150D02*
X10114825Y-7472674D01*
X10114825Y-7472674D02*
X10124348Y-7491722D01*
X10124348Y-7491722D02*
X10124348Y-7596484D01*
X10219586Y-7596484D02*
X10219586Y-7463150D01*
X10219586Y-7482198D02*
X10229110Y-7472674D01*
X10229110Y-7472674D02*
X10248158Y-7463150D01*
X10248158Y-7463150D02*
X10276729Y-7463150D01*
X10276729Y-7463150D02*
X10295777Y-7472674D01*
X10295777Y-7472674D02*
X10305301Y-7491722D01*
X10305301Y-7491722D02*
X10305301Y-7596484D01*
X10305301Y-7491722D02*
X10314825Y-7472674D01*
X10314825Y-7472674D02*
X10333872Y-7463150D01*
X10333872Y-7463150D02*
X10362444Y-7463150D01*
X10362444Y-7463150D02*
X10381491Y-7472674D01*
X10381491Y-7472674D02*
X10391015Y-7491722D01*
X10391015Y-7491722D02*
X10391015Y-7596484D01*
X10781491Y-7386960D02*
X10610063Y-7644103D01*
X11038634Y-7396484D02*
X11057682Y-7396484D01*
X11057682Y-7396484D02*
X11076729Y-7406008D01*
X11076729Y-7406008D02*
X11086253Y-7415531D01*
X11086253Y-7415531D02*
X11095777Y-7434579D01*
X11095777Y-7434579D02*
X11105301Y-7472674D01*
X11105301Y-7472674D02*
X11105301Y-7520293D01*
X11105301Y-7520293D02*
X11095777Y-7558388D01*
X11095777Y-7558388D02*
X11086253Y-7577436D01*
X11086253Y-7577436D02*
X11076729Y-7586960D01*
X11076729Y-7586960D02*
X11057682Y-7596484D01*
X11057682Y-7596484D02*
X11038634Y-7596484D01*
X11038634Y-7596484D02*
X11019587Y-7586960D01*
X11019587Y-7586960D02*
X11010063Y-7577436D01*
X11010063Y-7577436D02*
X11000539Y-7558388D01*
X11000539Y-7558388D02*
X10991015Y-7520293D01*
X10991015Y-7520293D02*
X10991015Y-7472674D01*
X10991015Y-7472674D02*
X11000539Y-7434579D01*
X11000539Y-7434579D02*
X11010063Y-7415531D01*
X11010063Y-7415531D02*
X11019587Y-7406008D01*
X11019587Y-7406008D02*
X11038634Y-7396484D01*
X11191015Y-7577436D02*
X11200539Y-7586960D01*
X11200539Y-7586960D02*
X11191015Y-7596484D01*
X11191015Y-7596484D02*
X11181491Y-7586960D01*
X11181491Y-7586960D02*
X11191015Y-7577436D01*
X11191015Y-7577436D02*
X11191015Y-7596484D01*
X11324348Y-7396484D02*
X11343396Y-7396484D01*
X11343396Y-7396484D02*
X11362444Y-7406008D01*
X11362444Y-7406008D02*
X11371967Y-7415531D01*
X11371967Y-7415531D02*
X11381491Y-7434579D01*
X11381491Y-7434579D02*
X11391015Y-7472674D01*
X11391015Y-7472674D02*
X11391015Y-7520293D01*
X11391015Y-7520293D02*
X11381491Y-7558388D01*
X11381491Y-7558388D02*
X11371967Y-7577436D01*
X11371967Y-7577436D02*
X11362444Y-7586960D01*
X11362444Y-7586960D02*
X11343396Y-7596484D01*
X11343396Y-7596484D02*
X11324348Y-7596484D01*
X11324348Y-7596484D02*
X11305301Y-7586960D01*
X11305301Y-7586960D02*
X11295777Y-7577436D01*
X11295777Y-7577436D02*
X11286253Y-7558388D01*
X11286253Y-7558388D02*
X11276729Y-7520293D01*
X11276729Y-7520293D02*
X11276729Y-7472674D01*
X11276729Y-7472674D02*
X11286253Y-7434579D01*
X11286253Y-7434579D02*
X11295777Y-7415531D01*
X11295777Y-7415531D02*
X11305301Y-7406008D01*
X11305301Y-7406008D02*
X11324348Y-7396484D01*
X11581491Y-7596484D02*
X11467206Y-7596484D01*
X11524348Y-7596484D02*
X11524348Y-7396484D01*
X11524348Y-7396484D02*
X11505301Y-7425055D01*
X11505301Y-7425055D02*
X11486253Y-7444103D01*
X11486253Y-7444103D02*
X11467206Y-7453627D01*
X11771967Y-7596484D02*
X11657682Y-7596484D01*
X11714825Y-7596484D02*
X11714825Y-7396484D01*
X11714825Y-7396484D02*
X11695777Y-7425055D01*
X11695777Y-7425055D02*
X11676729Y-7444103D01*
X11676729Y-7444103D02*
X11657682Y-7453627D01*
X11886253Y-7482198D02*
X11867206Y-7472674D01*
X11867206Y-7472674D02*
X11857682Y-7463150D01*
X11857682Y-7463150D02*
X11848158Y-7444103D01*
X11848158Y-7444103D02*
X11848158Y-7434579D01*
X11848158Y-7434579D02*
X11857682Y-7415531D01*
X11857682Y-7415531D02*
X11867206Y-7406008D01*
X11867206Y-7406008D02*
X11886253Y-7396484D01*
X11886253Y-7396484D02*
X11924348Y-7396484D01*
X11924348Y-7396484D02*
X11943396Y-7406008D01*
X11943396Y-7406008D02*
X11952920Y-7415531D01*
X11952920Y-7415531D02*
X11962444Y-7434579D01*
X11962444Y-7434579D02*
X11962444Y-7444103D01*
X11962444Y-7444103D02*
X11952920Y-7463150D01*
X11952920Y-7463150D02*
X11943396Y-7472674D01*
X11943396Y-7472674D02*
X11924348Y-7482198D01*
X11924348Y-7482198D02*
X11886253Y-7482198D01*
X11886253Y-7482198D02*
X11867206Y-7491722D01*
X11867206Y-7491722D02*
X11857682Y-7501246D01*
X11857682Y-7501246D02*
X11848158Y-7520293D01*
X11848158Y-7520293D02*
X11848158Y-7558388D01*
X11848158Y-7558388D02*
X11857682Y-7577436D01*
X11857682Y-7577436D02*
X11867206Y-7586960D01*
X11867206Y-7586960D02*
X11886253Y-7596484D01*
X11886253Y-7596484D02*
X11924348Y-7596484D01*
X11924348Y-7596484D02*
X11943396Y-7586960D01*
X11943396Y-7586960D02*
X11952920Y-7577436D01*
X11952920Y-7577436D02*
X11962444Y-7558388D01*
X11962444Y-7558388D02*
X11962444Y-7520293D01*
X11962444Y-7520293D02*
X11952920Y-7501246D01*
X11952920Y-7501246D02*
X11943396Y-7491722D01*
X11943396Y-7491722D02*
X11924348Y-7482198D01*
X12038634Y-7396484D02*
X12038634Y-7434579D01*
X12114825Y-7396484D02*
X12114825Y-7434579D01*
X12410063Y-7672674D02*
X12400539Y-7663150D01*
X12400539Y-7663150D02*
X12381491Y-7634579D01*
X12381491Y-7634579D02*
X12371968Y-7615531D01*
X12371968Y-7615531D02*
X12362444Y-7586960D01*
X12362444Y-7586960D02*
X12352920Y-7539341D01*
X12352920Y-7539341D02*
X12352920Y-7501246D01*
X12352920Y-7501246D02*
X12362444Y-7453627D01*
X12362444Y-7453627D02*
X12371968Y-7425055D01*
X12371968Y-7425055D02*
X12381491Y-7406008D01*
X12381491Y-7406008D02*
X12400539Y-7377436D01*
X12400539Y-7377436D02*
X12410063Y-7367912D01*
X12476729Y-7415531D02*
X12486253Y-7406008D01*
X12486253Y-7406008D02*
X12505301Y-7396484D01*
X12505301Y-7396484D02*
X12552920Y-7396484D01*
X12552920Y-7396484D02*
X12571968Y-7406008D01*
X12571968Y-7406008D02*
X12581491Y-7415531D01*
X12581491Y-7415531D02*
X12591015Y-7434579D01*
X12591015Y-7434579D02*
X12591015Y-7453627D01*
X12591015Y-7453627D02*
X12581491Y-7482198D01*
X12581491Y-7482198D02*
X12467206Y-7596484D01*
X12467206Y-7596484D02*
X12591015Y-7596484D01*
X12705301Y-7482198D02*
X12686253Y-7472674D01*
X12686253Y-7472674D02*
X12676729Y-7463150D01*
X12676729Y-7463150D02*
X12667206Y-7444103D01*
X12667206Y-7444103D02*
X12667206Y-7434579D01*
X12667206Y-7434579D02*
X12676729Y-7415531D01*
X12676729Y-7415531D02*
X12686253Y-7406008D01*
X12686253Y-7406008D02*
X12705301Y-7396484D01*
X12705301Y-7396484D02*
X12743396Y-7396484D01*
X12743396Y-7396484D02*
X12762444Y-7406008D01*
X12762444Y-7406008D02*
X12771968Y-7415531D01*
X12771968Y-7415531D02*
X12781491Y-7434579D01*
X12781491Y-7434579D02*
X12781491Y-7444103D01*
X12781491Y-7444103D02*
X12771968Y-7463150D01*
X12771968Y-7463150D02*
X12762444Y-7472674D01*
X12762444Y-7472674D02*
X12743396Y-7482198D01*
X12743396Y-7482198D02*
X12705301Y-7482198D01*
X12705301Y-7482198D02*
X12686253Y-7491722D01*
X12686253Y-7491722D02*
X12676729Y-7501246D01*
X12676729Y-7501246D02*
X12667206Y-7520293D01*
X12667206Y-7520293D02*
X12667206Y-7558388D01*
X12667206Y-7558388D02*
X12676729Y-7577436D01*
X12676729Y-7577436D02*
X12686253Y-7586960D01*
X12686253Y-7586960D02*
X12705301Y-7596484D01*
X12705301Y-7596484D02*
X12743396Y-7596484D01*
X12743396Y-7596484D02*
X12762444Y-7586960D01*
X12762444Y-7586960D02*
X12771968Y-7577436D01*
X12771968Y-7577436D02*
X12781491Y-7558388D01*
X12781491Y-7558388D02*
X12781491Y-7520293D01*
X12781491Y-7520293D02*
X12771968Y-7501246D01*
X12771968Y-7501246D02*
X12762444Y-7491722D01*
X12762444Y-7491722D02*
X12743396Y-7482198D01*
X13019587Y-7596484D02*
X13019587Y-7396484D01*
X13105301Y-7596484D02*
X13105301Y-7491722D01*
X13105301Y-7491722D02*
X13095777Y-7472674D01*
X13095777Y-7472674D02*
X13076730Y-7463150D01*
X13076730Y-7463150D02*
X13048158Y-7463150D01*
X13048158Y-7463150D02*
X13029110Y-7472674D01*
X13029110Y-7472674D02*
X13019587Y-7482198D01*
X13229110Y-7596484D02*
X13210063Y-7586960D01*
X13210063Y-7586960D02*
X13200539Y-7577436D01*
X13200539Y-7577436D02*
X13191015Y-7558388D01*
X13191015Y-7558388D02*
X13191015Y-7501246D01*
X13191015Y-7501246D02*
X13200539Y-7482198D01*
X13200539Y-7482198D02*
X13210063Y-7472674D01*
X13210063Y-7472674D02*
X13229110Y-7463150D01*
X13229110Y-7463150D02*
X13257682Y-7463150D01*
X13257682Y-7463150D02*
X13276730Y-7472674D01*
X13276730Y-7472674D02*
X13286253Y-7482198D01*
X13286253Y-7482198D02*
X13295777Y-7501246D01*
X13295777Y-7501246D02*
X13295777Y-7558388D01*
X13295777Y-7558388D02*
X13286253Y-7577436D01*
X13286253Y-7577436D02*
X13276730Y-7586960D01*
X13276730Y-7586960D02*
X13257682Y-7596484D01*
X13257682Y-7596484D02*
X13229110Y-7596484D01*
X13410063Y-7596484D02*
X13391015Y-7586960D01*
X13391015Y-7586960D02*
X13381491Y-7567912D01*
X13381491Y-7567912D02*
X13381491Y-7396484D01*
X13562444Y-7586960D02*
X13543396Y-7596484D01*
X13543396Y-7596484D02*
X13505301Y-7596484D01*
X13505301Y-7596484D02*
X13486253Y-7586960D01*
X13486253Y-7586960D02*
X13476730Y-7567912D01*
X13476730Y-7567912D02*
X13476730Y-7491722D01*
X13476730Y-7491722D02*
X13486253Y-7472674D01*
X13486253Y-7472674D02*
X13505301Y-7463150D01*
X13505301Y-7463150D02*
X13543396Y-7463150D01*
X13543396Y-7463150D02*
X13562444Y-7472674D01*
X13562444Y-7472674D02*
X13571968Y-7491722D01*
X13571968Y-7491722D02*
X13571968Y-7510769D01*
X13571968Y-7510769D02*
X13476730Y-7529817D01*
X13648158Y-7586960D02*
X13667206Y-7596484D01*
X13667206Y-7596484D02*
X13705301Y-7596484D01*
X13705301Y-7596484D02*
X13724349Y-7586960D01*
X13724349Y-7586960D02*
X13733872Y-7567912D01*
X13733872Y-7567912D02*
X13733872Y-7558388D01*
X13733872Y-7558388D02*
X13724349Y-7539341D01*
X13724349Y-7539341D02*
X13705301Y-7529817D01*
X13705301Y-7529817D02*
X13676730Y-7529817D01*
X13676730Y-7529817D02*
X13657682Y-7520293D01*
X13657682Y-7520293D02*
X13648158Y-7501246D01*
X13648158Y-7501246D02*
X13648158Y-7491722D01*
X13648158Y-7491722D02*
X13657682Y-7472674D01*
X13657682Y-7472674D02*
X13676730Y-7463150D01*
X13676730Y-7463150D02*
X13705301Y-7463150D01*
X13705301Y-7463150D02*
X13724349Y-7472674D01*
X13800539Y-7672674D02*
X13810063Y-7663150D01*
X13810063Y-7663150D02*
X13829111Y-7634579D01*
X13829111Y-7634579D02*
X13838634Y-7615531D01*
X13838634Y-7615531D02*
X13848158Y-7586960D01*
X13848158Y-7586960D02*
X13857682Y-7539341D01*
X13857682Y-7539341D02*
X13857682Y-7501246D01*
X13857682Y-7501246D02*
X13848158Y-7453627D01*
X13848158Y-7453627D02*
X13838634Y-7425055D01*
X13838634Y-7425055D02*
X13829111Y-7406008D01*
X13829111Y-7406008D02*
X13810063Y-7377436D01*
X13810063Y-7377436D02*
X13800539Y-7367912D01*
D10*
X8835000Y-7769000D02*
G75*
G02*
X8760000Y-7769000I-37500J0D01*
G01*
X8760000Y-7769000D02*
G75*
G02*
X8835000Y-7769000I37500J0D01*
G01*
D11*
X9133872Y-7660484D02*
X9152920Y-7660484D01*
X9152920Y-7660484D02*
X9171967Y-7670008D01*
X9171967Y-7670008D02*
X9181491Y-7679531D01*
X9181491Y-7679531D02*
X9191015Y-7698579D01*
X9191015Y-7698579D02*
X9200539Y-7736674D01*
X9200539Y-7736674D02*
X9200539Y-7784293D01*
X9200539Y-7784293D02*
X9191015Y-7822388D01*
X9191015Y-7822388D02*
X9181491Y-7841436D01*
X9181491Y-7841436D02*
X9171967Y-7850960D01*
X9171967Y-7850960D02*
X9152920Y-7860484D01*
X9152920Y-7860484D02*
X9133872Y-7860484D01*
X9133872Y-7860484D02*
X9114824Y-7850960D01*
X9114824Y-7850960D02*
X9105301Y-7841436D01*
X9105301Y-7841436D02*
X9095777Y-7822388D01*
X9095777Y-7822388D02*
X9086253Y-7784293D01*
X9086253Y-7784293D02*
X9086253Y-7736674D01*
X9086253Y-7736674D02*
X9095777Y-7698579D01*
X9095777Y-7698579D02*
X9105301Y-7679531D01*
X9105301Y-7679531D02*
X9114824Y-7670008D01*
X9114824Y-7670008D02*
X9133872Y-7660484D01*
X9286253Y-7841436D02*
X9295777Y-7850960D01*
X9295777Y-7850960D02*
X9286253Y-7860484D01*
X9286253Y-7860484D02*
X9276729Y-7850960D01*
X9276729Y-7850960D02*
X9286253Y-7841436D01*
X9286253Y-7841436D02*
X9286253Y-7860484D01*
X9362444Y-7660484D02*
X9495777Y-7660484D01*
X9495777Y-7660484D02*
X9410063Y-7860484D01*
X9667205Y-7660484D02*
X9571967Y-7660484D01*
X9571967Y-7660484D02*
X9562444Y-7755722D01*
X9562444Y-7755722D02*
X9571967Y-7746198D01*
X9571967Y-7746198D02*
X9591015Y-7736674D01*
X9591015Y-7736674D02*
X9638634Y-7736674D01*
X9638634Y-7736674D02*
X9657682Y-7746198D01*
X9657682Y-7746198D02*
X9667205Y-7755722D01*
X9667205Y-7755722D02*
X9676729Y-7774769D01*
X9676729Y-7774769D02*
X9676729Y-7822388D01*
X9676729Y-7822388D02*
X9667205Y-7841436D01*
X9667205Y-7841436D02*
X9657682Y-7850960D01*
X9657682Y-7850960D02*
X9638634Y-7860484D01*
X9638634Y-7860484D02*
X9591015Y-7860484D01*
X9591015Y-7860484D02*
X9571967Y-7850960D01*
X9571967Y-7850960D02*
X9562444Y-7841436D01*
X9800539Y-7660484D02*
X9819586Y-7660484D01*
X9819586Y-7660484D02*
X9838634Y-7670008D01*
X9838634Y-7670008D02*
X9848158Y-7679531D01*
X9848158Y-7679531D02*
X9857682Y-7698579D01*
X9857682Y-7698579D02*
X9867205Y-7736674D01*
X9867205Y-7736674D02*
X9867205Y-7784293D01*
X9867205Y-7784293D02*
X9857682Y-7822388D01*
X9857682Y-7822388D02*
X9848158Y-7841436D01*
X9848158Y-7841436D02*
X9838634Y-7850960D01*
X9838634Y-7850960D02*
X9819586Y-7860484D01*
X9819586Y-7860484D02*
X9800539Y-7860484D01*
X9800539Y-7860484D02*
X9781491Y-7850960D01*
X9781491Y-7850960D02*
X9771967Y-7841436D01*
X9771967Y-7841436D02*
X9762444Y-7822388D01*
X9762444Y-7822388D02*
X9752920Y-7784293D01*
X9752920Y-7784293D02*
X9752920Y-7736674D01*
X9752920Y-7736674D02*
X9762444Y-7698579D01*
X9762444Y-7698579D02*
X9771967Y-7679531D01*
X9771967Y-7679531D02*
X9781491Y-7670008D01*
X9781491Y-7670008D02*
X9800539Y-7660484D01*
X9952920Y-7860484D02*
X9952920Y-7727150D01*
X9952920Y-7746198D02*
X9962444Y-7736674D01*
X9962444Y-7736674D02*
X9981491Y-7727150D01*
X9981491Y-7727150D02*
X10010063Y-7727150D01*
X10010063Y-7727150D02*
X10029110Y-7736674D01*
X10029110Y-7736674D02*
X10038634Y-7755722D01*
X10038634Y-7755722D02*
X10038634Y-7860484D01*
X10038634Y-7755722D02*
X10048158Y-7736674D01*
X10048158Y-7736674D02*
X10067205Y-7727150D01*
X10067205Y-7727150D02*
X10095777Y-7727150D01*
X10095777Y-7727150D02*
X10114825Y-7736674D01*
X10114825Y-7736674D02*
X10124348Y-7755722D01*
X10124348Y-7755722D02*
X10124348Y-7860484D01*
X10219586Y-7860484D02*
X10219586Y-7727150D01*
X10219586Y-7746198D02*
X10229110Y-7736674D01*
X10229110Y-7736674D02*
X10248158Y-7727150D01*
X10248158Y-7727150D02*
X10276729Y-7727150D01*
X10276729Y-7727150D02*
X10295777Y-7736674D01*
X10295777Y-7736674D02*
X10305301Y-7755722D01*
X10305301Y-7755722D02*
X10305301Y-7860484D01*
X10305301Y-7755722D02*
X10314825Y-7736674D01*
X10314825Y-7736674D02*
X10333872Y-7727150D01*
X10333872Y-7727150D02*
X10362444Y-7727150D01*
X10362444Y-7727150D02*
X10381491Y-7736674D01*
X10381491Y-7736674D02*
X10391015Y-7755722D01*
X10391015Y-7755722D02*
X10391015Y-7860484D01*
X10781491Y-7650960D02*
X10610063Y-7908103D01*
X11038634Y-7660484D02*
X11057682Y-7660484D01*
X11057682Y-7660484D02*
X11076729Y-7670008D01*
X11076729Y-7670008D02*
X11086253Y-7679531D01*
X11086253Y-7679531D02*
X11095777Y-7698579D01*
X11095777Y-7698579D02*
X11105301Y-7736674D01*
X11105301Y-7736674D02*
X11105301Y-7784293D01*
X11105301Y-7784293D02*
X11095777Y-7822388D01*
X11095777Y-7822388D02*
X11086253Y-7841436D01*
X11086253Y-7841436D02*
X11076729Y-7850960D01*
X11076729Y-7850960D02*
X11057682Y-7860484D01*
X11057682Y-7860484D02*
X11038634Y-7860484D01*
X11038634Y-7860484D02*
X11019587Y-7850960D01*
X11019587Y-7850960D02*
X11010063Y-7841436D01*
X11010063Y-7841436D02*
X11000539Y-7822388D01*
X11000539Y-7822388D02*
X10991015Y-7784293D01*
X10991015Y-7784293D02*
X10991015Y-7736674D01*
X10991015Y-7736674D02*
X11000539Y-7698579D01*
X11000539Y-7698579D02*
X11010063Y-7679531D01*
X11010063Y-7679531D02*
X11019587Y-7670008D01*
X11019587Y-7670008D02*
X11038634Y-7660484D01*
X11191015Y-7841436D02*
X11200539Y-7850960D01*
X11200539Y-7850960D02*
X11191015Y-7860484D01*
X11191015Y-7860484D02*
X11181491Y-7850960D01*
X11181491Y-7850960D02*
X11191015Y-7841436D01*
X11191015Y-7841436D02*
X11191015Y-7860484D01*
X11324348Y-7660484D02*
X11343396Y-7660484D01*
X11343396Y-7660484D02*
X11362444Y-7670008D01*
X11362444Y-7670008D02*
X11371967Y-7679531D01*
X11371967Y-7679531D02*
X11381491Y-7698579D01*
X11381491Y-7698579D02*
X11391015Y-7736674D01*
X11391015Y-7736674D02*
X11391015Y-7784293D01*
X11391015Y-7784293D02*
X11381491Y-7822388D01*
X11381491Y-7822388D02*
X11371967Y-7841436D01*
X11371967Y-7841436D02*
X11362444Y-7850960D01*
X11362444Y-7850960D02*
X11343396Y-7860484D01*
X11343396Y-7860484D02*
X11324348Y-7860484D01*
X11324348Y-7860484D02*
X11305301Y-7850960D01*
X11305301Y-7850960D02*
X11295777Y-7841436D01*
X11295777Y-7841436D02*
X11286253Y-7822388D01*
X11286253Y-7822388D02*
X11276729Y-7784293D01*
X11276729Y-7784293D02*
X11276729Y-7736674D01*
X11276729Y-7736674D02*
X11286253Y-7698579D01*
X11286253Y-7698579D02*
X11295777Y-7679531D01*
X11295777Y-7679531D02*
X11305301Y-7670008D01*
X11305301Y-7670008D02*
X11324348Y-7660484D01*
X11467206Y-7679531D02*
X11476729Y-7670008D01*
X11476729Y-7670008D02*
X11495777Y-7660484D01*
X11495777Y-7660484D02*
X11543396Y-7660484D01*
X11543396Y-7660484D02*
X11562444Y-7670008D01*
X11562444Y-7670008D02*
X11571967Y-7679531D01*
X11571967Y-7679531D02*
X11581491Y-7698579D01*
X11581491Y-7698579D02*
X11581491Y-7717627D01*
X11581491Y-7717627D02*
X11571967Y-7746198D01*
X11571967Y-7746198D02*
X11457682Y-7860484D01*
X11457682Y-7860484D02*
X11581491Y-7860484D01*
X11676729Y-7860484D02*
X11714825Y-7860484D01*
X11714825Y-7860484D02*
X11733872Y-7850960D01*
X11733872Y-7850960D02*
X11743396Y-7841436D01*
X11743396Y-7841436D02*
X11762444Y-7812865D01*
X11762444Y-7812865D02*
X11771967Y-7774769D01*
X11771967Y-7774769D02*
X11771967Y-7698579D01*
X11771967Y-7698579D02*
X11762444Y-7679531D01*
X11762444Y-7679531D02*
X11752920Y-7670008D01*
X11752920Y-7670008D02*
X11733872Y-7660484D01*
X11733872Y-7660484D02*
X11695777Y-7660484D01*
X11695777Y-7660484D02*
X11676729Y-7670008D01*
X11676729Y-7670008D02*
X11667206Y-7679531D01*
X11667206Y-7679531D02*
X11657682Y-7698579D01*
X11657682Y-7698579D02*
X11657682Y-7746198D01*
X11657682Y-7746198D02*
X11667206Y-7765246D01*
X11667206Y-7765246D02*
X11676729Y-7774769D01*
X11676729Y-7774769D02*
X11695777Y-7784293D01*
X11695777Y-7784293D02*
X11733872Y-7784293D01*
X11733872Y-7784293D02*
X11752920Y-7774769D01*
X11752920Y-7774769D02*
X11762444Y-7765246D01*
X11762444Y-7765246D02*
X11771967Y-7746198D01*
X11952920Y-7660484D02*
X11857682Y-7660484D01*
X11857682Y-7660484D02*
X11848158Y-7755722D01*
X11848158Y-7755722D02*
X11857682Y-7746198D01*
X11857682Y-7746198D02*
X11876729Y-7736674D01*
X11876729Y-7736674D02*
X11924348Y-7736674D01*
X11924348Y-7736674D02*
X11943396Y-7746198D01*
X11943396Y-7746198D02*
X11952920Y-7755722D01*
X11952920Y-7755722D02*
X11962444Y-7774769D01*
X11962444Y-7774769D02*
X11962444Y-7822388D01*
X11962444Y-7822388D02*
X11952920Y-7841436D01*
X11952920Y-7841436D02*
X11943396Y-7850960D01*
X11943396Y-7850960D02*
X11924348Y-7860484D01*
X11924348Y-7860484D02*
X11876729Y-7860484D01*
X11876729Y-7860484D02*
X11857682Y-7850960D01*
X11857682Y-7850960D02*
X11848158Y-7841436D01*
X12038634Y-7660484D02*
X12038634Y-7698579D01*
X12114825Y-7660484D02*
X12114825Y-7698579D01*
X12410063Y-7936674D02*
X12400539Y-7927150D01*
X12400539Y-7927150D02*
X12381491Y-7898579D01*
X12381491Y-7898579D02*
X12371968Y-7879531D01*
X12371968Y-7879531D02*
X12362444Y-7850960D01*
X12362444Y-7850960D02*
X12352920Y-7803341D01*
X12352920Y-7803341D02*
X12352920Y-7765246D01*
X12352920Y-7765246D02*
X12362444Y-7717627D01*
X12362444Y-7717627D02*
X12371968Y-7689055D01*
X12371968Y-7689055D02*
X12381491Y-7670008D01*
X12381491Y-7670008D02*
X12400539Y-7641436D01*
X12400539Y-7641436D02*
X12410063Y-7631912D01*
X12591015Y-7860484D02*
X12476729Y-7860484D01*
X12533872Y-7860484D02*
X12533872Y-7660484D01*
X12533872Y-7660484D02*
X12514825Y-7689055D01*
X12514825Y-7689055D02*
X12495777Y-7708103D01*
X12495777Y-7708103D02*
X12476729Y-7717627D01*
X12705301Y-7746198D02*
X12686253Y-7736674D01*
X12686253Y-7736674D02*
X12676729Y-7727150D01*
X12676729Y-7727150D02*
X12667206Y-7708103D01*
X12667206Y-7708103D02*
X12667206Y-7698579D01*
X12667206Y-7698579D02*
X12676729Y-7679531D01*
X12676729Y-7679531D02*
X12686253Y-7670008D01*
X12686253Y-7670008D02*
X12705301Y-7660484D01*
X12705301Y-7660484D02*
X12743396Y-7660484D01*
X12743396Y-7660484D02*
X12762444Y-7670008D01*
X12762444Y-7670008D02*
X12771968Y-7679531D01*
X12771968Y-7679531D02*
X12781491Y-7698579D01*
X12781491Y-7698579D02*
X12781491Y-7708103D01*
X12781491Y-7708103D02*
X12771968Y-7727150D01*
X12771968Y-7727150D02*
X12762444Y-7736674D01*
X12762444Y-7736674D02*
X12743396Y-7746198D01*
X12743396Y-7746198D02*
X12705301Y-7746198D01*
X12705301Y-7746198D02*
X12686253Y-7755722D01*
X12686253Y-7755722D02*
X12676729Y-7765246D01*
X12676729Y-7765246D02*
X12667206Y-7784293D01*
X12667206Y-7784293D02*
X12667206Y-7822388D01*
X12667206Y-7822388D02*
X12676729Y-7841436D01*
X12676729Y-7841436D02*
X12686253Y-7850960D01*
X12686253Y-7850960D02*
X12705301Y-7860484D01*
X12705301Y-7860484D02*
X12743396Y-7860484D01*
X12743396Y-7860484D02*
X12762444Y-7850960D01*
X12762444Y-7850960D02*
X12771968Y-7841436D01*
X12771968Y-7841436D02*
X12781491Y-7822388D01*
X12781491Y-7822388D02*
X12781491Y-7784293D01*
X12781491Y-7784293D02*
X12771968Y-7765246D01*
X12771968Y-7765246D02*
X12762444Y-7755722D01*
X12762444Y-7755722D02*
X12743396Y-7746198D01*
X13019587Y-7860484D02*
X13019587Y-7660484D01*
X13105301Y-7860484D02*
X13105301Y-7755722D01*
X13105301Y-7755722D02*
X13095777Y-7736674D01*
X13095777Y-7736674D02*
X13076730Y-7727150D01*
X13076730Y-7727150D02*
X13048158Y-7727150D01*
X13048158Y-7727150D02*
X13029110Y-7736674D01*
X13029110Y-7736674D02*
X13019587Y-7746198D01*
X13229110Y-7860484D02*
X13210063Y-7850960D01*
X13210063Y-7850960D02*
X13200539Y-7841436D01*
X13200539Y-7841436D02*
X13191015Y-7822388D01*
X13191015Y-7822388D02*
X13191015Y-7765246D01*
X13191015Y-7765246D02*
X13200539Y-7746198D01*
X13200539Y-7746198D02*
X13210063Y-7736674D01*
X13210063Y-7736674D02*
X13229110Y-7727150D01*
X13229110Y-7727150D02*
X13257682Y-7727150D01*
X13257682Y-7727150D02*
X13276730Y-7736674D01*
X13276730Y-7736674D02*
X13286253Y-7746198D01*
X13286253Y-7746198D02*
X13295777Y-7765246D01*
X13295777Y-7765246D02*
X13295777Y-7822388D01*
X13295777Y-7822388D02*
X13286253Y-7841436D01*
X13286253Y-7841436D02*
X13276730Y-7850960D01*
X13276730Y-7850960D02*
X13257682Y-7860484D01*
X13257682Y-7860484D02*
X13229110Y-7860484D01*
X13410063Y-7860484D02*
X13391015Y-7850960D01*
X13391015Y-7850960D02*
X13381491Y-7831912D01*
X13381491Y-7831912D02*
X13381491Y-7660484D01*
X13562444Y-7850960D02*
X13543396Y-7860484D01*
X13543396Y-7860484D02*
X13505301Y-7860484D01*
X13505301Y-7860484D02*
X13486253Y-7850960D01*
X13486253Y-7850960D02*
X13476730Y-7831912D01*
X13476730Y-7831912D02*
X13476730Y-7755722D01*
X13476730Y-7755722D02*
X13486253Y-7736674D01*
X13486253Y-7736674D02*
X13505301Y-7727150D01*
X13505301Y-7727150D02*
X13543396Y-7727150D01*
X13543396Y-7727150D02*
X13562444Y-7736674D01*
X13562444Y-7736674D02*
X13571968Y-7755722D01*
X13571968Y-7755722D02*
X13571968Y-7774769D01*
X13571968Y-7774769D02*
X13476730Y-7793817D01*
X13648158Y-7850960D02*
X13667206Y-7860484D01*
X13667206Y-7860484D02*
X13705301Y-7860484D01*
X13705301Y-7860484D02*
X13724349Y-7850960D01*
X13724349Y-7850960D02*
X13733872Y-7831912D01*
X13733872Y-7831912D02*
X13733872Y-7822388D01*
X13733872Y-7822388D02*
X13724349Y-7803341D01*
X13724349Y-7803341D02*
X13705301Y-7793817D01*
X13705301Y-7793817D02*
X13676730Y-7793817D01*
X13676730Y-7793817D02*
X13657682Y-7784293D01*
X13657682Y-7784293D02*
X13648158Y-7765246D01*
X13648158Y-7765246D02*
X13648158Y-7755722D01*
X13648158Y-7755722D02*
X13657682Y-7736674D01*
X13657682Y-7736674D02*
X13676730Y-7727150D01*
X13676730Y-7727150D02*
X13705301Y-7727150D01*
X13705301Y-7727150D02*
X13724349Y-7736674D01*
X13800539Y-7936674D02*
X13810063Y-7927150D01*
X13810063Y-7927150D02*
X13829111Y-7898579D01*
X13829111Y-7898579D02*
X13838634Y-7879531D01*
X13838634Y-7879531D02*
X13848158Y-7850960D01*
X13848158Y-7850960D02*
X13857682Y-7803341D01*
X13857682Y-7803341D02*
X13857682Y-7765246D01*
X13857682Y-7765246D02*
X13848158Y-7717627D01*
X13848158Y-7717627D02*
X13838634Y-7689055D01*
X13838634Y-7689055D02*
X13829111Y-7670008D01*
X13829111Y-7670008D02*
X13810063Y-7641436D01*
X13810063Y-7641436D02*
X13800539Y-7631912D01*
X8735000Y-7933000D02*
X8735000Y-8133000D01*
X8635000Y-8033000D02*
X8835000Y-8033000D01*
X9086253Y-7943531D02*
X9095777Y-7934008D01*
X9095777Y-7934008D02*
X9114824Y-7924484D01*
X9114824Y-7924484D02*
X9162444Y-7924484D01*
X9162444Y-7924484D02*
X9181491Y-7934008D01*
X9181491Y-7934008D02*
X9191015Y-7943531D01*
X9191015Y-7943531D02*
X9200539Y-7962579D01*
X9200539Y-7962579D02*
X9200539Y-7981627D01*
X9200539Y-7981627D02*
X9191015Y-8010198D01*
X9191015Y-8010198D02*
X9076729Y-8124484D01*
X9076729Y-8124484D02*
X9200539Y-8124484D01*
X9286253Y-8105436D02*
X9295777Y-8114960D01*
X9295777Y-8114960D02*
X9286253Y-8124484D01*
X9286253Y-8124484D02*
X9276729Y-8114960D01*
X9276729Y-8114960D02*
X9286253Y-8105436D01*
X9286253Y-8105436D02*
X9286253Y-8124484D01*
X9371967Y-7943531D02*
X9381491Y-7934008D01*
X9381491Y-7934008D02*
X9400539Y-7924484D01*
X9400539Y-7924484D02*
X9448158Y-7924484D01*
X9448158Y-7924484D02*
X9467205Y-7934008D01*
X9467205Y-7934008D02*
X9476729Y-7943531D01*
X9476729Y-7943531D02*
X9486253Y-7962579D01*
X9486253Y-7962579D02*
X9486253Y-7981627D01*
X9486253Y-7981627D02*
X9476729Y-8010198D01*
X9476729Y-8010198D02*
X9362444Y-8124484D01*
X9362444Y-8124484D02*
X9486253Y-8124484D01*
X9610063Y-7924484D02*
X9629110Y-7924484D01*
X9629110Y-7924484D02*
X9648158Y-7934008D01*
X9648158Y-7934008D02*
X9657682Y-7943531D01*
X9657682Y-7943531D02*
X9667205Y-7962579D01*
X9667205Y-7962579D02*
X9676729Y-8000674D01*
X9676729Y-8000674D02*
X9676729Y-8048293D01*
X9676729Y-8048293D02*
X9667205Y-8086388D01*
X9667205Y-8086388D02*
X9657682Y-8105436D01*
X9657682Y-8105436D02*
X9648158Y-8114960D01*
X9648158Y-8114960D02*
X9629110Y-8124484D01*
X9629110Y-8124484D02*
X9610063Y-8124484D01*
X9610063Y-8124484D02*
X9591015Y-8114960D01*
X9591015Y-8114960D02*
X9581491Y-8105436D01*
X9581491Y-8105436D02*
X9571967Y-8086388D01*
X9571967Y-8086388D02*
X9562444Y-8048293D01*
X9562444Y-8048293D02*
X9562444Y-8000674D01*
X9562444Y-8000674D02*
X9571967Y-7962579D01*
X9571967Y-7962579D02*
X9581491Y-7943531D01*
X9581491Y-7943531D02*
X9591015Y-7934008D01*
X9591015Y-7934008D02*
X9610063Y-7924484D01*
X9800539Y-7924484D02*
X9819586Y-7924484D01*
X9819586Y-7924484D02*
X9838634Y-7934008D01*
X9838634Y-7934008D02*
X9848158Y-7943531D01*
X9848158Y-7943531D02*
X9857682Y-7962579D01*
X9857682Y-7962579D02*
X9867205Y-8000674D01*
X9867205Y-8000674D02*
X9867205Y-8048293D01*
X9867205Y-8048293D02*
X9857682Y-8086388D01*
X9857682Y-8086388D02*
X9848158Y-8105436D01*
X9848158Y-8105436D02*
X9838634Y-8114960D01*
X9838634Y-8114960D02*
X9819586Y-8124484D01*
X9819586Y-8124484D02*
X9800539Y-8124484D01*
X9800539Y-8124484D02*
X9781491Y-8114960D01*
X9781491Y-8114960D02*
X9771967Y-8105436D01*
X9771967Y-8105436D02*
X9762444Y-8086388D01*
X9762444Y-8086388D02*
X9752920Y-8048293D01*
X9752920Y-8048293D02*
X9752920Y-8000674D01*
X9752920Y-8000674D02*
X9762444Y-7962579D01*
X9762444Y-7962579D02*
X9771967Y-7943531D01*
X9771967Y-7943531D02*
X9781491Y-7934008D01*
X9781491Y-7934008D02*
X9800539Y-7924484D01*
X9952920Y-8124484D02*
X9952920Y-7991150D01*
X9952920Y-8010198D02*
X9962444Y-8000674D01*
X9962444Y-8000674D02*
X9981491Y-7991150D01*
X9981491Y-7991150D02*
X10010063Y-7991150D01*
X10010063Y-7991150D02*
X10029110Y-8000674D01*
X10029110Y-8000674D02*
X10038634Y-8019722D01*
X10038634Y-8019722D02*
X10038634Y-8124484D01*
X10038634Y-8019722D02*
X10048158Y-8000674D01*
X10048158Y-8000674D02*
X10067205Y-7991150D01*
X10067205Y-7991150D02*
X10095777Y-7991150D01*
X10095777Y-7991150D02*
X10114825Y-8000674D01*
X10114825Y-8000674D02*
X10124348Y-8019722D01*
X10124348Y-8019722D02*
X10124348Y-8124484D01*
X10219586Y-8124484D02*
X10219586Y-7991150D01*
X10219586Y-8010198D02*
X10229110Y-8000674D01*
X10229110Y-8000674D02*
X10248158Y-7991150D01*
X10248158Y-7991150D02*
X10276729Y-7991150D01*
X10276729Y-7991150D02*
X10295777Y-8000674D01*
X10295777Y-8000674D02*
X10305301Y-8019722D01*
X10305301Y-8019722D02*
X10305301Y-8124484D01*
X10305301Y-8019722D02*
X10314825Y-8000674D01*
X10314825Y-8000674D02*
X10333872Y-7991150D01*
X10333872Y-7991150D02*
X10362444Y-7991150D01*
X10362444Y-7991150D02*
X10381491Y-8000674D01*
X10381491Y-8000674D02*
X10391015Y-8019722D01*
X10391015Y-8019722D02*
X10391015Y-8124484D01*
X10781491Y-7914960D02*
X10610063Y-8172103D01*
X11038634Y-7924484D02*
X11057682Y-7924484D01*
X11057682Y-7924484D02*
X11076729Y-7934008D01*
X11076729Y-7934008D02*
X11086253Y-7943531D01*
X11086253Y-7943531D02*
X11095777Y-7962579D01*
X11095777Y-7962579D02*
X11105301Y-8000674D01*
X11105301Y-8000674D02*
X11105301Y-8048293D01*
X11105301Y-8048293D02*
X11095777Y-8086388D01*
X11095777Y-8086388D02*
X11086253Y-8105436D01*
X11086253Y-8105436D02*
X11076729Y-8114960D01*
X11076729Y-8114960D02*
X11057682Y-8124484D01*
X11057682Y-8124484D02*
X11038634Y-8124484D01*
X11038634Y-8124484D02*
X11019587Y-8114960D01*
X11019587Y-8114960D02*
X11010063Y-8105436D01*
X11010063Y-8105436D02*
X11000539Y-8086388D01*
X11000539Y-8086388D02*
X10991015Y-8048293D01*
X10991015Y-8048293D02*
X10991015Y-8000674D01*
X10991015Y-8000674D02*
X11000539Y-7962579D01*
X11000539Y-7962579D02*
X11010063Y-7943531D01*
X11010063Y-7943531D02*
X11019587Y-7934008D01*
X11019587Y-7934008D02*
X11038634Y-7924484D01*
X11191015Y-8105436D02*
X11200539Y-8114960D01*
X11200539Y-8114960D02*
X11191015Y-8124484D01*
X11191015Y-8124484D02*
X11181491Y-8114960D01*
X11181491Y-8114960D02*
X11191015Y-8105436D01*
X11191015Y-8105436D02*
X11191015Y-8124484D01*
X11324348Y-7924484D02*
X11343396Y-7924484D01*
X11343396Y-7924484D02*
X11362444Y-7934008D01*
X11362444Y-7934008D02*
X11371967Y-7943531D01*
X11371967Y-7943531D02*
X11381491Y-7962579D01*
X11381491Y-7962579D02*
X11391015Y-8000674D01*
X11391015Y-8000674D02*
X11391015Y-8048293D01*
X11391015Y-8048293D02*
X11381491Y-8086388D01*
X11381491Y-8086388D02*
X11371967Y-8105436D01*
X11371967Y-8105436D02*
X11362444Y-8114960D01*
X11362444Y-8114960D02*
X11343396Y-8124484D01*
X11343396Y-8124484D02*
X11324348Y-8124484D01*
X11324348Y-8124484D02*
X11305301Y-8114960D01*
X11305301Y-8114960D02*
X11295777Y-8105436D01*
X11295777Y-8105436D02*
X11286253Y-8086388D01*
X11286253Y-8086388D02*
X11276729Y-8048293D01*
X11276729Y-8048293D02*
X11276729Y-8000674D01*
X11276729Y-8000674D02*
X11286253Y-7962579D01*
X11286253Y-7962579D02*
X11295777Y-7943531D01*
X11295777Y-7943531D02*
X11305301Y-7934008D01*
X11305301Y-7934008D02*
X11324348Y-7924484D01*
X11505301Y-8010198D02*
X11486253Y-8000674D01*
X11486253Y-8000674D02*
X11476729Y-7991150D01*
X11476729Y-7991150D02*
X11467206Y-7972103D01*
X11467206Y-7972103D02*
X11467206Y-7962579D01*
X11467206Y-7962579D02*
X11476729Y-7943531D01*
X11476729Y-7943531D02*
X11486253Y-7934008D01*
X11486253Y-7934008D02*
X11505301Y-7924484D01*
X11505301Y-7924484D02*
X11543396Y-7924484D01*
X11543396Y-7924484D02*
X11562444Y-7934008D01*
X11562444Y-7934008D02*
X11571967Y-7943531D01*
X11571967Y-7943531D02*
X11581491Y-7962579D01*
X11581491Y-7962579D02*
X11581491Y-7972103D01*
X11581491Y-7972103D02*
X11571967Y-7991150D01*
X11571967Y-7991150D02*
X11562444Y-8000674D01*
X11562444Y-8000674D02*
X11543396Y-8010198D01*
X11543396Y-8010198D02*
X11505301Y-8010198D01*
X11505301Y-8010198D02*
X11486253Y-8019722D01*
X11486253Y-8019722D02*
X11476729Y-8029246D01*
X11476729Y-8029246D02*
X11467206Y-8048293D01*
X11467206Y-8048293D02*
X11467206Y-8086388D01*
X11467206Y-8086388D02*
X11476729Y-8105436D01*
X11476729Y-8105436D02*
X11486253Y-8114960D01*
X11486253Y-8114960D02*
X11505301Y-8124484D01*
X11505301Y-8124484D02*
X11543396Y-8124484D01*
X11543396Y-8124484D02*
X11562444Y-8114960D01*
X11562444Y-8114960D02*
X11571967Y-8105436D01*
X11571967Y-8105436D02*
X11581491Y-8086388D01*
X11581491Y-8086388D02*
X11581491Y-8048293D01*
X11581491Y-8048293D02*
X11571967Y-8029246D01*
X11571967Y-8029246D02*
X11562444Y-8019722D01*
X11562444Y-8019722D02*
X11543396Y-8010198D01*
X11752920Y-7924484D02*
X11714825Y-7924484D01*
X11714825Y-7924484D02*
X11695777Y-7934008D01*
X11695777Y-7934008D02*
X11686253Y-7943531D01*
X11686253Y-7943531D02*
X11667206Y-7972103D01*
X11667206Y-7972103D02*
X11657682Y-8010198D01*
X11657682Y-8010198D02*
X11657682Y-8086388D01*
X11657682Y-8086388D02*
X11667206Y-8105436D01*
X11667206Y-8105436D02*
X11676729Y-8114960D01*
X11676729Y-8114960D02*
X11695777Y-8124484D01*
X11695777Y-8124484D02*
X11733872Y-8124484D01*
X11733872Y-8124484D02*
X11752920Y-8114960D01*
X11752920Y-8114960D02*
X11762444Y-8105436D01*
X11762444Y-8105436D02*
X11771967Y-8086388D01*
X11771967Y-8086388D02*
X11771967Y-8038769D01*
X11771967Y-8038769D02*
X11762444Y-8019722D01*
X11762444Y-8019722D02*
X11752920Y-8010198D01*
X11752920Y-8010198D02*
X11733872Y-8000674D01*
X11733872Y-8000674D02*
X11695777Y-8000674D01*
X11695777Y-8000674D02*
X11676729Y-8010198D01*
X11676729Y-8010198D02*
X11667206Y-8019722D01*
X11667206Y-8019722D02*
X11657682Y-8038769D01*
X11943396Y-7924484D02*
X11905301Y-7924484D01*
X11905301Y-7924484D02*
X11886253Y-7934008D01*
X11886253Y-7934008D02*
X11876729Y-7943531D01*
X11876729Y-7943531D02*
X11857682Y-7972103D01*
X11857682Y-7972103D02*
X11848158Y-8010198D01*
X11848158Y-8010198D02*
X11848158Y-8086388D01*
X11848158Y-8086388D02*
X11857682Y-8105436D01*
X11857682Y-8105436D02*
X11867206Y-8114960D01*
X11867206Y-8114960D02*
X11886253Y-8124484D01*
X11886253Y-8124484D02*
X11924348Y-8124484D01*
X11924348Y-8124484D02*
X11943396Y-8114960D01*
X11943396Y-8114960D02*
X11952920Y-8105436D01*
X11952920Y-8105436D02*
X11962444Y-8086388D01*
X11962444Y-8086388D02*
X11962444Y-8038769D01*
X11962444Y-8038769D02*
X11952920Y-8019722D01*
X11952920Y-8019722D02*
X11943396Y-8010198D01*
X11943396Y-8010198D02*
X11924348Y-8000674D01*
X11924348Y-8000674D02*
X11886253Y-8000674D01*
X11886253Y-8000674D02*
X11867206Y-8010198D01*
X11867206Y-8010198D02*
X11857682Y-8019722D01*
X11857682Y-8019722D02*
X11848158Y-8038769D01*
X12038634Y-7924484D02*
X12038634Y-7962579D01*
X12114825Y-7924484D02*
X12114825Y-7962579D01*
X12410063Y-8200674D02*
X12400539Y-8191150D01*
X12400539Y-8191150D02*
X12381491Y-8162579D01*
X12381491Y-8162579D02*
X12371968Y-8143531D01*
X12371968Y-8143531D02*
X12362444Y-8114960D01*
X12362444Y-8114960D02*
X12352920Y-8067341D01*
X12352920Y-8067341D02*
X12352920Y-8029246D01*
X12352920Y-8029246D02*
X12362444Y-7981627D01*
X12362444Y-7981627D02*
X12371968Y-7953055D01*
X12371968Y-7953055D02*
X12381491Y-7934008D01*
X12381491Y-7934008D02*
X12400539Y-7905436D01*
X12400539Y-7905436D02*
X12410063Y-7895912D01*
X12476729Y-7943531D02*
X12486253Y-7934008D01*
X12486253Y-7934008D02*
X12505301Y-7924484D01*
X12505301Y-7924484D02*
X12552920Y-7924484D01*
X12552920Y-7924484D02*
X12571968Y-7934008D01*
X12571968Y-7934008D02*
X12581491Y-7943531D01*
X12581491Y-7943531D02*
X12591015Y-7962579D01*
X12591015Y-7962579D02*
X12591015Y-7981627D01*
X12591015Y-7981627D02*
X12581491Y-8010198D01*
X12581491Y-8010198D02*
X12467206Y-8124484D01*
X12467206Y-8124484D02*
X12591015Y-8124484D01*
X12829110Y-8124484D02*
X12829110Y-7924484D01*
X12914825Y-8124484D02*
X12914825Y-8019722D01*
X12914825Y-8019722D02*
X12905301Y-8000674D01*
X12905301Y-8000674D02*
X12886253Y-7991150D01*
X12886253Y-7991150D02*
X12857682Y-7991150D01*
X12857682Y-7991150D02*
X12838634Y-8000674D01*
X12838634Y-8000674D02*
X12829110Y-8010198D01*
X13038634Y-8124484D02*
X13019587Y-8114960D01*
X13019587Y-8114960D02*
X13010063Y-8105436D01*
X13010063Y-8105436D02*
X13000539Y-8086388D01*
X13000539Y-8086388D02*
X13000539Y-8029246D01*
X13000539Y-8029246D02*
X13010063Y-8010198D01*
X13010063Y-8010198D02*
X13019587Y-8000674D01*
X13019587Y-8000674D02*
X13038634Y-7991150D01*
X13038634Y-7991150D02*
X13067206Y-7991150D01*
X13067206Y-7991150D02*
X13086253Y-8000674D01*
X13086253Y-8000674D02*
X13095777Y-8010198D01*
X13095777Y-8010198D02*
X13105301Y-8029246D01*
X13105301Y-8029246D02*
X13105301Y-8086388D01*
X13105301Y-8086388D02*
X13095777Y-8105436D01*
X13095777Y-8105436D02*
X13086253Y-8114960D01*
X13086253Y-8114960D02*
X13067206Y-8124484D01*
X13067206Y-8124484D02*
X13038634Y-8124484D01*
X13219587Y-8124484D02*
X13200539Y-8114960D01*
X13200539Y-8114960D02*
X13191015Y-8095912D01*
X13191015Y-8095912D02*
X13191015Y-7924484D01*
X13371968Y-8114960D02*
X13352920Y-8124484D01*
X13352920Y-8124484D02*
X13314825Y-8124484D01*
X13314825Y-8124484D02*
X13295777Y-8114960D01*
X13295777Y-8114960D02*
X13286253Y-8095912D01*
X13286253Y-8095912D02*
X13286253Y-8019722D01*
X13286253Y-8019722D02*
X13295777Y-8000674D01*
X13295777Y-8000674D02*
X13314825Y-7991150D01*
X13314825Y-7991150D02*
X13352920Y-7991150D01*
X13352920Y-7991150D02*
X13371968Y-8000674D01*
X13371968Y-8000674D02*
X13381491Y-8019722D01*
X13381491Y-8019722D02*
X13381491Y-8038769D01*
X13381491Y-8038769D02*
X13286253Y-8057817D01*
X13457682Y-8114960D02*
X13476730Y-8124484D01*
X13476730Y-8124484D02*
X13514825Y-8124484D01*
X13514825Y-8124484D02*
X13533872Y-8114960D01*
X13533872Y-8114960D02*
X13543396Y-8095912D01*
X13543396Y-8095912D02*
X13543396Y-8086388D01*
X13543396Y-8086388D02*
X13533872Y-8067341D01*
X13533872Y-8067341D02*
X13514825Y-8057817D01*
X13514825Y-8057817D02*
X13486253Y-8057817D01*
X13486253Y-8057817D02*
X13467206Y-8048293D01*
X13467206Y-8048293D02*
X13457682Y-8029246D01*
X13457682Y-8029246D02*
X13457682Y-8019722D01*
X13457682Y-8019722D02*
X13467206Y-8000674D01*
X13467206Y-8000674D02*
X13486253Y-7991150D01*
X13486253Y-7991150D02*
X13514825Y-7991150D01*
X13514825Y-7991150D02*
X13533872Y-8000674D01*
X13610063Y-8200674D02*
X13619587Y-8191150D01*
X13619587Y-8191150D02*
X13638634Y-8162579D01*
X13638634Y-8162579D02*
X13648158Y-8143531D01*
X13648158Y-8143531D02*
X13657682Y-8114960D01*
X13657682Y-8114960D02*
X13667206Y-8067341D01*
X13667206Y-8067341D02*
X13667206Y-8029246D01*
X13667206Y-8029246D02*
X13657682Y-7981627D01*
X13657682Y-7981627D02*
X13648158Y-7953055D01*
X13648158Y-7953055D02*
X13638634Y-7934008D01*
X13638634Y-7934008D02*
X13619587Y-7905436D01*
X13619587Y-7905436D02*
X13610063Y-7895912D01*
M02*
