G04 #@! TF.GenerationSoftware,KiCad,Pcbnew,9.0.4*
G04 #@! TF.CreationDate,2025-09-07T15:09:32+02:00*
G04 #@! TF.ProjectId,npn-pnp-h-bridge,6e706e2d-706e-4702-9d68-2d6272696467,1.0*
G04 #@! TF.SameCoordinates,Original*
G04 #@! TF.FileFunction,Legend,Top*
G04 #@! TF.FilePolarity,Positive*
%FSLAX46Y46*%
G04 Gerber Fmt 4.6, Leading zero omitted, Abs format (unit mm)*
G04 Created by KiCad (PCBNEW 9.0.4) date 2025-09-07 15:09:32*
%MOMM*%
%LPD*%
G01*
G04 APERTURE LIST*
G04 Aperture macros list*
%AMRoundRect*
0 Rectangle with rounded corners*
0 $1 Rounding radius*
0 $2 $3 $4 $5 $6 $7 $8 $9 X,Y pos of 4 corners*
0 Add a 4 corners polygon primitive as box body*
4,1,4,$2,$3,$4,$5,$6,$7,$8,$9,$2,$3,0*
0 Add four circle primitives for the rounded corners*
1,1,$1+$1,$2,$3*
1,1,$1+$1,$4,$5*
1,1,$1+$1,$6,$7*
1,1,$1+$1,$8,$9*
0 Add four rect primitives between the rounded corners*
20,1,$1+$1,$2,$3,$4,$5,0*
20,1,$1+$1,$4,$5,$6,$7,0*
20,1,$1+$1,$6,$7,$8,$9,0*
20,1,$1+$1,$8,$9,$2,$3,0*%
G04 Aperture macros list end*
%ADD10C,0.200000*%
%ADD11C,0.150000*%
%ADD12C,0.120000*%
%ADD13RoundRect,0.250000X-0.475000X0.337500X-0.475000X-0.337500X0.475000X-0.337500X0.475000X0.337500X0*%
%ADD14R,1.500000X1.050000*%
%ADD15O,1.500000X1.050000*%
%ADD16RoundRect,0.250000X-0.350000X-0.450000X0.350000X-0.450000X0.350000X0.450000X-0.350000X0.450000X0*%
%ADD17RoundRect,0.250000X0.350000X0.450000X-0.350000X0.450000X-0.350000X-0.450000X0.350000X-0.450000X0*%
%ADD18RoundRect,0.250000X0.450000X-0.350000X0.450000X0.350000X-0.450000X0.350000X-0.450000X-0.350000X0*%
%ADD19RoundRect,0.250000X-0.350000X-0.625000X0.350000X-0.625000X0.350000X0.625000X-0.350000X0.625000X0*%
%ADD20O,1.200000X1.750000*%
%ADD21RoundRect,0.200000X-0.200000X0.750000X-0.200000X-0.750000X0.200000X-0.750000X0.200000X0.750000X0*%
%ADD22RoundRect,0.250000X-0.450000X0.350000X-0.450000X-0.350000X0.450000X-0.350000X0.450000X0.350000X0*%
%ADD23C,2.600000*%
%ADD24C,4.400000*%
%ADD25RoundRect,0.100000X-0.650000X-0.100000X0.650000X-0.100000X0.650000X0.100000X-0.650000X0.100000X0*%
%ADD26RoundRect,0.200000X0.200000X-0.750000X0.200000X0.750000X-0.200000X0.750000X-0.200000X-0.750000X0*%
%ADD27RoundRect,0.250000X0.350000X0.625000X-0.350000X0.625000X-0.350000X-0.625000X0.350000X-0.625000X0*%
G04 APERTURE END LIST*
D10*
G36*
X112272088Y-56925654D02*
G01*
X112274164Y-56977433D01*
X112270289Y-57029896D01*
X112259713Y-57071111D01*
X112243512Y-57103341D01*
X112208435Y-57143946D01*
X112165476Y-57172584D01*
X112116266Y-57191310D01*
X112061063Y-57201954D01*
X111951031Y-57208243D01*
X111828482Y-57201221D01*
X111769445Y-57189800D01*
X111718451Y-57170446D01*
X111674643Y-57140769D01*
X111639744Y-57098395D01*
X111623918Y-57064895D01*
X111613595Y-57022480D01*
X111609824Y-56969007D01*
X111610496Y-56950811D01*
X111611900Y-56927730D01*
X111613304Y-56904649D01*
X111615380Y-56887918D01*
X112268608Y-56887918D01*
X112272088Y-56925654D01*
G37*
G36*
X112565038Y-57520854D02*
G01*
X111322858Y-57520854D01*
X111322858Y-56946659D01*
X111437877Y-56946659D01*
X111439193Y-56969007D01*
X111443388Y-57040248D01*
X111458579Y-57116438D01*
X111481902Y-57178201D01*
X111515238Y-57235228D01*
X111553885Y-57281924D01*
X111597978Y-57319496D01*
X111647774Y-57349783D01*
X111702334Y-57373336D01*
X111762293Y-57390143D01*
X111855407Y-57404817D01*
X111951092Y-57409743D01*
X112055079Y-57404666D01*
X112147525Y-57390143D01*
X112206098Y-57373348D01*
X112258035Y-57350206D01*
X112304145Y-57320839D01*
X112344596Y-57284476D01*
X112379275Y-57239846D01*
X112408315Y-57185834D01*
X112428358Y-57127717D01*
X112441396Y-57056736D01*
X112446111Y-56970412D01*
X112444707Y-56894147D01*
X112441166Y-56811654D01*
X112436281Y-56740274D01*
X112432129Y-56696249D01*
X111451860Y-56696249D01*
X111446975Y-56747967D01*
X111442823Y-56817943D01*
X111439281Y-56889262D01*
X111437877Y-56946659D01*
X111322858Y-56946659D01*
X111322858Y-56047296D01*
X111453509Y-56047296D01*
X111917326Y-56047296D01*
X112033646Y-56038869D01*
X112033646Y-56045891D01*
X111453509Y-56380260D01*
X111453509Y-56548116D01*
X112434388Y-56548116D01*
X112434388Y-56366277D01*
X111952375Y-56366277D01*
X111834649Y-56378855D01*
X111834649Y-56371833D01*
X112434388Y-56033313D01*
X112434388Y-55865396D01*
X111453509Y-55865396D01*
X111453509Y-56047296D01*
X111322858Y-56047296D01*
X111322858Y-55454274D01*
X111433969Y-55454274D01*
X111439576Y-55533179D01*
X111456378Y-55610284D01*
X111474429Y-55659594D01*
X111496489Y-55700484D01*
X111522324Y-55734115D01*
X111965442Y-55734115D01*
X111965442Y-55399747D01*
X111832573Y-55399747D01*
X111832573Y-55577372D01*
X111631928Y-55577372D01*
X111624153Y-55563548D01*
X111614587Y-55536095D01*
X111608167Y-55505099D01*
X111605916Y-55469661D01*
X111611571Y-55415322D01*
X111628264Y-55365431D01*
X111655664Y-55320739D01*
X111693905Y-55282205D01*
X111740971Y-55251638D01*
X111800028Y-55227617D01*
X111865385Y-55213201D01*
X111942544Y-55208077D01*
X112028522Y-55213336D01*
X112096172Y-55227617D01*
X112156085Y-55251971D01*
X112201624Y-55282877D01*
X112237547Y-55322085D01*
X112262380Y-55367568D01*
X112276980Y-55418089D01*
X112281980Y-55473875D01*
X112276485Y-55535424D01*
X112270928Y-55557833D01*
X112117849Y-55557833D01*
X112117849Y-55711706D01*
X112406544Y-55711706D01*
X112425243Y-55663911D01*
X112440677Y-55609551D01*
X112450275Y-55550098D01*
X112453927Y-55469661D01*
X112447042Y-55388874D01*
X112425900Y-55305958D01*
X112403665Y-55252949D01*
X112374142Y-55203419D01*
X112336935Y-55156969D01*
X112293564Y-55116262D01*
X112241827Y-55080100D01*
X112180681Y-55048526D01*
X112115842Y-55026049D01*
X112039477Y-55011689D01*
X111949566Y-55006577D01*
X111864079Y-55010789D01*
X111789589Y-55022731D01*
X111724679Y-55041565D01*
X111662694Y-55068406D01*
X111609298Y-55100155D01*
X111563540Y-55136697D01*
X111523649Y-55179344D01*
X111491312Y-55226501D01*
X111466148Y-55278663D01*
X111448400Y-55334053D01*
X111437627Y-55392416D01*
X111433969Y-55454274D01*
X111322858Y-55454274D01*
X111322858Y-54895466D01*
X112565038Y-54895466D01*
X112565038Y-57520854D01*
G37*
G36*
X108577621Y-57459034D02*
G01*
X107358889Y-57459034D01*
X107358889Y-56695978D01*
X107470000Y-56695978D01*
X107470000Y-56877817D01*
X107923803Y-56877817D01*
X107964484Y-56899674D01*
X107998724Y-56935886D01*
X108021318Y-56980893D01*
X108028827Y-57030347D01*
X108024449Y-57067952D01*
X108011852Y-57099925D01*
X107990969Y-57127555D01*
X107963161Y-57147606D01*
X107923455Y-57160962D01*
X107867749Y-57166024D01*
X107470000Y-57166024D01*
X107470000Y-57347923D01*
X107905057Y-57347923D01*
X107982673Y-57342773D01*
X108041467Y-57328995D01*
X108092342Y-57305983D01*
X108128906Y-57277948D01*
X108156409Y-57242654D01*
X108175068Y-57200279D01*
X108185481Y-57153769D01*
X108189050Y-57103070D01*
X108185048Y-57047939D01*
X108173662Y-57000315D01*
X108155467Y-56958967D01*
X108117981Y-56904514D01*
X108077126Y-56866643D01*
X108077126Y-56861025D01*
X108169511Y-56840081D01*
X108169511Y-56595228D01*
X108017103Y-56595228D01*
X108017103Y-56695978D01*
X107470000Y-56695978D01*
X107358889Y-56695978D01*
X107358889Y-56508705D01*
X107470000Y-56508705D01*
X107622407Y-56508705D01*
X107622407Y-56249869D01*
X108169511Y-56249869D01*
X108169511Y-56156140D01*
X108259392Y-56156140D01*
X108262904Y-56194329D01*
X108272668Y-56225055D01*
X108288091Y-56249869D01*
X108309219Y-56269451D01*
X108333350Y-56280926D01*
X108361547Y-56284856D01*
X108388941Y-56281012D01*
X108413369Y-56269602D01*
X108435736Y-56249869D01*
X108452351Y-56224900D01*
X108462778Y-56194174D01*
X108466510Y-56156140D01*
X108462743Y-56119063D01*
X108452301Y-56089781D01*
X108435736Y-56066564D01*
X108413571Y-56048538D01*
X108389131Y-56037973D01*
X108361547Y-56034385D01*
X108333148Y-56038056D01*
X108309012Y-56048684D01*
X108288091Y-56066564D01*
X108272722Y-56089620D01*
X108262940Y-56118899D01*
X108259392Y-56156140D01*
X108169511Y-56156140D01*
X108169511Y-55821772D01*
X108017103Y-55821772D01*
X108017103Y-56067969D01*
X107622407Y-56067969D01*
X107622407Y-55821772D01*
X107470000Y-55821772D01*
X107470000Y-56508705D01*
X107358889Y-56508705D01*
X107358889Y-55652695D01*
X107470000Y-55652695D01*
X107868604Y-55652695D01*
X107868604Y-55479221D01*
X107641946Y-55479221D01*
X107641946Y-55200785D01*
X108450879Y-55200785D01*
X108450879Y-55009115D01*
X107470000Y-55009115D01*
X107470000Y-55652695D01*
X107358889Y-55652695D01*
X107358889Y-54898004D01*
X108577621Y-54898004D01*
X108577621Y-57459034D01*
G37*
G36*
X114338579Y-56977817D02*
G01*
X114340655Y-57029596D01*
X114336780Y-57082059D01*
X114326204Y-57123274D01*
X114310003Y-57155504D01*
X114274926Y-57196109D01*
X114231967Y-57224747D01*
X114182757Y-57243473D01*
X114127554Y-57254117D01*
X114017522Y-57260406D01*
X113894973Y-57253384D01*
X113835936Y-57241963D01*
X113784942Y-57222609D01*
X113741134Y-57192932D01*
X113706235Y-57150558D01*
X113690409Y-57117058D01*
X113680086Y-57074643D01*
X113676315Y-57021170D01*
X113676987Y-57002974D01*
X113678391Y-56979893D01*
X113679795Y-56956812D01*
X113681871Y-56940081D01*
X114335099Y-56940081D01*
X114338579Y-56977817D01*
G37*
G36*
X114338579Y-56138599D02*
G01*
X114340655Y-56190378D01*
X114336780Y-56242841D01*
X114326204Y-56284056D01*
X114310003Y-56316285D01*
X114274926Y-56356891D01*
X114231967Y-56385528D01*
X114182757Y-56404255D01*
X114127554Y-56414898D01*
X114017522Y-56421188D01*
X113894973Y-56414166D01*
X113835936Y-56402745D01*
X113784942Y-56383391D01*
X113741134Y-56353714D01*
X113706235Y-56311339D01*
X113690409Y-56277840D01*
X113680086Y-56235425D01*
X113676315Y-56181952D01*
X113676987Y-56163756D01*
X113678391Y-56140675D01*
X113679795Y-56117594D01*
X113681871Y-56100863D01*
X114335099Y-56100863D01*
X114338579Y-56138599D01*
G37*
G36*
X114623713Y-57573017D02*
G01*
X113393257Y-57573017D01*
X113393257Y-56998822D01*
X113504368Y-56998822D01*
X113505684Y-57021170D01*
X113509879Y-57092411D01*
X113525070Y-57168601D01*
X113548393Y-57230364D01*
X113581729Y-57287391D01*
X113620376Y-57334087D01*
X113664469Y-57371659D01*
X113714265Y-57401946D01*
X113768825Y-57425499D01*
X113828784Y-57442306D01*
X113921898Y-57456980D01*
X114017583Y-57461906D01*
X114121570Y-57456829D01*
X114214016Y-57442306D01*
X114272589Y-57425511D01*
X114324526Y-57402369D01*
X114370636Y-57373002D01*
X114411087Y-57336639D01*
X114445766Y-57292009D01*
X114474806Y-57237997D01*
X114494849Y-57179880D01*
X114507887Y-57108899D01*
X114512602Y-57022575D01*
X114511198Y-56946310D01*
X114507657Y-56863817D01*
X114502772Y-56792437D01*
X114498620Y-56748412D01*
X113518351Y-56748412D01*
X113513466Y-56800130D01*
X113509314Y-56870106D01*
X113505772Y-56941425D01*
X113504368Y-56998822D01*
X113393257Y-56998822D01*
X113393257Y-56159603D01*
X113504368Y-56159603D01*
X113505684Y-56181952D01*
X113509879Y-56253192D01*
X113525070Y-56329383D01*
X113548393Y-56391146D01*
X113581729Y-56448173D01*
X113620376Y-56494869D01*
X113664469Y-56532440D01*
X113714265Y-56562728D01*
X113768825Y-56586281D01*
X113828784Y-56603087D01*
X113921898Y-56617762D01*
X114017583Y-56622688D01*
X114121570Y-56617611D01*
X114214016Y-56603087D01*
X114272589Y-56586292D01*
X114324526Y-56563151D01*
X114370636Y-56533784D01*
X114411087Y-56497421D01*
X114445766Y-56452791D01*
X114474806Y-56398778D01*
X114494849Y-56340661D01*
X114507887Y-56269681D01*
X114512602Y-56183356D01*
X114511198Y-56107091D01*
X114507657Y-56024598D01*
X114502772Y-55953218D01*
X114498620Y-55909193D01*
X113518351Y-55909193D01*
X113513466Y-55960912D01*
X113509314Y-56030887D01*
X113505772Y-56102206D01*
X113504368Y-56159603D01*
X113393257Y-56159603D01*
X113393257Y-55314767D01*
X113520000Y-55314767D01*
X113520000Y-55532998D01*
X114500879Y-55826823D01*
X114500879Y-55628131D01*
X113781645Y-55435118D01*
X113781645Y-55428096D01*
X114500879Y-55226657D01*
X114500879Y-55012578D01*
X113520000Y-55314767D01*
X113393257Y-55314767D01*
X113393257Y-54901467D01*
X114623713Y-54901467D01*
X114623713Y-57573017D01*
G37*
G36*
X110289251Y-55222461D02*
G01*
X110290655Y-55280530D01*
X110286213Y-55329736D01*
X110274181Y-55367053D01*
X110255668Y-55395202D01*
X110229997Y-55416608D01*
X110198374Y-55429740D01*
X110159009Y-55434403D01*
X110106634Y-55428105D01*
X110068537Y-55411041D01*
X110041039Y-55384028D01*
X110021873Y-55348825D01*
X110009728Y-55306072D01*
X110005380Y-55253968D01*
X110005380Y-55178375D01*
X110283817Y-55178375D01*
X110289251Y-55222461D01*
G37*
G36*
X110577621Y-57459034D02*
G01*
X109358889Y-57459034D01*
X109358889Y-56695978D01*
X109470000Y-56695978D01*
X109470000Y-56877817D01*
X109923803Y-56877817D01*
X109964484Y-56899674D01*
X109998724Y-56935886D01*
X110021318Y-56980893D01*
X110028827Y-57030347D01*
X110024449Y-57067952D01*
X110011852Y-57099925D01*
X109990969Y-57127555D01*
X109963161Y-57147606D01*
X109923455Y-57160962D01*
X109867749Y-57166024D01*
X109470000Y-57166024D01*
X109470000Y-57347923D01*
X109905057Y-57347923D01*
X109982673Y-57342773D01*
X110041467Y-57328995D01*
X110092342Y-57305983D01*
X110128906Y-57277948D01*
X110156409Y-57242654D01*
X110175068Y-57200279D01*
X110185481Y-57153769D01*
X110189050Y-57103070D01*
X110185048Y-57047939D01*
X110173662Y-57000315D01*
X110155467Y-56958967D01*
X110117981Y-56904514D01*
X110077126Y-56866643D01*
X110077126Y-56861025D01*
X110169511Y-56840081D01*
X110169511Y-56595228D01*
X110017103Y-56595228D01*
X110017103Y-56695978D01*
X109470000Y-56695978D01*
X109358889Y-56695978D01*
X109358889Y-56508705D01*
X109470000Y-56508705D01*
X109622407Y-56508705D01*
X109622407Y-56249869D01*
X110169511Y-56249869D01*
X110169511Y-56156140D01*
X110259392Y-56156140D01*
X110262904Y-56194329D01*
X110272668Y-56225055D01*
X110288091Y-56249869D01*
X110309219Y-56269451D01*
X110333350Y-56280926D01*
X110361547Y-56284856D01*
X110388941Y-56281012D01*
X110413369Y-56269602D01*
X110435736Y-56249869D01*
X110452351Y-56224900D01*
X110462778Y-56194174D01*
X110466510Y-56156140D01*
X110462743Y-56119063D01*
X110452301Y-56089781D01*
X110435736Y-56066564D01*
X110413571Y-56048538D01*
X110389131Y-56037973D01*
X110361547Y-56034385D01*
X110333148Y-56038056D01*
X110309012Y-56048684D01*
X110288091Y-56066564D01*
X110272722Y-56089620D01*
X110262940Y-56118899D01*
X110259392Y-56156140D01*
X110169511Y-56156140D01*
X110169511Y-55821772D01*
X110017103Y-55821772D01*
X110017103Y-56067969D01*
X109622407Y-56067969D01*
X109622407Y-55821772D01*
X109470000Y-55821772D01*
X109470000Y-56508705D01*
X109358889Y-56508705D01*
X109358889Y-55178375D01*
X109470000Y-55178375D01*
X109852972Y-55178375D01*
X109852972Y-55253968D01*
X109852972Y-55293108D01*
X109470000Y-55490396D01*
X109470000Y-55711435D01*
X109899012Y-55475008D01*
X109942915Y-55540038D01*
X109969535Y-55567795D01*
X110000800Y-55591085D01*
X110036244Y-55609528D01*
X110078225Y-55623996D01*
X110124322Y-55632706D01*
X110182212Y-55635903D01*
X110235386Y-55632076D01*
X110279999Y-55621331D01*
X110317522Y-55604396D01*
X110366452Y-55567574D01*
X110403984Y-55520437D01*
X110431116Y-55465193D01*
X110449352Y-55401552D01*
X110459280Y-55334682D01*
X110462602Y-55266547D01*
X110461198Y-55202189D01*
X110456985Y-55130137D01*
X110449291Y-55056010D01*
X110438850Y-54986767D01*
X109470000Y-54986767D01*
X109470000Y-55178375D01*
X109358889Y-55178375D01*
X109358889Y-54875656D01*
X110577621Y-54875656D01*
X110577621Y-57459034D01*
G37*
D11*
X125405077Y-55183941D02*
X125366981Y-55222037D01*
X125366981Y-55222037D02*
X125252696Y-55260132D01*
X125252696Y-55260132D02*
X125176505Y-55260132D01*
X125176505Y-55260132D02*
X125062219Y-55222037D01*
X125062219Y-55222037D02*
X124986029Y-55145846D01*
X124986029Y-55145846D02*
X124947934Y-55069656D01*
X124947934Y-55069656D02*
X124909838Y-54917275D01*
X124909838Y-54917275D02*
X124909838Y-54802989D01*
X124909838Y-54802989D02*
X124947934Y-54650608D01*
X124947934Y-54650608D02*
X124986029Y-54574417D01*
X124986029Y-54574417D02*
X125062219Y-54498227D01*
X125062219Y-54498227D02*
X125176505Y-54460132D01*
X125176505Y-54460132D02*
X125252696Y-54460132D01*
X125252696Y-54460132D02*
X125366981Y-54498227D01*
X125366981Y-54498227D02*
X125405077Y-54536322D01*
X125671743Y-54460132D02*
X126166981Y-54460132D01*
X126166981Y-54460132D02*
X125900315Y-54764894D01*
X125900315Y-54764894D02*
X126014600Y-54764894D01*
X126014600Y-54764894D02*
X126090791Y-54802989D01*
X126090791Y-54802989D02*
X126128886Y-54841084D01*
X126128886Y-54841084D02*
X126166981Y-54917275D01*
X126166981Y-54917275D02*
X126166981Y-55107751D01*
X126166981Y-55107751D02*
X126128886Y-55183941D01*
X126128886Y-55183941D02*
X126090791Y-55222037D01*
X126090791Y-55222037D02*
X126014600Y-55260132D01*
X126014600Y-55260132D02*
X125786029Y-55260132D01*
X125786029Y-55260132D02*
X125709838Y-55222037D01*
X125709838Y-55222037D02*
X125671743Y-55183941D01*
X116090642Y-60629954D02*
X116014452Y-60591859D01*
X116014452Y-60591859D02*
X115938261Y-60515669D01*
X115938261Y-60515669D02*
X115823975Y-60401383D01*
X115823975Y-60401383D02*
X115747785Y-60363288D01*
X115747785Y-60363288D02*
X115671594Y-60363288D01*
X115709690Y-60553764D02*
X115633499Y-60515669D01*
X115633499Y-60515669D02*
X115557309Y-60439478D01*
X115557309Y-60439478D02*
X115519213Y-60287097D01*
X115519213Y-60287097D02*
X115519213Y-60020430D01*
X115519213Y-60020430D02*
X115557309Y-59868049D01*
X115557309Y-59868049D02*
X115633499Y-59791859D01*
X115633499Y-59791859D02*
X115709690Y-59753764D01*
X115709690Y-59753764D02*
X115862071Y-59753764D01*
X115862071Y-59753764D02*
X115938261Y-59791859D01*
X115938261Y-59791859D02*
X116014452Y-59868049D01*
X116014452Y-59868049D02*
X116052547Y-60020430D01*
X116052547Y-60020430D02*
X116052547Y-60287097D01*
X116052547Y-60287097D02*
X116014452Y-60439478D01*
X116014452Y-60439478D02*
X115938261Y-60515669D01*
X115938261Y-60515669D02*
X115862071Y-60553764D01*
X115862071Y-60553764D02*
X115709690Y-60553764D01*
X116395404Y-60553764D02*
X116395404Y-60020430D01*
X116395404Y-60172811D02*
X116433499Y-60096621D01*
X116433499Y-60096621D02*
X116471594Y-60058526D01*
X116471594Y-60058526D02*
X116547785Y-60020430D01*
X116547785Y-60020430D02*
X116623975Y-60020430D01*
X117309689Y-60553764D02*
X116852546Y-60553764D01*
X117081118Y-60553764D02*
X117081118Y-59753764D01*
X117081118Y-59753764D02*
X117004927Y-59868049D01*
X117004927Y-59868049D02*
X116928737Y-59944240D01*
X116928737Y-59944240D02*
X116852546Y-59982335D01*
X98924124Y-66360132D02*
X98657457Y-65979179D01*
X98466981Y-66360132D02*
X98466981Y-65560132D01*
X98466981Y-65560132D02*
X98771743Y-65560132D01*
X98771743Y-65560132D02*
X98847933Y-65598227D01*
X98847933Y-65598227D02*
X98886028Y-65636322D01*
X98886028Y-65636322D02*
X98924124Y-65712513D01*
X98924124Y-65712513D02*
X98924124Y-65826798D01*
X98924124Y-65826798D02*
X98886028Y-65902989D01*
X98886028Y-65902989D02*
X98847933Y-65941084D01*
X98847933Y-65941084D02*
X98771743Y-65979179D01*
X98771743Y-65979179D02*
X98466981Y-65979179D01*
X99686028Y-66360132D02*
X99228885Y-66360132D01*
X99457457Y-66360132D02*
X99457457Y-65560132D01*
X99457457Y-65560132D02*
X99381266Y-65674417D01*
X99381266Y-65674417D02*
X99305076Y-65750608D01*
X99305076Y-65750608D02*
X99228885Y-65788703D01*
X99952695Y-65560132D02*
X100447933Y-65560132D01*
X100447933Y-65560132D02*
X100181267Y-65864894D01*
X100181267Y-65864894D02*
X100295552Y-65864894D01*
X100295552Y-65864894D02*
X100371743Y-65902989D01*
X100371743Y-65902989D02*
X100409838Y-65941084D01*
X100409838Y-65941084D02*
X100447933Y-66017275D01*
X100447933Y-66017275D02*
X100447933Y-66207751D01*
X100447933Y-66207751D02*
X100409838Y-66283941D01*
X100409838Y-66283941D02*
X100371743Y-66322037D01*
X100371743Y-66322037D02*
X100295552Y-66360132D01*
X100295552Y-66360132D02*
X100066981Y-66360132D01*
X100066981Y-66360132D02*
X99990790Y-66322037D01*
X99990790Y-66322037D02*
X99952695Y-66283941D01*
X131085714Y-58562295D02*
X130819047Y-58181342D01*
X130628571Y-58562295D02*
X130628571Y-57762295D01*
X130628571Y-57762295D02*
X130933333Y-57762295D01*
X130933333Y-57762295D02*
X131009523Y-57800390D01*
X131009523Y-57800390D02*
X131047618Y-57838485D01*
X131047618Y-57838485D02*
X131085714Y-57914676D01*
X131085714Y-57914676D02*
X131085714Y-58028961D01*
X131085714Y-58028961D02*
X131047618Y-58105152D01*
X131047618Y-58105152D02*
X131009523Y-58143247D01*
X131009523Y-58143247D02*
X130933333Y-58181342D01*
X130933333Y-58181342D02*
X130628571Y-58181342D01*
X131847618Y-58562295D02*
X131390475Y-58562295D01*
X131619047Y-58562295D02*
X131619047Y-57762295D01*
X131619047Y-57762295D02*
X131542856Y-57876580D01*
X131542856Y-57876580D02*
X131466666Y-57952771D01*
X131466666Y-57952771D02*
X131390475Y-57990866D01*
X132152380Y-57838485D02*
X132190476Y-57800390D01*
X132190476Y-57800390D02*
X132266666Y-57762295D01*
X132266666Y-57762295D02*
X132457142Y-57762295D01*
X132457142Y-57762295D02*
X132533333Y-57800390D01*
X132533333Y-57800390D02*
X132571428Y-57838485D01*
X132571428Y-57838485D02*
X132609523Y-57914676D01*
X132609523Y-57914676D02*
X132609523Y-57990866D01*
X132609523Y-57990866D02*
X132571428Y-58105152D01*
X132571428Y-58105152D02*
X132114285Y-58562295D01*
X132114285Y-58562295D02*
X132609523Y-58562295D01*
X92966667Y-58662295D02*
X92700000Y-58281342D01*
X92509524Y-58662295D02*
X92509524Y-57862295D01*
X92509524Y-57862295D02*
X92814286Y-57862295D01*
X92814286Y-57862295D02*
X92890476Y-57900390D01*
X92890476Y-57900390D02*
X92928571Y-57938485D01*
X92928571Y-57938485D02*
X92966667Y-58014676D01*
X92966667Y-58014676D02*
X92966667Y-58128961D01*
X92966667Y-58128961D02*
X92928571Y-58205152D01*
X92928571Y-58205152D02*
X92890476Y-58243247D01*
X92890476Y-58243247D02*
X92814286Y-58281342D01*
X92814286Y-58281342D02*
X92509524Y-58281342D01*
X93233333Y-57862295D02*
X93766667Y-57862295D01*
X93766667Y-57862295D02*
X93423809Y-58662295D01*
X89885714Y-58662295D02*
X89619047Y-58281342D01*
X89428571Y-58662295D02*
X89428571Y-57862295D01*
X89428571Y-57862295D02*
X89733333Y-57862295D01*
X89733333Y-57862295D02*
X89809523Y-57900390D01*
X89809523Y-57900390D02*
X89847618Y-57938485D01*
X89847618Y-57938485D02*
X89885714Y-58014676D01*
X89885714Y-58014676D02*
X89885714Y-58128961D01*
X89885714Y-58128961D02*
X89847618Y-58205152D01*
X89847618Y-58205152D02*
X89809523Y-58243247D01*
X89809523Y-58243247D02*
X89733333Y-58281342D01*
X89733333Y-58281342D02*
X89428571Y-58281342D01*
X90647618Y-58662295D02*
X90190475Y-58662295D01*
X90419047Y-58662295D02*
X90419047Y-57862295D01*
X90419047Y-57862295D02*
X90342856Y-57976580D01*
X90342856Y-57976580D02*
X90266666Y-58052771D01*
X90266666Y-58052771D02*
X90190475Y-58090866D01*
X91409523Y-58662295D02*
X90952380Y-58662295D01*
X91180952Y-58662295D02*
X91180952Y-57862295D01*
X91180952Y-57862295D02*
X91104761Y-57976580D01*
X91104761Y-57976580D02*
X91028571Y-58052771D01*
X91028571Y-58052771D02*
X90952380Y-58090866D01*
X114722763Y-63562585D02*
X114722763Y-64134013D01*
X114722763Y-64134013D02*
X114684668Y-64248299D01*
X114684668Y-64248299D02*
X114608477Y-64324490D01*
X114608477Y-64324490D02*
X114494192Y-64362585D01*
X114494192Y-64362585D02*
X114418001Y-64362585D01*
X115065620Y-63638775D02*
X115103716Y-63600680D01*
X115103716Y-63600680D02*
X115179906Y-63562585D01*
X115179906Y-63562585D02*
X115370382Y-63562585D01*
X115370382Y-63562585D02*
X115446573Y-63600680D01*
X115446573Y-63600680D02*
X115484668Y-63638775D01*
X115484668Y-63638775D02*
X115522763Y-63714966D01*
X115522763Y-63714966D02*
X115522763Y-63791156D01*
X115522763Y-63791156D02*
X115484668Y-63905442D01*
X115484668Y-63905442D02*
X115027525Y-64362585D01*
X115027525Y-64362585D02*
X115522763Y-64362585D01*
X130005077Y-55183941D02*
X129966981Y-55222037D01*
X129966981Y-55222037D02*
X129852696Y-55260132D01*
X129852696Y-55260132D02*
X129776505Y-55260132D01*
X129776505Y-55260132D02*
X129662219Y-55222037D01*
X129662219Y-55222037D02*
X129586029Y-55145846D01*
X129586029Y-55145846D02*
X129547934Y-55069656D01*
X129547934Y-55069656D02*
X129509838Y-54917275D01*
X129509838Y-54917275D02*
X129509838Y-54802989D01*
X129509838Y-54802989D02*
X129547934Y-54650608D01*
X129547934Y-54650608D02*
X129586029Y-54574417D01*
X129586029Y-54574417D02*
X129662219Y-54498227D01*
X129662219Y-54498227D02*
X129776505Y-54460132D01*
X129776505Y-54460132D02*
X129852696Y-54460132D01*
X129852696Y-54460132D02*
X129966981Y-54498227D01*
X129966981Y-54498227D02*
X130005077Y-54536322D01*
X130690791Y-54726798D02*
X130690791Y-55260132D01*
X130500315Y-54422037D02*
X130309838Y-54993465D01*
X130309838Y-54993465D02*
X130805077Y-54993465D01*
X96909524Y-62762295D02*
X96909524Y-61962295D01*
X96909524Y-61962295D02*
X97100000Y-61962295D01*
X97100000Y-61962295D02*
X97214286Y-62000390D01*
X97214286Y-62000390D02*
X97290476Y-62076580D01*
X97290476Y-62076580D02*
X97328571Y-62152771D01*
X97328571Y-62152771D02*
X97366667Y-62305152D01*
X97366667Y-62305152D02*
X97366667Y-62419438D01*
X97366667Y-62419438D02*
X97328571Y-62571819D01*
X97328571Y-62571819D02*
X97290476Y-62648009D01*
X97290476Y-62648009D02*
X97214286Y-62724200D01*
X97214286Y-62724200D02*
X97100000Y-62762295D01*
X97100000Y-62762295D02*
X96909524Y-62762295D01*
X98128571Y-62762295D02*
X97671428Y-62762295D01*
X97900000Y-62762295D02*
X97900000Y-61962295D01*
X97900000Y-61962295D02*
X97823809Y-62076580D01*
X97823809Y-62076580D02*
X97747619Y-62152771D01*
X97747619Y-62152771D02*
X97671428Y-62190866D01*
X93238827Y-55230132D02*
X92972160Y-54849179D01*
X92781684Y-55230132D02*
X92781684Y-54430132D01*
X92781684Y-54430132D02*
X93086446Y-54430132D01*
X93086446Y-54430132D02*
X93162636Y-54468227D01*
X93162636Y-54468227D02*
X93200731Y-54506322D01*
X93200731Y-54506322D02*
X93238827Y-54582513D01*
X93238827Y-54582513D02*
X93238827Y-54696798D01*
X93238827Y-54696798D02*
X93200731Y-54772989D01*
X93200731Y-54772989D02*
X93162636Y-54811084D01*
X93162636Y-54811084D02*
X93086446Y-54849179D01*
X93086446Y-54849179D02*
X92781684Y-54849179D01*
X94000731Y-55230132D02*
X93543588Y-55230132D01*
X93772160Y-55230132D02*
X93772160Y-54430132D01*
X93772160Y-54430132D02*
X93695969Y-54544417D01*
X93695969Y-54544417D02*
X93619779Y-54620608D01*
X93619779Y-54620608D02*
X93543588Y-54658703D01*
X121985714Y-66362295D02*
X121719047Y-65981342D01*
X121528571Y-66362295D02*
X121528571Y-65562295D01*
X121528571Y-65562295D02*
X121833333Y-65562295D01*
X121833333Y-65562295D02*
X121909523Y-65600390D01*
X121909523Y-65600390D02*
X121947618Y-65638485D01*
X121947618Y-65638485D02*
X121985714Y-65714676D01*
X121985714Y-65714676D02*
X121985714Y-65828961D01*
X121985714Y-65828961D02*
X121947618Y-65905152D01*
X121947618Y-65905152D02*
X121909523Y-65943247D01*
X121909523Y-65943247D02*
X121833333Y-65981342D01*
X121833333Y-65981342D02*
X121528571Y-65981342D01*
X122747618Y-66362295D02*
X122290475Y-66362295D01*
X122519047Y-66362295D02*
X122519047Y-65562295D01*
X122519047Y-65562295D02*
X122442856Y-65676580D01*
X122442856Y-65676580D02*
X122366666Y-65752771D01*
X122366666Y-65752771D02*
X122290475Y-65790866D01*
X123433333Y-65828961D02*
X123433333Y-66362295D01*
X123242857Y-65524200D02*
X123052380Y-66095628D01*
X123052380Y-66095628D02*
X123547619Y-66095628D01*
X105760335Y-60640896D02*
X105684145Y-60602801D01*
X105684145Y-60602801D02*
X105607954Y-60526611D01*
X105607954Y-60526611D02*
X105493668Y-60412325D01*
X105493668Y-60412325D02*
X105417478Y-60374230D01*
X105417478Y-60374230D02*
X105341287Y-60374230D01*
X105379383Y-60564706D02*
X105303192Y-60526611D01*
X105303192Y-60526611D02*
X105227002Y-60450420D01*
X105227002Y-60450420D02*
X105188906Y-60298039D01*
X105188906Y-60298039D02*
X105188906Y-60031372D01*
X105188906Y-60031372D02*
X105227002Y-59878991D01*
X105227002Y-59878991D02*
X105303192Y-59802801D01*
X105303192Y-59802801D02*
X105379383Y-59764706D01*
X105379383Y-59764706D02*
X105531764Y-59764706D01*
X105531764Y-59764706D02*
X105607954Y-59802801D01*
X105607954Y-59802801D02*
X105684145Y-59878991D01*
X105684145Y-59878991D02*
X105722240Y-60031372D01*
X105722240Y-60031372D02*
X105722240Y-60298039D01*
X105722240Y-60298039D02*
X105684145Y-60450420D01*
X105684145Y-60450420D02*
X105607954Y-60526611D01*
X105607954Y-60526611D02*
X105531764Y-60564706D01*
X105531764Y-60564706D02*
X105379383Y-60564706D01*
X106179382Y-60564706D02*
X106103192Y-60526611D01*
X106103192Y-60526611D02*
X106065097Y-60450420D01*
X106065097Y-60450420D02*
X106065097Y-59764706D01*
X106903192Y-60564706D02*
X106446049Y-60564706D01*
X106674621Y-60564706D02*
X106674621Y-59764706D01*
X106674621Y-59764706D02*
X106598430Y-59878991D01*
X106598430Y-59878991D02*
X106522240Y-59955182D01*
X106522240Y-59955182D02*
X106446049Y-59993277D01*
X128485714Y-58562295D02*
X128219047Y-58181342D01*
X128028571Y-58562295D02*
X128028571Y-57762295D01*
X128028571Y-57762295D02*
X128333333Y-57762295D01*
X128333333Y-57762295D02*
X128409523Y-57800390D01*
X128409523Y-57800390D02*
X128447618Y-57838485D01*
X128447618Y-57838485D02*
X128485714Y-57914676D01*
X128485714Y-57914676D02*
X128485714Y-58028961D01*
X128485714Y-58028961D02*
X128447618Y-58105152D01*
X128447618Y-58105152D02*
X128409523Y-58143247D01*
X128409523Y-58143247D02*
X128333333Y-58181342D01*
X128333333Y-58181342D02*
X128028571Y-58181342D01*
X129247618Y-58562295D02*
X128790475Y-58562295D01*
X129019047Y-58562295D02*
X129019047Y-57762295D01*
X129019047Y-57762295D02*
X128942856Y-57876580D01*
X128942856Y-57876580D02*
X128866666Y-57952771D01*
X128866666Y-57952771D02*
X128790475Y-57990866D01*
X129742857Y-57762295D02*
X129819047Y-57762295D01*
X129819047Y-57762295D02*
X129895238Y-57800390D01*
X129895238Y-57800390D02*
X129933333Y-57838485D01*
X129933333Y-57838485D02*
X129971428Y-57914676D01*
X129971428Y-57914676D02*
X130009523Y-58067057D01*
X130009523Y-58067057D02*
X130009523Y-58257533D01*
X130009523Y-58257533D02*
X129971428Y-58409914D01*
X129971428Y-58409914D02*
X129933333Y-58486104D01*
X129933333Y-58486104D02*
X129895238Y-58524200D01*
X129895238Y-58524200D02*
X129819047Y-58562295D01*
X129819047Y-58562295D02*
X129742857Y-58562295D01*
X129742857Y-58562295D02*
X129666666Y-58524200D01*
X129666666Y-58524200D02*
X129628571Y-58486104D01*
X129628571Y-58486104D02*
X129590476Y-58409914D01*
X129590476Y-58409914D02*
X129552380Y-58257533D01*
X129552380Y-58257533D02*
X129552380Y-58067057D01*
X129552380Y-58067057D02*
X129590476Y-57914676D01*
X129590476Y-57914676D02*
X129628571Y-57838485D01*
X129628571Y-57838485D02*
X129666666Y-57800390D01*
X129666666Y-57800390D02*
X129742857Y-57762295D01*
X128562219Y-62836322D02*
X128486029Y-62798227D01*
X128486029Y-62798227D02*
X128409838Y-62722037D01*
X128409838Y-62722037D02*
X128295552Y-62607751D01*
X128295552Y-62607751D02*
X128219362Y-62569656D01*
X128219362Y-62569656D02*
X128143171Y-62569656D01*
X128181267Y-62760132D02*
X128105076Y-62722037D01*
X128105076Y-62722037D02*
X128028886Y-62645846D01*
X128028886Y-62645846D02*
X127990790Y-62493465D01*
X127990790Y-62493465D02*
X127990790Y-62226798D01*
X127990790Y-62226798D02*
X128028886Y-62074417D01*
X128028886Y-62074417D02*
X128105076Y-61998227D01*
X128105076Y-61998227D02*
X128181267Y-61960132D01*
X128181267Y-61960132D02*
X128333648Y-61960132D01*
X128333648Y-61960132D02*
X128409838Y-61998227D01*
X128409838Y-61998227D02*
X128486029Y-62074417D01*
X128486029Y-62074417D02*
X128524124Y-62226798D01*
X128524124Y-62226798D02*
X128524124Y-62493465D01*
X128524124Y-62493465D02*
X128486029Y-62645846D01*
X128486029Y-62645846D02*
X128409838Y-62722037D01*
X128409838Y-62722037D02*
X128333648Y-62760132D01*
X128333648Y-62760132D02*
X128181267Y-62760132D01*
X128828885Y-62036322D02*
X128866981Y-61998227D01*
X128866981Y-61998227D02*
X128943171Y-61960132D01*
X128943171Y-61960132D02*
X129133647Y-61960132D01*
X129133647Y-61960132D02*
X129209838Y-61998227D01*
X129209838Y-61998227D02*
X129247933Y-62036322D01*
X129247933Y-62036322D02*
X129286028Y-62112513D01*
X129286028Y-62112513D02*
X129286028Y-62188703D01*
X129286028Y-62188703D02*
X129247933Y-62302989D01*
X129247933Y-62302989D02*
X128790790Y-62760132D01*
X128790790Y-62760132D02*
X129286028Y-62760132D01*
X123305077Y-55260132D02*
X123038410Y-54879179D01*
X122847934Y-55260132D02*
X122847934Y-54460132D01*
X122847934Y-54460132D02*
X123152696Y-54460132D01*
X123152696Y-54460132D02*
X123228886Y-54498227D01*
X123228886Y-54498227D02*
X123266981Y-54536322D01*
X123266981Y-54536322D02*
X123305077Y-54612513D01*
X123305077Y-54612513D02*
X123305077Y-54726798D01*
X123305077Y-54726798D02*
X123266981Y-54802989D01*
X123266981Y-54802989D02*
X123228886Y-54841084D01*
X123228886Y-54841084D02*
X123152696Y-54879179D01*
X123152696Y-54879179D02*
X122847934Y-54879179D01*
X124028886Y-54460132D02*
X123647934Y-54460132D01*
X123647934Y-54460132D02*
X123609838Y-54841084D01*
X123609838Y-54841084D02*
X123647934Y-54802989D01*
X123647934Y-54802989D02*
X123724124Y-54764894D01*
X123724124Y-54764894D02*
X123914600Y-54764894D01*
X123914600Y-54764894D02*
X123990791Y-54802989D01*
X123990791Y-54802989D02*
X124028886Y-54841084D01*
X124028886Y-54841084D02*
X124066981Y-54917275D01*
X124066981Y-54917275D02*
X124066981Y-55107751D01*
X124066981Y-55107751D02*
X124028886Y-55183941D01*
X124028886Y-55183941D02*
X123990791Y-55222037D01*
X123990791Y-55222037D02*
X123914600Y-55260132D01*
X123914600Y-55260132D02*
X123724124Y-55260132D01*
X123724124Y-55260132D02*
X123647934Y-55222037D01*
X123647934Y-55222037D02*
X123609838Y-55183941D01*
X96566667Y-58662295D02*
X96300000Y-58281342D01*
X96109524Y-58662295D02*
X96109524Y-57862295D01*
X96109524Y-57862295D02*
X96414286Y-57862295D01*
X96414286Y-57862295D02*
X96490476Y-57900390D01*
X96490476Y-57900390D02*
X96528571Y-57938485D01*
X96528571Y-57938485D02*
X96566667Y-58014676D01*
X96566667Y-58014676D02*
X96566667Y-58128961D01*
X96566667Y-58128961D02*
X96528571Y-58205152D01*
X96528571Y-58205152D02*
X96490476Y-58243247D01*
X96490476Y-58243247D02*
X96414286Y-58281342D01*
X96414286Y-58281342D02*
X96109524Y-58281342D01*
X97023809Y-58205152D02*
X96947619Y-58167057D01*
X96947619Y-58167057D02*
X96909524Y-58128961D01*
X96909524Y-58128961D02*
X96871428Y-58052771D01*
X96871428Y-58052771D02*
X96871428Y-58014676D01*
X96871428Y-58014676D02*
X96909524Y-57938485D01*
X96909524Y-57938485D02*
X96947619Y-57900390D01*
X96947619Y-57900390D02*
X97023809Y-57862295D01*
X97023809Y-57862295D02*
X97176190Y-57862295D01*
X97176190Y-57862295D02*
X97252381Y-57900390D01*
X97252381Y-57900390D02*
X97290476Y-57938485D01*
X97290476Y-57938485D02*
X97328571Y-58014676D01*
X97328571Y-58014676D02*
X97328571Y-58052771D01*
X97328571Y-58052771D02*
X97290476Y-58128961D01*
X97290476Y-58128961D02*
X97252381Y-58167057D01*
X97252381Y-58167057D02*
X97176190Y-58205152D01*
X97176190Y-58205152D02*
X97023809Y-58205152D01*
X97023809Y-58205152D02*
X96947619Y-58243247D01*
X96947619Y-58243247D02*
X96909524Y-58281342D01*
X96909524Y-58281342D02*
X96871428Y-58357533D01*
X96871428Y-58357533D02*
X96871428Y-58509914D01*
X96871428Y-58509914D02*
X96909524Y-58586104D01*
X96909524Y-58586104D02*
X96947619Y-58624200D01*
X96947619Y-58624200D02*
X97023809Y-58662295D01*
X97023809Y-58662295D02*
X97176190Y-58662295D01*
X97176190Y-58662295D02*
X97252381Y-58624200D01*
X97252381Y-58624200D02*
X97290476Y-58586104D01*
X97290476Y-58586104D02*
X97328571Y-58509914D01*
X97328571Y-58509914D02*
X97328571Y-58357533D01*
X97328571Y-58357533D02*
X97290476Y-58281342D01*
X97290476Y-58281342D02*
X97252381Y-58243247D01*
X97252381Y-58243247D02*
X97176190Y-58205152D01*
X121166667Y-55260132D02*
X120900000Y-54879179D01*
X120709524Y-55260132D02*
X120709524Y-54460132D01*
X120709524Y-54460132D02*
X121014286Y-54460132D01*
X121014286Y-54460132D02*
X121090476Y-54498227D01*
X121090476Y-54498227D02*
X121128571Y-54536322D01*
X121128571Y-54536322D02*
X121166667Y-54612513D01*
X121166667Y-54612513D02*
X121166667Y-54726798D01*
X121166667Y-54726798D02*
X121128571Y-54802989D01*
X121128571Y-54802989D02*
X121090476Y-54841084D01*
X121090476Y-54841084D02*
X121014286Y-54879179D01*
X121014286Y-54879179D02*
X120709524Y-54879179D01*
X121852381Y-54726798D02*
X121852381Y-55260132D01*
X121661905Y-54422037D02*
X121471428Y-54993465D01*
X121471428Y-54993465D02*
X121966667Y-54993465D01*
X124809524Y-62762295D02*
X124809524Y-61962295D01*
X124809524Y-61962295D02*
X125000000Y-61962295D01*
X125000000Y-61962295D02*
X125114286Y-62000390D01*
X125114286Y-62000390D02*
X125190476Y-62076580D01*
X125190476Y-62076580D02*
X125228571Y-62152771D01*
X125228571Y-62152771D02*
X125266667Y-62305152D01*
X125266667Y-62305152D02*
X125266667Y-62419438D01*
X125266667Y-62419438D02*
X125228571Y-62571819D01*
X125228571Y-62571819D02*
X125190476Y-62648009D01*
X125190476Y-62648009D02*
X125114286Y-62724200D01*
X125114286Y-62724200D02*
X125000000Y-62762295D01*
X125000000Y-62762295D02*
X124809524Y-62762295D01*
X125571428Y-62038485D02*
X125609524Y-62000390D01*
X125609524Y-62000390D02*
X125685714Y-61962295D01*
X125685714Y-61962295D02*
X125876190Y-61962295D01*
X125876190Y-61962295D02*
X125952381Y-62000390D01*
X125952381Y-62000390D02*
X125990476Y-62038485D01*
X125990476Y-62038485D02*
X126028571Y-62114676D01*
X126028571Y-62114676D02*
X126028571Y-62190866D01*
X126028571Y-62190866D02*
X125990476Y-62305152D01*
X125990476Y-62305152D02*
X125533333Y-62762295D01*
X125533333Y-62762295D02*
X126028571Y-62762295D01*
X127805077Y-55260132D02*
X127538410Y-54879179D01*
X127347934Y-55260132D02*
X127347934Y-54460132D01*
X127347934Y-54460132D02*
X127652696Y-54460132D01*
X127652696Y-54460132D02*
X127728886Y-54498227D01*
X127728886Y-54498227D02*
X127766981Y-54536322D01*
X127766981Y-54536322D02*
X127805077Y-54612513D01*
X127805077Y-54612513D02*
X127805077Y-54726798D01*
X127805077Y-54726798D02*
X127766981Y-54802989D01*
X127766981Y-54802989D02*
X127728886Y-54841084D01*
X127728886Y-54841084D02*
X127652696Y-54879179D01*
X127652696Y-54879179D02*
X127347934Y-54879179D01*
X128490791Y-54460132D02*
X128338410Y-54460132D01*
X128338410Y-54460132D02*
X128262219Y-54498227D01*
X128262219Y-54498227D02*
X128224124Y-54536322D01*
X128224124Y-54536322D02*
X128147934Y-54650608D01*
X128147934Y-54650608D02*
X128109838Y-54802989D01*
X128109838Y-54802989D02*
X128109838Y-55107751D01*
X128109838Y-55107751D02*
X128147934Y-55183941D01*
X128147934Y-55183941D02*
X128186029Y-55222037D01*
X128186029Y-55222037D02*
X128262219Y-55260132D01*
X128262219Y-55260132D02*
X128414600Y-55260132D01*
X128414600Y-55260132D02*
X128490791Y-55222037D01*
X128490791Y-55222037D02*
X128528886Y-55183941D01*
X128528886Y-55183941D02*
X128566981Y-55107751D01*
X128566981Y-55107751D02*
X128566981Y-54917275D01*
X128566981Y-54917275D02*
X128528886Y-54841084D01*
X128528886Y-54841084D02*
X128490791Y-54802989D01*
X128490791Y-54802989D02*
X128414600Y-54764894D01*
X128414600Y-54764894D02*
X128262219Y-54764894D01*
X128262219Y-54764894D02*
X128186029Y-54802989D01*
X128186029Y-54802989D02*
X128147934Y-54841084D01*
X128147934Y-54841084D02*
X128109838Y-54917275D01*
X91138827Y-55153941D02*
X91100731Y-55192037D01*
X91100731Y-55192037D02*
X90986446Y-55230132D01*
X90986446Y-55230132D02*
X90910255Y-55230132D01*
X90910255Y-55230132D02*
X90795969Y-55192037D01*
X90795969Y-55192037D02*
X90719779Y-55115846D01*
X90719779Y-55115846D02*
X90681684Y-55039656D01*
X90681684Y-55039656D02*
X90643588Y-54887275D01*
X90643588Y-54887275D02*
X90643588Y-54772989D01*
X90643588Y-54772989D02*
X90681684Y-54620608D01*
X90681684Y-54620608D02*
X90719779Y-54544417D01*
X90719779Y-54544417D02*
X90795969Y-54468227D01*
X90795969Y-54468227D02*
X90910255Y-54430132D01*
X90910255Y-54430132D02*
X90986446Y-54430132D01*
X90986446Y-54430132D02*
X91100731Y-54468227D01*
X91100731Y-54468227D02*
X91138827Y-54506322D01*
X91900731Y-55230132D02*
X91443588Y-55230132D01*
X91672160Y-55230132D02*
X91672160Y-54430132D01*
X91672160Y-54430132D02*
X91595969Y-54544417D01*
X91595969Y-54544417D02*
X91519779Y-54620608D01*
X91519779Y-54620608D02*
X91443588Y-54658703D01*
X93162219Y-62836322D02*
X93086029Y-62798227D01*
X93086029Y-62798227D02*
X93009838Y-62722037D01*
X93009838Y-62722037D02*
X92895552Y-62607751D01*
X92895552Y-62607751D02*
X92819362Y-62569656D01*
X92819362Y-62569656D02*
X92743171Y-62569656D01*
X92781267Y-62760132D02*
X92705076Y-62722037D01*
X92705076Y-62722037D02*
X92628886Y-62645846D01*
X92628886Y-62645846D02*
X92590790Y-62493465D01*
X92590790Y-62493465D02*
X92590790Y-62226798D01*
X92590790Y-62226798D02*
X92628886Y-62074417D01*
X92628886Y-62074417D02*
X92705076Y-61998227D01*
X92705076Y-61998227D02*
X92781267Y-61960132D01*
X92781267Y-61960132D02*
X92933648Y-61960132D01*
X92933648Y-61960132D02*
X93009838Y-61998227D01*
X93009838Y-61998227D02*
X93086029Y-62074417D01*
X93086029Y-62074417D02*
X93124124Y-62226798D01*
X93124124Y-62226798D02*
X93124124Y-62493465D01*
X93124124Y-62493465D02*
X93086029Y-62645846D01*
X93086029Y-62645846D02*
X93009838Y-62722037D01*
X93009838Y-62722037D02*
X92933648Y-62760132D01*
X92933648Y-62760132D02*
X92781267Y-62760132D01*
X93886028Y-62760132D02*
X93428885Y-62760132D01*
X93657457Y-62760132D02*
X93657457Y-61960132D01*
X93657457Y-61960132D02*
X93581266Y-62074417D01*
X93581266Y-62074417D02*
X93505076Y-62150608D01*
X93505076Y-62150608D02*
X93428885Y-62188703D01*
X116783333Y-52414458D02*
X116783333Y-52985886D01*
X116783333Y-52985886D02*
X116745238Y-53100172D01*
X116745238Y-53100172D02*
X116669047Y-53176363D01*
X116669047Y-53176363D02*
X116554762Y-53214458D01*
X116554762Y-53214458D02*
X116478571Y-53214458D01*
X117583333Y-53214458D02*
X117126190Y-53214458D01*
X117354762Y-53214458D02*
X117354762Y-52414458D01*
X117354762Y-52414458D02*
X117278571Y-52528743D01*
X117278571Y-52528743D02*
X117202381Y-52604934D01*
X117202381Y-52604934D02*
X117126190Y-52643029D01*
X95571327Y-55153941D02*
X95533231Y-55192037D01*
X95533231Y-55192037D02*
X95418946Y-55230132D01*
X95418946Y-55230132D02*
X95342755Y-55230132D01*
X95342755Y-55230132D02*
X95228469Y-55192037D01*
X95228469Y-55192037D02*
X95152279Y-55115846D01*
X95152279Y-55115846D02*
X95114184Y-55039656D01*
X95114184Y-55039656D02*
X95076088Y-54887275D01*
X95076088Y-54887275D02*
X95076088Y-54772989D01*
X95076088Y-54772989D02*
X95114184Y-54620608D01*
X95114184Y-54620608D02*
X95152279Y-54544417D01*
X95152279Y-54544417D02*
X95228469Y-54468227D01*
X95228469Y-54468227D02*
X95342755Y-54430132D01*
X95342755Y-54430132D02*
X95418946Y-54430132D01*
X95418946Y-54430132D02*
X95533231Y-54468227D01*
X95533231Y-54468227D02*
X95571327Y-54506322D01*
X95876088Y-54506322D02*
X95914184Y-54468227D01*
X95914184Y-54468227D02*
X95990374Y-54430132D01*
X95990374Y-54430132D02*
X96180850Y-54430132D01*
X96180850Y-54430132D02*
X96257041Y-54468227D01*
X96257041Y-54468227D02*
X96295136Y-54506322D01*
X96295136Y-54506322D02*
X96333231Y-54582513D01*
X96333231Y-54582513D02*
X96333231Y-54658703D01*
X96333231Y-54658703D02*
X96295136Y-54772989D01*
X96295136Y-54772989D02*
X95837993Y-55230132D01*
X95837993Y-55230132D02*
X96333231Y-55230132D01*
X115314600Y-66836322D02*
X115238410Y-66798227D01*
X115238410Y-66798227D02*
X115162219Y-66722037D01*
X115162219Y-66722037D02*
X115047933Y-66607751D01*
X115047933Y-66607751D02*
X114971743Y-66569656D01*
X114971743Y-66569656D02*
X114895552Y-66569656D01*
X114933648Y-66760132D02*
X114857457Y-66722037D01*
X114857457Y-66722037D02*
X114781267Y-66645846D01*
X114781267Y-66645846D02*
X114743171Y-66493465D01*
X114743171Y-66493465D02*
X114743171Y-66226798D01*
X114743171Y-66226798D02*
X114781267Y-66074417D01*
X114781267Y-66074417D02*
X114857457Y-65998227D01*
X114857457Y-65998227D02*
X114933648Y-65960132D01*
X114933648Y-65960132D02*
X115086029Y-65960132D01*
X115086029Y-65960132D02*
X115162219Y-65998227D01*
X115162219Y-65998227D02*
X115238410Y-66074417D01*
X115238410Y-66074417D02*
X115276505Y-66226798D01*
X115276505Y-66226798D02*
X115276505Y-66493465D01*
X115276505Y-66493465D02*
X115238410Y-66645846D01*
X115238410Y-66645846D02*
X115162219Y-66722037D01*
X115162219Y-66722037D02*
X115086029Y-66760132D01*
X115086029Y-66760132D02*
X114933648Y-66760132D01*
X115619362Y-66760132D02*
X115619362Y-66226798D01*
X115619362Y-66379179D02*
X115657457Y-66302989D01*
X115657457Y-66302989D02*
X115695552Y-66264894D01*
X115695552Y-66264894D02*
X115771743Y-66226798D01*
X115771743Y-66226798D02*
X115847933Y-66226798D01*
X116076504Y-66036322D02*
X116114600Y-65998227D01*
X116114600Y-65998227D02*
X116190790Y-65960132D01*
X116190790Y-65960132D02*
X116381266Y-65960132D01*
X116381266Y-65960132D02*
X116457457Y-65998227D01*
X116457457Y-65998227D02*
X116495552Y-66036322D01*
X116495552Y-66036322D02*
X116533647Y-66112513D01*
X116533647Y-66112513D02*
X116533647Y-66188703D01*
X116533647Y-66188703D02*
X116495552Y-66302989D01*
X116495552Y-66302989D02*
X116038409Y-66760132D01*
X116038409Y-66760132D02*
X116533647Y-66760132D01*
X105140872Y-66836322D02*
X105064682Y-66798227D01*
X105064682Y-66798227D02*
X104988491Y-66722037D01*
X104988491Y-66722037D02*
X104874205Y-66607751D01*
X104874205Y-66607751D02*
X104798015Y-66569656D01*
X104798015Y-66569656D02*
X104721824Y-66569656D01*
X104759920Y-66760132D02*
X104683729Y-66722037D01*
X104683729Y-66722037D02*
X104607539Y-66645846D01*
X104607539Y-66645846D02*
X104569443Y-66493465D01*
X104569443Y-66493465D02*
X104569443Y-66226798D01*
X104569443Y-66226798D02*
X104607539Y-66074417D01*
X104607539Y-66074417D02*
X104683729Y-65998227D01*
X104683729Y-65998227D02*
X104759920Y-65960132D01*
X104759920Y-65960132D02*
X104912301Y-65960132D01*
X104912301Y-65960132D02*
X104988491Y-65998227D01*
X104988491Y-65998227D02*
X105064682Y-66074417D01*
X105064682Y-66074417D02*
X105102777Y-66226798D01*
X105102777Y-66226798D02*
X105102777Y-66493465D01*
X105102777Y-66493465D02*
X105064682Y-66645846D01*
X105064682Y-66645846D02*
X104988491Y-66722037D01*
X104988491Y-66722037D02*
X104912301Y-66760132D01*
X104912301Y-66760132D02*
X104759920Y-66760132D01*
X105559919Y-66760132D02*
X105483729Y-66722037D01*
X105483729Y-66722037D02*
X105445634Y-66645846D01*
X105445634Y-66645846D02*
X105445634Y-65960132D01*
X105826586Y-66036322D02*
X105864682Y-65998227D01*
X105864682Y-65998227D02*
X105940872Y-65960132D01*
X105940872Y-65960132D02*
X106131348Y-65960132D01*
X106131348Y-65960132D02*
X106207539Y-65998227D01*
X106207539Y-65998227D02*
X106245634Y-66036322D01*
X106245634Y-66036322D02*
X106283729Y-66112513D01*
X106283729Y-66112513D02*
X106283729Y-66188703D01*
X106283729Y-66188703D02*
X106245634Y-66302989D01*
X106245634Y-66302989D02*
X105788491Y-66760132D01*
X105788491Y-66760132D02*
X106283729Y-66760132D01*
X97871327Y-55230132D02*
X97604660Y-54849179D01*
X97414184Y-55230132D02*
X97414184Y-54430132D01*
X97414184Y-54430132D02*
X97718946Y-54430132D01*
X97718946Y-54430132D02*
X97795136Y-54468227D01*
X97795136Y-54468227D02*
X97833231Y-54506322D01*
X97833231Y-54506322D02*
X97871327Y-54582513D01*
X97871327Y-54582513D02*
X97871327Y-54696798D01*
X97871327Y-54696798D02*
X97833231Y-54772989D01*
X97833231Y-54772989D02*
X97795136Y-54811084D01*
X97795136Y-54811084D02*
X97718946Y-54849179D01*
X97718946Y-54849179D02*
X97414184Y-54849179D01*
X98176088Y-54506322D02*
X98214184Y-54468227D01*
X98214184Y-54468227D02*
X98290374Y-54430132D01*
X98290374Y-54430132D02*
X98480850Y-54430132D01*
X98480850Y-54430132D02*
X98557041Y-54468227D01*
X98557041Y-54468227D02*
X98595136Y-54506322D01*
X98595136Y-54506322D02*
X98633231Y-54582513D01*
X98633231Y-54582513D02*
X98633231Y-54658703D01*
X98633231Y-54658703D02*
X98595136Y-54772989D01*
X98595136Y-54772989D02*
X98137993Y-55230132D01*
X98137993Y-55230132D02*
X98633231Y-55230132D01*
X100105077Y-55230132D02*
X99838410Y-54849179D01*
X99647934Y-55230132D02*
X99647934Y-54430132D01*
X99647934Y-54430132D02*
X99952696Y-54430132D01*
X99952696Y-54430132D02*
X100028886Y-54468227D01*
X100028886Y-54468227D02*
X100066981Y-54506322D01*
X100066981Y-54506322D02*
X100105077Y-54582513D01*
X100105077Y-54582513D02*
X100105077Y-54696798D01*
X100105077Y-54696798D02*
X100066981Y-54772989D01*
X100066981Y-54772989D02*
X100028886Y-54811084D01*
X100028886Y-54811084D02*
X99952696Y-54849179D01*
X99952696Y-54849179D02*
X99647934Y-54849179D01*
X100371743Y-54430132D02*
X100866981Y-54430132D01*
X100866981Y-54430132D02*
X100600315Y-54734894D01*
X100600315Y-54734894D02*
X100714600Y-54734894D01*
X100714600Y-54734894D02*
X100790791Y-54772989D01*
X100790791Y-54772989D02*
X100828886Y-54811084D01*
X100828886Y-54811084D02*
X100866981Y-54887275D01*
X100866981Y-54887275D02*
X100866981Y-55077751D01*
X100866981Y-55077751D02*
X100828886Y-55153941D01*
X100828886Y-55153941D02*
X100790791Y-55192037D01*
X100790791Y-55192037D02*
X100714600Y-55230132D01*
X100714600Y-55230132D02*
X100486029Y-55230132D01*
X100486029Y-55230132D02*
X100409838Y-55192037D01*
X100409838Y-55192037D02*
X100371743Y-55153941D01*
X124966667Y-58562295D02*
X124700000Y-58181342D01*
X124509524Y-58562295D02*
X124509524Y-57762295D01*
X124509524Y-57762295D02*
X124814286Y-57762295D01*
X124814286Y-57762295D02*
X124890476Y-57800390D01*
X124890476Y-57800390D02*
X124928571Y-57838485D01*
X124928571Y-57838485D02*
X124966667Y-57914676D01*
X124966667Y-57914676D02*
X124966667Y-58028961D01*
X124966667Y-58028961D02*
X124928571Y-58105152D01*
X124928571Y-58105152D02*
X124890476Y-58143247D01*
X124890476Y-58143247D02*
X124814286Y-58181342D01*
X124814286Y-58181342D02*
X124509524Y-58181342D01*
X125347619Y-58562295D02*
X125500000Y-58562295D01*
X125500000Y-58562295D02*
X125576190Y-58524200D01*
X125576190Y-58524200D02*
X125614286Y-58486104D01*
X125614286Y-58486104D02*
X125690476Y-58371819D01*
X125690476Y-58371819D02*
X125728571Y-58219438D01*
X125728571Y-58219438D02*
X125728571Y-57914676D01*
X125728571Y-57914676D02*
X125690476Y-57838485D01*
X125690476Y-57838485D02*
X125652381Y-57800390D01*
X125652381Y-57800390D02*
X125576190Y-57762295D01*
X125576190Y-57762295D02*
X125423809Y-57762295D01*
X125423809Y-57762295D02*
X125347619Y-57800390D01*
X125347619Y-57800390D02*
X125309524Y-57838485D01*
X125309524Y-57838485D02*
X125271428Y-57914676D01*
X125271428Y-57914676D02*
X125271428Y-58105152D01*
X125271428Y-58105152D02*
X125309524Y-58181342D01*
X125309524Y-58181342D02*
X125347619Y-58219438D01*
X125347619Y-58219438D02*
X125423809Y-58257533D01*
X125423809Y-58257533D02*
X125576190Y-58257533D01*
X125576190Y-58257533D02*
X125652381Y-58219438D01*
X125652381Y-58219438D02*
X125690476Y-58181342D01*
X125690476Y-58181342D02*
X125728571Y-58105152D01*
D12*
G04 #@! TO.C,C3*
X124844135Y-52239499D02*
X124844135Y-52762003D01*
X126314135Y-52239499D02*
X126314135Y-52762003D01*
G04 #@! TO.C,Qr1*
X121050000Y-59430000D02*
X121050000Y-55830000D01*
X116600000Y-57630000D02*
G75*
G02*
X121038478Y-55791522I2600000J0D01*
G01*
X121038478Y-59468478D02*
G75*
G02*
X116599999Y-57630000I-1838478J1838478D01*
G01*
G04 #@! TO.C,R13*
X98811346Y-63662837D02*
X99265474Y-63662837D01*
X98811346Y-65132837D02*
X99265474Y-65132837D01*
G04 #@! TO.C,R12*
X130127064Y-55921460D02*
X129672936Y-55921460D01*
X130127064Y-57391460D02*
X129672936Y-57391460D01*
G04 #@! TO.C,R7*
X94065000Y-57327064D02*
X94065000Y-56872936D01*
X95535000Y-57327064D02*
X95535000Y-56872936D01*
G04 #@! TO.C,R11*
X91672936Y-55965000D02*
X92127064Y-55965000D01*
X91672936Y-57435000D02*
X92127064Y-57435000D01*
G04 #@! TO.C,J2*
X107778410Y-63140000D02*
X107778410Y-70960000D01*
X107778410Y-70960000D02*
X113898410Y-70960000D01*
X113898410Y-70960000D02*
X113898410Y-63140000D01*
G04 #@! TO.C,C4*
X129344135Y-52239499D02*
X129344135Y-52762003D01*
X130814135Y-52239499D02*
X130814135Y-52762003D01*
G04 #@! TO.C,D1*
X97320000Y-61257837D02*
X97320000Y-59797837D01*
X97320000Y-61257837D02*
X98250000Y-61257837D01*
X100480000Y-60457837D02*
X100480000Y-59657837D01*
X100480000Y-60457837D02*
X100480000Y-61257837D01*
X100480000Y-61257837D02*
X99550000Y-61257837D01*
X100840000Y-59397837D02*
X100510000Y-59157837D01*
X100840000Y-58917837D01*
X100840000Y-59397837D01*
G36*
X100840000Y-59397837D02*
G01*
X100510000Y-59157837D01*
X100840000Y-58917837D01*
X100840000Y-59397837D01*
G37*
G04 #@! TO.C,R1*
X92685832Y-52276371D02*
X92685832Y-52730499D01*
X94155832Y-52276371D02*
X94155832Y-52730499D01*
G04 #@! TO.C,R14*
X122872936Y-63665000D02*
X123327064Y-63665000D01*
X122872936Y-65135000D02*
X123327064Y-65135000D01*
G04 #@! TO.C,Ql1*
X105250000Y-59430000D02*
X105250000Y-55830000D01*
X100800000Y-57630000D02*
G75*
G02*
X105238478Y-55791522I2600000J0D01*
G01*
X105238478Y-59468478D02*
G75*
G02*
X100799999Y-57630000I-1838478J1838478D01*
G01*
G04 #@! TO.C,R10*
X126265000Y-57227064D02*
X126265000Y-56772936D01*
X127735000Y-57227064D02*
X127735000Y-56772936D01*
G04 #@! TO.C,Q2*
X126528410Y-59237837D02*
X127938410Y-59237837D01*
X126538410Y-61557837D02*
X127938410Y-61557837D01*
X126158410Y-59287837D02*
X125918410Y-58957837D01*
X126398410Y-58957837D01*
X126158410Y-59287837D01*
G36*
X126158410Y-59287837D02*
G01*
X125918410Y-58957837D01*
X126398410Y-58957837D01*
X126158410Y-59287837D01*
G37*
G04 #@! TO.C,R5*
X122644135Y-52303687D02*
X122644135Y-52757815D01*
X124114135Y-52303687D02*
X124114135Y-52757815D01*
G04 #@! TO.C,R8*
X97472936Y-55922837D02*
X97927064Y-55922837D01*
X97472936Y-57392837D02*
X97927064Y-57392837D01*
G04 #@! TO.C,R4*
X120403410Y-52757815D02*
X120403410Y-52303687D01*
X121873410Y-52757815D02*
X121873410Y-52303687D01*
G04 #@! TO.C,D2*
X121420000Y-59837837D02*
X122350000Y-59837837D01*
X121420000Y-60637837D02*
X121420000Y-59837837D01*
X121420000Y-60637837D02*
X121420000Y-61437837D01*
X124580000Y-59837837D02*
X123650000Y-59837837D01*
X124580000Y-59837837D02*
X124580000Y-61297837D01*
X121390000Y-61937837D02*
X121060000Y-62177837D01*
X121060000Y-61697837D01*
X121390000Y-61937837D01*
G36*
X121390000Y-61937837D02*
G01*
X121060000Y-62177837D01*
X121060000Y-61697837D01*
X121390000Y-61937837D01*
G37*
G04 #@! TO.C,R6*
X127144135Y-52303687D02*
X127144135Y-52757815D01*
X128614135Y-52303687D02*
X128614135Y-52757815D01*
G04 #@! TO.C,C1*
X90485832Y-52272183D02*
X90485832Y-52794687D01*
X91955832Y-52272183D02*
X91955832Y-52794687D01*
G04 #@! TO.C,Q1*
X93928410Y-59237837D02*
X95338410Y-59237837D01*
X93938410Y-61557837D02*
X95338410Y-61557837D01*
X93558410Y-59287837D02*
X93318410Y-58957837D01*
X93798410Y-58957837D01*
X93558410Y-59287837D01*
G36*
X93558410Y-59287837D02*
G01*
X93318410Y-58957837D01*
X93798410Y-58957837D01*
X93558410Y-59287837D01*
G37*
G04 #@! TO.C,J1*
X105873509Y-47140000D02*
X105873509Y-54960000D01*
X115993509Y-47140000D02*
X105873509Y-47140000D01*
X115993509Y-54960000D02*
X115993509Y-47140000D01*
G04 #@! TO.C,C2*
X94952082Y-52272183D02*
X94952082Y-52794687D01*
X96422082Y-52272183D02*
X96422082Y-52794687D01*
G04 #@! TO.C,Qr2*
X116523958Y-61976368D02*
X116523958Y-65576368D01*
X116535480Y-61937890D02*
G75*
G02*
X120973959Y-63776368I1838478J-1838478D01*
G01*
X120973958Y-63776368D02*
G75*
G02*
X116535480Y-65614846I-2600000J0D01*
G01*
G04 #@! TO.C,Ql2*
X101050537Y-61895426D02*
X101050537Y-65495426D01*
X101062059Y-61856948D02*
G75*
G02*
X105500538Y-63695426I1838478J-1838478D01*
G01*
X105500537Y-63695426D02*
G75*
G02*
X101062059Y-65533904I-2600000J0D01*
G01*
G04 #@! TO.C,R2*
X97152082Y-52276371D02*
X97152082Y-52730499D01*
X98622082Y-52276371D02*
X98622082Y-52730499D01*
G04 #@! TO.C,R3*
X99503410Y-52760499D02*
X99503410Y-52306371D01*
X100973410Y-52760499D02*
X100973410Y-52306371D01*
G04 #@! TO.C,R9*
X123863101Y-55921460D02*
X124317229Y-55921460D01*
X123863101Y-57391460D02*
X124317229Y-57391460D01*
G04 #@! TD*
%LPC*%
D13*
G04 #@! TO.C,C3*
X125579135Y-51463251D03*
X125579135Y-53538251D03*
G04 #@! TD*
D14*
G04 #@! TO.C,Qr1*
X119200000Y-58900000D03*
D15*
X119200000Y-57630000D03*
X119200000Y-56360000D03*
G04 #@! TD*
D16*
G04 #@! TO.C,R13*
X98038410Y-64397837D03*
X100038410Y-64397837D03*
G04 #@! TD*
D17*
G04 #@! TO.C,R12*
X130900000Y-56656460D03*
X128900000Y-56656460D03*
G04 #@! TD*
D18*
G04 #@! TO.C,R7*
X94800000Y-58100000D03*
X94800000Y-56100000D03*
G04 #@! TD*
D16*
G04 #@! TO.C,R11*
X90900000Y-56700000D03*
X92900000Y-56700000D03*
G04 #@! TD*
D19*
G04 #@! TO.C,J2*
X109838410Y-64600000D03*
D20*
X111838410Y-64600000D03*
G04 #@! TD*
D13*
G04 #@! TO.C,C4*
X130079135Y-51463251D03*
X130079135Y-53538251D03*
G04 #@! TD*
D21*
G04 #@! TO.C,D1*
X99850000Y-58997837D03*
X97950000Y-58997837D03*
X98900000Y-61997837D03*
G04 #@! TD*
D22*
G04 #@! TO.C,R1*
X93420832Y-51503435D03*
X93420832Y-53503435D03*
G04 #@! TD*
D23*
G04 #@! TO.C,H1*
X91900000Y-65100000D03*
D24*
X91900000Y-65100000D03*
G04 #@! TD*
D16*
G04 #@! TO.C,R14*
X122100000Y-64400000D03*
X124100000Y-64400000D03*
G04 #@! TD*
D14*
G04 #@! TO.C,Ql1*
X103400000Y-58900000D03*
D15*
X103400000Y-57630000D03*
X103400000Y-56360000D03*
G04 #@! TD*
D23*
G04 #@! TO.C,H2*
X129900000Y-65100000D03*
D24*
X129900000Y-65100000D03*
G04 #@! TD*
D18*
G04 #@! TO.C,R10*
X127000000Y-58000000D03*
X127000000Y-56000000D03*
G04 #@! TD*
D25*
G04 #@! TO.C,Q2*
X125908410Y-59747837D03*
X125908410Y-60397837D03*
X125908410Y-61047837D03*
X128568410Y-61047837D03*
X128568410Y-60397837D03*
X128568410Y-59747837D03*
G04 #@! TD*
D22*
G04 #@! TO.C,R5*
X123379135Y-51530751D03*
X123379135Y-53530751D03*
G04 #@! TD*
D16*
G04 #@! TO.C,R8*
X96700000Y-56657837D03*
X98700000Y-56657837D03*
G04 #@! TD*
D18*
G04 #@! TO.C,R4*
X121138410Y-53530751D03*
X121138410Y-51530751D03*
G04 #@! TD*
D26*
G04 #@! TO.C,D2*
X122050000Y-62097837D03*
X123950000Y-62097837D03*
X123000000Y-59097837D03*
G04 #@! TD*
D22*
G04 #@! TO.C,R6*
X127879135Y-51530751D03*
X127879135Y-53530751D03*
G04 #@! TD*
D13*
G04 #@! TO.C,C1*
X91220832Y-51495935D03*
X91220832Y-53570935D03*
G04 #@! TD*
D25*
G04 #@! TO.C,Q1*
X93308410Y-59747837D03*
X93308410Y-60397837D03*
X93308410Y-61047837D03*
X95968410Y-61047837D03*
X95968410Y-60397837D03*
X95968410Y-59747837D03*
G04 #@! TD*
D27*
G04 #@! TO.C,J1*
X113933509Y-53500000D03*
D20*
X111933509Y-53500000D03*
X109933509Y-53500000D03*
X107933509Y-53500000D03*
G04 #@! TD*
D13*
G04 #@! TO.C,C2*
X95687082Y-51495935D03*
X95687082Y-53570935D03*
G04 #@! TD*
D14*
G04 #@! TO.C,Qr2*
X118373958Y-62506368D03*
D15*
X118373958Y-63776368D03*
X118373958Y-65046368D03*
G04 #@! TD*
D14*
G04 #@! TO.C,Ql2*
X102900537Y-62425426D03*
D15*
X102900537Y-63695426D03*
X102900537Y-64965426D03*
G04 #@! TD*
D22*
G04 #@! TO.C,R2*
X97887082Y-51503435D03*
X97887082Y-53503435D03*
G04 #@! TD*
D18*
G04 #@! TO.C,R3*
X100238410Y-53533435D03*
X100238410Y-51533435D03*
G04 #@! TD*
D16*
G04 #@! TO.C,R9*
X123090165Y-56656460D03*
X125090165Y-56656460D03*
G04 #@! TD*
%LPD*%
M02*
