M48
; DRILL file {KiCad 9.0.4} date 2025-09-07T15:09:32+0200
; FORMAT={-:-/ absolute / metric / decimal}
; #@! TF.CreationDate,2025-09-07T15:09:32+02:00
; #@! TF.GenerationSoftware,Kicad,Pcbnew,9.0.4
; #@! TF.FileFunction,Plated,1,2,PTH
FMAT,2
METRIC
; #@! TA.AperFunction,Plated,PTH,ViaDrill
T1C0.300
; #@! TA.AperFunction,Plated,PTH,ComponentDrill
T2C0.750
; #@! TA.AperFunction,Plated,PTH,ComponentDrill
T3C2.200
%
G90
G05
T1
X94.703Y-60.398
X96.1Y-62.5
X96.1Y-63.3
X96.9Y-63.3
X97.838Y-65.931
X97.838Y-66.665
X97.838Y-67.398
X99.192Y-63.317
X101.238Y-66.65
X101.238Y-67.4
X101.8Y-52.15
X101.8Y-53.05
X101.8Y-53.95
X102.7Y-52.15
X118.9Y-52.15
X119.8Y-52.15
X119.8Y-53.05
X119.8Y-53.95
X120.6Y-66.65
X120.6Y-67.4
X123.0Y-63.3
X124.1Y-65.931
X124.1Y-66.665
X124.1Y-67.398
X125.7Y-63.2
X126.5Y-62.4
X126.5Y-63.2
X127.238Y-60.398
T2
X102.901Y-62.425
X102.901Y-63.695
X102.901Y-64.965
X103.4Y-56.36
X103.4Y-57.63
X103.4Y-58.9
X107.934Y-53.5
X109.838Y-64.6
X109.934Y-53.5
X111.838Y-64.6
X111.934Y-53.5
X113.934Y-53.5
X118.374Y-62.506
X118.374Y-63.776
X118.374Y-65.046
X119.2Y-56.36
X119.2Y-57.63
X119.2Y-58.9
T3
X91.9Y-65.1
X129.9Y-65.1
M30
