G04 #@! TF.GenerationSoftware,KiCad,Pcbnew,9.0.4*
G04 #@! TF.CreationDate,2025-08-24T20:57:09+02:00*
G04 #@! TF.ProjectId,npn-pnp-h-bridge,6e706e2d-706e-4702-9d68-2d6272696467,rev?*
G04 #@! TF.SameCoordinates,Original*
G04 #@! TF.FileFunction,Legend,Top*
G04 #@! TF.FilePolarity,Positive*
%FSLAX46Y46*%
G04 Gerber Fmt 4.6, Leading zero omitted, Abs format (unit mm)*
G04 Created by KiCad (PCBNEW 9.0.4) date 2025-08-24 20:57:09*
%MOMM*%
%LPD*%
G01*
G04 APERTURE LIST*
G04 Aperture macros list*
%AMRoundRect*
0 Rectangle with rounded corners*
0 $1 Rounding radius*
0 $2 $3 $4 $5 $6 $7 $8 $9 X,Y pos of 4 corners*
0 Add a 4 corners polygon primitive as box body*
4,1,4,$2,$3,$4,$5,$6,$7,$8,$9,$2,$3,0*
0 Add four circle primitives for the rounded corners*
1,1,$1+$1,$2,$3*
1,1,$1+$1,$4,$5*
1,1,$1+$1,$6,$7*
1,1,$1+$1,$8,$9*
0 Add four rect primitives between the rounded corners*
20,1,$1+$1,$2,$3,$4,$5,0*
20,1,$1+$1,$4,$5,$6,$7,0*
20,1,$1+$1,$6,$7,$8,$9,0*
20,1,$1+$1,$8,$9,$2,$3,0*%
G04 Aperture macros list end*
%ADD10C,0.150000*%
%ADD11C,0.120000*%
%ADD12C,0.100000*%
%ADD13C,0.152400*%
%ADD14RoundRect,0.250000X-0.475000X0.337500X-0.475000X-0.337500X0.475000X-0.337500X0.475000X0.337500X0*%
%ADD15RoundRect,0.250000X-0.350000X-0.450000X0.350000X-0.450000X0.350000X0.450000X-0.350000X0.450000X0*%
%ADD16RoundRect,0.250000X0.450000X-0.350000X0.450000X0.350000X-0.450000X0.350000X-0.450000X-0.350000X0*%
%ADD17RoundRect,0.250000X0.350000X0.450000X-0.350000X0.450000X-0.350000X-0.450000X0.350000X-0.450000X0*%
%ADD18C,1.300000*%
%ADD19R,1.300000X1.300000*%
%ADD20RoundRect,0.200000X-0.200000X0.750000X-0.200000X-0.750000X0.200000X-0.750000X0.200000X0.750000X0*%
%ADD21RoundRect,0.250000X-0.450000X0.350000X-0.450000X-0.350000X0.450000X-0.350000X0.450000X0.350000X0*%
%ADD22RoundRect,0.100000X-0.650000X-0.100000X0.650000X-0.100000X0.650000X0.100000X-0.650000X0.100000X0*%
%ADD23C,4.400000*%
%ADD24C,2.600000*%
%ADD25C,1.270000*%
%ADD26R,1.500000X1.050000*%
%ADD27O,1.500000X1.050000*%
%ADD28C,2.148000*%
G04 APERTURE END LIST*
D10*
X185366667Y-94186104D02*
X185328571Y-94224200D01*
X185328571Y-94224200D02*
X185214286Y-94262295D01*
X185214286Y-94262295D02*
X185138095Y-94262295D01*
X185138095Y-94262295D02*
X185023809Y-94224200D01*
X185023809Y-94224200D02*
X184947619Y-94148009D01*
X184947619Y-94148009D02*
X184909524Y-94071819D01*
X184909524Y-94071819D02*
X184871428Y-93919438D01*
X184871428Y-93919438D02*
X184871428Y-93805152D01*
X184871428Y-93805152D02*
X184909524Y-93652771D01*
X184909524Y-93652771D02*
X184947619Y-93576580D01*
X184947619Y-93576580D02*
X185023809Y-93500390D01*
X185023809Y-93500390D02*
X185138095Y-93462295D01*
X185138095Y-93462295D02*
X185214286Y-93462295D01*
X185214286Y-93462295D02*
X185328571Y-93500390D01*
X185328571Y-93500390D02*
X185366667Y-93538485D01*
X185633333Y-93462295D02*
X186128571Y-93462295D01*
X186128571Y-93462295D02*
X185861905Y-93767057D01*
X185861905Y-93767057D02*
X185976190Y-93767057D01*
X185976190Y-93767057D02*
X186052381Y-93805152D01*
X186052381Y-93805152D02*
X186090476Y-93843247D01*
X186090476Y-93843247D02*
X186128571Y-93919438D01*
X186128571Y-93919438D02*
X186128571Y-94109914D01*
X186128571Y-94109914D02*
X186090476Y-94186104D01*
X186090476Y-94186104D02*
X186052381Y-94224200D01*
X186052381Y-94224200D02*
X185976190Y-94262295D01*
X185976190Y-94262295D02*
X185747619Y-94262295D01*
X185747619Y-94262295D02*
X185671428Y-94224200D01*
X185671428Y-94224200D02*
X185633333Y-94186104D01*
X159085714Y-105362295D02*
X158819047Y-104981342D01*
X158628571Y-105362295D02*
X158628571Y-104562295D01*
X158628571Y-104562295D02*
X158933333Y-104562295D01*
X158933333Y-104562295D02*
X159009523Y-104600390D01*
X159009523Y-104600390D02*
X159047618Y-104638485D01*
X159047618Y-104638485D02*
X159085714Y-104714676D01*
X159085714Y-104714676D02*
X159085714Y-104828961D01*
X159085714Y-104828961D02*
X159047618Y-104905152D01*
X159047618Y-104905152D02*
X159009523Y-104943247D01*
X159009523Y-104943247D02*
X158933333Y-104981342D01*
X158933333Y-104981342D02*
X158628571Y-104981342D01*
X159847618Y-105362295D02*
X159390475Y-105362295D01*
X159619047Y-105362295D02*
X159619047Y-104562295D01*
X159619047Y-104562295D02*
X159542856Y-104676580D01*
X159542856Y-104676580D02*
X159466666Y-104752771D01*
X159466666Y-104752771D02*
X159390475Y-104790866D01*
X160114285Y-104562295D02*
X160609523Y-104562295D01*
X160609523Y-104562295D02*
X160342857Y-104867057D01*
X160342857Y-104867057D02*
X160457142Y-104867057D01*
X160457142Y-104867057D02*
X160533333Y-104905152D01*
X160533333Y-104905152D02*
X160571428Y-104943247D01*
X160571428Y-104943247D02*
X160609523Y-105019438D01*
X160609523Y-105019438D02*
X160609523Y-105209914D01*
X160609523Y-105209914D02*
X160571428Y-105286104D01*
X160571428Y-105286104D02*
X160533333Y-105324200D01*
X160533333Y-105324200D02*
X160457142Y-105362295D01*
X160457142Y-105362295D02*
X160228571Y-105362295D01*
X160228571Y-105362295D02*
X160152380Y-105324200D01*
X160152380Y-105324200D02*
X160114285Y-105286104D01*
X190485714Y-99462295D02*
X190219047Y-99081342D01*
X190028571Y-99462295D02*
X190028571Y-98662295D01*
X190028571Y-98662295D02*
X190333333Y-98662295D01*
X190333333Y-98662295D02*
X190409523Y-98700390D01*
X190409523Y-98700390D02*
X190447618Y-98738485D01*
X190447618Y-98738485D02*
X190485714Y-98814676D01*
X190485714Y-98814676D02*
X190485714Y-98928961D01*
X190485714Y-98928961D02*
X190447618Y-99005152D01*
X190447618Y-99005152D02*
X190409523Y-99043247D01*
X190409523Y-99043247D02*
X190333333Y-99081342D01*
X190333333Y-99081342D02*
X190028571Y-99081342D01*
X191247618Y-99462295D02*
X190790475Y-99462295D01*
X191019047Y-99462295D02*
X191019047Y-98662295D01*
X191019047Y-98662295D02*
X190942856Y-98776580D01*
X190942856Y-98776580D02*
X190866666Y-98852771D01*
X190866666Y-98852771D02*
X190790475Y-98890866D01*
X191552380Y-98738485D02*
X191590476Y-98700390D01*
X191590476Y-98700390D02*
X191666666Y-98662295D01*
X191666666Y-98662295D02*
X191857142Y-98662295D01*
X191857142Y-98662295D02*
X191933333Y-98700390D01*
X191933333Y-98700390D02*
X191971428Y-98738485D01*
X191971428Y-98738485D02*
X192009523Y-98814676D01*
X192009523Y-98814676D02*
X192009523Y-98890866D01*
X192009523Y-98890866D02*
X191971428Y-99005152D01*
X191971428Y-99005152D02*
X191514285Y-99462295D01*
X191514285Y-99462295D02*
X192009523Y-99462295D01*
X160066667Y-95562295D02*
X159800000Y-95181342D01*
X159609524Y-95562295D02*
X159609524Y-94762295D01*
X159609524Y-94762295D02*
X159914286Y-94762295D01*
X159914286Y-94762295D02*
X159990476Y-94800390D01*
X159990476Y-94800390D02*
X160028571Y-94838485D01*
X160028571Y-94838485D02*
X160066667Y-94914676D01*
X160066667Y-94914676D02*
X160066667Y-95028961D01*
X160066667Y-95028961D02*
X160028571Y-95105152D01*
X160028571Y-95105152D02*
X159990476Y-95143247D01*
X159990476Y-95143247D02*
X159914286Y-95181342D01*
X159914286Y-95181342D02*
X159609524Y-95181342D01*
X160523809Y-95105152D02*
X160447619Y-95067057D01*
X160447619Y-95067057D02*
X160409524Y-95028961D01*
X160409524Y-95028961D02*
X160371428Y-94952771D01*
X160371428Y-94952771D02*
X160371428Y-94914676D01*
X160371428Y-94914676D02*
X160409524Y-94838485D01*
X160409524Y-94838485D02*
X160447619Y-94800390D01*
X160447619Y-94800390D02*
X160523809Y-94762295D01*
X160523809Y-94762295D02*
X160676190Y-94762295D01*
X160676190Y-94762295D02*
X160752381Y-94800390D01*
X160752381Y-94800390D02*
X160790476Y-94838485D01*
X160790476Y-94838485D02*
X160828571Y-94914676D01*
X160828571Y-94914676D02*
X160828571Y-94952771D01*
X160828571Y-94952771D02*
X160790476Y-95028961D01*
X160790476Y-95028961D02*
X160752381Y-95067057D01*
X160752381Y-95067057D02*
X160676190Y-95105152D01*
X160676190Y-95105152D02*
X160523809Y-95105152D01*
X160523809Y-95105152D02*
X160447619Y-95143247D01*
X160447619Y-95143247D02*
X160409524Y-95181342D01*
X160409524Y-95181342D02*
X160371428Y-95257533D01*
X160371428Y-95257533D02*
X160371428Y-95409914D01*
X160371428Y-95409914D02*
X160409524Y-95486104D01*
X160409524Y-95486104D02*
X160447619Y-95524200D01*
X160447619Y-95524200D02*
X160523809Y-95562295D01*
X160523809Y-95562295D02*
X160676190Y-95562295D01*
X160676190Y-95562295D02*
X160752381Y-95524200D01*
X160752381Y-95524200D02*
X160790476Y-95486104D01*
X160790476Y-95486104D02*
X160828571Y-95409914D01*
X160828571Y-95409914D02*
X160828571Y-95257533D01*
X160828571Y-95257533D02*
X160790476Y-95181342D01*
X160790476Y-95181342D02*
X160752381Y-95143247D01*
X160752381Y-95143247D02*
X160676190Y-95105152D01*
X154866667Y-97762295D02*
X154600000Y-97381342D01*
X154409524Y-97762295D02*
X154409524Y-96962295D01*
X154409524Y-96962295D02*
X154714286Y-96962295D01*
X154714286Y-96962295D02*
X154790476Y-97000390D01*
X154790476Y-97000390D02*
X154828571Y-97038485D01*
X154828571Y-97038485D02*
X154866667Y-97114676D01*
X154866667Y-97114676D02*
X154866667Y-97228961D01*
X154866667Y-97228961D02*
X154828571Y-97305152D01*
X154828571Y-97305152D02*
X154790476Y-97343247D01*
X154790476Y-97343247D02*
X154714286Y-97381342D01*
X154714286Y-97381342D02*
X154409524Y-97381342D01*
X155133333Y-96962295D02*
X155666667Y-96962295D01*
X155666667Y-96962295D02*
X155323809Y-97762295D01*
X150085714Y-99562295D02*
X149819047Y-99181342D01*
X149628571Y-99562295D02*
X149628571Y-98762295D01*
X149628571Y-98762295D02*
X149933333Y-98762295D01*
X149933333Y-98762295D02*
X150009523Y-98800390D01*
X150009523Y-98800390D02*
X150047618Y-98838485D01*
X150047618Y-98838485D02*
X150085714Y-98914676D01*
X150085714Y-98914676D02*
X150085714Y-99028961D01*
X150085714Y-99028961D02*
X150047618Y-99105152D01*
X150047618Y-99105152D02*
X150009523Y-99143247D01*
X150009523Y-99143247D02*
X149933333Y-99181342D01*
X149933333Y-99181342D02*
X149628571Y-99181342D01*
X150847618Y-99562295D02*
X150390475Y-99562295D01*
X150619047Y-99562295D02*
X150619047Y-98762295D01*
X150619047Y-98762295D02*
X150542856Y-98876580D01*
X150542856Y-98876580D02*
X150466666Y-98952771D01*
X150466666Y-98952771D02*
X150390475Y-98990866D01*
X151609523Y-99562295D02*
X151152380Y-99562295D01*
X151380952Y-99562295D02*
X151380952Y-98762295D01*
X151380952Y-98762295D02*
X151304761Y-98876580D01*
X151304761Y-98876580D02*
X151228571Y-98952771D01*
X151228571Y-98952771D02*
X151152380Y-98990866D01*
X172933333Y-98562295D02*
X172933333Y-99133723D01*
X172933333Y-99133723D02*
X172895238Y-99248009D01*
X172895238Y-99248009D02*
X172819047Y-99324200D01*
X172819047Y-99324200D02*
X172704762Y-99362295D01*
X172704762Y-99362295D02*
X172628571Y-99362295D01*
X173276190Y-98638485D02*
X173314286Y-98600390D01*
X173314286Y-98600390D02*
X173390476Y-98562295D01*
X173390476Y-98562295D02*
X173580952Y-98562295D01*
X173580952Y-98562295D02*
X173657143Y-98600390D01*
X173657143Y-98600390D02*
X173695238Y-98638485D01*
X173695238Y-98638485D02*
X173733333Y-98714676D01*
X173733333Y-98714676D02*
X173733333Y-98790866D01*
X173733333Y-98790866D02*
X173695238Y-98905152D01*
X173695238Y-98905152D02*
X173238095Y-99362295D01*
X173238095Y-99362295D02*
X173733333Y-99362295D01*
X189966667Y-94186104D02*
X189928571Y-94224200D01*
X189928571Y-94224200D02*
X189814286Y-94262295D01*
X189814286Y-94262295D02*
X189738095Y-94262295D01*
X189738095Y-94262295D02*
X189623809Y-94224200D01*
X189623809Y-94224200D02*
X189547619Y-94148009D01*
X189547619Y-94148009D02*
X189509524Y-94071819D01*
X189509524Y-94071819D02*
X189471428Y-93919438D01*
X189471428Y-93919438D02*
X189471428Y-93805152D01*
X189471428Y-93805152D02*
X189509524Y-93652771D01*
X189509524Y-93652771D02*
X189547619Y-93576580D01*
X189547619Y-93576580D02*
X189623809Y-93500390D01*
X189623809Y-93500390D02*
X189738095Y-93462295D01*
X189738095Y-93462295D02*
X189814286Y-93462295D01*
X189814286Y-93462295D02*
X189928571Y-93500390D01*
X189928571Y-93500390D02*
X189966667Y-93538485D01*
X190652381Y-93728961D02*
X190652381Y-94262295D01*
X190461905Y-93424200D02*
X190271428Y-93995628D01*
X190271428Y-93995628D02*
X190766667Y-93995628D01*
X157209524Y-101562295D02*
X157209524Y-100762295D01*
X157209524Y-100762295D02*
X157400000Y-100762295D01*
X157400000Y-100762295D02*
X157514286Y-100800390D01*
X157514286Y-100800390D02*
X157590476Y-100876580D01*
X157590476Y-100876580D02*
X157628571Y-100952771D01*
X157628571Y-100952771D02*
X157666667Y-101105152D01*
X157666667Y-101105152D02*
X157666667Y-101219438D01*
X157666667Y-101219438D02*
X157628571Y-101371819D01*
X157628571Y-101371819D02*
X157590476Y-101448009D01*
X157590476Y-101448009D02*
X157514286Y-101524200D01*
X157514286Y-101524200D02*
X157400000Y-101562295D01*
X157400000Y-101562295D02*
X157209524Y-101562295D01*
X158428571Y-101562295D02*
X157971428Y-101562295D01*
X158200000Y-101562295D02*
X158200000Y-100762295D01*
X158200000Y-100762295D02*
X158123809Y-100876580D01*
X158123809Y-100876580D02*
X158047619Y-100952771D01*
X158047619Y-100952771D02*
X157971428Y-100990866D01*
X153200417Y-94232295D02*
X152933750Y-93851342D01*
X152743274Y-94232295D02*
X152743274Y-93432295D01*
X152743274Y-93432295D02*
X153048036Y-93432295D01*
X153048036Y-93432295D02*
X153124226Y-93470390D01*
X153124226Y-93470390D02*
X153162321Y-93508485D01*
X153162321Y-93508485D02*
X153200417Y-93584676D01*
X153200417Y-93584676D02*
X153200417Y-93698961D01*
X153200417Y-93698961D02*
X153162321Y-93775152D01*
X153162321Y-93775152D02*
X153124226Y-93813247D01*
X153124226Y-93813247D02*
X153048036Y-93851342D01*
X153048036Y-93851342D02*
X152743274Y-93851342D01*
X153962321Y-94232295D02*
X153505178Y-94232295D01*
X153733750Y-94232295D02*
X153733750Y-93432295D01*
X153733750Y-93432295D02*
X153657559Y-93546580D01*
X153657559Y-93546580D02*
X153581369Y-93622771D01*
X153581369Y-93622771D02*
X153505178Y-93660866D01*
X183685714Y-105362295D02*
X183419047Y-104981342D01*
X183228571Y-105362295D02*
X183228571Y-104562295D01*
X183228571Y-104562295D02*
X183533333Y-104562295D01*
X183533333Y-104562295D02*
X183609523Y-104600390D01*
X183609523Y-104600390D02*
X183647618Y-104638485D01*
X183647618Y-104638485D02*
X183685714Y-104714676D01*
X183685714Y-104714676D02*
X183685714Y-104828961D01*
X183685714Y-104828961D02*
X183647618Y-104905152D01*
X183647618Y-104905152D02*
X183609523Y-104943247D01*
X183609523Y-104943247D02*
X183533333Y-104981342D01*
X183533333Y-104981342D02*
X183228571Y-104981342D01*
X184447618Y-105362295D02*
X183990475Y-105362295D01*
X184219047Y-105362295D02*
X184219047Y-104562295D01*
X184219047Y-104562295D02*
X184142856Y-104676580D01*
X184142856Y-104676580D02*
X184066666Y-104752771D01*
X184066666Y-104752771D02*
X183990475Y-104790866D01*
X185133333Y-104828961D02*
X185133333Y-105362295D01*
X184942857Y-104524200D02*
X184752380Y-105095628D01*
X184752380Y-105095628D02*
X185247619Y-105095628D01*
X187685714Y-97562295D02*
X187419047Y-97181342D01*
X187228571Y-97562295D02*
X187228571Y-96762295D01*
X187228571Y-96762295D02*
X187533333Y-96762295D01*
X187533333Y-96762295D02*
X187609523Y-96800390D01*
X187609523Y-96800390D02*
X187647618Y-96838485D01*
X187647618Y-96838485D02*
X187685714Y-96914676D01*
X187685714Y-96914676D02*
X187685714Y-97028961D01*
X187685714Y-97028961D02*
X187647618Y-97105152D01*
X187647618Y-97105152D02*
X187609523Y-97143247D01*
X187609523Y-97143247D02*
X187533333Y-97181342D01*
X187533333Y-97181342D02*
X187228571Y-97181342D01*
X188447618Y-97562295D02*
X187990475Y-97562295D01*
X188219047Y-97562295D02*
X188219047Y-96762295D01*
X188219047Y-96762295D02*
X188142856Y-96876580D01*
X188142856Y-96876580D02*
X188066666Y-96952771D01*
X188066666Y-96952771D02*
X187990475Y-96990866D01*
X188942857Y-96762295D02*
X189019047Y-96762295D01*
X189019047Y-96762295D02*
X189095238Y-96800390D01*
X189095238Y-96800390D02*
X189133333Y-96838485D01*
X189133333Y-96838485D02*
X189171428Y-96914676D01*
X189171428Y-96914676D02*
X189209523Y-97067057D01*
X189209523Y-97067057D02*
X189209523Y-97257533D01*
X189209523Y-97257533D02*
X189171428Y-97409914D01*
X189171428Y-97409914D02*
X189133333Y-97486104D01*
X189133333Y-97486104D02*
X189095238Y-97524200D01*
X189095238Y-97524200D02*
X189019047Y-97562295D01*
X189019047Y-97562295D02*
X188942857Y-97562295D01*
X188942857Y-97562295D02*
X188866666Y-97524200D01*
X188866666Y-97524200D02*
X188828571Y-97486104D01*
X188828571Y-97486104D02*
X188790476Y-97409914D01*
X188790476Y-97409914D02*
X188752380Y-97257533D01*
X188752380Y-97257533D02*
X188752380Y-97067057D01*
X188752380Y-97067057D02*
X188790476Y-96914676D01*
X188790476Y-96914676D02*
X188828571Y-96838485D01*
X188828571Y-96838485D02*
X188866666Y-96800390D01*
X188866666Y-96800390D02*
X188942857Y-96762295D01*
X188523809Y-101838485D02*
X188447619Y-101800390D01*
X188447619Y-101800390D02*
X188371428Y-101724200D01*
X188371428Y-101724200D02*
X188257142Y-101609914D01*
X188257142Y-101609914D02*
X188180952Y-101571819D01*
X188180952Y-101571819D02*
X188104761Y-101571819D01*
X188142857Y-101762295D02*
X188066666Y-101724200D01*
X188066666Y-101724200D02*
X187990476Y-101648009D01*
X187990476Y-101648009D02*
X187952380Y-101495628D01*
X187952380Y-101495628D02*
X187952380Y-101228961D01*
X187952380Y-101228961D02*
X187990476Y-101076580D01*
X187990476Y-101076580D02*
X188066666Y-101000390D01*
X188066666Y-101000390D02*
X188142857Y-100962295D01*
X188142857Y-100962295D02*
X188295238Y-100962295D01*
X188295238Y-100962295D02*
X188371428Y-101000390D01*
X188371428Y-101000390D02*
X188447619Y-101076580D01*
X188447619Y-101076580D02*
X188485714Y-101228961D01*
X188485714Y-101228961D02*
X188485714Y-101495628D01*
X188485714Y-101495628D02*
X188447619Y-101648009D01*
X188447619Y-101648009D02*
X188371428Y-101724200D01*
X188371428Y-101724200D02*
X188295238Y-101762295D01*
X188295238Y-101762295D02*
X188142857Y-101762295D01*
X188790475Y-101038485D02*
X188828571Y-101000390D01*
X188828571Y-101000390D02*
X188904761Y-100962295D01*
X188904761Y-100962295D02*
X189095237Y-100962295D01*
X189095237Y-100962295D02*
X189171428Y-101000390D01*
X189171428Y-101000390D02*
X189209523Y-101038485D01*
X189209523Y-101038485D02*
X189247618Y-101114676D01*
X189247618Y-101114676D02*
X189247618Y-101190866D01*
X189247618Y-101190866D02*
X189209523Y-101305152D01*
X189209523Y-101305152D02*
X188752380Y-101762295D01*
X188752380Y-101762295D02*
X189247618Y-101762295D01*
X183266667Y-94262295D02*
X183000000Y-93881342D01*
X182809524Y-94262295D02*
X182809524Y-93462295D01*
X182809524Y-93462295D02*
X183114286Y-93462295D01*
X183114286Y-93462295D02*
X183190476Y-93500390D01*
X183190476Y-93500390D02*
X183228571Y-93538485D01*
X183228571Y-93538485D02*
X183266667Y-93614676D01*
X183266667Y-93614676D02*
X183266667Y-93728961D01*
X183266667Y-93728961D02*
X183228571Y-93805152D01*
X183228571Y-93805152D02*
X183190476Y-93843247D01*
X183190476Y-93843247D02*
X183114286Y-93881342D01*
X183114286Y-93881342D02*
X182809524Y-93881342D01*
X183990476Y-93462295D02*
X183609524Y-93462295D01*
X183609524Y-93462295D02*
X183571428Y-93843247D01*
X183571428Y-93843247D02*
X183609524Y-93805152D01*
X183609524Y-93805152D02*
X183685714Y-93767057D01*
X183685714Y-93767057D02*
X183876190Y-93767057D01*
X183876190Y-93767057D02*
X183952381Y-93805152D01*
X183952381Y-93805152D02*
X183990476Y-93843247D01*
X183990476Y-93843247D02*
X184028571Y-93919438D01*
X184028571Y-93919438D02*
X184028571Y-94109914D01*
X184028571Y-94109914D02*
X183990476Y-94186104D01*
X183990476Y-94186104D02*
X183952381Y-94224200D01*
X183952381Y-94224200D02*
X183876190Y-94262295D01*
X183876190Y-94262295D02*
X183685714Y-94262295D01*
X183685714Y-94262295D02*
X183609524Y-94224200D01*
X183609524Y-94224200D02*
X183571428Y-94186104D01*
X180940693Y-94262295D02*
X180674026Y-93881342D01*
X180483550Y-94262295D02*
X180483550Y-93462295D01*
X180483550Y-93462295D02*
X180788312Y-93462295D01*
X180788312Y-93462295D02*
X180864502Y-93500390D01*
X180864502Y-93500390D02*
X180902597Y-93538485D01*
X180902597Y-93538485D02*
X180940693Y-93614676D01*
X180940693Y-93614676D02*
X180940693Y-93728961D01*
X180940693Y-93728961D02*
X180902597Y-93805152D01*
X180902597Y-93805152D02*
X180864502Y-93843247D01*
X180864502Y-93843247D02*
X180788312Y-93881342D01*
X180788312Y-93881342D02*
X180483550Y-93881342D01*
X181626407Y-93728961D02*
X181626407Y-94262295D01*
X181435931Y-93424200D02*
X181245454Y-93995628D01*
X181245454Y-93995628D02*
X181740693Y-93995628D01*
X183609524Y-101562295D02*
X183609524Y-100762295D01*
X183609524Y-100762295D02*
X183800000Y-100762295D01*
X183800000Y-100762295D02*
X183914286Y-100800390D01*
X183914286Y-100800390D02*
X183990476Y-100876580D01*
X183990476Y-100876580D02*
X184028571Y-100952771D01*
X184028571Y-100952771D02*
X184066667Y-101105152D01*
X184066667Y-101105152D02*
X184066667Y-101219438D01*
X184066667Y-101219438D02*
X184028571Y-101371819D01*
X184028571Y-101371819D02*
X183990476Y-101448009D01*
X183990476Y-101448009D02*
X183914286Y-101524200D01*
X183914286Y-101524200D02*
X183800000Y-101562295D01*
X183800000Y-101562295D02*
X183609524Y-101562295D01*
X184371428Y-100838485D02*
X184409524Y-100800390D01*
X184409524Y-100800390D02*
X184485714Y-100762295D01*
X184485714Y-100762295D02*
X184676190Y-100762295D01*
X184676190Y-100762295D02*
X184752381Y-100800390D01*
X184752381Y-100800390D02*
X184790476Y-100838485D01*
X184790476Y-100838485D02*
X184828571Y-100914676D01*
X184828571Y-100914676D02*
X184828571Y-100990866D01*
X184828571Y-100990866D02*
X184790476Y-101105152D01*
X184790476Y-101105152D02*
X184333333Y-101562295D01*
X184333333Y-101562295D02*
X184828571Y-101562295D01*
X187766667Y-94262295D02*
X187500000Y-93881342D01*
X187309524Y-94262295D02*
X187309524Y-93462295D01*
X187309524Y-93462295D02*
X187614286Y-93462295D01*
X187614286Y-93462295D02*
X187690476Y-93500390D01*
X187690476Y-93500390D02*
X187728571Y-93538485D01*
X187728571Y-93538485D02*
X187766667Y-93614676D01*
X187766667Y-93614676D02*
X187766667Y-93728961D01*
X187766667Y-93728961D02*
X187728571Y-93805152D01*
X187728571Y-93805152D02*
X187690476Y-93843247D01*
X187690476Y-93843247D02*
X187614286Y-93881342D01*
X187614286Y-93881342D02*
X187309524Y-93881342D01*
X188452381Y-93462295D02*
X188300000Y-93462295D01*
X188300000Y-93462295D02*
X188223809Y-93500390D01*
X188223809Y-93500390D02*
X188185714Y-93538485D01*
X188185714Y-93538485D02*
X188109524Y-93652771D01*
X188109524Y-93652771D02*
X188071428Y-93805152D01*
X188071428Y-93805152D02*
X188071428Y-94109914D01*
X188071428Y-94109914D02*
X188109524Y-94186104D01*
X188109524Y-94186104D02*
X188147619Y-94224200D01*
X188147619Y-94224200D02*
X188223809Y-94262295D01*
X188223809Y-94262295D02*
X188376190Y-94262295D01*
X188376190Y-94262295D02*
X188452381Y-94224200D01*
X188452381Y-94224200D02*
X188490476Y-94186104D01*
X188490476Y-94186104D02*
X188528571Y-94109914D01*
X188528571Y-94109914D02*
X188528571Y-93919438D01*
X188528571Y-93919438D02*
X188490476Y-93843247D01*
X188490476Y-93843247D02*
X188452381Y-93805152D01*
X188452381Y-93805152D02*
X188376190Y-93767057D01*
X188376190Y-93767057D02*
X188223809Y-93767057D01*
X188223809Y-93767057D02*
X188147619Y-93805152D01*
X188147619Y-93805152D02*
X188109524Y-93843247D01*
X188109524Y-93843247D02*
X188071428Y-93919438D01*
X151100417Y-94156104D02*
X151062321Y-94194200D01*
X151062321Y-94194200D02*
X150948036Y-94232295D01*
X150948036Y-94232295D02*
X150871845Y-94232295D01*
X150871845Y-94232295D02*
X150757559Y-94194200D01*
X150757559Y-94194200D02*
X150681369Y-94118009D01*
X150681369Y-94118009D02*
X150643274Y-94041819D01*
X150643274Y-94041819D02*
X150605178Y-93889438D01*
X150605178Y-93889438D02*
X150605178Y-93775152D01*
X150605178Y-93775152D02*
X150643274Y-93622771D01*
X150643274Y-93622771D02*
X150681369Y-93546580D01*
X150681369Y-93546580D02*
X150757559Y-93470390D01*
X150757559Y-93470390D02*
X150871845Y-93432295D01*
X150871845Y-93432295D02*
X150948036Y-93432295D01*
X150948036Y-93432295D02*
X151062321Y-93470390D01*
X151062321Y-93470390D02*
X151100417Y-93508485D01*
X151862321Y-94232295D02*
X151405178Y-94232295D01*
X151633750Y-94232295D02*
X151633750Y-93432295D01*
X151633750Y-93432295D02*
X151557559Y-93546580D01*
X151557559Y-93546580D02*
X151481369Y-93622771D01*
X151481369Y-93622771D02*
X151405178Y-93660866D01*
X153123809Y-101838485D02*
X153047619Y-101800390D01*
X153047619Y-101800390D02*
X152971428Y-101724200D01*
X152971428Y-101724200D02*
X152857142Y-101609914D01*
X152857142Y-101609914D02*
X152780952Y-101571819D01*
X152780952Y-101571819D02*
X152704761Y-101571819D01*
X152742857Y-101762295D02*
X152666666Y-101724200D01*
X152666666Y-101724200D02*
X152590476Y-101648009D01*
X152590476Y-101648009D02*
X152552380Y-101495628D01*
X152552380Y-101495628D02*
X152552380Y-101228961D01*
X152552380Y-101228961D02*
X152590476Y-101076580D01*
X152590476Y-101076580D02*
X152666666Y-101000390D01*
X152666666Y-101000390D02*
X152742857Y-100962295D01*
X152742857Y-100962295D02*
X152895238Y-100962295D01*
X152895238Y-100962295D02*
X152971428Y-101000390D01*
X152971428Y-101000390D02*
X153047619Y-101076580D01*
X153047619Y-101076580D02*
X153085714Y-101228961D01*
X153085714Y-101228961D02*
X153085714Y-101495628D01*
X153085714Y-101495628D02*
X153047619Y-101648009D01*
X153047619Y-101648009D02*
X152971428Y-101724200D01*
X152971428Y-101724200D02*
X152895238Y-101762295D01*
X152895238Y-101762295D02*
X152742857Y-101762295D01*
X153847618Y-101762295D02*
X153390475Y-101762295D01*
X153619047Y-101762295D02*
X153619047Y-100962295D01*
X153619047Y-100962295D02*
X153542856Y-101076580D01*
X153542856Y-101076580D02*
X153466666Y-101152771D01*
X153466666Y-101152771D02*
X153390475Y-101190866D01*
X172933333Y-96962295D02*
X172933333Y-97533723D01*
X172933333Y-97533723D02*
X172895238Y-97648009D01*
X172895238Y-97648009D02*
X172819047Y-97724200D01*
X172819047Y-97724200D02*
X172704762Y-97762295D01*
X172704762Y-97762295D02*
X172628571Y-97762295D01*
X173733333Y-97762295D02*
X173276190Y-97762295D01*
X173504762Y-97762295D02*
X173504762Y-96962295D01*
X173504762Y-96962295D02*
X173428571Y-97076580D01*
X173428571Y-97076580D02*
X173352381Y-97152771D01*
X173352381Y-97152771D02*
X173276190Y-97190866D01*
X155532917Y-94156104D02*
X155494821Y-94194200D01*
X155494821Y-94194200D02*
X155380536Y-94232295D01*
X155380536Y-94232295D02*
X155304345Y-94232295D01*
X155304345Y-94232295D02*
X155190059Y-94194200D01*
X155190059Y-94194200D02*
X155113869Y-94118009D01*
X155113869Y-94118009D02*
X155075774Y-94041819D01*
X155075774Y-94041819D02*
X155037678Y-93889438D01*
X155037678Y-93889438D02*
X155037678Y-93775152D01*
X155037678Y-93775152D02*
X155075774Y-93622771D01*
X155075774Y-93622771D02*
X155113869Y-93546580D01*
X155113869Y-93546580D02*
X155190059Y-93470390D01*
X155190059Y-93470390D02*
X155304345Y-93432295D01*
X155304345Y-93432295D02*
X155380536Y-93432295D01*
X155380536Y-93432295D02*
X155494821Y-93470390D01*
X155494821Y-93470390D02*
X155532917Y-93508485D01*
X155837678Y-93508485D02*
X155875774Y-93470390D01*
X155875774Y-93470390D02*
X155951964Y-93432295D01*
X155951964Y-93432295D02*
X156142440Y-93432295D01*
X156142440Y-93432295D02*
X156218631Y-93470390D01*
X156218631Y-93470390D02*
X156256726Y-93508485D01*
X156256726Y-93508485D02*
X156294821Y-93584676D01*
X156294821Y-93584676D02*
X156294821Y-93660866D01*
X156294821Y-93660866D02*
X156256726Y-93775152D01*
X156256726Y-93775152D02*
X155799583Y-94232295D01*
X155799583Y-94232295D02*
X156294821Y-94232295D01*
X157832917Y-94232295D02*
X157566250Y-93851342D01*
X157375774Y-94232295D02*
X157375774Y-93432295D01*
X157375774Y-93432295D02*
X157680536Y-93432295D01*
X157680536Y-93432295D02*
X157756726Y-93470390D01*
X157756726Y-93470390D02*
X157794821Y-93508485D01*
X157794821Y-93508485D02*
X157832917Y-93584676D01*
X157832917Y-93584676D02*
X157832917Y-93698961D01*
X157832917Y-93698961D02*
X157794821Y-93775152D01*
X157794821Y-93775152D02*
X157756726Y-93813247D01*
X157756726Y-93813247D02*
X157680536Y-93851342D01*
X157680536Y-93851342D02*
X157375774Y-93851342D01*
X158137678Y-93508485D02*
X158175774Y-93470390D01*
X158175774Y-93470390D02*
X158251964Y-93432295D01*
X158251964Y-93432295D02*
X158442440Y-93432295D01*
X158442440Y-93432295D02*
X158518631Y-93470390D01*
X158518631Y-93470390D02*
X158556726Y-93508485D01*
X158556726Y-93508485D02*
X158594821Y-93584676D01*
X158594821Y-93584676D02*
X158594821Y-93660866D01*
X158594821Y-93660866D02*
X158556726Y-93775152D01*
X158556726Y-93775152D02*
X158099583Y-94232295D01*
X158099583Y-94232295D02*
X158594821Y-94232295D01*
X160066667Y-94232295D02*
X159800000Y-93851342D01*
X159609524Y-94232295D02*
X159609524Y-93432295D01*
X159609524Y-93432295D02*
X159914286Y-93432295D01*
X159914286Y-93432295D02*
X159990476Y-93470390D01*
X159990476Y-93470390D02*
X160028571Y-93508485D01*
X160028571Y-93508485D02*
X160066667Y-93584676D01*
X160066667Y-93584676D02*
X160066667Y-93698961D01*
X160066667Y-93698961D02*
X160028571Y-93775152D01*
X160028571Y-93775152D02*
X159990476Y-93813247D01*
X159990476Y-93813247D02*
X159914286Y-93851342D01*
X159914286Y-93851342D02*
X159609524Y-93851342D01*
X160333333Y-93432295D02*
X160828571Y-93432295D01*
X160828571Y-93432295D02*
X160561905Y-93737057D01*
X160561905Y-93737057D02*
X160676190Y-93737057D01*
X160676190Y-93737057D02*
X160752381Y-93775152D01*
X160752381Y-93775152D02*
X160790476Y-93813247D01*
X160790476Y-93813247D02*
X160828571Y-93889438D01*
X160828571Y-93889438D02*
X160828571Y-94079914D01*
X160828571Y-94079914D02*
X160790476Y-94156104D01*
X160790476Y-94156104D02*
X160752381Y-94194200D01*
X160752381Y-94194200D02*
X160676190Y-94232295D01*
X160676190Y-94232295D02*
X160447619Y-94232295D01*
X160447619Y-94232295D02*
X160371428Y-94194200D01*
X160371428Y-94194200D02*
X160333333Y-94156104D01*
X185066667Y-97562295D02*
X184800000Y-97181342D01*
X184609524Y-97562295D02*
X184609524Y-96762295D01*
X184609524Y-96762295D02*
X184914286Y-96762295D01*
X184914286Y-96762295D02*
X184990476Y-96800390D01*
X184990476Y-96800390D02*
X185028571Y-96838485D01*
X185028571Y-96838485D02*
X185066667Y-96914676D01*
X185066667Y-96914676D02*
X185066667Y-97028961D01*
X185066667Y-97028961D02*
X185028571Y-97105152D01*
X185028571Y-97105152D02*
X184990476Y-97143247D01*
X184990476Y-97143247D02*
X184914286Y-97181342D01*
X184914286Y-97181342D02*
X184609524Y-97181342D01*
X185447619Y-97562295D02*
X185600000Y-97562295D01*
X185600000Y-97562295D02*
X185676190Y-97524200D01*
X185676190Y-97524200D02*
X185714286Y-97486104D01*
X185714286Y-97486104D02*
X185790476Y-97371819D01*
X185790476Y-97371819D02*
X185828571Y-97219438D01*
X185828571Y-97219438D02*
X185828571Y-96914676D01*
X185828571Y-96914676D02*
X185790476Y-96838485D01*
X185790476Y-96838485D02*
X185752381Y-96800390D01*
X185752381Y-96800390D02*
X185676190Y-96762295D01*
X185676190Y-96762295D02*
X185523809Y-96762295D01*
X185523809Y-96762295D02*
X185447619Y-96800390D01*
X185447619Y-96800390D02*
X185409524Y-96838485D01*
X185409524Y-96838485D02*
X185371428Y-96914676D01*
X185371428Y-96914676D02*
X185371428Y-97105152D01*
X185371428Y-97105152D02*
X185409524Y-97181342D01*
X185409524Y-97181342D02*
X185447619Y-97219438D01*
X185447619Y-97219438D02*
X185523809Y-97257533D01*
X185523809Y-97257533D02*
X185676190Y-97257533D01*
X185676190Y-97257533D02*
X185752381Y-97219438D01*
X185752381Y-97219438D02*
X185790476Y-97181342D01*
X185790476Y-97181342D02*
X185828571Y-97105152D01*
X175840642Y-99638485D02*
X175764452Y-99600390D01*
X175764452Y-99600390D02*
X175688261Y-99524200D01*
X175688261Y-99524200D02*
X175573975Y-99409914D01*
X175573975Y-99409914D02*
X175497785Y-99371819D01*
X175497785Y-99371819D02*
X175421594Y-99371819D01*
X175459690Y-99562295D02*
X175383499Y-99524200D01*
X175383499Y-99524200D02*
X175307309Y-99448009D01*
X175307309Y-99448009D02*
X175269213Y-99295628D01*
X175269213Y-99295628D02*
X175269213Y-99028961D01*
X175269213Y-99028961D02*
X175307309Y-98876580D01*
X175307309Y-98876580D02*
X175383499Y-98800390D01*
X175383499Y-98800390D02*
X175459690Y-98762295D01*
X175459690Y-98762295D02*
X175612071Y-98762295D01*
X175612071Y-98762295D02*
X175688261Y-98800390D01*
X175688261Y-98800390D02*
X175764452Y-98876580D01*
X175764452Y-98876580D02*
X175802547Y-99028961D01*
X175802547Y-99028961D02*
X175802547Y-99295628D01*
X175802547Y-99295628D02*
X175764452Y-99448009D01*
X175764452Y-99448009D02*
X175688261Y-99524200D01*
X175688261Y-99524200D02*
X175612071Y-99562295D01*
X175612071Y-99562295D02*
X175459690Y-99562295D01*
X176145404Y-99562295D02*
X176145404Y-99028961D01*
X176145404Y-99181342D02*
X176183499Y-99105152D01*
X176183499Y-99105152D02*
X176221594Y-99067057D01*
X176221594Y-99067057D02*
X176297785Y-99028961D01*
X176297785Y-99028961D02*
X176373975Y-99028961D01*
X177059689Y-99562295D02*
X176602546Y-99562295D01*
X176831118Y-99562295D02*
X176831118Y-98762295D01*
X176831118Y-98762295D02*
X176754927Y-98876580D01*
X176754927Y-98876580D02*
X176678737Y-98952771D01*
X176678737Y-98952771D02*
X176602546Y-98990866D01*
X165952462Y-99638485D02*
X165876272Y-99600390D01*
X165876272Y-99600390D02*
X165800081Y-99524200D01*
X165800081Y-99524200D02*
X165685795Y-99409914D01*
X165685795Y-99409914D02*
X165609605Y-99371819D01*
X165609605Y-99371819D02*
X165533414Y-99371819D01*
X165571510Y-99562295D02*
X165495319Y-99524200D01*
X165495319Y-99524200D02*
X165419129Y-99448009D01*
X165419129Y-99448009D02*
X165381033Y-99295628D01*
X165381033Y-99295628D02*
X165381033Y-99028961D01*
X165381033Y-99028961D02*
X165419129Y-98876580D01*
X165419129Y-98876580D02*
X165495319Y-98800390D01*
X165495319Y-98800390D02*
X165571510Y-98762295D01*
X165571510Y-98762295D02*
X165723891Y-98762295D01*
X165723891Y-98762295D02*
X165800081Y-98800390D01*
X165800081Y-98800390D02*
X165876272Y-98876580D01*
X165876272Y-98876580D02*
X165914367Y-99028961D01*
X165914367Y-99028961D02*
X165914367Y-99295628D01*
X165914367Y-99295628D02*
X165876272Y-99448009D01*
X165876272Y-99448009D02*
X165800081Y-99524200D01*
X165800081Y-99524200D02*
X165723891Y-99562295D01*
X165723891Y-99562295D02*
X165571510Y-99562295D01*
X166371509Y-99562295D02*
X166295319Y-99524200D01*
X166295319Y-99524200D02*
X166257224Y-99448009D01*
X166257224Y-99448009D02*
X166257224Y-98762295D01*
X167095319Y-99562295D02*
X166638176Y-99562295D01*
X166866748Y-99562295D02*
X166866748Y-98762295D01*
X166866748Y-98762295D02*
X166790557Y-98876580D01*
X166790557Y-98876580D02*
X166714367Y-98952771D01*
X166714367Y-98952771D02*
X166638176Y-98990866D01*
X175276190Y-105838485D02*
X175200000Y-105800390D01*
X175200000Y-105800390D02*
X175123809Y-105724200D01*
X175123809Y-105724200D02*
X175009523Y-105609914D01*
X175009523Y-105609914D02*
X174933333Y-105571819D01*
X174933333Y-105571819D02*
X174857142Y-105571819D01*
X174895238Y-105762295D02*
X174819047Y-105724200D01*
X174819047Y-105724200D02*
X174742857Y-105648009D01*
X174742857Y-105648009D02*
X174704761Y-105495628D01*
X174704761Y-105495628D02*
X174704761Y-105228961D01*
X174704761Y-105228961D02*
X174742857Y-105076580D01*
X174742857Y-105076580D02*
X174819047Y-105000390D01*
X174819047Y-105000390D02*
X174895238Y-104962295D01*
X174895238Y-104962295D02*
X175047619Y-104962295D01*
X175047619Y-104962295D02*
X175123809Y-105000390D01*
X175123809Y-105000390D02*
X175200000Y-105076580D01*
X175200000Y-105076580D02*
X175238095Y-105228961D01*
X175238095Y-105228961D02*
X175238095Y-105495628D01*
X175238095Y-105495628D02*
X175200000Y-105648009D01*
X175200000Y-105648009D02*
X175123809Y-105724200D01*
X175123809Y-105724200D02*
X175047619Y-105762295D01*
X175047619Y-105762295D02*
X174895238Y-105762295D01*
X175580952Y-105762295D02*
X175580952Y-105228961D01*
X175580952Y-105381342D02*
X175619047Y-105305152D01*
X175619047Y-105305152D02*
X175657142Y-105267057D01*
X175657142Y-105267057D02*
X175733333Y-105228961D01*
X175733333Y-105228961D02*
X175809523Y-105228961D01*
X176038094Y-105038485D02*
X176076190Y-105000390D01*
X176076190Y-105000390D02*
X176152380Y-104962295D01*
X176152380Y-104962295D02*
X176342856Y-104962295D01*
X176342856Y-104962295D02*
X176419047Y-105000390D01*
X176419047Y-105000390D02*
X176457142Y-105038485D01*
X176457142Y-105038485D02*
X176495237Y-105114676D01*
X176495237Y-105114676D02*
X176495237Y-105190866D01*
X176495237Y-105190866D02*
X176457142Y-105305152D01*
X176457142Y-105305152D02*
X175999999Y-105762295D01*
X175999999Y-105762295D02*
X176495237Y-105762295D01*
X165102462Y-105838485D02*
X165026272Y-105800390D01*
X165026272Y-105800390D02*
X164950081Y-105724200D01*
X164950081Y-105724200D02*
X164835795Y-105609914D01*
X164835795Y-105609914D02*
X164759605Y-105571819D01*
X164759605Y-105571819D02*
X164683414Y-105571819D01*
X164721510Y-105762295D02*
X164645319Y-105724200D01*
X164645319Y-105724200D02*
X164569129Y-105648009D01*
X164569129Y-105648009D02*
X164531033Y-105495628D01*
X164531033Y-105495628D02*
X164531033Y-105228961D01*
X164531033Y-105228961D02*
X164569129Y-105076580D01*
X164569129Y-105076580D02*
X164645319Y-105000390D01*
X164645319Y-105000390D02*
X164721510Y-104962295D01*
X164721510Y-104962295D02*
X164873891Y-104962295D01*
X164873891Y-104962295D02*
X164950081Y-105000390D01*
X164950081Y-105000390D02*
X165026272Y-105076580D01*
X165026272Y-105076580D02*
X165064367Y-105228961D01*
X165064367Y-105228961D02*
X165064367Y-105495628D01*
X165064367Y-105495628D02*
X165026272Y-105648009D01*
X165026272Y-105648009D02*
X164950081Y-105724200D01*
X164950081Y-105724200D02*
X164873891Y-105762295D01*
X164873891Y-105762295D02*
X164721510Y-105762295D01*
X165521509Y-105762295D02*
X165445319Y-105724200D01*
X165445319Y-105724200D02*
X165407224Y-105648009D01*
X165407224Y-105648009D02*
X165407224Y-104962295D01*
X165788176Y-105038485D02*
X165826272Y-105000390D01*
X165826272Y-105000390D02*
X165902462Y-104962295D01*
X165902462Y-104962295D02*
X166092938Y-104962295D01*
X166092938Y-104962295D02*
X166169129Y-105000390D01*
X166169129Y-105000390D02*
X166207224Y-105038485D01*
X166207224Y-105038485D02*
X166245319Y-105114676D01*
X166245319Y-105114676D02*
X166245319Y-105190866D01*
X166245319Y-105190866D02*
X166207224Y-105305152D01*
X166207224Y-105305152D02*
X165750081Y-105762295D01*
X165750081Y-105762295D02*
X166245319Y-105762295D01*
D11*
G04 #@! TO.C,C3*
X186275725Y-91241662D02*
X186275725Y-91764166D01*
X184805725Y-91241662D02*
X184805725Y-91764166D01*
G04 #@! TO.C,R13*
X158772936Y-104135000D02*
X159227064Y-104135000D01*
X158772936Y-102665000D02*
X159227064Y-102665000D01*
G04 #@! TO.C,R12*
X191535000Y-96827064D02*
X191535000Y-96372936D01*
X190065000Y-96827064D02*
X190065000Y-96372936D01*
G04 #@! TO.C,R8*
X157572936Y-96395000D02*
X158027064Y-96395000D01*
X157572936Y-94925000D02*
X158027064Y-94925000D01*
G04 #@! TO.C,R7*
X154027064Y-96395000D02*
X153572936Y-96395000D01*
X154027064Y-94925000D02*
X153572936Y-94925000D01*
G04 #@! TO.C,R11*
X151535000Y-96827064D02*
X151535000Y-96372936D01*
X150065000Y-96827064D02*
X150065000Y-96372936D01*
D12*
G04 #@! TO.C,J2*
X173750000Y-107450000D02*
X173750000Y-99850000D01*
X173750000Y-99850000D02*
X167850000Y-99850000D01*
X167850000Y-107450000D02*
X173750000Y-107450000D01*
X167850000Y-99850000D02*
X167850000Y-107450000D01*
D11*
G04 #@! TO.C,C4*
X190775725Y-91241662D02*
X190775725Y-91764166D01*
X189305725Y-91241662D02*
X189305725Y-91764166D01*
G04 #@! TO.C,D1*
X160940000Y-98400000D02*
X160610000Y-98160000D01*
X160940000Y-97920000D01*
X160940000Y-98400000D01*
G36*
X160940000Y-98400000D02*
G01*
X160610000Y-98160000D01*
X160940000Y-97920000D01*
X160940000Y-98400000D01*
G37*
X160580000Y-100260000D02*
X159650000Y-100260000D01*
X160580000Y-99460000D02*
X160580000Y-100260000D01*
X160580000Y-99460000D02*
X160580000Y-98660000D01*
X157420000Y-100260000D02*
X158350000Y-100260000D01*
X157420000Y-100260000D02*
X157420000Y-98800000D01*
G04 #@! TO.C,R1*
X154117422Y-91278534D02*
X154117422Y-91732662D01*
X152647422Y-91278534D02*
X152647422Y-91732662D01*
G04 #@! TO.C,R14*
X184772936Y-104135000D02*
X185227064Y-104135000D01*
X184772936Y-102665000D02*
X185227064Y-102665000D01*
G04 #@! TO.C,R10*
X187275032Y-96393623D02*
X187729160Y-96393623D01*
X187275032Y-94923623D02*
X187729160Y-94923623D01*
G04 #@! TO.C,Q2*
X186120000Y-98290000D02*
X185880000Y-97960000D01*
X186360000Y-97960000D01*
X186120000Y-98290000D01*
G36*
X186120000Y-98290000D02*
G01*
X185880000Y-97960000D01*
X186360000Y-97960000D01*
X186120000Y-98290000D01*
G37*
X186500000Y-100560000D02*
X187900000Y-100560000D01*
X186490000Y-98240000D02*
X187900000Y-98240000D01*
G04 #@! TO.C,R5*
X184075725Y-91305850D02*
X184075725Y-91759978D01*
X182605725Y-91305850D02*
X182605725Y-91759978D01*
G04 #@! TO.C,R4*
X181835000Y-91759978D02*
X181835000Y-91305850D01*
X180365000Y-91759978D02*
X180365000Y-91305850D01*
G04 #@! TO.C,D2*
X184786175Y-98500000D02*
X184456175Y-98260000D01*
X184786175Y-98020000D01*
X184786175Y-98500000D01*
G36*
X184786175Y-98500000D02*
G01*
X184456175Y-98260000D01*
X184786175Y-98020000D01*
X184786175Y-98500000D01*
G37*
X184426175Y-100360000D02*
X183496175Y-100360000D01*
X184426175Y-99560000D02*
X184426175Y-100360000D01*
X184426175Y-99560000D02*
X184426175Y-98760000D01*
X181266175Y-100360000D02*
X182196175Y-100360000D01*
X181266175Y-100360000D02*
X181266175Y-98900000D01*
G04 #@! TO.C,R6*
X188575725Y-91305850D02*
X188575725Y-91759978D01*
X187105725Y-91305850D02*
X187105725Y-91759978D01*
G04 #@! TO.C,C1*
X151917422Y-91274346D02*
X151917422Y-91796850D01*
X150447422Y-91274346D02*
X150447422Y-91796850D01*
G04 #@! TO.C,Q1*
X153520000Y-98290000D02*
X153280000Y-97960000D01*
X153760000Y-97960000D01*
X153520000Y-98290000D01*
G36*
X153520000Y-98290000D02*
G01*
X153280000Y-97960000D01*
X153760000Y-97960000D01*
X153520000Y-98290000D01*
G37*
X153900000Y-100560000D02*
X155300000Y-100560000D01*
X153890000Y-98240000D02*
X155300000Y-98240000D01*
D13*
G04 #@! TO.C,J1*
X175975100Y-96594400D02*
X175975100Y-88745800D01*
X175975100Y-88745800D02*
X165815100Y-88745800D01*
X165815100Y-96594400D02*
X175975100Y-96594400D01*
X165815100Y-88745800D02*
X165815100Y-96594400D01*
D11*
G04 #@! TO.C,C2*
X156383672Y-91274346D02*
X156383672Y-91796850D01*
X154913672Y-91274346D02*
X154913672Y-91796850D01*
G04 #@! TO.C,R2*
X158583672Y-91278534D02*
X158583672Y-91732662D01*
X157113672Y-91278534D02*
X157113672Y-91732662D01*
G04 #@! TO.C,R3*
X160935000Y-91762662D02*
X160935000Y-91308534D01*
X159465000Y-91762662D02*
X159465000Y-91308534D01*
G04 #@! TO.C,R9*
X183172936Y-96335000D02*
X183627064Y-96335000D01*
X183172936Y-94865000D02*
X183627064Y-94865000D01*
G04 #@! TO.C,Qr1*
X180800000Y-98438531D02*
X180800000Y-94838531D01*
X176350000Y-96638531D02*
G75*
G02*
X180788478Y-94800053I2600000J0D01*
G01*
X180788478Y-98477009D02*
G75*
G02*
X176349999Y-96638531I-1838478J1838478D01*
G01*
G04 #@! TO.C,Ql1*
X165442127Y-98427589D02*
X165442127Y-94827589D01*
X160992127Y-96627589D02*
G75*
G02*
X165430605Y-94789111I2600000J0D01*
G01*
X165430605Y-98466067D02*
G75*
G02*
X160992126Y-96627589I-1838478J1838478D01*
G01*
G04 #@! TO.C,Qr2*
X176485548Y-100978531D02*
X176485548Y-104578531D01*
X176497070Y-100940053D02*
G75*
G02*
X180935549Y-102778531I1838478J-1838478D01*
G01*
X180935548Y-102778531D02*
G75*
G02*
X176497070Y-104617009I-2600000J0D01*
G01*
G04 #@! TO.C,Ql2*
X161012127Y-100897589D02*
X161012127Y-104497589D01*
X161023649Y-100859111D02*
G75*
G02*
X165462128Y-102697589I1838478J-1838478D01*
G01*
X165462127Y-102697589D02*
G75*
G02*
X161023649Y-104536067I-2600000J0D01*
G01*
G04 #@! TD*
%LPC*%
D14*
G04 #@! TO.C,C3*
X185540725Y-92540414D03*
X185540725Y-90465414D03*
G04 #@! TD*
D15*
G04 #@! TO.C,R13*
X160000000Y-103400000D03*
X158000000Y-103400000D03*
G04 #@! TD*
D16*
G04 #@! TO.C,R12*
X190800000Y-95600000D03*
X190800000Y-97600000D03*
G04 #@! TD*
D15*
G04 #@! TO.C,R8*
X158800000Y-95660000D03*
X156800000Y-95660000D03*
G04 #@! TD*
D17*
G04 #@! TO.C,R7*
X152800000Y-95660000D03*
X154800000Y-95660000D03*
G04 #@! TD*
D16*
G04 #@! TO.C,R11*
X150800000Y-95600000D03*
X150800000Y-97600000D03*
G04 #@! TD*
D18*
G04 #@! TO.C,J2*
X171800000Y-101200000D03*
D19*
X169800000Y-101200000D03*
G04 #@! TD*
D14*
G04 #@! TO.C,C4*
X190040725Y-92540414D03*
X190040725Y-90465414D03*
G04 #@! TD*
D20*
G04 #@! TO.C,D1*
X159000000Y-101000000D03*
X158050000Y-98000000D03*
X159950000Y-98000000D03*
G04 #@! TD*
D21*
G04 #@! TO.C,R1*
X153382422Y-92505598D03*
X153382422Y-90505598D03*
G04 #@! TD*
D15*
G04 #@! TO.C,R14*
X186000000Y-103400000D03*
X184000000Y-103400000D03*
G04 #@! TD*
G04 #@! TO.C,R10*
X188502096Y-95658623D03*
X186502096Y-95658623D03*
G04 #@! TD*
D22*
G04 #@! TO.C,Q2*
X188530000Y-98750000D03*
X188530000Y-99400000D03*
X188530000Y-100050000D03*
X185870000Y-100050000D03*
X185870000Y-99400000D03*
X185870000Y-98750000D03*
G04 #@! TD*
D21*
G04 #@! TO.C,R5*
X183340725Y-92532914D03*
X183340725Y-90532914D03*
G04 #@! TD*
D16*
G04 #@! TO.C,R4*
X181100000Y-90532914D03*
X181100000Y-92532914D03*
G04 #@! TD*
D23*
G04 #@! TO.C,H1*
X151800000Y-104100000D03*
D24*
X151800000Y-104100000D03*
G04 #@! TD*
D20*
G04 #@! TO.C,D2*
X182846175Y-101100000D03*
X181896175Y-98100000D03*
X183796175Y-98100000D03*
G04 #@! TD*
D21*
G04 #@! TO.C,R6*
X187840725Y-92532914D03*
X187840725Y-90532914D03*
G04 #@! TD*
D14*
G04 #@! TO.C,C1*
X151182422Y-92573098D03*
X151182422Y-90498098D03*
G04 #@! TD*
D22*
G04 #@! TO.C,Q1*
X155930000Y-98750000D03*
X155930000Y-99400000D03*
X155930000Y-100050000D03*
X153270000Y-100050000D03*
X153270000Y-99400000D03*
X153270000Y-98750000D03*
G04 #@! TD*
D25*
G04 #@! TO.C,J1*
X167895101Y-95117400D03*
X169895099Y-95117400D03*
X171895100Y-95117400D03*
X173895099Y-95117400D03*
G04 #@! TD*
D14*
G04 #@! TO.C,C2*
X155648672Y-92573098D03*
X155648672Y-90498098D03*
G04 #@! TD*
D21*
G04 #@! TO.C,R2*
X157848672Y-92505598D03*
X157848672Y-90505598D03*
G04 #@! TD*
D16*
G04 #@! TO.C,R3*
X160200000Y-90535598D03*
X160200000Y-92535598D03*
G04 #@! TD*
D23*
G04 #@! TO.C,H2*
X189800000Y-104200000D03*
D24*
X189800000Y-104200000D03*
G04 #@! TD*
D15*
G04 #@! TO.C,R9*
X184400000Y-95600000D03*
X182400000Y-95600000D03*
G04 #@! TD*
D26*
G04 #@! TO.C,Qr1*
X178950000Y-97908531D03*
D27*
X178950000Y-96638531D03*
X178950000Y-95368531D03*
G04 #@! TD*
D28*
G04 #@! TO.C,MH2*
X178600000Y-92200000D03*
G04 #@! TD*
D26*
G04 #@! TO.C,Ql1*
X163592127Y-97897589D03*
D27*
X163592127Y-96627589D03*
X163592127Y-95357589D03*
G04 #@! TD*
D28*
G04 #@! TO.C,MH1*
X162800000Y-92200000D03*
G04 #@! TD*
D26*
G04 #@! TO.C,Qr2*
X178335548Y-101508531D03*
D27*
X178335548Y-102778531D03*
X178335548Y-104048531D03*
G04 #@! TD*
D26*
G04 #@! TO.C,Ql2*
X162862127Y-101427589D03*
D27*
X162862127Y-102697589D03*
X162862127Y-103967589D03*
G04 #@! TD*
%LPD*%
M02*
