G04 #@! TF.GenerationSoftware,KiCad,Pcbnew,9.0.4*
G04 #@! TF.CreationDate,2025-09-07T15:09:32+02:00*
G04 #@! TF.ProjectId,npn-pnp-h-bridge,6e706e2d-706e-4702-9d68-2d6272696467,1.0*
G04 #@! TF.SameCoordinates,Original*
G04 #@! TF.FileFunction,Soldermask,Top*
G04 #@! TF.FilePolarity,Negative*
%FSLAX46Y46*%
G04 Gerber Fmt 4.6, Leading zero omitted, Abs format (unit mm)*
G04 Created by KiCad (PCBNEW 9.0.4) date 2025-09-07 15:09:32*
%MOMM*%
%LPD*%
G01*
G04 APERTURE LIST*
G04 Aperture macros list*
%AMRoundRect*
0 Rectangle with rounded corners*
0 $1 Rounding radius*
0 $2 $3 $4 $5 $6 $7 $8 $9 X,Y pos of 4 corners*
0 Add a 4 corners polygon primitive as box body*
4,1,4,$2,$3,$4,$5,$6,$7,$8,$9,$2,$3,0*
0 Add four circle primitives for the rounded corners*
1,1,$1+$1,$2,$3*
1,1,$1+$1,$4,$5*
1,1,$1+$1,$6,$7*
1,1,$1+$1,$8,$9*
0 Add four rect primitives between the rounded corners*
20,1,$1+$1,$2,$3,$4,$5,0*
20,1,$1+$1,$4,$5,$6,$7,0*
20,1,$1+$1,$6,$7,$8,$9,0*
20,1,$1+$1,$8,$9,$2,$3,0*%
G04 Aperture macros list end*
%ADD10RoundRect,0.250000X-0.475000X0.337500X-0.475000X-0.337500X0.475000X-0.337500X0.475000X0.337500X0*%
%ADD11R,1.500000X1.050000*%
%ADD12O,1.500000X1.050000*%
%ADD13RoundRect,0.250000X-0.350000X-0.450000X0.350000X-0.450000X0.350000X0.450000X-0.350000X0.450000X0*%
%ADD14RoundRect,0.250000X0.350000X0.450000X-0.350000X0.450000X-0.350000X-0.450000X0.350000X-0.450000X0*%
%ADD15RoundRect,0.250000X0.450000X-0.350000X0.450000X0.350000X-0.450000X0.350000X-0.450000X-0.350000X0*%
%ADD16RoundRect,0.250000X-0.350000X-0.625000X0.350000X-0.625000X0.350000X0.625000X-0.350000X0.625000X0*%
%ADD17O,1.200000X1.750000*%
%ADD18RoundRect,0.200000X-0.200000X0.750000X-0.200000X-0.750000X0.200000X-0.750000X0.200000X0.750000X0*%
%ADD19RoundRect,0.250000X-0.450000X0.350000X-0.450000X-0.350000X0.450000X-0.350000X0.450000X0.350000X0*%
%ADD20C,2.600000*%
%ADD21C,4.400000*%
%ADD22RoundRect,0.100000X-0.650000X-0.100000X0.650000X-0.100000X0.650000X0.100000X-0.650000X0.100000X0*%
%ADD23RoundRect,0.200000X0.200000X-0.750000X0.200000X0.750000X-0.200000X0.750000X-0.200000X-0.750000X0*%
%ADD24RoundRect,0.250000X0.350000X0.625000X-0.350000X0.625000X-0.350000X-0.625000X0.350000X-0.625000X0*%
G04 APERTURE END LIST*
D10*
G04 #@! TO.C,C3*
X125579135Y-51463251D03*
X125579135Y-53538251D03*
G04 #@! TD*
D11*
G04 #@! TO.C,Qr1*
X119200000Y-58900000D03*
D12*
X119200000Y-57630000D03*
X119200000Y-56360000D03*
G04 #@! TD*
D13*
G04 #@! TO.C,R13*
X98038410Y-64397837D03*
X100038410Y-64397837D03*
G04 #@! TD*
D14*
G04 #@! TO.C,R12*
X130900000Y-56656460D03*
X128900000Y-56656460D03*
G04 #@! TD*
D15*
G04 #@! TO.C,R7*
X94800000Y-58100000D03*
X94800000Y-56100000D03*
G04 #@! TD*
D13*
G04 #@! TO.C,R11*
X90900000Y-56700000D03*
X92900000Y-56700000D03*
G04 #@! TD*
D16*
G04 #@! TO.C,J2*
X109838410Y-64600000D03*
D17*
X111838410Y-64600000D03*
G04 #@! TD*
D10*
G04 #@! TO.C,C4*
X130079135Y-51463251D03*
X130079135Y-53538251D03*
G04 #@! TD*
D18*
G04 #@! TO.C,D1*
X99850000Y-58997837D03*
X97950000Y-58997837D03*
X98900000Y-61997837D03*
G04 #@! TD*
D19*
G04 #@! TO.C,R1*
X93420832Y-51503435D03*
X93420832Y-53503435D03*
G04 #@! TD*
D20*
G04 #@! TO.C,H1*
X91900000Y-65100000D03*
D21*
X91900000Y-65100000D03*
G04 #@! TD*
D13*
G04 #@! TO.C,R14*
X122100000Y-64400000D03*
X124100000Y-64400000D03*
G04 #@! TD*
D11*
G04 #@! TO.C,Ql1*
X103400000Y-58900000D03*
D12*
X103400000Y-57630000D03*
X103400000Y-56360000D03*
G04 #@! TD*
D20*
G04 #@! TO.C,H2*
X129900000Y-65100000D03*
D21*
X129900000Y-65100000D03*
G04 #@! TD*
D15*
G04 #@! TO.C,R10*
X127000000Y-58000000D03*
X127000000Y-56000000D03*
G04 #@! TD*
D22*
G04 #@! TO.C,Q2*
X125908410Y-59747837D03*
X125908410Y-60397837D03*
X125908410Y-61047837D03*
X128568410Y-61047837D03*
X128568410Y-60397837D03*
X128568410Y-59747837D03*
G04 #@! TD*
D19*
G04 #@! TO.C,R5*
X123379135Y-51530751D03*
X123379135Y-53530751D03*
G04 #@! TD*
D13*
G04 #@! TO.C,R8*
X96700000Y-56657837D03*
X98700000Y-56657837D03*
G04 #@! TD*
D15*
G04 #@! TO.C,R4*
X121138410Y-53530751D03*
X121138410Y-51530751D03*
G04 #@! TD*
D23*
G04 #@! TO.C,D2*
X122050000Y-62097837D03*
X123950000Y-62097837D03*
X123000000Y-59097837D03*
G04 #@! TD*
D19*
G04 #@! TO.C,R6*
X127879135Y-51530751D03*
X127879135Y-53530751D03*
G04 #@! TD*
D10*
G04 #@! TO.C,C1*
X91220832Y-51495935D03*
X91220832Y-53570935D03*
G04 #@! TD*
D22*
G04 #@! TO.C,Q1*
X93308410Y-59747837D03*
X93308410Y-60397837D03*
X93308410Y-61047837D03*
X95968410Y-61047837D03*
X95968410Y-60397837D03*
X95968410Y-59747837D03*
G04 #@! TD*
D24*
G04 #@! TO.C,J1*
X113933509Y-53500000D03*
D17*
X111933509Y-53500000D03*
X109933509Y-53500000D03*
X107933509Y-53500000D03*
G04 #@! TD*
D10*
G04 #@! TO.C,C2*
X95687082Y-51495935D03*
X95687082Y-53570935D03*
G04 #@! TD*
D11*
G04 #@! TO.C,Qr2*
X118373958Y-62506368D03*
D12*
X118373958Y-63776368D03*
X118373958Y-65046368D03*
G04 #@! TD*
D11*
G04 #@! TO.C,Ql2*
X102900537Y-62425426D03*
D12*
X102900537Y-63695426D03*
X102900537Y-64965426D03*
G04 #@! TD*
D19*
G04 #@! TO.C,R2*
X97887082Y-51503435D03*
X97887082Y-53503435D03*
G04 #@! TD*
D15*
G04 #@! TO.C,R3*
X100238410Y-53533435D03*
X100238410Y-51533435D03*
G04 #@! TD*
D13*
G04 #@! TO.C,R9*
X123090165Y-56656460D03*
X125090165Y-56656460D03*
G04 #@! TD*
M02*
