%TF.GenerationSoftware,KiCad,Pcbnew,9.0.3*%
%TF.CreationDate,2025-08-08T11:15:51+02:00*%
%TF.ProjectId,npn-pnp-h-bridge,6e706e2d-706e-4702-9d68-2d6272696467,rev?*%
%TF.SameCoordinates,Original*%
%TF.FileFunction,Drillmap*%
%TF.FilePolarity,Positive*%
%FSLAX45Y45*%
G04 Gerber Fmt 4.5, Leading zero omitted, Abs format (unit mm)*
G04 Created by KiCad (PCBNEW 9.0.3) date 2025-08-08 11:15:51*
%MOMM*%
%LPD*%
G01*
G04 APERTURE LIST*
%ADD10C,0.050000*%
%ADD11C,0.200000*%
%ADD12C,0.100000*%
G04 APERTURE END LIST*
D10*
X19050000Y-10725000D02*
X15170000Y-10725000D01*
X15170000Y-8886260D02*
X19050000Y-8886260D01*
X19050000Y-8886260D02*
G75*
G02*
X19150000Y-8986260I0J-100000D01*
G01*
X15070000Y-8986260D02*
G75*
G02*
X15170000Y-8886260I100000J0D01*
G01*
X15170000Y-10725000D02*
G75*
G02*
X15070000Y-10625000I0J100000D01*
G01*
X15070000Y-10625000D02*
X15070000Y-8986260D01*
X19150000Y-10625000D02*
G75*
G02*
X19050000Y-10725000I-100000J0D01*
G01*
X19150000Y-8986260D02*
X19150000Y-10625000D01*
D11*
D12*
X15365000Y-9835000D02*
X15395000Y-9865000D01*
X15395000Y-9835000D02*
X15365000Y-9865000D01*
X15375000Y-10435000D02*
X15405000Y-10465000D01*
X15405000Y-10435000D02*
X15375000Y-10465000D01*
X16105000Y-9148560D02*
X16135000Y-9178560D01*
X16135000Y-9148560D02*
X16105000Y-9178560D01*
X16105000Y-10546260D02*
X16135000Y-10576260D01*
X16135000Y-10546260D02*
X16105000Y-10576260D01*
X16105000Y-10621260D02*
X16135000Y-10651260D01*
X16135000Y-10621260D02*
X16105000Y-10651260D01*
X16580000Y-10396260D02*
X16610000Y-10426260D01*
X16610000Y-10396260D02*
X16580000Y-10426260D01*
X16705000Y-10396260D02*
X16735000Y-10426260D01*
X16735000Y-10396260D02*
X16705000Y-10426260D01*
X16830000Y-10396260D02*
X16860000Y-10426260D01*
X16860000Y-10396260D02*
X16830000Y-10426260D01*
X16955000Y-10396260D02*
X16985000Y-10426260D01*
X16985000Y-10396260D02*
X16955000Y-10426260D01*
X17180000Y-10396260D02*
X17210000Y-10426260D01*
X17210000Y-10396260D02*
X17180000Y-10426260D01*
X17305000Y-10396260D02*
X17335000Y-10426260D01*
X17335000Y-10396260D02*
X17305000Y-10426260D01*
X17430000Y-10396260D02*
X17460000Y-10426260D01*
X17460000Y-10396260D02*
X17430000Y-10426260D01*
X17555000Y-10396260D02*
X17585000Y-10426260D01*
X17585000Y-10396260D02*
X17555000Y-10426260D01*
X18030000Y-10546260D02*
X18060000Y-10576260D01*
X18060000Y-10546260D02*
X18030000Y-10576260D01*
X18030000Y-10621260D02*
X18060000Y-10651260D01*
X18060000Y-10621260D02*
X18030000Y-10651260D01*
X18095000Y-9148291D02*
X18125000Y-9178291D01*
X18125000Y-9148291D02*
X18095000Y-9178291D01*
X18785000Y-9818250D02*
X18815000Y-9848250D01*
X18815000Y-9818250D02*
X18785000Y-9848250D01*
X18785000Y-10425000D02*
X18815000Y-10455000D01*
X18815000Y-10425000D02*
X18785000Y-10455000D01*
X16323713Y-10142759D02*
G75*
G02*
X16248713Y-10142759I-37500J0D01*
G01*
X16248713Y-10142759D02*
G75*
G02*
X16323713Y-10142759I37500J0D01*
G01*
X16323713Y-10269759D02*
G75*
G02*
X16248713Y-10269759I-37500J0D01*
G01*
X16248713Y-10269759D02*
G75*
G02*
X16323713Y-10269759I37500J0D01*
G01*
X16323713Y-10396759D02*
G75*
G02*
X16248713Y-10396759I-37500J0D01*
G01*
X16248713Y-10396759D02*
G75*
G02*
X16323713Y-10396759I37500J0D01*
G01*
X16396713Y-9535759D02*
G75*
G02*
X16321713Y-9535759I-37500J0D01*
G01*
X16321713Y-9535759D02*
G75*
G02*
X16396713Y-9535759I37500J0D01*
G01*
X16396713Y-9662759D02*
G75*
G02*
X16321713Y-9662759I-37500J0D01*
G01*
X16321713Y-9662759D02*
G75*
G02*
X16396713Y-9662759I37500J0D01*
G01*
X16396713Y-9789759D02*
G75*
G02*
X16321713Y-9789759I-37500J0D01*
G01*
X16321713Y-9789759D02*
G75*
G02*
X16396713Y-9789759I37500J0D01*
G01*
X17871055Y-10150853D02*
G75*
G02*
X17796055Y-10150853I-37500J0D01*
G01*
X17796055Y-10150853D02*
G75*
G02*
X17871055Y-10150853I37500J0D01*
G01*
X17871055Y-10277853D02*
G75*
G02*
X17796055Y-10277853I-37500J0D01*
G01*
X17796055Y-10277853D02*
G75*
G02*
X17871055Y-10277853I37500J0D01*
G01*
X17871055Y-10404853D02*
G75*
G02*
X17796055Y-10404853I-37500J0D01*
G01*
X17796055Y-10404853D02*
G75*
G02*
X17871055Y-10404853I37500J0D01*
G01*
X17932500Y-9536853D02*
G75*
G02*
X17857500Y-9536853I-37500J0D01*
G01*
X17857500Y-9536853D02*
G75*
G02*
X17932500Y-9536853I37500J0D01*
G01*
X17932500Y-9663853D02*
G75*
G02*
X17857500Y-9663853I-37500J0D01*
G01*
X17857500Y-9663853D02*
G75*
G02*
X17932500Y-9663853I37500J0D01*
G01*
X17932500Y-9790853D02*
G75*
G02*
X17857500Y-9790853I-37500J0D01*
G01*
X17857500Y-9790853D02*
G75*
G02*
X17932500Y-9790853I37500J0D01*
G01*
X16789510Y-9473640D02*
X16789510Y-9549840D01*
X16751410Y-9511740D02*
X16827610Y-9511740D01*
X16989510Y-9473640D02*
X16989510Y-9549840D01*
X16951410Y-9511740D02*
X17027610Y-9511740D01*
X17189510Y-9473640D02*
X17189510Y-9549840D01*
X17151410Y-9511740D02*
X17227610Y-9511740D01*
X17389510Y-9473640D02*
X17389510Y-9549840D01*
X17351410Y-9511740D02*
X17427610Y-9511740D01*
X17008285Y-10148285D02*
X17008285Y-10091716D01*
X16951716Y-10091716D01*
X16951716Y-10148285D01*
X17008285Y-10148285D01*
X17208285Y-10148285D02*
X17208285Y-10091716D01*
X17151716Y-10091716D01*
X17151716Y-10148285D01*
X17208285Y-10148285D01*
D11*
X15328277Y-11038984D02*
X15328277Y-10838984D01*
X15328277Y-10838984D02*
X15375896Y-10838984D01*
X15375896Y-10838984D02*
X15404467Y-10848508D01*
X15404467Y-10848508D02*
X15423515Y-10867555D01*
X15423515Y-10867555D02*
X15433039Y-10886603D01*
X15433039Y-10886603D02*
X15442562Y-10924698D01*
X15442562Y-10924698D02*
X15442562Y-10953270D01*
X15442562Y-10953270D02*
X15433039Y-10991365D01*
X15433039Y-10991365D02*
X15423515Y-11010412D01*
X15423515Y-11010412D02*
X15404467Y-11029460D01*
X15404467Y-11029460D02*
X15375896Y-11038984D01*
X15375896Y-11038984D02*
X15328277Y-11038984D01*
X15528277Y-11038984D02*
X15528277Y-10905650D01*
X15528277Y-10943746D02*
X15537801Y-10924698D01*
X15537801Y-10924698D02*
X15547324Y-10915174D01*
X15547324Y-10915174D02*
X15566372Y-10905650D01*
X15566372Y-10905650D02*
X15585420Y-10905650D01*
X15652086Y-11038984D02*
X15652086Y-10905650D01*
X15652086Y-10838984D02*
X15642562Y-10848508D01*
X15642562Y-10848508D02*
X15652086Y-10858031D01*
X15652086Y-10858031D02*
X15661610Y-10848508D01*
X15661610Y-10848508D02*
X15652086Y-10838984D01*
X15652086Y-10838984D02*
X15652086Y-10858031D01*
X15775896Y-11038984D02*
X15756848Y-11029460D01*
X15756848Y-11029460D02*
X15747324Y-11010412D01*
X15747324Y-11010412D02*
X15747324Y-10838984D01*
X15880658Y-11038984D02*
X15861610Y-11029460D01*
X15861610Y-11029460D02*
X15852086Y-11010412D01*
X15852086Y-11010412D02*
X15852086Y-10838984D01*
X16109229Y-11038984D02*
X16109229Y-10838984D01*
X16109229Y-10838984D02*
X16175896Y-10981841D01*
X16175896Y-10981841D02*
X16242562Y-10838984D01*
X16242562Y-10838984D02*
X16242562Y-11038984D01*
X16423515Y-11038984D02*
X16423515Y-10934222D01*
X16423515Y-10934222D02*
X16413991Y-10915174D01*
X16413991Y-10915174D02*
X16394943Y-10905650D01*
X16394943Y-10905650D02*
X16356848Y-10905650D01*
X16356848Y-10905650D02*
X16337801Y-10915174D01*
X16423515Y-11029460D02*
X16404467Y-11038984D01*
X16404467Y-11038984D02*
X16356848Y-11038984D01*
X16356848Y-11038984D02*
X16337801Y-11029460D01*
X16337801Y-11029460D02*
X16328277Y-11010412D01*
X16328277Y-11010412D02*
X16328277Y-10991365D01*
X16328277Y-10991365D02*
X16337801Y-10972317D01*
X16337801Y-10972317D02*
X16356848Y-10962793D01*
X16356848Y-10962793D02*
X16404467Y-10962793D01*
X16404467Y-10962793D02*
X16423515Y-10953270D01*
X16518753Y-10905650D02*
X16518753Y-11105650D01*
X16518753Y-10915174D02*
X16537801Y-10905650D01*
X16537801Y-10905650D02*
X16575896Y-10905650D01*
X16575896Y-10905650D02*
X16594943Y-10915174D01*
X16594943Y-10915174D02*
X16604467Y-10924698D01*
X16604467Y-10924698D02*
X16613991Y-10943746D01*
X16613991Y-10943746D02*
X16613991Y-11000889D01*
X16613991Y-11000889D02*
X16604467Y-11019936D01*
X16604467Y-11019936D02*
X16594943Y-11029460D01*
X16594943Y-11029460D02*
X16575896Y-11038984D01*
X16575896Y-11038984D02*
X16537801Y-11038984D01*
X16537801Y-11038984D02*
X16518753Y-11029460D01*
X16699705Y-11019936D02*
X16709229Y-11029460D01*
X16709229Y-11029460D02*
X16699705Y-11038984D01*
X16699705Y-11038984D02*
X16690182Y-11029460D01*
X16690182Y-11029460D02*
X16699705Y-11019936D01*
X16699705Y-11019936D02*
X16699705Y-11038984D01*
X16699705Y-10915174D02*
X16709229Y-10924698D01*
X16709229Y-10924698D02*
X16699705Y-10934222D01*
X16699705Y-10934222D02*
X16690182Y-10924698D01*
X16690182Y-10924698D02*
X16699705Y-10915174D01*
X16699705Y-10915174D02*
X16699705Y-10934222D01*
D12*
X15037500Y-11352500D02*
X15067500Y-11382500D01*
X15067500Y-11352500D02*
X15037500Y-11382500D01*
D11*
X15366372Y-11258984D02*
X15385420Y-11258984D01*
X15385420Y-11258984D02*
X15404467Y-11268508D01*
X15404467Y-11268508D02*
X15413991Y-11278031D01*
X15413991Y-11278031D02*
X15423515Y-11297079D01*
X15423515Y-11297079D02*
X15433039Y-11335174D01*
X15433039Y-11335174D02*
X15433039Y-11382793D01*
X15433039Y-11382793D02*
X15423515Y-11420888D01*
X15423515Y-11420888D02*
X15413991Y-11439936D01*
X15413991Y-11439936D02*
X15404467Y-11449460D01*
X15404467Y-11449460D02*
X15385420Y-11458984D01*
X15385420Y-11458984D02*
X15366372Y-11458984D01*
X15366372Y-11458984D02*
X15347324Y-11449460D01*
X15347324Y-11449460D02*
X15337801Y-11439936D01*
X15337801Y-11439936D02*
X15328277Y-11420888D01*
X15328277Y-11420888D02*
X15318753Y-11382793D01*
X15318753Y-11382793D02*
X15318753Y-11335174D01*
X15318753Y-11335174D02*
X15328277Y-11297079D01*
X15328277Y-11297079D02*
X15337801Y-11278031D01*
X15337801Y-11278031D02*
X15347324Y-11268508D01*
X15347324Y-11268508D02*
X15366372Y-11258984D01*
X15518753Y-11439936D02*
X15528277Y-11449460D01*
X15528277Y-11449460D02*
X15518753Y-11458984D01*
X15518753Y-11458984D02*
X15509229Y-11449460D01*
X15509229Y-11449460D02*
X15518753Y-11439936D01*
X15518753Y-11439936D02*
X15518753Y-11458984D01*
X15594943Y-11258984D02*
X15718753Y-11258984D01*
X15718753Y-11258984D02*
X15652086Y-11335174D01*
X15652086Y-11335174D02*
X15680658Y-11335174D01*
X15680658Y-11335174D02*
X15699705Y-11344698D01*
X15699705Y-11344698D02*
X15709229Y-11354222D01*
X15709229Y-11354222D02*
X15718753Y-11373269D01*
X15718753Y-11373269D02*
X15718753Y-11420888D01*
X15718753Y-11420888D02*
X15709229Y-11439936D01*
X15709229Y-11439936D02*
X15699705Y-11449460D01*
X15699705Y-11449460D02*
X15680658Y-11458984D01*
X15680658Y-11458984D02*
X15623515Y-11458984D01*
X15623515Y-11458984D02*
X15604467Y-11449460D01*
X15604467Y-11449460D02*
X15594943Y-11439936D01*
X15842562Y-11258984D02*
X15861610Y-11258984D01*
X15861610Y-11258984D02*
X15880658Y-11268508D01*
X15880658Y-11268508D02*
X15890182Y-11278031D01*
X15890182Y-11278031D02*
X15899705Y-11297079D01*
X15899705Y-11297079D02*
X15909229Y-11335174D01*
X15909229Y-11335174D02*
X15909229Y-11382793D01*
X15909229Y-11382793D02*
X15899705Y-11420888D01*
X15899705Y-11420888D02*
X15890182Y-11439936D01*
X15890182Y-11439936D02*
X15880658Y-11449460D01*
X15880658Y-11449460D02*
X15861610Y-11458984D01*
X15861610Y-11458984D02*
X15842562Y-11458984D01*
X15842562Y-11458984D02*
X15823515Y-11449460D01*
X15823515Y-11449460D02*
X15813991Y-11439936D01*
X15813991Y-11439936D02*
X15804467Y-11420888D01*
X15804467Y-11420888D02*
X15794943Y-11382793D01*
X15794943Y-11382793D02*
X15794943Y-11335174D01*
X15794943Y-11335174D02*
X15804467Y-11297079D01*
X15804467Y-11297079D02*
X15813991Y-11278031D01*
X15813991Y-11278031D02*
X15823515Y-11268508D01*
X15823515Y-11268508D02*
X15842562Y-11258984D01*
X16033039Y-11258984D02*
X16052086Y-11258984D01*
X16052086Y-11258984D02*
X16071134Y-11268508D01*
X16071134Y-11268508D02*
X16080658Y-11278031D01*
X16080658Y-11278031D02*
X16090182Y-11297079D01*
X16090182Y-11297079D02*
X16099705Y-11335174D01*
X16099705Y-11335174D02*
X16099705Y-11382793D01*
X16099705Y-11382793D02*
X16090182Y-11420888D01*
X16090182Y-11420888D02*
X16080658Y-11439936D01*
X16080658Y-11439936D02*
X16071134Y-11449460D01*
X16071134Y-11449460D02*
X16052086Y-11458984D01*
X16052086Y-11458984D02*
X16033039Y-11458984D01*
X16033039Y-11458984D02*
X16013991Y-11449460D01*
X16013991Y-11449460D02*
X16004467Y-11439936D01*
X16004467Y-11439936D02*
X15994943Y-11420888D01*
X15994943Y-11420888D02*
X15985420Y-11382793D01*
X15985420Y-11382793D02*
X15985420Y-11335174D01*
X15985420Y-11335174D02*
X15994943Y-11297079D01*
X15994943Y-11297079D02*
X16004467Y-11278031D01*
X16004467Y-11278031D02*
X16013991Y-11268508D01*
X16013991Y-11268508D02*
X16033039Y-11258984D01*
X16185420Y-11458984D02*
X16185420Y-11325650D01*
X16185420Y-11344698D02*
X16194943Y-11335174D01*
X16194943Y-11335174D02*
X16213991Y-11325650D01*
X16213991Y-11325650D02*
X16242563Y-11325650D01*
X16242563Y-11325650D02*
X16261610Y-11335174D01*
X16261610Y-11335174D02*
X16271134Y-11354222D01*
X16271134Y-11354222D02*
X16271134Y-11458984D01*
X16271134Y-11354222D02*
X16280658Y-11335174D01*
X16280658Y-11335174D02*
X16299705Y-11325650D01*
X16299705Y-11325650D02*
X16328277Y-11325650D01*
X16328277Y-11325650D02*
X16347324Y-11335174D01*
X16347324Y-11335174D02*
X16356848Y-11354222D01*
X16356848Y-11354222D02*
X16356848Y-11458984D01*
X16452086Y-11458984D02*
X16452086Y-11325650D01*
X16452086Y-11344698D02*
X16461610Y-11335174D01*
X16461610Y-11335174D02*
X16480658Y-11325650D01*
X16480658Y-11325650D02*
X16509229Y-11325650D01*
X16509229Y-11325650D02*
X16528277Y-11335174D01*
X16528277Y-11335174D02*
X16537801Y-11354222D01*
X16537801Y-11354222D02*
X16537801Y-11458984D01*
X16537801Y-11354222D02*
X16547324Y-11335174D01*
X16547324Y-11335174D02*
X16566372Y-11325650D01*
X16566372Y-11325650D02*
X16594943Y-11325650D01*
X16594943Y-11325650D02*
X16613991Y-11335174D01*
X16613991Y-11335174D02*
X16623515Y-11354222D01*
X16623515Y-11354222D02*
X16623515Y-11458984D01*
X17013991Y-11249460D02*
X16842563Y-11506603D01*
X17271134Y-11258984D02*
X17290182Y-11258984D01*
X17290182Y-11258984D02*
X17309229Y-11268508D01*
X17309229Y-11268508D02*
X17318753Y-11278031D01*
X17318753Y-11278031D02*
X17328277Y-11297079D01*
X17328277Y-11297079D02*
X17337801Y-11335174D01*
X17337801Y-11335174D02*
X17337801Y-11382793D01*
X17337801Y-11382793D02*
X17328277Y-11420888D01*
X17328277Y-11420888D02*
X17318753Y-11439936D01*
X17318753Y-11439936D02*
X17309229Y-11449460D01*
X17309229Y-11449460D02*
X17290182Y-11458984D01*
X17290182Y-11458984D02*
X17271134Y-11458984D01*
X17271134Y-11458984D02*
X17252087Y-11449460D01*
X17252087Y-11449460D02*
X17242563Y-11439936D01*
X17242563Y-11439936D02*
X17233039Y-11420888D01*
X17233039Y-11420888D02*
X17223515Y-11382793D01*
X17223515Y-11382793D02*
X17223515Y-11335174D01*
X17223515Y-11335174D02*
X17233039Y-11297079D01*
X17233039Y-11297079D02*
X17242563Y-11278031D01*
X17242563Y-11278031D02*
X17252087Y-11268508D01*
X17252087Y-11268508D02*
X17271134Y-11258984D01*
X17423515Y-11439936D02*
X17433039Y-11449460D01*
X17433039Y-11449460D02*
X17423515Y-11458984D01*
X17423515Y-11458984D02*
X17413991Y-11449460D01*
X17413991Y-11449460D02*
X17423515Y-11439936D01*
X17423515Y-11439936D02*
X17423515Y-11458984D01*
X17556848Y-11258984D02*
X17575896Y-11258984D01*
X17575896Y-11258984D02*
X17594944Y-11268508D01*
X17594944Y-11268508D02*
X17604468Y-11278031D01*
X17604468Y-11278031D02*
X17613991Y-11297079D01*
X17613991Y-11297079D02*
X17623515Y-11335174D01*
X17623515Y-11335174D02*
X17623515Y-11382793D01*
X17623515Y-11382793D02*
X17613991Y-11420888D01*
X17613991Y-11420888D02*
X17604468Y-11439936D01*
X17604468Y-11439936D02*
X17594944Y-11449460D01*
X17594944Y-11449460D02*
X17575896Y-11458984D01*
X17575896Y-11458984D02*
X17556848Y-11458984D01*
X17556848Y-11458984D02*
X17537801Y-11449460D01*
X17537801Y-11449460D02*
X17528277Y-11439936D01*
X17528277Y-11439936D02*
X17518753Y-11420888D01*
X17518753Y-11420888D02*
X17509229Y-11382793D01*
X17509229Y-11382793D02*
X17509229Y-11335174D01*
X17509229Y-11335174D02*
X17518753Y-11297079D01*
X17518753Y-11297079D02*
X17528277Y-11278031D01*
X17528277Y-11278031D02*
X17537801Y-11268508D01*
X17537801Y-11268508D02*
X17556848Y-11258984D01*
X17813991Y-11458984D02*
X17699706Y-11458984D01*
X17756848Y-11458984D02*
X17756848Y-11258984D01*
X17756848Y-11258984D02*
X17737801Y-11287555D01*
X17737801Y-11287555D02*
X17718753Y-11306603D01*
X17718753Y-11306603D02*
X17699706Y-11316127D01*
X18004468Y-11458984D02*
X17890182Y-11458984D01*
X17947325Y-11458984D02*
X17947325Y-11258984D01*
X17947325Y-11258984D02*
X17928277Y-11287555D01*
X17928277Y-11287555D02*
X17909229Y-11306603D01*
X17909229Y-11306603D02*
X17890182Y-11316127D01*
X18118753Y-11344698D02*
X18099706Y-11335174D01*
X18099706Y-11335174D02*
X18090182Y-11325650D01*
X18090182Y-11325650D02*
X18080658Y-11306603D01*
X18080658Y-11306603D02*
X18080658Y-11297079D01*
X18080658Y-11297079D02*
X18090182Y-11278031D01*
X18090182Y-11278031D02*
X18099706Y-11268508D01*
X18099706Y-11268508D02*
X18118753Y-11258984D01*
X18118753Y-11258984D02*
X18156849Y-11258984D01*
X18156849Y-11258984D02*
X18175896Y-11268508D01*
X18175896Y-11268508D02*
X18185420Y-11278031D01*
X18185420Y-11278031D02*
X18194944Y-11297079D01*
X18194944Y-11297079D02*
X18194944Y-11306603D01*
X18194944Y-11306603D02*
X18185420Y-11325650D01*
X18185420Y-11325650D02*
X18175896Y-11335174D01*
X18175896Y-11335174D02*
X18156849Y-11344698D01*
X18156849Y-11344698D02*
X18118753Y-11344698D01*
X18118753Y-11344698D02*
X18099706Y-11354222D01*
X18099706Y-11354222D02*
X18090182Y-11363746D01*
X18090182Y-11363746D02*
X18080658Y-11382793D01*
X18080658Y-11382793D02*
X18080658Y-11420888D01*
X18080658Y-11420888D02*
X18090182Y-11439936D01*
X18090182Y-11439936D02*
X18099706Y-11449460D01*
X18099706Y-11449460D02*
X18118753Y-11458984D01*
X18118753Y-11458984D02*
X18156849Y-11458984D01*
X18156849Y-11458984D02*
X18175896Y-11449460D01*
X18175896Y-11449460D02*
X18185420Y-11439936D01*
X18185420Y-11439936D02*
X18194944Y-11420888D01*
X18194944Y-11420888D02*
X18194944Y-11382793D01*
X18194944Y-11382793D02*
X18185420Y-11363746D01*
X18185420Y-11363746D02*
X18175896Y-11354222D01*
X18175896Y-11354222D02*
X18156849Y-11344698D01*
X18271134Y-11258984D02*
X18271134Y-11297079D01*
X18347325Y-11258984D02*
X18347325Y-11297079D01*
X18642563Y-11535174D02*
X18633039Y-11525650D01*
X18633039Y-11525650D02*
X18613991Y-11497079D01*
X18613991Y-11497079D02*
X18604468Y-11478031D01*
X18604468Y-11478031D02*
X18594944Y-11449460D01*
X18594944Y-11449460D02*
X18585420Y-11401841D01*
X18585420Y-11401841D02*
X18585420Y-11363746D01*
X18585420Y-11363746D02*
X18594944Y-11316127D01*
X18594944Y-11316127D02*
X18604468Y-11287555D01*
X18604468Y-11287555D02*
X18613991Y-11268508D01*
X18613991Y-11268508D02*
X18633039Y-11239936D01*
X18633039Y-11239936D02*
X18642563Y-11230412D01*
X18823515Y-11458984D02*
X18709230Y-11458984D01*
X18766372Y-11458984D02*
X18766372Y-11258984D01*
X18766372Y-11258984D02*
X18747325Y-11287555D01*
X18747325Y-11287555D02*
X18728277Y-11306603D01*
X18728277Y-11306603D02*
X18709230Y-11316127D01*
X18937801Y-11344698D02*
X18918753Y-11335174D01*
X18918753Y-11335174D02*
X18909230Y-11325650D01*
X18909230Y-11325650D02*
X18899706Y-11306603D01*
X18899706Y-11306603D02*
X18899706Y-11297079D01*
X18899706Y-11297079D02*
X18909230Y-11278031D01*
X18909230Y-11278031D02*
X18918753Y-11268508D01*
X18918753Y-11268508D02*
X18937801Y-11258984D01*
X18937801Y-11258984D02*
X18975896Y-11258984D01*
X18975896Y-11258984D02*
X18994944Y-11268508D01*
X18994944Y-11268508D02*
X19004468Y-11278031D01*
X19004468Y-11278031D02*
X19013991Y-11297079D01*
X19013991Y-11297079D02*
X19013991Y-11306603D01*
X19013991Y-11306603D02*
X19004468Y-11325650D01*
X19004468Y-11325650D02*
X18994944Y-11335174D01*
X18994944Y-11335174D02*
X18975896Y-11344698D01*
X18975896Y-11344698D02*
X18937801Y-11344698D01*
X18937801Y-11344698D02*
X18918753Y-11354222D01*
X18918753Y-11354222D02*
X18909230Y-11363746D01*
X18909230Y-11363746D02*
X18899706Y-11382793D01*
X18899706Y-11382793D02*
X18899706Y-11420888D01*
X18899706Y-11420888D02*
X18909230Y-11439936D01*
X18909230Y-11439936D02*
X18918753Y-11449460D01*
X18918753Y-11449460D02*
X18937801Y-11458984D01*
X18937801Y-11458984D02*
X18975896Y-11458984D01*
X18975896Y-11458984D02*
X18994944Y-11449460D01*
X18994944Y-11449460D02*
X19004468Y-11439936D01*
X19004468Y-11439936D02*
X19013991Y-11420888D01*
X19013991Y-11420888D02*
X19013991Y-11382793D01*
X19013991Y-11382793D02*
X19004468Y-11363746D01*
X19004468Y-11363746D02*
X18994944Y-11354222D01*
X18994944Y-11354222D02*
X18975896Y-11344698D01*
X19252087Y-11458984D02*
X19252087Y-11258984D01*
X19337801Y-11458984D02*
X19337801Y-11354222D01*
X19337801Y-11354222D02*
X19328277Y-11335174D01*
X19328277Y-11335174D02*
X19309230Y-11325650D01*
X19309230Y-11325650D02*
X19280658Y-11325650D01*
X19280658Y-11325650D02*
X19261611Y-11335174D01*
X19261611Y-11335174D02*
X19252087Y-11344698D01*
X19461611Y-11458984D02*
X19442563Y-11449460D01*
X19442563Y-11449460D02*
X19433039Y-11439936D01*
X19433039Y-11439936D02*
X19423515Y-11420888D01*
X19423515Y-11420888D02*
X19423515Y-11363746D01*
X19423515Y-11363746D02*
X19433039Y-11344698D01*
X19433039Y-11344698D02*
X19442563Y-11335174D01*
X19442563Y-11335174D02*
X19461611Y-11325650D01*
X19461611Y-11325650D02*
X19490182Y-11325650D01*
X19490182Y-11325650D02*
X19509230Y-11335174D01*
X19509230Y-11335174D02*
X19518753Y-11344698D01*
X19518753Y-11344698D02*
X19528277Y-11363746D01*
X19528277Y-11363746D02*
X19528277Y-11420888D01*
X19528277Y-11420888D02*
X19518753Y-11439936D01*
X19518753Y-11439936D02*
X19509230Y-11449460D01*
X19509230Y-11449460D02*
X19490182Y-11458984D01*
X19490182Y-11458984D02*
X19461611Y-11458984D01*
X19642563Y-11458984D02*
X19623515Y-11449460D01*
X19623515Y-11449460D02*
X19613992Y-11430412D01*
X19613992Y-11430412D02*
X19613992Y-11258984D01*
X19794944Y-11449460D02*
X19775896Y-11458984D01*
X19775896Y-11458984D02*
X19737801Y-11458984D01*
X19737801Y-11458984D02*
X19718753Y-11449460D01*
X19718753Y-11449460D02*
X19709230Y-11430412D01*
X19709230Y-11430412D02*
X19709230Y-11354222D01*
X19709230Y-11354222D02*
X19718753Y-11335174D01*
X19718753Y-11335174D02*
X19737801Y-11325650D01*
X19737801Y-11325650D02*
X19775896Y-11325650D01*
X19775896Y-11325650D02*
X19794944Y-11335174D01*
X19794944Y-11335174D02*
X19804468Y-11354222D01*
X19804468Y-11354222D02*
X19804468Y-11373269D01*
X19804468Y-11373269D02*
X19709230Y-11392317D01*
X19880658Y-11449460D02*
X19899706Y-11458984D01*
X19899706Y-11458984D02*
X19937801Y-11458984D01*
X19937801Y-11458984D02*
X19956849Y-11449460D01*
X19956849Y-11449460D02*
X19966373Y-11430412D01*
X19966373Y-11430412D02*
X19966373Y-11420888D01*
X19966373Y-11420888D02*
X19956849Y-11401841D01*
X19956849Y-11401841D02*
X19937801Y-11392317D01*
X19937801Y-11392317D02*
X19909230Y-11392317D01*
X19909230Y-11392317D02*
X19890182Y-11382793D01*
X19890182Y-11382793D02*
X19880658Y-11363746D01*
X19880658Y-11363746D02*
X19880658Y-11354222D01*
X19880658Y-11354222D02*
X19890182Y-11335174D01*
X19890182Y-11335174D02*
X19909230Y-11325650D01*
X19909230Y-11325650D02*
X19937801Y-11325650D01*
X19937801Y-11325650D02*
X19956849Y-11335174D01*
X20033039Y-11535174D02*
X20042563Y-11525650D01*
X20042563Y-11525650D02*
X20061611Y-11497079D01*
X20061611Y-11497079D02*
X20071134Y-11478031D01*
X20071134Y-11478031D02*
X20080658Y-11449460D01*
X20080658Y-11449460D02*
X20090182Y-11401841D01*
X20090182Y-11401841D02*
X20090182Y-11363746D01*
X20090182Y-11363746D02*
X20080658Y-11316127D01*
X20080658Y-11316127D02*
X20071134Y-11287555D01*
X20071134Y-11287555D02*
X20061611Y-11268508D01*
X20061611Y-11268508D02*
X20042563Y-11239936D01*
X20042563Y-11239936D02*
X20033039Y-11230412D01*
D12*
X15067500Y-11631500D02*
G75*
G02*
X14992500Y-11631500I-37500J0D01*
G01*
X14992500Y-11631500D02*
G75*
G02*
X15067500Y-11631500I37500J0D01*
G01*
D11*
X15366372Y-11522984D02*
X15385420Y-11522984D01*
X15385420Y-11522984D02*
X15404467Y-11532508D01*
X15404467Y-11532508D02*
X15413991Y-11542031D01*
X15413991Y-11542031D02*
X15423515Y-11561079D01*
X15423515Y-11561079D02*
X15433039Y-11599174D01*
X15433039Y-11599174D02*
X15433039Y-11646793D01*
X15433039Y-11646793D02*
X15423515Y-11684888D01*
X15423515Y-11684888D02*
X15413991Y-11703936D01*
X15413991Y-11703936D02*
X15404467Y-11713460D01*
X15404467Y-11713460D02*
X15385420Y-11722984D01*
X15385420Y-11722984D02*
X15366372Y-11722984D01*
X15366372Y-11722984D02*
X15347324Y-11713460D01*
X15347324Y-11713460D02*
X15337801Y-11703936D01*
X15337801Y-11703936D02*
X15328277Y-11684888D01*
X15328277Y-11684888D02*
X15318753Y-11646793D01*
X15318753Y-11646793D02*
X15318753Y-11599174D01*
X15318753Y-11599174D02*
X15328277Y-11561079D01*
X15328277Y-11561079D02*
X15337801Y-11542031D01*
X15337801Y-11542031D02*
X15347324Y-11532508D01*
X15347324Y-11532508D02*
X15366372Y-11522984D01*
X15518753Y-11703936D02*
X15528277Y-11713460D01*
X15528277Y-11713460D02*
X15518753Y-11722984D01*
X15518753Y-11722984D02*
X15509229Y-11713460D01*
X15509229Y-11713460D02*
X15518753Y-11703936D01*
X15518753Y-11703936D02*
X15518753Y-11722984D01*
X15594943Y-11522984D02*
X15728277Y-11522984D01*
X15728277Y-11522984D02*
X15642562Y-11722984D01*
X15899705Y-11522984D02*
X15804467Y-11522984D01*
X15804467Y-11522984D02*
X15794943Y-11618222D01*
X15794943Y-11618222D02*
X15804467Y-11608698D01*
X15804467Y-11608698D02*
X15823515Y-11599174D01*
X15823515Y-11599174D02*
X15871134Y-11599174D01*
X15871134Y-11599174D02*
X15890182Y-11608698D01*
X15890182Y-11608698D02*
X15899705Y-11618222D01*
X15899705Y-11618222D02*
X15909229Y-11637269D01*
X15909229Y-11637269D02*
X15909229Y-11684888D01*
X15909229Y-11684888D02*
X15899705Y-11703936D01*
X15899705Y-11703936D02*
X15890182Y-11713460D01*
X15890182Y-11713460D02*
X15871134Y-11722984D01*
X15871134Y-11722984D02*
X15823515Y-11722984D01*
X15823515Y-11722984D02*
X15804467Y-11713460D01*
X15804467Y-11713460D02*
X15794943Y-11703936D01*
X16033039Y-11522984D02*
X16052086Y-11522984D01*
X16052086Y-11522984D02*
X16071134Y-11532508D01*
X16071134Y-11532508D02*
X16080658Y-11542031D01*
X16080658Y-11542031D02*
X16090182Y-11561079D01*
X16090182Y-11561079D02*
X16099705Y-11599174D01*
X16099705Y-11599174D02*
X16099705Y-11646793D01*
X16099705Y-11646793D02*
X16090182Y-11684888D01*
X16090182Y-11684888D02*
X16080658Y-11703936D01*
X16080658Y-11703936D02*
X16071134Y-11713460D01*
X16071134Y-11713460D02*
X16052086Y-11722984D01*
X16052086Y-11722984D02*
X16033039Y-11722984D01*
X16033039Y-11722984D02*
X16013991Y-11713460D01*
X16013991Y-11713460D02*
X16004467Y-11703936D01*
X16004467Y-11703936D02*
X15994943Y-11684888D01*
X15994943Y-11684888D02*
X15985420Y-11646793D01*
X15985420Y-11646793D02*
X15985420Y-11599174D01*
X15985420Y-11599174D02*
X15994943Y-11561079D01*
X15994943Y-11561079D02*
X16004467Y-11542031D01*
X16004467Y-11542031D02*
X16013991Y-11532508D01*
X16013991Y-11532508D02*
X16033039Y-11522984D01*
X16185420Y-11722984D02*
X16185420Y-11589650D01*
X16185420Y-11608698D02*
X16194943Y-11599174D01*
X16194943Y-11599174D02*
X16213991Y-11589650D01*
X16213991Y-11589650D02*
X16242563Y-11589650D01*
X16242563Y-11589650D02*
X16261610Y-11599174D01*
X16261610Y-11599174D02*
X16271134Y-11618222D01*
X16271134Y-11618222D02*
X16271134Y-11722984D01*
X16271134Y-11618222D02*
X16280658Y-11599174D01*
X16280658Y-11599174D02*
X16299705Y-11589650D01*
X16299705Y-11589650D02*
X16328277Y-11589650D01*
X16328277Y-11589650D02*
X16347324Y-11599174D01*
X16347324Y-11599174D02*
X16356848Y-11618222D01*
X16356848Y-11618222D02*
X16356848Y-11722984D01*
X16452086Y-11722984D02*
X16452086Y-11589650D01*
X16452086Y-11608698D02*
X16461610Y-11599174D01*
X16461610Y-11599174D02*
X16480658Y-11589650D01*
X16480658Y-11589650D02*
X16509229Y-11589650D01*
X16509229Y-11589650D02*
X16528277Y-11599174D01*
X16528277Y-11599174D02*
X16537801Y-11618222D01*
X16537801Y-11618222D02*
X16537801Y-11722984D01*
X16537801Y-11618222D02*
X16547324Y-11599174D01*
X16547324Y-11599174D02*
X16566372Y-11589650D01*
X16566372Y-11589650D02*
X16594943Y-11589650D01*
X16594943Y-11589650D02*
X16613991Y-11599174D01*
X16613991Y-11599174D02*
X16623515Y-11618222D01*
X16623515Y-11618222D02*
X16623515Y-11722984D01*
X17013991Y-11513460D02*
X16842563Y-11770603D01*
X17271134Y-11522984D02*
X17290182Y-11522984D01*
X17290182Y-11522984D02*
X17309229Y-11532508D01*
X17309229Y-11532508D02*
X17318753Y-11542031D01*
X17318753Y-11542031D02*
X17328277Y-11561079D01*
X17328277Y-11561079D02*
X17337801Y-11599174D01*
X17337801Y-11599174D02*
X17337801Y-11646793D01*
X17337801Y-11646793D02*
X17328277Y-11684888D01*
X17328277Y-11684888D02*
X17318753Y-11703936D01*
X17318753Y-11703936D02*
X17309229Y-11713460D01*
X17309229Y-11713460D02*
X17290182Y-11722984D01*
X17290182Y-11722984D02*
X17271134Y-11722984D01*
X17271134Y-11722984D02*
X17252087Y-11713460D01*
X17252087Y-11713460D02*
X17242563Y-11703936D01*
X17242563Y-11703936D02*
X17233039Y-11684888D01*
X17233039Y-11684888D02*
X17223515Y-11646793D01*
X17223515Y-11646793D02*
X17223515Y-11599174D01*
X17223515Y-11599174D02*
X17233039Y-11561079D01*
X17233039Y-11561079D02*
X17242563Y-11542031D01*
X17242563Y-11542031D02*
X17252087Y-11532508D01*
X17252087Y-11532508D02*
X17271134Y-11522984D01*
X17423515Y-11703936D02*
X17433039Y-11713460D01*
X17433039Y-11713460D02*
X17423515Y-11722984D01*
X17423515Y-11722984D02*
X17413991Y-11713460D01*
X17413991Y-11713460D02*
X17423515Y-11703936D01*
X17423515Y-11703936D02*
X17423515Y-11722984D01*
X17556848Y-11522984D02*
X17575896Y-11522984D01*
X17575896Y-11522984D02*
X17594944Y-11532508D01*
X17594944Y-11532508D02*
X17604468Y-11542031D01*
X17604468Y-11542031D02*
X17613991Y-11561079D01*
X17613991Y-11561079D02*
X17623515Y-11599174D01*
X17623515Y-11599174D02*
X17623515Y-11646793D01*
X17623515Y-11646793D02*
X17613991Y-11684888D01*
X17613991Y-11684888D02*
X17604468Y-11703936D01*
X17604468Y-11703936D02*
X17594944Y-11713460D01*
X17594944Y-11713460D02*
X17575896Y-11722984D01*
X17575896Y-11722984D02*
X17556848Y-11722984D01*
X17556848Y-11722984D02*
X17537801Y-11713460D01*
X17537801Y-11713460D02*
X17528277Y-11703936D01*
X17528277Y-11703936D02*
X17518753Y-11684888D01*
X17518753Y-11684888D02*
X17509229Y-11646793D01*
X17509229Y-11646793D02*
X17509229Y-11599174D01*
X17509229Y-11599174D02*
X17518753Y-11561079D01*
X17518753Y-11561079D02*
X17528277Y-11542031D01*
X17528277Y-11542031D02*
X17537801Y-11532508D01*
X17537801Y-11532508D02*
X17556848Y-11522984D01*
X17699706Y-11542031D02*
X17709229Y-11532508D01*
X17709229Y-11532508D02*
X17728277Y-11522984D01*
X17728277Y-11522984D02*
X17775896Y-11522984D01*
X17775896Y-11522984D02*
X17794944Y-11532508D01*
X17794944Y-11532508D02*
X17804468Y-11542031D01*
X17804468Y-11542031D02*
X17813991Y-11561079D01*
X17813991Y-11561079D02*
X17813991Y-11580127D01*
X17813991Y-11580127D02*
X17804468Y-11608698D01*
X17804468Y-11608698D02*
X17690182Y-11722984D01*
X17690182Y-11722984D02*
X17813991Y-11722984D01*
X17909229Y-11722984D02*
X17947325Y-11722984D01*
X17947325Y-11722984D02*
X17966372Y-11713460D01*
X17966372Y-11713460D02*
X17975896Y-11703936D01*
X17975896Y-11703936D02*
X17994944Y-11675365D01*
X17994944Y-11675365D02*
X18004468Y-11637269D01*
X18004468Y-11637269D02*
X18004468Y-11561079D01*
X18004468Y-11561079D02*
X17994944Y-11542031D01*
X17994944Y-11542031D02*
X17985420Y-11532508D01*
X17985420Y-11532508D02*
X17966372Y-11522984D01*
X17966372Y-11522984D02*
X17928277Y-11522984D01*
X17928277Y-11522984D02*
X17909229Y-11532508D01*
X17909229Y-11532508D02*
X17899706Y-11542031D01*
X17899706Y-11542031D02*
X17890182Y-11561079D01*
X17890182Y-11561079D02*
X17890182Y-11608698D01*
X17890182Y-11608698D02*
X17899706Y-11627746D01*
X17899706Y-11627746D02*
X17909229Y-11637269D01*
X17909229Y-11637269D02*
X17928277Y-11646793D01*
X17928277Y-11646793D02*
X17966372Y-11646793D01*
X17966372Y-11646793D02*
X17985420Y-11637269D01*
X17985420Y-11637269D02*
X17994944Y-11627746D01*
X17994944Y-11627746D02*
X18004468Y-11608698D01*
X18185420Y-11522984D02*
X18090182Y-11522984D01*
X18090182Y-11522984D02*
X18080658Y-11618222D01*
X18080658Y-11618222D02*
X18090182Y-11608698D01*
X18090182Y-11608698D02*
X18109229Y-11599174D01*
X18109229Y-11599174D02*
X18156849Y-11599174D01*
X18156849Y-11599174D02*
X18175896Y-11608698D01*
X18175896Y-11608698D02*
X18185420Y-11618222D01*
X18185420Y-11618222D02*
X18194944Y-11637269D01*
X18194944Y-11637269D02*
X18194944Y-11684888D01*
X18194944Y-11684888D02*
X18185420Y-11703936D01*
X18185420Y-11703936D02*
X18175896Y-11713460D01*
X18175896Y-11713460D02*
X18156849Y-11722984D01*
X18156849Y-11722984D02*
X18109229Y-11722984D01*
X18109229Y-11722984D02*
X18090182Y-11713460D01*
X18090182Y-11713460D02*
X18080658Y-11703936D01*
X18271134Y-11522984D02*
X18271134Y-11561079D01*
X18347325Y-11522984D02*
X18347325Y-11561079D01*
X18642563Y-11799174D02*
X18633039Y-11789650D01*
X18633039Y-11789650D02*
X18613991Y-11761079D01*
X18613991Y-11761079D02*
X18604468Y-11742031D01*
X18604468Y-11742031D02*
X18594944Y-11713460D01*
X18594944Y-11713460D02*
X18585420Y-11665841D01*
X18585420Y-11665841D02*
X18585420Y-11627746D01*
X18585420Y-11627746D02*
X18594944Y-11580127D01*
X18594944Y-11580127D02*
X18604468Y-11551555D01*
X18604468Y-11551555D02*
X18613991Y-11532508D01*
X18613991Y-11532508D02*
X18633039Y-11503936D01*
X18633039Y-11503936D02*
X18642563Y-11494412D01*
X18823515Y-11722984D02*
X18709230Y-11722984D01*
X18766372Y-11722984D02*
X18766372Y-11522984D01*
X18766372Y-11522984D02*
X18747325Y-11551555D01*
X18747325Y-11551555D02*
X18728277Y-11570603D01*
X18728277Y-11570603D02*
X18709230Y-11580127D01*
X18899706Y-11542031D02*
X18909230Y-11532508D01*
X18909230Y-11532508D02*
X18928277Y-11522984D01*
X18928277Y-11522984D02*
X18975896Y-11522984D01*
X18975896Y-11522984D02*
X18994944Y-11532508D01*
X18994944Y-11532508D02*
X19004468Y-11542031D01*
X19004468Y-11542031D02*
X19013991Y-11561079D01*
X19013991Y-11561079D02*
X19013991Y-11580127D01*
X19013991Y-11580127D02*
X19004468Y-11608698D01*
X19004468Y-11608698D02*
X18890182Y-11722984D01*
X18890182Y-11722984D02*
X19013991Y-11722984D01*
X19252087Y-11722984D02*
X19252087Y-11522984D01*
X19337801Y-11722984D02*
X19337801Y-11618222D01*
X19337801Y-11618222D02*
X19328277Y-11599174D01*
X19328277Y-11599174D02*
X19309230Y-11589650D01*
X19309230Y-11589650D02*
X19280658Y-11589650D01*
X19280658Y-11589650D02*
X19261611Y-11599174D01*
X19261611Y-11599174D02*
X19252087Y-11608698D01*
X19461611Y-11722984D02*
X19442563Y-11713460D01*
X19442563Y-11713460D02*
X19433039Y-11703936D01*
X19433039Y-11703936D02*
X19423515Y-11684888D01*
X19423515Y-11684888D02*
X19423515Y-11627746D01*
X19423515Y-11627746D02*
X19433039Y-11608698D01*
X19433039Y-11608698D02*
X19442563Y-11599174D01*
X19442563Y-11599174D02*
X19461611Y-11589650D01*
X19461611Y-11589650D02*
X19490182Y-11589650D01*
X19490182Y-11589650D02*
X19509230Y-11599174D01*
X19509230Y-11599174D02*
X19518753Y-11608698D01*
X19518753Y-11608698D02*
X19528277Y-11627746D01*
X19528277Y-11627746D02*
X19528277Y-11684888D01*
X19528277Y-11684888D02*
X19518753Y-11703936D01*
X19518753Y-11703936D02*
X19509230Y-11713460D01*
X19509230Y-11713460D02*
X19490182Y-11722984D01*
X19490182Y-11722984D02*
X19461611Y-11722984D01*
X19642563Y-11722984D02*
X19623515Y-11713460D01*
X19623515Y-11713460D02*
X19613992Y-11694412D01*
X19613992Y-11694412D02*
X19613992Y-11522984D01*
X19794944Y-11713460D02*
X19775896Y-11722984D01*
X19775896Y-11722984D02*
X19737801Y-11722984D01*
X19737801Y-11722984D02*
X19718753Y-11713460D01*
X19718753Y-11713460D02*
X19709230Y-11694412D01*
X19709230Y-11694412D02*
X19709230Y-11618222D01*
X19709230Y-11618222D02*
X19718753Y-11599174D01*
X19718753Y-11599174D02*
X19737801Y-11589650D01*
X19737801Y-11589650D02*
X19775896Y-11589650D01*
X19775896Y-11589650D02*
X19794944Y-11599174D01*
X19794944Y-11599174D02*
X19804468Y-11618222D01*
X19804468Y-11618222D02*
X19804468Y-11637269D01*
X19804468Y-11637269D02*
X19709230Y-11656317D01*
X19880658Y-11713460D02*
X19899706Y-11722984D01*
X19899706Y-11722984D02*
X19937801Y-11722984D01*
X19937801Y-11722984D02*
X19956849Y-11713460D01*
X19956849Y-11713460D02*
X19966373Y-11694412D01*
X19966373Y-11694412D02*
X19966373Y-11684888D01*
X19966373Y-11684888D02*
X19956849Y-11665841D01*
X19956849Y-11665841D02*
X19937801Y-11656317D01*
X19937801Y-11656317D02*
X19909230Y-11656317D01*
X19909230Y-11656317D02*
X19890182Y-11646793D01*
X19890182Y-11646793D02*
X19880658Y-11627746D01*
X19880658Y-11627746D02*
X19880658Y-11618222D01*
X19880658Y-11618222D02*
X19890182Y-11599174D01*
X19890182Y-11599174D02*
X19909230Y-11589650D01*
X19909230Y-11589650D02*
X19937801Y-11589650D01*
X19937801Y-11589650D02*
X19956849Y-11599174D01*
X20033039Y-11799174D02*
X20042563Y-11789650D01*
X20042563Y-11789650D02*
X20061611Y-11761079D01*
X20061611Y-11761079D02*
X20071134Y-11742031D01*
X20071134Y-11742031D02*
X20080658Y-11713460D01*
X20080658Y-11713460D02*
X20090182Y-11665841D01*
X20090182Y-11665841D02*
X20090182Y-11627746D01*
X20090182Y-11627746D02*
X20080658Y-11580127D01*
X20080658Y-11580127D02*
X20071134Y-11551555D01*
X20071134Y-11551555D02*
X20061611Y-11532508D01*
X20061611Y-11532508D02*
X20042563Y-11503936D01*
X20042563Y-11503936D02*
X20033039Y-11494412D01*
D12*
X15029400Y-11857400D02*
X15029400Y-11933600D01*
X14991300Y-11895500D02*
X15067500Y-11895500D01*
D11*
X15366372Y-11786984D02*
X15385420Y-11786984D01*
X15385420Y-11786984D02*
X15404467Y-11796508D01*
X15404467Y-11796508D02*
X15413991Y-11806031D01*
X15413991Y-11806031D02*
X15423515Y-11825079D01*
X15423515Y-11825079D02*
X15433039Y-11863174D01*
X15433039Y-11863174D02*
X15433039Y-11910793D01*
X15433039Y-11910793D02*
X15423515Y-11948888D01*
X15423515Y-11948888D02*
X15413991Y-11967936D01*
X15413991Y-11967936D02*
X15404467Y-11977460D01*
X15404467Y-11977460D02*
X15385420Y-11986984D01*
X15385420Y-11986984D02*
X15366372Y-11986984D01*
X15366372Y-11986984D02*
X15347324Y-11977460D01*
X15347324Y-11977460D02*
X15337801Y-11967936D01*
X15337801Y-11967936D02*
X15328277Y-11948888D01*
X15328277Y-11948888D02*
X15318753Y-11910793D01*
X15318753Y-11910793D02*
X15318753Y-11863174D01*
X15318753Y-11863174D02*
X15328277Y-11825079D01*
X15328277Y-11825079D02*
X15337801Y-11806031D01*
X15337801Y-11806031D02*
X15347324Y-11796508D01*
X15347324Y-11796508D02*
X15366372Y-11786984D01*
X15518753Y-11967936D02*
X15528277Y-11977460D01*
X15528277Y-11977460D02*
X15518753Y-11986984D01*
X15518753Y-11986984D02*
X15509229Y-11977460D01*
X15509229Y-11977460D02*
X15518753Y-11967936D01*
X15518753Y-11967936D02*
X15518753Y-11986984D01*
X15594943Y-11786984D02*
X15728277Y-11786984D01*
X15728277Y-11786984D02*
X15642562Y-11986984D01*
X15890182Y-11786984D02*
X15852086Y-11786984D01*
X15852086Y-11786984D02*
X15833039Y-11796508D01*
X15833039Y-11796508D02*
X15823515Y-11806031D01*
X15823515Y-11806031D02*
X15804467Y-11834603D01*
X15804467Y-11834603D02*
X15794943Y-11872698D01*
X15794943Y-11872698D02*
X15794943Y-11948888D01*
X15794943Y-11948888D02*
X15804467Y-11967936D01*
X15804467Y-11967936D02*
X15813991Y-11977460D01*
X15813991Y-11977460D02*
X15833039Y-11986984D01*
X15833039Y-11986984D02*
X15871134Y-11986984D01*
X15871134Y-11986984D02*
X15890182Y-11977460D01*
X15890182Y-11977460D02*
X15899705Y-11967936D01*
X15899705Y-11967936D02*
X15909229Y-11948888D01*
X15909229Y-11948888D02*
X15909229Y-11901269D01*
X15909229Y-11901269D02*
X15899705Y-11882222D01*
X15899705Y-11882222D02*
X15890182Y-11872698D01*
X15890182Y-11872698D02*
X15871134Y-11863174D01*
X15871134Y-11863174D02*
X15833039Y-11863174D01*
X15833039Y-11863174D02*
X15813991Y-11872698D01*
X15813991Y-11872698D02*
X15804467Y-11882222D01*
X15804467Y-11882222D02*
X15794943Y-11901269D01*
X15985420Y-11806031D02*
X15994943Y-11796508D01*
X15994943Y-11796508D02*
X16013991Y-11786984D01*
X16013991Y-11786984D02*
X16061610Y-11786984D01*
X16061610Y-11786984D02*
X16080658Y-11796508D01*
X16080658Y-11796508D02*
X16090182Y-11806031D01*
X16090182Y-11806031D02*
X16099705Y-11825079D01*
X16099705Y-11825079D02*
X16099705Y-11844127D01*
X16099705Y-11844127D02*
X16090182Y-11872698D01*
X16090182Y-11872698D02*
X15975896Y-11986984D01*
X15975896Y-11986984D02*
X16099705Y-11986984D01*
X16185420Y-11986984D02*
X16185420Y-11853650D01*
X16185420Y-11872698D02*
X16194943Y-11863174D01*
X16194943Y-11863174D02*
X16213991Y-11853650D01*
X16213991Y-11853650D02*
X16242563Y-11853650D01*
X16242563Y-11853650D02*
X16261610Y-11863174D01*
X16261610Y-11863174D02*
X16271134Y-11882222D01*
X16271134Y-11882222D02*
X16271134Y-11986984D01*
X16271134Y-11882222D02*
X16280658Y-11863174D01*
X16280658Y-11863174D02*
X16299705Y-11853650D01*
X16299705Y-11853650D02*
X16328277Y-11853650D01*
X16328277Y-11853650D02*
X16347324Y-11863174D01*
X16347324Y-11863174D02*
X16356848Y-11882222D01*
X16356848Y-11882222D02*
X16356848Y-11986984D01*
X16452086Y-11986984D02*
X16452086Y-11853650D01*
X16452086Y-11872698D02*
X16461610Y-11863174D01*
X16461610Y-11863174D02*
X16480658Y-11853650D01*
X16480658Y-11853650D02*
X16509229Y-11853650D01*
X16509229Y-11853650D02*
X16528277Y-11863174D01*
X16528277Y-11863174D02*
X16537801Y-11882222D01*
X16537801Y-11882222D02*
X16537801Y-11986984D01*
X16537801Y-11882222D02*
X16547324Y-11863174D01*
X16547324Y-11863174D02*
X16566372Y-11853650D01*
X16566372Y-11853650D02*
X16594943Y-11853650D01*
X16594943Y-11853650D02*
X16613991Y-11863174D01*
X16613991Y-11863174D02*
X16623515Y-11882222D01*
X16623515Y-11882222D02*
X16623515Y-11986984D01*
X17013991Y-11777460D02*
X16842563Y-12034603D01*
X17271134Y-11786984D02*
X17290182Y-11786984D01*
X17290182Y-11786984D02*
X17309229Y-11796508D01*
X17309229Y-11796508D02*
X17318753Y-11806031D01*
X17318753Y-11806031D02*
X17328277Y-11825079D01*
X17328277Y-11825079D02*
X17337801Y-11863174D01*
X17337801Y-11863174D02*
X17337801Y-11910793D01*
X17337801Y-11910793D02*
X17328277Y-11948888D01*
X17328277Y-11948888D02*
X17318753Y-11967936D01*
X17318753Y-11967936D02*
X17309229Y-11977460D01*
X17309229Y-11977460D02*
X17290182Y-11986984D01*
X17290182Y-11986984D02*
X17271134Y-11986984D01*
X17271134Y-11986984D02*
X17252087Y-11977460D01*
X17252087Y-11977460D02*
X17242563Y-11967936D01*
X17242563Y-11967936D02*
X17233039Y-11948888D01*
X17233039Y-11948888D02*
X17223515Y-11910793D01*
X17223515Y-11910793D02*
X17223515Y-11863174D01*
X17223515Y-11863174D02*
X17233039Y-11825079D01*
X17233039Y-11825079D02*
X17242563Y-11806031D01*
X17242563Y-11806031D02*
X17252087Y-11796508D01*
X17252087Y-11796508D02*
X17271134Y-11786984D01*
X17423515Y-11967936D02*
X17433039Y-11977460D01*
X17433039Y-11977460D02*
X17423515Y-11986984D01*
X17423515Y-11986984D02*
X17413991Y-11977460D01*
X17413991Y-11977460D02*
X17423515Y-11967936D01*
X17423515Y-11967936D02*
X17423515Y-11986984D01*
X17556848Y-11786984D02*
X17575896Y-11786984D01*
X17575896Y-11786984D02*
X17594944Y-11796508D01*
X17594944Y-11796508D02*
X17604468Y-11806031D01*
X17604468Y-11806031D02*
X17613991Y-11825079D01*
X17613991Y-11825079D02*
X17623515Y-11863174D01*
X17623515Y-11863174D02*
X17623515Y-11910793D01*
X17623515Y-11910793D02*
X17613991Y-11948888D01*
X17613991Y-11948888D02*
X17604468Y-11967936D01*
X17604468Y-11967936D02*
X17594944Y-11977460D01*
X17594944Y-11977460D02*
X17575896Y-11986984D01*
X17575896Y-11986984D02*
X17556848Y-11986984D01*
X17556848Y-11986984D02*
X17537801Y-11977460D01*
X17537801Y-11977460D02*
X17528277Y-11967936D01*
X17528277Y-11967936D02*
X17518753Y-11948888D01*
X17518753Y-11948888D02*
X17509229Y-11910793D01*
X17509229Y-11910793D02*
X17509229Y-11863174D01*
X17509229Y-11863174D02*
X17518753Y-11825079D01*
X17518753Y-11825079D02*
X17528277Y-11806031D01*
X17528277Y-11806031D02*
X17537801Y-11796508D01*
X17537801Y-11796508D02*
X17556848Y-11786984D01*
X17690182Y-11786984D02*
X17813991Y-11786984D01*
X17813991Y-11786984D02*
X17747325Y-11863174D01*
X17747325Y-11863174D02*
X17775896Y-11863174D01*
X17775896Y-11863174D02*
X17794944Y-11872698D01*
X17794944Y-11872698D02*
X17804468Y-11882222D01*
X17804468Y-11882222D02*
X17813991Y-11901269D01*
X17813991Y-11901269D02*
X17813991Y-11948888D01*
X17813991Y-11948888D02*
X17804468Y-11967936D01*
X17804468Y-11967936D02*
X17794944Y-11977460D01*
X17794944Y-11977460D02*
X17775896Y-11986984D01*
X17775896Y-11986984D02*
X17718753Y-11986984D01*
X17718753Y-11986984D02*
X17699706Y-11977460D01*
X17699706Y-11977460D02*
X17690182Y-11967936D01*
X17937801Y-11786984D02*
X17956849Y-11786984D01*
X17956849Y-11786984D02*
X17975896Y-11796508D01*
X17975896Y-11796508D02*
X17985420Y-11806031D01*
X17985420Y-11806031D02*
X17994944Y-11825079D01*
X17994944Y-11825079D02*
X18004468Y-11863174D01*
X18004468Y-11863174D02*
X18004468Y-11910793D01*
X18004468Y-11910793D02*
X17994944Y-11948888D01*
X17994944Y-11948888D02*
X17985420Y-11967936D01*
X17985420Y-11967936D02*
X17975896Y-11977460D01*
X17975896Y-11977460D02*
X17956849Y-11986984D01*
X17956849Y-11986984D02*
X17937801Y-11986984D01*
X17937801Y-11986984D02*
X17918753Y-11977460D01*
X17918753Y-11977460D02*
X17909229Y-11967936D01*
X17909229Y-11967936D02*
X17899706Y-11948888D01*
X17899706Y-11948888D02*
X17890182Y-11910793D01*
X17890182Y-11910793D02*
X17890182Y-11863174D01*
X17890182Y-11863174D02*
X17899706Y-11825079D01*
X17899706Y-11825079D02*
X17909229Y-11806031D01*
X17909229Y-11806031D02*
X17918753Y-11796508D01*
X17918753Y-11796508D02*
X17937801Y-11786984D01*
X18128277Y-11786984D02*
X18147325Y-11786984D01*
X18147325Y-11786984D02*
X18166372Y-11796508D01*
X18166372Y-11796508D02*
X18175896Y-11806031D01*
X18175896Y-11806031D02*
X18185420Y-11825079D01*
X18185420Y-11825079D02*
X18194944Y-11863174D01*
X18194944Y-11863174D02*
X18194944Y-11910793D01*
X18194944Y-11910793D02*
X18185420Y-11948888D01*
X18185420Y-11948888D02*
X18175896Y-11967936D01*
X18175896Y-11967936D02*
X18166372Y-11977460D01*
X18166372Y-11977460D02*
X18147325Y-11986984D01*
X18147325Y-11986984D02*
X18128277Y-11986984D01*
X18128277Y-11986984D02*
X18109229Y-11977460D01*
X18109229Y-11977460D02*
X18099706Y-11967936D01*
X18099706Y-11967936D02*
X18090182Y-11948888D01*
X18090182Y-11948888D02*
X18080658Y-11910793D01*
X18080658Y-11910793D02*
X18080658Y-11863174D01*
X18080658Y-11863174D02*
X18090182Y-11825079D01*
X18090182Y-11825079D02*
X18099706Y-11806031D01*
X18099706Y-11806031D02*
X18109229Y-11796508D01*
X18109229Y-11796508D02*
X18128277Y-11786984D01*
X18271134Y-11786984D02*
X18271134Y-11825079D01*
X18347325Y-11786984D02*
X18347325Y-11825079D01*
X18642563Y-12063174D02*
X18633039Y-12053650D01*
X18633039Y-12053650D02*
X18613991Y-12025079D01*
X18613991Y-12025079D02*
X18604468Y-12006031D01*
X18604468Y-12006031D02*
X18594944Y-11977460D01*
X18594944Y-11977460D02*
X18585420Y-11929841D01*
X18585420Y-11929841D02*
X18585420Y-11891746D01*
X18585420Y-11891746D02*
X18594944Y-11844127D01*
X18594944Y-11844127D02*
X18604468Y-11815555D01*
X18604468Y-11815555D02*
X18613991Y-11796508D01*
X18613991Y-11796508D02*
X18633039Y-11767936D01*
X18633039Y-11767936D02*
X18642563Y-11758412D01*
X18804468Y-11853650D02*
X18804468Y-11986984D01*
X18756849Y-11777460D02*
X18709230Y-11920317D01*
X18709230Y-11920317D02*
X18833039Y-11920317D01*
X19061611Y-11986984D02*
X19061611Y-11786984D01*
X19147325Y-11986984D02*
X19147325Y-11882222D01*
X19147325Y-11882222D02*
X19137801Y-11863174D01*
X19137801Y-11863174D02*
X19118753Y-11853650D01*
X19118753Y-11853650D02*
X19090182Y-11853650D01*
X19090182Y-11853650D02*
X19071134Y-11863174D01*
X19071134Y-11863174D02*
X19061611Y-11872698D01*
X19271134Y-11986984D02*
X19252087Y-11977460D01*
X19252087Y-11977460D02*
X19242563Y-11967936D01*
X19242563Y-11967936D02*
X19233039Y-11948888D01*
X19233039Y-11948888D02*
X19233039Y-11891746D01*
X19233039Y-11891746D02*
X19242563Y-11872698D01*
X19242563Y-11872698D02*
X19252087Y-11863174D01*
X19252087Y-11863174D02*
X19271134Y-11853650D01*
X19271134Y-11853650D02*
X19299706Y-11853650D01*
X19299706Y-11853650D02*
X19318753Y-11863174D01*
X19318753Y-11863174D02*
X19328277Y-11872698D01*
X19328277Y-11872698D02*
X19337801Y-11891746D01*
X19337801Y-11891746D02*
X19337801Y-11948888D01*
X19337801Y-11948888D02*
X19328277Y-11967936D01*
X19328277Y-11967936D02*
X19318753Y-11977460D01*
X19318753Y-11977460D02*
X19299706Y-11986984D01*
X19299706Y-11986984D02*
X19271134Y-11986984D01*
X19452087Y-11986984D02*
X19433039Y-11977460D01*
X19433039Y-11977460D02*
X19423515Y-11958412D01*
X19423515Y-11958412D02*
X19423515Y-11786984D01*
X19604468Y-11977460D02*
X19585420Y-11986984D01*
X19585420Y-11986984D02*
X19547325Y-11986984D01*
X19547325Y-11986984D02*
X19528277Y-11977460D01*
X19528277Y-11977460D02*
X19518753Y-11958412D01*
X19518753Y-11958412D02*
X19518753Y-11882222D01*
X19518753Y-11882222D02*
X19528277Y-11863174D01*
X19528277Y-11863174D02*
X19547325Y-11853650D01*
X19547325Y-11853650D02*
X19585420Y-11853650D01*
X19585420Y-11853650D02*
X19604468Y-11863174D01*
X19604468Y-11863174D02*
X19613992Y-11882222D01*
X19613992Y-11882222D02*
X19613992Y-11901269D01*
X19613992Y-11901269D02*
X19518753Y-11920317D01*
X19690182Y-11977460D02*
X19709230Y-11986984D01*
X19709230Y-11986984D02*
X19747325Y-11986984D01*
X19747325Y-11986984D02*
X19766373Y-11977460D01*
X19766373Y-11977460D02*
X19775896Y-11958412D01*
X19775896Y-11958412D02*
X19775896Y-11948888D01*
X19775896Y-11948888D02*
X19766373Y-11929841D01*
X19766373Y-11929841D02*
X19747325Y-11920317D01*
X19747325Y-11920317D02*
X19718753Y-11920317D01*
X19718753Y-11920317D02*
X19699706Y-11910793D01*
X19699706Y-11910793D02*
X19690182Y-11891746D01*
X19690182Y-11891746D02*
X19690182Y-11882222D01*
X19690182Y-11882222D02*
X19699706Y-11863174D01*
X19699706Y-11863174D02*
X19718753Y-11853650D01*
X19718753Y-11853650D02*
X19747325Y-11853650D01*
X19747325Y-11853650D02*
X19766373Y-11863174D01*
X19842563Y-12063174D02*
X19852087Y-12053650D01*
X19852087Y-12053650D02*
X19871134Y-12025079D01*
X19871134Y-12025079D02*
X19880658Y-12006031D01*
X19880658Y-12006031D02*
X19890182Y-11977460D01*
X19890182Y-11977460D02*
X19899706Y-11929841D01*
X19899706Y-11929841D02*
X19899706Y-11891746D01*
X19899706Y-11891746D02*
X19890182Y-11844127D01*
X19890182Y-11844127D02*
X19880658Y-11815555D01*
X19880658Y-11815555D02*
X19871134Y-11796508D01*
X19871134Y-11796508D02*
X19852087Y-11767936D01*
X19852087Y-11767936D02*
X19842563Y-11758412D01*
D12*
X15055784Y-12187784D02*
X15055784Y-12131215D01*
X14999215Y-12131215D01*
X14999215Y-12187784D01*
X15055784Y-12187784D01*
D11*
X15366372Y-12050984D02*
X15385420Y-12050984D01*
X15385420Y-12050984D02*
X15404467Y-12060508D01*
X15404467Y-12060508D02*
X15413991Y-12070031D01*
X15413991Y-12070031D02*
X15423515Y-12089079D01*
X15423515Y-12089079D02*
X15433039Y-12127174D01*
X15433039Y-12127174D02*
X15433039Y-12174793D01*
X15433039Y-12174793D02*
X15423515Y-12212888D01*
X15423515Y-12212888D02*
X15413991Y-12231936D01*
X15413991Y-12231936D02*
X15404467Y-12241460D01*
X15404467Y-12241460D02*
X15385420Y-12250984D01*
X15385420Y-12250984D02*
X15366372Y-12250984D01*
X15366372Y-12250984D02*
X15347324Y-12241460D01*
X15347324Y-12241460D02*
X15337801Y-12231936D01*
X15337801Y-12231936D02*
X15328277Y-12212888D01*
X15328277Y-12212888D02*
X15318753Y-12174793D01*
X15318753Y-12174793D02*
X15318753Y-12127174D01*
X15318753Y-12127174D02*
X15328277Y-12089079D01*
X15328277Y-12089079D02*
X15337801Y-12070031D01*
X15337801Y-12070031D02*
X15347324Y-12060508D01*
X15347324Y-12060508D02*
X15366372Y-12050984D01*
X15518753Y-12231936D02*
X15528277Y-12241460D01*
X15528277Y-12241460D02*
X15518753Y-12250984D01*
X15518753Y-12250984D02*
X15509229Y-12241460D01*
X15509229Y-12241460D02*
X15518753Y-12231936D01*
X15518753Y-12231936D02*
X15518753Y-12250984D01*
X15642562Y-12136698D02*
X15623515Y-12127174D01*
X15623515Y-12127174D02*
X15613991Y-12117650D01*
X15613991Y-12117650D02*
X15604467Y-12098603D01*
X15604467Y-12098603D02*
X15604467Y-12089079D01*
X15604467Y-12089079D02*
X15613991Y-12070031D01*
X15613991Y-12070031D02*
X15623515Y-12060508D01*
X15623515Y-12060508D02*
X15642562Y-12050984D01*
X15642562Y-12050984D02*
X15680658Y-12050984D01*
X15680658Y-12050984D02*
X15699705Y-12060508D01*
X15699705Y-12060508D02*
X15709229Y-12070031D01*
X15709229Y-12070031D02*
X15718753Y-12089079D01*
X15718753Y-12089079D02*
X15718753Y-12098603D01*
X15718753Y-12098603D02*
X15709229Y-12117650D01*
X15709229Y-12117650D02*
X15699705Y-12127174D01*
X15699705Y-12127174D02*
X15680658Y-12136698D01*
X15680658Y-12136698D02*
X15642562Y-12136698D01*
X15642562Y-12136698D02*
X15623515Y-12146222D01*
X15623515Y-12146222D02*
X15613991Y-12155746D01*
X15613991Y-12155746D02*
X15604467Y-12174793D01*
X15604467Y-12174793D02*
X15604467Y-12212888D01*
X15604467Y-12212888D02*
X15613991Y-12231936D01*
X15613991Y-12231936D02*
X15623515Y-12241460D01*
X15623515Y-12241460D02*
X15642562Y-12250984D01*
X15642562Y-12250984D02*
X15680658Y-12250984D01*
X15680658Y-12250984D02*
X15699705Y-12241460D01*
X15699705Y-12241460D02*
X15709229Y-12231936D01*
X15709229Y-12231936D02*
X15718753Y-12212888D01*
X15718753Y-12212888D02*
X15718753Y-12174793D01*
X15718753Y-12174793D02*
X15709229Y-12155746D01*
X15709229Y-12155746D02*
X15699705Y-12146222D01*
X15699705Y-12146222D02*
X15680658Y-12136698D01*
X15842562Y-12050984D02*
X15861610Y-12050984D01*
X15861610Y-12050984D02*
X15880658Y-12060508D01*
X15880658Y-12060508D02*
X15890182Y-12070031D01*
X15890182Y-12070031D02*
X15899705Y-12089079D01*
X15899705Y-12089079D02*
X15909229Y-12127174D01*
X15909229Y-12127174D02*
X15909229Y-12174793D01*
X15909229Y-12174793D02*
X15899705Y-12212888D01*
X15899705Y-12212888D02*
X15890182Y-12231936D01*
X15890182Y-12231936D02*
X15880658Y-12241460D01*
X15880658Y-12241460D02*
X15861610Y-12250984D01*
X15861610Y-12250984D02*
X15842562Y-12250984D01*
X15842562Y-12250984D02*
X15823515Y-12241460D01*
X15823515Y-12241460D02*
X15813991Y-12231936D01*
X15813991Y-12231936D02*
X15804467Y-12212888D01*
X15804467Y-12212888D02*
X15794943Y-12174793D01*
X15794943Y-12174793D02*
X15794943Y-12127174D01*
X15794943Y-12127174D02*
X15804467Y-12089079D01*
X15804467Y-12089079D02*
X15813991Y-12070031D01*
X15813991Y-12070031D02*
X15823515Y-12060508D01*
X15823515Y-12060508D02*
X15842562Y-12050984D01*
X16033039Y-12050984D02*
X16052086Y-12050984D01*
X16052086Y-12050984D02*
X16071134Y-12060508D01*
X16071134Y-12060508D02*
X16080658Y-12070031D01*
X16080658Y-12070031D02*
X16090182Y-12089079D01*
X16090182Y-12089079D02*
X16099705Y-12127174D01*
X16099705Y-12127174D02*
X16099705Y-12174793D01*
X16099705Y-12174793D02*
X16090182Y-12212888D01*
X16090182Y-12212888D02*
X16080658Y-12231936D01*
X16080658Y-12231936D02*
X16071134Y-12241460D01*
X16071134Y-12241460D02*
X16052086Y-12250984D01*
X16052086Y-12250984D02*
X16033039Y-12250984D01*
X16033039Y-12250984D02*
X16013991Y-12241460D01*
X16013991Y-12241460D02*
X16004467Y-12231936D01*
X16004467Y-12231936D02*
X15994943Y-12212888D01*
X15994943Y-12212888D02*
X15985420Y-12174793D01*
X15985420Y-12174793D02*
X15985420Y-12127174D01*
X15985420Y-12127174D02*
X15994943Y-12089079D01*
X15994943Y-12089079D02*
X16004467Y-12070031D01*
X16004467Y-12070031D02*
X16013991Y-12060508D01*
X16013991Y-12060508D02*
X16033039Y-12050984D01*
X16185420Y-12250984D02*
X16185420Y-12117650D01*
X16185420Y-12136698D02*
X16194943Y-12127174D01*
X16194943Y-12127174D02*
X16213991Y-12117650D01*
X16213991Y-12117650D02*
X16242563Y-12117650D01*
X16242563Y-12117650D02*
X16261610Y-12127174D01*
X16261610Y-12127174D02*
X16271134Y-12146222D01*
X16271134Y-12146222D02*
X16271134Y-12250984D01*
X16271134Y-12146222D02*
X16280658Y-12127174D01*
X16280658Y-12127174D02*
X16299705Y-12117650D01*
X16299705Y-12117650D02*
X16328277Y-12117650D01*
X16328277Y-12117650D02*
X16347324Y-12127174D01*
X16347324Y-12127174D02*
X16356848Y-12146222D01*
X16356848Y-12146222D02*
X16356848Y-12250984D01*
X16452086Y-12250984D02*
X16452086Y-12117650D01*
X16452086Y-12136698D02*
X16461610Y-12127174D01*
X16461610Y-12127174D02*
X16480658Y-12117650D01*
X16480658Y-12117650D02*
X16509229Y-12117650D01*
X16509229Y-12117650D02*
X16528277Y-12127174D01*
X16528277Y-12127174D02*
X16537801Y-12146222D01*
X16537801Y-12146222D02*
X16537801Y-12250984D01*
X16537801Y-12146222D02*
X16547324Y-12127174D01*
X16547324Y-12127174D02*
X16566372Y-12117650D01*
X16566372Y-12117650D02*
X16594943Y-12117650D01*
X16594943Y-12117650D02*
X16613991Y-12127174D01*
X16613991Y-12127174D02*
X16623515Y-12146222D01*
X16623515Y-12146222D02*
X16623515Y-12250984D01*
X17013991Y-12041460D02*
X16842563Y-12298603D01*
X17271134Y-12050984D02*
X17290182Y-12050984D01*
X17290182Y-12050984D02*
X17309229Y-12060508D01*
X17309229Y-12060508D02*
X17318753Y-12070031D01*
X17318753Y-12070031D02*
X17328277Y-12089079D01*
X17328277Y-12089079D02*
X17337801Y-12127174D01*
X17337801Y-12127174D02*
X17337801Y-12174793D01*
X17337801Y-12174793D02*
X17328277Y-12212888D01*
X17328277Y-12212888D02*
X17318753Y-12231936D01*
X17318753Y-12231936D02*
X17309229Y-12241460D01*
X17309229Y-12241460D02*
X17290182Y-12250984D01*
X17290182Y-12250984D02*
X17271134Y-12250984D01*
X17271134Y-12250984D02*
X17252087Y-12241460D01*
X17252087Y-12241460D02*
X17242563Y-12231936D01*
X17242563Y-12231936D02*
X17233039Y-12212888D01*
X17233039Y-12212888D02*
X17223515Y-12174793D01*
X17223515Y-12174793D02*
X17223515Y-12127174D01*
X17223515Y-12127174D02*
X17233039Y-12089079D01*
X17233039Y-12089079D02*
X17242563Y-12070031D01*
X17242563Y-12070031D02*
X17252087Y-12060508D01*
X17252087Y-12060508D02*
X17271134Y-12050984D01*
X17423515Y-12231936D02*
X17433039Y-12241460D01*
X17433039Y-12241460D02*
X17423515Y-12250984D01*
X17423515Y-12250984D02*
X17413991Y-12241460D01*
X17413991Y-12241460D02*
X17423515Y-12231936D01*
X17423515Y-12231936D02*
X17423515Y-12250984D01*
X17556848Y-12050984D02*
X17575896Y-12050984D01*
X17575896Y-12050984D02*
X17594944Y-12060508D01*
X17594944Y-12060508D02*
X17604468Y-12070031D01*
X17604468Y-12070031D02*
X17613991Y-12089079D01*
X17613991Y-12089079D02*
X17623515Y-12127174D01*
X17623515Y-12127174D02*
X17623515Y-12174793D01*
X17623515Y-12174793D02*
X17613991Y-12212888D01*
X17613991Y-12212888D02*
X17604468Y-12231936D01*
X17604468Y-12231936D02*
X17594944Y-12241460D01*
X17594944Y-12241460D02*
X17575896Y-12250984D01*
X17575896Y-12250984D02*
X17556848Y-12250984D01*
X17556848Y-12250984D02*
X17537801Y-12241460D01*
X17537801Y-12241460D02*
X17528277Y-12231936D01*
X17528277Y-12231936D02*
X17518753Y-12212888D01*
X17518753Y-12212888D02*
X17509229Y-12174793D01*
X17509229Y-12174793D02*
X17509229Y-12127174D01*
X17509229Y-12127174D02*
X17518753Y-12089079D01*
X17518753Y-12089079D02*
X17528277Y-12070031D01*
X17528277Y-12070031D02*
X17537801Y-12060508D01*
X17537801Y-12060508D02*
X17556848Y-12050984D01*
X17690182Y-12050984D02*
X17813991Y-12050984D01*
X17813991Y-12050984D02*
X17747325Y-12127174D01*
X17747325Y-12127174D02*
X17775896Y-12127174D01*
X17775896Y-12127174D02*
X17794944Y-12136698D01*
X17794944Y-12136698D02*
X17804468Y-12146222D01*
X17804468Y-12146222D02*
X17813991Y-12165269D01*
X17813991Y-12165269D02*
X17813991Y-12212888D01*
X17813991Y-12212888D02*
X17804468Y-12231936D01*
X17804468Y-12231936D02*
X17794944Y-12241460D01*
X17794944Y-12241460D02*
X17775896Y-12250984D01*
X17775896Y-12250984D02*
X17718753Y-12250984D01*
X17718753Y-12250984D02*
X17699706Y-12241460D01*
X17699706Y-12241460D02*
X17690182Y-12231936D01*
X18004468Y-12250984D02*
X17890182Y-12250984D01*
X17947325Y-12250984D02*
X17947325Y-12050984D01*
X17947325Y-12050984D02*
X17928277Y-12079555D01*
X17928277Y-12079555D02*
X17909229Y-12098603D01*
X17909229Y-12098603D02*
X17890182Y-12108127D01*
X18185420Y-12050984D02*
X18090182Y-12050984D01*
X18090182Y-12050984D02*
X18080658Y-12146222D01*
X18080658Y-12146222D02*
X18090182Y-12136698D01*
X18090182Y-12136698D02*
X18109229Y-12127174D01*
X18109229Y-12127174D02*
X18156849Y-12127174D01*
X18156849Y-12127174D02*
X18175896Y-12136698D01*
X18175896Y-12136698D02*
X18185420Y-12146222D01*
X18185420Y-12146222D02*
X18194944Y-12165269D01*
X18194944Y-12165269D02*
X18194944Y-12212888D01*
X18194944Y-12212888D02*
X18185420Y-12231936D01*
X18185420Y-12231936D02*
X18175896Y-12241460D01*
X18175896Y-12241460D02*
X18156849Y-12250984D01*
X18156849Y-12250984D02*
X18109229Y-12250984D01*
X18109229Y-12250984D02*
X18090182Y-12241460D01*
X18090182Y-12241460D02*
X18080658Y-12231936D01*
X18271134Y-12050984D02*
X18271134Y-12089079D01*
X18347325Y-12050984D02*
X18347325Y-12089079D01*
X18642563Y-12327174D02*
X18633039Y-12317650D01*
X18633039Y-12317650D02*
X18613991Y-12289079D01*
X18613991Y-12289079D02*
X18604468Y-12270031D01*
X18604468Y-12270031D02*
X18594944Y-12241460D01*
X18594944Y-12241460D02*
X18585420Y-12193841D01*
X18585420Y-12193841D02*
X18585420Y-12155746D01*
X18585420Y-12155746D02*
X18594944Y-12108127D01*
X18594944Y-12108127D02*
X18604468Y-12079555D01*
X18604468Y-12079555D02*
X18613991Y-12060508D01*
X18613991Y-12060508D02*
X18633039Y-12031936D01*
X18633039Y-12031936D02*
X18642563Y-12022412D01*
X18709230Y-12070031D02*
X18718753Y-12060508D01*
X18718753Y-12060508D02*
X18737801Y-12050984D01*
X18737801Y-12050984D02*
X18785420Y-12050984D01*
X18785420Y-12050984D02*
X18804468Y-12060508D01*
X18804468Y-12060508D02*
X18813991Y-12070031D01*
X18813991Y-12070031D02*
X18823515Y-12089079D01*
X18823515Y-12089079D02*
X18823515Y-12108127D01*
X18823515Y-12108127D02*
X18813991Y-12136698D01*
X18813991Y-12136698D02*
X18699706Y-12250984D01*
X18699706Y-12250984D02*
X18823515Y-12250984D01*
X19061611Y-12250984D02*
X19061611Y-12050984D01*
X19147325Y-12250984D02*
X19147325Y-12146222D01*
X19147325Y-12146222D02*
X19137801Y-12127174D01*
X19137801Y-12127174D02*
X19118753Y-12117650D01*
X19118753Y-12117650D02*
X19090182Y-12117650D01*
X19090182Y-12117650D02*
X19071134Y-12127174D01*
X19071134Y-12127174D02*
X19061611Y-12136698D01*
X19271134Y-12250984D02*
X19252087Y-12241460D01*
X19252087Y-12241460D02*
X19242563Y-12231936D01*
X19242563Y-12231936D02*
X19233039Y-12212888D01*
X19233039Y-12212888D02*
X19233039Y-12155746D01*
X19233039Y-12155746D02*
X19242563Y-12136698D01*
X19242563Y-12136698D02*
X19252087Y-12127174D01*
X19252087Y-12127174D02*
X19271134Y-12117650D01*
X19271134Y-12117650D02*
X19299706Y-12117650D01*
X19299706Y-12117650D02*
X19318753Y-12127174D01*
X19318753Y-12127174D02*
X19328277Y-12136698D01*
X19328277Y-12136698D02*
X19337801Y-12155746D01*
X19337801Y-12155746D02*
X19337801Y-12212888D01*
X19337801Y-12212888D02*
X19328277Y-12231936D01*
X19328277Y-12231936D02*
X19318753Y-12241460D01*
X19318753Y-12241460D02*
X19299706Y-12250984D01*
X19299706Y-12250984D02*
X19271134Y-12250984D01*
X19452087Y-12250984D02*
X19433039Y-12241460D01*
X19433039Y-12241460D02*
X19423515Y-12222412D01*
X19423515Y-12222412D02*
X19423515Y-12050984D01*
X19604468Y-12241460D02*
X19585420Y-12250984D01*
X19585420Y-12250984D02*
X19547325Y-12250984D01*
X19547325Y-12250984D02*
X19528277Y-12241460D01*
X19528277Y-12241460D02*
X19518753Y-12222412D01*
X19518753Y-12222412D02*
X19518753Y-12146222D01*
X19518753Y-12146222D02*
X19528277Y-12127174D01*
X19528277Y-12127174D02*
X19547325Y-12117650D01*
X19547325Y-12117650D02*
X19585420Y-12117650D01*
X19585420Y-12117650D02*
X19604468Y-12127174D01*
X19604468Y-12127174D02*
X19613992Y-12146222D01*
X19613992Y-12146222D02*
X19613992Y-12165269D01*
X19613992Y-12165269D02*
X19518753Y-12184317D01*
X19690182Y-12241460D02*
X19709230Y-12250984D01*
X19709230Y-12250984D02*
X19747325Y-12250984D01*
X19747325Y-12250984D02*
X19766373Y-12241460D01*
X19766373Y-12241460D02*
X19775896Y-12222412D01*
X19775896Y-12222412D02*
X19775896Y-12212888D01*
X19775896Y-12212888D02*
X19766373Y-12193841D01*
X19766373Y-12193841D02*
X19747325Y-12184317D01*
X19747325Y-12184317D02*
X19718753Y-12184317D01*
X19718753Y-12184317D02*
X19699706Y-12174793D01*
X19699706Y-12174793D02*
X19690182Y-12155746D01*
X19690182Y-12155746D02*
X19690182Y-12146222D01*
X19690182Y-12146222D02*
X19699706Y-12127174D01*
X19699706Y-12127174D02*
X19718753Y-12117650D01*
X19718753Y-12117650D02*
X19747325Y-12117650D01*
X19747325Y-12117650D02*
X19766373Y-12127174D01*
X19842563Y-12327174D02*
X19852087Y-12317650D01*
X19852087Y-12317650D02*
X19871134Y-12289079D01*
X19871134Y-12289079D02*
X19880658Y-12270031D01*
X19880658Y-12270031D02*
X19890182Y-12241460D01*
X19890182Y-12241460D02*
X19899706Y-12193841D01*
X19899706Y-12193841D02*
X19899706Y-12155746D01*
X19899706Y-12155746D02*
X19890182Y-12108127D01*
X19890182Y-12108127D02*
X19880658Y-12079555D01*
X19880658Y-12079555D02*
X19871134Y-12060508D01*
X19871134Y-12060508D02*
X19852087Y-12031936D01*
X19852087Y-12031936D02*
X19842563Y-12022412D01*
M02*
