%TF.GenerationSoftware,KiCad,Pcbnew,9.0.4*%
%TF.CreationDate,2025-08-24T17:21:23+02:00*%
%TF.ProjectId,npn-pnp-h-bridge,6e706e2d-706e-4702-9d68-2d6272696467,rev?*%
%TF.SameCoordinates,Original*%
%TF.FileFunction,Drillmap*%
%TF.FilePolarity,Positive*%
%FSLAX45Y45*%
G04 Gerber Fmt 4.5, Leading zero omitted, Abs format (unit mm)*
G04 Created by KiCad (PCBNEW 9.0.4) date 2025-08-24 17:21:23*
%MOMM*%
%LPD*%
G01*
G04 APERTURE LIST*
%ADD10C,0.050000*%
%ADD11C,0.200000*%
G04 APERTURE END LIST*
D10*
X19189289Y-10725000D02*
X14970711Y-10725000D01*
X14970711Y-8886260D02*
X19189290Y-8886260D01*
X19189289Y-8886260D02*
G75*
G02*
X19289290Y-8986260I1J-100000D01*
G01*
X14870711Y-8986260D02*
G75*
G02*
X14970711Y-8886261I99999J0D01*
G01*
X14970711Y-10725000D02*
G75*
G02*
X14870710Y-10625000I-1J100000D01*
G01*
X14870711Y-10625000D02*
X14870711Y-8986260D01*
X19289289Y-10625000D02*
G75*
G02*
X19189289Y-10724999I-99999J0D01*
G01*
X19289289Y-8986260D02*
X19289289Y-10625000D01*
D11*
X15128987Y-11038984D02*
X15128987Y-10838984D01*
X15128987Y-10838984D02*
X15176606Y-10838984D01*
X15176606Y-10838984D02*
X15205178Y-10848508D01*
X15205178Y-10848508D02*
X15224226Y-10867555D01*
X15224226Y-10867555D02*
X15233749Y-10886603D01*
X15233749Y-10886603D02*
X15243273Y-10924698D01*
X15243273Y-10924698D02*
X15243273Y-10953270D01*
X15243273Y-10953270D02*
X15233749Y-10991365D01*
X15233749Y-10991365D02*
X15224226Y-11010412D01*
X15224226Y-11010412D02*
X15205178Y-11029460D01*
X15205178Y-11029460D02*
X15176606Y-11038984D01*
X15176606Y-11038984D02*
X15128987Y-11038984D01*
X15328987Y-11038984D02*
X15328987Y-10905650D01*
X15328987Y-10943746D02*
X15338511Y-10924698D01*
X15338511Y-10924698D02*
X15348035Y-10915174D01*
X15348035Y-10915174D02*
X15367083Y-10905650D01*
X15367083Y-10905650D02*
X15386130Y-10905650D01*
X15452797Y-11038984D02*
X15452797Y-10905650D01*
X15452797Y-10838984D02*
X15443273Y-10848508D01*
X15443273Y-10848508D02*
X15452797Y-10858031D01*
X15452797Y-10858031D02*
X15462321Y-10848508D01*
X15462321Y-10848508D02*
X15452797Y-10838984D01*
X15452797Y-10838984D02*
X15452797Y-10858031D01*
X15576606Y-11038984D02*
X15557559Y-11029460D01*
X15557559Y-11029460D02*
X15548035Y-11010412D01*
X15548035Y-11010412D02*
X15548035Y-10838984D01*
X15681368Y-11038984D02*
X15662321Y-11029460D01*
X15662321Y-11029460D02*
X15652797Y-11010412D01*
X15652797Y-11010412D02*
X15652797Y-10838984D01*
X15909940Y-11038984D02*
X15909940Y-10838984D01*
X15909940Y-10838984D02*
X15976607Y-10981841D01*
X15976607Y-10981841D02*
X16043273Y-10838984D01*
X16043273Y-10838984D02*
X16043273Y-11038984D01*
X16224226Y-11038984D02*
X16224226Y-10934222D01*
X16224226Y-10934222D02*
X16214702Y-10915174D01*
X16214702Y-10915174D02*
X16195654Y-10905650D01*
X16195654Y-10905650D02*
X16157559Y-10905650D01*
X16157559Y-10905650D02*
X16138511Y-10915174D01*
X16224226Y-11029460D02*
X16205178Y-11038984D01*
X16205178Y-11038984D02*
X16157559Y-11038984D01*
X16157559Y-11038984D02*
X16138511Y-11029460D01*
X16138511Y-11029460D02*
X16128987Y-11010412D01*
X16128987Y-11010412D02*
X16128987Y-10991365D01*
X16128987Y-10991365D02*
X16138511Y-10972317D01*
X16138511Y-10972317D02*
X16157559Y-10962793D01*
X16157559Y-10962793D02*
X16205178Y-10962793D01*
X16205178Y-10962793D02*
X16224226Y-10953270D01*
X16319464Y-10905650D02*
X16319464Y-11105650D01*
X16319464Y-10915174D02*
X16338511Y-10905650D01*
X16338511Y-10905650D02*
X16376607Y-10905650D01*
X16376607Y-10905650D02*
X16395654Y-10915174D01*
X16395654Y-10915174D02*
X16405178Y-10924698D01*
X16405178Y-10924698D02*
X16414702Y-10943746D01*
X16414702Y-10943746D02*
X16414702Y-11000889D01*
X16414702Y-11000889D02*
X16405178Y-11019936D01*
X16405178Y-11019936D02*
X16395654Y-11029460D01*
X16395654Y-11029460D02*
X16376607Y-11038984D01*
X16376607Y-11038984D02*
X16338511Y-11038984D01*
X16338511Y-11038984D02*
X16319464Y-11029460D01*
X16500416Y-11019936D02*
X16509940Y-11029460D01*
X16509940Y-11029460D02*
X16500416Y-11038984D01*
X16500416Y-11038984D02*
X16490892Y-11029460D01*
X16490892Y-11029460D02*
X16500416Y-11019936D01*
X16500416Y-11019936D02*
X16500416Y-11038984D01*
X16500416Y-10915174D02*
X16509940Y-10924698D01*
X16509940Y-10924698D02*
X16500416Y-10934222D01*
X16500416Y-10934222D02*
X16490892Y-10924698D01*
X16490892Y-10924698D02*
X16500416Y-10915174D01*
X16500416Y-10915174D02*
X16500416Y-10934222D01*
M02*
