G04 #@! TF.GenerationSoftware,KiCad,Pcbnew,9.0.4*
G04 #@! TF.CreationDate,2025-08-24T16:43:36+02:00*
G04 #@! TF.ProjectId,npn-pnp-h-bridge,6e706e2d-706e-4702-9d68-2d6272696467,rev?*
G04 #@! TF.SameCoordinates,Original*
G04 #@! TF.FileFunction,Legend,Top*
G04 #@! TF.FilePolarity,Positive*
%FSLAX46Y46*%
G04 Gerber Fmt 4.6, Leading zero omitted, Abs format (unit mm)*
G04 Created by KiCad (PCBNEW 9.0.4) date 2025-08-24 16:43:36*
%MOMM*%
%LPD*%
G01*
G04 APERTURE LIST*
G04 Aperture macros list*
%AMRoundRect*
0 Rectangle with rounded corners*
0 $1 Rounding radius*
0 $2 $3 $4 $5 $6 $7 $8 $9 X,Y pos of 4 corners*
0 Add a 4 corners polygon primitive as box body*
4,1,4,$2,$3,$4,$5,$6,$7,$8,$9,$2,$3,0*
0 Add four circle primitives for the rounded corners*
1,1,$1+$1,$2,$3*
1,1,$1+$1,$4,$5*
1,1,$1+$1,$6,$7*
1,1,$1+$1,$8,$9*
0 Add four rect primitives between the rounded corners*
20,1,$1+$1,$2,$3,$4,$5,0*
20,1,$1+$1,$4,$5,$6,$7,0*
20,1,$1+$1,$6,$7,$8,$9,0*
20,1,$1+$1,$8,$9,$2,$3,0*%
G04 Aperture macros list end*
%ADD10C,0.150000*%
%ADD11C,0.120000*%
%ADD12C,0.100000*%
%ADD13C,0.152400*%
%ADD14RoundRect,0.250000X-0.475000X0.337500X-0.475000X-0.337500X0.475000X-0.337500X0.475000X0.337500X0*%
%ADD15R,1.500000X1.050000*%
%ADD16O,1.500000X1.050000*%
%ADD17RoundRect,0.250000X-0.350000X-0.450000X0.350000X-0.450000X0.350000X0.450000X-0.350000X0.450000X0*%
%ADD18RoundRect,0.250000X0.350000X0.450000X-0.350000X0.450000X-0.350000X-0.450000X0.350000X-0.450000X0*%
%ADD19R,1.300000X1.300000*%
%ADD20C,1.300000*%
%ADD21RoundRect,0.200000X-0.200000X0.750000X-0.200000X-0.750000X0.200000X-0.750000X0.200000X0.750000X0*%
%ADD22RoundRect,0.250000X-0.450000X0.350000X-0.450000X-0.350000X0.450000X-0.350000X0.450000X0.350000X0*%
%ADD23RoundRect,0.200000X-0.750000X-0.200000X0.750000X-0.200000X0.750000X0.200000X-0.750000X0.200000X0*%
%ADD24RoundRect,0.250000X0.450000X-0.350000X0.450000X0.350000X-0.450000X0.350000X-0.450000X-0.350000X0*%
%ADD25RoundRect,0.200000X0.750000X0.200000X-0.750000X0.200000X-0.750000X-0.200000X0.750000X-0.200000X0*%
%ADD26C,1.270000*%
G04 APERTURE END LIST*
D10*
X185366667Y-94186104D02*
X185328571Y-94224200D01*
X185328571Y-94224200D02*
X185214286Y-94262295D01*
X185214286Y-94262295D02*
X185138095Y-94262295D01*
X185138095Y-94262295D02*
X185023809Y-94224200D01*
X185023809Y-94224200D02*
X184947619Y-94148009D01*
X184947619Y-94148009D02*
X184909524Y-94071819D01*
X184909524Y-94071819D02*
X184871428Y-93919438D01*
X184871428Y-93919438D02*
X184871428Y-93805152D01*
X184871428Y-93805152D02*
X184909524Y-93652771D01*
X184909524Y-93652771D02*
X184947619Y-93576580D01*
X184947619Y-93576580D02*
X185023809Y-93500390D01*
X185023809Y-93500390D02*
X185138095Y-93462295D01*
X185138095Y-93462295D02*
X185214286Y-93462295D01*
X185214286Y-93462295D02*
X185328571Y-93500390D01*
X185328571Y-93500390D02*
X185366667Y-93538485D01*
X185633333Y-93462295D02*
X186128571Y-93462295D01*
X186128571Y-93462295D02*
X185861905Y-93767057D01*
X185861905Y-93767057D02*
X185976190Y-93767057D01*
X185976190Y-93767057D02*
X186052381Y-93805152D01*
X186052381Y-93805152D02*
X186090476Y-93843247D01*
X186090476Y-93843247D02*
X186128571Y-93919438D01*
X186128571Y-93919438D02*
X186128571Y-94109914D01*
X186128571Y-94109914D02*
X186090476Y-94186104D01*
X186090476Y-94186104D02*
X186052381Y-94224200D01*
X186052381Y-94224200D02*
X185976190Y-94262295D01*
X185976190Y-94262295D02*
X185747619Y-94262295D01*
X185747619Y-94262295D02*
X185671428Y-94224200D01*
X185671428Y-94224200D02*
X185633333Y-94186104D01*
X175840642Y-100051085D02*
X175764452Y-100012990D01*
X175764452Y-100012990D02*
X175688261Y-99936800D01*
X175688261Y-99936800D02*
X175573975Y-99822514D01*
X175573975Y-99822514D02*
X175497785Y-99784419D01*
X175497785Y-99784419D02*
X175421594Y-99784419D01*
X175459690Y-99974895D02*
X175383499Y-99936800D01*
X175383499Y-99936800D02*
X175307309Y-99860609D01*
X175307309Y-99860609D02*
X175269213Y-99708228D01*
X175269213Y-99708228D02*
X175269213Y-99441561D01*
X175269213Y-99441561D02*
X175307309Y-99289180D01*
X175307309Y-99289180D02*
X175383499Y-99212990D01*
X175383499Y-99212990D02*
X175459690Y-99174895D01*
X175459690Y-99174895D02*
X175612071Y-99174895D01*
X175612071Y-99174895D02*
X175688261Y-99212990D01*
X175688261Y-99212990D02*
X175764452Y-99289180D01*
X175764452Y-99289180D02*
X175802547Y-99441561D01*
X175802547Y-99441561D02*
X175802547Y-99708228D01*
X175802547Y-99708228D02*
X175764452Y-99860609D01*
X175764452Y-99860609D02*
X175688261Y-99936800D01*
X175688261Y-99936800D02*
X175612071Y-99974895D01*
X175612071Y-99974895D02*
X175459690Y-99974895D01*
X176145404Y-99974895D02*
X176145404Y-99441561D01*
X176145404Y-99593942D02*
X176183499Y-99517752D01*
X176183499Y-99517752D02*
X176221594Y-99479657D01*
X176221594Y-99479657D02*
X176297785Y-99441561D01*
X176297785Y-99441561D02*
X176373975Y-99441561D01*
X177059689Y-99974895D02*
X176602546Y-99974895D01*
X176831118Y-99974895D02*
X176831118Y-99174895D01*
X176831118Y-99174895D02*
X176754927Y-99289180D01*
X176754927Y-99289180D02*
X176678737Y-99365371D01*
X176678737Y-99365371D02*
X176602546Y-99403466D01*
X158885714Y-105562295D02*
X158619047Y-105181342D01*
X158428571Y-105562295D02*
X158428571Y-104762295D01*
X158428571Y-104762295D02*
X158733333Y-104762295D01*
X158733333Y-104762295D02*
X158809523Y-104800390D01*
X158809523Y-104800390D02*
X158847618Y-104838485D01*
X158847618Y-104838485D02*
X158885714Y-104914676D01*
X158885714Y-104914676D02*
X158885714Y-105028961D01*
X158885714Y-105028961D02*
X158847618Y-105105152D01*
X158847618Y-105105152D02*
X158809523Y-105143247D01*
X158809523Y-105143247D02*
X158733333Y-105181342D01*
X158733333Y-105181342D02*
X158428571Y-105181342D01*
X159647618Y-105562295D02*
X159190475Y-105562295D01*
X159419047Y-105562295D02*
X159419047Y-104762295D01*
X159419047Y-104762295D02*
X159342856Y-104876580D01*
X159342856Y-104876580D02*
X159266666Y-104952771D01*
X159266666Y-104952771D02*
X159190475Y-104990866D01*
X159914285Y-104762295D02*
X160409523Y-104762295D01*
X160409523Y-104762295D02*
X160142857Y-105067057D01*
X160142857Y-105067057D02*
X160257142Y-105067057D01*
X160257142Y-105067057D02*
X160333333Y-105105152D01*
X160333333Y-105105152D02*
X160371428Y-105143247D01*
X160371428Y-105143247D02*
X160409523Y-105219438D01*
X160409523Y-105219438D02*
X160409523Y-105409914D01*
X160409523Y-105409914D02*
X160371428Y-105486104D01*
X160371428Y-105486104D02*
X160333333Y-105524200D01*
X160333333Y-105524200D02*
X160257142Y-105562295D01*
X160257142Y-105562295D02*
X160028571Y-105562295D01*
X160028571Y-105562295D02*
X159952380Y-105524200D01*
X159952380Y-105524200D02*
X159914285Y-105486104D01*
X190090166Y-105979795D02*
X189823499Y-105598842D01*
X189633023Y-105979795D02*
X189633023Y-105179795D01*
X189633023Y-105179795D02*
X189937785Y-105179795D01*
X189937785Y-105179795D02*
X190013975Y-105217890D01*
X190013975Y-105217890D02*
X190052070Y-105255985D01*
X190052070Y-105255985D02*
X190090166Y-105332176D01*
X190090166Y-105332176D02*
X190090166Y-105446461D01*
X190090166Y-105446461D02*
X190052070Y-105522652D01*
X190052070Y-105522652D02*
X190013975Y-105560747D01*
X190013975Y-105560747D02*
X189937785Y-105598842D01*
X189937785Y-105598842D02*
X189633023Y-105598842D01*
X190852070Y-105979795D02*
X190394927Y-105979795D01*
X190623499Y-105979795D02*
X190623499Y-105179795D01*
X190623499Y-105179795D02*
X190547308Y-105294080D01*
X190547308Y-105294080D02*
X190471118Y-105370271D01*
X190471118Y-105370271D02*
X190394927Y-105408366D01*
X191156832Y-105255985D02*
X191194928Y-105217890D01*
X191194928Y-105217890D02*
X191271118Y-105179795D01*
X191271118Y-105179795D02*
X191461594Y-105179795D01*
X191461594Y-105179795D02*
X191537785Y-105217890D01*
X191537785Y-105217890D02*
X191575880Y-105255985D01*
X191575880Y-105255985D02*
X191613975Y-105332176D01*
X191613975Y-105332176D02*
X191613975Y-105408366D01*
X191613975Y-105408366D02*
X191575880Y-105522652D01*
X191575880Y-105522652D02*
X191118737Y-105979795D01*
X191118737Y-105979795D02*
X191613975Y-105979795D01*
X155866667Y-97762295D02*
X155600000Y-97381342D01*
X155409524Y-97762295D02*
X155409524Y-96962295D01*
X155409524Y-96962295D02*
X155714286Y-96962295D01*
X155714286Y-96962295D02*
X155790476Y-97000390D01*
X155790476Y-97000390D02*
X155828571Y-97038485D01*
X155828571Y-97038485D02*
X155866667Y-97114676D01*
X155866667Y-97114676D02*
X155866667Y-97228961D01*
X155866667Y-97228961D02*
X155828571Y-97305152D01*
X155828571Y-97305152D02*
X155790476Y-97343247D01*
X155790476Y-97343247D02*
X155714286Y-97381342D01*
X155714286Y-97381342D02*
X155409524Y-97381342D01*
X156133333Y-96962295D02*
X156666667Y-96962295D01*
X156666667Y-96962295D02*
X156323809Y-97762295D01*
X156285714Y-106162295D02*
X156019047Y-105781342D01*
X155828571Y-106162295D02*
X155828571Y-105362295D01*
X155828571Y-105362295D02*
X156133333Y-105362295D01*
X156133333Y-105362295D02*
X156209523Y-105400390D01*
X156209523Y-105400390D02*
X156247618Y-105438485D01*
X156247618Y-105438485D02*
X156285714Y-105514676D01*
X156285714Y-105514676D02*
X156285714Y-105628961D01*
X156285714Y-105628961D02*
X156247618Y-105705152D01*
X156247618Y-105705152D02*
X156209523Y-105743247D01*
X156209523Y-105743247D02*
X156133333Y-105781342D01*
X156133333Y-105781342D02*
X155828571Y-105781342D01*
X157047618Y-106162295D02*
X156590475Y-106162295D01*
X156819047Y-106162295D02*
X156819047Y-105362295D01*
X156819047Y-105362295D02*
X156742856Y-105476580D01*
X156742856Y-105476580D02*
X156666666Y-105552771D01*
X156666666Y-105552771D02*
X156590475Y-105590866D01*
X157809523Y-106162295D02*
X157352380Y-106162295D01*
X157580952Y-106162295D02*
X157580952Y-105362295D01*
X157580952Y-105362295D02*
X157504761Y-105476580D01*
X157504761Y-105476580D02*
X157428571Y-105552771D01*
X157428571Y-105552771D02*
X157352380Y-105590866D01*
X172933333Y-98562295D02*
X172933333Y-99133723D01*
X172933333Y-99133723D02*
X172895238Y-99248009D01*
X172895238Y-99248009D02*
X172819047Y-99324200D01*
X172819047Y-99324200D02*
X172704762Y-99362295D01*
X172704762Y-99362295D02*
X172628571Y-99362295D01*
X173276190Y-98638485D02*
X173314286Y-98600390D01*
X173314286Y-98600390D02*
X173390476Y-98562295D01*
X173390476Y-98562295D02*
X173580952Y-98562295D01*
X173580952Y-98562295D02*
X173657143Y-98600390D01*
X173657143Y-98600390D02*
X173695238Y-98638485D01*
X173695238Y-98638485D02*
X173733333Y-98714676D01*
X173733333Y-98714676D02*
X173733333Y-98790866D01*
X173733333Y-98790866D02*
X173695238Y-98905152D01*
X173695238Y-98905152D02*
X173238095Y-99362295D01*
X173238095Y-99362295D02*
X173733333Y-99362295D01*
X189966667Y-94186104D02*
X189928571Y-94224200D01*
X189928571Y-94224200D02*
X189814286Y-94262295D01*
X189814286Y-94262295D02*
X189738095Y-94262295D01*
X189738095Y-94262295D02*
X189623809Y-94224200D01*
X189623809Y-94224200D02*
X189547619Y-94148009D01*
X189547619Y-94148009D02*
X189509524Y-94071819D01*
X189509524Y-94071819D02*
X189471428Y-93919438D01*
X189471428Y-93919438D02*
X189471428Y-93805152D01*
X189471428Y-93805152D02*
X189509524Y-93652771D01*
X189509524Y-93652771D02*
X189547619Y-93576580D01*
X189547619Y-93576580D02*
X189623809Y-93500390D01*
X189623809Y-93500390D02*
X189738095Y-93462295D01*
X189738095Y-93462295D02*
X189814286Y-93462295D01*
X189814286Y-93462295D02*
X189928571Y-93500390D01*
X189928571Y-93500390D02*
X189966667Y-93538485D01*
X190652381Y-93728961D02*
X190652381Y-94262295D01*
X190461905Y-93424200D02*
X190271428Y-93995628D01*
X190271428Y-93995628D02*
X190766667Y-93995628D01*
X157209524Y-101562295D02*
X157209524Y-100762295D01*
X157209524Y-100762295D02*
X157400000Y-100762295D01*
X157400000Y-100762295D02*
X157514286Y-100800390D01*
X157514286Y-100800390D02*
X157590476Y-100876580D01*
X157590476Y-100876580D02*
X157628571Y-100952771D01*
X157628571Y-100952771D02*
X157666667Y-101105152D01*
X157666667Y-101105152D02*
X157666667Y-101219438D01*
X157666667Y-101219438D02*
X157628571Y-101371819D01*
X157628571Y-101371819D02*
X157590476Y-101448009D01*
X157590476Y-101448009D02*
X157514286Y-101524200D01*
X157514286Y-101524200D02*
X157400000Y-101562295D01*
X157400000Y-101562295D02*
X157209524Y-101562295D01*
X158390476Y-100762295D02*
X158009524Y-100762295D01*
X158009524Y-100762295D02*
X157971428Y-101143247D01*
X157971428Y-101143247D02*
X158009524Y-101105152D01*
X158009524Y-101105152D02*
X158085714Y-101067057D01*
X158085714Y-101067057D02*
X158276190Y-101067057D01*
X158276190Y-101067057D02*
X158352381Y-101105152D01*
X158352381Y-101105152D02*
X158390476Y-101143247D01*
X158390476Y-101143247D02*
X158428571Y-101219438D01*
X158428571Y-101219438D02*
X158428571Y-101409914D01*
X158428571Y-101409914D02*
X158390476Y-101486104D01*
X158390476Y-101486104D02*
X158352381Y-101524200D01*
X158352381Y-101524200D02*
X158276190Y-101562295D01*
X158276190Y-101562295D02*
X158085714Y-101562295D01*
X158085714Y-101562295D02*
X158009524Y-101524200D01*
X158009524Y-101524200D02*
X157971428Y-101486104D01*
X158666667Y-94232295D02*
X158400000Y-93851342D01*
X158209524Y-94232295D02*
X158209524Y-93432295D01*
X158209524Y-93432295D02*
X158514286Y-93432295D01*
X158514286Y-93432295D02*
X158590476Y-93470390D01*
X158590476Y-93470390D02*
X158628571Y-93508485D01*
X158628571Y-93508485D02*
X158666667Y-93584676D01*
X158666667Y-93584676D02*
X158666667Y-93698961D01*
X158666667Y-93698961D02*
X158628571Y-93775152D01*
X158628571Y-93775152D02*
X158590476Y-93813247D01*
X158590476Y-93813247D02*
X158514286Y-93851342D01*
X158514286Y-93851342D02*
X158209524Y-93851342D01*
X158971428Y-93508485D02*
X159009524Y-93470390D01*
X159009524Y-93470390D02*
X159085714Y-93432295D01*
X159085714Y-93432295D02*
X159276190Y-93432295D01*
X159276190Y-93432295D02*
X159352381Y-93470390D01*
X159352381Y-93470390D02*
X159390476Y-93508485D01*
X159390476Y-93508485D02*
X159428571Y-93584676D01*
X159428571Y-93584676D02*
X159428571Y-93660866D01*
X159428571Y-93660866D02*
X159390476Y-93775152D01*
X159390476Y-93775152D02*
X158933333Y-94232295D01*
X158933333Y-94232295D02*
X159428571Y-94232295D01*
X155923809Y-104038485D02*
X155847619Y-104000390D01*
X155847619Y-104000390D02*
X155771428Y-103924200D01*
X155771428Y-103924200D02*
X155657142Y-103809914D01*
X155657142Y-103809914D02*
X155580952Y-103771819D01*
X155580952Y-103771819D02*
X155504761Y-103771819D01*
X155542857Y-103962295D02*
X155466666Y-103924200D01*
X155466666Y-103924200D02*
X155390476Y-103848009D01*
X155390476Y-103848009D02*
X155352380Y-103695628D01*
X155352380Y-103695628D02*
X155352380Y-103428961D01*
X155352380Y-103428961D02*
X155390476Y-103276580D01*
X155390476Y-103276580D02*
X155466666Y-103200390D01*
X155466666Y-103200390D02*
X155542857Y-103162295D01*
X155542857Y-103162295D02*
X155695238Y-103162295D01*
X155695238Y-103162295D02*
X155771428Y-103200390D01*
X155771428Y-103200390D02*
X155847619Y-103276580D01*
X155847619Y-103276580D02*
X155885714Y-103428961D01*
X155885714Y-103428961D02*
X155885714Y-103695628D01*
X155885714Y-103695628D02*
X155847619Y-103848009D01*
X155847619Y-103848009D02*
X155771428Y-103924200D01*
X155771428Y-103924200D02*
X155695238Y-103962295D01*
X155695238Y-103962295D02*
X155542857Y-103962295D01*
X156647618Y-103962295D02*
X156190475Y-103962295D01*
X156419047Y-103962295D02*
X156419047Y-103162295D01*
X156419047Y-103162295D02*
X156342856Y-103276580D01*
X156342856Y-103276580D02*
X156266666Y-103352771D01*
X156266666Y-103352771D02*
X156190475Y-103390866D01*
X155923809Y-100263485D02*
X155847619Y-100225390D01*
X155847619Y-100225390D02*
X155771428Y-100149200D01*
X155771428Y-100149200D02*
X155657142Y-100034914D01*
X155657142Y-100034914D02*
X155580952Y-99996819D01*
X155580952Y-99996819D02*
X155504761Y-99996819D01*
X155542857Y-100187295D02*
X155466666Y-100149200D01*
X155466666Y-100149200D02*
X155390476Y-100073009D01*
X155390476Y-100073009D02*
X155352380Y-99920628D01*
X155352380Y-99920628D02*
X155352380Y-99653961D01*
X155352380Y-99653961D02*
X155390476Y-99501580D01*
X155390476Y-99501580D02*
X155466666Y-99425390D01*
X155466666Y-99425390D02*
X155542857Y-99387295D01*
X155542857Y-99387295D02*
X155695238Y-99387295D01*
X155695238Y-99387295D02*
X155771428Y-99425390D01*
X155771428Y-99425390D02*
X155847619Y-99501580D01*
X155847619Y-99501580D02*
X155885714Y-99653961D01*
X155885714Y-99653961D02*
X155885714Y-99920628D01*
X155885714Y-99920628D02*
X155847619Y-100073009D01*
X155847619Y-100073009D02*
X155771428Y-100149200D01*
X155771428Y-100149200D02*
X155695238Y-100187295D01*
X155695238Y-100187295D02*
X155542857Y-100187295D01*
X156190475Y-99463485D02*
X156228571Y-99425390D01*
X156228571Y-99425390D02*
X156304761Y-99387295D01*
X156304761Y-99387295D02*
X156495237Y-99387295D01*
X156495237Y-99387295D02*
X156571428Y-99425390D01*
X156571428Y-99425390D02*
X156609523Y-99463485D01*
X156609523Y-99463485D02*
X156647618Y-99539676D01*
X156647618Y-99539676D02*
X156647618Y-99615866D01*
X156647618Y-99615866D02*
X156609523Y-99730152D01*
X156609523Y-99730152D02*
X156152380Y-100187295D01*
X156152380Y-100187295D02*
X156647618Y-100187295D01*
X182690166Y-106829795D02*
X182423499Y-106448842D01*
X182233023Y-106829795D02*
X182233023Y-106029795D01*
X182233023Y-106029795D02*
X182537785Y-106029795D01*
X182537785Y-106029795D02*
X182613975Y-106067890D01*
X182613975Y-106067890D02*
X182652070Y-106105985D01*
X182652070Y-106105985D02*
X182690166Y-106182176D01*
X182690166Y-106182176D02*
X182690166Y-106296461D01*
X182690166Y-106296461D02*
X182652070Y-106372652D01*
X182652070Y-106372652D02*
X182613975Y-106410747D01*
X182613975Y-106410747D02*
X182537785Y-106448842D01*
X182537785Y-106448842D02*
X182233023Y-106448842D01*
X183452070Y-106829795D02*
X182994927Y-106829795D01*
X183223499Y-106829795D02*
X183223499Y-106029795D01*
X183223499Y-106029795D02*
X183147308Y-106144080D01*
X183147308Y-106144080D02*
X183071118Y-106220271D01*
X183071118Y-106220271D02*
X182994927Y-106258366D01*
X184137785Y-106296461D02*
X184137785Y-106829795D01*
X183947309Y-105991700D02*
X183756832Y-106563128D01*
X183756832Y-106563128D02*
X184252071Y-106563128D01*
X165952462Y-100051085D02*
X165876272Y-100012990D01*
X165876272Y-100012990D02*
X165800081Y-99936800D01*
X165800081Y-99936800D02*
X165685795Y-99822514D01*
X165685795Y-99822514D02*
X165609605Y-99784419D01*
X165609605Y-99784419D02*
X165533414Y-99784419D01*
X165571510Y-99974895D02*
X165495319Y-99936800D01*
X165495319Y-99936800D02*
X165419129Y-99860609D01*
X165419129Y-99860609D02*
X165381033Y-99708228D01*
X165381033Y-99708228D02*
X165381033Y-99441561D01*
X165381033Y-99441561D02*
X165419129Y-99289180D01*
X165419129Y-99289180D02*
X165495319Y-99212990D01*
X165495319Y-99212990D02*
X165571510Y-99174895D01*
X165571510Y-99174895D02*
X165723891Y-99174895D01*
X165723891Y-99174895D02*
X165800081Y-99212990D01*
X165800081Y-99212990D02*
X165876272Y-99289180D01*
X165876272Y-99289180D02*
X165914367Y-99441561D01*
X165914367Y-99441561D02*
X165914367Y-99708228D01*
X165914367Y-99708228D02*
X165876272Y-99860609D01*
X165876272Y-99860609D02*
X165800081Y-99936800D01*
X165800081Y-99936800D02*
X165723891Y-99974895D01*
X165723891Y-99974895D02*
X165571510Y-99974895D01*
X166371509Y-99974895D02*
X166295319Y-99936800D01*
X166295319Y-99936800D02*
X166257224Y-99860609D01*
X166257224Y-99860609D02*
X166257224Y-99174895D01*
X167095319Y-99974895D02*
X166638176Y-99974895D01*
X166866748Y-99974895D02*
X166866748Y-99174895D01*
X166866748Y-99174895D02*
X166790557Y-99289180D01*
X166790557Y-99289180D02*
X166714367Y-99365371D01*
X166714367Y-99365371D02*
X166638176Y-99403466D01*
X190085714Y-96962295D02*
X189819047Y-96581342D01*
X189628571Y-96962295D02*
X189628571Y-96162295D01*
X189628571Y-96162295D02*
X189933333Y-96162295D01*
X189933333Y-96162295D02*
X190009523Y-96200390D01*
X190009523Y-96200390D02*
X190047618Y-96238485D01*
X190047618Y-96238485D02*
X190085714Y-96314676D01*
X190085714Y-96314676D02*
X190085714Y-96428961D01*
X190085714Y-96428961D02*
X190047618Y-96505152D01*
X190047618Y-96505152D02*
X190009523Y-96543247D01*
X190009523Y-96543247D02*
X189933333Y-96581342D01*
X189933333Y-96581342D02*
X189628571Y-96581342D01*
X190847618Y-96962295D02*
X190390475Y-96962295D01*
X190619047Y-96962295D02*
X190619047Y-96162295D01*
X190619047Y-96162295D02*
X190542856Y-96276580D01*
X190542856Y-96276580D02*
X190466666Y-96352771D01*
X190466666Y-96352771D02*
X190390475Y-96390866D01*
X191342857Y-96162295D02*
X191419047Y-96162295D01*
X191419047Y-96162295D02*
X191495238Y-96200390D01*
X191495238Y-96200390D02*
X191533333Y-96238485D01*
X191533333Y-96238485D02*
X191571428Y-96314676D01*
X191571428Y-96314676D02*
X191609523Y-96467057D01*
X191609523Y-96467057D02*
X191609523Y-96657533D01*
X191609523Y-96657533D02*
X191571428Y-96809914D01*
X191571428Y-96809914D02*
X191533333Y-96886104D01*
X191533333Y-96886104D02*
X191495238Y-96924200D01*
X191495238Y-96924200D02*
X191419047Y-96962295D01*
X191419047Y-96962295D02*
X191342857Y-96962295D01*
X191342857Y-96962295D02*
X191266666Y-96924200D01*
X191266666Y-96924200D02*
X191228571Y-96886104D01*
X191228571Y-96886104D02*
X191190476Y-96809914D01*
X191190476Y-96809914D02*
X191152380Y-96657533D01*
X191152380Y-96657533D02*
X191152380Y-96467057D01*
X191152380Y-96467057D02*
X191190476Y-96314676D01*
X191190476Y-96314676D02*
X191228571Y-96238485D01*
X191228571Y-96238485D02*
X191266666Y-96200390D01*
X191266666Y-96200390D02*
X191342857Y-96162295D01*
X183266667Y-94262295D02*
X183000000Y-93881342D01*
X182809524Y-94262295D02*
X182809524Y-93462295D01*
X182809524Y-93462295D02*
X183114286Y-93462295D01*
X183114286Y-93462295D02*
X183190476Y-93500390D01*
X183190476Y-93500390D02*
X183228571Y-93538485D01*
X183228571Y-93538485D02*
X183266667Y-93614676D01*
X183266667Y-93614676D02*
X183266667Y-93728961D01*
X183266667Y-93728961D02*
X183228571Y-93805152D01*
X183228571Y-93805152D02*
X183190476Y-93843247D01*
X183190476Y-93843247D02*
X183114286Y-93881342D01*
X183114286Y-93881342D02*
X182809524Y-93881342D01*
X183990476Y-93462295D02*
X183609524Y-93462295D01*
X183609524Y-93462295D02*
X183571428Y-93843247D01*
X183571428Y-93843247D02*
X183609524Y-93805152D01*
X183609524Y-93805152D02*
X183685714Y-93767057D01*
X183685714Y-93767057D02*
X183876190Y-93767057D01*
X183876190Y-93767057D02*
X183952381Y-93805152D01*
X183952381Y-93805152D02*
X183990476Y-93843247D01*
X183990476Y-93843247D02*
X184028571Y-93919438D01*
X184028571Y-93919438D02*
X184028571Y-94109914D01*
X184028571Y-94109914D02*
X183990476Y-94186104D01*
X183990476Y-94186104D02*
X183952381Y-94224200D01*
X183952381Y-94224200D02*
X183876190Y-94262295D01*
X183876190Y-94262295D02*
X183685714Y-94262295D01*
X183685714Y-94262295D02*
X183609524Y-94224200D01*
X183609524Y-94224200D02*
X183571428Y-94186104D01*
X160066667Y-95562295D02*
X159800000Y-95181342D01*
X159609524Y-95562295D02*
X159609524Y-94762295D01*
X159609524Y-94762295D02*
X159914286Y-94762295D01*
X159914286Y-94762295D02*
X159990476Y-94800390D01*
X159990476Y-94800390D02*
X160028571Y-94838485D01*
X160028571Y-94838485D02*
X160066667Y-94914676D01*
X160066667Y-94914676D02*
X160066667Y-95028961D01*
X160066667Y-95028961D02*
X160028571Y-95105152D01*
X160028571Y-95105152D02*
X159990476Y-95143247D01*
X159990476Y-95143247D02*
X159914286Y-95181342D01*
X159914286Y-95181342D02*
X159609524Y-95181342D01*
X160523809Y-95105152D02*
X160447619Y-95067057D01*
X160447619Y-95067057D02*
X160409524Y-95028961D01*
X160409524Y-95028961D02*
X160371428Y-94952771D01*
X160371428Y-94952771D02*
X160371428Y-94914676D01*
X160371428Y-94914676D02*
X160409524Y-94838485D01*
X160409524Y-94838485D02*
X160447619Y-94800390D01*
X160447619Y-94800390D02*
X160523809Y-94762295D01*
X160523809Y-94762295D02*
X160676190Y-94762295D01*
X160676190Y-94762295D02*
X160752381Y-94800390D01*
X160752381Y-94800390D02*
X160790476Y-94838485D01*
X160790476Y-94838485D02*
X160828571Y-94914676D01*
X160828571Y-94914676D02*
X160828571Y-94952771D01*
X160828571Y-94952771D02*
X160790476Y-95028961D01*
X160790476Y-95028961D02*
X160752381Y-95067057D01*
X160752381Y-95067057D02*
X160676190Y-95105152D01*
X160676190Y-95105152D02*
X160523809Y-95105152D01*
X160523809Y-95105152D02*
X160447619Y-95143247D01*
X160447619Y-95143247D02*
X160409524Y-95181342D01*
X160409524Y-95181342D02*
X160371428Y-95257533D01*
X160371428Y-95257533D02*
X160371428Y-95409914D01*
X160371428Y-95409914D02*
X160409524Y-95486104D01*
X160409524Y-95486104D02*
X160447619Y-95524200D01*
X160447619Y-95524200D02*
X160523809Y-95562295D01*
X160523809Y-95562295D02*
X160676190Y-95562295D01*
X160676190Y-95562295D02*
X160752381Y-95524200D01*
X160752381Y-95524200D02*
X160790476Y-95486104D01*
X160790476Y-95486104D02*
X160828571Y-95409914D01*
X160828571Y-95409914D02*
X160828571Y-95257533D01*
X160828571Y-95257533D02*
X160790476Y-95181342D01*
X160790476Y-95181342D02*
X160752381Y-95143247D01*
X160752381Y-95143247D02*
X160676190Y-95105152D01*
X180940693Y-94262295D02*
X180674026Y-93881342D01*
X180483550Y-94262295D02*
X180483550Y-93462295D01*
X180483550Y-93462295D02*
X180788312Y-93462295D01*
X180788312Y-93462295D02*
X180864502Y-93500390D01*
X180864502Y-93500390D02*
X180902597Y-93538485D01*
X180902597Y-93538485D02*
X180940693Y-93614676D01*
X180940693Y-93614676D02*
X180940693Y-93728961D01*
X180940693Y-93728961D02*
X180902597Y-93805152D01*
X180902597Y-93805152D02*
X180864502Y-93843247D01*
X180864502Y-93843247D02*
X180788312Y-93881342D01*
X180788312Y-93881342D02*
X180483550Y-93881342D01*
X181626407Y-93728961D02*
X181626407Y-94262295D01*
X181435931Y-93424200D02*
X181245454Y-93995628D01*
X181245454Y-93995628D02*
X181740693Y-93995628D01*
X180809524Y-101362295D02*
X180809524Y-100562295D01*
X180809524Y-100562295D02*
X181000000Y-100562295D01*
X181000000Y-100562295D02*
X181114286Y-100600390D01*
X181114286Y-100600390D02*
X181190476Y-100676580D01*
X181190476Y-100676580D02*
X181228571Y-100752771D01*
X181228571Y-100752771D02*
X181266667Y-100905152D01*
X181266667Y-100905152D02*
X181266667Y-101019438D01*
X181266667Y-101019438D02*
X181228571Y-101171819D01*
X181228571Y-101171819D02*
X181190476Y-101248009D01*
X181190476Y-101248009D02*
X181114286Y-101324200D01*
X181114286Y-101324200D02*
X181000000Y-101362295D01*
X181000000Y-101362295D02*
X180809524Y-101362295D01*
X181952381Y-100562295D02*
X181800000Y-100562295D01*
X181800000Y-100562295D02*
X181723809Y-100600390D01*
X181723809Y-100600390D02*
X181685714Y-100638485D01*
X181685714Y-100638485D02*
X181609524Y-100752771D01*
X181609524Y-100752771D02*
X181571428Y-100905152D01*
X181571428Y-100905152D02*
X181571428Y-101209914D01*
X181571428Y-101209914D02*
X181609524Y-101286104D01*
X181609524Y-101286104D02*
X181647619Y-101324200D01*
X181647619Y-101324200D02*
X181723809Y-101362295D01*
X181723809Y-101362295D02*
X181876190Y-101362295D01*
X181876190Y-101362295D02*
X181952381Y-101324200D01*
X181952381Y-101324200D02*
X181990476Y-101286104D01*
X181990476Y-101286104D02*
X182028571Y-101209914D01*
X182028571Y-101209914D02*
X182028571Y-101019438D01*
X182028571Y-101019438D02*
X181990476Y-100943247D01*
X181990476Y-100943247D02*
X181952381Y-100905152D01*
X181952381Y-100905152D02*
X181876190Y-100867057D01*
X181876190Y-100867057D02*
X181723809Y-100867057D01*
X181723809Y-100867057D02*
X181647619Y-100905152D01*
X181647619Y-100905152D02*
X181609524Y-100943247D01*
X181609524Y-100943247D02*
X181571428Y-101019438D01*
X187766667Y-94262295D02*
X187500000Y-93881342D01*
X187309524Y-94262295D02*
X187309524Y-93462295D01*
X187309524Y-93462295D02*
X187614286Y-93462295D01*
X187614286Y-93462295D02*
X187690476Y-93500390D01*
X187690476Y-93500390D02*
X187728571Y-93538485D01*
X187728571Y-93538485D02*
X187766667Y-93614676D01*
X187766667Y-93614676D02*
X187766667Y-93728961D01*
X187766667Y-93728961D02*
X187728571Y-93805152D01*
X187728571Y-93805152D02*
X187690476Y-93843247D01*
X187690476Y-93843247D02*
X187614286Y-93881342D01*
X187614286Y-93881342D02*
X187309524Y-93881342D01*
X188452381Y-93462295D02*
X188300000Y-93462295D01*
X188300000Y-93462295D02*
X188223809Y-93500390D01*
X188223809Y-93500390D02*
X188185714Y-93538485D01*
X188185714Y-93538485D02*
X188109524Y-93652771D01*
X188109524Y-93652771D02*
X188071428Y-93805152D01*
X188071428Y-93805152D02*
X188071428Y-94109914D01*
X188071428Y-94109914D02*
X188109524Y-94186104D01*
X188109524Y-94186104D02*
X188147619Y-94224200D01*
X188147619Y-94224200D02*
X188223809Y-94262295D01*
X188223809Y-94262295D02*
X188376190Y-94262295D01*
X188376190Y-94262295D02*
X188452381Y-94224200D01*
X188452381Y-94224200D02*
X188490476Y-94186104D01*
X188490476Y-94186104D02*
X188528571Y-94109914D01*
X188528571Y-94109914D02*
X188528571Y-93919438D01*
X188528571Y-93919438D02*
X188490476Y-93843247D01*
X188490476Y-93843247D02*
X188452381Y-93805152D01*
X188452381Y-93805152D02*
X188376190Y-93767057D01*
X188376190Y-93767057D02*
X188223809Y-93767057D01*
X188223809Y-93767057D02*
X188147619Y-93805152D01*
X188147619Y-93805152D02*
X188109524Y-93843247D01*
X188109524Y-93843247D02*
X188071428Y-93919438D01*
X156566667Y-94156104D02*
X156528571Y-94194200D01*
X156528571Y-94194200D02*
X156414286Y-94232295D01*
X156414286Y-94232295D02*
X156338095Y-94232295D01*
X156338095Y-94232295D02*
X156223809Y-94194200D01*
X156223809Y-94194200D02*
X156147619Y-94118009D01*
X156147619Y-94118009D02*
X156109524Y-94041819D01*
X156109524Y-94041819D02*
X156071428Y-93889438D01*
X156071428Y-93889438D02*
X156071428Y-93775152D01*
X156071428Y-93775152D02*
X156109524Y-93622771D01*
X156109524Y-93622771D02*
X156147619Y-93546580D01*
X156147619Y-93546580D02*
X156223809Y-93470390D01*
X156223809Y-93470390D02*
X156338095Y-93432295D01*
X156338095Y-93432295D02*
X156414286Y-93432295D01*
X156414286Y-93432295D02*
X156528571Y-93470390D01*
X156528571Y-93470390D02*
X156566667Y-93508485D01*
X156871428Y-93508485D02*
X156909524Y-93470390D01*
X156909524Y-93470390D02*
X156985714Y-93432295D01*
X156985714Y-93432295D02*
X157176190Y-93432295D01*
X157176190Y-93432295D02*
X157252381Y-93470390D01*
X157252381Y-93470390D02*
X157290476Y-93508485D01*
X157290476Y-93508485D02*
X157328571Y-93584676D01*
X157328571Y-93584676D02*
X157328571Y-93660866D01*
X157328571Y-93660866D02*
X157290476Y-93775152D01*
X157290476Y-93775152D02*
X156833333Y-94232295D01*
X156833333Y-94232295D02*
X157328571Y-94232295D01*
X185528261Y-104155985D02*
X185452071Y-104117890D01*
X185452071Y-104117890D02*
X185375880Y-104041700D01*
X185375880Y-104041700D02*
X185261594Y-103927414D01*
X185261594Y-103927414D02*
X185185404Y-103889319D01*
X185185404Y-103889319D02*
X185109213Y-103889319D01*
X185147309Y-104079795D02*
X185071118Y-104041700D01*
X185071118Y-104041700D02*
X184994928Y-103965509D01*
X184994928Y-103965509D02*
X184956832Y-103813128D01*
X184956832Y-103813128D02*
X184956832Y-103546461D01*
X184956832Y-103546461D02*
X184994928Y-103394080D01*
X184994928Y-103394080D02*
X185071118Y-103317890D01*
X185071118Y-103317890D02*
X185147309Y-103279795D01*
X185147309Y-103279795D02*
X185299690Y-103279795D01*
X185299690Y-103279795D02*
X185375880Y-103317890D01*
X185375880Y-103317890D02*
X185452071Y-103394080D01*
X185452071Y-103394080D02*
X185490166Y-103546461D01*
X185490166Y-103546461D02*
X185490166Y-103813128D01*
X185490166Y-103813128D02*
X185452071Y-103965509D01*
X185452071Y-103965509D02*
X185375880Y-104041700D01*
X185375880Y-104041700D02*
X185299690Y-104079795D01*
X185299690Y-104079795D02*
X185147309Y-104079795D01*
X185756832Y-103279795D02*
X186252070Y-103279795D01*
X186252070Y-103279795D02*
X185985404Y-103584557D01*
X185985404Y-103584557D02*
X186099689Y-103584557D01*
X186099689Y-103584557D02*
X186175880Y-103622652D01*
X186175880Y-103622652D02*
X186213975Y-103660747D01*
X186213975Y-103660747D02*
X186252070Y-103736938D01*
X186252070Y-103736938D02*
X186252070Y-103927414D01*
X186252070Y-103927414D02*
X186213975Y-104003604D01*
X186213975Y-104003604D02*
X186175880Y-104041700D01*
X186175880Y-104041700D02*
X186099689Y-104079795D01*
X186099689Y-104079795D02*
X185871118Y-104079795D01*
X185871118Y-104079795D02*
X185794927Y-104041700D01*
X185794927Y-104041700D02*
X185756832Y-104003604D01*
X166433333Y-96962295D02*
X166433333Y-97533723D01*
X166433333Y-97533723D02*
X166395238Y-97648009D01*
X166395238Y-97648009D02*
X166319047Y-97724200D01*
X166319047Y-97724200D02*
X166204762Y-97762295D01*
X166204762Y-97762295D02*
X166128571Y-97762295D01*
X167233333Y-97762295D02*
X166776190Y-97762295D01*
X167004762Y-97762295D02*
X167004762Y-96962295D01*
X167004762Y-96962295D02*
X166928571Y-97076580D01*
X166928571Y-97076580D02*
X166852381Y-97152771D01*
X166852381Y-97152771D02*
X166776190Y-97190866D01*
X152066667Y-94156104D02*
X152028571Y-94194200D01*
X152028571Y-94194200D02*
X151914286Y-94232295D01*
X151914286Y-94232295D02*
X151838095Y-94232295D01*
X151838095Y-94232295D02*
X151723809Y-94194200D01*
X151723809Y-94194200D02*
X151647619Y-94118009D01*
X151647619Y-94118009D02*
X151609524Y-94041819D01*
X151609524Y-94041819D02*
X151571428Y-93889438D01*
X151571428Y-93889438D02*
X151571428Y-93775152D01*
X151571428Y-93775152D02*
X151609524Y-93622771D01*
X151609524Y-93622771D02*
X151647619Y-93546580D01*
X151647619Y-93546580D02*
X151723809Y-93470390D01*
X151723809Y-93470390D02*
X151838095Y-93432295D01*
X151838095Y-93432295D02*
X151914286Y-93432295D01*
X151914286Y-93432295D02*
X152028571Y-93470390D01*
X152028571Y-93470390D02*
X152066667Y-93508485D01*
X152828571Y-94232295D02*
X152371428Y-94232295D01*
X152600000Y-94232295D02*
X152600000Y-93432295D01*
X152600000Y-93432295D02*
X152523809Y-93546580D01*
X152523809Y-93546580D02*
X152447619Y-93622771D01*
X152447619Y-93622771D02*
X152371428Y-93660866D01*
X175935714Y-106551085D02*
X175859524Y-106512990D01*
X175859524Y-106512990D02*
X175783333Y-106436800D01*
X175783333Y-106436800D02*
X175669047Y-106322514D01*
X175669047Y-106322514D02*
X175592857Y-106284419D01*
X175592857Y-106284419D02*
X175516666Y-106284419D01*
X175554762Y-106474895D02*
X175478571Y-106436800D01*
X175478571Y-106436800D02*
X175402381Y-106360609D01*
X175402381Y-106360609D02*
X175364285Y-106208228D01*
X175364285Y-106208228D02*
X175364285Y-105941561D01*
X175364285Y-105941561D02*
X175402381Y-105789180D01*
X175402381Y-105789180D02*
X175478571Y-105712990D01*
X175478571Y-105712990D02*
X175554762Y-105674895D01*
X175554762Y-105674895D02*
X175707143Y-105674895D01*
X175707143Y-105674895D02*
X175783333Y-105712990D01*
X175783333Y-105712990D02*
X175859524Y-105789180D01*
X175859524Y-105789180D02*
X175897619Y-105941561D01*
X175897619Y-105941561D02*
X175897619Y-106208228D01*
X175897619Y-106208228D02*
X175859524Y-106360609D01*
X175859524Y-106360609D02*
X175783333Y-106436800D01*
X175783333Y-106436800D02*
X175707143Y-106474895D01*
X175707143Y-106474895D02*
X175554762Y-106474895D01*
X176240476Y-106474895D02*
X176240476Y-105941561D01*
X176240476Y-106093942D02*
X176278571Y-106017752D01*
X176278571Y-106017752D02*
X176316666Y-105979657D01*
X176316666Y-105979657D02*
X176392857Y-105941561D01*
X176392857Y-105941561D02*
X176469047Y-105941561D01*
X176697618Y-105751085D02*
X176735714Y-105712990D01*
X176735714Y-105712990D02*
X176811904Y-105674895D01*
X176811904Y-105674895D02*
X177002380Y-105674895D01*
X177002380Y-105674895D02*
X177078571Y-105712990D01*
X177078571Y-105712990D02*
X177116666Y-105751085D01*
X177116666Y-105751085D02*
X177154761Y-105827276D01*
X177154761Y-105827276D02*
X177154761Y-105903466D01*
X177154761Y-105903466D02*
X177116666Y-106017752D01*
X177116666Y-106017752D02*
X176659523Y-106474895D01*
X176659523Y-106474895D02*
X177154761Y-106474895D01*
X165761986Y-106551085D02*
X165685796Y-106512990D01*
X165685796Y-106512990D02*
X165609605Y-106436800D01*
X165609605Y-106436800D02*
X165495319Y-106322514D01*
X165495319Y-106322514D02*
X165419129Y-106284419D01*
X165419129Y-106284419D02*
X165342938Y-106284419D01*
X165381034Y-106474895D02*
X165304843Y-106436800D01*
X165304843Y-106436800D02*
X165228653Y-106360609D01*
X165228653Y-106360609D02*
X165190557Y-106208228D01*
X165190557Y-106208228D02*
X165190557Y-105941561D01*
X165190557Y-105941561D02*
X165228653Y-105789180D01*
X165228653Y-105789180D02*
X165304843Y-105712990D01*
X165304843Y-105712990D02*
X165381034Y-105674895D01*
X165381034Y-105674895D02*
X165533415Y-105674895D01*
X165533415Y-105674895D02*
X165609605Y-105712990D01*
X165609605Y-105712990D02*
X165685796Y-105789180D01*
X165685796Y-105789180D02*
X165723891Y-105941561D01*
X165723891Y-105941561D02*
X165723891Y-106208228D01*
X165723891Y-106208228D02*
X165685796Y-106360609D01*
X165685796Y-106360609D02*
X165609605Y-106436800D01*
X165609605Y-106436800D02*
X165533415Y-106474895D01*
X165533415Y-106474895D02*
X165381034Y-106474895D01*
X166181033Y-106474895D02*
X166104843Y-106436800D01*
X166104843Y-106436800D02*
X166066748Y-106360609D01*
X166066748Y-106360609D02*
X166066748Y-105674895D01*
X166447700Y-105751085D02*
X166485796Y-105712990D01*
X166485796Y-105712990D02*
X166561986Y-105674895D01*
X166561986Y-105674895D02*
X166752462Y-105674895D01*
X166752462Y-105674895D02*
X166828653Y-105712990D01*
X166828653Y-105712990D02*
X166866748Y-105751085D01*
X166866748Y-105751085D02*
X166904843Y-105827276D01*
X166904843Y-105827276D02*
X166904843Y-105903466D01*
X166904843Y-105903466D02*
X166866748Y-106017752D01*
X166866748Y-106017752D02*
X166409605Y-106474895D01*
X166409605Y-106474895D02*
X166904843Y-106474895D01*
X154366667Y-94232295D02*
X154100000Y-93851342D01*
X153909524Y-94232295D02*
X153909524Y-93432295D01*
X153909524Y-93432295D02*
X154214286Y-93432295D01*
X154214286Y-93432295D02*
X154290476Y-93470390D01*
X154290476Y-93470390D02*
X154328571Y-93508485D01*
X154328571Y-93508485D02*
X154366667Y-93584676D01*
X154366667Y-93584676D02*
X154366667Y-93698961D01*
X154366667Y-93698961D02*
X154328571Y-93775152D01*
X154328571Y-93775152D02*
X154290476Y-93813247D01*
X154290476Y-93813247D02*
X154214286Y-93851342D01*
X154214286Y-93851342D02*
X153909524Y-93851342D01*
X155128571Y-94232295D02*
X154671428Y-94232295D01*
X154900000Y-94232295D02*
X154900000Y-93432295D01*
X154900000Y-93432295D02*
X154823809Y-93546580D01*
X154823809Y-93546580D02*
X154747619Y-93622771D01*
X154747619Y-93622771D02*
X154671428Y-93660866D01*
X185428261Y-100305985D02*
X185352071Y-100267890D01*
X185352071Y-100267890D02*
X185275880Y-100191700D01*
X185275880Y-100191700D02*
X185161594Y-100077414D01*
X185161594Y-100077414D02*
X185085404Y-100039319D01*
X185085404Y-100039319D02*
X185009213Y-100039319D01*
X185047309Y-100229795D02*
X184971118Y-100191700D01*
X184971118Y-100191700D02*
X184894928Y-100115509D01*
X184894928Y-100115509D02*
X184856832Y-99963128D01*
X184856832Y-99963128D02*
X184856832Y-99696461D01*
X184856832Y-99696461D02*
X184894928Y-99544080D01*
X184894928Y-99544080D02*
X184971118Y-99467890D01*
X184971118Y-99467890D02*
X185047309Y-99429795D01*
X185047309Y-99429795D02*
X185199690Y-99429795D01*
X185199690Y-99429795D02*
X185275880Y-99467890D01*
X185275880Y-99467890D02*
X185352071Y-99544080D01*
X185352071Y-99544080D02*
X185390166Y-99696461D01*
X185390166Y-99696461D02*
X185390166Y-99963128D01*
X185390166Y-99963128D02*
X185352071Y-100115509D01*
X185352071Y-100115509D02*
X185275880Y-100191700D01*
X185275880Y-100191700D02*
X185199690Y-100229795D01*
X185199690Y-100229795D02*
X185047309Y-100229795D01*
X186075880Y-99696461D02*
X186075880Y-100229795D01*
X185885404Y-99391700D02*
X185694927Y-99963128D01*
X185694927Y-99963128D02*
X186190166Y-99963128D01*
X161066667Y-94232295D02*
X160800000Y-93851342D01*
X160609524Y-94232295D02*
X160609524Y-93432295D01*
X160609524Y-93432295D02*
X160914286Y-93432295D01*
X160914286Y-93432295D02*
X160990476Y-93470390D01*
X160990476Y-93470390D02*
X161028571Y-93508485D01*
X161028571Y-93508485D02*
X161066667Y-93584676D01*
X161066667Y-93584676D02*
X161066667Y-93698961D01*
X161066667Y-93698961D02*
X161028571Y-93775152D01*
X161028571Y-93775152D02*
X160990476Y-93813247D01*
X160990476Y-93813247D02*
X160914286Y-93851342D01*
X160914286Y-93851342D02*
X160609524Y-93851342D01*
X161333333Y-93432295D02*
X161828571Y-93432295D01*
X161828571Y-93432295D02*
X161561905Y-93737057D01*
X161561905Y-93737057D02*
X161676190Y-93737057D01*
X161676190Y-93737057D02*
X161752381Y-93775152D01*
X161752381Y-93775152D02*
X161790476Y-93813247D01*
X161790476Y-93813247D02*
X161828571Y-93889438D01*
X161828571Y-93889438D02*
X161828571Y-94079914D01*
X161828571Y-94079914D02*
X161790476Y-94156104D01*
X161790476Y-94156104D02*
X161752381Y-94194200D01*
X161752381Y-94194200D02*
X161676190Y-94232295D01*
X161676190Y-94232295D02*
X161447619Y-94232295D01*
X161447619Y-94232295D02*
X161371428Y-94194200D01*
X161371428Y-94194200D02*
X161333333Y-94156104D01*
X185066667Y-97562295D02*
X184800000Y-97181342D01*
X184609524Y-97562295D02*
X184609524Y-96762295D01*
X184609524Y-96762295D02*
X184914286Y-96762295D01*
X184914286Y-96762295D02*
X184990476Y-96800390D01*
X184990476Y-96800390D02*
X185028571Y-96838485D01*
X185028571Y-96838485D02*
X185066667Y-96914676D01*
X185066667Y-96914676D02*
X185066667Y-97028961D01*
X185066667Y-97028961D02*
X185028571Y-97105152D01*
X185028571Y-97105152D02*
X184990476Y-97143247D01*
X184990476Y-97143247D02*
X184914286Y-97181342D01*
X184914286Y-97181342D02*
X184609524Y-97181342D01*
X185447619Y-97562295D02*
X185600000Y-97562295D01*
X185600000Y-97562295D02*
X185676190Y-97524200D01*
X185676190Y-97524200D02*
X185714286Y-97486104D01*
X185714286Y-97486104D02*
X185790476Y-97371819D01*
X185790476Y-97371819D02*
X185828571Y-97219438D01*
X185828571Y-97219438D02*
X185828571Y-96914676D01*
X185828571Y-96914676D02*
X185790476Y-96838485D01*
X185790476Y-96838485D02*
X185752381Y-96800390D01*
X185752381Y-96800390D02*
X185676190Y-96762295D01*
X185676190Y-96762295D02*
X185523809Y-96762295D01*
X185523809Y-96762295D02*
X185447619Y-96800390D01*
X185447619Y-96800390D02*
X185409524Y-96838485D01*
X185409524Y-96838485D02*
X185371428Y-96914676D01*
X185371428Y-96914676D02*
X185371428Y-97105152D01*
X185371428Y-97105152D02*
X185409524Y-97181342D01*
X185409524Y-97181342D02*
X185447619Y-97219438D01*
X185447619Y-97219438D02*
X185523809Y-97257533D01*
X185523809Y-97257533D02*
X185676190Y-97257533D01*
X185676190Y-97257533D02*
X185752381Y-97219438D01*
X185752381Y-97219438D02*
X185790476Y-97181342D01*
X185790476Y-97181342D02*
X185828571Y-97105152D01*
D11*
G04 #@! TO.C,C3*
X184805725Y-91241662D02*
X184805725Y-91764166D01*
X186275725Y-91241662D02*
X186275725Y-91764166D01*
G04 #@! TO.C,Qr1*
X180800000Y-98438531D02*
X180800000Y-94838531D01*
X176350000Y-96638531D02*
G75*
G02*
X180788478Y-94800053I2600000J0D01*
G01*
X180788478Y-98477009D02*
G75*
G02*
X176349999Y-96638531I-1838478J1838478D01*
G01*
G04 #@! TO.C,R13*
X158772936Y-102665000D02*
X159227064Y-102665000D01*
X158772936Y-104135000D02*
X159227064Y-104135000D01*
G04 #@! TO.C,R12*
X187372936Y-104615000D02*
X187827064Y-104615000D01*
X187372936Y-106085000D02*
X187827064Y-106085000D01*
G04 #@! TO.C,R7*
X154027064Y-94925000D02*
X153572936Y-94925000D01*
X154027064Y-96395000D02*
X153572936Y-96395000D01*
G04 #@! TO.C,R11*
X153827064Y-104665000D02*
X153372936Y-104665000D01*
X153827064Y-106135000D02*
X153372936Y-106135000D01*
D12*
G04 #@! TO.C,J2*
X167850000Y-99850000D02*
X167850000Y-107450000D01*
X167850000Y-107450000D02*
X173750000Y-107450000D01*
X173750000Y-99850000D02*
X167850000Y-99850000D01*
X173750000Y-107450000D02*
X173750000Y-99850000D01*
D11*
G04 #@! TO.C,C4*
X189305725Y-91241662D02*
X189305725Y-91764166D01*
X190775725Y-91241662D02*
X190775725Y-91764166D01*
G04 #@! TO.C,D5*
X157420000Y-100260000D02*
X157420000Y-98800000D01*
X157420000Y-100260000D02*
X158350000Y-100260000D01*
X160580000Y-99460000D02*
X160580000Y-98660000D01*
X160580000Y-99460000D02*
X160580000Y-100260000D01*
X160580000Y-100260000D02*
X159650000Y-100260000D01*
X160940000Y-98400000D02*
X160610000Y-98160000D01*
X160940000Y-97920000D01*
X160940000Y-98400000D01*
G36*
X160940000Y-98400000D02*
G01*
X160610000Y-98160000D01*
X160940000Y-97920000D01*
X160940000Y-98400000D01*
G37*
G04 #@! TO.C,R2*
X158113672Y-91278534D02*
X158113672Y-91732662D01*
X159583672Y-91278534D02*
X159583672Y-91732662D01*
G04 #@! TO.C,Q1*
X154260000Y-100820000D02*
X153460000Y-100820000D01*
X154260000Y-100820000D02*
X155060000Y-100820000D01*
X155060000Y-100820000D02*
X155060000Y-101750000D01*
X155060000Y-103980000D02*
X153600000Y-103980000D01*
X155060000Y-103980000D02*
X155060000Y-103050000D01*
X152960000Y-100790000D02*
X152720000Y-100460000D01*
X153200000Y-100460000D01*
X152960000Y-100790000D01*
G36*
X152960000Y-100790000D02*
G01*
X152720000Y-100460000D01*
X153200000Y-100460000D01*
X152960000Y-100790000D01*
G37*
G04 #@! TO.C,Q2*
X154260000Y-97045000D02*
X153460000Y-97045000D01*
X154260000Y-97045000D02*
X155060000Y-97045000D01*
X155060000Y-97045000D02*
X155060000Y-97975000D01*
X155060000Y-100205000D02*
X153600000Y-100205000D01*
X155060000Y-100205000D02*
X155060000Y-99275000D01*
X152960000Y-97015000D02*
X152720000Y-96685000D01*
X153200000Y-96685000D01*
X152960000Y-97015000D01*
G36*
X152960000Y-97015000D02*
G01*
X152720000Y-96685000D01*
X153200000Y-96685000D01*
X152960000Y-97015000D01*
G37*
G04 #@! TO.C,R14*
X182665000Y-103772936D02*
X182665000Y-104227064D01*
X184135000Y-103772936D02*
X184135000Y-104227064D01*
G04 #@! TO.C,Ql1*
X165442127Y-98427589D02*
X165442127Y-94827589D01*
X160992127Y-96627589D02*
G75*
G02*
X165430605Y-94789111I2600000J0D01*
G01*
X165430605Y-98466067D02*
G75*
G02*
X160992126Y-96627589I-1838478J1838478D01*
G01*
G04 #@! TO.C,R10*
X187275032Y-94923623D02*
X187729160Y-94923623D01*
X187275032Y-96393623D02*
X187729160Y-96393623D01*
G04 #@! TO.C,R5*
X182605725Y-91305850D02*
X182605725Y-91759978D01*
X184075725Y-91305850D02*
X184075725Y-91759978D01*
G04 #@! TO.C,R8*
X157572936Y-94925000D02*
X158027064Y-94925000D01*
X157572936Y-96395000D02*
X158027064Y-96395000D01*
G04 #@! TO.C,R4*
X180365000Y-91759978D02*
X180365000Y-91305850D01*
X181835000Y-91759978D02*
X181835000Y-91305850D01*
G04 #@! TO.C,D6*
X181266175Y-100168311D02*
X181266175Y-98708311D01*
X181266175Y-100168311D02*
X182196175Y-100168311D01*
X184426175Y-99368311D02*
X184426175Y-98568311D01*
X184426175Y-99368311D02*
X184426175Y-100168311D01*
X184426175Y-100168311D02*
X183496175Y-100168311D01*
X184786175Y-98308311D02*
X184456175Y-98068311D01*
X184786175Y-97828311D01*
X184786175Y-98308311D01*
G36*
X184786175Y-98308311D02*
G01*
X184456175Y-98068311D01*
X184786175Y-97828311D01*
X184786175Y-98308311D01*
G37*
G04 #@! TO.C,R6*
X187105725Y-91305850D02*
X187105725Y-91759978D01*
X188575725Y-91305850D02*
X188575725Y-91759978D01*
G04 #@! TO.C,C2*
X155913672Y-91274346D02*
X155913672Y-91796850D01*
X157383672Y-91274346D02*
X157383672Y-91796850D01*
G04 #@! TO.C,Q3*
X186540000Y-100870000D02*
X186540000Y-101800000D01*
X186540000Y-100870000D02*
X188000000Y-100870000D01*
X186540000Y-104030000D02*
X186540000Y-103100000D01*
X187340000Y-104030000D02*
X186540000Y-104030000D01*
X187340000Y-104030000D02*
X188140000Y-104030000D01*
X188880000Y-104390000D02*
X188400000Y-104390000D01*
X188640000Y-104060000D01*
X188880000Y-104390000D01*
G36*
X188880000Y-104390000D02*
G01*
X188400000Y-104390000D01*
X188640000Y-104060000D01*
X188880000Y-104390000D01*
G37*
D13*
G04 #@! TO.C,J1*
X165815100Y-88745800D02*
X165815100Y-96594400D01*
X165815100Y-96594400D02*
X175975100Y-96594400D01*
X175975100Y-88745800D02*
X165815100Y-88745800D01*
X175975100Y-96594400D02*
X175975100Y-88745800D01*
D11*
G04 #@! TO.C,C1*
X151447422Y-91274346D02*
X151447422Y-91796850D01*
X152917422Y-91274346D02*
X152917422Y-91796850D01*
G04 #@! TO.C,Qr2*
X176485548Y-100978531D02*
X176485548Y-104578531D01*
X176497070Y-100940053D02*
G75*
G02*
X180935549Y-102778531I1838478J-1838478D01*
G01*
X180935548Y-102778531D02*
G75*
G02*
X176497070Y-104617009I-2600000J0D01*
G01*
G04 #@! TO.C,Ql2*
X161012127Y-100897589D02*
X161012127Y-104497589D01*
X161023649Y-100859111D02*
G75*
G02*
X165462128Y-102697589I1838478J-1838478D01*
G01*
X165462127Y-102697589D02*
G75*
G02*
X161023649Y-104536067I-2600000J0D01*
G01*
G04 #@! TO.C,R1*
X153647422Y-91278534D02*
X153647422Y-91732662D01*
X155117422Y-91278534D02*
X155117422Y-91732662D01*
G04 #@! TO.C,Q4*
X186540000Y-97020000D02*
X186540000Y-97950000D01*
X186540000Y-97020000D02*
X188000000Y-97020000D01*
X186540000Y-100180000D02*
X186540000Y-99250000D01*
X187340000Y-100180000D02*
X186540000Y-100180000D01*
X187340000Y-100180000D02*
X188140000Y-100180000D01*
X188880000Y-100540000D02*
X188400000Y-100540000D01*
X188640000Y-100210000D01*
X188880000Y-100540000D01*
G36*
X188880000Y-100540000D02*
G01*
X188400000Y-100540000D01*
X188640000Y-100210000D01*
X188880000Y-100540000D01*
G37*
G04 #@! TO.C,R3*
X160465000Y-91762662D02*
X160465000Y-91308534D01*
X161935000Y-91762662D02*
X161935000Y-91308534D01*
G04 #@! TO.C,R9*
X183172936Y-94865000D02*
X183627064Y-94865000D01*
X183172936Y-96335000D02*
X183627064Y-96335000D01*
G04 #@! TD*
%LPC*%
D14*
G04 #@! TO.C,C3*
X185540725Y-90465414D03*
X185540725Y-92540414D03*
G04 #@! TD*
D15*
G04 #@! TO.C,Qr1*
X178950000Y-97908531D03*
D16*
X178950000Y-96638531D03*
X178950000Y-95368531D03*
G04 #@! TD*
D17*
G04 #@! TO.C,R13*
X158000000Y-103400000D03*
X160000000Y-103400000D03*
G04 #@! TD*
G04 #@! TO.C,R12*
X186600000Y-105350000D03*
X188600000Y-105350000D03*
G04 #@! TD*
D18*
G04 #@! TO.C,R7*
X154800000Y-95660000D03*
X152800000Y-95660000D03*
G04 #@! TD*
G04 #@! TO.C,R11*
X154600000Y-105400000D03*
X152600000Y-105400000D03*
G04 #@! TD*
D19*
G04 #@! TO.C,J2*
X169800000Y-101200000D03*
D20*
X171800000Y-101200000D03*
G04 #@! TD*
D14*
G04 #@! TO.C,C4*
X190040725Y-90465414D03*
X190040725Y-92540414D03*
G04 #@! TD*
D21*
G04 #@! TO.C,D5*
X159950000Y-98000000D03*
X158050000Y-98000000D03*
X159000000Y-101000000D03*
G04 #@! TD*
D22*
G04 #@! TO.C,R2*
X158848672Y-90505598D03*
X158848672Y-92505598D03*
G04 #@! TD*
D23*
G04 #@! TO.C,Q1*
X152800000Y-101450000D03*
X152800000Y-103350000D03*
X155800000Y-102400000D03*
G04 #@! TD*
G04 #@! TO.C,Q2*
X152800000Y-97675000D03*
X152800000Y-99575000D03*
X155800000Y-98625000D03*
G04 #@! TD*
D22*
G04 #@! TO.C,R14*
X183400000Y-103000000D03*
X183400000Y-105000000D03*
G04 #@! TD*
D15*
G04 #@! TO.C,Ql1*
X163592127Y-97897589D03*
D16*
X163592127Y-96627589D03*
X163592127Y-95357589D03*
G04 #@! TD*
D17*
G04 #@! TO.C,R10*
X186502096Y-95658623D03*
X188502096Y-95658623D03*
G04 #@! TD*
D22*
G04 #@! TO.C,R5*
X183340725Y-90532914D03*
X183340725Y-92532914D03*
G04 #@! TD*
D17*
G04 #@! TO.C,R8*
X156800000Y-95660000D03*
X158800000Y-95660000D03*
G04 #@! TD*
D24*
G04 #@! TO.C,R4*
X181100000Y-92532914D03*
X181100000Y-90532914D03*
G04 #@! TD*
D21*
G04 #@! TO.C,D6*
X183796175Y-97908311D03*
X181896175Y-97908311D03*
X182846175Y-100908311D03*
G04 #@! TD*
D22*
G04 #@! TO.C,R6*
X187840725Y-90532914D03*
X187840725Y-92532914D03*
G04 #@! TD*
D14*
G04 #@! TO.C,C2*
X156648672Y-90498098D03*
X156648672Y-92573098D03*
G04 #@! TD*
D25*
G04 #@! TO.C,Q3*
X188800000Y-103400000D03*
X188800000Y-101500000D03*
X185800000Y-102450000D03*
G04 #@! TD*
D26*
G04 #@! TO.C,J1*
X173895099Y-95117400D03*
X171895100Y-95117400D03*
X169895099Y-95117400D03*
X167895101Y-95117400D03*
G04 #@! TD*
D14*
G04 #@! TO.C,C1*
X152182422Y-90498098D03*
X152182422Y-92573098D03*
G04 #@! TD*
D15*
G04 #@! TO.C,Qr2*
X178335548Y-101508531D03*
D16*
X178335548Y-102778531D03*
X178335548Y-104048531D03*
G04 #@! TD*
D15*
G04 #@! TO.C,Ql2*
X162862127Y-101427589D03*
D16*
X162862127Y-102697589D03*
X162862127Y-103967589D03*
G04 #@! TD*
D22*
G04 #@! TO.C,R1*
X154382422Y-90505598D03*
X154382422Y-92505598D03*
G04 #@! TD*
D25*
G04 #@! TO.C,Q4*
X188800000Y-99550000D03*
X188800000Y-97650000D03*
X185800000Y-98600000D03*
G04 #@! TD*
D24*
G04 #@! TO.C,R3*
X161200000Y-92535598D03*
X161200000Y-90535598D03*
G04 #@! TD*
D17*
G04 #@! TO.C,R9*
X182400000Y-95600000D03*
X184400000Y-95600000D03*
G04 #@! TD*
%LPD*%
M02*
