G04 #@! TF.GenerationSoftware,KiCad,Pcbnew,9.0.3*
G04 #@! TF.CreationDate,2025-08-08T21:26:55+02:00*
G04 #@! TF.ProjectId,npn-pnp-h-bridge,6e706e2d-706e-4702-9d68-2d6272696467,rev?*
G04 #@! TF.SameCoordinates,Original*
G04 #@! TF.FileFunction,Paste,Top*
G04 #@! TF.FilePolarity,Positive*
%FSLAX46Y46*%
G04 Gerber Fmt 4.6, Leading zero omitted, Abs format (unit mm)*
G04 Created by KiCad (PCBNEW 9.0.3) date 2025-08-08 21:26:55*
%MOMM*%
%LPD*%
G01*
G04 APERTURE LIST*
G04 Aperture macros list*
%AMRoundRect*
0 Rectangle with rounded corners*
0 $1 Rounding radius*
0 $2 $3 $4 $5 $6 $7 $8 $9 X,Y pos of 4 corners*
0 Add a 4 corners polygon primitive as box body*
4,1,4,$2,$3,$4,$5,$6,$7,$8,$9,$2,$3,0*
0 Add four circle primitives for the rounded corners*
1,1,$1+$1,$2,$3*
1,1,$1+$1,$4,$5*
1,1,$1+$1,$6,$7*
1,1,$1+$1,$8,$9*
0 Add four rect primitives between the rounded corners*
20,1,$1+$1,$2,$3,$4,$5,0*
20,1,$1+$1,$4,$5,$6,$7,0*
20,1,$1+$1,$6,$7,$8,$9,0*
20,1,$1+$1,$8,$9,$2,$3,0*%
G04 Aperture macros list end*
%ADD10RoundRect,0.250000X-0.475000X0.337500X-0.475000X-0.337500X0.475000X-0.337500X0.475000X0.337500X0*%
%ADD11RoundRect,0.250000X0.450000X-0.350000X0.450000X0.350000X-0.450000X0.350000X-0.450000X-0.350000X0*%
%ADD12RoundRect,0.250000X-0.350000X-0.450000X0.350000X-0.450000X0.350000X0.450000X-0.350000X0.450000X0*%
%ADD13RoundRect,0.250000X0.350000X0.450000X-0.350000X0.450000X-0.350000X-0.450000X0.350000X-0.450000X0*%
%ADD14RoundRect,0.250000X-0.450000X0.350000X-0.450000X-0.350000X0.450000X-0.350000X0.450000X0.350000X0*%
%ADD15RoundRect,0.200000X-0.750000X-0.200000X0.750000X-0.200000X0.750000X0.200000X-0.750000X0.200000X0*%
%ADD16RoundRect,0.200000X0.750000X0.200000X-0.750000X0.200000X-0.750000X-0.200000X0.750000X-0.200000X0*%
G04 APERTURE END LIST*
D10*
G04 #@! TO.C,C3*
X185540725Y-90465414D03*
X185540725Y-92540414D03*
G04 #@! TD*
D11*
G04 #@! TO.C,R13*
X159292127Y-104460000D03*
X159292127Y-102460000D03*
G04 #@! TD*
D12*
G04 #@! TO.C,R12*
X184595548Y-101532500D03*
X186595548Y-101532500D03*
G04 #@! TD*
D13*
G04 #@! TO.C,R7*
X157292127Y-95660000D03*
X155292127Y-95660000D03*
G04 #@! TD*
G04 #@! TO.C,R11*
X157292127Y-101460000D03*
X155292127Y-101460000D03*
G04 #@! TD*
D10*
G04 #@! TO.C,C4*
X190040725Y-90465414D03*
X190040725Y-92540414D03*
G04 #@! TD*
D14*
G04 #@! TO.C,R2*
X158848672Y-90505598D03*
X158848672Y-92505598D03*
G04 #@! TD*
G04 #@! TO.C,R14*
X182595548Y-102432500D03*
X182595548Y-104432500D03*
G04 #@! TD*
D12*
G04 #@! TO.C,R10*
X184595548Y-95532500D03*
X186595548Y-95532500D03*
G04 #@! TD*
D14*
G04 #@! TO.C,R5*
X183340725Y-90532914D03*
X183340725Y-92532914D03*
G04 #@! TD*
D11*
G04 #@! TO.C,R8*
X159292127Y-98460000D03*
X159292127Y-96460000D03*
G04 #@! TD*
D15*
G04 #@! TO.C,Q2*
X153792127Y-97510000D03*
X153792127Y-99410000D03*
X156792127Y-98460000D03*
G04 #@! TD*
D11*
G04 #@! TO.C,R4*
X181100000Y-92532914D03*
X181100000Y-90532914D03*
G04 #@! TD*
D14*
G04 #@! TO.C,R6*
X187840725Y-90532914D03*
X187840725Y-92532914D03*
G04 #@! TD*
D10*
G04 #@! TO.C,C2*
X156648672Y-90498098D03*
X156648672Y-92573098D03*
G04 #@! TD*
D16*
G04 #@! TO.C,Q3*
X187995548Y-105382500D03*
X187995548Y-103482500D03*
X184995548Y-104432500D03*
G04 #@! TD*
D10*
G04 #@! TO.C,C1*
X152182422Y-90498098D03*
X152182422Y-92573098D03*
G04 #@! TD*
D14*
G04 #@! TO.C,R1*
X154382422Y-90505598D03*
X154382422Y-92505598D03*
G04 #@! TD*
D16*
G04 #@! TO.C,Q4*
X187995548Y-99282500D03*
X187995548Y-97382500D03*
X184995548Y-98332500D03*
G04 #@! TD*
D15*
G04 #@! TO.C,Q1*
X153892127Y-103510000D03*
X153892127Y-105410000D03*
X156892127Y-104460000D03*
G04 #@! TD*
D11*
G04 #@! TO.C,R3*
X161200000Y-92535598D03*
X161200000Y-90535598D03*
G04 #@! TD*
D14*
G04 #@! TO.C,R9*
X182495548Y-96332500D03*
X182495548Y-98332500D03*
G04 #@! TD*
M02*
